<svg width="84" height="83" viewBox="0 0 84 83" fill="none" xmlns="http://www.w3.org/2000/svg">
<path fill-rule="evenodd" clip-rule="evenodd" d="M33.9558 3.77595C33.9565 2.98917 33.7112 2.22186 33.2542 1.5814C32.7973 0.94094 32.1515 0.459374 31.4073 0.204098C30.6631 -0.0511787 29.8577 -0.0673918 29.1038 0.157728C28.3499 0.382847 27.6853 0.838033 27.2029 1.45959L0.794859 35.4128C0.279696 36.075 0 36.8901 0 37.7291C0 38.5681 0.279696 39.3832 0.794859 40.0455L27.2029 73.9987C27.6853 74.6202 28.3499 75.0754 29.1038 75.3005C29.8577 75.5256 30.6631 75.5094 31.4073 75.2542C32.1515 74.9989 32.7973 74.5173 33.2542 73.8769C33.7112 73.2364 33.9565 72.4691 33.9558 71.6823V56.6297C54.2485 57.0523 63.9968 60.9041 68.8936 65.0916C73.549 69.0717 74.4016 73.7534 75.2881 78.6578L75.5183 79.9216C75.6876 80.8259 76.1815 81.6372 76.9071 82.2028C77.6327 82.7684 78.54 83.0494 79.4583 82.9929C80.3766 82.9363 81.2426 82.5461 81.8933 81.8958C82.544 81.2454 82.9347 80.3796 82.9917 79.4614C83.6368 69.0943 82.6673 54.0719 75.3447 41.5055C68.2372 29.3087 55.4368 19.9301 33.9558 18.9492V3.77595Z" fill="#6A9DD3"/>
</svg>
