<svg width="109" height="109" viewBox="0 0 109 109" fill="none" xmlns="http://www.w3.org/2000/svg">
<path d="M44.2812 82.4358C45.1846 82.4358 46.051 82.7947 46.6898 83.4335C47.3286 84.0723 47.6875 84.9387 47.6875 85.8421C47.6875 86.7454 47.3286 87.6118 46.6898 88.2506C46.051 88.8894 45.1846 89.2483 44.2812 89.2483C43.3779 89.2483 42.5115 88.8894 41.8727 88.2506C41.2339 87.6118 40.875 86.7454 40.875 85.8421C40.875 84.9387 41.2339 84.0723 41.8727 83.4335C42.5115 82.7947 43.3779 82.4358 44.2812 82.4358ZM64.7188 82.4358C65.6221 82.4358 66.4885 82.7947 67.1273 83.4335C67.7661 84.0723 68.125 84.9387 68.125 85.8421C68.125 86.7454 67.7661 87.6118 67.1273 88.2506C66.4885 88.8894 65.6221 89.2483 64.7188 89.2483C63.8154 89.2483 62.949 88.8894 62.3102 88.2506C61.6714 87.6118 61.3125 86.7454 61.3125 85.8421C61.3125 84.9387 61.6714 84.0723 62.3102 83.4335C62.949 82.7947 63.8154 82.4358 64.7188 82.4358ZM34.0625 77.8941C34.9659 77.8941 35.8323 78.253 36.4711 78.8918C37.1099 79.5306 37.4688 80.397 37.4688 81.3004C37.4688 82.2038 37.1099 83.0702 36.4711 83.709C35.8323 84.3478 34.9659 84.7066 34.0625 84.7066C33.1591 84.7066 32.2927 84.3478 31.6539 83.709C31.0151 83.0702 30.6562 82.2038 30.6562 81.3004C30.6562 80.397 31.0151 79.5306 31.6539 78.8918C32.2927 78.253 33.1591 77.8941 34.0625 77.8941ZM54.5 77.8941C55.4034 77.8941 56.2698 78.253 56.9086 78.8918C57.5474 79.5306 57.9062 80.397 57.9062 81.3004C57.9062 82.2038 57.5474 83.0702 56.9086 83.709C56.2698 84.3478 55.4034 84.7066 54.5 84.7066C53.5966 84.7066 52.7302 84.3478 52.0914 83.709C51.4526 83.0702 51.0938 82.2038 51.0938 81.3004C51.0938 80.397 51.4526 79.5306 52.0914 78.8918C52.7302 78.253 53.5966 77.8941 54.5 77.8941ZM74.9375 77.8941C75.8409 77.8941 76.7073 78.253 77.3461 78.8918C77.9849 79.5306 78.3438 80.397 78.3438 81.3004C78.3438 82.2038 77.9849 83.0702 77.3461 83.709C76.7073 84.3478 75.8409 84.7066 74.9375 84.7066C74.0341 84.7066 73.1677 84.3478 72.5289 83.709C71.8901 83.0702 71.5312 82.2038 71.5312 81.3004C71.5312 80.397 71.8901 79.5306 72.5289 78.8918C73.1677 78.253 74.0341 77.8941 74.9375 77.8941ZM54.5 18.1712C68.8925 18.1712 77.0539 27.6951 78.2393 39.1991H78.6026C80.802 39.1956 82.9805 39.6253 85.0138 40.4638C87.0471 41.3023 88.8953 42.5331 90.4528 44.086C92.0103 45.6389 93.2467 47.4834 94.0912 49.5142C94.9358 51.5449 95.372 53.7222 95.375 55.9216C95.3726 58.1213 94.9368 60.2991 94.0925 62.3304C93.2482 64.3617 92.012 66.2067 90.4544 67.76C88.8968 69.3134 87.0484 70.5447 85.0149 71.3834C82.9813 72.2222 80.8024 72.6521 78.6026 72.6485H30.3974C28.1976 72.6521 26.0187 72.2222 23.9851 71.3834C21.9515 70.5447 20.1032 69.3134 18.5456 67.76C16.988 66.2067 15.7518 64.3617 14.9075 62.3304C14.0632 60.2991 13.6274 58.1213 13.625 55.9216C13.628 53.7226 14.0641 51.5457 14.9083 49.5152C15.7526 47.4847 16.9885 45.6404 18.5456 44.0876C20.1026 42.5348 21.9503 41.3039 23.983 40.4651C26.0158 39.6263 28.1938 39.1962 30.3928 39.1991H30.7562C31.9552 27.6134 40.112 18.1667 54.5 18.1667V18.1712Z" fill="#5DAFA6"/>
</svg>
