<svg width="102" height="102" viewBox="0 0 102 102" fill="none" xmlns="http://www.w3.org/2000/svg">
<path d="M58.4808 56.117C59.109 56.6824 59.487 57.4741 59.5317 58.3181C59.5763 59.1621 59.2839 59.9893 58.7188 60.6177L53.997 65.8707H63.67C64.2705 65.87 64.859 66.0389 65.3677 66.358C65.8765 66.6771 66.2847 67.1334 66.5454 67.6744C66.8061 68.2154 66.9087 68.819 66.8414 69.4157C66.774 70.0124 66.5395 70.578 66.1647 71.0472L52.5137 88.179C51.9789 88.8139 51.2175 89.2151 50.3914 89.2972C49.5654 89.3794 48.7398 89.1361 48.0904 88.619C47.441 88.1019 47.019 87.3518 46.914 86.5284C46.8091 85.7049 47.0295 84.8729 47.5285 84.2095L57.057 72.2458H46.8443C46.2285 72.2457 45.6259 72.0672 45.1094 71.732C44.5929 71.3967 44.1846 70.9191 43.9337 70.3567C43.6829 69.7943 43.6003 69.1714 43.696 68.5631C43.7916 67.9548 44.0614 67.3872 44.4727 66.929L53.9757 56.355C54.2557 56.0433 54.5945 55.7898 54.9725 55.6091C55.3505 55.4285 55.7605 55.3241 56.1789 55.302C56.5973 55.2799 57.016 55.3405 57.411 55.4803C57.8059 55.6202 58.1695 55.8365 58.4808 56.117ZM55.2593 21.2882C68.7233 21.2882 76.3647 30.2005 77.474 40.9658H77.814C79.8721 40.963 81.9107 41.3656 83.8131 42.1508C85.7156 42.936 87.4448 44.0882 88.9019 45.5418C90.359 46.9953 91.5155 48.7217 92.3053 50.6223C93.0951 52.5228 93.5028 54.5604 93.505 56.6185C93.5022 58.6763 93.0941 60.7134 92.3041 62.6134C91.514 64.5135 90.3575 66.2394 88.9004 67.6925C87.4434 69.1456 85.7144 70.2974 83.8122 71.0823C81.91 71.8672 79.8718 72.2698 77.814 72.267H70.3893C72.697 67.5367 69.3183 61.6207 63.6743 61.6207H63.0962C63.851 60.0039 63.9992 58.1695 63.514 56.4524C63.0288 54.7353 61.9424 53.2499 60.4531 52.2671C58.9638 51.2844 57.1707 50.8698 55.4012 51.0991C53.6316 51.3284 52.0035 52.1862 50.8138 53.516L41.315 64.0858C40.3194 65.1741 39.6747 66.5371 39.4647 67.997C39.2547 69.457 39.4893 70.9464 40.1377 72.2712H32.7002C30.6421 72.274 28.6036 71.8714 26.7011 71.0862C24.7986 70.301 23.0694 69.1488 21.6123 67.6952C20.1552 66.2417 18.9988 64.5153 18.2089 62.6147C17.4191 60.7142 17.0115 58.6766 17.0092 56.6185C17.0115 54.5604 17.4191 52.5228 18.2089 50.6223C18.9988 48.7217 20.1552 46.9953 21.6123 45.5418C23.0694 44.0882 24.7986 42.936 26.7011 42.1508C28.6036 41.3656 30.6421 40.963 32.7002 40.9658H33.0402C34.158 30.1283 41.7952 21.2882 55.2593 21.2882ZM42.5008 8.5C49.373 8.5 55.4632 11.9637 59.0757 17.2635C57.8092 17.1121 56.5348 17.0369 55.2593 17.0382C42.5347 17.0382 33.2825 24.1655 30.027 34.9435L29.738 35.9635L29.4915 36.975L28.616 37.1408C25.2652 37.8533 22.1553 39.419 19.5872 41.6862C17.0192 43.9535 15.0801 46.8454 13.9577 50.082C11.6983 48.3491 10.0234 45.9662 9.15792 43.2534C8.29247 40.5407 8.278 37.6281 9.11643 34.9068C9.95487 32.1856 11.6061 29.7862 13.8481 28.0309C16.0902 26.2756 18.8158 25.2486 21.6587 25.0877L22.751 25.0623C23.5728 20.4213 26.0025 16.2179 29.6138 13.1894C33.2252 10.1609 37.7876 8.50069 42.5008 8.5Z" fill="#5DAFA6"/>
</svg>
