<svg width="87" height="87" viewBox="0 0 87 87" fill="none" xmlns="http://www.w3.org/2000/svg">
<path d="M66.5671 15.123H26.3649C24.0135 15.123 21.8973 16.4991 20.9147 18.6352C19.5842 21.5272 18.0968 24.6344 17.8573 29.0981C17.8513 29.1319 17.844 29.1628 17.8389 29.1977L17.73 29.7824L17.7303 30.9034C17.7274 31.7244 17.7709 32.635 17.8792 33.6189C17.992 34.5188 18.156 35.3475 18.3866 36.2975C18.8353 38.1573 19.6596 40.1632 20.6965 42.2016C21.7189 44.25 22.8752 46.3538 24.2905 48.3997C25.6777 50.4432 27.2279 52.454 28.9645 54.3303C30.6695 56.1961 32.459 57.9829 34.3274 59.6851C35.2488 60.5063 36.1854 61.3104 37.1366 62.0969L37.9158 62.7287C40.045 64.9788 41.0227 67.3594 38.4586 70.5665C38.1741 70.8077 37.8856 71.0439 37.593 71.2751C36.8598 71.8464 36.1062 72.4401 35.3998 73.0734C33.982 74.3267 32.7687 75.7636 32.0432 77.2091C31.2746 78.6279 30.9514 79.9729 30.857 81.0361C30.7601 82.1052 30.8452 82.9054 30.8755 83.4407L30.9805 84.2532C30.9919 84.3401 31.0327 84.4205 31.0961 84.4809C31.1595 84.5414 31.2417 84.5784 31.329 84.5857C31.4163 84.5929 31.5035 84.5701 31.5761 84.521C31.6486 84.4719 31.7022 84.3994 31.7278 84.3156L31.7468 84.253L31.9732 83.5089C32.1451 83.0371 32.4009 82.3475 32.869 81.6055C33.3319 80.8634 34.0068 80.0908 34.9242 79.5071C35.8476 78.9212 36.9906 78.5289 38.3672 78.2546C39.0552 78.1144 39.8057 78.0042 40.6441 77.8817C41.4886 77.7498 42.3967 77.641 43.5736 77.3148C43.8621 77.2371 44.36 77.0242 44.5153 77.0001C44.9154 76.8276 45.1052 76.7933 45.407 76.6766C45.9579 76.4798 46.5095 76.2691 47.0624 76.0326C48.1701 75.5619 49.2945 75.0059 50.4376 74.3116C51.5774 73.591 52.799 72.7622 53.9893 71.6725L54.012 71.6985C70.6691 55.914 61.0432 45.4154 58.3646 39.7235C54.5096 31.5316 62.2392 23.3906 67.8885 18.8301C69.4229 17.5917 68.5392 15.123 66.5671 15.123Z" fill="#5DAFA6"/>
<path d="M50.2231 22.4061C50.2231 25.6825 47.5671 28.377 44.2906 28.377H13.0415C8.74809 28.377 5.26758 24.8579 5.26758 20.5645C5.26758 16.271 8.74809 12.752 13.0415 12.752C13.0415 7.0414 17.6709 2.41205 23.3814 2.41205C28.1922 2.41205 32.235 5.69766 33.39 10.1471C34.4132 9.44439 35.6257 9.06906 36.8669 9.07078C40.2669 9.07078 43.023 11.8271 43.023 15.2269C43.0228 15.6918 42.9699 16.1553 42.8655 16.6083C43.3318 16.4931 43.8103 16.4349 44.2906 16.4349C47.5671 16.435 50.2231 19.1296 50.2231 22.4061ZM76.6275 41.4849C76.3061 41.4849 75.9923 41.516 75.6874 41.5728C75.7485 41.124 75.7826 40.6667 75.7826 40.2011C75.7826 34.6207 71.2588 30.0969 65.6784 30.0969C60.7411 30.0969 56.6336 33.6389 55.7517 38.3201C55.6926 38.3186 55.6338 38.3157 55.5741 38.3157C51.8795 38.3157 48.8847 41.2914 48.8847 44.986C48.8847 48.6806 51.8797 51.6563 55.5741 51.6563H76.6275C79.4468 51.6563 81.7324 49.39 81.7324 46.5707C81.7324 43.7513 79.4468 41.4849 76.6275 41.4849Z" fill="#A7C1C9"/>
</svg>
