<svg width="102" height="102" viewBox="0 0 102 102" fill="none" xmlns="http://www.w3.org/2000/svg">
<path d="M50.9998 15.3C63.5713 15.3 70.7011 23.3274 71.7364 33.0174H72.0526C80.1412 33.0174 86.6998 39.3261 86.6998 47.1087C86.6998 54.8913 80.1412 61.2 72.0526 61.2L68.4673 61.1949V61.2H68.3143L63.4336 70.0791C63.1012 70.6592 62.5542 71.0856 61.9104 71.2664C61.2666 71.4471 60.5776 71.3678 59.9918 71.0454C59.406 70.7231 58.9702 70.1835 58.7783 69.543C58.5865 68.9025 58.6539 68.2122 58.966 67.6209L62.5003 61.1949H53.2285V61.2H53.0194L48.1336 70.0791C47.8012 70.6592 47.2542 71.0856 46.6104 71.2664C45.9666 71.4471 45.2776 71.3678 44.6918 71.0454C44.106 70.7231 43.6702 70.1835 43.4783 69.543C43.2865 68.9025 43.3539 68.2122 43.666 67.6209L47.2003 61.2H37.903H37.7194L32.8336 70.0791C32.5012 70.6592 31.9542 71.0856 31.3104 71.2664C30.6666 71.4471 29.9776 71.3678 29.3918 71.0454C28.806 70.7231 28.3702 70.1835 28.1783 69.543C27.9865 68.9025 28.0539 68.2122 28.366 67.6209L31.9003 61.2H29.947C21.8584 61.2 15.2998 54.8913 15.2998 47.1087C15.2998 39.6117 21.379 33.4866 29.0545 33.0429L30.2632 33.0174C31.3087 23.2611 38.4283 15.3 50.9998 15.3Z" fill="#573838"/>
<path d="M39.5147 73.0116C40.1016 73.3471 40.5312 73.902 40.7091 74.5543C40.887 75.2065 40.7986 75.9027 40.4633 76.4898L35.3633 85.4148C35.0194 85.9849 34.4661 86.3979 33.8217 86.5655C33.1773 86.7331 32.4929 86.6419 31.9147 86.3116C31.3366 85.9812 30.9106 85.4378 30.7279 84.7976C30.5451 84.1573 30.62 83.4709 30.9365 82.8852L36.0365 73.9602C36.3721 73.3733 36.927 72.9437 37.5793 72.7658C38.2315 72.5879 38.9277 72.6763 39.5147 73.0116Z" fill="#573838"/>
<path d="M55.7632 76.4897C56.0797 75.9039 56.1546 75.2176 55.9718 74.5773C55.7891 73.937 55.3631 73.3936 54.785 73.0633C54.2068 72.7329 53.5224 72.6418 52.878 72.8094C52.2336 72.977 51.6803 73.39 51.3364 73.9601L46.2364 82.8851C45.9198 83.4709 45.8449 84.1572 46.0277 84.7975C46.2104 85.4378 46.6364 85.9812 47.2145 86.3115C47.7927 86.6419 48.4771 86.733 49.1215 86.5654C49.7659 86.3978 50.3192 85.9848 50.6632 85.4147L55.7632 76.4897Z" fill="#573838"/>
</svg>
