<svg width="30" height="26" viewBox="0 0 30 26" fill="none" xmlns="http://www.w3.org/2000/svg">
<path d="M29.2441 0.888672H25.6717C24.8947 0.888672 24.1559 1.26187 23.6988 1.90177L11.7246 18.5072L6.30121 10.9814C5.84411 10.3492 5.11291 9.96837 4.32831 9.96837H0.755808C0.260708 9.96837 -0.0286923 10.532 0.260708 10.9357L9.75181 24.0982C9.97601 24.4112 10.2715 24.6662 10.614 24.8421C10.9564 25.018 11.3358 25.1097 11.7208 25.1097C12.1058 25.1097 12.4852 25.018 12.8276 24.8421C13.1701 24.6662 13.4656 24.4112 13.6898 24.0982L29.7316 1.85607C30.0287 1.45227 29.7393 0.888672 29.2441 0.888672Z" fill="#2E4F72"/>
</svg>
