<svg width="46" height="46" viewBox="0 0 46 46" fill="none" xmlns="http://www.w3.org/2000/svg">
<path d="M22.7144 0.160767C10.2891 0.160767 0.214355 10.2355 0.214355 22.6608C0.214355 35.086 10.2891 45.1608 22.7144 45.1608C35.1396 45.1608 45.2144 35.086 45.2144 22.6608C45.2144 10.2355 35.1396 0.160767 22.7144 0.160767ZM32.4325 15.3131L21.8555 29.9783C21.7077 30.1846 21.5128 30.3527 21.287 30.4687C21.0613 30.5847 20.8111 30.6452 20.5573 30.6452C20.3034 30.6452 20.0533 30.5847 19.8275 30.4687C19.6017 30.3527 19.4068 30.1846 19.259 29.9783L12.9962 21.2997C12.8053 21.0335 12.9962 20.6619 13.3226 20.6619H15.6781C16.1904 20.6619 16.6775 20.908 16.9789 21.3299L20.5548 26.2919L28.4498 15.3432C28.7512 14.9264 29.2333 14.6753 29.7506 14.6753H32.1061C32.4325 14.6753 32.6234 15.0469 32.4325 15.3131Z" fill="#6CE06A"/>
</svg>
