<svg width="116" height="116" viewBox="0 0 116 116" fill="none" xmlns="http://www.w3.org/2000/svg">
<path d="M63.7992 40.6C78.0962 40.6 86.2047 49.7292 87.382 60.7492H87.7417C96.9405 60.7492 104.399 67.9238 104.399 76.7746C104.399 85.6254 96.9405 92.8 87.7417 92.8H39.8568C30.6581 92.8 23.1992 85.6254 23.1992 76.7746C23.1992 67.9238 30.6581 60.7492 39.8568 60.7492H40.2164C41.4054 49.6538 49.5022 40.6 63.7992 40.6ZM48.6729 23.2C57.1176 23.2 64.4836 28.0024 68.1202 35.061C66.6866 34.8852 65.2436 34.7981 63.7992 34.8C49.9372 34.8 39.8336 42.3806 36.226 53.8588L35.8664 55.1L35.5996 56.1846L34.6426 56.3586C31.1401 57.072 27.8685 58.6413 25.1199 60.9265C22.3712 63.2116 20.2309 66.1416 18.8898 69.455C16.1268 67.7716 13.9726 65.2508 12.7405 62.2591C11.5084 59.2674 11.2626 55.9607 12.0388 52.8196C12.815 49.6786 14.5728 46.867 17.0566 44.7936C19.5403 42.7201 22.6207 41.4929 25.8498 41.2902L27.1374 41.2612C28.0318 36.1997 30.6806 31.6151 34.6189 28.3122C38.5571 25.0093 43.5329 23.1993 48.6729 23.2Z" fill="white"/>
</svg>
