<svg xmlns="http://www.w3.org/2000/svg" viewBox="0 0 500 500"><defs><style>.cls-1{fill:#ffcd34;}.cls-2{fill:#fee05b;}.cls-3{fill:#e6ba24;}.cls-4{fill:#f9c42e;}.cls-5{fill:none;stroke:#e6ba24;stroke-miterlimit:10;stroke-width:3px;}</style></defs><g id="Layer_3" data-name="Layer 3"><path class="cls-1" d="M500,250a249.05,249.05,0,0,1-69.57,173,249.05,249.05,0,0,1-173,69.57c-138.08,0-250-111.92-250-250A249.05,249.05,0,0,1,77,69.57,249.05,249.05,0,0,1,250,0C388.07,0,500,111.93,500,250Z"/><circle class="cls-2" cx="250" cy="250" r="250"/><circle class="cls-1" cx="250" cy="250" r="194.44"/><path class="cls-3" d="M444.44,250A194.52,194.52,0,0,1,325.6,429.2a194.27,194.27,0,0,0,86.75-161.92c0-107.38-87.07-194.44-194.45-194.44a193.75,193.75,0,0,0-75.6,15.25A193.48,193.48,0,0,1,250,55.56C357.38,55.56,444.44,142.62,444.44,250Z"/><path class="cls-4" d="M412.35,267.28A194.27,194.27,0,0,1,325.6,429.2,193.92,193.92,0,0,1,250,444.44C142.62,444.44,55.56,357.38,55.56,250A194.24,194.24,0,0,1,142.3,88.09a193.75,193.75,0,0,1,75.6-15.25C325.28,72.84,412.35,159.9,412.35,267.28Z"/><circle class="cls-5" cx="247.53" cy="250" r="194.44"/><path class="cls-3" d="M430.43,423A249.15,249.15,0,0,1,250,500C111.93,500,0,388.07,0,250A249.15,249.15,0,0,1,77,69.57a249.05,249.05,0,0,0-69.57,173c0,138.08,111.92,250,250,250A249.05,249.05,0,0,0,430.43,423Z"/><path class="cls-1" d="M151.31,366.94c-5.78-3.79-35.52-86.3,6.41-141.58,9-11.84,18.34-18.18,36.44-30.31,29.47-19.76,63-31.33,84.49-38.85,18.16-6.37,60.24-27.21,67-35.27.51-.61,2.67-3.23,4.69-2.89,1.05.17,1.65,1.25,2,2,1.87,3.56,37.92,144.79-24.82,213.72-38.72,42.53-86.64,45.66-114.41,48.26-1.5.14-19-1.25-20.47-2.25,0,0-1-.65-1.87-1.39-1.47-1.22-12.28-18.74-7.87-55.21a120.2,120.2,0,0,1,27.54-62.62c35.93-41.89,85.19-46.54,85.19-50.46,0-2.14-72.21,8.81-98.15,31.48-20.35,17.79-30.34,34.5-35.7,48a101.59,101.59,0,0,0-6.89,25.18c-3.59,26.5-1.23,49.66-1.47,51.87C153.34,367.13,152.23,367.54,151.31,366.94Z"/><path class="cls-3" d="M347.05,119.41v0c-.29.28-.82.81-1.45,1.5-16.51,18.36,1.91,46.29-8,66.47a23.73,23.73,0,0,1-1.83,3c-10.76,16.05-30.87,20.05-40.19,22-42.24,8.8-63.36,13.2-82.95,24.61-18.47,10.76-28.66,23.23-30.94,26.09-4.61,5.78-19.17,26.65-22.91,51-4.22,27.49-2.9,41.43-2.76,52,0,1.38-1.88,2.69-2.63,2.75-.43.34-2.73-.28-3.54.28-7.35,5.07-15.75,6.66-20.59,5.75-14.18-2.66-18.29-38.82-19.15-49.77a178.21,178.21,0,0,1,2.25-47.57,141.52,141.52,0,0,1,27.43-53.81c23-27.15,65.81-45.83,102.78-59.27,0,0,37.35-13.67,55.1-21.29,8.79-3.78,18.55-8.31,20.6-9.26,12-5.57,17.83-8.6,20.83-10.19C342.43,122,345.17,120.47,347.05,119.41Z"/><path class="cls-2" d="M327.49,333.72c-38.71,42.54-86.63,45.66-114.4,48.27-1.5.13-19-1.26-20.47-2.26a22.62,22.62,0,0,1-1.87-1.4c-1.47-1.21-12.28-18.74-7.87-55.21a120.18,120.18,0,0,1,27.54-62.6,137.54,137.54,0,0,1,33.33-28.1h0c27.16-16.46,51.83-19.59,51.83-22.37q0-.15-.48-.21c-4.5-.61-39.64,4.78-68.39,15.73-11.61,4.43-22.17,9.75-29.27,16-20.35,17.79-30.35,34.49-35.69,48a101.71,101.71,0,0,0-6.91,25.19c-3.58,26.51-1.22,49.65-1.46,51.88-.07.58-1.17,1-2.09.38a5.81,5.81,0,0,1-1.35-1.62c-.05-.09-.11-.16-.16-.25-8-13.12-31.13-88.22,7.92-139.71,9-11.84,16.66-19.89,35.08-31.53,30.21-19.1,64.37-30.1,85.84-37.63,18.17-6.37,60.25-27.21,67-35.27a15.9,15.9,0,0,1,1.45-1.5A4.28,4.28,0,0,1,350.3,118c1.05.17,1.65,1.26,2,2a4.87,4.87,0,0,1,.21.53c.46,1.35,1.42,4.87,2.61,10.15C363,165.35,380.57,275.4,327.49,333.72Z"/><path class="cls-3" d="M367.57,247.81c-3.11,22.29-6.63,47.36-24.53,73.62-16.26,23.85-35.78,35.93-49.55,44.45-35.11,21.72-65.05,24.56-99.07,27.77-9.45.9-16,1-22.07-2.93-19.8-13-11.7-55.77-9.41-67.9,0,0,6.54-34.27,36.58-72.23,7.27-9.19,13.8-14.72,20.22-18.76,4.74-3,8.46-4.54,15.89-7.62,17.56-7.29,17-4.18,34.39-10.84,0,0,12.56-5,25.1-3.53q.48.06.48.21c0,2.78-24.67,5.91-51.83,22.37h0a137.54,137.54,0,0,0-33.33,28.1,120.18,120.18,0,0,0-27.54,62.6c-4.41,36.47,6.4,54,7.87,55.21a22.62,22.62,0,0,0,1.87,1.4c1.52,1,19,2.39,20.47,2.26,27.77-2.61,75.69-5.73,114.4-48.27,53.08-58.32,35.46-168.37,27.65-203a280.87,280.87,0,0,1,7.8,28.72C366.6,176.35,373.15,208,367.57,247.81Z"/></g></svg>