<svg width="365" height="341" viewBox="0 0 365 341" fill="none" xmlns="http://www.w3.org/2000/svg">
<path d="M343.446 241.642C343.476 262.451 335.274 282.459 320.566 297.455C305.275 311.88 284.875 319.925 263.659 319.895C218.247 319.895 181.435 283.792 181.435 239.253C181.405 218.445 189.607 198.437 204.316 183.441C219.606 169.015 240.006 160.971 261.222 161C306.634 161 343.446 197.104 343.446 241.642Z" fill="#FFCD34"/>
<path d="M261.224 322.285C306.634 322.285 343.447 286.18 343.447 241.643C343.447 197.105 306.634 161 261.224 161C215.813 161 179 197.105 179 241.643C179 286.18 215.813 322.285 261.224 322.285Z" fill="#FEE05B"/>
<path d="M261.224 304.363C296.544 304.363 325.176 276.282 325.176 241.641C325.176 207.001 296.544 178.919 261.224 178.919C225.905 178.919 197.272 207.001 197.272 241.641C197.272 276.282 225.905 304.363 261.224 304.363Z" fill="#FFCD34"/>
<path d="M325.173 241.644C325.174 253.98 321.466 266.043 314.514 276.324C307.562 286.605 297.675 294.648 286.088 299.447C299.334 290.79 308.814 277.6 312.674 262.453C316.534 247.307 314.498 231.294 306.963 217.541C299.428 203.789 286.935 193.286 271.926 188.085C256.917 182.884 240.47 183.358 225.798 189.415C235.432 183.132 246.624 179.53 258.18 178.992C269.737 178.454 281.226 181 291.424 186.36C301.621 191.719 310.146 199.692 316.089 209.427C322.032 219.162 325.172 230.297 325.173 241.644V241.644Z" fill="#E6BA24"/>
<path d="M314.619 247.218C314.625 257.556 312.023 267.735 307.046 276.848C302.068 285.96 294.869 293.724 286.09 299.446C271.417 305.515 254.963 305.998 239.946 300.8C224.929 295.601 212.43 285.096 204.891 271.338C197.353 257.581 195.319 241.56 199.186 226.409C203.053 211.258 212.543 198.066 225.801 189.414C235.525 185.399 246.111 183.804 256.616 184.772C267.121 185.74 277.219 189.241 286.011 194.962C294.802 200.684 302.015 208.449 307.006 217.566C311.997 226.683 314.613 236.869 314.619 247.218V247.218Z" fill="#F9C42E"/>
<path d="M260.411 304.363C295.731 304.363 324.363 276.282 324.363 241.641C324.363 207.001 295.731 178.919 260.411 178.919C225.092 178.919 196.459 207.001 196.459 241.641C196.459 276.282 225.092 304.363 260.411 304.363Z" stroke="#E6BA24" stroke-width="3" stroke-miterlimit="10"/>
<path d="M320.567 297.455C312.903 305.316 303.692 311.57 293.491 315.838C283.291 320.106 272.313 322.299 261.224 322.285C215.812 322.285 179 286.181 179 241.643C178.985 230.766 181.222 220 185.573 209.996C189.925 199.991 196.301 190.957 204.317 183.441C189.609 198.437 181.406 218.445 181.436 239.253C181.436 283.792 218.248 319.896 263.66 319.896C284.876 319.925 305.276 311.88 320.567 297.455V297.455Z" fill="#E6BA24"/>
<path d="M231.844 280.028C229.944 278.805 220.162 252.191 233.951 234.358C236.907 230.539 239.985 228.496 245.938 224.582C255.63 218.21 266.646 214.479 273.723 212.049C279.7 209.994 293.538 203.288 295.747 200.672C295.917 200.477 296.628 199.632 297.29 199.74C297.635 199.796 297.834 200.138 297.956 200.373C298.573 201.524 310.425 247.078 289.79 269.311C277.057 283.035 261.298 284.046 252.162 284.882C251.671 284.926 245.929 284.484 245.43 284.154C245.43 284.154 245.113 283.946 244.817 283.704C244.334 283.305 240.777 277.658 242.226 265.895C243.189 258.445 246.336 251.429 251.285 245.7C263.101 232.184 279.302 230.687 279.302 229.42C279.302 228.731 255.553 232.26 247.022 239.575C240.346 245.314 237.041 250.702 235.283 255.051C234.174 257.652 233.411 260.382 233.013 263.175C231.836 271.725 232.607 279.192 232.53 279.9C232.51 280.092 232.148 280.223 231.844 280.028Z" fill="#FFCD34"/>
<path d="M296.221 200.183C296.124 200.275 295.949 200.442 295.746 200.665C290.313 206.599 296.379 215.626 293.131 222.118C292.957 222.455 292.756 222.779 292.53 223.085C288.989 228.262 282.379 229.553 279.313 230.182C265.423 233.017 258.475 234.439 252.031 238.119C248.147 240.295 244.699 243.146 241.856 246.533C240.342 248.397 235.55 255.131 234.32 262.996C232.931 271.865 233.366 276.361 233.41 279.762C233.41 280.212 232.793 280.634 232.55 280.65C232.407 280.762 231.652 280.563 231.384 280.742C228.948 282.378 226.203 282.892 224.611 282.598C219.95 281.737 218.598 270.073 218.314 266.545C217.859 261.421 218.108 256.26 219.053 251.201C220.752 244.844 223.829 238.922 228.075 233.838C235.648 225.077 249.721 219.059 261.878 214.723C261.878 214.723 274.165 210.314 280 207.853C282.891 206.634 286.09 205.173 286.777 204.866C290.723 203.07 292.64 202.079 293.626 201.581C294.703 201.015 295.604 200.525 296.221 200.183Z" fill="#E6BA24"/>
<path d="M289.79 269.312C277.057 283.035 261.298 284.047 252.162 284.883C251.671 284.927 245.929 284.485 245.43 284.154C245.43 284.154 245.113 283.947 244.817 283.704C244.334 283.306 240.777 277.659 242.226 265.895C243.189 258.446 246.336 251.43 251.285 245.701C254.426 242.128 258.127 239.069 262.248 236.637V236.637C271.181 231.329 279.302 230.317 279.302 229.421C279.302 229.389 279.249 229.365 279.144 229.353C277.662 229.158 266.106 230.895 256.649 234.427C252.832 235.857 249.34 237.573 247.022 239.576C240.346 245.315 237.041 250.703 235.283 255.051C234.174 257.653 233.411 260.383 233.013 263.175C231.836 271.725 232.607 279.192 232.53 279.901C232.51 280.088 232.148 280.22 231.844 280.025C231.665 279.879 231.515 279.702 231.401 279.503L231.348 279.423C228.713 275.19 221.108 250.966 233.951 234.355C236.907 230.536 239.433 227.94 245.491 224.184C255.427 218.016 266.662 214.479 273.723 212.042C279.7 209.987 293.538 203.281 295.747 200.665C295.893 200.493 296.052 200.332 296.222 200.183C296.357 200.037 296.522 199.922 296.706 199.845C296.89 199.767 297.089 199.729 297.29 199.733C297.635 199.788 297.834 200.131 297.956 200.366C297.98 200.422 298.004 200.477 298.025 200.537C298.175 200.971 298.492 202.106 298.881 203.811C301.452 215.001 307.246 250.5 289.79 269.312Z" fill="#FEE05B"/>
<path d="M302.97 241.603C301.947 248.771 300.79 256.879 294.902 265.349C289.555 273.039 283.127 276.938 278.608 279.686C267.06 286.695 257.213 287.607 246.023 288.646C242.913 288.933 240.744 288.977 238.763 287.698C232.266 283.509 234.913 269.71 235.669 265.795C235.669 265.795 237.821 254.74 247.7 242.499C249.538 240.114 251.789 238.065 254.351 236.446C255.91 235.482 257.132 234.984 259.577 233.988C265.35 231.639 265.152 232.642 270.889 230.492C270.889 230.492 275.018 228.899 279.144 229.353C279.249 229.353 279.302 229.389 279.302 229.421C279.302 230.317 271.181 231.328 262.248 236.637C258.127 239.068 254.426 242.128 251.285 245.7C246.336 251.43 243.189 258.445 242.226 265.895C240.777 277.659 244.334 283.326 244.813 283.724C245.109 283.967 245.426 284.174 245.426 284.174C245.925 284.496 251.667 284.946 252.158 284.903C261.294 284.062 277.053 283.055 289.786 269.332C307.246 250.519 301.448 215.021 298.877 203.838C299.9 206.879 300.757 209.971 301.444 213.101C302.654 218.549 304.806 228.768 302.97 241.603Z" fill="#E6BA24"/>
<path d="M263.536 100.752C263.567 121.56 255.364 141.568 240.656 156.564C225.366 170.99 204.965 179.034 183.749 179.005C138.337 179.005 101.525 142.901 101.525 98.3625C101.495 77.5544 109.698 57.5464 124.406 42.5501C139.696 28.1247 160.097 20.0801 181.313 20.1096C226.725 20.1096 263.536 56.2135 263.536 100.752Z" fill="#FFCD34"/>
<path d="M181.314 181.395C226.725 181.395 263.538 145.29 263.538 100.752C263.538 56.2146 226.725 20.1097 181.314 20.1097C135.903 20.1097 99.0903 56.2146 99.0903 100.752C99.0903 145.29 135.903 181.395 181.314 181.395Z" fill="#FEE05B"/>
<path d="M181.314 163.473C216.634 163.473 245.266 135.391 245.266 100.751C245.266 66.1105 216.634 38.0289 181.314 38.0289C145.995 38.0289 117.363 66.1105 117.363 100.751C117.363 135.391 145.995 163.473 181.314 163.473Z" fill="#FFCD34"/>
<path d="M245.264 100.753C245.264 113.09 241.556 125.152 234.605 135.433C227.653 145.714 217.765 153.757 206.178 158.557C219.425 149.9 228.904 136.709 232.764 121.563C236.625 106.417 234.588 90.4031 227.053 76.6508C219.518 62.8985 207.025 52.3958 192.016 47.1947C177.007 41.9936 160.56 42.4679 145.889 48.5249C155.523 42.2419 166.714 38.6395 178.271 38.1015C189.827 37.5634 201.316 40.1097 211.514 45.4693C221.712 50.8289 230.236 58.801 236.179 68.5365C242.123 78.272 245.262 89.4062 245.264 100.753V100.753Z" fill="#E6BA24"/>
<path d="M234.709 106.327C234.715 116.665 232.114 126.844 227.136 135.957C222.158 145.07 214.959 152.833 206.181 158.556C191.507 164.625 175.053 165.107 160.037 159.909C145.02 154.711 132.52 144.206 124.982 130.448C117.443 116.69 115.409 100.669 119.276 85.5181C123.143 70.3671 132.633 57.1757 145.891 48.5235C155.616 44.5081 166.202 42.9134 176.707 43.8814C187.211 44.8494 197.309 48.3501 206.101 54.0718C214.892 59.7935 222.105 67.5586 227.096 76.6757C232.088 85.7928 234.703 95.979 234.709 106.327V106.327Z" fill="#F9C42E"/>
<path d="M180.502 163.473C215.821 163.473 244.453 135.391 244.453 100.751C244.453 66.1105 215.821 38.0289 180.502 38.0289C145.182 38.0289 116.55 66.1105 116.55 100.751C116.55 135.391 145.182 163.473 180.502 163.473Z" stroke="#E6BA24" stroke-width="3" stroke-miterlimit="10"/>
<path d="M240.657 156.565C232.993 164.426 223.782 170.68 213.582 174.948C203.381 179.216 192.404 181.409 181.314 181.395C135.902 181.395 99.0904 145.291 99.0904 100.752C99.0758 89.8755 101.312 79.1092 105.664 69.105C110.015 59.1008 116.392 50.0669 124.407 42.5502C109.699 57.5465 101.497 77.5545 101.527 98.3627C101.527 142.901 138.338 179.005 183.75 179.005C204.966 179.035 225.367 170.99 240.657 156.565V156.565Z" fill="#E6BA24"/>
<path d="M148.855 138.475C146.954 137.252 137.173 110.638 150.962 92.8054C153.918 88.9863 156.996 86.9434 162.948 83.0288C172.641 76.657 183.656 72.9256 190.734 70.4963C196.711 68.4414 210.549 61.7352 212.757 59.1188C212.928 58.9236 213.639 58.0794 214.3 58.1869C214.646 58.2427 214.845 58.5851 214.966 58.8201C215.584 59.971 227.436 105.525 206.801 127.758C194.067 141.482 178.309 142.493 169.173 143.329C168.682 143.373 162.94 142.931 162.441 142.601C162.441 142.601 162.124 142.394 161.828 142.151C161.344 141.752 157.787 136.105 159.237 124.342C160.199 116.892 163.346 109.876 168.296 104.147C180.112 90.631 196.313 89.1337 196.313 87.8673C196.313 87.1784 172.563 90.7067 164.032 98.0223C157.357 103.761 154.052 109.149 152.294 113.498C151.185 116.099 150.422 118.829 150.024 121.622C148.846 130.172 149.618 137.639 149.541 138.347C149.52 138.539 149.159 138.67 148.855 138.475Z" fill="#FFCD34"/>
<path d="M213.232 58.63C213.134 58.7216 212.96 58.8889 212.757 59.1119C207.324 65.0456 213.39 74.0735 210.142 80.5647C209.968 80.9023 209.767 81.2259 209.541 81.5324C206 86.7095 199.39 87.9998 196.324 88.629C182.434 91.4644 175.486 92.8861 169.042 96.5658C165.158 98.7416 161.71 101.593 158.867 104.98C157.352 106.844 152.561 113.578 151.331 121.443C149.942 130.312 150.376 134.808 150.421 138.209C150.421 138.659 149.804 139.081 149.56 139.097C149.418 139.209 148.663 139.01 148.395 139.189C145.959 140.826 143.214 141.339 141.622 141.045C136.961 140.184 135.609 128.52 135.324 124.992C134.87 119.868 135.119 114.707 136.063 109.648C137.763 103.291 140.84 97.3687 145.086 92.2848C152.658 83.5236 166.732 77.5063 178.889 73.1695C178.889 73.1695 191.176 68.7611 197.01 66.3C199.901 65.0814 203.101 63.6199 203.787 63.3132C207.734 61.5172 209.651 60.5256 210.637 60.0278C211.713 59.4623 212.615 58.9725 213.232 58.63Z" fill="#E6BA24"/>
<path d="M206.801 127.759C194.067 141.482 178.309 142.494 169.173 143.33C168.682 143.374 162.94 142.932 162.441 142.601C162.441 142.601 162.124 142.394 161.828 142.151C161.344 141.753 157.787 136.106 159.237 124.342C160.199 116.893 163.346 109.877 168.296 104.148C171.437 100.575 175.137 97.5157 179.259 95.0841V95.0841C188.192 89.7756 196.313 88.7641 196.313 87.8681C196.313 87.8362 196.26 87.8123 196.154 87.8004C194.672 87.6052 183.116 89.3415 173.66 92.8739C169.843 94.3035 166.351 96.0199 164.032 98.0231C157.357 103.762 154.052 109.15 152.294 113.498C151.185 116.1 150.422 118.83 150.024 121.622C148.846 130.173 149.618 137.639 149.541 138.348C149.52 138.535 149.159 138.667 148.854 138.472C148.676 138.326 148.526 138.149 148.412 137.95L148.359 137.87C145.724 133.637 138.119 109.413 150.962 92.8022C153.918 88.9831 156.443 86.3866 162.502 82.6313C172.437 76.4626 183.673 72.9263 190.734 70.4891C196.711 68.4342 210.549 61.728 212.757 59.1116C212.904 58.9398 213.062 58.7788 213.233 58.6297C213.368 58.4845 213.533 58.3693 213.717 58.2917C213.901 58.2141 214.1 58.1759 214.3 58.1797C214.646 58.2355 214.845 58.5779 214.966 58.8129C214.991 58.8686 215.015 58.9244 215.035 58.9841C215.186 59.4182 215.502 60.5532 215.892 62.2576C218.462 73.448 224.257 108.947 206.801 127.759Z" fill="#FEE05B"/>
<path d="M219.981 100.05C218.958 107.218 217.801 115.326 211.913 123.796C206.565 131.486 200.138 135.385 195.619 138.133C184.071 145.142 174.224 146.054 163.034 147.093C159.923 147.38 157.755 147.424 155.774 146.145C149.277 141.956 151.924 128.157 152.679 124.242C152.679 124.242 154.831 113.187 164.711 100.946C166.548 98.5611 168.8 96.5121 171.362 94.8925C172.921 93.9288 174.143 93.431 176.587 92.4354C182.361 90.0859 182.162 91.0894 187.9 88.939C187.9 88.939 192.029 87.346 196.154 87.8C196.26 87.8 196.313 87.8358 196.313 87.8677C196.313 88.7637 188.192 89.7752 179.259 95.0837C175.137 97.5153 171.437 100.575 168.296 104.148C163.346 109.877 160.199 116.892 159.237 124.342C157.787 136.106 161.344 141.773 161.824 142.171C162.12 142.414 162.437 142.621 162.437 142.621C162.936 142.943 168.678 143.393 169.169 143.35C178.305 142.509 194.063 141.502 206.797 127.779C224.257 108.966 218.458 73.4676 215.888 62.2852C216.911 65.3258 217.768 68.4178 218.454 71.5481C219.664 76.9959 221.816 87.2146 219.981 100.05Z" fill="#E6BA24"/>
<path d="M180.998 238.401C181.028 259.209 172.983 279.217 158.558 294.213C143.562 308.639 123.554 316.683 102.745 316.654C58.207 316.654 22.1031 280.55 22.1031 236.012C22.0736 215.203 30.1182 195.195 44.5436 180.199C59.5399 165.774 79.5479 157.729 100.356 157.759C144.895 157.759 180.998 193.863 180.998 238.401Z" fill="#FFCD34"/>
<path d="M100.357 319.044C144.894 319.044 180.999 282.939 180.999 238.401C180.999 193.864 144.894 157.759 100.357 157.759C55.8192 157.759 19.7144 193.864 19.7144 238.401C19.7144 282.939 55.8192 319.044 100.357 319.044Z" fill="#FEE05B"/>
<path d="M100.358 301.122C134.998 301.122 163.08 273.04 163.08 238.4C163.08 203.76 134.998 175.678 100.358 175.678C65.7178 175.678 37.6362 203.76 37.6362 238.4C37.6362 273.04 65.7178 301.122 100.358 301.122Z" fill="#FFCD34"/>
<path d="M163.077 238.402C163.077 250.739 159.441 262.801 152.623 273.082C145.804 283.363 136.107 291.406 124.743 296.206C137.735 287.549 147.032 274.358 150.818 259.212C154.604 244.066 152.607 228.052 145.216 214.3C137.826 200.548 125.574 190.045 110.853 184.844C96.133 179.643 80.0022 180.117 65.6128 186.174C75.0616 179.891 86.0378 176.289 97.3721 175.751C108.706 175.212 119.974 177.759 129.976 183.118C139.978 188.478 148.338 196.45 154.167 206.186C159.996 215.921 163.075 227.055 163.077 238.402V238.402Z" fill="#E6BA24"/>
<path d="M152.725 243.976C152.731 254.314 150.18 264.493 145.298 273.606C140.416 282.719 133.355 290.482 124.745 296.205C110.354 302.274 94.2168 302.756 79.4888 297.558C64.7607 292.36 52.5014 281.855 45.1081 268.097C37.7149 254.339 35.7194 238.318 39.5121 223.167C43.3047 208.016 52.6126 194.825 65.6156 186.173C75.153 182.157 85.5354 180.562 95.8383 181.53C106.141 182.498 116.045 185.999 124.667 191.721C133.29 197.443 140.364 205.208 145.259 214.325C150.154 223.442 152.719 233.628 152.725 243.976V243.976Z" fill="#F9C42E"/>
<path d="M99.5593 301.122C134.2 301.122 162.281 273.04 162.281 238.4C162.281 203.76 134.2 175.678 99.5593 175.678C64.9189 175.678 36.8374 203.76 36.8374 238.4C36.8374 273.04 64.9189 301.122 99.5593 301.122Z" stroke="#E6BA24" stroke-width="3" stroke-miterlimit="10"/>
<path d="M158.559 294.214C151.042 302.075 142.008 308.329 132.004 312.597C122 316.865 111.233 319.058 100.357 319.044C55.8183 319.044 19.7144 282.94 19.7144 238.401C19.7001 227.525 21.8933 216.758 26.1612 206.754C30.4292 196.75 36.6831 187.716 44.5443 180.199C30.119 195.196 22.0743 215.204 22.1038 236.012C22.1038 280.55 58.2077 316.654 102.746 316.654C123.554 316.684 143.562 308.639 158.559 294.214V294.214Z" fill="#E6BA24"/>
<path d="M68.5214 276.124C66.6576 274.901 57.0642 248.287 70.5882 230.454C73.4873 226.635 76.5059 224.592 82.3441 220.678C91.8499 214.306 102.654 210.575 109.595 208.145C115.457 206.09 129.029 199.384 131.195 196.768C131.363 196.573 132.06 195.728 132.709 195.836C133.047 195.892 133.242 196.234 133.362 196.469C133.967 197.62 145.592 243.174 125.353 265.407C112.865 279.131 97.4092 280.142 88.449 280.978C87.9671 281.022 82.3361 280.58 81.8463 280.25C81.8463 280.25 81.5356 280.043 81.2449 279.8C80.771 279.401 77.2825 273.754 78.7042 261.991C79.6481 254.541 82.7345 247.525 87.5888 241.796C99.1774 228.28 115.067 226.783 115.067 225.516C115.067 224.827 91.7742 228.356 83.4073 235.671C76.8604 241.41 73.6187 246.798 71.8944 251.147C70.8069 253.748 70.0587 256.478 69.6683 259.271C68.5134 267.821 69.27 275.288 69.1944 275.996C69.1745 276.188 68.82 276.319 68.5214 276.124Z" fill="#FFCD34"/>
<path d="M131.661 196.279C131.565 196.371 131.394 196.538 131.195 196.761C125.866 202.695 131.816 211.723 128.63 218.214C128.459 218.551 128.262 218.875 128.041 219.181C124.568 224.359 118.085 225.649 115.078 226.278C101.454 229.113 94.6407 230.535 88.3207 234.215C84.5109 236.391 81.1292 239.242 78.341 242.63C76.8556 244.493 72.1564 251.227 70.9498 259.093C69.5878 267.961 70.0139 272.457 70.0577 275.858C70.0577 276.308 69.4524 276.73 69.2135 276.746C69.0741 276.858 68.3334 276.659 68.0705 276.838C65.6811 278.475 62.9891 278.988 61.428 278.694C56.8562 277.833 55.5301 266.169 55.2514 262.641C54.8058 257.517 55.0496 252.356 55.9762 247.297C57.6428 240.94 60.661 235.018 64.8249 229.934C72.252 221.173 86.0548 215.155 97.9779 210.819C97.9779 210.819 110.028 206.41 115.751 203.949C118.587 202.73 121.725 201.269 122.398 200.962C126.268 199.166 128.148 198.175 129.116 197.677C130.171 197.111 131.055 196.622 131.661 196.279Z" fill="#E6BA24"/>
<path d="M125.353 265.408C112.864 279.131 97.4087 280.143 88.4484 280.979C87.9666 281.023 82.3355 280.581 81.8457 280.25C81.8457 280.25 81.5351 280.043 81.2444 279.8C80.7705 279.402 77.282 273.755 78.7037 261.991C79.6475 254.542 82.734 247.526 87.5883 241.797C90.6687 238.224 94.2982 235.165 98.3406 232.733V232.733C107.102 227.425 115.066 226.413 115.066 225.517C115.066 225.485 115.015 225.461 114.911 225.449C113.458 225.254 102.124 226.991 92.8489 230.523C89.1055 231.953 85.6807 233.669 83.4068 235.672C76.8598 241.411 73.6182 246.799 71.8938 251.147C70.8063 253.749 70.0581 256.479 69.6677 259.271C68.5128 267.822 69.2695 275.288 69.1938 275.997C69.1739 276.184 68.8195 276.316 68.5208 276.121C68.3455 275.975 68.1984 275.798 68.0867 275.599L68.035 275.519C65.4504 271.286 57.9915 247.062 70.5876 230.451C73.4868 226.632 75.9638 224.036 81.9055 220.28C91.6502 214.112 102.669 210.575 109.595 208.138C115.457 206.083 129.028 199.377 131.195 196.761C131.338 196.589 131.494 196.428 131.661 196.279C131.793 196.134 131.955 196.018 132.136 195.941C132.317 195.863 132.512 195.825 132.708 195.829C133.047 195.885 133.242 196.227 133.361 196.462C133.385 196.518 133.409 196.573 133.429 196.633C133.576 197.067 133.887 198.202 134.269 199.907C136.79 211.097 142.473 246.596 125.353 265.408Z" fill="#FEE05B"/>
<path d="M138.279 237.699C137.276 244.867 136.141 252.975 130.367 261.446C125.122 269.135 118.818 273.034 114.385 275.782C103.06 282.791 93.4024 283.703 82.4271 284.742C79.3766 285.029 77.25 285.073 75.3067 283.794C68.9349 279.605 71.5314 265.806 72.2721 261.892C72.2721 261.892 74.3827 250.837 84.0718 238.595C85.8743 236.21 88.0824 234.161 90.5949 232.542C92.1241 231.578 93.3228 231.08 95.7201 230.085C101.383 227.735 101.188 228.739 106.815 226.588C106.815 226.588 110.865 224.995 114.911 225.449C115.015 225.449 115.066 225.485 115.066 225.517C115.066 226.413 107.102 227.424 98.3405 232.733C94.2982 235.164 90.6687 238.224 87.5882 241.797C82.7339 247.526 79.6475 254.541 78.7036 261.991C77.2819 273.755 80.7704 279.422 81.2403 279.82C81.5311 280.063 81.8417 280.27 81.8417 280.27C82.3315 280.593 87.9625 281.043 88.4444 280.999C97.4047 280.159 112.86 279.151 125.349 265.428C142.473 246.615 136.786 211.117 134.265 199.934C135.269 202.975 136.109 206.067 136.782 209.197C137.969 214.645 140.079 224.864 138.279 237.699Z" fill="#E6BA24"/>
</svg>
