<svg width="234" height="172" viewBox="0 0 234 172" fill="none" xmlns="http://www.w3.org/2000/svg">
<path d="M118.589 169.483C118.283 170.35 117.067 170.38 116.72 169.528L101.562 132.378C101.294 131.72 101.777 131 102.488 131L130.763 131C131.453 131 131.936 131.682 131.706 132.333L118.589 169.483Z" fill="white"/>
<path d="M0 40C0 17.9086 17.9086 0 40 0H194C216.091 0 234 17.9086 234 40V91C234 113.091 216.091 131 194 131H40C17.9086 131 0 113.091 0 91V40Z" fill="white"/>
<path d="M49.8056 39.848L46.1736 46.792V51H44.7176V46.792L41.0696 39.848H42.6856L45.4376 45.496L48.1896 39.848H49.8056ZM55.1654 51.144C54.344 51.144 53.5974 50.9573 52.9254 50.584C52.264 50.2107 51.7414 49.6827 51.3574 49C50.984 48.3067 50.7974 47.5067 50.7974 46.6C50.7974 45.704 50.9894 44.9147 51.3734 44.232C51.768 43.5387 52.3014 43.0107 52.9734 42.648C53.6454 42.2747 54.3974 42.088 55.2294 42.088C56.0614 42.088 56.8134 42.2747 57.4854 42.648C58.1574 43.0107 58.6854 43.5333 59.0694 44.216C59.464 44.8987 59.6614 45.6933 59.6614 46.6C59.6614 47.5067 59.4587 48.3067 59.0534 49C58.6587 49.6827 58.12 50.2107 57.4374 50.584C56.7547 50.9573 55.9974 51.144 55.1654 51.144ZM55.1654 49.864C55.688 49.864 56.1787 49.7413 56.6374 49.496C57.096 49.2507 57.464 48.8827 57.7414 48.392C58.0294 47.9013 58.1734 47.304 58.1734 46.6C58.1734 45.896 58.0347 45.2987 57.7574 44.808C57.48 44.3173 57.1174 43.9547 56.6694 43.72C56.2214 43.4747 55.736 43.352 55.2134 43.352C54.68 43.352 54.1894 43.4747 53.7414 43.72C53.304 43.9547 52.952 44.3173 52.6854 44.808C52.4187 45.2987 52.2854 45.896 52.2854 46.6C52.2854 47.3147 52.4134 47.9173 52.6694 48.408C52.936 48.8987 53.288 49.2667 53.7254 49.512C54.1627 49.7467 54.6427 49.864 55.1654 49.864ZM69.3518 42.232V51H67.8958V49.704C67.6184 50.152 67.2291 50.504 66.7278 50.76C66.2371 51.0053 65.6931 51.128 65.0958 51.128C64.4131 51.128 63.7998 50.9893 63.2558 50.712C62.7118 50.424 62.2798 49.9973 61.9598 49.432C61.6504 48.8667 61.4958 48.1787 61.4958 47.368V42.232H62.9358V47.176C62.9358 48.04 63.1544 48.7067 63.5918 49.176C64.0291 49.6347 64.6264 49.864 65.3838 49.864C66.1624 49.864 66.7758 49.624 67.2238 49.144C67.6718 48.664 67.8958 47.9653 67.8958 47.048V42.232H69.3518ZM86.6198 42.072C87.3024 42.072 87.9104 42.216 88.4438 42.504C88.9771 42.7813 89.3984 43.2027 89.7078 43.768C90.0171 44.3333 90.1718 45.0213 90.1718 45.832V51H88.7318V46.04C88.7318 45.1653 88.5131 44.4987 88.0758 44.04C87.6491 43.5707 87.0678 43.336 86.3318 43.336C85.5744 43.336 84.9718 43.5813 84.5238 44.072C84.0758 44.552 83.8518 45.2507 83.8518 46.168V51H82.4118V46.04C82.4118 45.1653 82.1931 44.4987 81.7558 44.04C81.3291 43.5707 80.7478 43.336 80.0118 43.336C79.2544 43.336 78.6518 43.5813 78.2038 44.072C77.7558 44.552 77.5318 45.2507 77.5318 46.168V51H76.0758V42.232H77.5318V43.496C77.8198 43.0373 78.2038 42.6853 78.6838 42.44C79.1744 42.1947 79.7131 42.072 80.2998 42.072C81.0358 42.072 81.6864 42.2373 82.2518 42.568C82.8171 42.8987 83.2384 43.384 83.5158 44.024C83.7611 43.4053 84.1664 42.9253 84.7318 42.584C85.2971 42.2427 85.9264 42.072 86.6198 42.072ZM100.336 42.232V51H98.8801V49.704C98.6028 50.152 98.2135 50.504 97.7121 50.76C97.2215 51.0053 96.6775 51.128 96.0801 51.128C95.3975 51.128 94.7841 50.9893 94.2401 50.712C93.6961 50.424 93.2641 49.9973 92.9441 49.432C92.6348 48.8667 92.4801 48.1787 92.4801 47.368V42.232H93.9201V47.176C93.9201 48.04 94.1388 48.7067 94.5761 49.176C95.0135 49.6347 95.6108 49.864 96.3681 49.864C97.1468 49.864 97.7601 49.624 98.2081 49.144C98.6561 48.664 98.8801 47.9653 98.8801 47.048V42.232H100.336ZM105.899 51.144C105.227 51.144 104.624 51.032 104.091 50.808C103.557 50.5733 103.136 50.2533 102.827 49.848C102.517 49.432 102.347 48.9573 102.315 48.424H103.819C103.861 48.8613 104.064 49.2187 104.427 49.496C104.8 49.7733 105.285 49.912 105.883 49.912C106.437 49.912 106.875 49.7893 107.195 49.544C107.515 49.2987 107.675 48.9893 107.675 48.616C107.675 48.232 107.504 47.9493 107.163 47.768C106.821 47.576 106.293 47.3893 105.579 47.208C104.928 47.0373 104.395 46.8667 103.979 46.696C103.573 46.5147 103.221 46.2533 102.923 45.912C102.635 45.56 102.491 45.1013 102.491 44.536C102.491 44.088 102.624 43.6773 102.891 43.304C103.157 42.9307 103.536 42.6373 104.027 42.424C104.517 42.2 105.077 42.088 105.707 42.088C106.677 42.088 107.461 42.3333 108.059 42.824C108.656 43.3147 108.976 43.9867 109.019 44.84H107.563C107.531 44.3813 107.344 44.0133 107.003 43.736C106.672 43.4587 106.224 43.32 105.659 43.32C105.136 43.32 104.72 43.432 104.411 43.656C104.101 43.88 103.947 44.1733 103.947 44.536C103.947 44.824 104.037 45.064 104.219 45.256C104.411 45.4373 104.645 45.5867 104.923 45.704C105.211 45.8107 105.605 45.9333 106.107 46.072C106.736 46.2427 107.248 46.4133 107.643 46.584C108.037 46.744 108.373 46.9893 108.651 47.32C108.939 47.6507 109.088 48.0827 109.099 48.616C109.099 49.096 108.965 49.528 108.699 49.912C108.432 50.296 108.053 50.6 107.563 50.824C107.083 51.0373 106.528 51.144 105.899 51.144ZM112.93 43.432V48.6C112.93 49.0267 113.021 49.3307 113.202 49.512C113.383 49.6827 113.698 49.768 114.146 49.768H115.218V51H113.906C113.095 51 112.487 50.8133 112.082 50.44C111.677 50.0667 111.474 49.4533 111.474 48.6V43.432H110.338V42.232H111.474V40.024H112.93V42.232H115.218V43.432H112.93ZM124.816 43.432H122.976V51H121.52V43.432H120.384V42.232H121.52V41.608C121.52 40.6267 121.77 39.912 122.272 39.464C122.784 39.0053 123.6 38.776 124.72 38.776V39.992C124.08 39.992 123.626 40.12 123.36 40.376C123.104 40.6213 122.976 41.032 122.976 41.608V42.232H124.816V43.432ZM127.265 40.808C126.988 40.808 126.753 40.712 126.561 40.52C126.369 40.328 126.273 40.0933 126.273 39.816C126.273 39.5387 126.369 39.304 126.561 39.112C126.753 38.92 126.988 38.824 127.265 38.824C127.532 38.824 127.756 38.92 127.937 39.112C128.129 39.304 128.225 39.5387 128.225 39.816C128.225 40.0933 128.129 40.328 127.937 40.52C127.756 40.712 127.532 40.808 127.265 40.808ZM127.969 42.232V51H126.513V42.232H127.969ZM134.723 42.072C135.789 42.072 136.653 42.3973 137.315 43.048C137.976 43.688 138.307 44.616 138.307 45.832V51H136.867V46.04C136.867 45.1653 136.648 44.4987 136.211 44.04C135.773 43.5707 135.176 43.336 134.419 43.336C133.651 43.336 133.037 43.576 132.579 44.056C132.131 44.536 131.907 45.2347 131.907 46.152V51H130.451V42.232H131.907V43.48C132.195 43.032 132.584 42.6853 133.075 42.44C133.576 42.1947 134.125 42.072 134.723 42.072ZM141.437 40.808C141.16 40.808 140.925 40.712 140.733 40.52C140.541 40.328 140.445 40.0933 140.445 39.816C140.445 39.5387 140.541 39.304 140.733 39.112C140.925 38.92 141.16 38.824 141.437 38.824C141.704 38.824 141.928 38.92 142.109 39.112C142.301 39.304 142.397 39.5387 142.397 39.816C142.397 40.0933 142.301 40.328 142.109 40.52C141.928 40.712 141.704 40.808 141.437 40.808ZM142.141 42.232V51H140.685V42.232H142.141ZM147.727 51.144C147.055 51.144 146.452 51.032 145.919 50.808C145.385 50.5733 144.964 50.2533 144.655 49.848C144.345 49.432 144.175 48.9573 144.143 48.424H145.647C145.689 48.8613 145.892 49.2187 146.255 49.496C146.628 49.7733 147.113 49.912 147.711 49.912C148.265 49.912 148.703 49.7893 149.023 49.544C149.343 49.2987 149.503 48.9893 149.503 48.616C149.503 48.232 149.332 47.9493 148.991 47.768C148.649 47.576 148.121 47.3893 147.407 47.208C146.756 47.0373 146.223 46.8667 145.807 46.696C145.401 46.5147 145.049 46.2533 144.751 45.912C144.463 45.56 144.319 45.1013 144.319 44.536C144.319 44.088 144.452 43.6773 144.719 43.304C144.985 42.9307 145.364 42.6373 145.855 42.424C146.345 42.2 146.905 42.088 147.535 42.088C148.505 42.088 149.289 42.3333 149.887 42.824C150.484 43.3147 150.804 43.9867 150.847 44.84H149.391C149.359 44.3813 149.172 44.0133 148.831 43.736C148.5 43.4587 148.052 43.32 147.487 43.32C146.964 43.32 146.548 43.432 146.239 43.656C145.929 43.88 145.775 44.1733 145.775 44.536C145.775 44.824 145.865 45.064 146.047 45.256C146.239 45.4373 146.473 45.5867 146.751 45.704C147.039 45.8107 147.433 45.9333 147.935 46.072C148.564 46.2427 149.076 46.4133 149.471 46.584C149.865 46.744 150.201 46.9893 150.479 47.32C150.767 47.6507 150.916 48.0827 150.927 48.616C150.927 49.096 150.793 49.528 150.527 49.912C150.26 50.296 149.881 50.6 149.391 50.824C148.911 51.0373 148.356 51.144 147.727 51.144ZM157.334 42.072C157.995 42.072 158.593 42.216 159.126 42.504C159.659 42.7813 160.075 43.2027 160.374 43.768C160.683 44.3333 160.838 45.0213 160.838 45.832V51H159.398V46.04C159.398 45.1653 159.179 44.4987 158.742 44.04C158.305 43.5707 157.707 43.336 156.95 43.336C156.182 43.336 155.569 43.576 155.11 44.056C154.662 44.536 154.438 45.2347 154.438 46.152V51H152.982V39.16H154.438V43.48C154.726 43.032 155.121 42.6853 155.622 42.44C156.134 42.1947 156.705 42.072 157.334 42.072ZM169.258 43.432V48.6C169.258 49.0267 169.349 49.3307 169.53 49.512C169.711 49.6827 170.026 49.768 170.474 49.768H171.546V51H170.234C169.423 51 168.815 50.8133 168.41 50.44C168.005 50.0667 167.802 49.4533 167.802 48.6V43.432H166.666V42.232H167.802V40.024H169.258V42.232H171.546V43.432H169.258ZM177.662 42.072C178.323 42.072 178.921 42.216 179.454 42.504C179.987 42.7813 180.403 43.2027 180.702 43.768C181.011 44.3333 181.166 45.0213 181.166 45.832V51H179.726V46.04C179.726 45.1653 179.507 44.4987 179.07 44.04C178.633 43.5707 178.035 43.336 177.278 43.336C176.51 43.336 175.897 43.576 175.438 44.056C174.99 44.536 174.766 45.2347 174.766 46.152V51H173.31V39.16H174.766V43.48C175.054 43.032 175.449 42.6853 175.95 42.44C176.462 42.1947 177.033 42.072 177.662 42.072ZM191.545 46.28C191.545 46.5573 191.529 46.8507 191.497 47.16H184.489C184.542 48.024 184.835 48.7013 185.369 49.192C185.913 49.672 186.569 49.912 187.337 49.912C187.966 49.912 188.489 49.768 188.905 49.48C189.331 49.1813 189.63 48.7867 189.801 48.296H191.369C191.134 49.1387 190.665 49.8267 189.961 50.36C189.257 50.8827 188.382 51.144 187.337 51.144C186.505 51.144 185.758 50.9573 185.097 50.584C184.446 50.2107 183.934 49.6827 183.561 49C183.187 48.3067 183.001 47.5067 183.001 46.6C183.001 45.6933 183.182 44.8987 183.545 44.216C183.907 43.5333 184.414 43.0107 185.065 42.648C185.726 42.2747 186.483 42.088 187.337 42.088C188.169 42.088 188.905 42.2693 189.545 42.632C190.185 42.9947 190.675 43.496 191.017 44.136C191.369 44.7653 191.545 45.48 191.545 46.28ZM190.041 45.976C190.041 45.4213 189.918 44.9467 189.673 44.552C189.427 44.1467 189.091 43.8427 188.665 43.64C188.249 43.4267 187.785 43.32 187.273 43.32C186.537 43.32 185.907 43.5547 185.385 44.024C184.873 44.4933 184.579 45.144 184.505 45.976H190.041ZM47.7893 60.232V69H46.3333V67.704C46.0559 68.152 45.6666 68.504 45.1653 68.76C44.6746 69.0053 44.1306 69.128 43.5333 69.128C42.8506 69.128 42.2373 68.9893 41.6933 68.712C41.1493 68.424 40.7173 67.9973 40.3973 67.432C40.0879 66.8667 39.9333 66.1787 39.9333 65.368V60.232H41.3733V65.176C41.3733 66.04 41.5919 66.7067 42.0293 67.176C42.4666 67.6347 43.0639 67.864 43.8213 67.864C44.5999 67.864 45.2133 67.624 45.6613 67.144C46.1093 66.664 46.3333 65.9653 46.3333 65.048V60.232H47.7893ZM54.5196 60.072C55.5863 60.072 56.4503 60.3973 57.1116 61.048C57.773 61.688 58.1036 62.616 58.1036 63.832V69H56.6636V64.04C56.6636 63.1653 56.445 62.4987 56.0076 62.04C55.5703 61.5707 54.973 61.336 54.2156 61.336C53.4476 61.336 52.8343 61.576 52.3756 62.056C51.9276 62.536 51.7036 63.2347 51.7036 64.152V69H50.2476V60.232H51.7036V61.48C51.9916 61.032 52.381 60.6853 52.8716 60.44C53.373 60.1947 53.9223 60.072 54.5196 60.072ZM61.938 57.16V69H60.482V57.16H61.938ZM68.2435 69.144C67.4222 69.144 66.6755 68.9573 66.0035 68.584C65.3422 68.2107 64.8195 67.6827 64.4355 67C64.0622 66.3067 63.8755 65.5067 63.8755 64.6C63.8755 63.704 64.0675 62.9147 64.4515 62.232C64.8462 61.5387 65.3795 61.0107 66.0515 60.648C66.7235 60.2747 67.4755 60.088 68.3075 60.088C69.1395 60.088 69.8915 60.2747 70.5635 60.648C71.2355 61.0107 71.7635 61.5333 72.1475 62.216C72.5422 62.8987 72.7395 63.6933 72.7395 64.6C72.7395 65.5067 72.5368 66.3067 72.1315 67C71.7368 67.6827 71.1982 68.2107 70.5155 68.584C69.8328 68.9573 69.0755 69.144 68.2435 69.144ZM68.2435 67.864C68.7662 67.864 69.2568 67.7413 69.7155 67.496C70.1742 67.2507 70.5422 66.8827 70.8195 66.392C71.1075 65.9013 71.2515 65.304 71.2515 64.6C71.2515 63.896 71.1128 63.2987 70.8355 62.808C70.5582 62.3173 70.1955 61.9547 69.7475 61.72C69.2995 61.4747 68.8142 61.352 68.2915 61.352C67.7582 61.352 67.2675 61.4747 66.8195 61.72C66.3822 61.9547 66.0302 62.3173 65.7635 62.808C65.4968 63.2987 65.3635 63.896 65.3635 64.6C65.3635 65.3147 65.4915 65.9173 65.7475 66.408C66.0142 66.8987 66.3662 67.2667 66.8035 67.512C67.2408 67.7467 67.7208 67.864 68.2435 67.864ZM74.1099 64.6C74.1099 63.6933 74.2912 62.904 74.6539 62.232C75.0165 61.5493 75.5179 61.0213 76.1579 60.648C76.8085 60.2747 77.5499 60.088 78.3819 60.088C79.4592 60.088 80.3445 60.3493 81.0379 60.872C81.7419 61.3947 82.2059 62.12 82.4299 63.048H80.8619C80.7125 62.5147 80.4192 62.0933 79.9819 61.784C79.5552 61.4747 79.0219 61.32 78.3819 61.32C77.5499 61.32 76.8779 61.608 76.3659 62.184C75.8539 62.7493 75.5979 63.5547 75.5979 64.6C75.5979 65.656 75.8539 66.472 76.3659 67.048C76.8779 67.624 77.5499 67.912 78.3819 67.912C79.0219 67.912 79.5552 67.7627 79.9819 67.464C80.4085 67.1653 80.7019 66.7387 80.8619 66.184H82.4299C82.1952 67.08 81.7259 67.8 81.0219 68.344C80.3179 68.8773 79.4379 69.144 78.3819 69.144C77.5499 69.144 76.8085 68.9573 76.1579 68.584C75.5179 68.2107 75.0165 67.6827 74.6539 67C74.2912 66.3173 74.1099 65.5173 74.1099 64.6ZM89.2686 69L85.8286 65.128V69H84.3726V57.16H85.8286V64.12L89.2046 60.232H91.2366L87.1086 64.6L91.2526 69H89.2686ZM100.607 64.28C100.607 64.5573 100.591 64.8507 100.559 65.16H93.551C93.6043 66.024 93.8977 66.7013 94.431 67.192C94.975 67.672 95.631 67.912 96.399 67.912C97.0283 67.912 97.551 67.768 97.967 67.48C98.3937 67.1813 98.6923 66.7867 98.863 66.296H100.431C100.196 67.1387 99.727 67.8267 99.023 68.36C98.319 68.8827 97.4443 69.144 96.399 69.144C95.567 69.144 94.8203 68.9573 94.159 68.584C93.5083 68.2107 92.9963 67.6827 92.623 67C92.2497 66.3067 92.063 65.5067 92.063 64.6C92.063 63.6933 92.2443 62.8987 92.607 62.216C92.9697 61.5333 93.4763 61.0107 94.127 60.648C94.7883 60.2747 95.5457 60.088 96.399 60.088C97.231 60.088 97.967 60.2693 98.607 60.632C99.247 60.9947 99.7377 61.496 100.079 62.136C100.431 62.7653 100.607 63.48 100.607 64.28ZM99.103 63.976C99.103 63.4213 98.9803 62.9467 98.735 62.552C98.4897 62.1467 98.1537 61.8427 97.727 61.64C97.311 61.4267 96.847 61.32 96.335 61.32C95.599 61.32 94.9697 61.5547 94.447 62.024C93.935 62.4933 93.6417 63.144 93.567 63.976H99.103ZM101.985 64.584C101.985 63.688 102.166 62.904 102.529 62.232C102.892 61.5493 103.388 61.0213 104.017 60.648C104.657 60.2747 105.372 60.088 106.161 60.088C106.844 60.088 107.478 60.248 108.065 60.568C108.652 60.8773 109.1 61.288 109.409 61.8V57.16H110.881V69H109.409V67.352C109.121 67.8747 108.694 68.3067 108.129 68.648C107.564 68.9787 106.902 69.144 106.145 69.144C105.366 69.144 104.657 68.952 104.017 68.568C103.388 68.184 102.892 67.6453 102.529 66.952C102.166 66.2587 101.985 65.4693 101.985 64.584ZM109.409 64.6C109.409 63.9387 109.276 63.3627 109.009 62.872C108.742 62.3813 108.38 62.008 107.921 61.752C107.473 61.4853 106.977 61.352 106.433 61.352C105.889 61.352 105.393 61.48 104.945 61.736C104.497 61.992 104.14 62.3653 103.873 62.856C103.606 63.3467 103.473 63.9227 103.473 64.584C103.473 65.256 103.606 65.8427 103.873 66.344C104.14 66.8347 104.497 67.2133 104.945 67.48C105.393 67.736 105.889 67.864 106.433 67.864C106.977 67.864 107.473 67.736 107.921 67.48C108.38 67.2133 108.742 66.8347 109.009 66.344C109.276 65.8427 109.409 65.2613 109.409 64.6ZM119.063 57.16V69H117.607V57.16H119.063ZM129.545 64.28C129.545 64.5573 129.529 64.8507 129.497 65.16H122.489C122.542 66.024 122.835 66.7013 123.369 67.192C123.913 67.672 124.569 67.912 125.337 67.912C125.966 67.912 126.489 67.768 126.905 67.48C127.331 67.1813 127.63 66.7867 127.801 66.296H129.369C129.134 67.1387 128.665 67.8267 127.961 68.36C127.257 68.8827 126.382 69.144 125.337 69.144C124.505 69.144 123.758 68.9573 123.097 68.584C122.446 68.2107 121.934 67.6827 121.561 67C121.187 66.3067 121.001 65.5067 121.001 64.6C121.001 63.6933 121.182 62.8987 121.545 62.216C121.907 61.5333 122.414 61.0107 123.065 60.648C123.726 60.2747 124.483 60.088 125.337 60.088C126.169 60.088 126.905 60.2693 127.545 60.632C128.185 60.9947 128.675 61.496 129.017 62.136C129.369 62.7653 129.545 63.48 129.545 64.28ZM128.041 63.976C128.041 63.4213 127.918 62.9467 127.673 62.552C127.427 62.1467 127.091 61.8427 126.665 61.64C126.249 61.4267 125.785 61.32 125.273 61.32C124.537 61.32 123.907 61.5547 123.385 62.024C122.873 62.4933 122.579 63.144 122.505 63.976H128.041ZM134.57 69.144C133.898 69.144 133.296 69.032 132.762 68.808C132.229 68.5733 131.808 68.2533 131.498 67.848C131.189 67.432 131.018 66.9573 130.986 66.424H132.49C132.533 66.8613 132.736 67.2187 133.098 67.496C133.472 67.7733 133.957 67.912 134.554 67.912C135.109 67.912 135.546 67.7893 135.866 67.544C136.186 67.2987 136.346 66.9893 136.346 66.616C136.346 66.232 136.176 65.9493 135.834 65.768C135.493 65.576 134.965 65.3893 134.25 65.208C133.6 65.0373 133.066 64.8667 132.65 64.696C132.245 64.5147 131.893 64.2533 131.594 63.912C131.306 63.56 131.162 63.1013 131.162 62.536C131.162 62.088 131.296 61.6773 131.562 61.304C131.829 60.9307 132.208 60.6373 132.698 60.424C133.189 60.2 133.749 60.088 134.378 60.088C135.349 60.088 136.133 60.3333 136.73 60.824C137.328 61.3147 137.648 61.9867 137.69 62.84H136.234C136.202 62.3813 136.016 62.0133 135.674 61.736C135.344 61.4587 134.896 61.32 134.33 61.32C133.808 61.32 133.392 61.432 133.082 61.656C132.773 61.88 132.618 62.1733 132.618 62.536C132.618 62.824 132.709 63.064 132.89 63.256C133.082 63.4373 133.317 63.5867 133.594 63.704C133.882 63.8107 134.277 63.9333 134.778 64.072C135.408 64.2427 135.92 64.4133 136.314 64.584C136.709 64.744 137.045 64.9893 137.322 65.32C137.61 65.6507 137.76 66.0827 137.77 66.616C137.77 67.096 137.637 67.528 137.37 67.912C137.104 68.296 136.725 68.6 136.234 68.824C135.754 69.0373 135.2 69.144 134.57 69.144ZM142.93 69.144C142.258 69.144 141.655 69.032 141.122 68.808C140.588 68.5733 140.167 68.2533 139.858 67.848C139.548 67.432 139.378 66.9573 139.346 66.424H140.85C140.892 66.8613 141.095 67.2187 141.458 67.496C141.831 67.7733 142.316 67.912 142.914 67.912C143.468 67.912 143.906 67.7893 144.226 67.544C144.546 67.2987 144.706 66.9893 144.706 66.616C144.706 66.232 144.535 65.9493 144.194 65.768C143.852 65.576 143.324 65.3893 142.61 65.208C141.959 65.0373 141.426 64.8667 141.01 64.696C140.604 64.5147 140.252 64.2533 139.954 63.912C139.666 63.56 139.522 63.1013 139.522 62.536C139.522 62.088 139.655 61.6773 139.922 61.304C140.188 60.9307 140.567 60.6373 141.058 60.424C141.548 60.2 142.108 60.088 142.738 60.088C143.708 60.088 144.492 60.3333 145.09 60.824C145.687 61.3147 146.007 61.9867 146.05 62.84H144.594C144.562 62.3813 144.375 62.0133 144.034 61.736C143.703 61.4587 143.255 61.32 142.69 61.32C142.167 61.32 141.751 61.432 141.442 61.656C141.132 61.88 140.978 62.1733 140.978 62.536C140.978 62.824 141.068 63.064 141.25 63.256C141.442 63.4373 141.676 63.5867 141.954 63.704C142.242 63.8107 142.636 63.9333 143.138 64.072C143.767 64.2427 144.279 64.4133 144.674 64.584C145.068 64.744 145.404 64.9893 145.682 65.32C145.97 65.6507 146.119 66.0827 146.13 66.616C146.13 67.096 145.996 67.528 145.73 67.912C145.463 68.296 145.084 68.6 144.594 68.824C144.114 69.0373 143.559 69.144 142.93 69.144ZM152.009 69.144C151.188 69.144 150.441 68.9573 149.769 68.584C149.108 68.2107 148.585 67.6827 148.201 67C147.828 66.3067 147.641 65.5067 147.641 64.6C147.641 63.704 147.833 62.9147 148.217 62.232C148.612 61.5387 149.145 61.0107 149.817 60.648C150.489 60.2747 151.241 60.088 152.073 60.088C152.905 60.088 153.657 60.2747 154.329 60.648C155.001 61.0107 155.529 61.5333 155.913 62.216C156.308 62.8987 156.505 63.6933 156.505 64.6C156.505 65.5067 156.302 66.3067 155.897 67C155.502 67.6827 154.964 68.2107 154.281 68.584C153.598 68.9573 152.841 69.144 152.009 69.144ZM152.009 67.864C152.532 67.864 153.022 67.7413 153.481 67.496C153.94 67.2507 154.308 66.8827 154.585 66.392C154.873 65.9013 155.017 65.304 155.017 64.6C155.017 63.896 154.878 63.2987 154.601 62.808C154.324 62.3173 153.961 61.9547 153.513 61.72C153.065 61.4747 152.58 61.352 152.057 61.352C151.524 61.352 151.033 61.4747 150.585 61.72C150.148 61.9547 149.796 62.3173 149.529 62.808C149.262 63.2987 149.129 63.896 149.129 64.6C149.129 65.3147 149.257 65.9173 149.513 66.408C149.78 66.8987 150.132 67.2667 150.569 67.512C151.006 67.7467 151.486 67.864 152.009 67.864ZM162.692 60.072C163.758 60.072 164.622 60.3973 165.284 61.048C165.945 61.688 166.276 62.616 166.276 63.832V69H164.836V64.04C164.836 63.1653 164.617 62.4987 164.18 62.04C163.742 61.5707 163.145 61.336 162.388 61.336C161.62 61.336 161.006 61.576 160.548 62.056C160.1 62.536 159.876 63.2347 159.876 64.152V69H158.42V60.232H159.876V61.48C160.164 61.032 160.553 60.6853 161.044 60.44C161.545 60.1947 162.094 60.072 162.692 60.072ZM171.758 69.144C171.086 69.144 170.483 69.032 169.95 68.808C169.417 68.5733 168.995 68.2533 168.686 67.848C168.377 67.432 168.206 66.9573 168.174 66.424H169.678C169.721 66.8613 169.923 67.2187 170.286 67.496C170.659 67.7733 171.145 67.912 171.742 67.912C172.297 67.912 172.734 67.7893 173.054 67.544C173.374 67.2987 173.534 66.9893 173.534 66.616C173.534 66.232 173.363 65.9493 173.022 65.768C172.681 65.576 172.153 65.3893 171.438 65.208C170.787 65.0373 170.254 64.8667 169.838 64.696C169.433 64.5147 169.081 64.2533 168.782 63.912C168.494 63.56 168.35 63.1013 168.35 62.536C168.35 62.088 168.483 61.6773 168.75 61.304C169.017 60.9307 169.395 60.6373 169.886 60.424C170.377 60.2 170.937 60.088 171.566 60.088C172.537 60.088 173.321 60.3333 173.918 60.824C174.515 61.3147 174.835 61.9867 174.878 62.84H173.422C173.39 62.3813 173.203 62.0133 172.862 61.736C172.531 61.4587 172.083 61.32 171.518 61.32C170.995 61.32 170.579 61.432 170.27 61.656C169.961 61.88 169.806 62.1733 169.806 62.536C169.806 62.824 169.897 63.064 170.078 63.256C170.27 63.4373 170.505 63.5867 170.782 63.704C171.07 63.8107 171.465 63.9333 171.966 64.072C172.595 64.2427 173.107 64.4133 173.502 64.584C173.897 64.744 174.233 64.9893 174.51 65.32C174.798 65.6507 174.947 66.0827 174.958 66.616C174.958 67.096 174.825 67.528 174.558 67.912C174.291 68.296 173.913 68.6 173.422 68.824C172.942 69.0373 172.387 69.144 171.758 69.144ZM182.031 58.808C181.754 58.808 181.519 58.712 181.327 58.52C181.135 58.328 181.039 58.0933 181.039 57.816C181.039 57.5387 181.135 57.304 181.327 57.112C181.519 56.92 181.754 56.824 182.031 56.824C182.298 56.824 182.522 56.92 182.703 57.112C182.895 57.304 182.991 57.5387 182.991 57.816C182.991 58.0933 182.895 58.328 182.703 58.52C182.522 58.712 182.298 58.808 182.031 58.808ZM182.735 60.232V69H181.279V60.232H182.735ZM189.488 60.072C190.555 60.072 191.419 60.3973 192.08 61.048C192.742 61.688 193.072 62.616 193.072 63.832V69H191.632V64.04C191.632 63.1653 191.414 62.4987 190.976 62.04C190.539 61.5707 189.942 61.336 189.184 61.336C188.416 61.336 187.803 61.576 187.344 62.056C186.896 62.536 186.672 63.2347 186.672 64.152V69H185.216V60.232H186.672V61.48C186.96 61.032 187.35 60.6853 187.84 60.44C188.342 60.1947 188.891 60.072 189.488 60.072ZM39.7435 87.144C38.9222 87.144 38.1755 86.9573 37.5035 86.584C36.8422 86.2107 36.3195 85.6827 35.9355 85C35.5622 84.3067 35.3755 83.5067 35.3755 82.6C35.3755 81.704 35.5675 80.9147 35.9515 80.232C36.3462 79.5387 36.8795 79.0107 37.5515 78.648C38.2235 78.2747 38.9755 78.088 39.8075 78.088C40.6395 78.088 41.3915 78.2747 42.0635 78.648C42.7355 79.0107 43.2635 79.5333 43.6475 80.216C44.0422 80.8987 44.2395 81.6933 44.2395 82.6C44.2395 83.5067 44.0368 84.3067 43.6315 85C43.2368 85.6827 42.6982 86.2107 42.0155 86.584C41.3328 86.9573 40.5755 87.144 39.7435 87.144ZM39.7435 85.864C40.2662 85.864 40.7568 85.7413 41.2155 85.496C41.6742 85.2507 42.0422 84.8827 42.3195 84.392C42.6075 83.9013 42.7515 83.304 42.7515 82.6C42.7515 81.896 42.6128 81.2987 42.3355 80.808C42.0582 80.3173 41.6955 79.9547 41.2475 79.72C40.7995 79.4747 40.3142 79.352 39.7915 79.352C39.2582 79.352 38.7675 79.4747 38.3195 79.72C37.8822 79.9547 37.5302 80.3173 37.2635 80.808C36.9968 81.2987 36.8635 81.896 36.8635 82.6C36.8635 83.3147 36.9915 83.9173 37.2475 84.408C37.5142 84.8987 37.8662 85.2667 38.3035 85.512C38.7408 85.7467 39.2208 85.864 39.7435 85.864ZM47.6099 79.656C47.8659 79.1547 48.2285 78.7653 48.6979 78.488C49.1779 78.2107 49.7592 78.072 50.4419 78.072V79.576H50.0579C48.4259 79.576 47.6099 80.4613 47.6099 82.232V87H46.1539V78.232H47.6099V79.656ZM51.5786 82.584C51.5786 81.688 51.76 80.904 52.1226 80.232C52.4853 79.5493 52.9813 79.0213 53.6106 78.648C54.2506 78.2747 54.9653 78.088 55.7546 78.088C56.4373 78.088 57.072 78.248 57.6586 78.568C58.2453 78.8773 58.6933 79.288 59.0026 79.8V75.16H60.4746V87H59.0026V85.352C58.7146 85.8747 58.288 86.3067 57.7226 86.648C57.1573 86.9787 56.496 87.144 55.7386 87.144C54.96 87.144 54.2506 86.952 53.6106 86.568C52.9813 86.184 52.4853 85.6453 52.1226 84.952C51.76 84.2587 51.5786 83.4693 51.5786 82.584ZM59.0026 82.6C59.0026 81.9387 58.8693 81.3627 58.6026 80.872C58.336 80.3813 57.9733 80.008 57.5146 79.752C57.0666 79.4853 56.5706 79.352 56.0266 79.352C55.4826 79.352 54.9866 79.48 54.5386 79.736C54.0906 79.992 53.7333 80.3653 53.4666 80.856C53.2 81.3467 53.0666 81.9227 53.0666 82.584C53.0666 83.256 53.2 83.8427 53.4666 84.344C53.7333 84.8347 54.0906 85.2133 54.5386 85.48C54.9866 85.736 55.4826 85.864 56.0266 85.864C56.5706 85.864 57.0666 85.736 57.5146 85.48C57.9733 85.2133 58.336 84.8347 58.6026 84.344C58.8693 83.8427 59.0026 83.2613 59.0026 82.6ZM70.9351 82.28C70.9351 82.5573 70.9191 82.8507 70.8871 83.16H63.8791C63.9325 84.024 64.2258 84.7013 64.7591 85.192C65.3031 85.672 65.9591 85.912 66.7271 85.912C67.3565 85.912 67.8791 85.768 68.2951 85.48C68.7218 85.1813 69.0205 84.7867 69.1911 84.296H70.7591C70.5245 85.1387 70.0551 85.8267 69.3511 86.36C68.6471 86.8827 67.7725 87.144 66.7271 87.144C65.8951 87.144 65.1485 86.9573 64.4871 86.584C63.8365 86.2107 63.3245 85.6827 62.9511 85C62.5778 84.3067 62.3911 83.5067 62.3911 82.6C62.3911 81.6933 62.5725 80.8987 62.9351 80.216C63.2978 79.5333 63.8045 79.0107 64.4551 78.648C65.1165 78.2747 65.8738 78.088 66.7271 78.088C67.5591 78.088 68.2951 78.2693 68.9351 78.632C69.5751 78.9947 70.0658 79.496 70.4071 80.136C70.7591 80.7653 70.9351 81.48 70.9351 82.28ZM69.4311 81.976C69.4311 81.4213 69.3085 80.9467 69.0631 80.552C68.8178 80.1467 68.4818 79.8427 68.0551 79.64C67.6391 79.4267 67.1751 79.32 66.6631 79.32C65.9271 79.32 65.2978 79.5547 64.7751 80.024C64.2631 80.4933 63.9698 81.144 63.8951 81.976H69.4311ZM74.313 79.656C74.569 79.1547 74.9317 78.7653 75.401 78.488C75.881 78.2107 76.4623 78.072 77.145 78.072V79.576H76.761C75.129 79.576 74.313 80.4613 74.313 82.232V87H72.857V78.232H74.313V79.656ZM84.8674 79.432V84.6C84.8674 85.0267 84.958 85.3307 85.1394 85.512C85.3207 85.6827 85.6354 85.768 86.0834 85.768H87.1554V87H85.8434C85.0327 87 84.4247 86.8133 84.0194 86.44C83.614 86.0667 83.4114 85.4533 83.4114 84.6V79.432H82.2754V78.232H83.4114V76.024H84.8674V78.232H87.1554V79.432H84.8674ZM92.7435 87.144C91.9222 87.144 91.1755 86.9573 90.5035 86.584C89.8422 86.2107 89.3195 85.6827 88.9355 85C88.5622 84.3067 88.3755 83.5067 88.3755 82.6C88.3755 81.704 88.5675 80.9147 88.9515 80.232C89.3462 79.5387 89.8795 79.0107 90.5515 78.648C91.2235 78.2747 91.9755 78.088 92.8075 78.088C93.6395 78.088 94.3915 78.2747 95.0635 78.648C95.7355 79.0107 96.2635 79.5333 96.6475 80.216C97.0422 80.8987 97.2395 81.6933 97.2395 82.6C97.2395 83.5067 97.0368 84.3067 96.6315 85C96.2368 85.6827 95.6982 86.2107 95.0155 86.584C94.3328 86.9573 93.5755 87.144 92.7435 87.144ZM92.7435 85.864C93.2662 85.864 93.7568 85.7413 94.2155 85.496C94.6742 85.2507 95.0422 84.8827 95.3195 84.392C95.6075 83.9013 95.7515 83.304 95.7515 82.6C95.7515 81.896 95.6128 81.2987 95.3355 80.808C95.0582 80.3173 94.6955 79.9547 94.2475 79.72C93.7995 79.4747 93.3142 79.352 92.7915 79.352C92.2582 79.352 91.7675 79.4747 91.3195 79.72C90.8822 79.9547 90.5302 80.3173 90.2635 80.808C89.9968 81.2987 89.8635 81.896 89.8635 82.6C89.8635 83.3147 89.9915 83.9173 90.2475 84.408C90.5142 84.8987 90.8662 85.2667 91.3035 85.512C91.7408 85.7467 92.2208 85.864 92.7435 85.864ZM111.42 82.28C111.42 82.5573 111.404 82.8507 111.372 83.16H104.364C104.417 84.024 104.71 84.7013 105.244 85.192C105.788 85.672 106.444 85.912 107.212 85.912C107.841 85.912 108.364 85.768 108.78 85.48C109.206 85.1813 109.505 84.7867 109.676 84.296H111.244C111.009 85.1387 110.54 85.8267 109.836 86.36C109.132 86.8827 108.257 87.144 107.212 87.144C106.38 87.144 105.633 86.9573 104.972 86.584C104.321 86.2107 103.809 85.6827 103.436 85C103.062 84.3067 102.876 83.5067 102.876 82.6C102.876 81.6933 103.057 80.8987 103.42 80.216C103.782 79.5333 104.289 79.0107 104.94 78.648C105.601 78.2747 106.358 78.088 107.212 78.088C108.044 78.088 108.78 78.2693 109.42 78.632C110.06 78.9947 110.55 79.496 110.892 80.136C111.244 80.7653 111.42 81.48 111.42 82.28ZM109.916 81.976C109.916 81.4213 109.793 80.9467 109.548 80.552C109.302 80.1467 108.966 79.8427 108.54 79.64C108.124 79.4267 107.66 79.32 107.148 79.32C106.412 79.32 105.782 79.5547 105.26 80.024C104.748 80.4933 104.454 81.144 104.38 81.976H109.916ZM117.613 78.072C118.68 78.072 119.544 78.3973 120.205 79.048C120.867 79.688 121.197 80.616 121.197 81.832V87H119.757V82.04C119.757 81.1653 119.539 80.4987 119.101 80.04C118.664 79.5707 118.067 79.336 117.309 79.336C116.541 79.336 115.928 79.576 115.469 80.056C115.021 80.536 114.797 81.2347 114.797 82.152V87H113.341V78.232H114.797V79.48C115.085 79.032 115.475 78.6853 115.965 78.44C116.467 78.1947 117.016 78.072 117.613 78.072ZM123.032 82.584C123.032 81.688 123.213 80.904 123.576 80.232C123.938 79.5493 124.434 79.0213 125.064 78.648C125.704 78.2747 126.418 78.088 127.208 78.088C127.89 78.088 128.525 78.248 129.112 78.568C129.698 78.8773 130.146 79.288 130.456 79.8V75.16H131.928V87H130.456V85.352C130.168 85.8747 129.741 86.3067 129.176 86.648C128.61 86.9787 127.949 87.144 127.192 87.144C126.413 87.144 125.704 86.952 125.064 86.568C124.434 86.184 123.938 85.6453 123.576 84.952C123.213 84.2587 123.032 83.4693 123.032 82.584ZM130.456 82.6C130.456 81.9387 130.322 81.3627 130.056 80.872C129.789 80.3813 129.426 80.008 128.968 79.752C128.52 79.4853 128.024 79.352 127.48 79.352C126.936 79.352 126.44 79.48 125.992 79.736C125.544 79.992 125.186 80.3653 124.92 80.856C124.653 81.3467 124.52 81.9227 124.52 82.584C124.52 83.256 124.653 83.8427 124.92 84.344C125.186 84.8347 125.544 85.2133 125.992 85.48C126.44 85.736 126.936 85.864 127.48 85.864C128.024 85.864 128.52 85.736 128.968 85.48C129.426 85.2133 129.789 84.8347 130.056 84.344C130.322 83.8427 130.456 83.2613 130.456 82.6ZM140.43 79.432V84.6C140.43 85.0267 140.521 85.3307 140.702 85.512C140.883 85.6827 141.198 85.768 141.646 85.768H142.718V87H141.406C140.595 87 139.987 86.8133 139.582 86.44C139.177 86.0667 138.974 85.4533 138.974 84.6V79.432H137.838V78.232H138.974V76.024H140.43V78.232H142.718V79.432H140.43ZM148.834 78.072C149.495 78.072 150.093 78.216 150.626 78.504C151.159 78.7813 151.575 79.2027 151.874 79.768C152.183 80.3333 152.338 81.0213 152.338 81.832V87H150.898V82.04C150.898 81.1653 150.679 80.4987 150.242 80.04C149.805 79.5707 149.207 79.336 148.45 79.336C147.682 79.336 147.069 79.576 146.61 80.056C146.162 80.536 145.938 81.2347 145.938 82.152V87H144.482V75.16H145.938V79.48C146.226 79.032 146.621 78.6853 147.122 78.44C147.634 78.1947 148.205 78.072 148.834 78.072ZM162.716 82.28C162.716 82.5573 162.7 82.8507 162.668 83.16H155.66C155.714 84.024 156.007 84.7013 156.54 85.192C157.084 85.672 157.74 85.912 158.508 85.912C159.138 85.912 159.66 85.768 160.076 85.48C160.503 85.1813 160.802 84.7867 160.972 84.296H162.54C162.306 85.1387 161.836 85.8267 161.132 86.36C160.428 86.8827 159.554 87.144 158.508 87.144C157.676 87.144 156.93 86.9573 156.268 86.584C155.618 86.2107 155.106 85.6827 154.732 85C154.359 84.3067 154.172 83.5067 154.172 82.6C154.172 81.6933 154.354 80.8987 154.716 80.216C155.079 79.5333 155.586 79.0107 156.236 78.648C156.898 78.2747 157.655 78.088 158.508 78.088C159.34 78.088 160.076 78.2693 160.716 78.632C161.356 78.9947 161.847 79.496 162.188 80.136C162.54 80.7653 162.716 81.48 162.716 82.28ZM161.212 81.976C161.212 81.4213 161.09 80.9467 160.844 80.552C160.599 80.1467 160.263 79.8427 159.836 79.64C159.42 79.4267 158.956 79.32 158.444 79.32C157.708 79.32 157.079 79.5547 156.556 80.024C156.044 80.4933 155.751 81.144 155.676 81.976H161.212ZM168.36 82.584C168.36 81.688 168.541 80.904 168.904 80.232C169.267 79.5493 169.763 79.0213 170.392 78.648C171.032 78.2747 171.747 78.088 172.536 78.088C173.219 78.088 173.853 78.248 174.44 78.568C175.027 78.8773 175.475 79.288 175.784 79.8V75.16H177.256V87H175.784V85.352C175.496 85.8747 175.069 86.3067 174.504 86.648C173.939 86.9787 173.277 87.144 172.52 87.144C171.741 87.144 171.032 86.952 170.392 86.568C169.763 86.184 169.267 85.6453 168.904 84.952C168.541 84.2587 168.36 83.4693 168.36 82.584ZM175.784 82.6C175.784 81.9387 175.651 81.3627 175.384 80.872C175.117 80.3813 174.755 80.008 174.296 79.752C173.848 79.4853 173.352 79.352 172.808 79.352C172.264 79.352 171.768 79.48 171.32 79.736C170.872 79.992 170.515 80.3653 170.248 80.856C169.981 81.3467 169.848 81.9227 169.848 82.584C169.848 83.256 169.981 83.8427 170.248 84.344C170.515 84.8347 170.872 85.2133 171.32 85.48C171.768 85.736 172.264 85.864 172.808 85.864C173.352 85.864 173.848 85.736 174.296 85.48C174.755 85.2133 175.117 84.8347 175.384 84.344C175.651 83.8427 175.784 83.2613 175.784 82.6ZM179.172 82.584C179.172 81.688 179.354 80.904 179.716 80.232C180.079 79.5493 180.575 79.0213 181.204 78.648C181.844 78.2747 182.554 78.088 183.332 78.088C184.1 78.088 184.767 78.2533 185.332 78.584C185.898 78.9147 186.319 79.3307 186.596 79.832V78.232H188.068V87H186.596V85.368C186.308 85.88 185.876 86.3067 185.3 86.648C184.735 86.9787 184.074 87.144 183.316 87.144C182.538 87.144 181.834 86.952 181.204 86.568C180.575 86.184 180.079 85.6453 179.716 84.952C179.354 84.2587 179.172 83.4693 179.172 82.584ZM186.596 82.6C186.596 81.9387 186.463 81.3627 186.196 80.872C185.93 80.3813 185.567 80.008 185.108 79.752C184.66 79.4853 184.164 79.352 183.62 79.352C183.076 79.352 182.58 79.48 182.132 79.736C181.684 79.992 181.327 80.3653 181.06 80.856C180.794 81.3467 180.66 81.9227 180.66 82.584C180.66 83.256 180.794 83.8427 181.06 84.344C181.327 84.8347 181.684 85.2133 182.132 85.48C182.58 85.736 183.076 85.864 183.62 85.864C184.164 85.864 184.66 85.736 185.108 85.48C185.567 85.2133 185.93 84.8347 186.196 84.344C186.463 83.8427 186.596 83.2613 186.596 82.6ZM198.081 78.232L192.801 91.128H191.297L193.025 86.904L189.489 78.232H191.105L193.857 85.336L196.577 78.232H198.081Z" fill="#FF6565"/>
</svg>
