<svg width="54" height="54" viewBox="0 0 54 54" fill="none" xmlns="http://www.w3.org/2000/svg">
<path d="M26.5178 3.31476C13.7043 3.31476 3.3147 13.7044 3.3147 26.5179C3.3147 39.3314 13.7043 49.721 26.5178 49.721C39.3313 49.721 49.7209 39.3314 49.7209 26.5179C49.7209 13.7044 39.3313 3.31476 26.5178 3.31476ZM36.5397 18.9406L25.6322 34.0641C25.4797 34.2769 25.2787 34.4502 25.0459 34.5698C24.8131 34.6895 24.5551 34.7518 24.2933 34.7518C24.0316 34.7518 23.7736 34.6895 23.5407 34.5698C23.3079 34.4502 23.1069 34.2769 22.9545 34.0641L16.4959 25.1143C16.2991 24.8398 16.4959 24.4565 16.8326 24.4565H19.2617C19.7899 24.4565 20.2923 24.7103 20.6031 25.1454L24.2907 30.2625L32.4325 18.9717C32.7433 18.5418 33.2405 18.2828 33.774 18.2828H36.2031C36.5397 18.2828 36.7365 18.6661 36.5397 18.9406Z" fill="#6CE06A"/>
</svg>
