<svg width="19" height="19" viewBox="0 0 19 19" fill="none" xmlns="http://www.w3.org/2000/svg">
<path fill-rule="evenodd" clip-rule="evenodd" d="M0.515638 6.26562V0.515625H2.67189V4.16975C4.31783 2.21619 6.85645 0.994312 9.62939 0.994312C14.1963 0.994312 18.1394 4.31062 18.4844 8.75394L18.5131 9.14062H16.3569L16.3253 8.81575C16.0205 5.66044 13.1599 3.152 9.63226 3.152C7.13676 3.152 4.96901 4.40981 3.81039 6.26562H7.87851V8.42188H1.89133L0.509888 7.02031V6.26562H0.5142H0.515638ZM9.50001 18.125C8.73751 18.125 8.00625 17.8221 7.46708 17.2829C6.92791 16.7438 6.62501 16.0125 6.62501 15.25C6.62501 14.4875 6.92791 13.7562 7.46708 13.2171C8.00625 12.6779 8.73751 12.375 9.50001 12.375C10.2625 12.375 10.9938 12.6779 11.5329 13.2171C12.0721 13.7562 12.375 14.4875 12.375 15.25C12.375 16.0125 12.0721 16.7438 11.5329 17.2829C10.9938 17.8221 10.2625 18.125 9.50001 18.125Z" fill="#F8D521"/>
</svg>
