<svg width="26" height="26" viewBox="0 0 26 26" fill="none" xmlns="http://www.w3.org/2000/svg">
<path d="M3.24997 20.5833H22.75C22.9474 20.5827 23.1409 20.5283 23.3097 20.4258C23.4785 20.3234 23.6161 20.1769 23.7078 20.0021C23.7996 19.8272 23.8418 19.6307 23.8302 19.4336C23.8185 19.2365 23.7533 19.0464 23.6416 18.8836L13.8916 4.80024C13.4875 4.21633 12.5146 4.21633 12.1095 4.80024L2.35947 18.8836C2.24661 19.046 2.18043 19.2363 2.16812 19.4337C2.1558 19.6311 2.19782 19.8281 2.28961 20.0033C2.3814 20.1785 2.51945 20.3252 2.68876 20.4275C2.85808 20.5297 3.05218 20.5836 3.24997 20.5833Z" fill="#6CE06A"/>
</svg>
