<svg width="467" height="458" viewBox="0 0 467 458" fill="none" xmlns="http://www.w3.org/2000/svg">
<rect width="410.911" height="458" rx="40" fill="#387B74"/>
<path d="M0 80H411V418C411 440.091 393.091 458 371 458H40C17.9086 458 0 440.091 0 418V80Z" fill="#4C9E95"/>
<path d="M130.929 37.18C130.233 35.716 129.225 34.588 127.905 33.796C126.585 32.98 125.049 32.572 123.297 32.572C121.545 32.572 119.961 32.98 118.545 33.796C117.153 34.588 116.049 35.74 115.233 37.252C114.441 38.74 114.045 40.468 114.045 42.436C114.045 44.404 114.441 46.132 115.233 47.62C116.049 49.108 117.153 50.26 118.545 51.076C119.961 51.868 121.545 52.264 123.297 52.264C125.745 52.264 127.761 51.532 129.345 50.068C130.929 48.604 131.853 46.624 132.117 44.128H122.109V41.464H135.609V43.984C135.417 46.048 134.769 47.944 133.665 49.672C132.561 51.376 131.109 52.732 129.309 53.74C127.509 54.724 125.505 55.216 123.297 55.216C120.969 55.216 118.845 54.676 116.925 53.596C115.005 52.492 113.481 50.968 112.353 49.024C111.249 47.08 110.697 44.884 110.697 42.436C110.697 39.988 111.249 37.792 112.353 35.848C113.481 33.88 115.005 32.356 116.925 31.276C118.845 30.172 120.969 29.62 123.297 29.62C125.961 29.62 128.313 30.28 130.353 31.6C132.417 32.92 133.917 34.78 134.853 37.18H130.929ZM154.772 49.42H143.828L141.812 55H138.356L147.428 30.052H151.208L160.244 55H156.788L154.772 49.42ZM153.836 46.756L149.3 34.084L144.764 46.756H153.836ZM189.65 30.088V55H186.374V36.424L178.094 55H175.79L167.474 36.388V55H164.198V30.088H167.726L176.942 50.68L186.158 30.088H189.65ZM198.482 32.572V40.96H207.626V43.66H198.482V52.3H208.706V55H195.206V29.872H208.706V32.572H198.482ZM226.537 29.908V55H223.261V29.908H226.537ZM251.848 55H248.572L235.396 35.02V55H232.12V29.872H235.396L248.572 49.816V29.872H251.848V55ZM271.616 29.908V32.572H260.708V41.032H269.564V43.696H260.708V55H257.432V29.908H271.616ZM286.949 55.252C284.621 55.252 282.497 54.712 280.577 53.632C278.657 52.528 277.133 51.004 276.005 49.06C274.901 47.092 274.349 44.884 274.349 42.436C274.349 39.988 274.901 37.792 276.005 35.848C277.133 33.88 278.657 32.356 280.577 31.276C282.497 30.172 284.621 29.62 286.949 29.62C289.301 29.62 291.437 30.172 293.357 31.276C295.277 32.356 296.789 33.868 297.893 35.812C298.997 37.756 299.549 39.964 299.549 42.436C299.549 44.908 298.997 47.116 297.893 49.06C296.789 51.004 295.277 52.528 293.357 53.632C291.437 54.712 289.301 55.252 286.949 55.252ZM286.949 52.408C288.701 52.408 290.273 52 291.665 51.184C293.081 50.368 294.185 49.204 294.977 47.692C295.793 46.18 296.201 44.428 296.201 42.436C296.201 40.42 295.793 38.668 294.977 37.18C294.185 35.668 293.093 34.504 291.701 33.688C290.309 32.872 288.725 32.464 286.949 32.464C285.173 32.464 283.589 32.872 282.197 33.688C280.805 34.504 279.701 35.668 278.885 37.18C278.093 38.668 277.697 40.42 277.697 42.436C277.697 44.428 278.093 46.18 278.885 47.692C279.701 49.204 280.805 50.368 282.197 51.184C283.613 52 285.197 52.408 286.949 52.408Z" fill="#AFF1EA"/>
<path d="M188.194 245.832V257H185.954V249.736L182.962 257H181.266L178.258 249.736V257H176.018V245.832H178.562L182.114 254.136L185.666 245.832H188.194ZM198.777 248.136V257H196.521V255.88C196.233 256.264 195.854 256.568 195.385 256.792C194.926 257.005 194.425 257.112 193.881 257.112C193.187 257.112 192.574 256.968 192.041 256.68C191.507 256.381 191.086 255.949 190.777 255.384C190.478 254.808 190.329 254.125 190.329 253.336V248.136H192.569V253.016C192.569 253.72 192.745 254.264 193.097 254.648C193.449 255.021 193.929 255.208 194.537 255.208C195.155 255.208 195.641 255.021 195.993 254.648C196.345 254.264 196.521 253.72 196.521 253.016V248.136H198.777ZM204.379 257.144C203.653 257.144 203.003 257.016 202.427 256.76C201.851 256.493 201.392 256.136 201.051 255.688C200.72 255.24 200.539 254.744 200.507 254.2H202.763C202.805 254.541 202.971 254.824 203.259 255.048C203.557 255.272 203.925 255.384 204.363 255.384C204.789 255.384 205.12 255.299 205.355 255.128C205.6 254.957 205.723 254.739 205.723 254.472C205.723 254.184 205.573 253.971 205.275 253.832C204.987 253.683 204.523 253.523 203.883 253.352C203.221 253.192 202.677 253.027 202.251 252.856C201.835 252.685 201.472 252.424 201.163 252.072C200.864 251.72 200.715 251.245 200.715 250.648C200.715 250.157 200.853 249.709 201.131 249.304C201.419 248.899 201.824 248.579 202.347 248.344C202.88 248.109 203.504 247.992 204.219 247.992C205.275 247.992 206.117 248.259 206.747 248.792C207.376 249.315 207.723 250.024 207.787 250.92H205.643C205.611 250.568 205.461 250.291 205.195 250.088C204.939 249.875 204.592 249.768 204.155 249.768C203.749 249.768 203.435 249.843 203.211 249.992C202.997 250.141 202.891 250.349 202.891 250.616C202.891 250.915 203.04 251.144 203.339 251.304C203.637 251.453 204.101 251.608 204.731 251.768C205.371 251.928 205.899 252.093 206.315 252.264C206.731 252.435 207.088 252.701 207.387 253.064C207.696 253.416 207.856 253.885 207.867 254.472C207.867 254.984 207.723 255.443 207.435 255.848C207.157 256.253 206.752 256.573 206.219 256.808C205.696 257.032 205.083 257.144 204.379 257.144ZM210.842 247.08C210.447 247.08 210.116 246.957 209.85 246.712C209.594 246.456 209.466 246.141 209.466 245.768C209.466 245.395 209.594 245.085 209.85 244.84C210.116 244.584 210.447 244.456 210.842 244.456C211.236 244.456 211.562 244.584 211.818 244.84C212.084 245.085 212.218 245.395 212.218 245.768C212.218 246.141 212.084 246.456 211.818 246.712C211.562 246.957 211.236 247.08 210.842 247.08ZM211.946 248.136V257H209.706V248.136H211.946ZM213.583 252.568C213.583 251.651 213.769 250.851 214.143 250.168C214.516 249.475 215.033 248.941 215.695 248.568C216.356 248.184 217.113 247.992 217.967 247.992C219.065 247.992 219.972 248.269 220.687 248.824C221.412 249.368 221.897 250.136 222.143 251.128H219.727C219.599 250.744 219.38 250.445 219.071 250.232C218.772 250.008 218.399 249.896 217.951 249.896C217.311 249.896 216.804 250.131 216.431 250.6C216.057 251.059 215.871 251.715 215.871 252.568C215.871 253.411 216.057 254.067 216.431 254.536C216.804 254.995 217.311 255.224 217.951 255.224C218.857 255.224 219.449 254.819 219.727 254.008H222.143C221.897 254.968 221.412 255.731 220.687 256.296C219.961 256.861 219.055 257.144 217.967 257.144C217.113 257.144 216.356 256.957 215.695 256.584C215.033 256.2 214.516 255.667 214.143 254.984C213.769 254.291 213.583 253.485 213.583 252.568ZM224.376 257.096C224.098 257.096 223.864 257 223.672 256.808C223.48 256.616 223.384 256.381 223.384 256.104C223.384 255.827 223.48 255.592 223.672 255.4C223.864 255.208 224.098 255.112 224.376 255.112C224.642 255.112 224.866 255.208 225.048 255.4C225.24 255.592 225.336 255.827 225.336 256.104C225.336 256.381 225.24 256.616 225.048 256.808C224.866 257 224.642 257.096 224.376 257.096ZM224.376 250.248C224.098 250.248 223.864 250.152 223.672 249.96C223.48 249.768 223.384 249.533 223.384 249.256C223.384 248.979 223.48 248.744 223.672 248.552C223.864 248.36 224.098 248.264 224.376 248.264C224.642 248.264 224.866 248.36 225.048 248.552C225.24 248.744 225.336 248.979 225.336 249.256C225.336 249.533 225.24 249.768 225.048 249.96C224.866 250.152 224.642 250.248 224.376 250.248ZM70.5961 281.112C69.8601 281.112 69.1988 280.984 68.6121 280.728C68.0361 280.461 67.5828 280.099 67.2521 279.64C66.9215 279.171 66.7508 278.632 66.7401 278.024H68.2921C68.3455 278.547 68.5588 278.989 68.9321 279.352C69.3161 279.704 69.8708 279.88 70.5961 279.88C71.2895 279.88 71.8335 279.709 72.2281 279.368C72.6335 279.016 72.8361 278.568 72.8361 278.024C72.8361 277.597 72.7188 277.251 72.4841 276.984C72.2495 276.717 71.9561 276.515 71.6041 276.376C71.2521 276.237 70.7775 276.088 70.1801 275.928C69.4441 275.736 68.8521 275.544 68.4041 275.352C67.9668 275.16 67.5881 274.861 67.2681 274.456C66.9588 274.04 66.8041 273.485 66.8041 272.792C66.8041 272.184 66.9588 271.645 67.2681 271.176C67.5775 270.707 68.0095 270.344 68.5641 270.088C69.1295 269.832 69.7748 269.704 70.5001 269.704C71.5455 269.704 72.3988 269.965 73.0601 270.488C73.7321 271.011 74.1108 271.704 74.1961 272.568H72.5961C72.5428 272.141 72.3188 271.768 71.9241 271.448C71.5295 271.117 71.0068 270.952 70.3561 270.952C69.7481 270.952 69.2521 271.112 68.8681 271.432C68.4841 271.741 68.2921 272.179 68.2921 272.744C68.2921 273.149 68.4041 273.48 68.6281 273.736C68.8628 273.992 69.1455 274.189 69.4761 274.328C69.8175 274.456 70.2921 274.605 70.9001 274.776C71.6361 274.979 72.2281 275.181 72.6761 275.384C73.1241 275.576 73.5081 275.88 73.8281 276.296C74.1481 276.701 74.3081 277.256 74.3081 277.96C74.3081 278.504 74.1641 279.016 73.8761 279.496C73.5881 279.976 73.1615 280.365 72.5961 280.664C72.0308 280.963 71.3641 281.112 70.5961 281.112ZM84.2268 272.232V281H82.7708V279.704C82.4934 280.152 82.1041 280.504 81.6028 280.76C81.1121 281.005 80.5681 281.128 79.9708 281.128C79.2881 281.128 78.6748 280.989 78.1308 280.712C77.5868 280.424 77.1548 279.997 76.8348 279.432C76.5254 278.867 76.3708 278.179 76.3708 277.368V272.232H77.8108V277.176C77.8108 278.04 78.0294 278.707 78.4668 279.176C78.9041 279.635 79.5014 279.864 80.2588 279.864C81.0374 279.864 81.6508 279.624 82.0988 279.144C82.5468 278.664 82.7708 277.965 82.7708 277.048V272.232H84.2268ZM97.2291 272.072C97.9118 272.072 98.5198 272.216 99.0531 272.504C99.5865 272.781 100.008 273.203 100.317 273.768C100.626 274.333 100.781 275.021 100.781 275.832V281H99.3411V276.04C99.3411 275.165 99.1225 274.499 98.6851 274.04C98.2585 273.571 97.6771 273.336 96.9411 273.336C96.1838 273.336 95.5811 273.581 95.1331 274.072C94.6851 274.552 94.4611 275.251 94.4611 276.168V281H93.0211V276.04C93.0211 275.165 92.8025 274.499 92.3651 274.04C91.9385 273.571 91.3571 273.336 90.6211 273.336C89.8638 273.336 89.2611 273.581 88.8131 274.072C88.3651 274.552 88.1411 275.251 88.1411 276.168V281H86.6851V272.232H88.1411V273.496C88.4291 273.037 88.8131 272.685 89.2931 272.44C89.7838 272.195 90.3225 272.072 90.9091 272.072C91.6451 272.072 92.2958 272.237 92.8611 272.568C93.4265 272.899 93.8478 273.384 94.1251 274.024C94.3705 273.405 94.7758 272.925 95.3411 272.584C95.9065 272.243 96.5358 272.072 97.2291 272.072ZM113.714 272.072C114.396 272.072 115.004 272.216 115.538 272.504C116.071 272.781 116.492 273.203 116.802 273.768C117.111 274.333 117.266 275.021 117.266 275.832V281H115.826V276.04C115.826 275.165 115.607 274.499 115.17 274.04C114.743 273.571 114.162 273.336 113.426 273.336C112.668 273.336 112.066 273.581 111.618 274.072C111.17 274.552 110.946 275.251 110.946 276.168V281H109.506V276.04C109.506 275.165 109.287 274.499 108.85 274.04C108.423 273.571 107.842 273.336 107.106 273.336C106.348 273.336 105.746 273.581 105.298 274.072C104.85 274.552 104.626 275.251 104.626 276.168V281H103.17V272.232H104.626V273.496C104.914 273.037 105.298 272.685 105.778 272.44C106.268 272.195 106.807 272.072 107.394 272.072C108.13 272.072 108.78 272.237 109.346 272.568C109.911 272.899 110.332 273.384 110.61 274.024C110.855 273.405 111.26 272.925 111.826 272.584C112.391 272.243 113.02 272.072 113.714 272.072ZM127.654 276.28C127.654 276.557 127.638 276.851 127.606 277.16H120.598C120.651 278.024 120.945 278.701 121.478 279.192C122.022 279.672 122.678 279.912 123.446 279.912C124.075 279.912 124.598 279.768 125.014 279.48C125.441 279.181 125.739 278.787 125.91 278.296H127.478C127.243 279.139 126.774 279.827 126.07 280.36C125.366 280.883 124.491 281.144 123.446 281.144C122.614 281.144 121.867 280.957 121.206 280.584C120.555 280.211 120.043 279.683 119.67 279C119.297 278.307 119.11 277.507 119.11 276.6C119.11 275.693 119.291 274.899 119.654 274.216C120.017 273.533 120.523 273.011 121.174 272.648C121.835 272.275 122.593 272.088 123.446 272.088C124.278 272.088 125.014 272.269 125.654 272.632C126.294 272.995 126.785 273.496 127.126 274.136C127.478 274.765 127.654 275.48 127.654 276.28ZM126.15 275.976C126.15 275.421 126.027 274.947 125.782 274.552C125.537 274.147 125.201 273.843 124.774 273.64C124.358 273.427 123.894 273.32 123.382 273.32C122.646 273.32 122.017 273.555 121.494 274.024C120.982 274.493 120.689 275.144 120.614 275.976H126.15ZM131.032 273.656C131.288 273.155 131.65 272.765 132.12 272.488C132.6 272.211 133.181 272.072 133.864 272.072V273.576H133.48C131.848 273.576 131.032 274.461 131.032 276.232V281H129.576V272.232H131.032V273.656ZM146.114 269.848V271.032H141.266V274.792H145.202V275.976H141.266V281H139.81V269.848H146.114ZM151.697 281.144C150.875 281.144 150.129 280.957 149.457 280.584C148.795 280.211 148.273 279.683 147.889 279C147.515 278.307 147.329 277.507 147.329 276.6C147.329 275.704 147.521 274.915 147.905 274.232C148.299 273.539 148.833 273.011 149.505 272.648C150.177 272.275 150.929 272.088 151.761 272.088C152.593 272.088 153.345 272.275 154.017 272.648C154.689 273.011 155.217 273.533 155.601 274.216C155.995 274.899 156.193 275.693 156.193 276.6C156.193 277.507 155.99 278.307 155.585 279C155.19 279.683 154.651 280.211 153.969 280.584C153.286 280.957 152.529 281.144 151.697 281.144ZM151.697 279.864C152.219 279.864 152.71 279.741 153.169 279.496C153.627 279.251 153.995 278.883 154.273 278.392C154.561 277.901 154.705 277.304 154.705 276.6C154.705 275.896 154.566 275.299 154.289 274.808C154.011 274.317 153.649 273.955 153.201 273.72C152.753 273.475 152.267 273.352 151.745 273.352C151.211 273.352 150.721 273.475 150.273 273.72C149.835 273.955 149.483 274.317 149.217 274.808C148.95 275.299 148.817 275.896 148.817 276.6C148.817 277.315 148.945 277.917 149.201 278.408C149.467 278.899 149.819 279.267 150.257 279.512C150.694 279.747 151.174 279.864 151.697 279.864ZM159.563 273.656C159.819 273.155 160.182 272.765 160.651 272.488C161.131 272.211 161.712 272.072 162.395 272.072V273.576H162.011C160.379 273.576 159.563 274.461 159.563 276.232V281H158.107V272.232H159.563V273.656ZM172.076 276.28C172.076 276.557 172.06 276.851 172.028 277.16H165.02C165.073 278.024 165.366 278.701 165.9 279.192C166.444 279.672 167.1 279.912 167.868 279.912C168.497 279.912 169.02 279.768 169.436 279.48C169.862 279.181 170.161 278.787 170.332 278.296H171.9C171.665 279.139 171.196 279.827 170.492 280.36C169.788 280.883 168.913 281.144 167.868 281.144C167.036 281.144 166.289 280.957 165.628 280.584C164.977 280.211 164.465 279.683 164.092 279C163.718 278.307 163.532 277.507 163.532 276.6C163.532 275.693 163.713 274.899 164.076 274.216C164.438 273.533 164.945 273.011 165.596 272.648C166.257 272.275 167.014 272.088 167.868 272.088C168.7 272.088 169.436 272.269 170.076 272.632C170.716 272.995 171.206 273.496 171.548 274.136C171.9 274.765 172.076 275.48 172.076 276.28ZM170.572 275.976C170.572 275.421 170.449 274.947 170.204 274.552C169.958 274.147 169.622 273.843 169.196 273.64C168.78 273.427 168.316 273.32 167.804 273.32C167.068 273.32 166.438 273.555 165.916 274.024C165.404 274.493 165.11 275.144 165.036 275.976H170.572ZM177.102 281.144C176.43 281.144 175.827 281.032 175.294 280.808C174.76 280.573 174.339 280.253 174.03 279.848C173.72 279.432 173.55 278.957 173.518 278.424H175.022C175.064 278.861 175.267 279.219 175.63 279.496C176.003 279.773 176.488 279.912 177.086 279.912C177.64 279.912 178.078 279.789 178.398 279.544C178.718 279.299 178.878 278.989 178.878 278.616C178.878 278.232 178.707 277.949 178.366 277.768C178.024 277.576 177.496 277.389 176.782 277.208C176.131 277.037 175.598 276.867 175.182 276.696C174.776 276.515 174.424 276.253 174.126 275.912C173.838 275.56 173.694 275.101 173.694 274.536C173.694 274.088 173.827 273.677 174.094 273.304C174.36 272.931 174.739 272.637 175.23 272.424C175.72 272.2 176.28 272.088 176.91 272.088C177.88 272.088 178.664 272.333 179.262 272.824C179.859 273.315 180.179 273.987 180.222 274.84H178.766C178.734 274.381 178.547 274.013 178.206 273.736C177.875 273.459 177.427 273.32 176.862 273.32C176.339 273.32 175.923 273.432 175.614 273.656C175.304 273.88 175.15 274.173 175.15 274.536C175.15 274.824 175.24 275.064 175.422 275.256C175.614 275.437 175.848 275.587 176.126 275.704C176.414 275.811 176.808 275.933 177.31 276.072C177.939 276.243 178.451 276.413 178.846 276.584C179.24 276.744 179.576 276.989 179.854 277.32C180.142 277.651 180.291 278.083 180.302 278.616C180.302 279.096 180.168 279.528 179.902 279.912C179.635 280.296 179.256 280.6 178.766 280.824C178.286 281.037 177.731 281.144 177.102 281.144ZM184.133 273.432V278.6C184.133 279.027 184.224 279.331 184.405 279.512C184.586 279.683 184.901 279.768 185.349 279.768H186.421V281H185.109C184.298 281 183.69 280.813 183.285 280.44C182.88 280.067 182.677 279.453 182.677 278.6V273.432H181.541V272.232H182.677V270.024H184.133V272.232H186.421V273.432H184.133ZM193.907 273.864C194.205 273.341 194.643 272.915 195.219 272.584C195.795 272.253 196.451 272.088 197.187 272.088C197.976 272.088 198.685 272.275 199.315 272.648C199.944 273.021 200.44 273.549 200.803 274.232C201.165 274.904 201.347 275.688 201.347 276.584C201.347 277.469 201.165 278.259 200.803 278.952C200.44 279.645 199.939 280.184 199.299 280.568C198.669 280.952 197.965 281.144 197.187 281.144C196.429 281.144 195.763 280.979 195.187 280.648C194.621 280.317 194.195 279.896 193.907 279.384V281H192.451V269.16H193.907V273.864ZM199.859 276.584C199.859 275.923 199.725 275.347 199.459 274.856C199.192 274.365 198.829 273.992 198.371 273.736C197.923 273.48 197.427 273.352 196.883 273.352C196.349 273.352 195.853 273.485 195.395 273.752C194.947 274.008 194.584 274.387 194.307 274.888C194.04 275.379 193.907 275.949 193.907 276.6C193.907 277.261 194.04 277.843 194.307 278.344C194.584 278.835 194.947 279.213 195.395 279.48C195.853 279.736 196.349 279.864 196.883 279.864C197.427 279.864 197.923 279.736 198.371 279.48C198.829 279.213 199.192 278.835 199.459 278.344C199.725 277.843 199.859 277.256 199.859 276.584ZM210.815 272.232L205.535 285.128H204.031L205.759 280.904L202.223 272.232H203.839L206.591 279.336L209.311 272.232H210.815ZM218.001 279.816H221.905V281H216.545V269.848H218.001V279.816ZM231.451 276.28C231.451 276.557 231.435 276.851 231.403 277.16H224.395C224.448 278.024 224.741 278.701 225.275 279.192C225.819 279.672 226.475 279.912 227.243 279.912C227.872 279.912 228.395 279.768 228.811 279.48C229.237 279.181 229.536 278.787 229.707 278.296H231.275C231.04 279.139 230.571 279.827 229.867 280.36C229.163 280.883 228.288 281.144 227.243 281.144C226.411 281.144 225.664 280.957 225.003 280.584C224.352 280.211 223.84 279.683 223.467 279C223.093 278.307 222.907 277.507 222.907 276.6C222.907 275.693 223.088 274.899 223.451 274.216C223.813 273.533 224.32 273.011 224.971 272.648C225.632 272.275 226.389 272.088 227.243 272.088C228.075 272.088 228.811 272.269 229.451 272.632C230.091 272.995 230.581 273.496 230.923 274.136C231.275 274.765 231.451 275.48 231.451 276.28ZM229.947 275.976C229.947 275.421 229.824 274.947 229.579 274.552C229.333 274.147 228.997 273.843 228.571 273.64C228.155 273.427 227.691 273.32 227.179 273.32C226.443 273.32 225.813 273.555 225.291 274.024C224.779 274.493 224.485 275.144 224.411 275.976H229.947ZM234.125 270.808C233.847 270.808 233.613 270.712 233.421 270.52C233.229 270.328 233.133 270.093 233.133 269.816C233.133 269.539 233.229 269.304 233.421 269.112C233.613 268.92 233.847 268.824 234.125 268.824C234.391 268.824 234.615 268.92 234.797 269.112C234.989 269.304 235.085 269.539 235.085 269.816C235.085 270.093 234.989 270.328 234.797 270.52C234.615 270.712 234.391 270.808 234.125 270.808ZM234.829 272.232V281H233.373V272.232H234.829ZM240.926 272.088C241.683 272.088 242.345 272.253 242.91 272.584C243.486 272.915 243.913 273.331 244.19 273.832V272.232H245.662V281.192C245.662 281.992 245.491 282.701 245.15 283.32C244.809 283.949 244.318 284.44 243.678 284.792C243.049 285.144 242.313 285.32 241.47 285.32C240.318 285.32 239.358 285.048 238.59 284.504C237.822 283.96 237.369 283.219 237.23 282.28H238.67C238.83 282.813 239.161 283.24 239.662 283.56C240.163 283.891 240.766 284.056 241.47 284.056C242.27 284.056 242.921 283.805 243.422 283.304C243.934 282.803 244.19 282.099 244.19 281.192V279.352C243.902 279.864 243.475 280.291 242.91 280.632C242.345 280.973 241.683 281.144 240.926 281.144C240.147 281.144 239.438 280.952 238.798 280.568C238.169 280.184 237.673 279.645 237.31 278.952C236.947 278.259 236.766 277.469 236.766 276.584C236.766 275.688 236.947 274.904 237.31 274.232C237.673 273.549 238.169 273.021 238.798 272.648C239.438 272.275 240.147 272.088 240.926 272.088ZM244.19 276.6C244.19 275.939 244.057 275.363 243.79 274.872C243.523 274.381 243.161 274.008 242.702 273.752C242.254 273.485 241.758 273.352 241.214 273.352C240.67 273.352 240.174 273.48 239.726 273.736C239.278 273.992 238.921 274.365 238.654 274.856C238.387 275.347 238.254 275.923 238.254 276.584C238.254 277.256 238.387 277.843 238.654 278.344C238.921 278.835 239.278 279.213 239.726 279.48C240.174 279.736 240.67 279.864 241.214 279.864C241.758 279.864 242.254 279.736 242.702 279.48C243.161 279.213 243.523 278.835 243.79 278.344C244.057 277.843 244.19 277.261 244.19 276.6ZM252.475 272.072C253.136 272.072 253.733 272.216 254.267 272.504C254.8 272.781 255.216 273.203 255.515 273.768C255.824 274.333 255.979 275.021 255.979 275.832V281H254.539V276.04C254.539 275.165 254.32 274.499 253.883 274.04C253.445 273.571 252.848 273.336 252.091 273.336C251.323 273.336 250.709 273.576 250.251 274.056C249.803 274.536 249.579 275.235 249.579 276.152V281H248.123V269.16H249.579V273.48C249.867 273.032 250.261 272.685 250.763 272.44C251.275 272.195 251.845 272.072 252.475 272.072ZM268.495 281L265.839 276.44H264.079V281H262.623V269.848H266.223C267.065 269.848 267.775 269.992 268.351 270.28C268.937 270.568 269.375 270.957 269.663 271.448C269.951 271.939 270.095 272.499 270.095 273.128C270.095 273.896 269.871 274.573 269.423 275.16C268.985 275.747 268.324 276.136 267.439 276.328L270.239 281H268.495ZM264.079 275.272H266.223C267.012 275.272 267.604 275.08 267.999 274.696C268.393 274.301 268.591 273.779 268.591 273.128C268.591 272.467 268.393 271.955 267.999 271.592C267.615 271.229 267.023 271.048 266.223 271.048H264.079V275.272ZM276.181 281.144C275.36 281.144 274.613 280.957 273.941 280.584C273.28 280.211 272.757 279.683 272.373 279C272 278.307 271.813 277.507 271.813 276.6C271.813 275.704 272.005 274.915 272.389 274.232C272.784 273.539 273.317 273.011 273.989 272.648C274.661 272.275 275.413 272.088 276.245 272.088C277.077 272.088 277.829 272.275 278.501 272.648C279.173 273.011 279.701 273.533 280.085 274.216C280.48 274.899 280.677 275.693 280.677 276.6C280.677 277.507 280.474 278.307 280.069 279C279.674 279.683 279.136 280.211 278.453 280.584C277.77 280.957 277.013 281.144 276.181 281.144ZM276.181 279.864C276.704 279.864 277.194 279.741 277.653 279.496C278.112 279.251 278.48 278.883 278.757 278.392C279.045 277.901 279.189 277.304 279.189 276.6C279.189 275.896 279.05 275.299 278.773 274.808C278.496 274.317 278.133 273.955 277.685 273.72C277.237 273.475 276.752 273.352 276.229 273.352C275.696 273.352 275.205 273.475 274.757 273.72C274.32 273.955 273.968 274.317 273.701 274.808C273.434 275.299 273.301 275.896 273.301 276.6C273.301 277.315 273.429 277.917 273.685 278.408C273.952 278.899 274.304 279.267 274.741 279.512C275.178 279.747 275.658 279.864 276.181 279.864ZM284.047 273.864C284.346 273.341 284.783 272.915 285.359 272.584C285.935 272.253 286.591 272.088 287.327 272.088C288.117 272.088 288.826 272.275 289.455 272.648C290.085 273.021 290.581 273.549 290.943 274.232C291.306 274.904 291.487 275.688 291.487 276.584C291.487 277.469 291.306 278.259 290.943 278.952C290.581 279.645 290.079 280.184 289.439 280.568C288.81 280.952 288.106 281.144 287.327 281.144C286.57 281.144 285.903 280.979 285.327 280.648C284.762 280.317 284.335 279.896 284.047 279.384V281H282.591V269.16H284.047V273.864ZM289.999 276.584C289.999 275.923 289.866 275.347 289.599 274.856C289.333 274.365 288.97 273.992 288.511 273.736C288.063 273.48 287.567 273.352 287.023 273.352C286.49 273.352 285.994 273.485 285.535 273.752C285.087 274.008 284.725 274.387 284.447 274.888C284.181 275.379 284.047 275.949 284.047 276.6C284.047 277.261 284.181 277.843 284.447 278.344C284.725 278.835 285.087 279.213 285.535 279.48C285.994 279.736 286.49 279.864 287.023 279.864C287.567 279.864 288.063 279.736 288.511 279.48C288.97 279.213 289.333 278.835 289.599 278.344C289.866 277.843 289.999 277.256 289.999 276.584ZM294.156 270.808C293.879 270.808 293.644 270.712 293.452 270.52C293.26 270.328 293.164 270.093 293.164 269.816C293.164 269.539 293.26 269.304 293.452 269.112C293.644 268.92 293.879 268.824 294.156 268.824C294.423 268.824 294.647 268.92 294.828 269.112C295.02 269.304 295.116 269.539 295.116 269.816C295.116 270.093 295.02 270.328 294.828 270.52C294.647 270.712 294.423 270.808 294.156 270.808ZM294.86 272.232V281H293.404V272.232H294.86ZM301.613 272.072C302.68 272.072 303.544 272.397 304.205 273.048C304.867 273.688 305.197 274.616 305.197 275.832V281H303.757V276.04C303.757 275.165 303.539 274.499 303.101 274.04C302.664 273.571 302.067 273.336 301.309 273.336C300.541 273.336 299.928 273.576 299.469 274.056C299.021 274.536 298.797 275.235 298.797 276.152V281H297.341V272.232H298.797V273.48C299.085 273.032 299.475 272.685 299.965 272.44C300.467 272.195 301.016 272.072 301.613 272.072ZM310.68 281.144C310.008 281.144 309.405 281.032 308.872 280.808C308.338 280.573 307.917 280.253 307.608 279.848C307.298 279.432 307.128 278.957 307.096 278.424H308.6C308.642 278.861 308.845 279.219 309.208 279.496C309.581 279.773 310.066 279.912 310.664 279.912C311.218 279.912 311.656 279.789 311.976 279.544C312.296 279.299 312.456 278.989 312.456 278.616C312.456 278.232 312.285 277.949 311.944 277.768C311.602 277.576 311.074 277.389 310.36 277.208C309.709 277.037 309.176 276.867 308.76 276.696C308.354 276.515 308.002 276.253 307.704 275.912C307.416 275.56 307.272 275.101 307.272 274.536C307.272 274.088 307.405 273.677 307.672 273.304C307.938 272.931 308.317 272.637 308.808 272.424C309.298 272.2 309.858 272.088 310.488 272.088C311.458 272.088 312.242 272.333 312.84 272.824C313.437 273.315 313.757 273.987 313.8 274.84H312.344C312.312 274.381 312.125 274.013 311.784 273.736C311.453 273.459 311.005 273.32 310.44 273.32C309.917 273.32 309.501 273.432 309.192 273.656C308.882 273.88 308.728 274.173 308.728 274.536C308.728 274.824 308.818 275.064 309 275.256C309.192 275.437 309.426 275.587 309.704 275.704C309.992 275.811 310.386 275.933 310.888 276.072C311.517 276.243 312.029 276.413 312.424 276.584C312.818 276.744 313.154 276.989 313.432 277.32C313.72 277.651 313.869 278.083 313.88 278.616C313.88 279.096 313.746 279.528 313.48 279.912C313.213 280.296 312.834 280.6 312.344 280.824C311.864 281.037 311.309 281.144 310.68 281.144ZM319.759 281.144C318.938 281.144 318.191 280.957 317.519 280.584C316.858 280.211 316.335 279.683 315.951 279C315.578 278.307 315.391 277.507 315.391 276.6C315.391 275.704 315.583 274.915 315.967 274.232C316.362 273.539 316.895 273.011 317.567 272.648C318.239 272.275 318.991 272.088 319.823 272.088C320.655 272.088 321.407 272.275 322.079 272.648C322.751 273.011 323.279 273.533 323.663 274.216C324.058 274.899 324.255 275.693 324.255 276.6C324.255 277.507 324.052 278.307 323.647 279C323.252 279.683 322.714 280.211 322.031 280.584C321.348 280.957 320.591 281.144 319.759 281.144ZM319.759 279.864C320.282 279.864 320.772 279.741 321.231 279.496C321.69 279.251 322.058 278.883 322.335 278.392C322.623 277.901 322.767 277.304 322.767 276.6C322.767 275.896 322.628 275.299 322.351 274.808C322.074 274.317 321.711 273.955 321.263 273.72C320.815 273.475 320.33 273.352 319.807 273.352C319.274 273.352 318.783 273.475 318.335 273.72C317.898 273.955 317.546 274.317 317.279 274.808C317.012 275.299 316.879 275.896 316.879 276.6C316.879 277.315 317.007 277.917 317.263 278.408C317.53 278.899 317.882 279.267 318.319 279.512C318.756 279.747 319.236 279.864 319.759 279.864ZM330.442 272.072C331.508 272.072 332.372 272.397 333.034 273.048C333.695 273.688 334.026 274.616 334.026 275.832V281H332.586V276.04C332.586 275.165 332.367 274.499 331.93 274.04C331.492 273.571 330.895 273.336 330.138 273.336C329.37 273.336 328.756 273.576 328.298 274.056C327.85 274.536 327.626 275.235 327.626 276.152V281H326.17V272.232H327.626V273.48C327.914 273.032 328.303 272.685 328.794 272.44C329.295 272.195 329.844 272.072 330.442 272.072Z" fill="#AFF1EA"/>
<path d="M158.125 105.832C159.299 105.832 160.328 106.061 161.213 106.52C162.109 106.979 162.797 107.635 163.277 108.488C163.768 109.331 164.013 110.312 164.013 111.432C164.013 112.552 163.768 113.533 163.277 114.376C162.797 115.208 162.109 115.853 161.213 116.312C160.328 116.771 159.299 117 158.125 117H154.221V105.832H158.125ZM158.045 115.096C159.219 115.096 160.125 114.776 160.765 114.136C161.405 113.496 161.725 112.595 161.725 111.432C161.725 110.269 161.405 109.363 160.765 108.712C160.125 108.051 159.219 107.72 158.045 107.72H156.461V115.096H158.045ZM173.93 112.376C173.93 112.696 173.909 112.984 173.866 113.24H167.386C167.439 113.88 167.663 114.381 168.058 114.744C168.453 115.107 168.938 115.288 169.514 115.288C170.346 115.288 170.938 114.931 171.29 114.216H173.706C173.45 115.069 172.959 115.773 172.234 116.328C171.509 116.872 170.618 117.144 169.562 117.144C168.709 117.144 167.941 116.957 167.258 116.584C166.586 116.2 166.058 115.661 165.674 114.968C165.301 114.275 165.114 113.475 165.114 112.568C165.114 111.651 165.301 110.845 165.674 110.152C166.047 109.459 166.57 108.925 167.242 108.552C167.914 108.179 168.687 107.992 169.562 107.992C170.405 107.992 171.157 108.173 171.818 108.536C172.49 108.899 173.007 109.416 173.37 110.088C173.743 110.749 173.93 111.512 173.93 112.376ZM171.61 111.736C171.599 111.16 171.391 110.701 170.986 110.36C170.581 110.008 170.085 109.832 169.498 109.832C168.943 109.832 168.474 110.003 168.09 110.344C167.717 110.675 167.487 111.139 167.402 111.736H171.61ZM179.261 114.936L181.501 108.136H183.885L180.605 117H177.885L174.621 108.136H177.021L179.261 114.936ZM193.383 112.376C193.383 112.696 193.362 112.984 193.319 113.24H186.839C186.892 113.88 187.116 114.381 187.511 114.744C187.906 115.107 188.391 115.288 188.967 115.288C189.799 115.288 190.391 114.931 190.743 114.216H193.159C192.903 115.069 192.412 115.773 191.687 116.328C190.962 116.872 190.071 117.144 189.015 117.144C188.162 117.144 187.394 116.957 186.711 116.584C186.039 116.2 185.511 115.661 185.127 114.968C184.754 114.275 184.567 113.475 184.567 112.568C184.567 111.651 184.754 110.845 185.127 110.152C185.5 109.459 186.023 108.925 186.695 108.552C187.367 108.179 188.14 107.992 189.015 107.992C189.858 107.992 190.61 108.173 191.271 108.536C191.943 108.899 192.46 109.416 192.823 110.088C193.196 110.749 193.383 111.512 193.383 112.376ZM191.063 111.736C191.052 111.16 190.844 110.701 190.439 110.36C190.034 110.008 189.538 109.832 188.951 109.832C188.396 109.832 187.927 110.003 187.543 110.344C187.17 110.675 186.94 111.139 186.855 111.736H191.063ZM197.258 105.16V117H195.018V105.16H197.258ZM203.407 117.144C202.554 117.144 201.786 116.957 201.103 116.584C200.421 116.2 199.882 115.661 199.487 114.968C199.103 114.275 198.911 113.475 198.911 112.568C198.911 111.661 199.109 110.861 199.503 110.168C199.909 109.475 200.458 108.941 201.151 108.568C201.845 108.184 202.618 107.992 203.471 107.992C204.325 107.992 205.098 108.184 205.791 108.568C206.485 108.941 207.029 109.475 207.423 110.168C207.829 110.861 208.031 111.661 208.031 112.568C208.031 113.475 207.823 114.275 207.407 114.968C207.002 115.661 206.447 116.2 205.743 116.584C205.05 116.957 204.271 117.144 203.407 117.144ZM203.407 115.192C203.813 115.192 204.191 115.096 204.543 114.904C204.906 114.701 205.194 114.403 205.407 114.008C205.621 113.613 205.727 113.133 205.727 112.568C205.727 111.725 205.503 111.08 205.055 110.632C204.618 110.173 204.079 109.944 203.439 109.944C202.799 109.944 202.261 110.173 201.823 110.632C201.397 111.08 201.183 111.725 201.183 112.568C201.183 113.411 201.391 114.061 201.807 114.52C202.234 114.968 202.767 115.192 203.407 115.192ZM211.914 109.416C212.202 109.011 212.597 108.675 213.098 108.408C213.61 108.131 214.192 107.992 214.842 107.992C215.6 107.992 216.282 108.179 216.89 108.552C217.509 108.925 217.994 109.459 218.346 110.152C218.709 110.835 218.89 111.629 218.89 112.536C218.89 113.443 218.709 114.248 218.346 114.952C217.994 115.645 217.509 116.184 216.89 116.568C216.282 116.952 215.6 117.144 214.842 117.144C214.192 117.144 213.616 117.011 213.114 116.744C212.624 116.477 212.224 116.141 211.914 115.736V121.224H209.674V108.136H211.914V109.416ZM216.602 112.536C216.602 112.003 216.49 111.544 216.266 111.16C216.053 110.765 215.765 110.467 215.402 110.264C215.05 110.061 214.666 109.96 214.25 109.96C213.845 109.96 213.461 110.067 213.098 110.28C212.746 110.483 212.458 110.781 212.234 111.176C212.021 111.571 211.914 112.035 211.914 112.568C211.914 113.101 212.021 113.565 212.234 113.96C212.458 114.355 212.746 114.659 213.098 114.872C213.461 115.075 213.845 115.176 214.25 115.176C214.666 115.176 215.05 115.069 215.402 114.856C215.765 114.643 216.053 114.339 216.266 113.944C216.49 113.549 216.602 113.08 216.602 112.536ZM228.758 112.376C228.758 112.696 228.737 112.984 228.694 113.24H222.214C222.267 113.88 222.491 114.381 222.886 114.744C223.281 115.107 223.766 115.288 224.342 115.288C225.174 115.288 225.766 114.931 226.118 114.216H228.534C228.278 115.069 227.787 115.773 227.062 116.328C226.337 116.872 225.446 117.144 224.39 117.144C223.537 117.144 222.769 116.957 222.086 116.584C221.414 116.2 220.886 115.661 220.502 114.968C220.129 114.275 219.942 113.475 219.942 112.568C219.942 111.651 220.129 110.845 220.502 110.152C220.875 109.459 221.398 108.925 222.07 108.552C222.742 108.179 223.515 107.992 224.39 107.992C225.233 107.992 225.985 108.173 226.646 108.536C227.318 108.899 227.835 109.416 228.198 110.088C228.571 110.749 228.758 111.512 228.758 112.376ZM226.438 111.736C226.427 111.16 226.219 110.701 225.814 110.36C225.409 110.008 224.913 109.832 224.326 109.832C223.771 109.832 223.302 110.003 222.918 110.344C222.545 110.675 222.315 111.139 222.23 111.736H226.438ZM232.633 109.512C232.921 109.043 233.294 108.675 233.753 108.408C234.222 108.141 234.756 108.008 235.353 108.008V110.36H234.761C234.057 110.36 233.524 110.525 233.161 110.856C232.809 111.187 232.633 111.763 232.633 112.584V117H230.393V108.136H232.633V109.512ZM240.254 117.144C239.528 117.144 238.878 117.016 238.302 116.76C237.726 116.493 237.267 116.136 236.926 115.688C236.595 115.24 236.414 114.744 236.382 114.2H238.638C238.68 114.541 238.846 114.824 239.134 115.048C239.432 115.272 239.8 115.384 240.238 115.384C240.664 115.384 240.995 115.299 241.23 115.128C241.475 114.957 241.598 114.739 241.598 114.472C241.598 114.184 241.448 113.971 241.15 113.832C240.862 113.683 240.398 113.523 239.758 113.352C239.096 113.192 238.552 113.027 238.126 112.856C237.71 112.685 237.347 112.424 237.038 112.072C236.739 111.72 236.59 111.245 236.59 110.648C236.59 110.157 236.728 109.709 237.006 109.304C237.294 108.899 237.699 108.579 238.222 108.344C238.755 108.109 239.379 107.992 240.094 107.992C241.15 107.992 241.992 108.259 242.622 108.792C243.251 109.315 243.598 110.024 243.662 110.92H241.518C241.486 110.568 241.336 110.291 241.07 110.088C240.814 109.875 240.467 109.768 240.03 109.768C239.624 109.768 239.31 109.843 239.086 109.992C238.872 110.141 238.766 110.349 238.766 110.616C238.766 110.915 238.915 111.144 239.214 111.304C239.512 111.453 239.976 111.608 240.606 111.768C241.246 111.928 241.774 112.093 242.19 112.264C242.606 112.435 242.963 112.701 243.262 113.064C243.571 113.416 243.731 113.885 243.742 114.472C243.742 114.984 243.598 115.443 243.31 115.848C243.032 116.253 242.627 116.573 242.094 116.808C241.571 117.032 240.958 117.144 240.254 117.144ZM246.173 117.096C245.895 117.096 245.661 117 245.469 116.808C245.277 116.616 245.181 116.381 245.181 116.104C245.181 115.827 245.277 115.592 245.469 115.4C245.661 115.208 245.895 115.112 246.173 115.112C246.439 115.112 246.663 115.208 246.845 115.4C247.037 115.592 247.133 115.827 247.133 116.104C247.133 116.381 247.037 116.616 246.845 116.808C246.663 117 246.439 117.096 246.173 117.096ZM246.173 110.248C245.895 110.248 245.661 110.152 245.469 109.96C245.277 109.768 245.181 109.533 245.181 109.256C245.181 108.979 245.277 108.744 245.469 108.552C245.661 108.36 245.895 108.264 246.173 108.264C246.439 108.264 246.663 108.36 246.845 108.552C247.037 108.744 247.133 108.979 247.133 109.256C247.133 109.533 247.037 109.768 246.845 109.96C246.663 110.152 246.439 110.248 246.173 110.248ZM162.911 129.848V138.088C162.911 139.005 162.628 139.741 162.063 140.296C161.497 140.84 160.751 141.112 159.823 141.112C158.884 141.112 158.132 140.835 157.567 140.28C157.001 139.715 156.719 138.947 156.719 137.976H158.174C158.185 138.52 158.324 138.963 158.591 139.304C158.868 139.645 159.279 139.816 159.823 139.816C160.367 139.816 160.772 139.656 161.039 139.336C161.305 139.005 161.439 138.589 161.439 138.088V129.848H162.911ZM173.779 136.28C173.779 136.557 173.763 136.851 173.731 137.16H166.723C166.776 138.024 167.07 138.701 167.603 139.192C168.147 139.672 168.803 139.912 169.571 139.912C170.2 139.912 170.723 139.768 171.139 139.48C171.566 139.181 171.864 138.787 172.035 138.296H173.603C173.368 139.139 172.899 139.827 172.195 140.36C171.491 140.883 170.616 141.144 169.571 141.144C168.739 141.144 167.992 140.957 167.331 140.584C166.68 140.211 166.168 139.683 165.795 139C165.422 138.307 165.235 137.507 165.235 136.6C165.235 135.693 165.416 134.899 165.779 134.216C166.142 133.533 166.648 133.011 167.299 132.648C167.96 132.275 168.718 132.088 169.571 132.088C170.403 132.088 171.139 132.269 171.779 132.632C172.419 132.995 172.91 133.496 173.251 134.136C173.603 134.765 173.779 135.48 173.779 136.28ZM172.275 135.976C172.275 135.421 172.152 134.947 171.907 134.552C171.662 134.147 171.326 133.843 170.899 133.64C170.483 133.427 170.019 133.32 169.507 133.32C168.771 133.32 168.142 133.555 167.619 134.024C167.107 134.493 166.814 135.144 166.739 135.976H172.275ZM179.973 132.072C181.039 132.072 181.903 132.397 182.565 133.048C183.226 133.688 183.557 134.616 183.557 135.832V141H182.117V136.04C182.117 135.165 181.898 134.499 181.461 134.04C181.023 133.571 180.426 133.336 179.669 133.336C178.901 133.336 178.287 133.576 177.829 134.056C177.381 134.536 177.157 135.235 177.157 136.152V141H175.701V132.232H177.157V133.48C177.445 133.032 177.834 132.685 178.325 132.44C178.826 132.195 179.375 132.072 179.973 132.072ZM190.207 132.072C191.274 132.072 192.138 132.397 192.799 133.048C193.46 133.688 193.791 134.616 193.791 135.832V141H192.351V136.04C192.351 135.165 192.132 134.499 191.695 134.04C191.258 133.571 190.66 133.336 189.903 133.336C189.135 133.336 188.522 133.576 188.063 134.056C187.615 134.536 187.391 135.235 187.391 136.152V141H185.935V132.232H187.391V133.48C187.679 133.032 188.068 132.685 188.559 132.44C189.06 132.195 189.61 132.072 190.207 132.072ZM195.626 136.584C195.626 135.688 195.807 134.904 196.17 134.232C196.532 133.549 197.028 133.021 197.658 132.648C198.298 132.275 199.007 132.088 199.786 132.088C200.554 132.088 201.22 132.253 201.786 132.584C202.351 132.915 202.772 133.331 203.05 133.832V132.232H204.522V141H203.05V139.368C202.762 139.88 202.33 140.307 201.754 140.648C201.188 140.979 200.527 141.144 199.77 141.144C198.991 141.144 198.287 140.952 197.658 140.568C197.028 140.184 196.532 139.645 196.17 138.952C195.807 138.259 195.626 137.469 195.626 136.584ZM203.05 136.6C203.05 135.939 202.916 135.363 202.65 134.872C202.383 134.381 202.02 134.008 201.562 133.752C201.114 133.485 200.618 133.352 200.074 133.352C199.53 133.352 199.034 133.48 198.586 133.736C198.138 133.992 197.78 134.365 197.514 134.856C197.247 135.347 197.114 135.923 197.114 136.584C197.114 137.256 197.247 137.843 197.514 138.344C197.78 138.835 198.138 139.213 198.586 139.48C199.034 139.736 199.53 139.864 200.074 139.864C200.618 139.864 201.114 139.736 201.562 139.48C202.02 139.213 202.383 138.835 202.65 138.344C202.916 137.843 203.05 137.261 203.05 136.6ZM215.808 135.432L219.232 141H217.584L214.912 136.648L212.368 141H210.752L214.16 135.432L210.736 129.848H212.368L215.056 134.216L217.616 129.848H219.248L215.808 135.432ZM221.937 130.808C221.66 130.808 221.425 130.712 221.233 130.52C221.041 130.328 220.945 130.093 220.945 129.816C220.945 129.539 221.041 129.304 221.233 129.112C221.425 128.92 221.66 128.824 221.937 128.824C222.204 128.824 222.428 128.92 222.609 129.112C222.801 129.304 222.897 129.539 222.897 129.816C222.897 130.093 222.801 130.328 222.609 130.52C222.428 130.712 222.204 130.808 221.937 130.808ZM222.641 132.232V141H221.185V132.232H222.641ZM224.579 136.584C224.579 135.688 224.76 134.904 225.123 134.232C225.485 133.549 225.981 133.021 226.611 132.648C227.251 132.275 227.96 132.088 228.739 132.088C229.507 132.088 230.173 132.253 230.739 132.584C231.304 132.915 231.725 133.331 232.003 133.832V132.232H233.475V141H232.003V139.368C231.715 139.88 231.283 140.307 230.707 140.648C230.141 140.979 229.48 141.144 228.723 141.144C227.944 141.144 227.24 140.952 226.611 140.568C225.981 140.184 225.485 139.645 225.123 138.952C224.76 138.259 224.579 137.469 224.579 136.584ZM232.003 136.6C232.003 135.939 231.869 135.363 231.603 134.872C231.336 134.381 230.973 134.008 230.515 133.752C230.067 133.485 229.571 133.352 229.027 133.352C228.483 133.352 227.987 133.48 227.539 133.736C227.091 133.992 226.733 134.365 226.467 134.856C226.2 135.347 226.067 135.923 226.067 136.584C226.067 137.256 226.2 137.843 226.467 138.344C226.733 138.835 227.091 139.213 227.539 139.48C227.987 139.736 228.483 139.864 229.027 139.864C229.571 139.864 230.067 139.736 230.515 139.48C230.973 139.213 231.336 138.835 231.603 138.344C231.869 137.843 232.003 137.261 232.003 136.6ZM239.759 141.144C238.938 141.144 238.191 140.957 237.519 140.584C236.858 140.211 236.335 139.683 235.951 139C235.578 138.307 235.391 137.507 235.391 136.6C235.391 135.704 235.583 134.915 235.967 134.232C236.362 133.539 236.895 133.011 237.567 132.648C238.239 132.275 238.991 132.088 239.823 132.088C240.655 132.088 241.407 132.275 242.079 132.648C242.751 133.011 243.279 133.533 243.663 134.216C244.058 134.899 244.255 135.693 244.255 136.6C244.255 137.507 244.052 138.307 243.647 139C243.252 139.683 242.714 140.211 242.031 140.584C241.348 140.957 240.591 141.144 239.759 141.144ZM239.759 139.864C240.282 139.864 240.772 139.741 241.231 139.496C241.69 139.251 242.058 138.883 242.335 138.392C242.623 137.901 242.767 137.304 242.767 136.6C242.767 135.896 242.628 135.299 242.351 134.808C242.074 134.317 241.711 133.955 241.263 133.72C240.815 133.475 240.33 133.352 239.807 133.352C239.274 133.352 238.783 133.475 238.335 133.72C237.898 133.955 237.546 134.317 237.279 134.808C237.012 135.299 236.879 135.896 236.879 136.6C236.879 137.315 237.007 137.917 237.263 138.408C237.53 138.899 237.882 139.267 238.319 139.512C238.756 139.747 239.236 139.864 239.759 139.864ZM170.018 165L167.362 160.44H165.602V165H164.146V153.848H167.746C168.589 153.848 169.298 153.992 169.874 154.28C170.461 154.568 170.898 154.957 171.186 155.448C171.474 155.939 171.618 156.499 171.618 157.128C171.618 157.896 171.394 158.573 170.946 159.16C170.509 159.747 169.847 160.136 168.962 160.328L171.762 165H170.018ZM165.602 159.272H167.746C168.535 159.272 169.127 159.08 169.522 158.696C169.917 158.301 170.114 157.779 170.114 157.128C170.114 156.467 169.917 155.955 169.522 155.592C169.138 155.229 168.546 155.048 167.746 155.048H165.602V159.272ZM173.336 160.584C173.336 159.688 173.518 158.904 173.88 158.232C174.243 157.549 174.739 157.021 175.368 156.648C176.008 156.275 176.718 156.088 177.496 156.088C178.264 156.088 178.931 156.253 179.496 156.584C180.062 156.915 180.483 157.331 180.76 157.832V156.232H182.232V165H180.76V163.368C180.472 163.88 180.04 164.307 179.464 164.648C178.899 164.979 178.238 165.144 177.48 165.144C176.702 165.144 175.998 164.952 175.368 164.568C174.739 164.184 174.243 163.645 173.88 162.952C173.518 162.259 173.336 161.469 173.336 160.584ZM180.76 160.6C180.76 159.939 180.627 159.363 180.36 158.872C180.094 158.381 179.731 158.008 179.272 157.752C178.824 157.485 178.328 157.352 177.784 157.352C177.24 157.352 176.744 157.48 176.296 157.736C175.848 157.992 175.491 158.365 175.224 158.856C174.958 159.347 174.824 159.923 174.824 160.584C174.824 161.256 174.958 161.843 175.224 162.344C175.491 162.835 175.848 163.213 176.296 163.48C176.744 163.736 177.24 163.864 177.784 163.864C178.328 163.864 178.824 163.736 179.272 163.48C179.731 163.213 180.094 162.835 180.36 162.344C180.627 161.843 180.76 161.261 180.76 160.6ZM185.781 163.8H190.085V165H184.117V163.8L188.373 157.416H184.149V156.232H190.053V157.416L185.781 163.8ZM192.726 154.808C192.449 154.808 192.214 154.712 192.022 154.52C191.83 154.328 191.734 154.093 191.734 153.816C191.734 153.539 191.83 153.304 192.022 153.112C192.214 152.92 192.449 152.824 192.726 152.824C192.993 152.824 193.217 152.92 193.398 153.112C193.59 153.304 193.686 153.539 193.686 153.816C193.686 154.093 193.59 154.328 193.398 154.52C193.217 154.712 192.993 154.808 192.726 154.808ZM193.43 156.232V165H191.974V156.232H193.43ZM203.713 165.112C202.977 165.112 202.316 164.984 201.729 164.728C201.153 164.461 200.7 164.099 200.369 163.64C200.039 163.171 199.868 162.632 199.857 162.024H201.409C201.463 162.547 201.676 162.989 202.049 163.352C202.433 163.704 202.988 163.88 203.713 163.88C204.407 163.88 204.951 163.709 205.345 163.368C205.751 163.016 205.953 162.568 205.953 162.024C205.953 161.597 205.836 161.251 205.601 160.984C205.367 160.717 205.073 160.515 204.721 160.376C204.369 160.237 203.895 160.088 203.297 159.928C202.561 159.736 201.969 159.544 201.521 159.352C201.084 159.16 200.705 158.861 200.385 158.456C200.076 158.04 199.921 157.485 199.921 156.792C199.921 156.184 200.076 155.645 200.385 155.176C200.695 154.707 201.127 154.344 201.681 154.088C202.247 153.832 202.892 153.704 203.617 153.704C204.663 153.704 205.516 153.965 206.177 154.488C206.849 155.011 207.228 155.704 207.313 156.568H205.713C205.66 156.141 205.436 155.768 205.041 155.448C204.647 155.117 204.124 154.952 203.473 154.952C202.865 154.952 202.369 155.112 201.985 155.432C201.601 155.741 201.409 156.179 201.409 156.744C201.409 157.149 201.521 157.48 201.745 157.736C201.98 157.992 202.263 158.189 202.593 158.328C202.935 158.456 203.409 158.605 204.017 158.776C204.753 158.979 205.345 159.181 205.793 159.384C206.241 159.576 206.625 159.88 206.945 160.296C207.265 160.701 207.425 161.256 207.425 161.96C207.425 162.504 207.281 163.016 206.993 163.496C206.705 163.976 206.279 164.365 205.713 164.664C205.148 164.963 204.481 165.112 203.713 165.112ZM217.12 156.232L211.84 169.128H210.336L212.064 164.904L208.528 156.232H210.144L212.896 163.336L215.616 156.232H217.12ZM226.584 160.28C226.584 160.557 226.568 160.851 226.536 161.16H219.528C219.581 162.024 219.874 162.701 220.408 163.192C220.952 163.672 221.608 163.912 222.376 163.912C223.005 163.912 223.528 163.768 223.944 163.48C224.37 163.181 224.669 162.787 224.84 162.296H226.408C226.173 163.139 225.704 163.827 225 164.36C224.296 164.883 223.421 165.144 222.376 165.144C221.544 165.144 220.797 164.957 220.136 164.584C219.485 164.211 218.973 163.683 218.6 163C218.226 162.307 218.04 161.507 218.04 160.6C218.04 159.693 218.221 158.899 218.584 158.216C218.946 157.533 219.453 157.011 220.104 156.648C220.765 156.275 221.522 156.088 222.376 156.088C223.208 156.088 223.944 156.269 224.584 156.632C225.224 156.995 225.714 157.496 226.056 158.136C226.408 158.765 226.584 159.48 226.584 160.28ZM225.08 159.976C225.08 159.421 224.957 158.947 224.712 158.552C224.466 158.147 224.13 157.843 223.704 157.64C223.288 157.427 222.824 157.32 222.312 157.32C221.576 157.32 220.946 157.555 220.424 158.024C219.912 158.493 219.618 159.144 219.544 159.976H225.08ZM227.961 160.584C227.961 159.688 228.143 158.904 228.505 158.232C228.868 157.549 229.364 157.021 229.993 156.648C230.633 156.275 231.348 156.088 232.137 156.088C232.82 156.088 233.455 156.248 234.041 156.568C234.628 156.877 235.076 157.288 235.385 157.8V153.16H236.857V165H235.385V163.352C235.097 163.875 234.671 164.307 234.105 164.648C233.54 164.979 232.879 165.144 232.121 165.144C231.343 165.144 230.633 164.952 229.993 164.568C229.364 164.184 228.868 163.645 228.505 162.952C228.143 162.259 227.961 161.469 227.961 160.584ZM235.385 160.6C235.385 159.939 235.252 159.363 234.985 158.872C234.719 158.381 234.356 158.008 233.897 157.752C233.449 157.485 232.953 157.352 232.409 157.352C231.865 157.352 231.369 157.48 230.921 157.736C230.473 157.992 230.116 158.365 229.849 158.856C229.583 159.347 229.449 159.923 229.449 160.584C229.449 161.256 229.583 161.843 229.849 162.344C230.116 162.835 230.473 163.213 230.921 163.48C231.369 163.736 231.865 163.864 232.409 163.864C232.953 163.864 233.449 163.736 233.897 163.48C234.356 163.213 234.719 162.835 234.985 162.344C235.252 161.843 235.385 161.261 235.385 160.6ZM172.768 177.848L168.56 189H166.88L162.672 177.848H164.224L167.728 187.464L171.232 177.848H172.768ZM175.117 178.808C174.839 178.808 174.605 178.712 174.413 178.52C174.221 178.328 174.125 178.093 174.125 177.816C174.125 177.539 174.221 177.304 174.413 177.112C174.605 176.92 174.839 176.824 175.117 176.824C175.383 176.824 175.607 176.92 175.789 177.112C175.981 177.304 176.077 177.539 176.077 177.816C176.077 178.093 175.981 178.328 175.789 178.52C175.607 178.712 175.383 178.808 175.117 178.808ZM175.821 180.232V189H174.365V180.232H175.821ZM177.758 184.6C177.758 183.693 177.94 182.904 178.302 182.232C178.665 181.549 179.166 181.021 179.806 180.648C180.457 180.275 181.198 180.088 182.03 180.088C183.108 180.088 183.993 180.349 184.686 180.872C185.39 181.395 185.854 182.12 186.078 183.048H184.51C184.361 182.515 184.068 182.093 183.63 181.784C183.204 181.475 182.67 181.32 182.03 181.32C181.198 181.32 180.526 181.608 180.014 182.184C179.502 182.749 179.246 183.555 179.246 184.6C179.246 185.656 179.502 186.472 180.014 187.048C180.526 187.624 181.198 187.912 182.03 187.912C182.67 187.912 183.204 187.763 183.63 187.464C184.057 187.165 184.35 186.739 184.51 186.184H186.078C185.844 187.08 185.374 187.8 184.67 188.344C183.966 188.877 183.086 189.144 182.03 189.144C181.198 189.144 180.457 188.957 179.806 188.584C179.166 188.211 178.665 187.683 178.302 187C177.94 186.317 177.758 185.517 177.758 184.6ZM189.797 181.432V186.6C189.797 187.027 189.888 187.331 190.069 187.512C190.25 187.683 190.565 187.768 191.013 187.768H192.085V189H190.773C189.962 189 189.354 188.813 188.949 188.44C188.544 188.067 188.341 187.453 188.341 186.6V181.432H187.205V180.232H188.341V178.024H189.797V180.232H192.085V181.432H189.797ZM197.673 189.144C196.852 189.144 196.105 188.957 195.433 188.584C194.772 188.211 194.249 187.683 193.865 187C193.492 186.307 193.305 185.507 193.305 184.6C193.305 183.704 193.497 182.915 193.881 182.232C194.276 181.539 194.809 181.011 195.481 180.648C196.153 180.275 196.905 180.088 197.737 180.088C198.569 180.088 199.321 180.275 199.993 180.648C200.665 181.011 201.193 181.533 201.577 182.216C201.972 182.899 202.169 183.693 202.169 184.6C202.169 185.507 201.967 186.307 201.561 187C201.167 187.683 200.628 188.211 199.945 188.584C199.263 188.957 198.505 189.144 197.673 189.144ZM197.673 187.864C198.196 187.864 198.687 187.741 199.145 187.496C199.604 187.251 199.972 186.883 200.249 186.392C200.537 185.901 200.681 185.304 200.681 184.6C200.681 183.896 200.543 183.299 200.265 182.808C199.988 182.317 199.625 181.955 199.177 181.72C198.729 181.475 198.244 181.352 197.721 181.352C197.188 181.352 196.697 181.475 196.249 181.72C195.812 181.955 195.46 182.317 195.193 182.808C194.927 183.299 194.793 183.896 194.793 184.6C194.793 185.315 194.921 185.917 195.177 186.408C195.444 186.899 195.796 187.267 196.233 187.512C196.671 187.747 197.151 187.864 197.673 187.864ZM205.54 181.656C205.796 181.155 206.158 180.765 206.628 180.488C207.108 180.211 207.689 180.072 208.372 180.072V181.576H207.988C206.356 181.576 205.54 182.461 205.54 184.232V189H204.084V180.232H205.54V181.656ZM210.804 178.808C210.527 178.808 210.292 178.712 210.1 178.52C209.908 178.328 209.812 178.093 209.812 177.816C209.812 177.539 209.908 177.304 210.1 177.112C210.292 176.92 210.527 176.824 210.804 176.824C211.071 176.824 211.295 176.92 211.476 177.112C211.668 177.304 211.764 177.539 211.764 177.816C211.764 178.093 211.668 178.328 211.476 178.52C211.295 178.712 211.071 178.808 210.804 178.808ZM211.508 180.232V189H210.052V180.232H211.508ZM213.446 184.584C213.446 183.688 213.627 182.904 213.99 182.232C214.352 181.549 214.848 181.021 215.478 180.648C216.118 180.275 216.827 180.088 217.606 180.088C218.374 180.088 219.04 180.253 219.606 180.584C220.171 180.915 220.592 181.331 220.87 181.832V180.232H222.342V189H220.87V187.368C220.582 187.88 220.15 188.307 219.574 188.648C219.008 188.979 218.347 189.144 217.59 189.144C216.811 189.144 216.107 188.952 215.478 188.568C214.848 188.184 214.352 187.645 213.99 186.952C213.627 186.259 213.446 185.469 213.446 184.584ZM220.87 184.6C220.87 183.939 220.736 183.363 220.47 182.872C220.203 182.381 219.84 182.008 219.382 181.752C218.934 181.485 218.438 181.352 217.894 181.352C217.35 181.352 216.854 181.48 216.406 181.736C215.958 181.992 215.6 182.365 215.334 182.856C215.067 183.347 214.934 183.923 214.934 184.584C214.934 185.256 215.067 185.843 215.334 186.344C215.6 186.835 215.958 187.213 216.406 187.48C216.854 187.736 217.35 187.864 217.894 187.864C218.438 187.864 218.934 187.736 219.382 187.48C219.84 187.213 220.203 186.835 220.47 186.344C220.736 185.843 220.87 185.261 220.87 184.6ZM230.524 187.816H234.428V189H229.068V177.848H230.524V187.816ZM236.726 178.808C236.449 178.808 236.214 178.712 236.022 178.52C235.83 178.328 235.734 178.093 235.734 177.816C235.734 177.539 235.83 177.304 236.022 177.112C236.214 176.92 236.449 176.824 236.726 176.824C236.993 176.824 237.217 176.92 237.398 177.112C237.59 177.304 237.686 177.539 237.686 177.816C237.686 178.093 237.59 178.328 237.398 178.52C237.217 178.712 236.993 178.808 236.726 178.808ZM237.43 180.232V189H235.974V180.232H237.43ZM146.86 207.416C146.86 206.328 147.105 205.352 147.596 204.488C148.087 203.613 148.753 202.931 149.596 202.44C150.449 201.949 151.393 201.704 152.428 201.704C153.644 201.704 154.705 201.997 155.612 202.584C156.519 203.171 157.18 204.003 157.596 205.08H155.852C155.543 204.408 155.095 203.891 154.508 203.528C153.932 203.165 153.239 202.984 152.428 202.984C151.649 202.984 150.951 203.165 150.332 203.528C149.713 203.891 149.228 204.408 148.876 205.08C148.524 205.741 148.348 206.52 148.348 207.416C148.348 208.301 148.524 209.08 148.876 209.752C149.228 210.413 149.713 210.925 150.332 211.288C150.951 211.651 151.649 211.832 152.428 211.832C153.239 211.832 153.932 211.656 154.508 211.304C155.095 210.941 155.543 210.424 155.852 209.752H157.596C157.18 210.819 156.519 211.645 155.612 212.232C154.705 212.808 153.644 213.096 152.428 213.096C151.393 213.096 150.449 212.856 149.596 212.376C148.753 211.885 148.087 211.208 147.596 210.344C147.105 209.48 146.86 208.504 146.86 207.416ZM163.587 213.144C162.766 213.144 162.019 212.957 161.347 212.584C160.686 212.211 160.163 211.683 159.779 211C159.406 210.307 159.219 209.507 159.219 208.6C159.219 207.704 159.411 206.915 159.795 206.232C160.19 205.539 160.723 205.011 161.395 204.648C162.067 204.275 162.819 204.088 163.651 204.088C164.483 204.088 165.235 204.275 165.907 204.648C166.579 205.011 167.107 205.533 167.491 206.216C167.886 206.899 168.083 207.693 168.083 208.6C168.083 209.507 167.881 210.307 167.475 211C167.081 211.683 166.542 212.211 165.859 212.584C165.177 212.957 164.419 213.144 163.587 213.144ZM163.587 211.864C164.11 211.864 164.601 211.741 165.059 211.496C165.518 211.251 165.886 210.883 166.163 210.392C166.451 209.901 166.595 209.304 166.595 208.6C166.595 207.896 166.457 207.299 166.179 206.808C165.902 206.317 165.539 205.955 165.091 205.72C164.643 205.475 164.158 205.352 163.635 205.352C163.102 205.352 162.611 205.475 162.163 205.72C161.726 205.955 161.374 206.317 161.107 206.808C160.841 207.299 160.707 207.896 160.707 208.6C160.707 209.315 160.835 209.917 161.091 210.408C161.358 210.899 161.71 211.267 162.147 211.512C162.585 211.747 163.065 211.864 163.587 211.864ZM174.27 204.072C175.336 204.072 176.2 204.397 176.862 205.048C177.523 205.688 177.854 206.616 177.854 207.832V213H176.414V208.04C176.414 207.165 176.195 206.499 175.758 206.04C175.32 205.571 174.723 205.336 173.966 205.336C173.198 205.336 172.584 205.576 172.126 206.056C171.678 206.536 171.454 207.235 171.454 208.152V213H169.998V204.232H171.454V205.48C171.742 205.032 172.131 204.685 172.622 204.44C173.123 204.195 173.672 204.072 174.27 204.072ZM184.504 204.072C185.571 204.072 186.435 204.397 187.096 205.048C187.757 205.688 188.088 206.616 188.088 207.832V213H186.648V208.04C186.648 207.165 186.429 206.499 185.992 206.04C185.555 205.571 184.957 205.336 184.2 205.336C183.432 205.336 182.819 205.576 182.36 206.056C181.912 206.536 181.688 207.235 181.688 208.152V213H180.232V204.232H181.688V205.48C181.976 205.032 182.365 204.685 182.856 204.44C183.357 204.195 183.907 204.072 184.504 204.072ZM191.218 202.808C190.941 202.808 190.706 202.712 190.514 202.52C190.322 202.328 190.226 202.093 190.226 201.816C190.226 201.539 190.322 201.304 190.514 201.112C190.706 200.92 190.941 200.824 191.218 200.824C191.485 200.824 191.709 200.92 191.89 201.112C192.082 201.304 192.178 201.539 192.178 201.816C192.178 202.093 192.082 202.328 191.89 202.52C191.709 202.712 191.485 202.808 191.218 202.808ZM191.922 204.232V213H190.466V204.232H191.922ZM202.404 208.28C202.404 208.557 202.388 208.851 202.356 209.16H195.348C195.401 210.024 195.695 210.701 196.228 211.192C196.772 211.672 197.428 211.912 198.196 211.912C198.825 211.912 199.348 211.768 199.764 211.48C200.191 211.181 200.489 210.787 200.66 210.296H202.228C201.993 211.139 201.524 211.827 200.82 212.36C200.116 212.883 199.241 213.144 198.196 213.144C197.364 213.144 196.617 212.957 195.956 212.584C195.305 212.211 194.793 211.683 194.42 211C194.047 210.307 193.86 209.507 193.86 208.6C193.86 207.693 194.041 206.899 194.404 206.216C194.767 205.533 195.273 205.011 195.924 204.648C196.585 204.275 197.343 204.088 198.196 204.088C199.028 204.088 199.764 204.269 200.404 204.632C201.044 204.995 201.535 205.496 201.876 206.136C202.228 206.765 202.404 207.48 202.404 208.28ZM200.9 207.976C200.9 207.421 200.777 206.947 200.532 206.552C200.287 206.147 199.951 205.843 199.524 205.64C199.108 205.427 198.644 205.32 198.132 205.32C197.396 205.32 196.767 205.555 196.244 206.024C195.732 206.493 195.439 207.144 195.364 207.976H200.9ZM222.607 201.848L219.375 213H217.743L215.151 204.024L212.463 213L210.847 213.016L207.727 201.848H209.279L211.711 211.304L214.399 201.848H216.031L218.591 211.272L221.039 201.848H222.607ZM223.657 208.584C223.657 207.688 223.838 206.904 224.201 206.232C224.563 205.549 225.059 205.021 225.689 204.648C226.329 204.275 227.038 204.088 227.817 204.088C228.585 204.088 229.251 204.253 229.817 204.584C230.382 204.915 230.803 205.331 231.081 205.832V204.232H232.553V213H231.081V211.368C230.793 211.88 230.361 212.307 229.785 212.648C229.219 212.979 228.558 213.144 227.801 213.144C227.022 213.144 226.318 212.952 225.689 212.568C225.059 212.184 224.563 211.645 224.201 210.952C223.838 210.259 223.657 209.469 223.657 208.584ZM231.081 208.6C231.081 207.939 230.947 207.363 230.681 206.872C230.414 206.381 230.051 206.008 229.593 205.752C229.145 205.485 228.649 205.352 228.105 205.352C227.561 205.352 227.065 205.48 226.617 205.736C226.169 205.992 225.811 206.365 225.545 206.856C225.278 207.347 225.145 207.923 225.145 208.584C225.145 209.256 225.278 209.843 225.545 210.344C225.811 210.835 226.169 211.213 226.617 211.48C227.065 211.736 227.561 211.864 228.105 211.864C228.649 211.864 229.145 211.736 229.593 211.48C230.051 211.213 230.414 210.835 230.681 210.344C230.947 209.843 231.081 209.261 231.081 208.6ZM239.285 204.072C240.352 204.072 241.216 204.397 241.877 205.048C242.539 205.688 242.869 206.616 242.869 207.832V213H241.429V208.04C241.429 207.165 241.211 206.499 240.773 206.04C240.336 205.571 239.739 205.336 238.981 205.336C238.213 205.336 237.6 205.576 237.141 206.056C236.693 206.536 236.469 207.235 236.469 208.152V213H235.013V204.232H236.469V205.48C236.757 205.032 237.147 204.685 237.637 204.44C238.139 204.195 238.688 204.072 239.285 204.072ZM248.864 204.088C249.621 204.088 250.282 204.253 250.848 204.584C251.424 204.915 251.85 205.331 252.128 205.832V204.232H253.6V213.192C253.6 213.992 253.429 214.701 253.088 215.32C252.746 215.949 252.256 216.44 251.616 216.792C250.986 217.144 250.25 217.32 249.408 217.32C248.256 217.32 247.296 217.048 246.528 216.504C245.76 215.96 245.306 215.219 245.168 214.28H246.608C246.768 214.813 247.098 215.24 247.6 215.56C248.101 215.891 248.704 216.056 249.408 216.056C250.208 216.056 250.858 215.805 251.36 215.304C251.872 214.803 252.128 214.099 252.128 213.192V211.352C251.84 211.864 251.413 212.291 250.848 212.632C250.282 212.973 249.621 213.144 248.864 213.144C248.085 213.144 247.376 212.952 246.736 212.568C246.106 212.184 245.61 211.645 245.248 210.952C244.885 210.259 244.704 209.469 244.704 208.584C244.704 207.688 244.885 206.904 245.248 206.232C245.61 205.549 246.106 205.021 246.736 204.648C247.376 204.275 248.085 204.088 248.864 204.088ZM252.128 208.6C252.128 207.939 251.994 207.363 251.728 206.872C251.461 206.381 251.098 206.008 250.64 205.752C250.192 205.485 249.696 205.352 249.152 205.352C248.608 205.352 248.112 205.48 247.664 205.736C247.216 205.992 246.858 206.365 246.592 206.856C246.325 207.347 246.192 207.923 246.192 208.584C246.192 209.256 246.325 209.843 246.592 210.344C246.858 210.835 247.216 211.213 247.664 211.48C248.112 211.736 248.608 211.864 249.152 211.864C249.696 211.864 250.192 211.736 250.64 211.48C251.098 211.213 251.461 210.835 251.728 210.344C251.994 209.843 252.128 209.261 252.128 208.6Z" fill="#AFF1EA"/>
</svg>
