<svg width="142" height="44" viewBox="0 0 142 44" fill="none" xmlns="http://www.w3.org/2000/svg">
<rect width="142" height="33" rx="16.5" fill="#E2E2E2"/>
<path d="M70.3343 43.5835L77.552 31.896H63.1166L70.3343 43.5835Z" fill="#E2E2E2"/>
<path d="M18.3128 21H17.3048V12.334L15.5128 13.86L14.8968 13.16L17.4168 11.088H18.3128V21ZM30.1019 18.004H25.3419V17.206H30.1019V18.004ZM36.3513 21H35.3433V11.088H36.3513V21ZM39.7781 14.448C39.7967 14.6253 39.8107 14.8213 39.8201 15.036C39.8294 15.2507 39.8341 15.428 39.8341 15.568H39.8621C40.0487 15.1853 40.3521 14.8773 40.7721 14.644C41.1921 14.4013 41.6354 14.28 42.1021 14.28C42.9327 14.28 43.5534 14.5273 43.9641 15.022C44.3841 15.5167 44.5941 16.17 44.5941 16.982V21H43.6421V17.374C43.6421 17.0287 43.6141 16.716 43.5581 16.436C43.5021 16.156 43.4041 15.918 43.2641 15.722C43.1334 15.5167 42.9514 15.358 42.7181 15.246C42.4941 15.134 42.2094 15.078 41.8641 15.078C41.6121 15.078 41.3647 15.1293 41.1221 15.232C40.8887 15.3347 40.6787 15.4933 40.4921 15.708C40.3054 15.9133 40.1561 16.1793 40.0441 16.506C39.9321 16.8233 39.8761 17.2013 39.8761 17.64V21H38.9241V15.89C38.9241 15.7127 38.9194 15.484 38.9101 15.204C38.9007 14.924 38.8867 14.672 38.8681 14.448H39.7781ZM50.0128 15.246H48.1648V19.068C48.1648 19.3107 48.1882 19.5113 48.2348 19.67C48.2815 19.8287 48.3468 19.9547 48.4308 20.048C48.5242 20.132 48.6315 20.1927 48.7528 20.23C48.8742 20.258 49.0048 20.272 49.1448 20.272C49.2755 20.272 49.4108 20.2533 49.5508 20.216C49.7002 20.1787 49.8402 20.1273 49.9708 20.062L50.0128 20.888C49.8448 20.9533 49.6675 21 49.4808 21.028C49.3035 21.0653 49.1075 21.084 48.8928 21.084C48.7155 21.084 48.5288 21.0607 48.3328 21.014C48.1368 20.9673 47.9548 20.8787 47.7868 20.748C47.6188 20.6173 47.4788 20.44 47.3668 20.216C47.2642 19.992 47.2128 19.698 47.2128 19.334V15.246H45.8548V14.448H47.2128V12.6H48.1648V14.448H50.0128V15.246ZM51.5022 15.89C51.5022 15.7127 51.4975 15.484 51.4882 15.204C51.4789 14.924 51.4649 14.672 51.4462 14.448H52.3562C52.3749 14.6253 52.3889 14.8213 52.3982 15.036C52.4075 15.2507 52.4122 15.428 52.4122 15.568H52.4402C52.6269 15.1853 52.9069 14.8773 53.2802 14.644C53.6535 14.4013 54.0735 14.28 54.5402 14.28C54.6615 14.28 54.7689 14.2847 54.8622 14.294C54.9649 14.3033 55.0675 14.322 55.1702 14.35L55.0442 15.246C54.9882 15.2273 54.8949 15.2087 54.7642 15.19C54.6335 15.1713 54.5029 15.162 54.3722 15.162C54.1202 15.162 53.8775 15.2087 53.6442 15.302C53.4109 15.3953 53.2055 15.5447 53.0282 15.75C52.8602 15.946 52.7202 16.2027 52.6082 16.52C52.5055 16.828 52.4542 17.2013 52.4542 17.64V21H51.5022V15.89ZM62.811 17.724C62.811 18.2187 62.7223 18.676 62.545 19.096C62.377 19.516 62.139 19.88 61.831 20.188C61.523 20.496 61.1543 20.7387 60.725 20.916C60.2957 21.084 59.8243 21.168 59.311 21.168C58.807 21.168 58.3403 21.084 57.911 20.916C57.4817 20.7387 57.113 20.496 56.805 20.188C56.497 19.88 56.2543 19.516 56.077 19.096C55.909 18.676 55.825 18.2187 55.825 17.724C55.825 17.2293 55.909 16.772 56.077 16.352C56.2543 15.932 56.497 15.568 56.805 15.26C57.113 14.952 57.4817 14.714 57.911 14.546C58.3403 14.3687 58.807 14.28 59.311 14.28C59.8243 14.28 60.2957 14.3687 60.725 14.546C61.1543 14.714 61.523 14.952 61.831 15.26C62.139 15.568 62.377 15.932 62.545 16.352C62.7223 16.772 62.811 17.2293 62.811 17.724ZM61.803 17.724C61.803 17.36 61.7423 17.0193 61.621 16.702C61.509 16.3753 61.3457 16.0953 61.131 15.862C60.9163 15.6193 60.655 15.428 60.347 15.288C60.039 15.148 59.6937 15.078 59.311 15.078C58.9283 15.078 58.583 15.148 58.275 15.288C57.9763 15.428 57.7197 15.6193 57.505 15.862C57.2903 16.0953 57.1223 16.3753 57.001 16.702C56.889 17.0193 56.833 17.36 56.833 17.724C56.833 18.088 56.889 18.4333 57.001 18.76C57.1223 19.0773 57.2903 19.3573 57.505 19.6C57.7197 19.8333 57.9763 20.02 58.275 20.16C58.583 20.2907 58.9283 20.356 59.311 20.356C59.6937 20.356 60.039 20.2907 60.347 20.16C60.655 20.02 60.9163 19.8333 61.131 19.6C61.3457 19.3573 61.509 19.0773 61.621 18.76C61.7423 18.4333 61.803 18.088 61.803 17.724ZM71.3136 15.246H69.4656V19.068C69.4656 19.3107 69.4889 19.5113 69.5356 19.67C69.5823 19.8287 69.6476 19.9547 69.7316 20.048C69.8249 20.132 69.9323 20.1927 70.0536 20.23C70.1749 20.258 70.3056 20.272 70.4456 20.272C70.5763 20.272 70.7116 20.2533 70.8516 20.216C71.0009 20.1787 71.1409 20.1273 71.2716 20.062L71.3136 20.888C71.1456 20.9533 70.9683 21 70.7816 21.028C70.6043 21.0653 70.4083 21.084 70.1936 21.084C70.0163 21.084 69.8296 21.0607 69.6336 21.014C69.4376 20.9673 69.2556 20.8787 69.0876 20.748C68.9196 20.6173 68.7796 20.44 68.6676 20.216C68.5649 19.992 68.5136 19.698 68.5136 19.334V15.246H67.1556V14.448H68.5136V12.6H69.4656V14.448H71.3136V15.246ZM79.313 17.724C79.313 18.2187 79.2243 18.676 79.047 19.096C78.879 19.516 78.641 19.88 78.333 20.188C78.025 20.496 77.6563 20.7387 77.227 20.916C76.7976 21.084 76.3263 21.168 75.813 21.168C75.309 21.168 74.8423 21.084 74.413 20.916C73.9836 20.7387 73.615 20.496 73.307 20.188C72.999 19.88 72.7563 19.516 72.579 19.096C72.411 18.676 72.327 18.2187 72.327 17.724C72.327 17.2293 72.411 16.772 72.579 16.352C72.7563 15.932 72.999 15.568 73.307 15.26C73.615 14.952 73.9836 14.714 74.413 14.546C74.8423 14.3687 75.309 14.28 75.813 14.28C76.3263 14.28 76.7976 14.3687 77.227 14.546C77.6563 14.714 78.025 14.952 78.333 15.26C78.641 15.568 78.879 15.932 79.047 16.352C79.2243 16.772 79.313 17.2293 79.313 17.724ZM78.305 17.724C78.305 17.36 78.2443 17.0193 78.123 16.702C78.011 16.3753 77.8476 16.0953 77.633 15.862C77.4183 15.6193 77.157 15.428 76.849 15.288C76.541 15.148 76.1956 15.078 75.813 15.078C75.4303 15.078 75.085 15.148 74.777 15.288C74.4783 15.428 74.2216 15.6193 74.007 15.862C73.7923 16.0953 73.6243 16.3753 73.503 16.702C73.391 17.0193 73.335 17.36 73.335 17.724C73.335 18.088 73.391 18.4333 73.503 18.76C73.6243 19.0773 73.7923 19.3573 74.007 19.6C74.2216 19.8333 74.4783 20.02 74.777 20.16C75.085 20.2907 75.4303 20.356 75.813 20.356C76.1956 20.356 76.541 20.2907 76.849 20.16C77.157 20.02 77.4183 19.8333 77.633 19.6C77.8476 19.3573 78.011 19.0773 78.123 18.76C78.2443 18.4333 78.305 18.088 78.305 17.724ZM89.7196 12.684C89.5049 12.3853 89.2296 12.1473 88.8936 11.97C88.5576 11.7833 88.1516 11.69 87.6756 11.69C87.4329 11.69 87.1856 11.7273 86.9336 11.802C86.6816 11.8767 86.4529 11.9933 86.2476 12.152C86.0422 12.3013 85.8742 12.4927 85.7436 12.726C85.6222 12.9593 85.5616 13.2347 85.5616 13.552C85.5616 13.8693 85.6222 14.1307 85.7436 14.336C85.8649 14.5413 86.0236 14.7187 86.2196 14.868C86.4249 15.008 86.6536 15.1247 86.9056 15.218C87.1669 15.3113 87.4376 15.4047 87.7176 15.498C88.0629 15.61 88.4082 15.7313 88.7536 15.862C89.1082 15.9927 89.4256 16.1653 89.7056 16.38C89.9856 16.5853 90.2142 16.8513 90.3916 17.178C90.5689 17.4953 90.6576 17.9013 90.6576 18.396C90.6576 18.8907 90.5596 19.32 90.3636 19.684C90.1769 20.0387 89.9296 20.3327 89.6216 20.566C89.3229 20.7993 88.9776 20.972 88.5856 21.084C88.2029 21.196 87.8156 21.252 87.4236 21.252C87.1249 21.252 86.8262 21.2193 86.5276 21.154C86.2289 21.098 85.9442 21.0093 85.6736 20.888C85.4029 20.7667 85.1509 20.6127 84.9176 20.426C84.6842 20.2393 84.4789 20.0247 84.3016 19.782L85.1696 19.138C85.3842 19.4927 85.6829 19.7913 86.0656 20.034C86.4576 20.2673 86.9149 20.384 87.4376 20.384C87.6896 20.384 87.9462 20.3467 88.2076 20.272C88.4689 20.188 88.7022 20.0667 88.9076 19.908C89.1222 19.74 89.2949 19.5393 89.4256 19.306C89.5656 19.0633 89.6356 18.7833 89.6356 18.466C89.6356 18.1207 89.5656 17.836 89.4256 17.612C89.2949 17.3787 89.1176 17.1873 88.8936 17.038C88.6696 16.8793 88.4129 16.7487 88.1236 16.646C87.8342 16.5433 87.5309 16.4407 87.2136 16.338C86.8869 16.2353 86.5649 16.1187 86.2476 15.988C85.9302 15.8573 85.6456 15.6893 85.3936 15.484C85.1416 15.2693 84.9362 15.008 84.7776 14.7C84.6282 14.392 84.5536 14.014 84.5536 13.566C84.5536 13.09 84.6469 12.6793 84.8336 12.334C85.0296 11.9887 85.2816 11.704 85.5896 11.48C85.8976 11.256 86.2382 11.0927 86.6116 10.99C86.9849 10.8873 87.3536 10.836 87.7176 10.836C88.3896 10.836 88.9636 10.9573 89.4396 11.2C89.9156 11.4333 90.2749 11.7133 90.5176 12.04L89.7196 12.684ZM95.6359 15.246H93.7879V19.068C93.7879 19.3107 93.8112 19.5113 93.8579 19.67C93.9045 19.8287 93.9699 19.9547 94.0539 20.048C94.1472 20.132 94.2545 20.1927 94.3759 20.23C94.4972 20.258 94.6279 20.272 94.7679 20.272C94.8985 20.272 95.0339 20.2533 95.1739 20.216C95.3232 20.1787 95.4632 20.1273 95.5939 20.062L95.6359 20.888C95.4679 20.9533 95.2905 21 95.1039 21.028C94.9265 21.0653 94.7305 21.084 94.5159 21.084C94.3385 21.084 94.1519 21.0607 93.9559 21.014C93.7599 20.9673 93.5779 20.8787 93.4099 20.748C93.2419 20.6173 93.1019 20.44 92.9899 20.216C92.8872 19.992 92.8359 19.698 92.8359 19.334V15.246H91.4779V14.448H92.8359V12.6H93.7879V14.448H95.6359V15.246ZM103.635 17.724C103.635 18.2187 103.547 18.676 103.369 19.096C103.201 19.516 102.963 19.88 102.655 20.188C102.347 20.496 101.979 20.7387 101.549 20.916C101.12 21.084 100.649 21.168 100.135 21.168C99.6312 21.168 99.1646 21.084 98.7352 20.916C98.3059 20.7387 97.9372 20.496 97.6292 20.188C97.3212 19.88 97.0786 19.516 96.9012 19.096C96.7332 18.676 96.6492 18.2187 96.6492 17.724C96.6492 17.2293 96.7332 16.772 96.9012 16.352C97.0786 15.932 97.3212 15.568 97.6292 15.26C97.9372 14.952 98.3059 14.714 98.7352 14.546C99.1646 14.3687 99.6312 14.28 100.135 14.28C100.649 14.28 101.12 14.3687 101.549 14.546C101.979 14.714 102.347 14.952 102.655 15.26C102.963 15.568 103.201 15.932 103.369 16.352C103.547 16.772 103.635 17.2293 103.635 17.724ZM102.627 17.724C102.627 17.36 102.567 17.0193 102.445 16.702C102.333 16.3753 102.17 16.0953 101.955 15.862C101.741 15.6193 101.479 15.428 101.171 15.288C100.863 15.148 100.518 15.078 100.135 15.078C99.7526 15.078 99.4072 15.148 99.0992 15.288C98.8006 15.428 98.5439 15.6193 98.3292 15.862C98.1146 16.0953 97.9466 16.3753 97.8252 16.702C97.7132 17.0193 97.6572 17.36 97.6572 17.724C97.6572 18.088 97.7132 18.4333 97.8252 18.76C97.9466 19.0773 98.1146 19.3573 98.3292 19.6C98.5439 19.8333 98.8006 20.02 99.0992 20.16C99.4072 20.2907 99.7526 20.356 100.135 20.356C100.518 20.356 100.863 20.2907 101.171 20.16C101.479 20.02 101.741 19.8333 101.955 19.6C102.17 19.3573 102.333 19.0773 102.445 18.76C102.567 18.4333 102.627 18.088 102.627 17.724ZM110.402 15.946C110.243 15.694 110.01 15.4887 109.702 15.33C109.403 15.162 109.076 15.078 108.722 15.078C108.339 15.078 107.994 15.148 107.686 15.288C107.378 15.4187 107.112 15.6053 106.888 15.848C106.673 16.0813 106.505 16.3613 106.384 16.688C106.272 17.0053 106.216 17.3507 106.216 17.724C106.216 18.0973 106.272 18.4427 106.384 18.76C106.505 19.0773 106.673 19.3573 106.888 19.6C107.102 19.8333 107.364 20.02 107.672 20.16C107.98 20.2907 108.325 20.356 108.708 20.356C109.128 20.356 109.482 20.2767 109.772 20.118C110.061 19.9593 110.299 19.754 110.486 19.502L111.2 20.034C110.92 20.3793 110.574 20.6547 110.164 20.86C109.762 21.0653 109.277 21.168 108.708 21.168C108.176 21.168 107.695 21.084 107.266 20.916C106.836 20.7387 106.468 20.496 106.16 20.188C105.861 19.88 105.628 19.516 105.46 19.096C105.292 18.676 105.208 18.2187 105.208 17.724C105.208 17.2293 105.292 16.772 105.46 16.352C105.628 15.932 105.861 15.568 106.16 15.26C106.468 14.952 106.836 14.714 107.266 14.546C107.695 14.3687 108.176 14.28 108.708 14.28C109.146 14.28 109.59 14.378 110.038 14.574C110.495 14.7607 110.864 15.0407 111.144 15.414L110.402 15.946ZM113.664 17.402H113.706L116.73 14.448H118.102L114.798 17.444L118.438 21H117.038L113.706 17.556H113.664V21H112.712V10.416H113.664V17.402ZM123.225 16.002C123.085 15.7313 122.87 15.512 122.581 15.344C122.301 15.1667 121.979 15.078 121.615 15.078C121.447 15.078 121.279 15.0967 121.111 15.134C120.943 15.1713 120.793 15.232 120.663 15.316C120.532 15.4 120.425 15.5073 120.341 15.638C120.266 15.7687 120.229 15.9227 120.229 16.1C120.229 16.408 120.355 16.646 120.607 16.814C120.859 16.9727 121.255 17.108 121.797 17.22C122.571 17.3787 123.141 17.612 123.505 17.92C123.878 18.2187 124.065 18.6247 124.065 19.138C124.065 19.5113 123.99 19.8287 123.841 20.09C123.701 20.342 123.514 20.552 123.281 20.72C123.047 20.8787 122.781 20.9907 122.483 21.056C122.193 21.1307 121.899 21.168 121.601 21.168C121.106 21.168 120.625 21.0653 120.159 20.86C119.692 20.6547 119.309 20.3327 119.011 19.894L119.767 19.334C119.935 19.6233 120.182 19.866 120.509 20.062C120.835 20.258 121.195 20.356 121.587 20.356C121.792 20.356 121.988 20.3373 122.175 20.3C122.361 20.2627 122.525 20.1973 122.665 20.104C122.805 20.0107 122.917 19.894 123.001 19.754C123.085 19.6047 123.127 19.4227 123.127 19.208C123.127 18.8627 122.959 18.606 122.623 18.438C122.296 18.2607 121.82 18.0973 121.195 17.948C120.999 17.9013 120.789 17.8453 120.565 17.78C120.35 17.7053 120.149 17.6027 119.963 17.472C119.776 17.332 119.622 17.1593 119.501 16.954C119.379 16.7487 119.319 16.492 119.319 16.184C119.319 15.848 119.384 15.5633 119.515 15.33C119.645 15.0873 119.818 14.8913 120.033 14.742C120.257 14.5833 120.509 14.4667 120.789 14.392C121.069 14.3173 121.358 14.28 121.657 14.28C122.114 14.28 122.557 14.3827 122.987 14.588C123.416 14.7933 123.738 15.0827 123.953 15.456L123.225 16.002Z" fill="#2A4661"/>
</svg>
