<svg width="108" height="44" viewBox="0 0 108 44" fill="none" xmlns="http://www.w3.org/2000/svg">
<rect width="108" height="33" rx="16.5" fill="#E2E2E2"/>
<path d="M52.3343 43.5835L59.552 31.896H45.1166L52.3343 43.5835Z" fill="#E2E2E2"/>
<path d="M16.8733 21H15.8653V12.334L14.0733 13.86L13.4573 13.16L15.9773 11.088H16.8733V21ZM24.0424 10.836C24.6584 10.836 25.1718 10.99 25.5824 11.298C26.0024 11.5967 26.3384 11.9933 26.5904 12.488C26.8424 12.9733 27.0198 13.5287 27.1224 14.154C27.2344 14.7793 27.2904 15.414 27.2904 16.058C27.2904 16.702 27.2344 17.3367 27.1224 17.962C27.0198 18.578 26.8424 19.1333 26.5904 19.628C26.3384 20.1133 26.0024 20.5053 25.5824 20.804C25.1718 21.1027 24.6584 21.252 24.0424 21.252C23.4171 21.252 22.8944 21.1027 22.4744 20.804C22.0638 20.5053 21.7324 20.1133 21.4804 19.628C21.2284 19.1333 21.0511 18.578 20.9484 17.962C20.8458 17.3367 20.7944 16.702 20.7944 16.058C20.7944 15.414 20.8458 14.7793 20.9484 14.154C21.0511 13.5287 21.2284 12.9733 21.4804 12.488C21.7324 11.9933 22.0638 11.5967 22.4744 11.298C22.8944 10.99 23.4171 10.836 24.0424 10.836ZM24.0424 11.69C23.6038 11.69 23.2398 11.8253 22.9504 12.096C22.6611 12.3667 22.4324 12.712 22.2644 13.132C22.0964 13.552 21.9798 14.0233 21.9144 14.546C21.8491 15.0593 21.8164 15.5633 21.8164 16.058C21.8164 16.5527 21.8491 17.0567 21.9144 17.57C21.9798 18.0833 22.0964 18.55 22.2644 18.97C22.4324 19.3807 22.6611 19.7213 22.9504 19.992C23.2398 20.2533 23.6038 20.384 24.0424 20.384C24.4718 20.384 24.8311 20.2533 25.1204 19.992C25.4098 19.7213 25.6384 19.3807 25.8064 18.97C25.9744 18.55 26.0911 18.0833 26.1564 17.57C26.2311 17.0567 26.2684 16.5527 26.2684 16.058C26.2684 15.5633 26.2311 15.0593 26.1564 14.546C26.0911 14.0233 25.9744 13.552 25.8064 13.132C25.6384 12.712 25.4098 12.3667 25.1204 12.096C24.8311 11.8253 24.4718 11.69 24.0424 11.69ZM36.7835 18.004H32.0235V17.206H36.7835V18.004ZM43.033 21H42.025V11.088H44.937C45.4223 11.088 45.8703 11.1347 46.281 11.228C46.701 11.3213 47.0603 11.4753 47.359 11.69C47.667 11.8953 47.905 12.166 48.073 12.502C48.241 12.838 48.325 13.2487 48.325 13.734C48.325 14.098 48.2597 14.4293 48.129 14.728C47.9983 15.0267 47.821 15.288 47.597 15.512C47.373 15.7267 47.107 15.8993 46.799 16.03C46.491 16.1607 46.155 16.2447 45.791 16.282L48.689 21H47.457L44.713 16.366H43.033V21ZM43.033 15.498H44.783C45.595 15.498 46.2203 15.3533 46.659 15.064C47.0977 14.7653 47.317 14.322 47.317 13.734C47.317 13.4073 47.2563 13.132 47.135 12.908C47.0137 12.684 46.8457 12.502 46.631 12.362C46.4163 12.222 46.155 12.1193 45.847 12.054C45.539 11.9887 45.1983 11.956 44.825 11.956H43.033V15.498ZM55.1838 17.22C55.1558 16.604 54.9551 16.0953 54.5818 15.694C54.2178 15.2833 53.6951 15.078 53.0138 15.078C52.6964 15.078 52.4024 15.1387 52.1318 15.26C51.8611 15.372 51.6231 15.5307 51.4178 15.736C51.2124 15.932 51.0491 16.1607 50.9278 16.422C50.8064 16.674 50.7364 16.94 50.7178 17.22H55.1838ZM56.1498 17.528C56.1498 17.5933 56.1498 17.6633 56.1498 17.738C56.1498 17.8127 56.1451 17.892 56.1358 17.976H50.7038C50.7131 18.3027 50.7784 18.6107 50.8998 18.9C51.0211 19.1893 51.1891 19.4413 51.4038 19.656C51.6184 19.8707 51.8704 20.0433 52.1598 20.174C52.4491 20.2953 52.7618 20.356 53.0978 20.356C53.5924 20.356 54.0171 20.244 54.3718 20.02C54.7358 19.7867 55.0111 19.5207 55.1978 19.222L55.9118 19.782C55.5198 20.2767 55.0858 20.6313 54.6098 20.846C54.1431 21.0607 53.6391 21.168 53.0978 21.168C52.6124 21.168 52.1598 21.084 51.7398 20.916C51.3291 20.7387 50.9744 20.496 50.6758 20.188C50.3771 19.88 50.1391 19.516 49.9618 19.096C49.7938 18.676 49.7098 18.2187 49.7098 17.724C49.7098 17.2293 49.7938 16.772 49.9618 16.352C50.1298 15.932 50.3631 15.568 50.6618 15.26C50.9604 14.952 51.3104 14.714 51.7118 14.546C52.1131 14.3687 52.5471 14.28 53.0138 14.28C53.5271 14.28 53.9798 14.3687 54.3718 14.546C54.7638 14.714 55.0904 14.9473 55.3518 15.246C55.6131 15.5353 55.8091 15.876 55.9398 16.268C56.0798 16.66 56.1498 17.08 56.1498 17.528ZM62.2455 16.772C62.2455 16.2027 62.0961 15.778 61.7975 15.498C61.4988 15.218 61.0648 15.078 60.4955 15.078C60.1035 15.078 59.7395 15.148 59.4035 15.288C59.0675 15.428 58.7828 15.6147 58.5495 15.848L58.0175 15.218C58.2881 14.9473 58.6428 14.7233 59.0815 14.546C59.5295 14.3687 60.0335 14.28 60.5935 14.28C60.9481 14.28 61.2795 14.3313 61.5875 14.434C61.8955 14.5273 62.1661 14.672 62.3995 14.868C62.6328 15.064 62.8148 15.3113 62.9455 15.61C63.0761 15.9087 63.1415 16.2587 63.1415 16.66V19.53C63.1415 19.782 63.1508 20.0433 63.1695 20.314C63.1881 20.5847 63.2161 20.8133 63.2535 21H62.3995C62.3715 20.8413 62.3481 20.6687 62.3295 20.482C62.3108 20.2953 62.3015 20.1133 62.3015 19.936H62.2735C61.9748 20.3747 61.6341 20.692 61.2515 20.888C60.8781 21.0747 60.4255 21.168 59.8935 21.168C59.6415 21.168 59.3801 21.1307 59.1095 21.056C58.8481 20.9907 58.6055 20.8787 58.3815 20.72C58.1668 20.5613 57.9848 20.356 57.8355 20.104C57.6955 19.852 57.6255 19.544 57.6255 19.18C57.6255 18.676 57.7515 18.2793 58.0035 17.99C58.2648 17.6913 58.6101 17.472 59.0395 17.332C59.4688 17.1827 59.9588 17.0893 60.5095 17.052C61.0695 17.0053 61.6481 16.982 62.2455 16.982V16.772ZM61.9655 17.724C61.5735 17.724 61.1768 17.7427 60.7755 17.78C60.3835 17.808 60.0241 17.8733 59.6975 17.976C59.3801 18.0693 59.1188 18.2093 58.9135 18.396C58.7081 18.5827 58.6055 18.83 58.6055 19.138C58.6055 19.3713 58.6475 19.5673 58.7315 19.726C58.8248 19.8847 58.9461 20.0153 59.0955 20.118C59.2448 20.2113 59.4081 20.2813 59.5855 20.328C59.7721 20.3653 59.9588 20.384 60.1455 20.384C60.4815 20.384 60.7801 20.328 61.0415 20.216C61.3028 20.0947 61.5221 19.936 61.6995 19.74C61.8768 19.5347 62.0121 19.3013 62.1055 19.04C62.1988 18.7787 62.2455 18.5033 62.2455 18.214V17.724H61.9655ZM66.574 21H65.622V10.416H66.574V21ZM73.6853 20.104H78.3053V21H72.6773V11.088H73.6853V20.104ZM80.724 21H79.772V14.448H80.724V21ZM80.92 11.928C80.92 12.124 80.85 12.2873 80.71 12.418C80.57 12.5393 80.416 12.6 80.248 12.6C80.08 12.6 79.926 12.5393 79.786 12.418C79.646 12.2873 79.576 12.124 79.576 11.928C79.576 11.732 79.646 11.5733 79.786 11.452C79.926 11.3213 80.08 11.256 80.248 11.256C80.416 11.256 80.57 11.3213 80.71 11.452C80.85 11.5733 80.92 11.732 80.92 11.928ZM86.03 15.246H84.49V21H83.538V15.246H82.166V14.448H83.538V12.656C83.538 11.9093 83.72 11.3213 84.084 10.892C84.448 10.4627 85.008 10.248 85.764 10.248C85.8854 10.248 86.016 10.2573 86.156 10.276C86.296 10.2853 86.4267 10.3087 86.548 10.346L86.38 11.186C86.2774 11.158 86.1747 11.1347 86.072 11.116C85.9694 11.0973 85.8527 11.088 85.722 11.088C85.47 11.088 85.26 11.13 85.092 11.214C84.9334 11.298 84.8074 11.4193 84.714 11.578C84.63 11.7273 84.5694 11.9047 84.532 12.11C84.504 12.3153 84.49 12.5347 84.49 12.768V14.448H86.03V15.246ZM92.385 17.22C92.357 16.604 92.1563 16.0953 91.783 15.694C91.419 15.2833 90.8963 15.078 90.215 15.078C89.8976 15.078 89.6036 15.1387 89.333 15.26C89.0623 15.372 88.8243 15.5307 88.619 15.736C88.4136 15.932 88.2503 16.1607 88.129 16.422C88.0076 16.674 87.9376 16.94 87.919 17.22H92.385ZM93.351 17.528C93.351 17.5933 93.351 17.6633 93.351 17.738C93.351 17.8127 93.3463 17.892 93.337 17.976H87.905C87.9143 18.3027 87.9796 18.6107 88.101 18.9C88.2223 19.1893 88.3903 19.4413 88.605 19.656C88.8196 19.8707 89.0716 20.0433 89.361 20.174C89.6503 20.2953 89.963 20.356 90.299 20.356C90.7936 20.356 91.2183 20.244 91.573 20.02C91.937 19.7867 92.2123 19.5207 92.399 19.222L93.113 19.782C92.721 20.2767 92.287 20.6313 91.811 20.846C91.3443 21.0607 90.8403 21.168 90.299 21.168C89.8136 21.168 89.361 21.084 88.941 20.916C88.5303 20.7387 88.1756 20.496 87.877 20.188C87.5783 19.88 87.3403 19.516 87.163 19.096C86.995 18.676 86.911 18.2187 86.911 17.724C86.911 17.2293 86.995 16.772 87.163 16.352C87.331 15.932 87.5643 15.568 87.863 15.26C88.1616 14.952 88.5116 14.714 88.913 14.546C89.3143 14.3687 89.7483 14.28 90.215 14.28C90.7283 14.28 91.181 14.3687 91.573 14.546C91.965 14.714 92.2916 14.9473 92.553 15.246C92.8143 15.5353 93.0103 15.876 93.141 16.268C93.281 16.66 93.351 17.08 93.351 17.528Z" fill="#2A4661"/>
</svg>
