<svg width="114" height="44" viewBox="0 0 114 44" fill="none" xmlns="http://www.w3.org/2000/svg">
<rect x="1" width="92" height="33" rx="16.5" fill="#F8F2D2"/>
<path d="M48.1402 43.5835L53.6794 31.896H42.6011L48.1402 43.5835Z" fill="#F8F2D2"/>
<path d="M29.7252 16.6499C29.7289 19.2625 28.7188 21.7746 26.9077 23.6574C25.0248 25.4686 22.5127 26.4786 19.9002 26.4749C14.3082 26.4749 9.77516 21.9419 9.77516 16.3499C9.77145 13.7374 10.7815 11.2253 12.5927 9.34241C14.4755 7.53125 16.9876 6.52121 19.6002 6.52491C25.1922 6.52491 29.7252 11.0579 29.7252 16.6499Z" fill="#FFCD34"/>
<path d="M19.6003 26.7749C25.1922 26.7749 29.7253 22.2418 29.7253 16.6499C29.7253 11.058 25.1922 6.5249 19.6003 6.5249C14.0085 6.5249 9.47534 11.058 9.47534 16.6499C9.47534 22.2418 14.0085 26.7749 19.6003 26.7749Z" fill="#FEE05B"/>
<path d="M19.6001 24.5249C23.9493 24.5249 27.4751 20.9991 27.4751 16.6499C27.4751 12.3007 23.9493 8.7749 19.6001 8.7749C15.2509 8.7749 11.7251 12.3007 11.7251 16.6499C11.7251 20.9991 15.2509 24.5249 19.6001 24.5249Z" fill="#FFCD34"/>
<path d="M27.475 16.65C27.4751 18.1989 27.0185 19.7134 26.1625 21.0042C25.3064 22.295 24.0889 23.3049 22.662 23.9075C24.2932 22.8205 25.4605 21.1644 25.9359 19.2627C26.4113 17.361 26.1605 15.3505 25.2326 13.6238C24.3047 11.8971 22.7664 10.5785 20.9182 9.92546C19.07 9.27244 17.0447 9.33199 15.238 10.0925C16.4244 9.30362 17.8025 8.85132 19.2256 8.78376C20.6486 8.71621 22.0634 9.03591 23.3191 9.70883C24.5749 10.3818 25.6246 11.3827 26.3564 12.605C27.0883 13.8273 27.4749 15.2253 27.475 16.65V16.65Z" fill="#E6BA24"/>
<path d="M26.175 17.35C26.1758 18.648 25.8554 19.926 25.2425 21.0702C24.6295 22.2143 23.7431 23.189 22.662 23.9075C20.8552 24.6695 18.829 24.7301 16.9799 24.0774C15.1307 23.4248 13.5915 22.1058 12.6632 20.3784C11.735 18.6511 11.4844 16.6396 11.9606 14.7373C12.4368 12.835 13.6055 11.1788 15.238 10.0925C16.4355 9.58833 17.739 9.38811 19.0326 9.50965C20.3262 9.63119 21.5696 10.0707 22.6522 10.7891C23.7348 11.5075 24.623 12.4824 25.2376 13.6271C25.8522 14.7718 26.1743 16.0507 26.175 17.35V17.35Z" fill="#F9C42E"/>
<path d="M19.5 24.5249C23.8492 24.5249 27.375 20.9991 27.375 16.6499C27.375 12.3007 23.8492 8.7749 19.5 8.7749C15.1508 8.7749 11.625 12.3007 11.625 16.6499C11.625 20.9991 15.1508 24.5249 19.5 24.5249Z" stroke="#E6BA24" stroke-width="3" stroke-miterlimit="10"/>
<path d="M26.9076 23.6573C25.9639 24.6443 24.8296 25.4295 23.5735 25.9654C22.3175 26.5012 20.9657 26.7766 19.6001 26.7748C14.0081 26.7748 9.47511 22.2418 9.47511 16.6498C9.4733 15.2842 9.74867 13.9324 10.2845 12.6764C10.8204 11.4203 11.6056 10.286 12.5926 9.34229C10.7814 11.2251 9.7714 13.7372 9.77511 16.3498C9.77511 21.9418 14.3081 26.4748 19.9001 26.4748C22.5127 26.4785 25.0248 25.4685 26.9076 23.6573V23.6573Z" fill="#E6BA24"/>
<path d="M15.603 21.3859C15.369 21.2324 14.1645 17.8909 15.8625 15.6519C16.2265 15.1724 16.6055 14.9159 17.3385 14.4244C18.532 13.6244 19.8885 13.1559 20.76 12.8509C21.496 12.5929 23.2 11.7509 23.472 11.4224C23.493 11.3979 23.5805 11.2919 23.662 11.3054C23.7045 11.3124 23.729 11.3554 23.744 11.3849C23.82 11.5294 25.2795 17.2489 22.7385 20.0404C21.1705 21.7634 19.23 21.8904 18.105 21.9954C18.0445 22.0009 17.3375 21.9454 17.276 21.9039C17.276 21.9039 17.237 21.8779 17.2005 21.8474C17.141 21.7974 16.703 21.0884 16.8815 19.6114C17 18.676 17.3875 17.7952 17.997 17.0759C19.452 15.3789 21.447 15.1909 21.447 15.0319C21.447 14.9454 18.5225 15.3884 17.472 16.3069C16.65 17.0274 16.243 17.7039 16.0265 18.2499C15.89 18.5765 15.796 18.9193 15.747 19.2699C15.602 20.3434 15.697 21.2809 15.6875 21.3699C15.685 21.3939 15.6405 21.4104 15.603 21.3859Z" fill="#FFCD34"/>
<path d="M23.5306 11.3608C23.5186 11.3723 23.4971 11.3933 23.4721 11.4213C22.8031 12.1663 23.5501 13.2998 23.1501 14.1148C23.1286 14.1572 23.1039 14.1978 23.0761 14.2363C22.6401 14.8863 21.8261 15.0483 21.4486 15.1273C19.7381 15.4833 18.8826 15.6618 18.0891 16.1238C17.6107 16.397 17.1861 16.755 16.8361 17.1803C16.6496 17.4143 16.0596 18.2598 15.9081 19.2473C15.7371 20.3608 15.7906 20.9253 15.7961 21.3523C15.7961 21.4088 15.7201 21.4618 15.6901 21.4638C15.6726 21.4778 15.5796 21.4528 15.5466 21.4753C15.2466 21.6808 14.9086 21.7453 14.7126 21.7083C14.1386 21.6003 13.9721 20.1358 13.9371 19.6928C13.8811 19.0495 13.9117 18.4015 14.0281 17.7663C14.2373 16.9682 14.6163 16.2247 15.1391 15.5863C16.0716 14.4863 17.8046 13.7308 19.3016 13.1863C19.3016 13.1863 20.8146 12.6328 21.5331 12.3238C21.8891 12.1708 22.2831 11.9873 22.3676 11.9488C22.8536 11.7233 23.0896 11.5988 23.2111 11.5363C23.3436 11.4653 23.4546 11.4038 23.5306 11.3608Z" fill="#E6BA24"/>
<path d="M22.7385 20.0402C21.1705 21.7632 19.23 21.8902 18.105 21.9952C18.0445 22.0007 17.3375 21.9452 17.276 21.9037C17.276 21.9037 17.237 21.8777 17.2005 21.8472C17.141 21.7972 16.703 21.0882 16.8815 19.6112C17 18.6759 17.3875 17.7951 17.997 17.0757C18.3838 16.6272 18.8395 16.243 19.347 15.9377V15.9377C20.447 15.2712 21.447 15.1442 21.447 15.0317C21.447 15.0277 21.4405 15.0247 21.4275 15.0232C21.245 14.9987 19.822 15.2167 18.6575 15.6602C18.1875 15.8397 17.7575 16.0552 17.472 16.3067C16.65 17.0272 16.243 17.7037 16.0265 18.2497C15.8899 18.5763 15.796 18.9192 15.747 19.2697C15.602 20.3432 15.697 21.2807 15.6875 21.3697C15.685 21.3932 15.6405 21.4097 15.603 21.3852C15.581 21.3669 15.5625 21.3447 15.5485 21.3197L15.542 21.3097C15.2175 20.7782 14.281 17.7367 15.8625 15.6512C16.2265 15.1717 16.5375 14.8457 17.2835 14.3742C18.507 13.5997 19.8905 13.1557 20.76 12.8497C21.496 12.5917 23.2 11.7497 23.472 11.4212C23.49 11.3997 23.5095 11.3794 23.5305 11.3607C23.5471 11.3425 23.5675 11.328 23.5901 11.3183C23.6128 11.3085 23.6373 11.3038 23.662 11.3042C23.7045 11.3112 23.729 11.3542 23.744 11.3837C23.747 11.3907 23.75 11.3977 23.7525 11.4052C23.771 11.4597 23.81 11.6022 23.858 11.8162C24.1745 13.2212 24.888 17.6782 22.7385 20.0402Z" fill="#FEE05B"/>
<path d="M24.3616 16.5613C24.2356 17.4613 24.0931 18.4793 23.3681 19.5428C22.7096 20.5083 21.9181 20.9978 21.3616 21.3428C19.9396 22.2228 18.7271 22.3373 17.3491 22.4678C16.9661 22.5038 16.6991 22.5093 16.4551 22.3488C15.6551 21.8228 15.9811 20.0903 16.0741 19.5988C16.0741 19.5988 16.3391 18.2108 17.5556 16.6738C17.782 16.3744 18.0592 16.1172 18.3746 15.9138C18.5666 15.7928 18.7171 15.7303 19.0181 15.6053C19.7291 15.3103 19.7046 15.4363 20.4111 15.1663C20.4111 15.1663 20.9196 14.9663 21.4276 15.0233C21.4406 15.0233 21.4471 15.0278 21.4471 15.0318C21.4471 15.1443 20.4471 15.2713 19.3471 15.9378C18.8396 16.2431 18.3839 16.6273 17.9971 17.0758C17.3877 17.7952 17.0001 18.676 16.8816 19.6113C16.7031 21.0883 17.1411 21.7998 17.2001 21.8498C17.2366 21.8803 17.2756 21.9063 17.2756 21.9063C17.3371 21.9468 18.0441 22.0033 18.1046 21.9978C19.2296 21.8923 21.1701 21.7658 22.7381 20.0428C24.8881 17.6808 24.1741 13.2238 23.8576 11.8198C23.9836 12.2016 24.0891 12.5898 24.1736 12.9828C24.3226 13.6668 24.5876 14.9498 24.3616 16.5613Z" fill="#E6BA24"/>
<path d="M37.2334 16.338H40.3834V17.178H37.2334V20.328H36.3934V17.178H33.2434V16.338H36.3934V13.188H37.2334V16.338ZM48.8116 18.312H47.8316V17.472C47.8316 17.2107 47.8596 16.9773 47.9156 16.772C47.9809 16.5573 48.0649 16.366 48.1676 16.198C48.2796 16.03 48.4009 15.8807 48.5316 15.75C48.6716 15.61 48.8116 15.4747 48.9516 15.344L49.3436 14.994C49.5769 14.8073 49.7683 14.5927 49.9176 14.35C50.0763 14.1073 50.1556 13.804 50.1556 13.44C50.1556 13.1787 50.1089 12.9453 50.0156 12.74C49.9223 12.5347 49.7963 12.362 49.6376 12.222C49.4789 12.082 49.2923 11.9747 49.0776 11.9C48.8723 11.8253 48.6483 11.788 48.4056 11.788C47.9016 11.788 47.4909 11.942 47.1736 12.25C46.8656 12.558 46.6743 12.95 46.5996 13.426L45.6476 13.258C45.7876 12.53 46.1049 11.9607 46.5996 11.55C47.1036 11.13 47.7196 10.92 48.4476 10.92C48.8209 10.92 49.1709 10.976 49.4976 11.088C49.8336 11.1907 50.1229 11.3493 50.3656 11.564C50.6083 11.7693 50.7996 12.026 50.9396 12.334C51.0889 12.642 51.1636 12.992 51.1636 13.384C51.1636 13.6827 51.1309 13.944 51.0656 14.168C51.0003 14.392 50.9069 14.5927 50.7856 14.77C50.6736 14.9473 50.5383 15.1107 50.3796 15.26C50.2209 15.4 50.0529 15.5447 49.8756 15.694C49.6796 15.8527 49.5116 15.9973 49.3716 16.128C49.2409 16.2587 49.1336 16.3987 49.0496 16.548C48.9656 16.688 48.9049 16.8467 48.8676 17.024C48.8303 17.2013 48.8116 17.416 48.8116 17.668V18.312ZM49.1756 20.328C49.1756 20.524 49.1056 20.7013 48.9656 20.86C48.8256 21.0093 48.6436 21.084 48.4196 21.084C48.1956 21.084 48.0136 21.0093 47.8736 20.86C47.7336 20.7013 47.6636 20.524 47.6636 20.328C47.6636 20.132 47.7336 19.9593 47.8736 19.81C48.0136 19.6513 48.1956 19.572 48.4196 19.572C48.6436 19.572 48.8256 19.6513 48.9656 19.81C49.1056 19.9593 49.1756 20.132 49.1756 20.328ZM57.4275 15.568C57.6142 15.1853 57.8988 14.8773 58.2815 14.644C58.6735 14.4013 59.1075 14.28 59.5835 14.28C59.7608 14.28 59.9428 14.2987 60.1295 14.336C60.3255 14.3733 60.5122 14.448 60.6895 14.56C60.8762 14.6627 61.0442 14.8027 61.1935 14.98C61.3522 15.1573 61.4875 15.386 61.5995 15.666C61.8235 15.218 62.1268 14.8773 62.5095 14.644C62.9015 14.4013 63.3635 14.28 63.8955 14.28C64.7262 14.28 65.3468 14.5273 65.7575 15.022C66.1775 15.5167 66.3875 16.17 66.3875 16.982V21H65.4355V17.374C65.4355 16.6833 65.3048 16.128 65.0435 15.708C64.7915 15.288 64.3575 15.078 63.7415 15.078C63.3962 15.078 63.1022 15.148 62.8595 15.288C62.6262 15.428 62.4348 15.6147 62.2855 15.848C62.1455 16.072 62.0428 16.3287 61.9775 16.618C61.9122 16.9073 61.8795 17.206 61.8795 17.514V21H60.9275V17.178C60.9275 16.8607 60.9042 16.5713 60.8575 16.31C60.8108 16.0487 60.7268 15.8293 60.6055 15.652C60.4935 15.4653 60.3348 15.3253 60.1295 15.232C59.9242 15.1293 59.6628 15.078 59.3455 15.078C59.1215 15.078 58.8928 15.1293 58.6595 15.232C58.4355 15.3347 58.2302 15.4933 58.0435 15.708C57.8662 15.9133 57.7215 16.1793 57.6095 16.506C57.4975 16.8233 57.4415 17.2013 57.4415 17.64V21H56.4895V15.89C56.4895 15.7127 56.4848 15.484 56.4755 15.204C56.4662 14.924 56.4522 14.672 56.4335 14.448H57.3435C57.3622 14.6253 57.3762 14.8213 57.3855 15.036C57.3948 15.2507 57.3995 15.428 57.3995 15.568H57.4275ZM72.9789 16.772C72.9789 16.2027 72.8295 15.778 72.5309 15.498C72.2322 15.218 71.7982 15.078 71.2289 15.078C70.8369 15.078 70.4729 15.148 70.1369 15.288C69.8009 15.428 69.5162 15.6147 69.2829 15.848L68.7509 15.218C69.0215 14.9473 69.3762 14.7233 69.8149 14.546C70.2629 14.3687 70.7669 14.28 71.3269 14.28C71.6815 14.28 72.0129 14.3313 72.3209 14.434C72.6289 14.5273 72.8995 14.672 73.1329 14.868C73.3662 15.064 73.5482 15.3113 73.6789 15.61C73.8095 15.9087 73.8749 16.2587 73.8749 16.66V19.53C73.8749 19.782 73.8842 20.0433 73.9029 20.314C73.9215 20.5847 73.9495 20.8133 73.9869 21H73.1329C73.1049 20.8413 73.0815 20.6687 73.0629 20.482C73.0442 20.2953 73.0349 20.1133 73.0349 19.936H73.0069C72.7082 20.3747 72.3675 20.692 71.9849 20.888C71.6115 21.0747 71.1589 21.168 70.6269 21.168C70.3749 21.168 70.1135 21.1307 69.8429 21.056C69.5815 20.9907 69.3389 20.8787 69.1149 20.72C68.9002 20.5613 68.7182 20.356 68.5689 20.104C68.4289 19.852 68.3589 19.544 68.3589 19.18C68.3589 18.676 68.4849 18.2793 68.7369 17.99C68.9982 17.6913 69.3435 17.472 69.7729 17.332C70.2022 17.1827 70.6922 17.0893 71.2429 17.052C71.8029 17.0053 72.3815 16.982 72.9789 16.982V16.772ZM72.6989 17.724C72.3069 17.724 71.9102 17.7427 71.5089 17.78C71.1169 17.808 70.7575 17.8733 70.4309 17.976C70.1135 18.0693 69.8522 18.2093 69.6469 18.396C69.4415 18.5827 69.3389 18.83 69.3389 19.138C69.3389 19.3713 69.3809 19.5673 69.4649 19.726C69.5582 19.8847 69.6795 20.0153 69.8289 20.118C69.9782 20.2113 70.1415 20.2813 70.3189 20.328C70.5055 20.3653 70.6922 20.384 70.8789 20.384C71.2149 20.384 71.5135 20.328 71.7749 20.216C72.0362 20.0947 72.2555 19.936 72.4329 19.74C72.6102 19.5347 72.7455 19.3013 72.8389 19.04C72.9322 18.7787 72.9789 18.5033 72.9789 18.214V17.724H72.6989ZM77.8674 17.612L75.4454 14.448H76.6634L78.4554 16.94L80.2474 14.448H81.3954L79.0154 17.57L81.6194 21H80.3874L78.4414 18.27L76.4394 21H75.2914L77.8674 17.612Z" fill="#2A4661"/>
</svg>
