<svg width="116" height="44" viewBox="0 0 116 44" fill="none" xmlns="http://www.w3.org/2000/svg">
<rect width="99" height="33" rx="16.5" fill="#F8F2D2"/>
<path d="M50.1402 43.5835L55.6794 31.896H44.6011L50.1402 43.5835Z" fill="#F8F2D2"/>
<path d="M28.7252 16.6499C28.7289 19.2625 27.7188 21.7746 25.9077 23.6574C24.0248 25.4686 21.5127 26.4786 18.9002 26.4749C13.3082 26.4749 8.77516 21.9419 8.77516 16.3499C8.77145 13.7374 9.78149 11.2253 11.5927 9.34241C13.4755 7.53125 15.9876 6.52121 18.6002 6.52491C24.1922 6.52491 28.7252 11.0579 28.7252 16.6499Z" fill="#FFCD34"/>
<path d="M18.6003 26.7749C24.1922 26.7749 28.7253 22.2418 28.7253 16.6499C28.7253 11.058 24.1922 6.5249 18.6003 6.5249C13.0085 6.5249 8.47534 11.058 8.47534 16.6499C8.47534 22.2418 13.0085 26.7749 18.6003 26.7749Z" fill="#FEE05B"/>
<path d="M18.6001 24.5249C22.9493 24.5249 26.4751 20.9991 26.4751 16.6499C26.4751 12.3007 22.9493 8.7749 18.6001 8.7749C14.2509 8.7749 10.7251 12.3007 10.7251 16.6499C10.7251 20.9991 14.2509 24.5249 18.6001 24.5249Z" fill="#FFCD34"/>
<path d="M26.475 16.65C26.4751 18.1989 26.0185 19.7134 25.1625 21.0042C24.3064 22.295 23.0889 23.3049 21.662 23.9075C23.2932 22.8205 24.4605 21.1644 24.9359 19.2627C25.4113 17.361 25.1605 15.3505 24.2326 13.6238C23.3047 11.8971 21.7664 10.5785 19.9182 9.92546C18.07 9.27244 16.0447 9.33199 14.238 10.0925C15.4244 9.30362 16.8025 8.85132 18.2256 8.78376C19.6486 8.71621 21.0634 9.03591 22.3191 9.70883C23.5749 10.3818 24.6246 11.3827 25.3564 12.605C26.0883 13.8273 26.4749 15.2253 26.475 16.65V16.65Z" fill="#E6BA24"/>
<path d="M25.175 17.35C25.1758 18.648 24.8554 19.926 24.2425 21.0702C23.6295 22.2143 22.7431 23.189 21.662 23.9075C19.8552 24.6695 17.829 24.7301 15.9799 24.0774C14.1307 23.4248 12.5915 22.1058 11.6632 20.3784C10.735 18.6511 10.4844 16.6396 10.9606 14.7373C11.4368 12.835 12.6055 11.1788 14.238 10.0925C15.4355 9.58833 16.739 9.38811 18.0326 9.50965C19.3262 9.63119 20.5696 10.0707 21.6522 10.7891C22.7348 11.5075 23.623 12.4824 24.2376 13.6271C24.8522 14.7718 25.1743 16.0507 25.175 17.35V17.35Z" fill="#F9C42E"/>
<path d="M18.5 24.5249C22.8492 24.5249 26.375 20.9991 26.375 16.6499C26.375 12.3007 22.8492 8.7749 18.5 8.7749C14.1508 8.7749 10.625 12.3007 10.625 16.6499C10.625 20.9991 14.1508 24.5249 18.5 24.5249Z" stroke="#E6BA24" stroke-width="3" stroke-miterlimit="10"/>
<path d="M25.9076 23.6573C24.9639 24.6443 23.8296 25.4295 22.5735 25.9654C21.3175 26.5012 19.9657 26.7766 18.6001 26.7748C13.0081 26.7748 8.47511 22.2418 8.47511 16.6498C8.4733 15.2842 8.74867 13.9324 9.28453 12.6764C9.82039 11.4203 10.6056 10.286 11.5926 9.34229C9.78144 11.2251 8.7714 13.7372 8.77511 16.3498C8.77511 21.9418 13.3081 26.4748 18.9001 26.4748C21.5127 26.4785 24.0248 25.4685 25.9076 23.6573V23.6573Z" fill="#E6BA24"/>
<path d="M14.603 21.3859C14.369 21.2324 13.1645 17.8909 14.8625 15.6519C15.2265 15.1724 15.6055 14.9159 16.3385 14.4244C17.532 13.6244 18.8885 13.1559 19.76 12.8509C20.496 12.5929 22.2 11.7509 22.472 11.4224C22.493 11.3979 22.5805 11.2919 22.662 11.3054C22.7045 11.3124 22.729 11.3554 22.744 11.3849C22.82 11.5294 24.2795 17.2489 21.7385 20.0404C20.1705 21.7634 18.23 21.8904 17.105 21.9954C17.0445 22.0009 16.3375 21.9454 16.276 21.9039C16.276 21.9039 16.237 21.8779 16.2005 21.8474C16.141 21.7974 15.703 21.0884 15.8815 19.6114C16 18.676 16.3875 17.7952 16.997 17.0759C18.452 15.3789 20.447 15.1909 20.447 15.0319C20.447 14.9454 17.5225 15.3884 16.472 16.3069C15.65 17.0274 15.243 17.7039 15.0265 18.2499C14.89 18.5765 14.796 18.9193 14.747 19.2699C14.602 20.3434 14.697 21.2809 14.6875 21.3699C14.685 21.3939 14.6405 21.4104 14.603 21.3859Z" fill="#FFCD34"/>
<path d="M22.5306 11.3608C22.5186 11.3723 22.4971 11.3933 22.4721 11.4213C21.8031 12.1663 22.5501 13.2998 22.1501 14.1148C22.1286 14.1572 22.1039 14.1978 22.0761 14.2363C21.6401 14.8863 20.8261 15.0483 20.4486 15.1273C18.7381 15.4833 17.8826 15.6618 17.0891 16.1238C16.6107 16.397 16.1861 16.755 15.8361 17.1803C15.6496 17.4143 15.0596 18.2598 14.9081 19.2473C14.7371 20.3608 14.7906 20.9253 14.7961 21.3523C14.7961 21.4088 14.7201 21.4618 14.6901 21.4638C14.6726 21.4778 14.5796 21.4528 14.5466 21.4753C14.2466 21.6808 13.9086 21.7453 13.7126 21.7083C13.1386 21.6003 12.9721 20.1358 12.9371 19.6928C12.8811 19.0495 12.9117 18.4015 13.0281 17.7663C13.2373 16.9682 13.6163 16.2247 14.1391 15.5863C15.0716 14.4863 16.8046 13.7308 18.3016 13.1863C18.3016 13.1863 19.8146 12.6328 20.5331 12.3238C20.8891 12.1708 21.2831 11.9873 21.3676 11.9488C21.8536 11.7233 22.0896 11.5988 22.2111 11.5363C22.3436 11.4653 22.4546 11.4038 22.5306 11.3608Z" fill="#E6BA24"/>
<path d="M21.7385 20.0402C20.1705 21.7632 18.23 21.8902 17.105 21.9952C17.0445 22.0007 16.3375 21.9452 16.276 21.9037C16.276 21.9037 16.237 21.8777 16.2005 21.8472C16.141 21.7972 15.703 21.0882 15.8815 19.6112C16 18.6759 16.3875 17.7951 16.997 17.0757C17.3838 16.6272 17.8395 16.243 18.347 15.9377V15.9377C19.447 15.2712 20.447 15.1442 20.447 15.0317C20.447 15.0277 20.4405 15.0247 20.4275 15.0232C20.245 14.9987 18.822 15.2167 17.6575 15.6602C17.1875 15.8397 16.7575 16.0552 16.472 16.3067C15.65 17.0272 15.243 17.7037 15.0265 18.2497C14.8899 18.5763 14.796 18.9192 14.747 19.2697C14.602 20.3432 14.697 21.2807 14.6875 21.3697C14.685 21.3932 14.6405 21.4097 14.603 21.3852C14.581 21.3669 14.5625 21.3447 14.5485 21.3197L14.542 21.3097C14.2175 20.7782 13.281 17.7367 14.8625 15.6512C15.2265 15.1717 15.5375 14.8457 16.2835 14.3742C17.507 13.5997 18.8905 13.1557 19.76 12.8497C20.496 12.5917 22.2 11.7497 22.472 11.4212C22.49 11.3997 22.5095 11.3794 22.5305 11.3607C22.5471 11.3425 22.5675 11.328 22.5901 11.3183C22.6128 11.3085 22.6373 11.3038 22.662 11.3042C22.7045 11.3112 22.729 11.3542 22.744 11.3837C22.747 11.3907 22.75 11.3977 22.7525 11.4052C22.771 11.4597 22.81 11.6022 22.858 11.8162C23.1745 13.2212 23.888 17.6782 21.7385 20.0402Z" fill="#FEE05B"/>
<path d="M23.3616 16.5613C23.2356 17.4613 23.0931 18.4793 22.3681 19.5428C21.7096 20.5083 20.9181 20.9978 20.3616 21.3428C18.9396 22.2228 17.7271 22.3373 16.3491 22.4678C15.9661 22.5038 15.6991 22.5093 15.4551 22.3488C14.6551 21.8228 14.9811 20.0903 15.0741 19.5988C15.0741 19.5988 15.3391 18.2108 16.5556 16.6738C16.782 16.3744 17.0592 16.1172 17.3746 15.9138C17.5666 15.7928 17.7171 15.7303 18.0181 15.6053C18.7291 15.3103 18.7046 15.4363 19.4111 15.1663C19.4111 15.1663 19.9196 14.9663 20.4276 15.0233C20.4406 15.0233 20.4471 15.0278 20.4471 15.0318C20.4471 15.1443 19.4471 15.2713 18.3471 15.9378C17.8396 16.2431 17.3839 16.6273 16.9971 17.0758C16.3877 17.7952 16.0001 18.676 15.8816 19.6113C15.7031 21.0883 16.1411 21.7998 16.2001 21.8498C16.2366 21.8803 16.2756 21.9063 16.2756 21.9063C16.3371 21.9468 17.0441 22.0033 17.1046 21.9978C18.2296 21.8923 20.1701 21.7658 21.7381 20.0428C23.8881 17.6808 23.1741 13.2238 22.8576 11.8198C22.9836 12.2016 23.0891 12.5898 23.1736 12.9828C23.3226 13.6668 23.5876 14.9498 23.3616 16.5613Z" fill="#E6BA24"/>
<path d="M36.2392 16.338H39.3892V17.178H36.2392V20.328H35.3992V17.178H32.2492V16.338H35.3992V13.188H36.2392V16.338ZM45.8154 16.674L45.7874 16.646C45.6381 16.758 45.4281 16.8467 45.1574 16.912C44.8868 16.9773 44.6254 17.01 44.3734 17.01C43.9441 17.01 43.5428 16.9353 43.1694 16.786C42.8054 16.6367 42.4881 16.4313 42.2174 16.17C41.9468 15.8993 41.7321 15.5773 41.5734 15.204C41.4241 14.8213 41.3494 14.406 41.3494 13.958C41.3494 13.5007 41.4288 13.0807 41.5874 12.698C41.7461 12.306 41.9701 11.9747 42.2594 11.704C42.5488 11.4333 42.8894 11.2233 43.2814 11.074C43.6734 10.9153 44.1028 10.836 44.5694 10.836C45.0361 10.836 45.4654 10.9153 45.8574 11.074C46.2494 11.2233 46.5901 11.4333 46.8794 11.704C47.1688 11.9747 47.3928 12.306 47.5514 12.698C47.7101 13.0807 47.7894 13.5007 47.7894 13.958C47.7894 14.4713 47.7008 14.9473 47.5234 15.386C47.3461 15.8247 47.1361 16.2447 46.8934 16.646L44.1914 21H43.0294L45.8154 16.674ZM46.7814 13.958C46.7814 13.6407 46.7254 13.342 46.6134 13.062C46.5108 12.782 46.3614 12.544 46.1654 12.348C45.9694 12.1427 45.7361 11.984 45.4654 11.872C45.1948 11.7507 44.8961 11.69 44.5694 11.69C44.2428 11.69 43.9441 11.7507 43.6734 11.872C43.4028 11.984 43.1694 12.1427 42.9734 12.348C42.7774 12.544 42.6234 12.782 42.5114 13.062C42.4088 13.342 42.3574 13.6407 42.3574 13.958C42.3574 14.2753 42.4088 14.574 42.5114 14.854C42.6141 15.1247 42.7588 15.3627 42.9454 15.568C43.1414 15.764 43.3748 15.918 43.6454 16.03C43.9254 16.142 44.2334 16.198 44.5694 16.198C44.9054 16.198 45.2088 16.142 45.4794 16.03C45.7594 15.918 45.9928 15.764 46.1794 15.568C46.3754 15.3627 46.5248 15.1247 46.6274 14.854C46.7301 14.574 46.7814 14.2753 46.7814 13.958ZM52.6625 10.836C53.2785 10.836 53.7919 10.99 54.2025 11.298C54.6225 11.5967 54.9585 11.9933 55.2105 12.488C55.4625 12.9733 55.6399 13.5287 55.7425 14.154C55.8545 14.7793 55.9105 15.414 55.9105 16.058C55.9105 16.702 55.8545 17.3367 55.7425 17.962C55.6399 18.578 55.4625 19.1333 55.2105 19.628C54.9585 20.1133 54.6225 20.5053 54.2025 20.804C53.7919 21.1027 53.2785 21.252 52.6625 21.252C52.0372 21.252 51.5145 21.1027 51.0945 20.804C50.6839 20.5053 50.3525 20.1133 50.1005 19.628C49.8485 19.1333 49.6712 18.578 49.5685 17.962C49.4659 17.3367 49.4145 16.702 49.4145 16.058C49.4145 15.414 49.4659 14.7793 49.5685 14.154C49.6712 13.5287 49.8485 12.9733 50.1005 12.488C50.3525 11.9933 50.6839 11.5967 51.0945 11.298C51.5145 10.99 52.0372 10.836 52.6625 10.836ZM52.6625 11.69C52.2239 11.69 51.8599 11.8253 51.5705 12.096C51.2812 12.3667 51.0525 12.712 50.8845 13.132C50.7165 13.552 50.5999 14.0233 50.5345 14.546C50.4692 15.0593 50.4365 15.5633 50.4365 16.058C50.4365 16.5527 50.4692 17.0567 50.5345 17.57C50.5999 18.0833 50.7165 18.55 50.8845 18.97C51.0525 19.3807 51.2812 19.7213 51.5705 19.992C51.8599 20.2533 52.2239 20.384 52.6625 20.384C53.0919 20.384 53.4512 20.2533 53.7405 19.992C54.0299 19.7213 54.2585 19.3807 54.4265 18.97C54.5945 18.55 54.7112 18.0833 54.7765 17.57C54.8512 17.0567 54.8885 16.5527 54.8885 16.058C54.8885 15.5633 54.8512 15.0593 54.7765 14.546C54.7112 14.0233 54.5945 13.552 54.4265 13.132C54.2585 12.712 54.0299 12.3667 53.7405 12.096C53.4512 11.8253 53.0919 11.69 52.6625 11.69ZM62.4216 15.568C62.6083 15.1853 62.893 14.8773 63.2756 14.644C63.6676 14.4013 64.1016 14.28 64.5776 14.28C64.755 14.28 64.937 14.2987 65.1236 14.336C65.3196 14.3733 65.5063 14.448 65.6836 14.56C65.8703 14.6627 66.0383 14.8027 66.1876 14.98C66.3463 15.1573 66.4816 15.386 66.5936 15.666C66.8176 15.218 67.121 14.8773 67.5036 14.644C67.8956 14.4013 68.3576 14.28 68.8896 14.28C69.7203 14.28 70.341 14.5273 70.7516 15.022C71.1716 15.5167 71.3816 16.17 71.3816 16.982V21H70.4296V17.374C70.4296 16.6833 70.299 16.128 70.0376 15.708C69.7856 15.288 69.3516 15.078 68.7356 15.078C68.3903 15.078 68.0963 15.148 67.8536 15.288C67.6203 15.428 67.429 15.6147 67.2796 15.848C67.1396 16.072 67.037 16.3287 66.9716 16.618C66.9063 16.9073 66.8736 17.206 66.8736 17.514V21H65.9216V17.178C65.9216 16.8607 65.8983 16.5713 65.8516 16.31C65.805 16.0487 65.721 15.8293 65.5996 15.652C65.4876 15.4653 65.329 15.3253 65.1236 15.232C64.9183 15.1293 64.657 15.078 64.3396 15.078C64.1156 15.078 63.887 15.1293 63.6536 15.232C63.4296 15.3347 63.2243 15.4933 63.0376 15.708C62.8603 15.9133 62.7156 16.1793 62.6036 16.506C62.4916 16.8233 62.4356 17.2013 62.4356 17.64V21H61.4836V15.89C61.4836 15.7127 61.479 15.484 61.4696 15.204C61.4603 14.924 61.4463 14.672 61.4276 14.448H62.3376C62.3563 14.6253 62.3703 14.8213 62.3796 15.036C62.389 15.2507 62.3936 15.428 62.3936 15.568H62.4216ZM77.973 16.772C77.973 16.2027 77.8237 15.778 77.525 15.498C77.2263 15.218 76.7923 15.078 76.223 15.078C75.831 15.078 75.467 15.148 75.131 15.288C74.795 15.428 74.5103 15.6147 74.277 15.848L73.745 15.218C74.0157 14.9473 74.3703 14.7233 74.809 14.546C75.257 14.3687 75.761 14.28 76.321 14.28C76.6757 14.28 77.007 14.3313 77.315 14.434C77.623 14.5273 77.8937 14.672 78.127 14.868C78.3603 15.064 78.5423 15.3113 78.673 15.61C78.8037 15.9087 78.869 16.2587 78.869 16.66V19.53C78.869 19.782 78.8783 20.0433 78.897 20.314C78.9157 20.5847 78.9437 20.8133 78.981 21H78.127C78.099 20.8413 78.0757 20.6687 78.057 20.482C78.0383 20.2953 78.029 20.1133 78.029 19.936H78.001C77.7023 20.3747 77.3617 20.692 76.979 20.888C76.6057 21.0747 76.153 21.168 75.621 21.168C75.369 21.168 75.1077 21.1307 74.837 21.056C74.5757 20.9907 74.333 20.8787 74.109 20.72C73.8943 20.5613 73.7123 20.356 73.563 20.104C73.423 19.852 73.353 19.544 73.353 19.18C73.353 18.676 73.479 18.2793 73.731 17.99C73.9923 17.6913 74.3377 17.472 74.767 17.332C75.1963 17.1827 75.6863 17.0893 76.237 17.052C76.797 17.0053 77.3757 16.982 77.973 16.982V16.772ZM77.693 17.724C77.301 17.724 76.9043 17.7427 76.503 17.78C76.111 17.808 75.7517 17.8733 75.425 17.976C75.1077 18.0693 74.8463 18.2093 74.641 18.396C74.4357 18.5827 74.333 18.83 74.333 19.138C74.333 19.3713 74.375 19.5673 74.459 19.726C74.5523 19.8847 74.6737 20.0153 74.823 20.118C74.9723 20.2113 75.1357 20.2813 75.313 20.328C75.4997 20.3653 75.6863 20.384 75.873 20.384C76.209 20.384 76.5077 20.328 76.769 20.216C77.0303 20.0947 77.2497 19.936 77.427 19.74C77.6043 19.5347 77.7397 19.3013 77.833 19.04C77.9263 18.7787 77.973 18.5033 77.973 18.214V17.724H77.693ZM82.8615 17.612L80.4395 14.448H81.6575L83.4495 16.94L85.2415 14.448H86.3895L84.0095 17.57L86.6135 21H85.3815L83.4355 18.27L81.4335 21H80.2855L82.8615 17.612Z" fill="#2A4661"/>
</svg>
