<svg width="126" height="44" viewBox="0 0 126 44" fill="none" xmlns="http://www.w3.org/2000/svg">
<rect width="126" height="33" rx="16.5" fill="#E2E2E2"/>
<path d="M63.3343 43.5835L70.552 31.896H56.1166L63.3343 43.5835Z" fill="#E2E2E2"/>
<path d="M21.7054 21H15.3634V19.95L19.4234 15.848C19.5727 15.6987 19.7174 15.54 19.8574 15.372C20.0067 15.1947 20.1374 15.0127 20.2494 14.826C20.3614 14.6393 20.4501 14.4433 20.5154 14.238C20.5807 14.0233 20.6134 13.804 20.6134 13.58C20.6134 13.2907 20.5621 13.0293 20.4594 12.796C20.3567 12.5627 20.2121 12.3667 20.0254 12.208C19.8481 12.04 19.6381 11.914 19.3954 11.83C19.1621 11.7367 18.9147 11.69 18.6534 11.69C18.1214 11.69 17.6734 11.858 17.3094 12.194C16.9454 12.5207 16.7121 12.9407 16.6094 13.454L15.6154 13.258C15.6807 12.9127 15.8021 12.5907 15.9794 12.292C16.1661 11.9933 16.3901 11.7367 16.6514 11.522C16.9221 11.3073 17.2254 11.1393 17.5614 11.018C17.8974 10.8967 18.2614 10.836 18.6534 10.836C19.0547 10.836 19.4327 10.8967 19.7874 11.018C20.1514 11.13 20.4687 11.3027 20.7394 11.536C21.0101 11.76 21.2247 12.0447 21.3834 12.39C21.5514 12.726 21.6354 13.118 21.6354 13.566C21.6354 13.8833 21.5887 14.1773 21.4954 14.448C21.4114 14.7187 21.2947 14.9753 21.1454 15.218C21.0054 15.4607 20.8374 15.694 20.6414 15.918C20.4454 16.1327 20.2401 16.3473 20.0254 16.562L16.4554 20.104H21.7054V21ZM31.4505 18.004H26.6905V17.206H31.4505V18.004ZM38.9219 19.614H38.9499L41.4279 11.088H42.6319L45.1099 19.614H45.1379L47.5599 11.088H48.6239L45.6979 21H44.5219L42.0299 12.488H42.0019L39.5099 21H38.3339L35.4079 11.088H36.4719L38.9219 19.614ZM51.0834 15.526C51.2608 15.1433 51.5548 14.84 51.9654 14.616C52.3761 14.392 52.8148 14.28 53.2814 14.28C54.1121 14.28 54.7328 14.5273 55.1434 15.022C55.5634 15.5167 55.7734 16.17 55.7734 16.982V21H54.8214V17.374C54.8214 17.0287 54.7934 16.716 54.7374 16.436C54.6814 16.156 54.5834 15.918 54.4434 15.722C54.3128 15.5167 54.1308 15.358 53.8974 15.246C53.6734 15.134 53.3888 15.078 53.0434 15.078C52.7914 15.078 52.5441 15.1293 52.3014 15.232C52.0681 15.3347 51.8581 15.4933 51.6714 15.708C51.4848 15.9133 51.3354 16.1793 51.2234 16.506C51.1114 16.8233 51.0554 17.2013 51.0554 17.64V21H50.1034V10.416H51.0554V15.526H51.0834ZM60.4915 19.978H60.5195L62.5495 14.448H63.5855L60.3235 22.694C60.1275 23.198 59.8755 23.5993 59.5675 23.898C59.2689 24.206 58.8349 24.36 58.2655 24.36C57.9762 24.36 57.6915 24.332 57.4115 24.276L57.5095 23.408C57.7335 23.4827 57.9669 23.52 58.2095 23.52C58.5362 23.52 58.7929 23.4173 58.9795 23.212C59.1662 23.016 59.3295 22.7313 59.4695 22.358L60.0015 20.986L57.2015 14.448H58.2655L60.4915 19.978ZM69.6375 21H68.6295V11.088H69.6375V21ZM73.0642 14.448C73.0829 14.6253 73.0969 14.8213 73.1062 15.036C73.1155 15.2507 73.1202 15.428 73.1202 15.568H73.1482C73.3349 15.1853 73.6382 14.8773 74.0582 14.644C74.4782 14.4013 74.9215 14.28 75.3882 14.28C76.2189 14.28 76.8395 14.5273 77.2502 15.022C77.6702 15.5167 77.8802 16.17 77.8802 16.982V21H76.9282V17.374C76.9282 17.0287 76.9002 16.716 76.8442 16.436C76.7882 16.156 76.6902 15.918 76.5502 15.722C76.4195 15.5167 76.2375 15.358 76.0042 15.246C75.7802 15.134 75.4955 15.078 75.1502 15.078C74.8982 15.078 74.6509 15.1293 74.4082 15.232C74.1749 15.3347 73.9649 15.4933 73.7782 15.708C73.5915 15.9133 73.4422 16.1793 73.3302 16.506C73.2182 16.8233 73.1622 17.2013 73.1622 17.64V21H72.2102V15.89C72.2102 15.7127 72.2055 15.484 72.1962 15.204C72.1869 14.924 72.1729 14.672 72.1542 14.448H73.0642ZM83.033 21H81.983L79.309 14.448H80.373L82.501 19.992H82.529L84.671 14.448H85.693L83.033 21ZM92.1789 17.22C92.1509 16.604 91.9502 16.0953 91.5769 15.694C91.2129 15.2833 90.6902 15.078 90.0089 15.078C89.6916 15.078 89.3976 15.1387 89.1269 15.26C88.8562 15.372 88.6182 15.5307 88.4129 15.736C88.2076 15.932 88.0442 16.1607 87.9229 16.422C87.8016 16.674 87.7316 16.94 87.7129 17.22H92.1789ZM93.1449 17.528C93.1449 17.5933 93.1449 17.6633 93.1449 17.738C93.1449 17.8127 93.1402 17.892 93.1309 17.976H87.6989C87.7082 18.3027 87.7736 18.6107 87.8949 18.9C88.0162 19.1893 88.1842 19.4413 88.3989 19.656C88.6136 19.8707 88.8656 20.0433 89.1549 20.174C89.4442 20.2953 89.7569 20.356 90.0929 20.356C90.5876 20.356 91.0122 20.244 91.3669 20.02C91.7309 19.7867 92.0062 19.5207 92.1929 19.222L92.9069 19.782C92.5149 20.2767 92.0809 20.6313 91.6049 20.846C91.1382 21.0607 90.6342 21.168 90.0929 21.168C89.6076 21.168 89.1549 21.084 88.7349 20.916C88.3242 20.7387 87.9696 20.496 87.6709 20.188C87.3722 19.88 87.1342 19.516 86.9569 19.096C86.7889 18.676 86.7049 18.2187 86.7049 17.724C86.7049 17.2293 86.7889 16.772 86.9569 16.352C87.1249 15.932 87.3582 15.568 87.6569 15.26C87.9556 14.952 88.3056 14.714 88.7069 14.546C89.1082 14.3687 89.5422 14.28 90.0089 14.28C90.5222 14.28 90.9749 14.3687 91.3669 14.546C91.7589 14.714 92.0856 14.9473 92.3469 15.246C92.6082 15.5353 92.8042 15.876 92.9349 16.268C93.0749 16.66 93.1449 17.08 93.1449 17.528ZM98.6786 16.002C98.5386 15.7313 98.324 15.512 98.0346 15.344C97.7546 15.1667 97.4326 15.078 97.0686 15.078C96.9006 15.078 96.7326 15.0967 96.5646 15.134C96.3966 15.1713 96.2473 15.232 96.1166 15.316C95.986 15.4 95.8786 15.5073 95.7946 15.638C95.72 15.7687 95.6826 15.9227 95.6826 16.1C95.6826 16.408 95.8086 16.646 96.0606 16.814C96.3126 16.9727 96.7093 17.108 97.2506 17.22C98.0253 17.3787 98.5946 17.612 98.9586 17.92C99.332 18.2187 99.5186 18.6247 99.5186 19.138C99.5186 19.5113 99.444 19.8287 99.2946 20.09C99.1546 20.342 98.968 20.552 98.7346 20.72C98.5013 20.8787 98.2353 20.9907 97.9366 21.056C97.6473 21.1307 97.3533 21.168 97.0546 21.168C96.56 21.168 96.0793 21.0653 95.6126 20.86C95.146 20.6547 94.7633 20.3327 94.4646 19.894L95.2206 19.334C95.3886 19.6233 95.636 19.866 95.9626 20.062C96.2893 20.258 96.6486 20.356 97.0406 20.356C97.246 20.356 97.442 20.3373 97.6286 20.3C97.8153 20.2627 97.9786 20.1973 98.1186 20.104C98.2586 20.0107 98.3706 19.894 98.4546 19.754C98.5386 19.6047 98.5806 19.4227 98.5806 19.208C98.5806 18.8627 98.4126 18.606 98.0766 18.438C97.75 18.2607 97.274 18.0973 96.6486 17.948C96.4526 17.9013 96.2426 17.8453 96.0186 17.78C95.804 17.7053 95.6033 17.6027 95.4166 17.472C95.23 17.332 95.076 17.1593 94.9546 16.954C94.8333 16.7487 94.7726 16.492 94.7726 16.184C94.7726 15.848 94.838 15.5633 94.9686 15.33C95.0993 15.0873 95.272 14.8913 95.4866 14.742C95.7106 14.5833 95.9626 14.4667 96.2426 14.392C96.5226 14.3173 96.812 14.28 97.1106 14.28C97.568 14.28 98.0113 14.3827 98.4406 14.588C98.87 14.7933 99.192 15.0827 99.4066 15.456L98.6786 16.002ZM104.367 15.246H102.519V19.068C102.519 19.3107 102.543 19.5113 102.589 19.67C102.636 19.8287 102.701 19.9547 102.785 20.048C102.879 20.132 102.986 20.1927 103.107 20.23C103.229 20.258 103.359 20.272 103.499 20.272C103.63 20.272 103.765 20.2533 103.905 20.216C104.055 20.1787 104.195 20.1273 104.325 20.062L104.367 20.888C104.199 20.9533 104.022 21 103.835 21.028C103.658 21.0653 103.462 21.084 103.247 21.084C103.07 21.084 102.883 21.0607 102.687 21.014C102.491 20.9673 102.309 20.8787 102.141 20.748C101.973 20.6173 101.833 20.44 101.721 20.216C101.619 19.992 101.567 19.698 101.567 19.334V15.246H100.209V14.448H101.567V12.6H102.519V14.448H104.367V15.246ZM108.433 18.312H107.453V17.472C107.453 17.2107 107.481 16.9773 107.537 16.772C107.602 16.5573 107.686 16.366 107.789 16.198C107.901 16.03 108.022 15.8807 108.153 15.75C108.293 15.61 108.433 15.4747 108.573 15.344L108.965 14.994C109.198 14.8073 109.389 14.5927 109.539 14.35C109.697 14.1073 109.777 13.804 109.777 13.44C109.777 13.1787 109.73 12.9453 109.637 12.74C109.543 12.5347 109.417 12.362 109.259 12.222C109.1 12.082 108.913 11.9747 108.699 11.9C108.493 11.8253 108.269 11.788 108.027 11.788C107.523 11.788 107.112 11.942 106.795 12.25C106.487 12.558 106.295 12.95 106.221 13.426L105.269 13.258C105.409 12.53 105.726 11.9607 106.221 11.55C106.725 11.13 107.341 10.92 108.069 10.92C108.442 10.92 108.792 10.976 109.119 11.088C109.455 11.1907 109.744 11.3493 109.987 11.564C110.229 11.7693 110.421 12.026 110.561 12.334C110.71 12.642 110.785 12.992 110.785 13.384C110.785 13.6827 110.752 13.944 110.687 14.168C110.621 14.392 110.528 14.5927 110.407 14.77C110.295 14.9473 110.159 15.1107 110.001 15.26C109.842 15.4 109.674 15.5447 109.497 15.694C109.301 15.8527 109.133 15.9973 108.993 16.128C108.862 16.2587 108.755 16.3987 108.671 16.548C108.587 16.688 108.526 16.8467 108.489 17.024C108.451 17.2013 108.433 17.416 108.433 17.668V18.312ZM108.797 20.328C108.797 20.524 108.727 20.7013 108.587 20.86C108.447 21.0093 108.265 21.084 108.041 21.084C107.817 21.084 107.635 21.0093 107.495 20.86C107.355 20.7013 107.285 20.524 107.285 20.328C107.285 20.132 107.355 19.9593 107.495 19.81C107.635 19.6513 107.817 19.572 108.041 19.572C108.265 19.572 108.447 19.6513 108.587 19.81C108.727 19.9593 108.797 20.132 108.797 20.328Z" fill="#2A4661"/>
</svg>
