<svg width="120" height="44" viewBox="0 0 120 44" fill="none" xmlns="http://www.w3.org/2000/svg">
<rect width="108" height="33" rx="16.5" fill="#F8F2D2"/>
<path d="M54.1402 43.5835L59.6794 31.896H48.6011L54.1402 43.5835Z" fill="#F8F2D2"/>
<path d="M28.7252 16.6499C28.7289 19.2625 27.7188 21.7746 25.9077 23.6574C24.0248 25.4686 21.5127 26.4786 18.9002 26.4749C13.3082 26.4749 8.77516 21.9419 8.77516 16.3499C8.77145 13.7374 9.78149 11.2253 11.5927 9.34241C13.4755 7.53125 15.9876 6.52121 18.6002 6.52491C24.1922 6.52491 28.7252 11.0579 28.7252 16.6499Z" fill="#FFCD34"/>
<path d="M18.6003 26.7749C24.1922 26.7749 28.7253 22.2418 28.7253 16.6499C28.7253 11.058 24.1922 6.5249 18.6003 6.5249C13.0085 6.5249 8.47534 11.058 8.47534 16.6499C8.47534 22.2418 13.0085 26.7749 18.6003 26.7749Z" fill="#FEE05B"/>
<path d="M18.6001 24.5249C22.9493 24.5249 26.4751 20.9991 26.4751 16.6499C26.4751 12.3007 22.9493 8.7749 18.6001 8.7749C14.2509 8.7749 10.7251 12.3007 10.7251 16.6499C10.7251 20.9991 14.2509 24.5249 18.6001 24.5249Z" fill="#FFCD34"/>
<path d="M26.475 16.65C26.4751 18.1989 26.0185 19.7134 25.1625 21.0042C24.3064 22.295 23.0889 23.3049 21.662 23.9075C23.2932 22.8205 24.4605 21.1644 24.9359 19.2627C25.4113 17.361 25.1605 15.3505 24.2326 13.6238C23.3047 11.8971 21.7664 10.5785 19.9182 9.92546C18.07 9.27244 16.0447 9.33199 14.238 10.0925C15.4244 9.30362 16.8025 8.85132 18.2256 8.78376C19.6486 8.71621 21.0634 9.03591 22.3191 9.70883C23.5749 10.3818 24.6246 11.3827 25.3564 12.605C26.0883 13.8273 26.4749 15.2253 26.475 16.65V16.65Z" fill="#E6BA24"/>
<path d="M25.175 17.35C25.1758 18.648 24.8554 19.926 24.2425 21.0702C23.6295 22.2143 22.7431 23.189 21.662 23.9075C19.8552 24.6695 17.829 24.7301 15.9799 24.0774C14.1307 23.4248 12.5915 22.1058 11.6632 20.3784C10.735 18.6511 10.4844 16.6396 10.9606 14.7373C11.4368 12.835 12.6055 11.1788 14.238 10.0925C15.4355 9.58833 16.739 9.38811 18.0326 9.50965C19.3262 9.63119 20.5696 10.0707 21.6522 10.7891C22.7348 11.5075 23.623 12.4824 24.2376 13.6271C24.8522 14.7718 25.1743 16.0507 25.175 17.35V17.35Z" fill="#F9C42E"/>
<path d="M18.5 24.5249C22.8492 24.5249 26.375 20.9991 26.375 16.6499C26.375 12.3007 22.8492 8.7749 18.5 8.7749C14.1508 8.7749 10.625 12.3007 10.625 16.6499C10.625 20.9991 14.1508 24.5249 18.5 24.5249Z" stroke="#E6BA24" stroke-width="3" stroke-miterlimit="10"/>
<path d="M25.9076 23.6573C24.9639 24.6443 23.8296 25.4295 22.5735 25.9654C21.3175 26.5012 19.9657 26.7766 18.6001 26.7748C13.0081 26.7748 8.47511 22.2418 8.47511 16.6498C8.4733 15.2842 8.74867 13.9324 9.28453 12.6764C9.82039 11.4203 10.6056 10.286 11.5926 9.34229C9.78144 11.2251 8.7714 13.7372 8.77511 16.3498C8.77511 21.9418 13.3081 26.4748 18.9001 26.4748C21.5127 26.4785 24.0248 25.4685 25.9076 23.6573V23.6573Z" fill="#E6BA24"/>
<path d="M14.603 21.3859C14.369 21.2324 13.1645 17.8909 14.8625 15.6519C15.2265 15.1724 15.6055 14.9159 16.3385 14.4244C17.532 13.6244 18.8885 13.1559 19.76 12.8509C20.496 12.5929 22.2 11.7509 22.472 11.4224C22.493 11.3979 22.5805 11.2919 22.662 11.3054C22.7045 11.3124 22.729 11.3554 22.744 11.3849C22.82 11.5294 24.2795 17.2489 21.7385 20.0404C20.1705 21.7634 18.23 21.8904 17.105 21.9954C17.0445 22.0009 16.3375 21.9454 16.276 21.9039C16.276 21.9039 16.237 21.8779 16.2005 21.8474C16.141 21.7974 15.703 21.0884 15.8815 19.6114C16 18.676 16.3875 17.7952 16.997 17.0759C18.452 15.3789 20.447 15.1909 20.447 15.0319C20.447 14.9454 17.5225 15.3884 16.472 16.3069C15.65 17.0274 15.243 17.7039 15.0265 18.2499C14.89 18.5765 14.796 18.9193 14.747 19.2699C14.602 20.3434 14.697 21.2809 14.6875 21.3699C14.685 21.3939 14.6405 21.4104 14.603 21.3859Z" fill="#FFCD34"/>
<path d="M22.5306 11.3608C22.5186 11.3723 22.4971 11.3933 22.4721 11.4213C21.8031 12.1663 22.5501 13.2998 22.1501 14.1148C22.1286 14.1572 22.1039 14.1978 22.0761 14.2363C21.6401 14.8863 20.8261 15.0483 20.4486 15.1273C18.7381 15.4833 17.8826 15.6618 17.0891 16.1238C16.6107 16.397 16.1861 16.755 15.8361 17.1803C15.6496 17.4143 15.0596 18.2598 14.9081 19.2473C14.7371 20.3608 14.7906 20.9253 14.7961 21.3523C14.7961 21.4088 14.7201 21.4618 14.6901 21.4638C14.6726 21.4778 14.5796 21.4528 14.5466 21.4753C14.2466 21.6808 13.9086 21.7453 13.7126 21.7083C13.1386 21.6003 12.9721 20.1358 12.9371 19.6928C12.8811 19.0495 12.9117 18.4015 13.0281 17.7663C13.2373 16.9682 13.6163 16.2247 14.1391 15.5863C15.0716 14.4863 16.8046 13.7308 18.3016 13.1863C18.3016 13.1863 19.8146 12.6328 20.5331 12.3238C20.8891 12.1708 21.2831 11.9873 21.3676 11.9488C21.8536 11.7233 22.0896 11.5988 22.2111 11.5363C22.3436 11.4653 22.4546 11.4038 22.5306 11.3608Z" fill="#E6BA24"/>
<path d="M21.7385 20.0402C20.1705 21.7632 18.23 21.8902 17.105 21.9952C17.0445 22.0007 16.3375 21.9452 16.276 21.9037C16.276 21.9037 16.237 21.8777 16.2005 21.8472C16.141 21.7972 15.703 21.0882 15.8815 19.6112C16 18.6759 16.3875 17.7951 16.997 17.0757C17.3838 16.6272 17.8395 16.243 18.347 15.9377V15.9377C19.447 15.2712 20.447 15.1442 20.447 15.0317C20.447 15.0277 20.4405 15.0247 20.4275 15.0232C20.245 14.9987 18.822 15.2167 17.6575 15.6602C17.1875 15.8397 16.7575 16.0552 16.472 16.3067C15.65 17.0272 15.243 17.7037 15.0265 18.2497C14.8899 18.5763 14.796 18.9192 14.747 19.2697C14.602 20.3432 14.697 21.2807 14.6875 21.3697C14.685 21.3932 14.6405 21.4097 14.603 21.3852C14.581 21.3669 14.5625 21.3447 14.5485 21.3197L14.542 21.3097C14.2175 20.7782 13.281 17.7367 14.8625 15.6512C15.2265 15.1717 15.5375 14.8457 16.2835 14.3742C17.507 13.5997 18.8905 13.1557 19.76 12.8497C20.496 12.5917 22.2 11.7497 22.472 11.4212C22.49 11.3997 22.5095 11.3794 22.5305 11.3607C22.5471 11.3425 22.5675 11.328 22.5901 11.3183C22.6128 11.3085 22.6373 11.3038 22.662 11.3042C22.7045 11.3112 22.729 11.3542 22.744 11.3837C22.747 11.3907 22.75 11.3977 22.7525 11.4052C22.771 11.4597 22.81 11.6022 22.858 11.8162C23.1745 13.2212 23.888 17.6782 21.7385 20.0402Z" fill="#FEE05B"/>
<path d="M23.3616 16.5613C23.2356 17.4613 23.0931 18.4793 22.3681 19.5428C21.7096 20.5083 20.9181 20.9978 20.3616 21.3428C18.9396 22.2228 17.7271 22.3373 16.3491 22.4678C15.9661 22.5038 15.6991 22.5093 15.4551 22.3488C14.6551 21.8228 14.9811 20.0903 15.0741 19.5988C15.0741 19.5988 15.3391 18.2108 16.5556 16.6738C16.782 16.3744 17.0592 16.1172 17.3746 15.9138C17.5666 15.7928 17.7171 15.7303 18.0181 15.6053C18.7291 15.3103 18.7046 15.4363 19.4111 15.1663C19.4111 15.1663 19.9196 14.9663 20.4276 15.0233C20.4406 15.0233 20.4471 15.0278 20.4471 15.0318C20.4471 15.1443 19.4471 15.2713 18.3471 15.9378C17.8396 16.2431 17.3839 16.6273 16.9971 17.0758C16.3877 17.7952 16.0001 18.676 15.8816 19.6113C15.7031 21.0883 16.1411 21.7998 16.2001 21.8498C16.2366 21.8803 16.2756 21.9063 16.2756 21.9063C16.3371 21.9468 17.0441 22.0033 17.1046 21.9978C18.2296 21.8923 20.1701 21.7658 21.7381 20.0428C23.8881 17.6808 23.1741 13.2238 22.8576 11.8198C22.9836 12.2016 23.0891 12.5898 23.1736 12.9828C23.3226 13.6668 23.5876 14.9498 23.3616 16.5613Z" fill="#E6BA24"/>
<path d="M36.1787 16.338H39.3287V17.178H36.1787V20.328H35.3387V17.178H32.1887V16.338H35.3387V13.188H36.1787V16.338ZM45.4329 21H44.4249V12.334L42.6329 13.86L42.0169 13.16L44.5369 11.088H45.4329V21ZM55.598 21H49.256V19.95L53.316 15.848C53.4653 15.6987 53.61 15.54 53.75 15.372C53.8993 15.1947 54.03 15.0127 54.142 14.826C54.254 14.6393 54.3427 14.4433 54.408 14.238C54.4733 14.0233 54.506 13.804 54.506 13.58C54.506 13.2907 54.4547 13.0293 54.352 12.796C54.2493 12.5627 54.1047 12.3667 53.918 12.208C53.7407 12.04 53.5307 11.914 53.288 11.83C53.0547 11.7367 52.8073 11.69 52.546 11.69C52.014 11.69 51.566 11.858 51.202 12.194C50.838 12.5207 50.6047 12.9407 50.502 13.454L49.508 13.258C49.5733 12.9127 49.6947 12.5907 49.872 12.292C50.0587 11.9933 50.2827 11.7367 50.544 11.522C50.8147 11.3073 51.118 11.1393 51.454 11.018C51.79 10.8967 52.154 10.836 52.546 10.836C52.9473 10.836 53.3253 10.8967 53.68 11.018C54.044 11.13 54.3613 11.3027 54.632 11.536C54.9027 11.76 55.1173 12.0447 55.276 12.39C55.444 12.726 55.528 13.118 55.528 13.566C55.528 13.8833 55.4813 14.1773 55.388 14.448C55.304 14.7187 55.1873 14.9753 55.038 15.218C54.898 15.4607 54.73 15.694 54.534 15.918C54.338 16.1327 54.1327 16.3473 53.918 16.562L50.348 20.104H55.598V21ZM60.7231 10.836C61.3391 10.836 61.8524 10.99 62.2631 11.298C62.6831 11.5967 63.0191 11.9933 63.2711 12.488C63.5231 12.9733 63.7004 13.5287 63.8031 14.154C63.9151 14.7793 63.9711 15.414 63.9711 16.058C63.9711 16.702 63.9151 17.3367 63.8031 17.962C63.7004 18.578 63.5231 19.1333 63.2711 19.628C63.0191 20.1133 62.6831 20.5053 62.2631 20.804C61.8524 21.1027 61.3391 21.252 60.7231 21.252C60.0978 21.252 59.5751 21.1027 59.1551 20.804C58.7444 20.5053 58.4131 20.1133 58.1611 19.628C57.9091 19.1333 57.7318 18.578 57.6291 17.962C57.5264 17.3367 57.4751 16.702 57.4751 16.058C57.4751 15.414 57.5264 14.7793 57.6291 14.154C57.7318 13.5287 57.9091 12.9733 58.1611 12.488C58.4131 11.9933 58.7444 11.5967 59.1551 11.298C59.5751 10.99 60.0978 10.836 60.7231 10.836ZM60.7231 11.69C60.2844 11.69 59.9204 11.8253 59.6311 12.096C59.3418 12.3667 59.1131 12.712 58.9451 13.132C58.7771 13.552 58.6604 14.0233 58.5951 14.546C58.5298 15.0593 58.4971 15.5633 58.4971 16.058C58.4971 16.5527 58.5298 17.0567 58.5951 17.57C58.6604 18.0833 58.7771 18.55 58.9451 18.97C59.1131 19.3807 59.3418 19.7213 59.6311 19.992C59.9204 20.2533 60.2844 20.384 60.7231 20.384C61.1524 20.384 61.5118 20.2533 61.8011 19.992C62.0904 19.7213 62.3191 19.3807 62.4871 18.97C62.6551 18.55 62.7718 18.0833 62.8371 17.57C62.9118 17.0567 62.9491 16.5527 62.9491 16.058C62.9491 15.5633 62.9118 15.0593 62.8371 14.546C62.7718 14.0233 62.6551 13.552 62.4871 13.132C62.3191 12.712 62.0904 12.3667 61.8011 12.096C61.5118 11.8253 61.1524 11.69 60.7231 11.69ZM70.4822 15.568C70.6688 15.1853 70.9535 14.8773 71.3362 14.644C71.7282 14.4013 72.1622 14.28 72.6382 14.28C72.8155 14.28 72.9975 14.2987 73.1842 14.336C73.3802 14.3733 73.5668 14.448 73.7442 14.56C73.9308 14.6627 74.0988 14.8027 74.2482 14.98C74.4068 15.1573 74.5422 15.386 74.6542 15.666C74.8782 15.218 75.1815 14.8773 75.5642 14.644C75.9562 14.4013 76.4182 14.28 76.9502 14.28C77.7808 14.28 78.4015 14.5273 78.8122 15.022C79.2322 15.5167 79.4422 16.17 79.4422 16.982V21H78.4902V17.374C78.4902 16.6833 78.3595 16.128 78.0982 15.708C77.8462 15.288 77.4122 15.078 76.7962 15.078C76.4508 15.078 76.1568 15.148 75.9142 15.288C75.6808 15.428 75.4895 15.6147 75.3402 15.848C75.2002 16.072 75.0975 16.3287 75.0322 16.618C74.9668 16.9073 74.9342 17.206 74.9342 17.514V21H73.9822V17.178C73.9822 16.8607 73.9588 16.5713 73.9122 16.31C73.8655 16.0487 73.7815 15.8293 73.6602 15.652C73.5482 15.4653 73.3895 15.3253 73.1842 15.232C72.9788 15.1293 72.7175 15.078 72.4002 15.078C72.1762 15.078 71.9475 15.1293 71.7142 15.232C71.4902 15.3347 71.2848 15.4933 71.0982 15.708C70.9208 15.9133 70.7762 16.1793 70.6642 16.506C70.5522 16.8233 70.4962 17.2013 70.4962 17.64V21H69.5442V15.89C69.5442 15.7127 69.5395 15.484 69.5302 15.204C69.5208 14.924 69.5068 14.672 69.4882 14.448H70.3982C70.4168 14.6253 70.4308 14.8213 70.4402 15.036C70.4495 15.2507 70.4542 15.428 70.4542 15.568H70.4822ZM86.0336 16.772C86.0336 16.2027 85.8842 15.778 85.5856 15.498C85.2869 15.218 84.8529 15.078 84.2836 15.078C83.8916 15.078 83.5276 15.148 83.1916 15.288C82.8556 15.428 82.5709 15.6147 82.3376 15.848L81.8056 15.218C82.0762 14.9473 82.4309 14.7233 82.8696 14.546C83.3176 14.3687 83.8216 14.28 84.3816 14.28C84.7362 14.28 85.0676 14.3313 85.3756 14.434C85.6836 14.5273 85.9542 14.672 86.1876 14.868C86.4209 15.064 86.6029 15.3113 86.7336 15.61C86.8642 15.9087 86.9296 16.2587 86.9296 16.66V19.53C86.9296 19.782 86.9389 20.0433 86.9576 20.314C86.9762 20.5847 87.0042 20.8133 87.0416 21H86.1876C86.1596 20.8413 86.1362 20.6687 86.1176 20.482C86.0989 20.2953 86.0896 20.1133 86.0896 19.936H86.0616C85.7629 20.3747 85.4222 20.692 85.0396 20.888C84.6662 21.0747 84.2136 21.168 83.6816 21.168C83.4296 21.168 83.1682 21.1307 82.8976 21.056C82.6362 20.9907 82.3936 20.8787 82.1696 20.72C81.9549 20.5613 81.7729 20.356 81.6236 20.104C81.4836 19.852 81.4136 19.544 81.4136 19.18C81.4136 18.676 81.5396 18.2793 81.7916 17.99C82.0529 17.6913 82.3982 17.472 82.8276 17.332C83.2569 17.1827 83.7469 17.0893 84.2976 17.052C84.8576 17.0053 85.4362 16.982 86.0336 16.982V16.772ZM85.7536 17.724C85.3616 17.724 84.9649 17.7427 84.5636 17.78C84.1716 17.808 83.8122 17.8733 83.4856 17.976C83.1682 18.0693 82.9069 18.2093 82.7016 18.396C82.4962 18.5827 82.3936 18.83 82.3936 19.138C82.3936 19.3713 82.4356 19.5673 82.5196 19.726C82.6129 19.8847 82.7342 20.0153 82.8836 20.118C83.0329 20.2113 83.1962 20.2813 83.3736 20.328C83.5602 20.3653 83.7469 20.384 83.9336 20.384C84.2696 20.384 84.5682 20.328 84.8296 20.216C85.0909 20.0947 85.3102 19.936 85.4876 19.74C85.6649 19.5347 85.8002 19.3013 85.8936 19.04C85.9869 18.7787 86.0336 18.5033 86.0336 18.214V17.724H85.7536ZM90.9221 17.612L88.5001 14.448H89.7181L91.5101 16.94L93.3021 14.448H94.4501L92.0701 17.57L94.6741 21H93.4421L91.4961 18.27L89.4941 21H88.3461L90.9221 17.612Z" fill="#2A4661"/>
</svg>
