<svg width="163" height="44" viewBox="0 0 163 44" fill="none" xmlns="http://www.w3.org/2000/svg">
<rect width="163" height="33" rx="16.5" fill="#E2E2E2"/>
<path d="M80.3343 43.5835L87.552 31.896H73.1166L80.3343 43.5835Z" fill="#E2E2E2"/>
<path d="M17.7333 15.372H18.1673C18.4846 15.372 18.7833 15.3393 19.0633 15.274C19.3433 15.2087 19.586 15.106 19.7913 14.966C20.006 14.8167 20.174 14.6253 20.2953 14.392C20.4166 14.1587 20.4773 13.8787 20.4773 13.552C20.4773 13.272 20.426 13.02 20.3233 12.796C20.2206 12.5627 20.076 12.3667 19.8893 12.208C19.712 12.04 19.502 11.914 19.2593 11.83C19.026 11.7367 18.7786 11.69 18.5173 11.69C18.0973 11.69 17.724 11.788 17.3973 11.984C17.08 12.18 16.8233 12.4693 16.6273 12.852L15.7733 12.404C16.0813 11.872 16.4733 11.48 16.9493 11.228C17.4253 10.9667 17.9666 10.836 18.5733 10.836C18.9653 10.836 19.334 10.8967 19.6793 11.018C20.034 11.13 20.342 11.298 20.6033 11.522C20.874 11.746 21.084 12.026 21.2333 12.362C21.392 12.6887 21.4713 13.0667 21.4713 13.496C21.4713 14.084 21.308 14.5787 20.9813 14.98C20.6546 15.372 20.244 15.6333 19.7493 15.764V15.792C20.3186 15.9133 20.7946 16.1887 21.1773 16.618C21.56 17.038 21.7513 17.584 21.7513 18.256C21.7513 18.732 21.6626 19.1567 21.4853 19.53C21.3173 19.894 21.0886 20.2067 20.7993 20.468C20.51 20.72 20.1693 20.9113 19.7773 21.042C19.3946 21.182 18.9886 21.252 18.5593 21.252C17.8313 21.252 17.1966 21.0793 16.6553 20.734C16.114 20.3793 15.7033 19.8753 15.4233 19.222L16.3753 18.872C16.5433 19.348 16.8233 19.7213 17.2153 19.992C17.6073 20.2533 18.0553 20.384 18.5593 20.384C18.8393 20.384 19.11 20.3373 19.3713 20.244C19.642 20.1413 19.8753 20.0013 20.0713 19.824C20.2766 19.6373 20.44 19.4133 20.5613 19.152C20.6826 18.8907 20.7433 18.592 20.7433 18.256C20.7433 17.8827 20.6686 17.57 20.5193 17.318C20.3793 17.0567 20.188 16.8467 19.9453 16.688C19.7026 16.5293 19.4273 16.4173 19.1193 16.352C18.8113 16.2773 18.494 16.24 18.1673 16.24H17.7333V15.372ZM31.5384 18.004H26.7784V17.206H31.5384V18.004ZM39.6161 21H38.6081V11.984H35.2901V11.088H42.9341V11.984H39.6161V21ZM45.1284 15.526C45.3057 15.1433 45.5997 14.84 46.0104 14.616C46.421 14.392 46.8597 14.28 47.3264 14.28C48.157 14.28 48.7777 14.5273 49.1884 15.022C49.6084 15.5167 49.8184 16.17 49.8184 16.982V21H48.8664V17.374C48.8664 17.0287 48.8384 16.716 48.7824 16.436C48.7264 16.156 48.6284 15.918 48.4884 15.722C48.3577 15.5167 48.1757 15.358 47.9424 15.246C47.7184 15.134 47.4337 15.078 47.0884 15.078C46.8364 15.078 46.589 15.1293 46.3464 15.232C46.113 15.3347 45.903 15.4933 45.7164 15.708C45.5297 15.9133 45.3804 16.1793 45.2684 16.506C45.1564 16.8233 45.1004 17.2013 45.1004 17.64V21H44.1484V10.416H45.1004V15.526H45.1284ZM57.2805 17.22C57.2525 16.604 57.0518 16.0953 56.6785 15.694C56.3145 15.2833 55.7918 15.078 55.1105 15.078C54.7931 15.078 54.4991 15.1387 54.2285 15.26C53.9578 15.372 53.7198 15.5307 53.5145 15.736C53.3091 15.932 53.1458 16.1607 53.0245 16.422C52.9031 16.674 52.8331 16.94 52.8145 17.22H57.2805ZM58.2465 17.528C58.2465 17.5933 58.2465 17.6633 58.2465 17.738C58.2465 17.8127 58.2418 17.892 58.2325 17.976H52.8005C52.8098 18.3027 52.8751 18.6107 52.9965 18.9C53.1178 19.1893 53.2858 19.4413 53.5005 19.656C53.7151 19.8707 53.9671 20.0433 54.2565 20.174C54.5458 20.2953 54.8585 20.356 55.1945 20.356C55.6891 20.356 56.1138 20.244 56.4685 20.02C56.8325 19.7867 57.1078 19.5207 57.2945 19.222L58.0085 19.782C57.6165 20.2767 57.1825 20.6313 56.7065 20.846C56.2398 21.0607 55.7358 21.168 55.1945 21.168C54.7091 21.168 54.2565 21.084 53.8365 20.916C53.4258 20.7387 53.0711 20.496 52.7725 20.188C52.4738 19.88 52.2358 19.516 52.0585 19.096C51.8905 18.676 51.8065 18.2187 51.8065 17.724C51.8065 17.2293 51.8905 16.772 52.0585 16.352C52.2265 15.932 52.4598 15.568 52.7585 15.26C53.0571 14.952 53.4071 14.714 53.8085 14.546C54.2098 14.3687 54.6438 14.28 55.1105 14.28C55.6238 14.28 56.0765 14.3687 56.4685 14.546C56.8605 14.714 57.1871 14.9473 57.4485 15.246C57.7098 15.5353 57.9058 15.876 58.0365 16.268C58.1765 16.66 58.2465 17.08 58.2465 17.528ZM68.6522 12.684C68.4375 12.3853 68.1622 12.1473 67.8262 11.97C67.4902 11.7833 67.0842 11.69 66.6082 11.69C66.3655 11.69 66.1182 11.7273 65.8662 11.802C65.6142 11.8767 65.3855 11.9933 65.1802 12.152C64.9748 12.3013 64.8068 12.4927 64.6762 12.726C64.5548 12.9593 64.4942 13.2347 64.4942 13.552C64.4942 13.8693 64.5548 14.1307 64.6762 14.336C64.7975 14.5413 64.9562 14.7187 65.1522 14.868C65.3575 15.008 65.5862 15.1247 65.8382 15.218C66.0995 15.3113 66.3702 15.4047 66.6502 15.498C66.9955 15.61 67.3408 15.7313 67.6862 15.862C68.0408 15.9927 68.3582 16.1653 68.6382 16.38C68.9182 16.5853 69.1468 16.8513 69.3242 17.178C69.5015 17.4953 69.5902 17.9013 69.5902 18.396C69.5902 18.8907 69.4922 19.32 69.2962 19.684C69.1095 20.0387 68.8622 20.3327 68.5542 20.566C68.2555 20.7993 67.9102 20.972 67.5182 21.084C67.1355 21.196 66.7482 21.252 66.3562 21.252C66.0575 21.252 65.7588 21.2193 65.4602 21.154C65.1615 21.098 64.8768 21.0093 64.6062 20.888C64.3355 20.7667 64.0835 20.6127 63.8502 20.426C63.6168 20.2393 63.4115 20.0247 63.2342 19.782L64.1022 19.138C64.3168 19.4927 64.6155 19.7913 64.9982 20.034C65.3902 20.2673 65.8475 20.384 66.3702 20.384C66.6222 20.384 66.8788 20.3467 67.1402 20.272C67.4015 20.188 67.6348 20.0667 67.8402 19.908C68.0548 19.74 68.2275 19.5393 68.3582 19.306C68.4982 19.0633 68.5682 18.7833 68.5682 18.466C68.5682 18.1207 68.4982 17.836 68.3582 17.612C68.2275 17.3787 68.0502 17.1873 67.8262 17.038C67.6022 16.8793 67.3455 16.7487 67.0562 16.646C66.7668 16.5433 66.4635 16.4407 66.1462 16.338C65.8195 16.2353 65.4975 16.1187 65.1802 15.988C64.8628 15.8573 64.5782 15.6893 64.3262 15.484C64.0742 15.2693 63.8688 15.008 63.7102 14.7C63.5608 14.392 63.4862 14.014 63.4862 13.566C63.4862 13.09 63.5795 12.6793 63.7662 12.334C63.9622 11.9887 64.2142 11.704 64.5222 11.48C64.8302 11.256 65.1708 11.0927 65.5442 10.99C65.9175 10.8873 66.2862 10.836 66.6502 10.836C67.3222 10.836 67.8962 10.9573 68.3722 11.2C68.8482 11.4333 69.2075 11.7133 69.4502 12.04L68.6522 12.684ZM74.5685 15.246H72.7205V19.068C72.7205 19.3107 72.7438 19.5113 72.7905 19.67C72.8372 19.8287 72.9025 19.9547 72.9865 20.048C73.0798 20.132 73.1872 20.1927 73.3085 20.23C73.4298 20.258 73.5605 20.272 73.7005 20.272C73.8312 20.272 73.9665 20.2533 74.1065 20.216C74.2558 20.1787 74.3958 20.1273 74.5265 20.062L74.5685 20.888C74.4005 20.9533 74.2232 21 74.0365 21.028C73.8592 21.0653 73.6632 21.084 73.4485 21.084C73.2712 21.084 73.0845 21.0607 72.8885 21.014C72.6925 20.9673 72.5105 20.8787 72.3425 20.748C72.1745 20.6173 72.0345 20.44 71.9225 20.216C71.8198 19.992 71.7685 19.698 71.7685 19.334V15.246H70.4105V14.448H71.7685V12.6H72.7205V14.448H74.5685V15.246ZM82.5679 17.724C82.5679 18.2187 82.4792 18.676 82.3019 19.096C82.1339 19.516 81.8959 19.88 81.5879 20.188C81.2799 20.496 80.9112 20.7387 80.4819 20.916C80.0525 21.084 79.5812 21.168 79.0679 21.168C78.5639 21.168 78.0972 21.084 77.6679 20.916C77.2385 20.7387 76.8699 20.496 76.5619 20.188C76.2539 19.88 76.0112 19.516 75.8339 19.096C75.6659 18.676 75.5819 18.2187 75.5819 17.724C75.5819 17.2293 75.6659 16.772 75.8339 16.352C76.0112 15.932 76.2539 15.568 76.5619 15.26C76.8699 14.952 77.2385 14.714 77.6679 14.546C78.0972 14.3687 78.5639 14.28 79.0679 14.28C79.5812 14.28 80.0525 14.3687 80.4819 14.546C80.9112 14.714 81.2799 14.952 81.5879 15.26C81.8959 15.568 82.1339 15.932 82.3019 16.352C82.4792 16.772 82.5679 17.2293 82.5679 17.724ZM81.5599 17.724C81.5599 17.36 81.4992 17.0193 81.3779 16.702C81.2659 16.3753 81.1025 16.0953 80.8879 15.862C80.6732 15.6193 80.4119 15.428 80.1039 15.288C79.7959 15.148 79.4505 15.078 79.0679 15.078C78.6852 15.078 78.3399 15.148 78.0319 15.288C77.7332 15.428 77.4765 15.6193 77.2619 15.862C77.0472 16.0953 76.8792 16.3753 76.7579 16.702C76.6459 17.0193 76.5899 17.36 76.5899 17.724C76.5899 18.088 76.6459 18.4333 76.7579 18.76C76.8792 19.0773 77.0472 19.3573 77.2619 19.6C77.4765 19.8333 77.7332 20.02 78.0319 20.16C78.3399 20.2907 78.6852 20.356 79.0679 20.356C79.4505 20.356 79.7959 20.2907 80.1039 20.16C80.4119 20.02 80.6732 19.8333 80.8879 19.6C81.1025 19.3573 81.2659 19.0773 81.3779 18.76C81.4992 18.4333 81.5599 18.088 81.5599 17.724ZM89.3344 15.946C89.1758 15.694 88.9424 15.4887 88.6344 15.33C88.3358 15.162 88.0091 15.078 87.6544 15.078C87.2718 15.078 86.9264 15.148 86.6184 15.288C86.3104 15.4187 86.0444 15.6053 85.8204 15.848C85.6058 16.0813 85.4378 16.3613 85.3164 16.688C85.2044 17.0053 85.1484 17.3507 85.1484 17.724C85.1484 18.0973 85.2044 18.4427 85.3164 18.76C85.4378 19.0773 85.6058 19.3573 85.8204 19.6C86.0351 19.8333 86.2964 20.02 86.6044 20.16C86.9124 20.2907 87.2578 20.356 87.6404 20.356C88.0604 20.356 88.4151 20.2767 88.7044 20.118C88.9938 19.9593 89.2318 19.754 89.4184 19.502L90.1324 20.034C89.8524 20.3793 89.5071 20.6547 89.0964 20.86C88.6951 21.0653 88.2098 21.168 87.6404 21.168C87.1084 21.168 86.6278 21.084 86.1984 20.916C85.7691 20.7387 85.4004 20.496 85.0924 20.188C84.7938 19.88 84.5604 19.516 84.3924 19.096C84.2244 18.676 84.1404 18.2187 84.1404 17.724C84.1404 17.2293 84.2244 16.772 84.3924 16.352C84.5604 15.932 84.7938 15.568 85.0924 15.26C85.4004 14.952 85.7691 14.714 86.1984 14.546C86.6278 14.3687 87.1084 14.28 87.6404 14.28C88.0791 14.28 88.5224 14.378 88.9704 14.574C89.4278 14.7607 89.7964 15.0407 90.0764 15.414L89.3344 15.946ZM92.5964 17.402H92.6384L95.6624 14.448H97.0344L93.7304 17.444L97.3704 21H95.9704L92.6384 17.556H92.5964V21H91.6444V10.416H92.5964V17.402ZM107.209 19.292H107.223L110.541 11.088H112.081V21H111.073V12.39H111.045L107.461 21H106.929L103.345 12.39H103.317V21H102.309V11.088H103.849L107.209 19.292ZM118.784 16.772C118.784 16.2027 118.634 15.778 118.336 15.498C118.037 15.218 117.603 15.078 117.034 15.078C116.642 15.078 116.278 15.148 115.942 15.288C115.606 15.428 115.321 15.6147 115.088 15.848L114.556 15.218C114.826 14.9473 115.181 14.7233 115.62 14.546C116.068 14.3687 116.572 14.28 117.132 14.28C117.486 14.28 117.818 14.3313 118.126 14.434C118.434 14.5273 118.704 14.672 118.938 14.868C119.171 15.064 119.353 15.3113 119.484 15.61C119.614 15.9087 119.68 16.2587 119.68 16.66V19.53C119.68 19.782 119.689 20.0433 119.708 20.314C119.726 20.5847 119.754 20.8133 119.792 21H118.938C118.91 20.8413 118.886 20.6687 118.868 20.482C118.849 20.2953 118.84 20.1133 118.84 19.936H118.812C118.513 20.3747 118.172 20.692 117.79 20.888C117.416 21.0747 116.964 21.168 116.432 21.168C116.18 21.168 115.918 21.1307 115.648 21.056C115.386 20.9907 115.144 20.8787 114.92 20.72C114.705 20.5613 114.523 20.356 114.374 20.104C114.234 19.852 114.164 19.544 114.164 19.18C114.164 18.676 114.29 18.2793 114.542 17.99C114.803 17.6913 115.148 17.472 115.578 17.332C116.007 17.1827 116.497 17.0893 117.048 17.052C117.608 17.0053 118.186 16.982 118.784 16.982V16.772ZM118.504 17.724C118.112 17.724 117.715 17.7427 117.314 17.78C116.922 17.808 116.562 17.8733 116.236 17.976C115.918 18.0693 115.657 18.2093 115.452 18.396C115.246 18.5827 115.144 18.83 115.144 19.138C115.144 19.3713 115.186 19.5673 115.27 19.726C115.363 19.8847 115.484 20.0153 115.634 20.118C115.783 20.2113 115.946 20.2813 116.124 20.328C116.31 20.3653 116.497 20.384 116.684 20.384C117.02 20.384 117.318 20.328 117.58 20.216C117.841 20.0947 118.06 19.936 118.238 19.74C118.415 19.5347 118.55 19.3013 118.644 19.04C118.737 18.7787 118.784 18.5033 118.784 18.214V17.724H118.504ZM122.132 15.89C122.132 15.7127 122.127 15.484 122.118 15.204C122.109 14.924 122.095 14.672 122.076 14.448H122.986C123.005 14.6253 123.019 14.8213 123.028 15.036C123.037 15.2507 123.042 15.428 123.042 15.568H123.07C123.257 15.1853 123.537 14.8773 123.91 14.644C124.283 14.4013 124.703 14.28 125.17 14.28C125.291 14.28 125.399 14.2847 125.492 14.294C125.595 14.3033 125.697 14.322 125.8 14.35L125.674 15.246C125.618 15.2273 125.525 15.2087 125.394 15.19C125.263 15.1713 125.133 15.162 125.002 15.162C124.75 15.162 124.507 15.2087 124.274 15.302C124.041 15.3953 123.835 15.5447 123.658 15.75C123.49 15.946 123.35 16.2027 123.238 16.52C123.135 16.828 123.084 17.2013 123.084 17.64V21H122.132V15.89ZM128.157 17.402H128.199L131.223 14.448H132.595L129.291 17.444L132.931 21H131.531L128.199 17.556H128.157V21H127.205V10.416H128.157V17.402ZM139.066 17.22C139.038 16.604 138.837 16.0953 138.464 15.694C138.1 15.2833 137.577 15.078 136.896 15.078C136.578 15.078 136.284 15.1387 136.014 15.26C135.743 15.372 135.505 15.5307 135.3 15.736C135.094 15.932 134.931 16.1607 134.81 16.422C134.688 16.674 134.618 16.94 134.6 17.22H139.066ZM140.032 17.528C140.032 17.5933 140.032 17.6633 140.032 17.738C140.032 17.8127 140.027 17.892 140.018 17.976H134.586C134.595 18.3027 134.66 18.6107 134.782 18.9C134.903 19.1893 135.071 19.4413 135.286 19.656C135.5 19.8707 135.752 20.0433 136.042 20.174C136.331 20.2953 136.644 20.356 136.98 20.356C137.474 20.356 137.899 20.244 138.254 20.02C138.618 19.7867 138.893 19.5207 139.08 19.222L139.794 19.782C139.402 20.2767 138.968 20.6313 138.492 20.846C138.025 21.0607 137.521 21.168 136.98 21.168C136.494 21.168 136.042 21.084 135.622 20.916C135.211 20.7387 134.856 20.496 134.558 20.188C134.259 19.88 134.021 19.516 133.844 19.096C133.676 18.676 133.592 18.2187 133.592 17.724C133.592 17.2293 133.676 16.772 133.844 16.352C134.012 15.932 134.245 15.568 134.544 15.26C134.842 14.952 135.192 14.714 135.594 14.546C135.995 14.3687 136.429 14.28 136.896 14.28C137.409 14.28 137.862 14.3687 138.254 14.546C138.646 14.714 138.972 14.9473 139.234 15.246C139.495 15.5353 139.691 15.876 139.822 16.268C139.962 16.66 140.032 17.08 140.032 17.528ZM145.033 15.246H143.185V19.068C143.185 19.3107 143.209 19.5113 143.255 19.67C143.302 19.8287 143.367 19.9547 143.451 20.048C143.545 20.132 143.652 20.1927 143.773 20.23C143.895 20.258 144.025 20.272 144.165 20.272C144.296 20.272 144.431 20.2533 144.571 20.216C144.721 20.1787 144.861 20.1273 144.991 20.062L145.033 20.888C144.865 20.9533 144.688 21 144.501 21.028C144.324 21.0653 144.128 21.084 143.913 21.084C143.736 21.084 143.549 21.0607 143.353 21.014C143.157 20.9673 142.975 20.8787 142.807 20.748C142.639 20.6173 142.499 20.44 142.387 20.216C142.285 19.992 142.233 19.698 142.233 19.334V15.246H140.875V14.448H142.233V12.6H143.185V14.448H145.033V15.246Z" fill="#2A4661"/>
</svg>
