<svg width="120" height="44" viewBox="0 0 120 44" fill="none" xmlns="http://www.w3.org/2000/svg">
<rect width="108" height="33" rx="16.5" fill="#F8F2D2"/>
<path d="M54.1402 43.5835L59.6794 31.896H48.6011L54.1402 43.5835Z" fill="#F8F2D2"/>
<path d="M28.7252 16.6499C28.7289 19.2625 27.7188 21.7746 25.9077 23.6574C24.0248 25.4686 21.5127 26.4786 18.9002 26.4749C13.3082 26.4749 8.77516 21.9419 8.77516 16.3499C8.77145 13.7374 9.78149 11.2253 11.5927 9.34241C13.4755 7.53125 15.9876 6.52121 18.6002 6.52491C24.1922 6.52491 28.7252 11.0579 28.7252 16.6499Z" fill="#FFCD34"/>
<path d="M18.6003 26.7749C24.1922 26.7749 28.7253 22.2418 28.7253 16.6499C28.7253 11.058 24.1922 6.5249 18.6003 6.5249C13.0085 6.5249 8.47534 11.058 8.47534 16.6499C8.47534 22.2418 13.0085 26.7749 18.6003 26.7749Z" fill="#FEE05B"/>
<path d="M18.6001 24.5249C22.9493 24.5249 26.4751 20.9991 26.4751 16.6499C26.4751 12.3007 22.9493 8.7749 18.6001 8.7749C14.2509 8.7749 10.7251 12.3007 10.7251 16.6499C10.7251 20.9991 14.2509 24.5249 18.6001 24.5249Z" fill="#FFCD34"/>
<path d="M26.475 16.65C26.4751 18.1989 26.0185 19.7134 25.1625 21.0042C24.3064 22.295 23.0889 23.3049 21.662 23.9075C23.2932 22.8205 24.4605 21.1644 24.9359 19.2627C25.4113 17.361 25.1605 15.3505 24.2326 13.6238C23.3047 11.8971 21.7664 10.5785 19.9182 9.92546C18.07 9.27244 16.0447 9.33199 14.238 10.0925C15.4244 9.30362 16.8025 8.85132 18.2256 8.78376C19.6486 8.71621 21.0634 9.03591 22.3191 9.70883C23.5749 10.3818 24.6246 11.3827 25.3564 12.605C26.0883 13.8273 26.4749 15.2253 26.475 16.65V16.65Z" fill="#E6BA24"/>
<path d="M25.175 17.35C25.1758 18.648 24.8554 19.926 24.2425 21.0702C23.6295 22.2143 22.7431 23.189 21.662 23.9075C19.8552 24.6695 17.829 24.7301 15.9799 24.0774C14.1307 23.4248 12.5915 22.1058 11.6632 20.3784C10.735 18.6511 10.4844 16.6396 10.9606 14.7373C11.4368 12.835 12.6055 11.1788 14.238 10.0925C15.4355 9.58833 16.739 9.38811 18.0326 9.50965C19.3262 9.63119 20.5696 10.0707 21.6522 10.7891C22.7348 11.5075 23.623 12.4824 24.2376 13.6271C24.8522 14.7718 25.1743 16.0507 25.175 17.35V17.35Z" fill="#F9C42E"/>
<path d="M18.5 24.5249C22.8492 24.5249 26.375 20.9991 26.375 16.6499C26.375 12.3007 22.8492 8.7749 18.5 8.7749C14.1508 8.7749 10.625 12.3007 10.625 16.6499C10.625 20.9991 14.1508 24.5249 18.5 24.5249Z" stroke="#E6BA24" stroke-width="3" stroke-miterlimit="10"/>
<path d="M25.9076 23.6573C24.9639 24.6443 23.8296 25.4295 22.5735 25.9654C21.3175 26.5012 19.9657 26.7766 18.6001 26.7748C13.0081 26.7748 8.47511 22.2418 8.47511 16.6498C8.4733 15.2842 8.74867 13.9324 9.28453 12.6764C9.82039 11.4203 10.6056 10.286 11.5926 9.34229C9.78144 11.2251 8.7714 13.7372 8.77511 16.3498C8.77511 21.9418 13.3081 26.4748 18.9001 26.4748C21.5127 26.4785 24.0248 25.4685 25.9076 23.6573V23.6573Z" fill="#E6BA24"/>
<path d="M14.603 21.3859C14.369 21.2324 13.1645 17.8909 14.8625 15.6519C15.2265 15.1724 15.6055 14.9159 16.3385 14.4244C17.532 13.6244 18.8885 13.1559 19.76 12.8509C20.496 12.5929 22.2 11.7509 22.472 11.4224C22.493 11.3979 22.5805 11.2919 22.662 11.3054C22.7045 11.3124 22.729 11.3554 22.744 11.3849C22.82 11.5294 24.2795 17.2489 21.7385 20.0404C20.1705 21.7634 18.23 21.8904 17.105 21.9954C17.0445 22.0009 16.3375 21.9454 16.276 21.9039C16.276 21.9039 16.237 21.8779 16.2005 21.8474C16.141 21.7974 15.703 21.0884 15.8815 19.6114C16 18.676 16.3875 17.7952 16.997 17.0759C18.452 15.3789 20.447 15.1909 20.447 15.0319C20.447 14.9454 17.5225 15.3884 16.472 16.3069C15.65 17.0274 15.243 17.7039 15.0265 18.2499C14.89 18.5765 14.796 18.9193 14.747 19.2699C14.602 20.3434 14.697 21.2809 14.6875 21.3699C14.685 21.3939 14.6405 21.4104 14.603 21.3859Z" fill="#FFCD34"/>
<path d="M22.5306 11.3608C22.5186 11.3723 22.4971 11.3933 22.4721 11.4213C21.8031 12.1663 22.5501 13.2998 22.1501 14.1148C22.1286 14.1572 22.1039 14.1978 22.0761 14.2363C21.6401 14.8863 20.8261 15.0483 20.4486 15.1273C18.7381 15.4833 17.8826 15.6618 17.0891 16.1238C16.6107 16.397 16.1861 16.755 15.8361 17.1803C15.6496 17.4143 15.0596 18.2598 14.9081 19.2473C14.7371 20.3608 14.7906 20.9253 14.7961 21.3523C14.7961 21.4088 14.7201 21.4618 14.6901 21.4638C14.6726 21.4778 14.5796 21.4528 14.5466 21.4753C14.2466 21.6808 13.9086 21.7453 13.7126 21.7083C13.1386 21.6003 12.9721 20.1358 12.9371 19.6928C12.8811 19.0495 12.9117 18.4015 13.0281 17.7663C13.2373 16.9682 13.6163 16.2247 14.1391 15.5863C15.0716 14.4863 16.8046 13.7308 18.3016 13.1863C18.3016 13.1863 19.8146 12.6328 20.5331 12.3238C20.8891 12.1708 21.2831 11.9873 21.3676 11.9488C21.8536 11.7233 22.0896 11.5988 22.2111 11.5363C22.3436 11.4653 22.4546 11.4038 22.5306 11.3608Z" fill="#E6BA24"/>
<path d="M21.7385 20.0402C20.1705 21.7632 18.23 21.8902 17.105 21.9952C17.0445 22.0007 16.3375 21.9452 16.276 21.9037C16.276 21.9037 16.237 21.8777 16.2005 21.8472C16.141 21.7972 15.703 21.0882 15.8815 19.6112C16 18.6759 16.3875 17.7951 16.997 17.0757C17.3838 16.6272 17.8395 16.243 18.347 15.9377V15.9377C19.447 15.2712 20.447 15.1442 20.447 15.0317C20.447 15.0277 20.4405 15.0247 20.4275 15.0232C20.245 14.9987 18.822 15.2167 17.6575 15.6602C17.1875 15.8397 16.7575 16.0552 16.472 16.3067C15.65 17.0272 15.243 17.7037 15.0265 18.2497C14.8899 18.5763 14.796 18.9192 14.747 19.2697C14.602 20.3432 14.697 21.2807 14.6875 21.3697C14.685 21.3932 14.6405 21.4097 14.603 21.3852C14.581 21.3669 14.5625 21.3447 14.5485 21.3197L14.542 21.3097C14.2175 20.7782 13.281 17.7367 14.8625 15.6512C15.2265 15.1717 15.5375 14.8457 16.2835 14.3742C17.507 13.5997 18.8905 13.1557 19.76 12.8497C20.496 12.5917 22.2 11.7497 22.472 11.4212C22.49 11.3997 22.5095 11.3794 22.5305 11.3607C22.5471 11.3425 22.5675 11.328 22.5901 11.3183C22.6128 11.3085 22.6373 11.3038 22.662 11.3042C22.7045 11.3112 22.729 11.3542 22.744 11.3837C22.747 11.3907 22.75 11.3977 22.7525 11.4052C22.771 11.4597 22.81 11.6022 22.858 11.8162C23.1745 13.2212 23.888 17.6782 21.7385 20.0402Z" fill="#FEE05B"/>
<path d="M23.3616 16.5613C23.2356 17.4613 23.0931 18.4793 22.3681 19.5428C21.7096 20.5083 20.9181 20.9978 20.3616 21.3428C18.9396 22.2228 17.7271 22.3373 16.3491 22.4678C15.9661 22.5038 15.6991 22.5093 15.4551 22.3488C14.6551 21.8228 14.9811 20.0903 15.0741 19.5988C15.0741 19.5988 15.3391 18.2108 16.5556 16.6738C16.782 16.3744 17.0592 16.1172 17.3746 15.9138C17.5666 15.7928 17.7171 15.7303 18.0181 15.6053C18.7291 15.3103 18.7046 15.4363 19.4111 15.1663C19.4111 15.1663 19.9196 14.9663 20.4276 15.0233C20.4406 15.0233 20.4471 15.0278 20.4471 15.0318C20.4471 15.1443 19.4471 15.2713 18.3471 15.9378C17.8396 16.2431 17.3839 16.6273 16.9971 17.0758C16.3877 17.7952 16.0001 18.676 15.8816 19.6113C15.7031 21.0883 16.1411 21.7998 16.2001 21.8498C16.2366 21.8803 16.2756 21.9063 16.2756 21.9063C16.3371 21.9468 17.0441 22.0033 17.1046 21.9978C18.2296 21.8923 20.1701 21.7658 21.7381 20.0428C23.8881 17.6808 23.1741 13.2238 22.8576 11.8198C22.9836 12.2016 23.0891 12.5898 23.1736 12.9828C23.3226 13.6668 23.5876 14.9498 23.3616 16.5613Z" fill="#E6BA24"/>
<path d="M36.1787 16.338H39.3287V17.178H36.1787V20.328H35.3387V17.178H32.1887V16.338H35.3387V13.188H36.1787V16.338ZM45.4329 21H44.4249V12.334L42.6329 13.86L42.0169 13.16L44.5369 11.088H45.4329V21ZM51.356 15.414L51.384 15.442C51.5333 15.33 51.7433 15.2413 52.014 15.176C52.2847 15.1107 52.546 15.078 52.798 15.078C53.2273 15.078 53.624 15.1527 53.988 15.302C54.3613 15.4513 54.6833 15.6613 54.954 15.932C55.2247 16.1933 55.4347 16.5153 55.584 16.898C55.7427 17.2713 55.822 17.682 55.822 18.13C55.822 18.5967 55.7427 19.0213 55.584 19.404C55.4253 19.7867 55.2013 20.1133 54.912 20.384C54.6227 20.6547 54.282 20.8647 53.89 21.014C53.498 21.1727 53.0687 21.252 52.602 21.252C52.1353 21.252 51.706 21.1727 51.314 21.014C50.922 20.8647 50.5813 20.6547 50.292 20.384C50.0027 20.1133 49.7787 19.7867 49.62 19.404C49.4613 19.0213 49.382 18.5967 49.382 18.13C49.382 17.6167 49.4707 17.1407 49.648 16.702C49.8253 16.2633 50.0353 15.8433 50.278 15.442L52.98 11.088H54.142L51.356 15.414ZM50.39 18.13C50.39 18.4567 50.4413 18.76 50.544 19.04C50.656 19.3107 50.81 19.5487 51.006 19.754C51.202 19.95 51.4353 20.1087 51.706 20.23C51.9767 20.342 52.2753 20.398 52.602 20.398C52.9287 20.398 53.2273 20.342 53.498 20.23C53.7687 20.1087 54.002 19.95 54.198 19.754C54.394 19.5487 54.5433 19.3107 54.646 19.04C54.758 18.76 54.814 18.4567 54.814 18.13C54.814 17.8127 54.7627 17.5187 54.66 17.248C54.5573 16.968 54.408 16.73 54.212 16.534C54.0253 16.3287 53.792 16.17 53.512 16.058C53.2413 15.946 52.938 15.89 52.602 15.89C52.266 15.89 51.958 15.946 51.678 16.058C51.4073 16.17 51.174 16.3287 50.978 16.534C50.7913 16.73 50.6467 16.968 50.544 17.248C50.4413 17.5187 50.39 17.8127 50.39 18.13ZM63.3131 11.984H59.1831L59.1131 15.05C59.3278 14.9753 59.5518 14.9193 59.7851 14.882C60.0278 14.8447 60.2611 14.826 60.4851 14.826C60.9518 14.826 61.3811 14.9007 61.7731 15.05C62.1651 15.1993 62.5058 15.414 62.7951 15.694C63.0844 15.9647 63.3084 16.2913 63.4671 16.674C63.6258 17.0567 63.7051 17.4767 63.7051 17.934C63.7051 18.41 63.6258 18.8533 63.4671 19.264C63.3084 19.6653 63.0844 20.0153 62.7951 20.314C62.5058 20.6033 62.1558 20.832 61.7451 21C61.3438 21.168 60.9004 21.252 60.4151 21.252C59.6964 21.252 59.0898 21.0887 58.5951 20.762C58.1004 20.4353 57.7178 19.9967 57.4471 19.446L58.3571 19.04C58.5344 19.4507 58.8004 19.7773 59.1551 20.02C59.5191 20.2627 59.9204 20.384 60.3591 20.384C60.6951 20.384 61.0031 20.328 61.2831 20.216C61.5724 20.0947 61.8198 19.9313 62.0251 19.726C62.2304 19.5113 62.3891 19.2593 62.5011 18.97C62.6224 18.6807 62.6831 18.368 62.6831 18.032C62.6831 17.668 62.6178 17.3413 62.4871 17.052C62.3658 16.7533 62.1931 16.5013 61.9691 16.296C61.7544 16.0907 61.4978 15.932 61.1991 15.82C60.9004 15.708 60.5738 15.652 60.2191 15.652C59.8644 15.652 59.5098 15.7033 59.1551 15.806C58.8098 15.8993 58.4784 16.03 58.1611 16.198L58.2591 11.088H63.3131V11.984ZM70.4822 15.568C70.6688 15.1853 70.9535 14.8773 71.3362 14.644C71.7282 14.4013 72.1622 14.28 72.6382 14.28C72.8155 14.28 72.9975 14.2987 73.1842 14.336C73.3802 14.3733 73.5668 14.448 73.7442 14.56C73.9308 14.6627 74.0988 14.8027 74.2482 14.98C74.4068 15.1573 74.5422 15.386 74.6542 15.666C74.8782 15.218 75.1815 14.8773 75.5642 14.644C75.9562 14.4013 76.4182 14.28 76.9502 14.28C77.7808 14.28 78.4015 14.5273 78.8122 15.022C79.2322 15.5167 79.4422 16.17 79.4422 16.982V21H78.4902V17.374C78.4902 16.6833 78.3595 16.128 78.0982 15.708C77.8462 15.288 77.4122 15.078 76.7962 15.078C76.4508 15.078 76.1568 15.148 75.9142 15.288C75.6808 15.428 75.4895 15.6147 75.3402 15.848C75.2002 16.072 75.0975 16.3287 75.0322 16.618C74.9668 16.9073 74.9342 17.206 74.9342 17.514V21H73.9822V17.178C73.9822 16.8607 73.9588 16.5713 73.9122 16.31C73.8655 16.0487 73.7815 15.8293 73.6602 15.652C73.5482 15.4653 73.3895 15.3253 73.1842 15.232C72.9788 15.1293 72.7175 15.078 72.4002 15.078C72.1762 15.078 71.9475 15.1293 71.7142 15.232C71.4902 15.3347 71.2848 15.4933 71.0982 15.708C70.9208 15.9133 70.7762 16.1793 70.6642 16.506C70.5522 16.8233 70.4962 17.2013 70.4962 17.64V21H69.5442V15.89C69.5442 15.7127 69.5395 15.484 69.5302 15.204C69.5208 14.924 69.5068 14.672 69.4882 14.448H70.3982C70.4168 14.6253 70.4308 14.8213 70.4402 15.036C70.4495 15.2507 70.4542 15.428 70.4542 15.568H70.4822ZM86.0336 16.772C86.0336 16.2027 85.8842 15.778 85.5856 15.498C85.2869 15.218 84.8529 15.078 84.2836 15.078C83.8916 15.078 83.5276 15.148 83.1916 15.288C82.8556 15.428 82.5709 15.6147 82.3376 15.848L81.8056 15.218C82.0762 14.9473 82.4309 14.7233 82.8696 14.546C83.3176 14.3687 83.8216 14.28 84.3816 14.28C84.7362 14.28 85.0676 14.3313 85.3756 14.434C85.6836 14.5273 85.9542 14.672 86.1876 14.868C86.4209 15.064 86.6029 15.3113 86.7336 15.61C86.8642 15.9087 86.9296 16.2587 86.9296 16.66V19.53C86.9296 19.782 86.9389 20.0433 86.9576 20.314C86.9762 20.5847 87.0042 20.8133 87.0416 21H86.1876C86.1596 20.8413 86.1362 20.6687 86.1176 20.482C86.0989 20.2953 86.0896 20.1133 86.0896 19.936H86.0616C85.7629 20.3747 85.4222 20.692 85.0396 20.888C84.6662 21.0747 84.2136 21.168 83.6816 21.168C83.4296 21.168 83.1682 21.1307 82.8976 21.056C82.6362 20.9907 82.3936 20.8787 82.1696 20.72C81.9549 20.5613 81.7729 20.356 81.6236 20.104C81.4836 19.852 81.4136 19.544 81.4136 19.18C81.4136 18.676 81.5396 18.2793 81.7916 17.99C82.0529 17.6913 82.3982 17.472 82.8276 17.332C83.2569 17.1827 83.7469 17.0893 84.2976 17.052C84.8576 17.0053 85.4362 16.982 86.0336 16.982V16.772ZM85.7536 17.724C85.3616 17.724 84.9649 17.7427 84.5636 17.78C84.1716 17.808 83.8122 17.8733 83.4856 17.976C83.1682 18.0693 82.9069 18.2093 82.7016 18.396C82.4962 18.5827 82.3936 18.83 82.3936 19.138C82.3936 19.3713 82.4356 19.5673 82.5196 19.726C82.6129 19.8847 82.7342 20.0153 82.8836 20.118C83.0329 20.2113 83.1962 20.2813 83.3736 20.328C83.5602 20.3653 83.7469 20.384 83.9336 20.384C84.2696 20.384 84.5682 20.328 84.8296 20.216C85.0909 20.0947 85.3102 19.936 85.4876 19.74C85.6649 19.5347 85.8002 19.3013 85.8936 19.04C85.9869 18.7787 86.0336 18.5033 86.0336 18.214V17.724H85.7536ZM90.9221 17.612L88.5001 14.448H89.7181L91.5101 16.94L93.3021 14.448H94.4501L92.0701 17.57L94.6741 21H93.4421L91.4961 18.27L89.4941 21H88.3461L90.9221 17.612Z" fill="#2A4661"/>
</svg>
