<svg width="183" height="44" viewBox="0 0 183 44" fill="none" xmlns="http://www.w3.org/2000/svg">
<rect width="183" height="33" rx="16.5" fill="#E2E2E2"/>
<path d="M89.3343 43.5835L96.552 31.896H82.1166L89.3343 43.5835Z" fill="#E2E2E2"/>
<path d="M21.395 17.724H22.851V18.606H21.395V21H20.415V18.606H15.879V17.626L20.079 11.088H21.395V17.724ZM20.415 12.222H20.387L16.929 17.724H20.415V12.222ZM32.0921 18.004H27.3321V17.206H32.0921V18.004ZM38.3416 21H37.3336V11.088H38.3416V21ZM41.7683 14.448C41.787 14.6253 41.801 14.8213 41.8103 15.036C41.8196 15.2507 41.8243 15.428 41.8243 15.568H41.8523C42.039 15.1853 42.3423 14.8773 42.7623 14.644C43.1823 14.4013 43.6256 14.28 44.0923 14.28C44.923 14.28 45.5436 14.5273 45.9543 15.022C46.3743 15.5167 46.5843 16.17 46.5843 16.982V21H45.6323V17.374C45.6323 17.0287 45.6043 16.716 45.5483 16.436C45.4923 16.156 45.3943 15.918 45.2543 15.722C45.1236 15.5167 44.9416 15.358 44.7083 15.246C44.4843 15.134 44.1996 15.078 43.8543 15.078C43.6023 15.078 43.355 15.1293 43.1123 15.232C42.879 15.3347 42.669 15.4933 42.4823 15.708C42.2956 15.9133 42.1463 16.1793 42.0343 16.506C41.9223 16.8233 41.8663 17.2013 41.8663 17.64V21H40.9143V15.89C40.9143 15.7127 40.9096 15.484 40.9003 15.204C40.891 14.924 40.877 14.672 40.8583 14.448H41.7683ZM54.1171 21H53.1651V10.416H54.1171V21ZM51.8211 15.246H50.2811V21H49.3291V15.246H47.9571V14.448H49.3291V12.656C49.3291 11.9093 49.5111 11.3213 49.8751 10.892C50.2391 10.4627 50.7991 10.248 51.5551 10.248C51.6764 10.248 51.8071 10.2573 51.9471 10.276C52.0871 10.2853 52.2177 10.3087 52.3391 10.346L52.1711 11.186C52.0684 11.158 51.9657 11.1347 51.8631 11.116C51.7604 11.0973 51.6437 11.088 51.5131 11.088C51.2611 11.088 51.0511 11.13 50.8831 11.214C50.7244 11.298 50.5984 11.4193 50.5051 11.578C50.4211 11.7273 50.3604 11.9047 50.3231 12.11C50.2951 12.3153 50.2811 12.5347 50.2811 12.768V14.448H51.8211V15.246ZM61.4243 21C61.4056 20.8227 61.3916 20.6267 61.3823 20.412C61.373 20.1973 61.3683 20.02 61.3683 19.88H61.3403C61.1536 20.2627 60.8503 20.5753 60.4303 20.818C60.0103 21.0513 59.567 21.168 59.1003 21.168C58.2696 21.168 57.6443 20.9207 57.2243 20.426C56.8136 19.9313 56.6083 19.278 56.6083 18.466V14.448H57.5603V18.074C57.5603 18.4193 57.5883 18.732 57.6443 19.012C57.7003 19.292 57.7936 19.5347 57.9243 19.74C58.0643 19.936 58.2463 20.09 58.4703 20.202C58.7036 20.314 58.993 20.37 59.3383 20.37C59.5903 20.37 59.833 20.3187 60.0663 20.216C60.309 20.1133 60.5236 19.9593 60.7103 19.754C60.897 19.5393 61.0463 19.2733 61.1583 18.956C61.2703 18.6293 61.3263 18.2467 61.3263 17.808V14.448H62.2783V19.558C62.2783 19.7353 62.283 19.964 62.2923 20.244C62.3016 20.524 62.3156 20.776 62.3343 21H61.4243ZM69.7971 17.22C69.7691 16.604 69.5684 16.0953 69.1951 15.694C68.8311 15.2833 68.3084 15.078 67.6271 15.078C67.3097 15.078 67.0157 15.1387 66.7451 15.26C66.4744 15.372 66.2364 15.5307 66.0311 15.736C65.8257 15.932 65.6624 16.1607 65.5411 16.422C65.4197 16.674 65.3497 16.94 65.3311 17.22H69.7971ZM70.7631 17.528C70.7631 17.5933 70.7631 17.6633 70.7631 17.738C70.7631 17.8127 70.7584 17.892 70.7491 17.976H65.3171C65.3264 18.3027 65.3917 18.6107 65.5131 18.9C65.6344 19.1893 65.8024 19.4413 66.0171 19.656C66.2317 19.8707 66.4837 20.0433 66.7731 20.174C67.0624 20.2953 67.3751 20.356 67.7111 20.356C68.2057 20.356 68.6304 20.244 68.9851 20.02C69.3491 19.7867 69.6244 19.5207 69.8111 19.222L70.5251 19.782C70.1331 20.2767 69.6991 20.6313 69.2231 20.846C68.7564 21.0607 68.2524 21.168 67.7111 21.168C67.2257 21.168 66.7731 21.084 66.3531 20.916C65.9424 20.7387 65.5877 20.496 65.2891 20.188C64.9904 19.88 64.7524 19.516 64.5751 19.096C64.4071 18.676 64.3231 18.2187 64.3231 17.724C64.3231 17.2293 64.4071 16.772 64.5751 16.352C64.7431 15.932 64.9764 15.568 65.2751 15.26C65.5737 14.952 65.9237 14.714 66.3251 14.546C66.7264 14.3687 67.1604 14.28 67.6271 14.28C68.1404 14.28 68.5931 14.3687 68.9851 14.546C69.3771 14.714 69.7037 14.9473 69.9651 15.246C70.2264 15.5353 70.4224 15.876 70.5531 16.268C70.6931 16.66 70.7631 17.08 70.7631 17.528ZM73.6648 14.448C73.6834 14.6253 73.6974 14.8213 73.7068 15.036C73.7161 15.2507 73.7208 15.428 73.7208 15.568H73.7488C73.9354 15.1853 74.2388 14.8773 74.6588 14.644C75.0788 14.4013 75.5221 14.28 75.9888 14.28C76.8194 14.28 77.4401 14.5273 77.8508 15.022C78.2708 15.5167 78.4808 16.17 78.4808 16.982V21H77.5288V17.374C77.5288 17.0287 77.5008 16.716 77.4448 16.436C77.3888 16.156 77.2908 15.918 77.1508 15.722C77.0201 15.5167 76.8381 15.358 76.6048 15.246C76.3808 15.134 76.0961 15.078 75.7508 15.078C75.4988 15.078 75.2514 15.1293 75.0088 15.232C74.7754 15.3347 74.5654 15.4933 74.3788 15.708C74.1921 15.9133 74.0428 16.1793 73.9308 16.506C73.8188 16.8233 73.7628 17.2013 73.7628 17.64V21H72.8108V15.89C72.8108 15.7127 72.8061 15.484 72.7968 15.204C72.7874 14.924 72.7734 14.672 72.7548 14.448H73.6648ZM85.6635 15.946C85.5049 15.694 85.2715 15.4887 84.9635 15.33C84.6649 15.162 84.3382 15.078 83.9835 15.078C83.6009 15.078 83.2555 15.148 82.9475 15.288C82.6395 15.4187 82.3735 15.6053 82.1495 15.848C81.9349 16.0813 81.7669 16.3613 81.6455 16.688C81.5335 17.0053 81.4775 17.3507 81.4775 17.724C81.4775 18.0973 81.5335 18.4427 81.6455 18.76C81.7669 19.0773 81.9349 19.3573 82.1495 19.6C82.3642 19.8333 82.6255 20.02 82.9335 20.16C83.2415 20.2907 83.5869 20.356 83.9695 20.356C84.3895 20.356 84.7442 20.2767 85.0335 20.118C85.3229 19.9593 85.5609 19.754 85.7475 19.502L86.4615 20.034C86.1815 20.3793 85.8362 20.6547 85.4255 20.86C85.0242 21.0653 84.5389 21.168 83.9695 21.168C83.4375 21.168 82.9569 21.084 82.5275 20.916C82.0982 20.7387 81.7295 20.496 81.4215 20.188C81.1229 19.88 80.8895 19.516 80.7215 19.096C80.5535 18.676 80.4695 18.2187 80.4695 17.724C80.4695 17.2293 80.5535 16.772 80.7215 16.352C80.8895 15.932 81.1229 15.568 81.4215 15.26C81.7295 14.952 82.0982 14.714 82.5275 14.546C82.9569 14.3687 83.4375 14.28 83.9695 14.28C84.4082 14.28 84.8515 14.378 85.2995 14.574C85.7569 14.7607 86.1255 15.0407 86.4055 15.414L85.6635 15.946ZM92.9435 17.22C92.9155 16.604 92.7149 16.0953 92.3415 15.694C91.9775 15.2833 91.4549 15.078 90.7735 15.078C90.4562 15.078 90.1622 15.1387 89.8915 15.26C89.6209 15.372 89.3829 15.5307 89.1775 15.736C88.9722 15.932 88.8089 16.1607 88.6875 16.422C88.5662 16.674 88.4962 16.94 88.4775 17.22H92.9435ZM93.9095 17.528C93.9095 17.5933 93.9095 17.6633 93.9095 17.738C93.9095 17.8127 93.9049 17.892 93.8955 17.976H88.4635C88.4729 18.3027 88.5382 18.6107 88.6595 18.9C88.7809 19.1893 88.9489 19.4413 89.1635 19.656C89.3782 19.8707 89.6302 20.0433 89.9195 20.174C90.2089 20.2953 90.5215 20.356 90.8575 20.356C91.3522 20.356 91.7769 20.244 92.1315 20.02C92.4955 19.7867 92.7709 19.5207 92.9575 19.222L93.6715 19.782C93.2795 20.2767 92.8455 20.6313 92.3695 20.846C91.9029 21.0607 91.3989 21.168 90.8575 21.168C90.3722 21.168 89.9195 21.084 89.4995 20.916C89.0889 20.7387 88.7342 20.496 88.4355 20.188C88.1369 19.88 87.8989 19.516 87.7215 19.096C87.5535 18.676 87.4695 18.2187 87.4695 17.724C87.4695 17.2293 87.5535 16.772 87.7215 16.352C87.8895 15.932 88.1229 15.568 88.4215 15.26C88.7202 14.952 89.0702 14.714 89.4715 14.546C89.8729 14.3687 90.3069 14.28 90.7735 14.28C91.2869 14.28 91.7395 14.3687 92.1315 14.546C92.5235 14.714 92.8502 14.9473 93.1115 15.246C93.3729 15.5353 93.5689 15.876 93.6995 16.268C93.8395 16.66 93.9095 17.08 93.9095 17.528ZM99.4433 16.002C99.3033 15.7313 99.0886 15.512 98.7993 15.344C98.5193 15.1667 98.1973 15.078 97.8333 15.078C97.6653 15.078 97.4973 15.0967 97.3293 15.134C97.1613 15.1713 97.0119 15.232 96.8813 15.316C96.7506 15.4 96.6433 15.5073 96.5593 15.638C96.4846 15.7687 96.4473 15.9227 96.4473 16.1C96.4473 16.408 96.5733 16.646 96.8253 16.814C97.0773 16.9727 97.4739 17.108 98.0153 17.22C98.7899 17.3787 99.3593 17.612 99.7233 17.92C100.097 18.2187 100.283 18.6247 100.283 19.138C100.283 19.5113 100.209 19.8287 100.059 20.09C99.9193 20.342 99.7326 20.552 99.4993 20.72C99.2659 20.8787 98.9999 20.9907 98.7013 21.056C98.4119 21.1307 98.1179 21.168 97.8193 21.168C97.3246 21.168 96.8439 21.0653 96.3773 20.86C95.9106 20.6547 95.5279 20.3327 95.2293 19.894L95.9853 19.334C96.1533 19.6233 96.4006 19.866 96.7273 20.062C97.0539 20.258 97.4133 20.356 97.8053 20.356C98.0106 20.356 98.2066 20.3373 98.3933 20.3C98.5799 20.2627 98.7433 20.1973 98.8833 20.104C99.0233 20.0107 99.1353 19.894 99.2193 19.754C99.3033 19.6047 99.3453 19.4227 99.3453 19.208C99.3453 18.8627 99.1773 18.606 98.8413 18.438C98.5146 18.2607 98.0386 18.0973 97.4133 17.948C97.2173 17.9013 97.0073 17.8453 96.7833 17.78C96.5686 17.7053 96.3679 17.6027 96.1813 17.472C95.9946 17.332 95.8406 17.1593 95.7193 16.954C95.5979 16.7487 95.5373 16.492 95.5373 16.184C95.5373 15.848 95.6026 15.5633 95.7333 15.33C95.8639 15.0873 96.0366 14.8913 96.2513 14.742C96.4753 14.5833 96.7273 14.4667 97.0073 14.392C97.2873 14.3173 97.5766 14.28 97.8753 14.28C98.3326 14.28 98.7759 14.3827 99.2053 14.588C99.6346 14.7933 99.9566 15.0827 100.171 15.456L99.4433 16.002ZM112.188 17.724C112.188 18.2187 112.099 18.676 111.922 19.096C111.754 19.516 111.516 19.88 111.208 20.188C110.9 20.496 110.531 20.7387 110.102 20.916C109.673 21.084 109.201 21.168 108.688 21.168C108.184 21.168 107.717 21.084 107.288 20.916C106.859 20.7387 106.49 20.496 106.182 20.188C105.874 19.88 105.631 19.516 105.454 19.096C105.286 18.676 105.202 18.2187 105.202 17.724C105.202 17.2293 105.286 16.772 105.454 16.352C105.631 15.932 105.874 15.568 106.182 15.26C106.49 14.952 106.859 14.714 107.288 14.546C107.717 14.3687 108.184 14.28 108.688 14.28C109.201 14.28 109.673 14.3687 110.102 14.546C110.531 14.714 110.9 14.952 111.208 15.26C111.516 15.568 111.754 15.932 111.922 16.352C112.099 16.772 112.188 17.2293 112.188 17.724ZM111.18 17.724C111.18 17.36 111.119 17.0193 110.998 16.702C110.886 16.3753 110.723 16.0953 110.508 15.862C110.293 15.6193 110.032 15.428 109.724 15.288C109.416 15.148 109.071 15.078 108.688 15.078C108.305 15.078 107.96 15.148 107.652 15.288C107.353 15.428 107.097 15.6193 106.882 15.862C106.667 16.0953 106.499 16.3753 106.378 16.702C106.266 17.0193 106.21 17.36 106.21 17.724C106.21 18.088 106.266 18.4333 106.378 18.76C106.499 19.0773 106.667 19.3573 106.882 19.6C107.097 19.8333 107.353 20.02 107.652 20.16C107.96 20.2907 108.305 20.356 108.688 20.356C109.071 20.356 109.416 20.2907 109.724 20.16C110.032 20.02 110.293 19.8333 110.508 19.6C110.723 19.3573 110.886 19.0773 110.998 18.76C111.119 18.4333 111.18 18.088 111.18 17.724ZM115.091 14.448C115.109 14.6253 115.123 14.8213 115.133 15.036C115.142 15.2507 115.147 15.428 115.147 15.568H115.175C115.361 15.1853 115.665 14.8773 116.085 14.644C116.505 14.4013 116.948 14.28 117.415 14.28C118.245 14.28 118.866 14.5273 119.277 15.022C119.697 15.5167 119.907 16.17 119.907 16.982V21H118.955V17.374C118.955 17.0287 118.927 16.716 118.871 16.436C118.815 16.156 118.717 15.918 118.577 15.722C118.446 15.5167 118.264 15.358 118.031 15.246C117.807 15.134 117.522 15.078 117.177 15.078C116.925 15.078 116.677 15.1293 116.435 15.232C116.201 15.3347 115.991 15.4933 115.805 15.708C115.618 15.9133 115.469 16.1793 115.357 16.506C115.245 16.8233 115.189 17.2013 115.189 17.64V21H114.237V15.89C114.237 15.7127 114.232 15.484 114.223 15.204C114.213 14.924 114.199 14.672 114.181 14.448H115.091ZM130.729 12.684C130.515 12.3853 130.239 12.1473 129.903 11.97C129.567 11.7833 129.161 11.69 128.685 11.69C128.443 11.69 128.195 11.7273 127.943 11.802C127.691 11.8767 127.463 11.9933 127.257 12.152C127.052 12.3013 126.884 12.4927 126.753 12.726C126.632 12.9593 126.571 13.2347 126.571 13.552C126.571 13.8693 126.632 14.1307 126.753 14.336C126.875 14.5413 127.033 14.7187 127.229 14.868C127.435 15.008 127.663 15.1247 127.915 15.218C128.177 15.3113 128.447 15.4047 128.727 15.498C129.073 15.61 129.418 15.7313 129.763 15.862C130.118 15.9927 130.435 16.1653 130.715 16.38C130.995 16.5853 131.224 16.8513 131.401 17.178C131.579 17.4953 131.667 17.9013 131.667 18.396C131.667 18.8907 131.569 19.32 131.373 19.684C131.187 20.0387 130.939 20.3327 130.631 20.566C130.333 20.7993 129.987 20.972 129.595 21.084C129.213 21.196 128.825 21.252 128.433 21.252C128.135 21.252 127.836 21.2193 127.537 21.154C127.239 21.098 126.954 21.0093 126.683 20.888C126.413 20.7667 126.161 20.6127 125.927 20.426C125.694 20.2393 125.489 20.0247 125.311 19.782L126.179 19.138C126.394 19.4927 126.693 19.7913 127.075 20.034C127.467 20.2673 127.925 20.384 128.447 20.384C128.699 20.384 128.956 20.3467 129.217 20.272C129.479 20.188 129.712 20.0667 129.917 19.908C130.132 19.74 130.305 19.5393 130.435 19.306C130.575 19.0633 130.645 18.7833 130.645 18.466C130.645 18.1207 130.575 17.836 130.435 17.612C130.305 17.3787 130.127 17.1873 129.903 17.038C129.679 16.8793 129.423 16.7487 129.133 16.646C128.844 16.5433 128.541 16.4407 128.223 16.338C127.897 16.2353 127.575 16.1187 127.257 15.988C126.94 15.8573 126.655 15.6893 126.403 15.484C126.151 15.2693 125.946 15.008 125.787 14.7C125.638 14.392 125.563 14.014 125.563 13.566C125.563 13.09 125.657 12.6793 125.843 12.334C126.039 11.9887 126.291 11.704 126.599 11.48C126.907 11.256 127.248 11.0927 127.621 10.99C127.995 10.8873 128.363 10.836 128.727 10.836C129.399 10.836 129.973 10.9573 130.449 11.2C130.925 11.4333 131.285 11.7133 131.527 12.04L130.729 12.684ZM136.646 15.246H134.798V19.068C134.798 19.3107 134.821 19.5113 134.868 19.67C134.914 19.8287 134.98 19.9547 135.064 20.048C135.157 20.132 135.264 20.1927 135.386 20.23C135.507 20.258 135.638 20.272 135.778 20.272C135.908 20.272 136.044 20.2533 136.184 20.216C136.333 20.1787 136.473 20.1273 136.604 20.062L136.646 20.888C136.478 20.9533 136.3 21 136.114 21.028C135.936 21.0653 135.74 21.084 135.526 21.084C135.348 21.084 135.162 21.0607 134.966 21.014C134.77 20.9673 134.588 20.8787 134.42 20.748C134.252 20.6173 134.112 20.44 134 20.216C133.897 19.992 133.846 19.698 133.846 19.334V15.246H132.488V14.448H133.846V12.6H134.798V14.448H136.646V15.246ZM144.645 17.724C144.645 18.2187 144.556 18.676 144.379 19.096C144.211 19.516 143.973 19.88 143.665 20.188C143.357 20.496 142.988 20.7387 142.559 20.916C142.13 21.084 141.658 21.168 141.145 21.168C140.641 21.168 140.174 21.084 139.745 20.916C139.316 20.7387 138.947 20.496 138.639 20.188C138.331 19.88 138.088 19.516 137.911 19.096C137.743 18.676 137.659 18.2187 137.659 17.724C137.659 17.2293 137.743 16.772 137.911 16.352C138.088 15.932 138.331 15.568 138.639 15.26C138.947 14.952 139.316 14.714 139.745 14.546C140.174 14.3687 140.641 14.28 141.145 14.28C141.658 14.28 142.13 14.3687 142.559 14.546C142.988 14.714 143.357 14.952 143.665 15.26C143.973 15.568 144.211 15.932 144.379 16.352C144.556 16.772 144.645 17.2293 144.645 17.724ZM143.637 17.724C143.637 17.36 143.576 17.0193 143.455 16.702C143.343 16.3753 143.18 16.0953 142.965 15.862C142.75 15.6193 142.489 15.428 142.181 15.288C141.873 15.148 141.528 15.078 141.145 15.078C140.762 15.078 140.417 15.148 140.109 15.288C139.81 15.428 139.554 15.6193 139.339 15.862C139.124 16.0953 138.956 16.3753 138.835 16.702C138.723 17.0193 138.667 17.36 138.667 17.724C138.667 18.088 138.723 18.4333 138.835 18.76C138.956 19.0773 139.124 19.3573 139.339 19.6C139.554 19.8333 139.81 20.02 140.109 20.16C140.417 20.2907 140.762 20.356 141.145 20.356C141.528 20.356 141.873 20.2907 142.181 20.16C142.489 20.02 142.75 19.8333 142.965 19.6C143.18 19.3573 143.343 19.0773 143.455 18.76C143.576 18.4333 143.637 18.088 143.637 17.724ZM151.412 15.946C151.253 15.694 151.02 15.4887 150.712 15.33C150.413 15.162 150.086 15.078 149.732 15.078C149.349 15.078 149.004 15.148 148.696 15.288C148.388 15.4187 148.122 15.6053 147.898 15.848C147.683 16.0813 147.515 16.3613 147.394 16.688C147.282 17.0053 147.226 17.3507 147.226 17.724C147.226 18.0973 147.282 18.4427 147.394 18.76C147.515 19.0773 147.683 19.3573 147.898 19.6C148.112 19.8333 148.374 20.02 148.682 20.16C148.99 20.2907 149.335 20.356 149.718 20.356C150.138 20.356 150.492 20.2767 150.782 20.118C151.071 19.9593 151.309 19.754 151.496 19.502L152.21 20.034C151.93 20.3793 151.584 20.6547 151.174 20.86C150.772 21.0653 150.287 21.168 149.718 21.168C149.186 21.168 148.705 21.084 148.276 20.916C147.846 20.7387 147.478 20.496 147.17 20.188C146.871 19.88 146.638 19.516 146.47 19.096C146.302 18.676 146.218 18.2187 146.218 17.724C146.218 17.2293 146.302 16.772 146.47 16.352C146.638 15.932 146.871 15.568 147.17 15.26C147.478 14.952 147.846 14.714 148.276 14.546C148.705 14.3687 149.186 14.28 149.718 14.28C150.156 14.28 150.6 14.378 151.048 14.574C151.505 14.7607 151.874 15.0407 152.154 15.414L151.412 15.946ZM154.674 17.402H154.716L157.74 14.448H159.112L155.808 17.444L159.448 21H158.048L154.716 17.556H154.674V21H153.722V10.416H154.674V17.402ZM164.234 16.002C164.094 15.7313 163.88 15.512 163.59 15.344C163.31 15.1667 162.988 15.078 162.624 15.078C162.456 15.078 162.288 15.0967 162.12 15.134C161.952 15.1713 161.803 15.232 161.672 15.316C161.542 15.4 161.434 15.5073 161.35 15.638C161.276 15.7687 161.238 15.9227 161.238 16.1C161.238 16.408 161.364 16.646 161.616 16.814C161.868 16.9727 162.265 17.108 162.806 17.22C163.581 17.3787 164.15 17.612 164.514 17.92C164.888 18.2187 165.074 18.6247 165.074 19.138C165.074 19.5113 165 19.8287 164.85 20.09C164.71 20.342 164.524 20.552 164.29 20.72C164.057 20.8787 163.791 20.9907 163.492 21.056C163.203 21.1307 162.909 21.168 162.61 21.168C162.116 21.168 161.635 21.0653 161.168 20.86C160.702 20.6547 160.319 20.3327 160.02 19.894L160.776 19.334C160.944 19.6233 161.192 19.866 161.518 20.062C161.845 20.258 162.204 20.356 162.596 20.356C162.802 20.356 162.998 20.3373 163.184 20.3C163.371 20.2627 163.534 20.1973 163.674 20.104C163.814 20.0107 163.926 19.894 164.01 19.754C164.094 19.6047 164.136 19.4227 164.136 19.208C164.136 18.8627 163.968 18.606 163.632 18.438C163.306 18.2607 162.83 18.0973 162.204 17.948C162.008 17.9013 161.798 17.8453 161.574 17.78C161.36 17.7053 161.159 17.6027 160.972 17.472C160.786 17.332 160.632 17.1593 160.51 16.954C160.389 16.7487 160.328 16.492 160.328 16.184C160.328 15.848 160.394 15.5633 160.524 15.33C160.655 15.0873 160.828 14.8913 161.042 14.742C161.266 14.5833 161.518 14.4667 161.798 14.392C162.078 14.3173 162.368 14.28 162.666 14.28C163.124 14.28 163.567 14.3827 163.996 14.588C164.426 14.7933 164.748 15.0827 164.962 15.456L164.234 16.002Z" fill="#2A4661"/>
</svg>
