<svg width="211" height="45" viewBox="0 0 211 45" fill="none" xmlns="http://www.w3.org/2000/svg">
<rect x="6" width="201" height="33" rx="16.5" fill="#E2E2E2"/>
<path d="M146.334 44.5835L153.552 32.896H139.117L146.334 44.5835Z" fill="#E2E2E2"/>
<path d="M27.2203 11.984H23.0903L23.0203 15.05C23.235 14.9753 23.459 14.9193 23.6923 14.882C23.935 14.8447 24.1683 14.826 24.3923 14.826C24.859 14.826 25.2883 14.9007 25.6803 15.05C26.0723 15.1993 26.413 15.414 26.7023 15.694C26.9916 15.9647 27.2156 16.2913 27.3743 16.674C27.533 17.0567 27.6123 17.4767 27.6123 17.934C27.6123 18.41 27.533 18.8533 27.3743 19.264C27.2156 19.6653 26.9916 20.0153 26.7023 20.314C26.413 20.6033 26.063 20.832 25.6523 21C25.251 21.168 24.8076 21.252 24.3223 21.252C23.6036 21.252 22.997 21.0887 22.5023 20.762C22.0076 20.4353 21.625 19.9967 21.3543 19.446L22.2643 19.04C22.4416 19.4507 22.7076 19.7773 23.0623 20.02C23.4263 20.2627 23.8276 20.384 24.2663 20.384C24.6023 20.384 24.9103 20.328 25.1903 20.216C25.4796 20.0947 25.727 19.9313 25.9323 19.726C26.1376 19.5113 26.2963 19.2593 26.4083 18.97C26.5296 18.6807 26.5903 18.368 26.5903 18.032C26.5903 17.668 26.525 17.3413 26.3943 17.052C26.273 16.7533 26.1003 16.5013 25.8763 16.296C25.6616 16.0907 25.405 15.932 25.1063 15.82C24.8076 15.708 24.481 15.652 24.1263 15.652C23.7716 15.652 23.417 15.7033 23.0623 15.806C22.717 15.8993 22.3856 16.03 22.0683 16.198L22.1663 11.088H27.2203V11.984ZM37.3714 18.004H32.6114V17.206H37.3714V18.004ZM42.6129 11.088H45.4129C45.9169 11.088 46.3742 11.144 46.7849 11.256C47.1955 11.3587 47.5455 11.522 47.8349 11.746C48.1335 11.9607 48.3622 12.236 48.5209 12.572C48.6795 12.8987 48.7589 13.286 48.7589 13.734C48.7589 14.182 48.6749 14.574 48.5069 14.91C48.3482 15.2367 48.1195 15.512 47.8209 15.736C47.5315 15.9507 47.1769 16.114 46.7569 16.226C46.3462 16.338 45.8889 16.394 45.3849 16.394H43.6209V21H42.6129V11.088ZM43.6209 15.54H45.3289C46.1222 15.54 46.7242 15.386 47.1349 15.078C47.5455 14.77 47.7509 14.322 47.7509 13.734C47.7509 13.118 47.5362 12.67 47.1069 12.39C46.6869 12.1007 46.0942 11.956 45.3289 11.956H43.6209V15.54ZM50.008 15.89C50.008 15.7127 50.0034 15.484 49.994 15.204C49.9847 14.924 49.9707 14.672 49.952 14.448H50.862C50.8807 14.6253 50.8947 14.8213 50.904 15.036C50.9134 15.2507 50.918 15.428 50.918 15.568H50.946C51.1327 15.1853 51.4127 14.8773 51.786 14.644C52.1594 14.4013 52.5794 14.28 53.046 14.28C53.1674 14.28 53.2747 14.2847 53.368 14.294C53.4707 14.3033 53.5734 14.322 53.676 14.35L53.55 15.246C53.494 15.2273 53.4007 15.2087 53.27 15.19C53.1394 15.1713 53.0087 15.162 52.878 15.162C52.626 15.162 52.3834 15.2087 52.15 15.302C51.9167 15.3953 51.7114 15.5447 51.534 15.75C51.366 15.946 51.226 16.2027 51.114 16.52C51.0114 16.828 50.96 17.2013 50.96 17.64V21H50.008V15.89ZM59.8049 17.22C59.7769 16.604 59.5762 16.0953 59.2029 15.694C58.8389 15.2833 58.3162 15.078 57.6349 15.078C57.3175 15.078 57.0235 15.1387 56.7529 15.26C56.4822 15.372 56.2442 15.5307 56.0389 15.736C55.8335 15.932 55.6702 16.1607 55.5489 16.422C55.4275 16.674 55.3575 16.94 55.3389 17.22H59.8049ZM60.7709 17.528C60.7709 17.5933 60.7709 17.6633 60.7709 17.738C60.7709 17.8127 60.7662 17.892 60.7569 17.976H55.3249C55.3342 18.3027 55.3995 18.6107 55.5209 18.9C55.6422 19.1893 55.8102 19.4413 56.0249 19.656C56.2395 19.8707 56.4915 20.0433 56.7809 20.174C57.0702 20.2953 57.3829 20.356 57.7189 20.356C58.2135 20.356 58.6382 20.244 58.9929 20.02C59.3569 19.7867 59.6322 19.5207 59.8189 19.222L60.5329 19.782C60.1409 20.2767 59.7069 20.6313 59.2309 20.846C58.7642 21.0607 58.2602 21.168 57.7189 21.168C57.2335 21.168 56.7809 21.084 56.3609 20.916C55.9502 20.7387 55.5955 20.496 55.2969 20.188C54.9982 19.88 54.7602 19.516 54.5829 19.096C54.4149 18.676 54.3309 18.2187 54.3309 17.724C54.3309 17.2293 54.4149 16.772 54.5829 16.352C54.7509 15.932 54.9842 15.568 55.2829 15.26C55.5815 14.952 55.9315 14.714 56.3329 14.546C56.7342 14.3687 57.1682 14.28 57.6349 14.28C58.1482 14.28 58.6009 14.3687 58.9929 14.546C59.3849 14.714 59.7115 14.9473 59.9729 15.246C60.2342 15.5353 60.4302 15.876 60.5609 16.268C60.7009 16.66 60.7709 17.08 60.7709 17.528ZM68.2086 19.894C67.9286 20.314 67.5646 20.6313 67.1166 20.846C66.6686 21.0607 66.2066 21.168 65.7306 21.168C65.2173 21.168 64.7506 21.0793 64.3306 20.902C63.9199 20.7247 63.5653 20.482 63.2666 20.174C62.9773 19.866 62.7486 19.502 62.5806 19.082C62.4219 18.662 62.3426 18.2093 62.3426 17.724C62.3426 17.2387 62.4219 16.786 62.5806 16.366C62.7486 15.946 62.9773 15.582 63.2666 15.274C63.5653 14.966 63.9199 14.7233 64.3306 14.546C64.7506 14.3687 65.2173 14.28 65.7306 14.28C66.2066 14.28 66.6686 14.392 67.1166 14.616C67.5646 14.8307 67.9286 15.1527 68.2086 15.582H68.2366V10.416H69.1886V21H68.2366V19.894H68.2086ZM63.3506 17.724C63.3506 18.088 63.4066 18.4333 63.5186 18.76C63.6306 19.0773 63.7893 19.3573 63.9946 19.6C64.2093 19.8333 64.4706 20.02 64.7786 20.16C65.0866 20.2907 65.4366 20.356 65.8286 20.356C66.1926 20.356 66.5286 20.2907 66.8366 20.16C67.1446 20.02 67.4106 19.8333 67.6346 19.6C67.8586 19.3667 68.0313 19.0913 68.1526 18.774C68.2833 18.4473 68.3486 18.0973 68.3486 17.724C68.3486 17.3507 68.2833 17.0053 68.1526 16.688C68.0313 16.3613 67.8586 16.0813 67.6346 15.848C67.4106 15.6053 67.1446 15.4187 66.8366 15.288C66.5286 15.148 66.1926 15.078 65.8286 15.078C65.4366 15.078 65.0866 15.148 64.7786 15.288C64.4706 15.428 64.2093 15.6193 63.9946 15.862C63.7893 16.0953 63.6306 16.3753 63.5186 16.702C63.4066 17.0193 63.3506 17.36 63.3506 17.724ZM72.6987 21H71.7467V14.448H72.6987V21ZM72.8947 11.928C72.8947 12.124 72.8247 12.2873 72.6847 12.418C72.5447 12.5393 72.3907 12.6 72.2227 12.6C72.0547 12.6 71.9007 12.5393 71.7607 12.418C71.6207 12.2873 71.5507 12.124 71.5507 11.928C71.5507 11.732 71.6207 11.5733 71.7607 11.452C71.9007 11.3213 72.0547 11.256 72.2227 11.256C72.3907 11.256 72.5447 11.3213 72.6847 11.452C72.8247 11.5733 72.8947 11.732 72.8947 11.928ZM79.9507 15.946C79.792 15.694 79.5587 15.4887 79.2507 15.33C78.952 15.162 78.6253 15.078 78.2707 15.078C77.888 15.078 77.5427 15.148 77.2347 15.288C76.9267 15.4187 76.6607 15.6053 76.4367 15.848C76.222 16.0813 76.054 16.3613 75.9327 16.688C75.8207 17.0053 75.7647 17.3507 75.7647 17.724C75.7647 18.0973 75.8207 18.4427 75.9327 18.76C76.054 19.0773 76.222 19.3573 76.4367 19.6C76.6513 19.8333 76.9127 20.02 77.2207 20.16C77.5287 20.2907 77.874 20.356 78.2567 20.356C78.6767 20.356 79.0313 20.2767 79.3207 20.118C79.61 19.9593 79.848 19.754 80.0347 19.502L80.7487 20.034C80.4687 20.3793 80.1233 20.6547 79.7127 20.86C79.3113 21.0653 78.826 21.168 78.2567 21.168C77.7247 21.168 77.244 21.084 76.8147 20.916C76.3853 20.7387 76.0167 20.496 75.7087 20.188C75.41 19.88 75.1767 19.516 75.0087 19.096C74.8407 18.676 74.7567 18.2187 74.7567 17.724C74.7567 17.2293 74.8407 16.772 75.0087 16.352C75.1767 15.932 75.41 15.568 75.7087 15.26C76.0167 14.952 76.3853 14.714 76.8147 14.546C77.244 14.3687 77.7247 14.28 78.2567 14.28C78.6953 14.28 79.1387 14.378 79.5867 14.574C80.044 14.7607 80.4127 15.0407 80.6927 15.414L79.9507 15.946ZM85.1867 15.246H83.3387V19.068C83.3387 19.3107 83.362 19.5113 83.4087 19.67C83.4553 19.8287 83.5207 19.9547 83.6047 20.048C83.698 20.132 83.8053 20.1927 83.9267 20.23C84.048 20.258 84.1787 20.272 84.3187 20.272C84.4493 20.272 84.5847 20.2533 84.7247 20.216C84.874 20.1787 85.014 20.1273 85.1447 20.062L85.1867 20.888C85.0187 20.9533 84.8413 21 84.6547 21.028C84.4773 21.0653 84.2813 21.084 84.0667 21.084C83.8893 21.084 83.7027 21.0607 83.5067 21.014C83.3107 20.9673 83.1287 20.8787 82.9607 20.748C82.7927 20.6173 82.6527 20.44 82.5407 20.216C82.438 19.992 82.3867 19.698 82.3867 19.334V15.246H81.0287V14.448H82.3867V12.6H83.3387V14.448H85.1867V15.246ZM87.642 21H86.69V14.448H87.642V21ZM87.838 11.928C87.838 12.124 87.768 12.2873 87.628 12.418C87.488 12.5393 87.334 12.6 87.166 12.6C86.998 12.6 86.844 12.5393 86.704 12.418C86.564 12.2873 86.494 12.124 86.494 11.928C86.494 11.732 86.564 11.5733 86.704 11.452C86.844 11.3213 86.998 11.256 87.166 11.256C87.334 11.256 87.488 11.3213 87.628 11.452C87.768 11.5733 87.838 11.732 87.838 11.928ZM96.686 17.724C96.686 18.2187 96.5973 18.676 96.42 19.096C96.252 19.516 96.014 19.88 95.706 20.188C95.398 20.496 95.0293 20.7387 94.6 20.916C94.1707 21.084 93.6993 21.168 93.186 21.168C92.682 21.168 92.2153 21.084 91.786 20.916C91.3567 20.7387 90.988 20.496 90.68 20.188C90.372 19.88 90.1293 19.516 89.952 19.096C89.784 18.676 89.7 18.2187 89.7 17.724C89.7 17.2293 89.784 16.772 89.952 16.352C90.1293 15.932 90.372 15.568 90.68 15.26C90.988 14.952 91.3567 14.714 91.786 14.546C92.2153 14.3687 92.682 14.28 93.186 14.28C93.6993 14.28 94.1707 14.3687 94.6 14.546C95.0293 14.714 95.398 14.952 95.706 15.26C96.014 15.568 96.252 15.932 96.42 16.352C96.5973 16.772 96.686 17.2293 96.686 17.724ZM95.678 17.724C95.678 17.36 95.6173 17.0193 95.496 16.702C95.384 16.3753 95.2207 16.0953 95.006 15.862C94.7913 15.6193 94.53 15.428 94.222 15.288C93.914 15.148 93.5687 15.078 93.186 15.078C92.8033 15.078 92.458 15.148 92.15 15.288C91.8513 15.428 91.5947 15.6193 91.38 15.862C91.1653 16.0953 90.9973 16.3753 90.876 16.702C90.764 17.0193 90.708 17.36 90.708 17.724C90.708 18.088 90.764 18.4333 90.876 18.76C90.9973 19.0773 91.1653 19.3573 91.38 19.6C91.5947 19.8333 91.8513 20.02 92.15 20.16C92.458 20.2907 92.8033 20.356 93.186 20.356C93.5687 20.356 93.914 20.2907 94.222 20.16C94.53 20.02 94.7913 19.8333 95.006 19.6C95.2207 19.3573 95.384 19.0773 95.496 18.76C95.6173 18.4333 95.678 18.088 95.678 17.724ZM99.5886 14.448C99.6073 14.6253 99.6213 14.8213 99.6306 15.036C99.6399 15.2507 99.6446 15.428 99.6446 15.568H99.6726C99.8593 15.1853 100.163 14.8773 100.583 14.644C101.003 14.4013 101.446 14.28 101.913 14.28C102.743 14.28 103.364 14.5273 103.775 15.022C104.195 15.5167 104.405 16.17 104.405 16.982V21H103.453V17.374C103.453 17.0287 103.425 16.716 103.369 16.436C103.313 16.156 103.215 15.918 103.075 15.722C102.944 15.5167 102.762 15.358 102.529 15.246C102.305 15.134 102.02 15.078 101.675 15.078C101.423 15.078 101.175 15.1293 100.933 15.232C100.699 15.3347 100.489 15.4933 100.303 15.708C100.116 15.9133 99.9666 16.1793 99.8546 16.506C99.7426 16.8233 99.6866 17.2013 99.6866 17.64V21H98.7346V15.89C98.7346 15.7127 98.7299 15.484 98.7206 15.204C98.7113 14.924 98.6973 14.672 98.6786 14.448H99.5886ZM110.355 16.002C110.215 15.7313 110.001 15.512 109.711 15.344C109.431 15.1667 109.109 15.078 108.745 15.078C108.577 15.078 108.409 15.0967 108.241 15.134C108.073 15.1713 107.924 15.232 107.793 15.316C107.663 15.4 107.555 15.5073 107.471 15.638C107.397 15.7687 107.359 15.9227 107.359 16.1C107.359 16.408 107.485 16.646 107.737 16.814C107.989 16.9727 108.386 17.108 108.927 17.22C109.702 17.3787 110.271 17.612 110.635 17.92C111.009 18.2187 111.195 18.6247 111.195 19.138C111.195 19.5113 111.121 19.8287 110.971 20.09C110.831 20.342 110.645 20.552 110.411 20.72C110.178 20.8787 109.912 20.9907 109.613 21.056C109.324 21.1307 109.03 21.168 108.731 21.168C108.237 21.168 107.756 21.0653 107.289 20.86C106.823 20.6547 106.44 20.3327 106.141 19.894L106.897 19.334C107.065 19.6233 107.313 19.866 107.639 20.062C107.966 20.258 108.325 20.356 108.717 20.356C108.923 20.356 109.119 20.3373 109.305 20.3C109.492 20.2627 109.655 20.1973 109.795 20.104C109.935 20.0107 110.047 19.894 110.131 19.754C110.215 19.6047 110.257 19.4227 110.257 19.208C110.257 18.8627 110.089 18.606 109.753 18.438C109.427 18.2607 108.951 18.0973 108.325 17.948C108.129 17.9013 107.919 17.8453 107.695 17.78C107.481 17.7053 107.28 17.6027 107.093 17.472C106.907 17.332 106.753 17.1593 106.631 16.954C106.51 16.7487 106.449 16.492 106.449 16.184C106.449 15.848 106.515 15.5633 106.645 15.33C106.776 15.0873 106.949 14.8913 107.163 14.742C107.387 14.5833 107.639 14.4667 107.919 14.392C108.199 14.3173 108.489 14.28 108.787 14.28C109.245 14.28 109.688 14.3827 110.117 14.588C110.547 14.7933 110.869 15.0827 111.083 15.456L110.355 16.002ZM122.736 18.704L124.962 21H123.562L122.162 19.53C121.751 20.09 121.308 20.5053 120.832 20.776C120.356 21.0373 119.782 21.168 119.11 21.168C118.69 21.168 118.289 21.1073 117.906 20.986C117.533 20.8647 117.206 20.692 116.926 20.468C116.646 20.2347 116.422 19.95 116.254 19.614C116.095 19.2687 116.016 18.872 116.016 18.424C116.016 18.0507 116.072 17.7147 116.184 17.416C116.305 17.1173 116.469 16.8513 116.674 16.618C116.879 16.3753 117.122 16.1607 117.402 15.974C117.682 15.7873 117.985 15.624 118.312 15.484C118.163 15.3347 118.013 15.1713 117.864 14.994C117.724 14.8167 117.598 14.6347 117.486 14.448C117.374 14.252 117.281 14.0467 117.206 13.832C117.141 13.6173 117.108 13.398 117.108 13.174C117.108 12.8007 117.173 12.4693 117.304 12.18C117.435 11.8907 117.612 11.648 117.836 11.452C118.06 11.2467 118.321 11.0927 118.62 10.99C118.919 10.8873 119.236 10.836 119.572 10.836C119.899 10.836 120.207 10.8873 120.496 10.99C120.785 11.0833 121.037 11.228 121.252 11.424C121.476 11.6107 121.649 11.844 121.77 12.124C121.901 12.3947 121.966 12.7073 121.966 13.062C121.966 13.3887 121.901 13.6827 121.77 13.944C121.649 14.2053 121.481 14.4433 121.266 14.658C121.061 14.8633 120.823 15.05 120.552 15.218C120.291 15.3767 120.02 15.526 119.74 15.666L122.05 18.046L123.422 15.638H124.556L122.736 18.704ZM120.986 13.062C120.986 12.6513 120.851 12.3153 120.58 12.054C120.319 11.7927 119.987 11.662 119.586 11.662C119.147 11.662 118.788 11.802 118.508 12.082C118.228 12.3527 118.088 12.7213 118.088 13.188C118.088 13.3653 118.125 13.552 118.2 13.748C118.275 13.9347 118.368 14.112 118.48 14.28C118.592 14.448 118.709 14.602 118.83 14.742C118.961 14.882 119.073 14.9893 119.166 15.064C119.39 14.9613 119.609 14.8493 119.824 14.728C120.039 14.5973 120.23 14.4527 120.398 14.294C120.575 14.1353 120.715 13.9533 120.818 13.748C120.93 13.5427 120.986 13.314 120.986 13.062ZM118.872 16.128C118.275 16.3987 117.822 16.7207 117.514 17.094C117.206 17.458 117.052 17.906 117.052 18.438C117.052 18.718 117.103 18.9747 117.206 19.208C117.318 19.4413 117.467 19.642 117.654 19.81C117.85 19.9687 118.074 20.0947 118.326 20.188C118.578 20.2813 118.844 20.328 119.124 20.328C119.665 20.328 120.113 20.2067 120.468 19.964C120.832 19.7213 121.173 19.3573 121.49 18.872L118.872 16.128ZM130.004 11.088H133.294C133.91 11.088 134.526 11.1907 135.142 11.396C135.767 11.6013 136.327 11.914 136.822 12.334C137.326 12.7447 137.732 13.2627 138.04 13.888C138.348 14.504 138.502 15.2227 138.502 16.044C138.502 16.8747 138.348 17.598 138.04 18.214C137.732 18.83 137.326 19.348 136.822 19.768C136.327 20.1787 135.767 20.4867 135.142 20.692C134.526 20.8973 133.91 21 133.294 21H130.004V11.088ZM131.012 20.104H133.014C133.76 20.104 134.409 19.9873 134.96 19.754C135.52 19.5207 135.982 19.2173 136.346 18.844C136.71 18.4613 136.98 18.0273 137.158 17.542C137.344 17.0567 137.438 16.5573 137.438 16.044C137.438 15.5307 137.344 15.0313 137.158 14.546C136.98 14.0607 136.71 13.6313 136.346 13.258C135.982 12.8753 135.52 12.5673 134.96 12.334C134.409 12.1007 133.76 11.984 133.014 11.984H131.012V20.104ZM145.541 17.22C145.513 16.604 145.313 16.0953 144.939 15.694C144.575 15.2833 144.053 15.078 143.371 15.078C143.054 15.078 142.76 15.1387 142.489 15.26C142.219 15.372 141.981 15.5307 141.775 15.736C141.57 15.932 141.407 16.1607 141.285 16.422C141.164 16.674 141.094 16.94 141.075 17.22H145.541ZM146.507 17.528C146.507 17.5933 146.507 17.6633 146.507 17.738C146.507 17.8127 146.503 17.892 146.493 17.976H141.061C141.071 18.3027 141.136 18.6107 141.257 18.9C141.379 19.1893 141.547 19.4413 141.761 19.656C141.976 19.8707 142.228 20.0433 142.517 20.174C142.807 20.2953 143.119 20.356 143.455 20.356C143.95 20.356 144.375 20.244 144.729 20.02C145.093 19.7867 145.369 19.5207 145.555 19.222L146.269 19.782C145.877 20.2767 145.443 20.6313 144.967 20.846C144.501 21.0607 143.997 21.168 143.455 21.168C142.97 21.168 142.517 21.084 142.097 20.916C141.687 20.7387 141.332 20.496 141.033 20.188C140.735 19.88 140.497 19.516 140.319 19.096C140.151 18.676 140.067 18.2187 140.067 17.724C140.067 17.2293 140.151 16.772 140.319 16.352C140.487 15.932 140.721 15.568 141.019 15.26C141.318 14.952 141.668 14.714 142.069 14.546C142.471 14.3687 142.905 14.28 143.371 14.28C143.885 14.28 144.337 14.3687 144.729 14.546C145.121 14.714 145.448 14.9473 145.709 15.246C145.971 15.5353 146.167 15.876 146.297 16.268C146.437 16.66 146.507 17.08 146.507 17.528ZM153.273 15.946C153.114 15.694 152.881 15.4887 152.573 15.33C152.274 15.162 151.948 15.078 151.593 15.078C151.21 15.078 150.865 15.148 150.557 15.288C150.249 15.4187 149.983 15.6053 149.759 15.848C149.544 16.0813 149.376 16.3613 149.255 16.688C149.143 17.0053 149.087 17.3507 149.087 17.724C149.087 18.0973 149.143 18.4427 149.255 18.76C149.376 19.0773 149.544 19.3573 149.759 19.6C149.974 19.8333 150.235 20.02 150.543 20.16C150.851 20.2907 151.196 20.356 151.579 20.356C151.999 20.356 152.354 20.2767 152.643 20.118C152.932 19.9593 153.17 19.754 153.357 19.502L154.071 20.034C153.791 20.3793 153.446 20.6547 153.035 20.86C152.634 21.0653 152.148 21.168 151.579 21.168C151.047 21.168 150.566 21.084 150.137 20.916C149.708 20.7387 149.339 20.496 149.031 20.188C148.732 19.88 148.499 19.516 148.331 19.096C148.163 18.676 148.079 18.2187 148.079 17.724C148.079 17.2293 148.163 16.772 148.331 16.352C148.499 15.932 148.732 15.568 149.031 15.26C149.339 14.952 149.708 14.714 150.137 14.546C150.566 14.3687 151.047 14.28 151.579 14.28C152.018 14.28 152.461 14.378 152.909 14.574C153.366 14.7607 153.735 15.0407 154.015 15.414L153.273 15.946ZM156.521 21H155.569V14.448H156.521V21ZM156.717 11.928C156.717 12.124 156.647 12.2873 156.507 12.418C156.367 12.5393 156.213 12.6 156.045 12.6C155.877 12.6 155.723 12.5393 155.583 12.418C155.443 12.2873 155.373 12.124 155.373 11.928C155.373 11.732 155.443 11.5733 155.583 11.452C155.723 11.3213 155.877 11.256 156.045 11.256C156.213 11.256 156.367 11.3213 156.507 11.452C156.647 11.5733 156.717 11.732 156.717 11.928ZM162.541 16.002C162.401 15.7313 162.186 15.512 161.897 15.344C161.617 15.1667 161.295 15.078 160.931 15.078C160.763 15.078 160.595 15.0967 160.427 15.134C160.259 15.1713 160.11 15.232 159.979 15.316C159.848 15.4 159.741 15.5073 159.657 15.638C159.582 15.7687 159.545 15.9227 159.545 16.1C159.545 16.408 159.671 16.646 159.923 16.814C160.175 16.9727 160.572 17.108 161.113 17.22C161.888 17.3787 162.457 17.612 162.821 17.92C163.194 18.2187 163.381 18.6247 163.381 19.138C163.381 19.5113 163.306 19.8287 163.157 20.09C163.017 20.342 162.83 20.552 162.597 20.72C162.364 20.8787 162.098 20.9907 161.799 21.056C161.51 21.1307 161.216 21.168 160.917 21.168C160.422 21.168 159.942 21.0653 159.475 20.86C159.008 20.6547 158.626 20.3327 158.327 19.894L159.083 19.334C159.251 19.6233 159.498 19.866 159.825 20.062C160.152 20.258 160.511 20.356 160.903 20.356C161.108 20.356 161.304 20.3373 161.491 20.3C161.678 20.2627 161.841 20.1973 161.981 20.104C162.121 20.0107 162.233 19.894 162.317 19.754C162.401 19.6047 162.443 19.4227 162.443 19.208C162.443 18.8627 162.275 18.606 161.939 18.438C161.612 18.2607 161.136 18.0973 160.511 17.948C160.315 17.9013 160.105 17.8453 159.881 17.78C159.666 17.7053 159.466 17.6027 159.279 17.472C159.092 17.332 158.938 17.1593 158.817 16.954C158.696 16.7487 158.635 16.492 158.635 16.184C158.635 15.848 158.7 15.5633 158.831 15.33C158.962 15.0873 159.134 14.8913 159.349 14.742C159.573 14.5833 159.825 14.4667 160.105 14.392C160.385 14.3173 160.674 14.28 160.973 14.28C161.43 14.28 161.874 14.3827 162.303 14.588C162.732 14.7933 163.054 15.0827 163.269 15.456L162.541 16.002ZM166.242 21H165.29V14.448H166.242V21ZM166.438 11.928C166.438 12.124 166.368 12.2873 166.228 12.418C166.088 12.5393 165.934 12.6 165.766 12.6C165.598 12.6 165.444 12.5393 165.304 12.418C165.164 12.2873 165.094 12.124 165.094 11.928C165.094 11.732 165.164 11.5733 165.304 11.452C165.444 11.3213 165.598 11.256 165.766 11.256C165.934 11.256 166.088 11.3213 166.228 11.452C166.368 11.5733 166.438 11.732 166.438 11.928ZM175.286 17.724C175.286 18.2187 175.197 18.676 175.02 19.096C174.852 19.516 174.614 19.88 174.306 20.188C173.998 20.496 173.629 20.7387 173.2 20.916C172.77 21.084 172.299 21.168 171.786 21.168C171.282 21.168 170.815 21.084 170.386 20.916C169.956 20.7387 169.588 20.496 169.28 20.188C168.972 19.88 168.729 19.516 168.552 19.096C168.384 18.676 168.3 18.2187 168.3 17.724C168.3 17.2293 168.384 16.772 168.552 16.352C168.729 15.932 168.972 15.568 169.28 15.26C169.588 14.952 169.956 14.714 170.386 14.546C170.815 14.3687 171.282 14.28 171.786 14.28C172.299 14.28 172.77 14.3687 173.2 14.546C173.629 14.714 173.998 14.952 174.306 15.26C174.614 15.568 174.852 15.932 175.02 16.352C175.197 16.772 175.286 17.2293 175.286 17.724ZM174.278 17.724C174.278 17.36 174.217 17.0193 174.096 16.702C173.984 16.3753 173.82 16.0953 173.606 15.862C173.391 15.6193 173.13 15.428 172.822 15.288C172.514 15.148 172.168 15.078 171.786 15.078C171.403 15.078 171.058 15.148 170.75 15.288C170.451 15.428 170.194 15.6193 169.98 15.862C169.765 16.0953 169.597 16.3753 169.476 16.702C169.364 17.0193 169.308 17.36 169.308 17.724C169.308 18.088 169.364 18.4333 169.476 18.76C169.597 19.0773 169.765 19.3573 169.98 19.6C170.194 19.8333 170.451 20.02 170.75 20.16C171.058 20.2907 171.403 20.356 171.786 20.356C172.168 20.356 172.514 20.2907 172.822 20.16C173.13 20.02 173.391 19.8333 173.606 19.6C173.82 19.3573 173.984 19.0773 174.096 18.76C174.217 18.4333 174.278 18.088 174.278 17.724ZM178.188 14.448C178.207 14.6253 178.221 14.8213 178.23 15.036C178.24 15.2507 178.244 15.428 178.244 15.568H178.272C178.459 15.1853 178.762 14.8773 179.182 14.644C179.602 14.4013 180.046 14.28 180.512 14.28C181.343 14.28 181.964 14.5273 182.374 15.022C182.794 15.5167 183.004 16.17 183.004 16.982V21H182.052V17.374C182.052 17.0287 182.024 16.716 181.968 16.436C181.912 16.156 181.814 15.918 181.674 15.722C181.544 15.5167 181.362 15.358 181.128 15.246C180.904 15.134 180.62 15.078 180.274 15.078C180.022 15.078 179.775 15.1293 179.532 15.232C179.299 15.3347 179.089 15.4933 178.902 15.708C178.716 15.9133 178.566 16.1793 178.454 16.506C178.342 16.8233 178.286 17.2013 178.286 17.64V21H177.334V15.89C177.334 15.7127 177.33 15.484 177.32 15.204C177.311 14.924 177.297 14.672 177.278 14.448H178.188ZM188.955 16.002C188.815 15.7313 188.6 15.512 188.311 15.344C188.031 15.1667 187.709 15.078 187.345 15.078C187.177 15.078 187.009 15.0967 186.841 15.134C186.673 15.1713 186.524 15.232 186.393 15.316C186.262 15.4 186.155 15.5073 186.071 15.638C185.996 15.7687 185.959 15.9227 185.959 16.1C185.959 16.408 186.085 16.646 186.337 16.814C186.589 16.9727 186.986 17.108 187.527 17.22C188.302 17.3787 188.871 17.612 189.235 17.92C189.608 18.2187 189.795 18.6247 189.795 19.138C189.795 19.5113 189.72 19.8287 189.571 20.09C189.431 20.342 189.244 20.552 189.011 20.72C188.778 20.8787 188.512 20.9907 188.213 21.056C187.924 21.1307 187.63 21.168 187.331 21.168C186.836 21.168 186.356 21.0653 185.889 20.86C185.422 20.6547 185.04 20.3327 184.741 19.894L185.497 19.334C185.665 19.6233 185.912 19.866 186.239 20.062C186.566 20.258 186.925 20.356 187.317 20.356C187.522 20.356 187.718 20.3373 187.905 20.3C188.092 20.2627 188.255 20.1973 188.395 20.104C188.535 20.0107 188.647 19.894 188.731 19.754C188.815 19.6047 188.857 19.4227 188.857 19.208C188.857 18.8627 188.689 18.606 188.353 18.438C188.026 18.2607 187.55 18.0973 186.925 17.948C186.729 17.9013 186.519 17.8453 186.295 17.78C186.08 17.7053 185.88 17.6027 185.693 17.472C185.506 17.332 185.352 17.1593 185.231 16.954C185.11 16.7487 185.049 16.492 185.049 16.184C185.049 15.848 185.114 15.5633 185.245 15.33C185.376 15.0873 185.548 14.8913 185.763 14.742C185.987 14.5833 186.239 14.4667 186.519 14.392C186.799 14.3173 187.088 14.28 187.387 14.28C187.844 14.28 188.288 14.3827 188.717 14.588C189.146 14.7933 189.468 15.0827 189.683 15.456L188.955 16.002Z" fill="#2A4661"/>
</svg>
