<svg width="144" height="44" viewBox="0 0 144 44" fill="none" xmlns="http://www.w3.org/2000/svg">
<rect width="144" height="33" rx="16.5" fill="#E2E2E2"/>
<path d="M72.3343 43.5835L79.552 31.896H65.1166L72.3343 43.5835Z" fill="#E2E2E2"/>
<path d="M18.9703 15.414L18.9983 15.442C19.1476 15.33 19.3576 15.2413 19.6283 15.176C19.8989 15.1107 20.1603 15.078 20.4123 15.078C20.8416 15.078 21.2383 15.1527 21.6023 15.302C21.9756 15.4513 22.2976 15.6613 22.5683 15.932C22.8389 16.1933 23.0489 16.5153 23.1983 16.898C23.3569 17.2713 23.4363 17.682 23.4363 18.13C23.4363 18.5967 23.3569 19.0213 23.1983 19.404C23.0396 19.7867 22.8156 20.1133 22.5263 20.384C22.2369 20.6547 21.8963 20.8647 21.5043 21.014C21.1123 21.1727 20.6829 21.252 20.2163 21.252C19.7496 21.252 19.3203 21.1727 18.9283 21.014C18.5363 20.8647 18.1956 20.6547 17.9062 20.384C17.6169 20.1133 17.3929 19.7867 17.2343 19.404C17.0756 19.0213 16.9963 18.5967 16.9963 18.13C16.9963 17.6167 17.0849 17.1407 17.2623 16.702C17.4396 16.2633 17.6496 15.8433 17.8923 15.442L20.5943 11.088H21.7563L18.9703 15.414ZM18.0042 18.13C18.0042 18.4567 18.0556 18.76 18.1583 19.04C18.2703 19.3107 18.4243 19.5487 18.6203 19.754C18.8163 19.95 19.0496 20.1087 19.3203 20.23C19.5909 20.342 19.8896 20.398 20.2163 20.398C20.5429 20.398 20.8416 20.342 21.1123 20.23C21.3829 20.1087 21.6163 19.95 21.8123 19.754C22.0083 19.5487 22.1576 19.3107 22.2603 19.04C22.3723 18.76 22.4283 18.4567 22.4283 18.13C22.4283 17.8127 22.3769 17.5187 22.2743 17.248C22.1716 16.968 22.0223 16.73 21.8263 16.534C21.6396 16.3287 21.4063 16.17 21.1263 16.058C20.8556 15.946 20.5523 15.89 20.2163 15.89C19.8803 15.89 19.5723 15.946 19.2923 16.058C19.0216 16.17 18.7883 16.3287 18.5923 16.534C18.4056 16.73 18.2609 16.968 18.1583 17.248C18.0556 17.5187 18.0042 17.8127 18.0042 18.13ZM32.9573 18.004H28.1973V17.206H32.9573V18.004ZM39.2068 21H38.1988V11.088H41.1108C41.5961 11.088 42.0441 11.1347 42.4548 11.228C42.8748 11.3213 43.2341 11.4753 43.5328 11.69C43.8408 11.8953 44.0788 12.166 44.2468 12.502C44.4148 12.838 44.4988 13.2487 44.4988 13.734C44.4988 14.098 44.4335 14.4293 44.3028 14.728C44.1721 15.0267 43.9948 15.288 43.7708 15.512C43.5468 15.7267 43.2808 15.8993 42.9728 16.03C42.6648 16.1607 42.3288 16.2447 41.9648 16.282L44.8628 21H43.6308L40.8868 16.366H39.2068V21ZM39.2068 15.498H40.9568C41.7688 15.498 42.3941 15.3533 42.8328 15.064C43.2715 14.7653 43.4908 14.322 43.4908 13.734C43.4908 13.4073 43.4301 13.132 43.3088 12.908C43.1875 12.684 43.0195 12.502 42.8048 12.362C42.5901 12.222 42.3288 12.1193 42.0208 12.054C41.7128 11.9887 41.3721 11.956 40.9988 11.956H39.2068V15.498ZM47.4897 21H46.5377V14.448H47.4897V21ZM47.6857 11.928C47.6857 12.124 47.6157 12.2873 47.4757 12.418C47.3357 12.5393 47.1817 12.6 47.0137 12.6C46.8457 12.6 46.6917 12.5393 46.5517 12.418C46.4117 12.2873 46.3417 12.124 46.3417 11.928C46.3417 11.732 46.4117 11.5733 46.5517 11.452C46.6917 11.3213 46.8457 11.256 47.0137 11.256C47.1817 11.256 47.3357 11.3213 47.4757 11.452C47.6157 11.5733 47.6857 11.732 47.6857 11.928ZM53.5097 16.002C53.3697 15.7313 53.155 15.512 52.8657 15.344C52.5857 15.1667 52.2637 15.078 51.8997 15.078C51.7317 15.078 51.5637 15.0967 51.3957 15.134C51.2277 15.1713 51.0783 15.232 50.9477 15.316C50.817 15.4 50.7097 15.5073 50.6257 15.638C50.551 15.7687 50.5137 15.9227 50.5137 16.1C50.5137 16.408 50.6397 16.646 50.8917 16.814C51.1437 16.9727 51.5403 17.108 52.0817 17.22C52.8563 17.3787 53.4257 17.612 53.7897 17.92C54.163 18.2187 54.3497 18.6247 54.3497 19.138C54.3497 19.5113 54.275 19.8287 54.1257 20.09C53.9857 20.342 53.799 20.552 53.5657 20.72C53.3323 20.8787 53.0663 20.9907 52.7677 21.056C52.4783 21.1307 52.1843 21.168 51.8857 21.168C51.391 21.168 50.9103 21.0653 50.4437 20.86C49.977 20.6547 49.5943 20.3327 49.2957 19.894L50.0517 19.334C50.2197 19.6233 50.467 19.866 50.7937 20.062C51.1203 20.258 51.4797 20.356 51.8717 20.356C52.077 20.356 52.273 20.3373 52.4597 20.3C52.6463 20.2627 52.8097 20.1973 52.9497 20.104C53.0897 20.0107 53.2017 19.894 53.2857 19.754C53.3697 19.6047 53.4117 19.4227 53.4117 19.208C53.4117 18.8627 53.2437 18.606 52.9077 18.438C52.581 18.2607 52.105 18.0973 51.4797 17.948C51.2837 17.9013 51.0737 17.8453 50.8497 17.78C50.635 17.7053 50.4343 17.6027 50.2477 17.472C50.061 17.332 49.907 17.1593 49.7857 16.954C49.6643 16.7487 49.6037 16.492 49.6037 16.184C49.6037 15.848 49.669 15.5633 49.7997 15.33C49.9303 15.0873 50.103 14.8913 50.3177 14.742C50.5417 14.5833 50.7937 14.4667 51.0737 14.392C51.3537 14.3173 51.643 14.28 51.9417 14.28C52.399 14.28 52.8423 14.3827 53.2717 14.588C53.701 14.7933 54.023 15.0827 54.2377 15.456L53.5097 16.002ZM57.2244 17.402H57.2664L60.2904 14.448H61.6624L58.3584 17.444L61.9984 21H60.5984L57.2664 17.556H57.2244V21H56.2724V10.416H57.2244V17.402ZM73.0271 18.704L75.2531 21H73.8531L72.4531 19.53C72.0424 20.09 71.5991 20.5053 71.1231 20.776C70.6471 21.0373 70.0731 21.168 69.4011 21.168C68.9811 21.168 68.5798 21.1073 68.1971 20.986C67.8238 20.8647 67.4971 20.692 67.2171 20.468C66.9371 20.2347 66.7131 19.95 66.5451 19.614C66.3864 19.2687 66.3071 18.872 66.3071 18.424C66.3071 18.0507 66.3631 17.7147 66.4751 17.416C66.5964 17.1173 66.7598 16.8513 66.9651 16.618C67.1704 16.3753 67.4131 16.1607 67.6931 15.974C67.9731 15.7873 68.2764 15.624 68.6031 15.484C68.4538 15.3347 68.3044 15.1713 68.1551 14.994C68.0151 14.8167 67.8891 14.6347 67.7771 14.448C67.6651 14.252 67.5718 14.0467 67.4971 13.832C67.4318 13.6173 67.3991 13.398 67.3991 13.174C67.3991 12.8007 67.4644 12.4693 67.5951 12.18C67.7258 11.8907 67.9031 11.648 68.1271 11.452C68.3511 11.2467 68.6124 11.0927 68.9111 10.99C69.2098 10.8873 69.5271 10.836 69.8631 10.836C70.1898 10.836 70.4978 10.8873 70.7871 10.99C71.0764 11.0833 71.3284 11.228 71.5431 11.424C71.7671 11.6107 71.9398 11.844 72.0611 12.124C72.1918 12.3947 72.2571 12.7073 72.2571 13.062C72.2571 13.3887 72.1918 13.6827 72.0611 13.944C71.9398 14.2053 71.7718 14.4433 71.5571 14.658C71.3518 14.8633 71.1138 15.05 70.8431 15.218C70.5818 15.3767 70.3111 15.526 70.0311 15.666L72.3411 18.046L73.7131 15.638H74.8471L73.0271 18.704ZM71.2771 13.062C71.2771 12.6513 71.1418 12.3153 70.8711 12.054C70.6098 11.7927 70.2784 11.662 69.8771 11.662C69.4384 11.662 69.0791 11.802 68.7991 12.082C68.5191 12.3527 68.3791 12.7213 68.3791 13.188C68.3791 13.3653 68.4164 13.552 68.4911 13.748C68.5658 13.9347 68.6591 14.112 68.7711 14.28C68.8831 14.448 68.9998 14.602 69.1211 14.742C69.2518 14.882 69.3638 14.9893 69.4571 15.064C69.6811 14.9613 69.9004 14.8493 70.1151 14.728C70.3298 14.5973 70.5211 14.4527 70.6891 14.294C70.8664 14.1353 71.0064 13.9533 71.1091 13.748C71.2211 13.5427 71.2771 13.314 71.2771 13.062ZM69.1631 16.128C68.5658 16.3987 68.1131 16.7207 67.8051 17.094C67.4971 17.458 67.3431 17.906 67.3431 18.438C67.3431 18.718 67.3944 18.9747 67.4971 19.208C67.6091 19.4413 67.7584 19.642 67.9451 19.81C68.1411 19.9687 68.3651 20.0947 68.6171 20.188C68.8691 20.2813 69.1351 20.328 69.4151 20.328C69.9564 20.328 70.4044 20.2067 70.7591 19.964C71.1231 19.7213 71.4638 19.3573 71.7811 18.872L69.1631 16.128ZM81.3025 21H80.2945V11.088H83.2065C83.6918 11.088 84.1398 11.1347 84.5505 11.228C84.9705 11.3213 85.3298 11.4753 85.6285 11.69C85.9365 11.8953 86.1745 12.166 86.3425 12.502C86.5105 12.838 86.5945 13.2487 86.5945 13.734C86.5945 14.098 86.5292 14.4293 86.3985 14.728C86.2678 15.0267 86.0905 15.288 85.8665 15.512C85.6425 15.7267 85.3765 15.8993 85.0685 16.03C84.7605 16.1607 84.4245 16.2447 84.0605 16.282L86.9585 21H85.7265L82.9825 16.366H81.3025V21ZM81.3025 15.498H83.0525C83.8645 15.498 84.4898 15.3533 84.9285 15.064C85.3672 14.7653 85.5865 14.322 85.5865 13.734C85.5865 13.4073 85.5258 13.132 85.4045 12.908C85.2832 12.684 85.1152 12.502 84.9005 12.362C84.6858 12.222 84.4245 12.1193 84.1165 12.054C83.8085 11.9887 83.4678 11.956 83.0945 11.956H81.3025V15.498ZM93.4533 17.22C93.4253 16.604 93.2246 16.0953 92.8513 15.694C92.4873 15.2833 91.9646 15.078 91.2833 15.078C90.966 15.078 90.672 15.1387 90.4013 15.26C90.1306 15.372 89.8926 15.5307 89.6873 15.736C89.482 15.932 89.3186 16.1607 89.1973 16.422C89.076 16.674 89.006 16.94 88.9873 17.22H93.4533ZM94.4193 17.528C94.4193 17.5933 94.4193 17.6633 94.4193 17.738C94.4193 17.8127 94.4146 17.892 94.4053 17.976H88.9733C88.9826 18.3027 89.048 18.6107 89.1693 18.9C89.2906 19.1893 89.4586 19.4413 89.6733 19.656C89.888 19.8707 90.14 20.0433 90.4293 20.174C90.7186 20.2953 91.0313 20.356 91.3673 20.356C91.862 20.356 92.2866 20.244 92.6413 20.02C93.0053 19.7867 93.2806 19.5207 93.4673 19.222L94.1813 19.782C93.7893 20.2767 93.3553 20.6313 92.8793 20.846C92.4126 21.0607 91.9086 21.168 91.3673 21.168C90.882 21.168 90.4293 21.084 90.0093 20.916C89.5986 20.7387 89.244 20.496 88.9453 20.188C88.6466 19.88 88.4086 19.516 88.2313 19.096C88.0633 18.676 87.9793 18.2187 87.9793 17.724C87.9793 17.2293 88.0633 16.772 88.2313 16.352C88.3993 15.932 88.6326 15.568 88.9313 15.26C89.23 14.952 89.58 14.714 89.9813 14.546C90.3826 14.3687 90.8166 14.28 91.2833 14.28C91.7966 14.28 92.2493 14.3687 92.6413 14.546C93.0333 14.714 93.36 14.9473 93.6213 15.246C93.8826 15.5353 94.0786 15.876 94.2093 16.268C94.3493 16.66 94.4193 17.08 94.4193 17.528ZM96.593 14.448L98.175 19.768H98.203L99.967 14.448H100.891L102.683 19.768H102.711L104.279 14.448H105.287L103.215 21H102.179L100.429 15.694H100.401L98.679 21H97.643L95.571 14.448H96.593ZM111.042 16.772C111.042 16.2027 110.893 15.778 110.594 15.498C110.296 15.218 109.862 15.078 109.292 15.078C108.9 15.078 108.536 15.148 108.2 15.288C107.864 15.428 107.58 15.6147 107.346 15.848L106.814 15.218C107.085 14.9473 107.44 14.7233 107.878 14.546C108.326 14.3687 108.83 14.28 109.39 14.28C109.745 14.28 110.076 14.3313 110.384 14.434C110.692 14.5273 110.963 14.672 111.196 14.868C111.43 15.064 111.612 15.3113 111.742 15.61C111.873 15.9087 111.938 16.2587 111.938 16.66V19.53C111.938 19.782 111.948 20.0433 111.966 20.314C111.985 20.5847 112.013 20.8133 112.05 21H111.196C111.168 20.8413 111.145 20.6687 111.126 20.482C111.108 20.2953 111.098 20.1133 111.098 19.936H111.07C110.772 20.3747 110.431 20.692 110.048 20.888C109.675 21.0747 109.222 21.168 108.69 21.168C108.438 21.168 108.177 21.1307 107.906 21.056C107.645 20.9907 107.402 20.8787 107.178 20.72C106.964 20.5613 106.782 20.356 106.632 20.104C106.492 19.852 106.422 19.544 106.422 19.18C106.422 18.676 106.548 18.2793 106.8 17.99C107.062 17.6913 107.407 17.472 107.836 17.332C108.266 17.1827 108.756 17.0893 109.306 17.052C109.866 17.0053 110.445 16.982 111.042 16.982V16.772ZM110.762 17.724C110.37 17.724 109.974 17.7427 109.572 17.78C109.18 17.808 108.821 17.8733 108.494 17.976C108.177 18.0693 107.916 18.2093 107.71 18.396C107.505 18.5827 107.402 18.83 107.402 19.138C107.402 19.3713 107.444 19.5673 107.528 19.726C107.622 19.8847 107.743 20.0153 107.892 20.118C108.042 20.2113 108.205 20.2813 108.382 20.328C108.569 20.3653 108.756 20.384 108.942 20.384C109.278 20.384 109.577 20.328 109.838 20.216C110.1 20.0947 110.319 19.936 110.496 19.74C110.674 19.5347 110.809 19.3013 110.902 19.04C110.996 18.7787 111.042 18.5033 111.042 18.214V17.724H110.762ZM114.391 15.89C114.391 15.7127 114.386 15.484 114.377 15.204C114.368 14.924 114.354 14.672 114.335 14.448H115.245C115.264 14.6253 115.278 14.8213 115.287 15.036C115.296 15.2507 115.301 15.428 115.301 15.568H115.329C115.516 15.1853 115.796 14.8773 116.169 14.644C116.542 14.4013 116.962 14.28 117.429 14.28C117.55 14.28 117.658 14.2847 117.751 14.294C117.854 14.3033 117.956 14.322 118.059 14.35L117.933 15.246C117.877 15.2273 117.784 15.2087 117.653 15.19C117.522 15.1713 117.392 15.162 117.261 15.162C117.009 15.162 116.766 15.2087 116.533 15.302C116.3 15.3953 116.094 15.5447 115.917 15.75C115.749 15.946 115.609 16.2027 115.497 16.52C115.394 16.828 115.343 17.2013 115.343 17.64V21H114.391V15.89ZM124.58 19.894C124.3 20.314 123.936 20.6313 123.488 20.846C123.04 21.0607 122.578 21.168 122.102 21.168C121.588 21.168 121.122 21.0793 120.702 20.902C120.291 20.7247 119.936 20.482 119.638 20.174C119.348 19.866 119.12 19.502 118.952 19.082C118.793 18.662 118.714 18.2093 118.714 17.724C118.714 17.2387 118.793 16.786 118.952 16.366C119.12 15.946 119.348 15.582 119.638 15.274C119.936 14.966 120.291 14.7233 120.702 14.546C121.122 14.3687 121.588 14.28 122.102 14.28C122.578 14.28 123.04 14.392 123.488 14.616C123.936 14.8307 124.3 15.1527 124.58 15.582H124.608V10.416H125.56V21H124.608V19.894H124.58ZM119.722 17.724C119.722 18.088 119.778 18.4333 119.89 18.76C120.002 19.0773 120.16 19.3573 120.366 19.6C120.58 19.8333 120.842 20.02 121.15 20.16C121.458 20.2907 121.808 20.356 122.2 20.356C122.564 20.356 122.9 20.2907 123.208 20.16C123.516 20.02 123.782 19.8333 124.006 19.6C124.23 19.3667 124.402 19.0913 124.524 18.774C124.654 18.4473 124.72 18.0973 124.72 17.724C124.72 17.3507 124.654 17.0053 124.524 16.688C124.402 16.3613 124.23 16.0813 124.006 15.848C123.782 15.6053 123.516 15.4187 123.208 15.288C122.9 15.148 122.564 15.078 122.2 15.078C121.808 15.078 121.458 15.148 121.15 15.288C120.842 15.428 120.58 15.6193 120.366 15.862C120.16 16.0953 120.002 16.3753 119.89 16.702C119.778 17.0193 119.722 17.36 119.722 17.724Z" fill="#2A4661"/>
</svg>
