<svg width="144" height="44" viewBox="0 0 144 44" fill="none" xmlns="http://www.w3.org/2000/svg">
<rect width="144" height="33" rx="16.5" fill="#E2E2E2"/>
<path d="M72.3343 43.5835L79.552 31.896H65.1166L72.3343 43.5835Z" fill="#E2E2E2"/>
<path d="M22.9574 12.012L18.9674 21H17.8334L21.9354 11.984H17.0774V11.088H22.9574V12.012ZM32.7864 18.004H28.0264V17.206H32.7864V18.004ZM38.0279 11.088H41.3179C41.9339 11.088 42.5499 11.1907 43.1659 11.396C43.7912 11.6013 44.3512 11.914 44.8459 12.334C45.3499 12.7447 45.7559 13.2627 46.0639 13.888C46.3719 14.504 46.5259 15.2227 46.5259 16.044C46.5259 16.8747 46.3719 17.598 46.0639 18.214C45.7559 18.83 45.3499 19.348 44.8459 19.768C44.3512 20.1787 43.7912 20.4867 43.1659 20.692C42.5499 20.8973 41.9339 21 41.3179 21H38.0279V11.088ZM39.0359 20.104H41.0379C41.7846 20.104 42.4332 19.9873 42.9839 19.754C43.5439 19.5207 44.0059 19.2173 44.3699 18.844C44.7339 18.4613 45.0046 18.0273 45.1819 17.542C45.3686 17.0567 45.4619 16.5573 45.4619 16.044C45.4619 15.5307 45.3686 15.0313 45.1819 14.546C45.0046 14.0607 44.7339 13.6313 44.3699 13.258C44.0059 12.8753 43.5439 12.5673 42.9839 12.334C42.4332 12.1007 41.7846 11.984 41.0379 11.984H39.0359V20.104ZM49.5336 21H48.5816V14.448H49.5336V21ZM49.7296 11.928C49.7296 12.124 49.6596 12.2873 49.5196 12.418C49.3796 12.5393 49.2256 12.6 49.0576 12.6C48.8896 12.6 48.7356 12.5393 48.5956 12.418C48.4556 12.2873 48.3856 12.124 48.3856 11.928C48.3856 11.732 48.4556 11.5733 48.5956 11.452C48.7356 11.3213 48.8896 11.256 49.0576 11.256C49.2256 11.256 49.3796 11.3213 49.5196 11.452C49.6596 11.5733 49.7296 11.732 49.7296 11.928ZM54.7556 21H53.7056L51.0316 14.448H52.0956L54.2236 19.992H54.2516L56.3936 14.448H57.4156L54.7556 21ZM63.9016 17.22C63.8736 16.604 63.6729 16.0953 63.2996 15.694C62.9356 15.2833 62.4129 15.078 61.7316 15.078C61.4142 15.078 61.1202 15.1387 60.8496 15.26C60.5789 15.372 60.3409 15.5307 60.1356 15.736C59.9302 15.932 59.7669 16.1607 59.6456 16.422C59.5242 16.674 59.4542 16.94 59.4356 17.22H63.9016ZM64.8676 17.528C64.8676 17.5933 64.8676 17.6633 64.8676 17.738C64.8676 17.8127 64.8629 17.892 64.8536 17.976H59.4216C59.4309 18.3027 59.4962 18.6107 59.6176 18.9C59.7389 19.1893 59.9069 19.4413 60.1216 19.656C60.3362 19.8707 60.5882 20.0433 60.8776 20.174C61.1669 20.2953 61.4796 20.356 61.8156 20.356C62.3102 20.356 62.7349 20.244 63.0896 20.02C63.4536 19.7867 63.7289 19.5207 63.9156 19.222L64.6296 19.782C64.2376 20.2767 63.8036 20.6313 63.3276 20.846C62.8609 21.0607 62.3569 21.168 61.8156 21.168C61.3302 21.168 60.8776 21.084 60.4576 20.916C60.0469 20.7387 59.6922 20.496 59.3936 20.188C59.0949 19.88 58.8569 19.516 58.6796 19.096C58.5116 18.676 58.4276 18.2187 58.4276 17.724C58.4276 17.2293 58.5116 16.772 58.6796 16.352C58.8476 15.932 59.0809 15.568 59.3796 15.26C59.6782 14.952 60.0282 14.714 60.4296 14.546C60.8309 14.3687 61.2649 14.28 61.7316 14.28C62.2449 14.28 62.6976 14.3687 63.0896 14.546C63.4816 14.714 63.8082 14.9473 64.0696 15.246C64.3309 15.5353 64.5269 15.876 64.6576 16.268C64.7976 16.66 64.8676 17.08 64.8676 17.528ZM66.9153 15.89C66.9153 15.7127 66.9106 15.484 66.9013 15.204C66.8919 14.924 66.8779 14.672 66.8593 14.448H67.7693C67.7879 14.6253 67.8019 14.8213 67.8113 15.036C67.8206 15.2507 67.8253 15.428 67.8253 15.568H67.8533C68.0399 15.1853 68.3199 14.8773 68.6933 14.644C69.0666 14.4013 69.4866 14.28 69.9533 14.28C70.0746 14.28 70.1819 14.2847 70.2753 14.294C70.3779 14.3033 70.4806 14.322 70.5833 14.35L70.4573 15.246C70.4013 15.2273 70.3079 15.2087 70.1773 15.19C70.0466 15.1713 69.9159 15.162 69.7853 15.162C69.5333 15.162 69.2906 15.2087 69.0573 15.302C68.8239 15.3953 68.6186 15.5447 68.4413 15.75C68.2733 15.946 68.1333 16.2027 68.0213 16.52C67.9186 16.828 67.8673 17.2013 67.8673 17.64V21H66.9153V15.89ZM75.4462 16.002C75.3062 15.7313 75.0915 15.512 74.8022 15.344C74.5222 15.1667 74.2002 15.078 73.8362 15.078C73.6682 15.078 73.5002 15.0967 73.3322 15.134C73.1642 15.1713 73.0149 15.232 72.8842 15.316C72.7535 15.4 72.6462 15.5073 72.5622 15.638C72.4875 15.7687 72.4502 15.9227 72.4502 16.1C72.4502 16.408 72.5762 16.646 72.8282 16.814C73.0802 16.9727 73.4769 17.108 74.0182 17.22C74.7929 17.3787 75.3622 17.612 75.7262 17.92C76.0995 18.2187 76.2862 18.6247 76.2862 19.138C76.2862 19.5113 76.2115 19.8287 76.0622 20.09C75.9222 20.342 75.7355 20.552 75.5022 20.72C75.2689 20.8787 75.0029 20.9907 74.7042 21.056C74.4149 21.1307 74.1209 21.168 73.8222 21.168C73.3275 21.168 72.8469 21.0653 72.3802 20.86C71.9135 20.6547 71.5309 20.3327 71.2322 19.894L71.9882 19.334C72.1562 19.6233 72.4035 19.866 72.7302 20.062C73.0569 20.258 73.4162 20.356 73.8082 20.356C74.0135 20.356 74.2095 20.3373 74.3962 20.3C74.5829 20.2627 74.7462 20.1973 74.8862 20.104C75.0262 20.0107 75.1382 19.894 75.2222 19.754C75.3062 19.6047 75.3482 19.4227 75.3482 19.208C75.3482 18.8627 75.1802 18.606 74.8442 18.438C74.5175 18.2607 74.0415 18.0973 73.4162 17.948C73.2202 17.9013 73.0102 17.8453 72.7862 17.78C72.5715 17.7053 72.3709 17.6027 72.1842 17.472C71.9975 17.332 71.8435 17.1593 71.7222 16.954C71.6009 16.7487 71.5402 16.492 71.5402 16.184C71.5402 15.848 71.6055 15.5633 71.7362 15.33C71.8669 15.0873 72.0395 14.8913 72.2542 14.742C72.4782 14.5833 72.7302 14.4667 73.0102 14.392C73.2902 14.3173 73.5795 14.28 73.8782 14.28C74.3355 14.28 74.7789 14.3827 75.2082 14.588C75.6375 14.7933 75.9595 15.0827 76.1742 15.456L75.4462 16.002ZM79.1469 21H78.1949V14.448H79.1469V21ZM79.3429 11.928C79.3429 12.124 79.2729 12.2873 79.1329 12.418C78.9929 12.5393 78.8389 12.6 78.6709 12.6C78.5029 12.6 78.3489 12.5393 78.2089 12.418C78.0689 12.2873 77.9989 12.124 77.9989 11.928C77.9989 11.732 78.0689 11.5733 78.2089 11.452C78.3489 11.3213 78.5029 11.256 78.6709 11.256C78.8389 11.256 78.9929 11.3213 79.1329 11.452C79.2729 11.5733 79.3429 11.732 79.3429 11.928ZM86.7489 21H85.7969V14.448H86.7489V21ZM86.9589 11.928C86.9589 12.124 86.8889 12.2873 86.7489 12.418C86.6089 12.5393 86.4549 12.6 86.2869 12.6C86.1189 12.6 85.9649 12.5393 85.8249 12.418C85.6849 12.2873 85.6149 12.124 85.6149 11.928C85.6149 11.732 85.6849 11.5733 85.8249 11.452C85.9649 11.3213 86.1189 11.256 86.2869 11.256C86.4549 11.256 86.6089 11.3213 86.7489 11.452C86.8889 11.5733 86.9589 11.732 86.9589 11.928ZM84.4529 15.246H82.9129V21H81.9609V15.246H80.5889V14.448H81.9609V12.656C81.9609 11.9093 82.1429 11.3213 82.5069 10.892C82.8709 10.4627 83.4309 10.248 84.1869 10.248C84.3082 10.248 84.4389 10.2573 84.5789 10.276C84.7189 10.2853 84.8496 10.3087 84.9709 10.346L84.8029 11.186C84.7002 11.158 84.5976 11.1347 84.4949 11.116C84.3922 11.0973 84.2756 11.088 84.1449 11.088C83.8929 11.088 83.6829 11.13 83.5149 11.214C83.3562 11.298 83.2302 11.4193 83.1369 11.578C83.0529 11.7273 82.9922 11.9047 82.9549 12.11C82.9269 12.3153 82.9129 12.5347 82.9129 12.768V14.448H84.4529V15.246ZM94.0141 15.946C93.8555 15.694 93.6221 15.4887 93.3141 15.33C93.0155 15.162 92.6888 15.078 92.3341 15.078C91.9515 15.078 91.6061 15.148 91.2981 15.288C90.9901 15.4187 90.7241 15.6053 90.5001 15.848C90.2855 16.0813 90.1175 16.3613 89.9961 16.688C89.8841 17.0053 89.8281 17.3507 89.8281 17.724C89.8281 18.0973 89.8841 18.4427 89.9961 18.76C90.1175 19.0773 90.2855 19.3573 90.5001 19.6C90.7148 19.8333 90.9761 20.02 91.2841 20.16C91.5921 20.2907 91.9375 20.356 92.3201 20.356C92.7401 20.356 93.0948 20.2767 93.3841 20.118C93.6735 19.9593 93.9115 19.754 94.0981 19.502L94.8121 20.034C94.5321 20.3793 94.1868 20.6547 93.7761 20.86C93.3748 21.0653 92.8895 21.168 92.3201 21.168C91.7881 21.168 91.3075 21.084 90.8781 20.916C90.4488 20.7387 90.0801 20.496 89.7721 20.188C89.4735 19.88 89.2401 19.516 89.0721 19.096C88.9041 18.676 88.8201 18.2187 88.8201 17.724C88.8201 17.2293 88.9041 16.772 89.0721 16.352C89.2401 15.932 89.4735 15.568 89.7721 15.26C90.0801 14.952 90.4488 14.714 90.8781 14.546C91.3075 14.3687 91.7881 14.28 92.3201 14.28C92.7588 14.28 93.2021 14.378 93.6501 14.574C94.1075 14.7607 94.4761 15.0407 94.7561 15.414L94.0141 15.946ZM100.426 16.772C100.426 16.2027 100.277 15.778 99.9781 15.498C99.6795 15.218 99.2455 15.078 98.6761 15.078C98.2841 15.078 97.9201 15.148 97.5841 15.288C97.2481 15.428 96.9635 15.6147 96.7301 15.848L96.1981 15.218C96.4688 14.9473 96.8235 14.7233 97.2621 14.546C97.7101 14.3687 98.2141 14.28 98.7741 14.28C99.1288 14.28 99.4601 14.3313 99.7681 14.434C100.076 14.5273 100.347 14.672 100.58 14.868C100.813 15.064 100.995 15.3113 101.126 15.61C101.257 15.9087 101.322 16.2587 101.322 16.66V19.53C101.322 19.782 101.331 20.0433 101.35 20.314C101.369 20.5847 101.397 20.8133 101.434 21H100.58C100.552 20.8413 100.529 20.6687 100.51 20.482C100.491 20.2953 100.482 20.1133 100.482 19.936H100.454C100.155 20.3747 99.8148 20.692 99.4321 20.888C99.0588 21.0747 98.6061 21.168 98.0741 21.168C97.8221 21.168 97.5608 21.1307 97.2901 21.056C97.0288 20.9907 96.7861 20.8787 96.5621 20.72C96.3475 20.5613 96.1655 20.356 96.0161 20.104C95.8761 19.852 95.8061 19.544 95.8061 19.18C95.8061 18.676 95.9321 18.2793 96.1841 17.99C96.4455 17.6913 96.7908 17.472 97.2201 17.332C97.6495 17.1827 98.1395 17.0893 98.6901 17.052C99.2501 17.0053 99.8288 16.982 100.426 16.982V16.772ZM100.146 17.724C99.7541 17.724 99.3575 17.7427 98.9561 17.78C98.5641 17.808 98.2048 17.8733 97.8781 17.976C97.5608 18.0693 97.2995 18.2093 97.0941 18.396C96.8888 18.5827 96.7861 18.83 96.7861 19.138C96.7861 19.3713 96.8281 19.5673 96.9121 19.726C97.0055 19.8847 97.1268 20.0153 97.2761 20.118C97.4255 20.2113 97.5888 20.2813 97.7661 20.328C97.9528 20.3653 98.1395 20.384 98.3261 20.384C98.6621 20.384 98.9608 20.328 99.2221 20.216C99.4835 20.0947 99.7028 19.936 99.8801 19.74C100.057 19.5347 100.193 19.3013 100.286 19.04C100.379 18.7787 100.426 18.5033 100.426 18.214V17.724H100.146ZM106.592 15.246H104.744V19.068C104.744 19.3107 104.767 19.5113 104.814 19.67C104.861 19.8287 104.926 19.9547 105.01 20.048C105.103 20.132 105.211 20.1927 105.332 20.23C105.453 20.258 105.584 20.272 105.724 20.272C105.855 20.272 105.99 20.2533 106.13 20.216C106.279 20.1787 106.419 20.1273 106.55 20.062L106.592 20.888C106.424 20.9533 106.247 21 106.06 21.028C105.883 21.0653 105.687 21.084 105.472 21.084C105.295 21.084 105.108 21.0607 104.912 21.014C104.716 20.9673 104.534 20.8787 104.366 20.748C104.198 20.6173 104.058 20.44 103.946 20.216C103.843 19.992 103.792 19.698 103.792 19.334V15.246H102.434V14.448H103.792V12.6H104.744V14.448H106.592V15.246ZM109.047 21H108.095V14.448H109.047V21ZM109.243 11.928C109.243 12.124 109.173 12.2873 109.033 12.418C108.893 12.5393 108.739 12.6 108.571 12.6C108.403 12.6 108.249 12.5393 108.109 12.418C107.969 12.2873 107.899 12.124 107.899 11.928C107.899 11.732 107.969 11.5733 108.109 11.452C108.249 11.3213 108.403 11.256 108.571 11.256C108.739 11.256 108.893 11.3213 109.033 11.452C109.173 11.5733 109.243 11.732 109.243 11.928ZM118.091 17.724C118.091 18.2187 118.003 18.676 117.825 19.096C117.657 19.516 117.419 19.88 117.111 20.188C116.803 20.496 116.435 20.7387 116.005 20.916C115.576 21.084 115.105 21.168 114.591 21.168C114.087 21.168 113.621 21.084 113.191 20.916C112.762 20.7387 112.393 20.496 112.085 20.188C111.777 19.88 111.535 19.516 111.357 19.096C111.189 18.676 111.105 18.2187 111.105 17.724C111.105 17.2293 111.189 16.772 111.357 16.352C111.535 15.932 111.777 15.568 112.085 15.26C112.393 14.952 112.762 14.714 113.191 14.546C113.621 14.3687 114.087 14.28 114.591 14.28C115.105 14.28 115.576 14.3687 116.005 14.546C116.435 14.714 116.803 14.952 117.111 15.26C117.419 15.568 117.657 15.932 117.825 16.352C118.003 16.772 118.091 17.2293 118.091 17.724ZM117.083 17.724C117.083 17.36 117.023 17.0193 116.901 16.702C116.789 16.3753 116.626 16.0953 116.411 15.862C116.197 15.6193 115.935 15.428 115.627 15.288C115.319 15.148 114.974 15.078 114.591 15.078C114.209 15.078 113.863 15.148 113.555 15.288C113.257 15.428 113 15.6193 112.785 15.862C112.571 16.0953 112.403 16.3753 112.281 16.702C112.169 17.0193 112.113 17.36 112.113 17.724C112.113 18.088 112.169 18.4333 112.281 18.76C112.403 19.0773 112.571 19.3573 112.785 19.6C113 19.8333 113.257 20.02 113.555 20.16C113.863 20.2907 114.209 20.356 114.591 20.356C114.974 20.356 115.319 20.2907 115.627 20.16C115.935 20.02 116.197 19.8333 116.411 19.6C116.626 19.3573 116.789 19.0773 116.901 18.76C117.023 18.4333 117.083 18.088 117.083 17.724ZM120.994 14.448C121.013 14.6253 121.027 14.8213 121.036 15.036C121.045 15.2507 121.05 15.428 121.05 15.568H121.078C121.265 15.1853 121.568 14.8773 121.988 14.644C122.408 14.4013 122.851 14.28 123.318 14.28C124.149 14.28 124.769 14.5273 125.18 15.022C125.6 15.5167 125.81 16.17 125.81 16.982V21H124.858V17.374C124.858 17.0287 124.83 16.716 124.774 16.436C124.718 16.156 124.62 15.918 124.48 15.722C124.349 15.5167 124.167 15.358 123.934 15.246C123.71 15.134 123.425 15.078 123.08 15.078C122.828 15.078 122.581 15.1293 122.338 15.232C122.105 15.3347 121.895 15.4933 121.708 15.708C121.521 15.9133 121.372 16.1793 121.26 16.506C121.148 16.8233 121.092 17.2013 121.092 17.64V21H120.14V15.89C120.14 15.7127 120.135 15.484 120.126 15.204C120.117 14.924 120.103 14.672 120.084 14.448H120.994Z" fill="#2A4661"/>
</svg>
