<svg width="197" height="44" viewBox="0 0 197 44" fill="none" xmlns="http://www.w3.org/2000/svg">
<rect width="197" height="33" rx="16.5" fill="#E2E2E2"/>
<path d="M94.3343 43.5835L101.552 31.896H87.1166L94.3343 43.5835Z" fill="#E2E2E2"/>
<path d="M21.4528 15.75C21.9942 15.9087 22.4422 16.2213 22.7968 16.688C23.1515 17.1547 23.3288 17.724 23.3288 18.396C23.3288 18.8347 23.2402 19.2313 23.0628 19.586C22.8948 19.9313 22.6662 20.23 22.3768 20.482C22.0875 20.7247 21.7468 20.9113 21.3548 21.042C20.9722 21.182 20.5708 21.252 20.1508 21.252C19.7308 21.252 19.3248 21.182 18.9328 21.042C18.5502 20.9113 18.2142 20.7247 17.9248 20.482C17.6355 20.23 17.4022 19.9313 17.2248 19.586C17.0568 19.2313 16.9728 18.8347 16.9728 18.396C16.9728 18.06 17.0195 17.752 17.1128 17.472C17.2062 17.1827 17.3368 16.926 17.5048 16.702C17.6728 16.4687 17.8688 16.2727 18.0928 16.114C18.3262 15.9553 18.5782 15.834 18.8488 15.75V15.722C18.6248 15.6473 18.4195 15.54 18.2328 15.4C18.0555 15.2507 17.9015 15.078 17.7708 14.882C17.6402 14.6767 17.5375 14.4573 17.4628 14.224C17.3882 13.9813 17.3508 13.734 17.3508 13.482C17.3508 13.0807 17.4255 12.7167 17.5748 12.39C17.7242 12.0633 17.9248 11.788 18.1768 11.564C18.4382 11.3307 18.7368 11.1533 19.0728 11.032C19.4088 10.9013 19.7682 10.836 20.1508 10.836C20.5242 10.836 20.8788 10.9013 21.2148 11.032C21.5602 11.1533 21.8588 11.3307 22.1108 11.564C22.3722 11.788 22.5775 12.0633 22.7268 12.39C22.8762 12.7167 22.9508 13.0807 22.9508 13.482C22.9508 13.734 22.9135 13.9813 22.8388 14.224C22.7642 14.4573 22.6615 14.6767 22.5308 14.882C22.4002 15.078 22.2415 15.2507 22.0548 15.4C21.8775 15.54 21.6768 15.6473 21.4528 15.722V15.75ZM18.3308 13.538C18.3308 13.7993 18.3775 14.0373 18.4708 14.252C18.5642 14.4667 18.6948 14.6533 18.8628 14.812C19.0308 14.9707 19.2222 15.0967 19.4368 15.19C19.6608 15.274 19.8988 15.316 20.1508 15.316C20.4028 15.316 20.6362 15.274 20.8508 15.19C21.0748 15.0967 21.2708 14.9707 21.4388 14.812C21.6068 14.6533 21.7375 14.4667 21.8308 14.252C21.9242 14.0373 21.9708 13.7993 21.9708 13.538C21.9708 13.2767 21.9242 13.034 21.8308 12.81C21.7375 12.5767 21.6068 12.3807 21.4388 12.222C21.2802 12.054 21.0888 11.9233 20.8648 11.83C20.6502 11.7367 20.4122 11.69 20.1508 11.69C19.8895 11.69 19.6468 11.7367 19.4228 11.83C19.2082 11.9233 19.0168 12.054 18.8488 12.222C18.6902 12.3807 18.5642 12.5767 18.4708 12.81C18.3775 13.034 18.3308 13.2767 18.3308 13.538ZM17.9808 18.284C17.9808 18.5827 18.0322 18.8627 18.1348 19.124C18.2375 19.3853 18.3822 19.6093 18.5688 19.796C18.7648 19.9827 18.9935 20.132 19.2548 20.244C19.5255 20.3467 19.8242 20.398 20.1508 20.398C20.4775 20.398 20.7715 20.3467 21.0328 20.244C21.3035 20.132 21.5322 19.9827 21.7188 19.796C21.9148 19.6093 22.0642 19.3853 22.1668 19.124C22.2695 18.8627 22.3208 18.5827 22.3208 18.284C22.3208 17.9853 22.2695 17.71 22.1668 17.458C22.0642 17.206 21.9148 16.9867 21.7188 16.8C21.5322 16.6133 21.3035 16.4687 21.0328 16.366C20.7715 16.2633 20.4775 16.212 20.1508 16.212C19.8242 16.212 19.5255 16.2633 19.2548 16.366C18.9935 16.4687 18.7648 16.6133 18.5688 16.8C18.3822 16.9867 18.2375 17.206 18.1348 17.458C18.0322 17.71 17.9808 17.9853 17.9808 18.284ZM32.8919 18.004H28.1319V17.206H32.8919V18.004ZM46.4774 19.404C46.3094 19.656 46.1041 19.894 45.8614 20.118C45.6281 20.342 45.3527 20.538 45.0354 20.706C44.7274 20.874 44.382 21.0047 43.9994 21.098C43.626 21.2007 43.2154 21.252 42.7674 21.252C42.0207 21.252 41.33 21.1213 40.6954 20.86C40.0607 20.5987 39.5147 20.2393 39.0574 19.782C38.6 19.3153 38.2407 18.7647 37.9794 18.13C37.7274 17.4953 37.6014 16.8 37.6014 16.044C37.6014 15.288 37.732 14.5927 37.9934 13.958C38.2547 13.3233 38.614 12.7773 39.0714 12.32C39.538 11.8533 40.084 11.4893 40.7094 11.228C41.344 10.9667 42.03 10.836 42.7674 10.836C43.1314 10.836 43.486 10.8733 43.8314 10.948C44.1861 11.0227 44.5174 11.13 44.8254 11.27C45.1334 11.4007 45.4134 11.564 45.6654 11.76C45.9174 11.9467 46.1274 12.1613 46.2954 12.404L45.4554 13.02C45.3527 12.8613 45.2127 12.7027 45.0354 12.544C44.8674 12.3853 44.6667 12.2453 44.4334 12.124C44.2001 12.0027 43.9434 11.9047 43.6634 11.83C43.3927 11.7553 43.0987 11.718 42.7814 11.718C42.1374 11.718 41.5587 11.8347 41.0454 12.068C40.5414 12.3013 40.112 12.6187 39.7574 13.02C39.4027 13.412 39.132 13.8693 38.9454 14.392C38.7587 14.9147 38.6654 15.4653 38.6654 16.044C38.6654 16.6227 38.7587 17.1733 38.9454 17.696C39.1414 18.2187 39.4167 18.6807 39.7714 19.082C40.126 19.474 40.5554 19.7867 41.0594 20.02C41.5727 20.2533 42.1467 20.37 42.7814 20.37C43.3507 20.37 43.892 20.2533 44.4054 20.02C44.9187 19.7867 45.348 19.4133 45.6934 18.9L46.4774 19.404ZM48.1536 15.89C48.1536 15.7127 48.1489 15.484 48.1396 15.204C48.1302 14.924 48.1162 14.672 48.0976 14.448H49.0076C49.0262 14.6253 49.0402 14.8213 49.0496 15.036C49.0589 15.2507 49.0636 15.428 49.0636 15.568H49.0916C49.2782 15.1853 49.5582 14.8773 49.9316 14.644C50.3049 14.4013 50.7249 14.28 51.1916 14.28C51.3129 14.28 51.4202 14.2847 51.5136 14.294C51.6162 14.3033 51.7189 14.322 51.8216 14.35L51.6956 15.246C51.6396 15.2273 51.5462 15.2087 51.4156 15.19C51.2849 15.1713 51.1542 15.162 51.0236 15.162C50.7716 15.162 50.5289 15.2087 50.2956 15.302C50.0622 15.3953 49.8569 15.5447 49.6796 15.75C49.5116 15.946 49.3716 16.2027 49.2596 16.52C49.1569 16.828 49.1056 17.2013 49.1056 17.64V21H48.1536V15.89ZM57.1644 16.772C57.1644 16.2027 57.0151 15.778 56.7164 15.498C56.4177 15.218 55.9837 15.078 55.4144 15.078C55.0224 15.078 54.6584 15.148 54.3224 15.288C53.9864 15.428 53.7017 15.6147 53.4684 15.848L52.9364 15.218C53.2071 14.9473 53.5617 14.7233 54.0004 14.546C54.4484 14.3687 54.9524 14.28 55.5124 14.28C55.8671 14.28 56.1984 14.3313 56.5064 14.434C56.8144 14.5273 57.0851 14.672 57.3184 14.868C57.5517 15.064 57.7337 15.3113 57.8644 15.61C57.9951 15.9087 58.0604 16.2587 58.0604 16.66V19.53C58.0604 19.782 58.0697 20.0433 58.0884 20.314C58.1071 20.5847 58.1351 20.8133 58.1724 21H57.3184C57.2904 20.8413 57.2671 20.6687 57.2484 20.482C57.2297 20.2953 57.2204 20.1133 57.2204 19.936H57.1924C56.8937 20.3747 56.5531 20.692 56.1704 20.888C55.7971 21.0747 55.3444 21.168 54.8124 21.168C54.5604 21.168 54.2991 21.1307 54.0284 21.056C53.7671 20.9907 53.5244 20.8787 53.3004 20.72C53.0857 20.5613 52.9037 20.356 52.7544 20.104C52.6144 19.852 52.5444 19.544 52.5444 19.18C52.5444 18.676 52.6704 18.2793 52.9224 17.99C53.1837 17.6913 53.5291 17.472 53.9584 17.332C54.3877 17.1827 54.8777 17.0893 55.4284 17.052C55.9884 17.0053 56.5671 16.982 57.1644 16.982V16.772ZM56.8844 17.724C56.4924 17.724 56.0957 17.7427 55.6944 17.78C55.3024 17.808 54.9431 17.8733 54.6164 17.976C54.2991 18.0693 54.0377 18.2093 53.8324 18.396C53.6271 18.5827 53.5244 18.83 53.5244 19.138C53.5244 19.3713 53.5664 19.5673 53.6504 19.726C53.7437 19.8847 53.8651 20.0153 54.0144 20.118C54.1637 20.2113 54.3271 20.2813 54.5044 20.328C54.6911 20.3653 54.8777 20.384 55.0644 20.384C55.4004 20.384 55.6991 20.328 55.9604 20.216C56.2217 20.0947 56.4411 19.936 56.6184 19.74C56.7957 19.5347 56.9311 19.3013 57.0244 19.04C57.1177 18.7787 57.1644 18.5033 57.1644 18.214V17.724H56.8844ZM63.9989 16.002C63.8589 15.7313 63.6443 15.512 63.3549 15.344C63.0749 15.1667 62.7529 15.078 62.3889 15.078C62.2209 15.078 62.0529 15.0967 61.8849 15.134C61.7169 15.1713 61.5676 15.232 61.4369 15.316C61.3063 15.4 61.1989 15.5073 61.1149 15.638C61.0403 15.7687 61.0029 15.9227 61.0029 16.1C61.0029 16.408 61.1289 16.646 61.3809 16.814C61.6329 16.9727 62.0296 17.108 62.5709 17.22C63.3456 17.3787 63.9149 17.612 64.2789 17.92C64.6523 18.2187 64.8389 18.6247 64.8389 19.138C64.8389 19.5113 64.7643 19.8287 64.6149 20.09C64.4749 20.342 64.2883 20.552 64.0549 20.72C63.8216 20.8787 63.5556 20.9907 63.2569 21.056C62.9676 21.1307 62.6736 21.168 62.3749 21.168C61.8803 21.168 61.3996 21.0653 60.9329 20.86C60.4663 20.6547 60.0836 20.3327 59.7849 19.894L60.5409 19.334C60.7089 19.6233 60.9563 19.866 61.2829 20.062C61.6096 20.258 61.9689 20.356 62.3609 20.356C62.5663 20.356 62.7623 20.3373 62.9489 20.3C63.1356 20.2627 63.2989 20.1973 63.4389 20.104C63.5789 20.0107 63.6909 19.894 63.7749 19.754C63.8589 19.6047 63.9009 19.4227 63.9009 19.208C63.9009 18.8627 63.7329 18.606 63.3969 18.438C63.0703 18.2607 62.5943 18.0973 61.9689 17.948C61.7729 17.9013 61.5629 17.8453 61.3389 17.78C61.1243 17.7053 60.9236 17.6027 60.7369 17.472C60.5503 17.332 60.3963 17.1593 60.2749 16.954C60.1536 16.7487 60.0929 16.492 60.0929 16.184C60.0929 15.848 60.1583 15.5633 60.2889 15.33C60.4196 15.0873 60.5923 14.8913 60.8069 14.742C61.0309 14.5833 61.2829 14.4667 61.5629 14.392C61.8429 14.3173 62.1323 14.28 62.4309 14.28C62.8883 14.28 63.3316 14.3827 63.7609 14.588C64.1903 14.7933 64.5123 15.0827 64.7269 15.456L63.9989 16.002ZM67.7416 15.526C67.919 15.1433 68.213 14.84 68.6236 14.616C69.0343 14.392 69.473 14.28 69.9396 14.28C70.7703 14.28 71.391 14.5273 71.8016 15.022C72.2216 15.5167 72.4316 16.17 72.4316 16.982V21H71.4796V17.374C71.4796 17.0287 71.4516 16.716 71.3956 16.436C71.3396 16.156 71.2416 15.918 71.1016 15.722C70.971 15.5167 70.789 15.358 70.5556 15.246C70.3316 15.134 70.047 15.078 69.7016 15.078C69.4496 15.078 69.2023 15.1293 68.9596 15.232C68.7263 15.3347 68.5163 15.4933 68.3296 15.708C68.143 15.9133 67.9936 16.1793 67.8816 16.506C67.7696 16.8233 67.7136 17.2013 67.7136 17.64V21H66.7616V10.416H67.7136V15.526H67.7416ZM79.8937 17.22C79.8657 16.604 79.6651 16.0953 79.2917 15.694C78.9277 15.2833 78.4051 15.078 77.7237 15.078C77.4064 15.078 77.1124 15.1387 76.8417 15.26C76.5711 15.372 76.3331 15.5307 76.1277 15.736C75.9224 15.932 75.7591 16.1607 75.6377 16.422C75.5164 16.674 75.4464 16.94 75.4277 17.22H79.8937ZM80.8597 17.528C80.8597 17.5933 80.8597 17.6633 80.8597 17.738C80.8597 17.8127 80.8551 17.892 80.8457 17.976H75.4137C75.4231 18.3027 75.4884 18.6107 75.6097 18.9C75.7311 19.1893 75.8991 19.4413 76.1137 19.656C76.3284 19.8707 76.5804 20.0433 76.8697 20.174C77.1591 20.2953 77.4717 20.356 77.8077 20.356C78.3024 20.356 78.7271 20.244 79.0817 20.02C79.4457 19.7867 79.7211 19.5207 79.9077 19.222L80.6217 19.782C80.2297 20.2767 79.7957 20.6313 79.3197 20.846C78.8531 21.0607 78.3491 21.168 77.8077 21.168C77.3224 21.168 76.8697 21.084 76.4497 20.916C76.0391 20.7387 75.6844 20.496 75.3857 20.188C75.0871 19.88 74.8491 19.516 74.6717 19.096C74.5037 18.676 74.4197 18.2187 74.4197 17.724C74.4197 17.2293 74.5037 16.772 74.6717 16.352C74.8397 15.932 75.0731 15.568 75.3717 15.26C75.6704 14.952 76.0204 14.714 76.4217 14.546C76.8231 14.3687 77.2571 14.28 77.7237 14.28C78.2371 14.28 78.6897 14.3687 79.0817 14.546C79.4737 14.714 79.8004 14.9473 80.0617 15.246C80.3231 15.5353 80.5191 15.876 80.6497 16.268C80.7897 16.66 80.8597 17.08 80.8597 17.528ZM86.3935 16.002C86.2535 15.7313 86.0388 15.512 85.7495 15.344C85.4695 15.1667 85.1475 15.078 84.7835 15.078C84.6155 15.078 84.4475 15.0967 84.2795 15.134C84.1115 15.1713 83.9621 15.232 83.8315 15.316C83.7008 15.4 83.5935 15.5073 83.5095 15.638C83.4348 15.7687 83.3975 15.9227 83.3975 16.1C83.3975 16.408 83.5235 16.646 83.7755 16.814C84.0275 16.9727 84.4241 17.108 84.9655 17.22C85.7401 17.3787 86.3095 17.612 86.6735 17.92C87.0468 18.2187 87.2335 18.6247 87.2335 19.138C87.2335 19.5113 87.1588 19.8287 87.0095 20.09C86.8695 20.342 86.6828 20.552 86.4495 20.72C86.2161 20.8787 85.9501 20.9907 85.6515 21.056C85.3621 21.1307 85.0681 21.168 84.7695 21.168C84.2748 21.168 83.7941 21.0653 83.3275 20.86C82.8608 20.6547 82.4781 20.3327 82.1795 19.894L82.9355 19.334C83.1035 19.6233 83.3508 19.866 83.6775 20.062C84.0041 20.258 84.3635 20.356 84.7555 20.356C84.9608 20.356 85.1568 20.3373 85.3435 20.3C85.5301 20.2627 85.6935 20.1973 85.8335 20.104C85.9735 20.0107 86.0855 19.894 86.1695 19.754C86.2535 19.6047 86.2955 19.4227 86.2955 19.208C86.2955 18.8627 86.1275 18.606 85.7915 18.438C85.4648 18.2607 84.9888 18.0973 84.3635 17.948C84.1675 17.9013 83.9575 17.8453 83.7335 17.78C83.5188 17.7053 83.3181 17.6027 83.1315 17.472C82.9448 17.332 82.7908 17.1593 82.6695 16.954C82.5481 16.7487 82.4875 16.492 82.4875 16.184C82.4875 15.848 82.5528 15.5633 82.6835 15.33C82.8141 15.0873 82.9868 14.8913 83.2015 14.742C83.4255 14.5833 83.6775 14.4667 83.9575 14.392C84.2375 14.3173 84.5268 14.28 84.8255 14.28C85.2828 14.28 85.7261 14.3827 86.1555 14.588C86.5848 14.7933 86.9068 15.0827 87.1215 15.456L86.3935 16.002ZM98.7742 18.704L101 21H99.6002L98.2002 19.53C97.7895 20.09 97.3462 20.5053 96.8702 20.776C96.3942 21.0373 95.8202 21.168 95.1482 21.168C94.7282 21.168 94.3268 21.1073 93.9442 20.986C93.5708 20.8647 93.2442 20.692 92.9642 20.468C92.6842 20.2347 92.4602 19.95 92.2922 19.614C92.1335 19.2687 92.0542 18.872 92.0542 18.424C92.0542 18.0507 92.1102 17.7147 92.2222 17.416C92.3435 17.1173 92.5068 16.8513 92.7122 16.618C92.9175 16.3753 93.1602 16.1607 93.4402 15.974C93.7202 15.7873 94.0235 15.624 94.3502 15.484C94.2008 15.3347 94.0515 15.1713 93.9022 14.994C93.7622 14.8167 93.6362 14.6347 93.5242 14.448C93.4122 14.252 93.3188 14.0467 93.2442 13.832C93.1788 13.6173 93.1462 13.398 93.1462 13.174C93.1462 12.8007 93.2115 12.4693 93.3422 12.18C93.4728 11.8907 93.6502 11.648 93.8742 11.452C94.0982 11.2467 94.3595 11.0927 94.6582 10.99C94.9568 10.8873 95.2742 10.836 95.6102 10.836C95.9368 10.836 96.2448 10.8873 96.5342 10.99C96.8235 11.0833 97.0755 11.228 97.2902 11.424C97.5142 11.6107 97.6868 11.844 97.8082 12.124C97.9388 12.3947 98.0042 12.7073 98.0042 13.062C98.0042 13.3887 97.9388 13.6827 97.8082 13.944C97.6868 14.2053 97.5188 14.4433 97.3042 14.658C97.0988 14.8633 96.8608 15.05 96.5902 15.218C96.3288 15.3767 96.0582 15.526 95.7782 15.666L98.0882 18.046L99.4602 15.638H100.594L98.7742 18.704ZM97.0242 13.062C97.0242 12.6513 96.8888 12.3153 96.6182 12.054C96.3568 11.7927 96.0255 11.662 95.6242 11.662C95.1855 11.662 94.8262 11.802 94.5462 12.082C94.2662 12.3527 94.1262 12.7213 94.1262 13.188C94.1262 13.3653 94.1635 13.552 94.2382 13.748C94.3128 13.9347 94.4062 14.112 94.5182 14.28C94.6302 14.448 94.7468 14.602 94.8682 14.742C94.9988 14.882 95.1108 14.9893 95.2042 15.064C95.4282 14.9613 95.6475 14.8493 95.8622 14.728C96.0768 14.5973 96.2682 14.4527 96.4362 14.294C96.6135 14.1353 96.7535 13.9533 96.8562 13.748C96.9682 13.5427 97.0242 13.314 97.0242 13.062ZM94.9102 16.128C94.3128 16.3987 93.8602 16.7207 93.5522 17.094C93.2442 17.458 93.0902 17.906 93.0902 18.438C93.0902 18.718 93.1415 18.9747 93.2442 19.208C93.3562 19.4413 93.5055 19.642 93.6922 19.81C93.8882 19.9687 94.1122 20.0947 94.3642 20.188C94.6162 20.2813 94.8822 20.328 95.1622 20.328C95.7035 20.328 96.1515 20.2067 96.5062 19.964C96.8702 19.7213 97.2108 19.3573 97.5282 18.872L94.9102 16.128ZM114.386 19.404C114.218 19.656 114.012 19.894 113.77 20.118C113.536 20.342 113.261 20.538 112.944 20.706C112.636 20.874 112.29 21.0047 111.908 21.098C111.534 21.2007 111.124 21.252 110.676 21.252C109.929 21.252 109.238 21.1213 108.604 20.86C107.969 20.5987 107.423 20.2393 106.966 19.782C106.508 19.3153 106.149 18.7647 105.888 18.13C105.636 17.4953 105.51 16.8 105.51 16.044C105.51 15.288 105.64 14.5927 105.902 13.958C106.163 13.3233 106.522 12.7773 106.98 12.32C107.446 11.8533 107.992 11.4893 108.618 11.228C109.252 10.9667 109.938 10.836 110.676 10.836C111.04 10.836 111.394 10.8733 111.74 10.948C112.094 11.0227 112.426 11.13 112.734 11.27C113.042 11.4007 113.322 11.564 113.574 11.76C113.826 11.9467 114.036 12.1613 114.204 12.404L113.364 13.02C113.261 12.8613 113.121 12.7027 112.944 12.544C112.776 12.3853 112.575 12.2453 112.342 12.124C112.108 12.0027 111.852 11.9047 111.572 11.83C111.301 11.7553 111.007 11.718 110.69 11.718C110.046 11.718 109.467 11.8347 108.954 12.068C108.45 12.3013 108.02 12.6187 107.666 13.02C107.311 13.412 107.04 13.8693 106.854 14.392C106.667 14.9147 106.574 15.4653 106.574 16.044C106.574 16.6227 106.667 17.1733 106.854 17.696C107.05 18.2187 107.325 18.6807 107.68 19.082C108.034 19.474 108.464 19.7867 108.968 20.02C109.481 20.2533 110.055 20.37 110.69 20.37C111.259 20.37 111.8 20.2533 112.314 20.02C112.827 19.7867 113.256 19.4133 113.602 18.9L114.386 19.404ZM122.408 17.724C122.408 18.2187 122.319 18.676 122.142 19.096C121.974 19.516 121.736 19.88 121.428 20.188C121.12 20.496 120.751 20.7387 120.322 20.916C119.892 21.084 119.421 21.168 118.908 21.168C118.404 21.168 117.937 21.084 117.508 20.916C117.078 20.7387 116.71 20.496 116.402 20.188C116.094 19.88 115.851 19.516 115.674 19.096C115.506 18.676 115.422 18.2187 115.422 17.724C115.422 17.2293 115.506 16.772 115.674 16.352C115.851 15.932 116.094 15.568 116.402 15.26C116.71 14.952 117.078 14.714 117.508 14.546C117.937 14.3687 118.404 14.28 118.908 14.28C119.421 14.28 119.892 14.3687 120.322 14.546C120.751 14.714 121.12 14.952 121.428 15.26C121.736 15.568 121.974 15.932 122.142 16.352C122.319 16.772 122.408 17.2293 122.408 17.724ZM121.4 17.724C121.4 17.36 121.339 17.0193 121.218 16.702C121.106 16.3753 120.942 16.0953 120.728 15.862C120.513 15.6193 120.252 15.428 119.944 15.288C119.636 15.148 119.29 15.078 118.908 15.078C118.525 15.078 118.18 15.148 117.872 15.288C117.573 15.428 117.316 15.6193 117.102 15.862C116.887 16.0953 116.719 16.3753 116.598 16.702C116.486 17.0193 116.43 17.36 116.43 17.724C116.43 18.088 116.486 18.4333 116.598 18.76C116.719 19.0773 116.887 19.3573 117.102 19.6C117.316 19.8333 117.573 20.02 117.872 20.16C118.18 20.2907 118.525 20.356 118.908 20.356C119.29 20.356 119.636 20.2907 119.944 20.16C120.252 20.02 120.513 19.8333 120.728 19.6C120.942 19.3573 121.106 19.0773 121.218 18.76C121.339 18.4333 121.4 18.088 121.4 17.724ZM124.456 15.89C124.456 15.7127 124.452 15.484 124.442 15.204C124.433 14.924 124.419 14.672 124.4 14.448H125.31C125.329 14.6253 125.343 14.8213 125.352 15.036C125.362 15.2507 125.366 15.428 125.366 15.568H125.394C125.581 15.1853 125.861 14.8773 126.234 14.644C126.608 14.4013 127.028 14.28 127.494 14.28C127.616 14.28 127.723 14.2847 127.816 14.294C127.919 14.3033 128.022 14.322 128.124 14.35L127.998 15.246C127.942 15.2273 127.849 15.2087 127.718 15.19C127.588 15.1713 127.457 15.162 127.326 15.162C127.074 15.162 126.832 15.2087 126.598 15.302C126.365 15.3953 126.16 15.5447 125.982 15.75C125.814 15.946 125.674 16.2027 125.562 16.52C125.46 16.828 125.408 17.2013 125.408 17.64V21H124.456V15.89ZM129.501 15.89C129.501 15.7127 129.497 15.484 129.487 15.204C129.478 14.924 129.464 14.672 129.445 14.448H130.355C130.374 14.6253 130.388 14.8213 130.397 15.036C130.407 15.2507 130.411 15.428 130.411 15.568H130.439C130.626 15.1853 130.906 14.8773 131.279 14.644C131.653 14.4013 132.073 14.28 132.539 14.28C132.661 14.28 132.768 14.2847 132.861 14.294C132.964 14.3033 133.067 14.322 133.169 14.35L133.043 15.246C132.987 15.2273 132.894 15.2087 132.763 15.19C132.633 15.1713 132.502 15.162 132.371 15.162C132.119 15.162 131.877 15.2087 131.643 15.302C131.41 15.3953 131.205 15.5447 131.027 15.75C130.859 15.946 130.719 16.2027 130.607 16.52C130.505 16.828 130.453 17.2013 130.453 17.64V21H129.501V15.89ZM139.298 17.22C139.27 16.604 139.069 16.0953 138.696 15.694C138.332 15.2833 137.809 15.078 137.128 15.078C136.811 15.078 136.517 15.1387 136.246 15.26C135.975 15.372 135.737 15.5307 135.532 15.736C135.327 15.932 135.163 16.1607 135.042 16.422C134.921 16.674 134.851 16.94 134.832 17.22H139.298ZM140.264 17.528C140.264 17.5933 140.264 17.6633 140.264 17.738C140.264 17.8127 140.259 17.892 140.25 17.976H134.818C134.827 18.3027 134.893 18.6107 135.014 18.9C135.135 19.1893 135.303 19.4413 135.518 19.656C135.733 19.8707 135.985 20.0433 136.274 20.174C136.563 20.2953 136.876 20.356 137.212 20.356C137.707 20.356 138.131 20.244 138.486 20.02C138.85 19.7867 139.125 19.5207 139.312 19.222L140.026 19.782C139.634 20.2767 139.2 20.6313 138.724 20.846C138.257 21.0607 137.753 21.168 137.212 21.168C136.727 21.168 136.274 21.084 135.854 20.916C135.443 20.7387 135.089 20.496 134.79 20.188C134.491 19.88 134.253 19.516 134.076 19.096C133.908 18.676 133.824 18.2187 133.824 17.724C133.824 17.2293 133.908 16.772 134.076 16.352C134.244 15.932 134.477 15.568 134.776 15.26C135.075 14.952 135.425 14.714 135.826 14.546C136.227 14.3687 136.661 14.28 137.128 14.28C137.641 14.28 138.094 14.3687 138.486 14.546C138.878 14.714 139.205 14.9473 139.466 15.246C139.727 15.5353 139.923 15.876 140.054 16.268C140.194 16.66 140.264 17.08 140.264 17.528ZM147.03 15.946C146.871 15.694 146.638 15.4887 146.33 15.33C146.031 15.162 145.704 15.078 145.35 15.078C144.967 15.078 144.622 15.148 144.314 15.288C144.006 15.4187 143.74 15.6053 143.516 15.848C143.301 16.0813 143.133 16.3613 143.012 16.688C142.9 17.0053 142.844 17.3507 142.844 17.724C142.844 18.0973 142.9 18.4427 143.012 18.76C143.133 19.0773 143.301 19.3573 143.516 19.6C143.73 19.8333 143.992 20.02 144.3 20.16C144.608 20.2907 144.953 20.356 145.336 20.356C145.756 20.356 146.11 20.2767 146.4 20.118C146.689 19.9593 146.927 19.754 147.114 19.502L147.828 20.034C147.548 20.3793 147.202 20.6547 146.792 20.86C146.39 21.0653 145.905 21.168 145.336 21.168C144.804 21.168 144.323 21.084 143.894 20.916C143.464 20.7387 143.096 20.496 142.788 20.188C142.489 19.88 142.256 19.516 142.088 19.096C141.92 18.676 141.836 18.2187 141.836 17.724C141.836 17.2293 141.92 16.772 142.088 16.352C142.256 15.932 142.489 15.568 142.788 15.26C143.096 14.952 143.464 14.714 143.894 14.546C144.323 14.3687 144.804 14.28 145.336 14.28C145.774 14.28 146.218 14.378 146.666 14.574C147.123 14.7607 147.492 15.0407 147.772 15.414L147.03 15.946ZM152.266 15.246H150.418V19.068C150.418 19.3107 150.441 19.5113 150.488 19.67C150.534 19.8287 150.6 19.9547 150.684 20.048C150.777 20.132 150.884 20.1927 151.006 20.23C151.127 20.258 151.258 20.272 151.398 20.272C151.528 20.272 151.664 20.2533 151.804 20.216C151.953 20.1787 152.093 20.1273 152.224 20.062L152.266 20.888C152.098 20.9533 151.92 21 151.734 21.028C151.556 21.0653 151.36 21.084 151.146 21.084C150.968 21.084 150.782 21.0607 150.586 21.014C150.39 20.9673 150.208 20.8787 150.04 20.748C149.872 20.6173 149.732 20.44 149.62 20.216C149.517 19.992 149.466 19.698 149.466 19.334V15.246H148.108V14.448H149.466V12.6H150.418V14.448H152.266V15.246ZM154.721 21H153.769V14.448H154.721V21ZM154.917 11.928C154.917 12.124 154.847 12.2873 154.707 12.418C154.567 12.5393 154.413 12.6 154.245 12.6C154.077 12.6 153.923 12.5393 153.783 12.418C153.643 12.2873 153.573 12.124 153.573 11.928C153.573 11.732 153.643 11.5733 153.783 11.452C153.923 11.3213 154.077 11.256 154.245 11.256C154.413 11.256 154.567 11.3213 154.707 11.452C154.847 11.5733 154.917 11.732 154.917 11.928ZM163.765 17.724C163.765 18.2187 163.676 18.676 163.499 19.096C163.331 19.516 163.093 19.88 162.785 20.188C162.477 20.496 162.108 20.7387 161.679 20.916C161.25 21.084 160.778 21.168 160.265 21.168C159.761 21.168 159.294 21.084 158.865 20.916C158.436 20.7387 158.067 20.496 157.759 20.188C157.451 19.88 157.208 19.516 157.031 19.096C156.863 18.676 156.779 18.2187 156.779 17.724C156.779 17.2293 156.863 16.772 157.031 16.352C157.208 15.932 157.451 15.568 157.759 15.26C158.067 14.952 158.436 14.714 158.865 14.546C159.294 14.3687 159.761 14.28 160.265 14.28C160.778 14.28 161.25 14.3687 161.679 14.546C162.108 14.714 162.477 14.952 162.785 15.26C163.093 15.568 163.331 15.932 163.499 16.352C163.676 16.772 163.765 17.2293 163.765 17.724ZM162.757 17.724C162.757 17.36 162.696 17.0193 162.575 16.702C162.463 16.3753 162.3 16.0953 162.085 15.862C161.87 15.6193 161.609 15.428 161.301 15.288C160.993 15.148 160.648 15.078 160.265 15.078C159.882 15.078 159.537 15.148 159.229 15.288C158.93 15.428 158.674 15.6193 158.459 15.862C158.244 16.0953 158.076 16.3753 157.955 16.702C157.843 17.0193 157.787 17.36 157.787 17.724C157.787 18.088 157.843 18.4333 157.955 18.76C158.076 19.0773 158.244 19.3573 158.459 19.6C158.674 19.8333 158.93 20.02 159.229 20.16C159.537 20.2907 159.882 20.356 160.265 20.356C160.648 20.356 160.993 20.2907 161.301 20.16C161.609 20.02 161.87 19.8333 162.085 19.6C162.3 19.3573 162.463 19.0773 162.575 18.76C162.696 18.4333 162.757 18.088 162.757 17.724ZM166.668 14.448C166.686 14.6253 166.7 14.8213 166.71 15.036C166.719 15.2507 166.724 15.428 166.724 15.568H166.752C166.938 15.1853 167.242 14.8773 167.662 14.644C168.082 14.4013 168.525 14.28 168.992 14.28C169.822 14.28 170.443 14.5273 170.854 15.022C171.274 15.5167 171.484 16.17 171.484 16.982V21H170.532V17.374C170.532 17.0287 170.504 16.716 170.448 16.436C170.392 16.156 170.294 15.918 170.154 15.722C170.023 15.5167 169.841 15.358 169.608 15.246C169.384 15.134 169.099 15.078 168.754 15.078C168.502 15.078 168.254 15.1293 168.012 15.232C167.778 15.3347 167.568 15.4933 167.382 15.708C167.195 15.9133 167.046 16.1793 166.934 16.506C166.822 16.8233 166.766 17.2013 166.766 17.64V21H165.814V15.89C165.814 15.7127 165.809 15.484 165.8 15.204C165.79 14.924 165.776 14.672 165.758 14.448H166.668ZM177.434 16.002C177.294 15.7313 177.08 15.512 176.79 15.344C176.51 15.1667 176.188 15.078 175.824 15.078C175.656 15.078 175.488 15.0967 175.32 15.134C175.152 15.1713 175.003 15.232 174.872 15.316C174.742 15.4 174.634 15.5073 174.55 15.638C174.476 15.7687 174.438 15.9227 174.438 16.1C174.438 16.408 174.564 16.646 174.816 16.814C175.068 16.9727 175.465 17.108 176.006 17.22C176.781 17.3787 177.35 17.612 177.714 17.92C178.088 18.2187 178.274 18.6247 178.274 19.138C178.274 19.5113 178.2 19.8287 178.05 20.09C177.91 20.342 177.724 20.552 177.49 20.72C177.257 20.8787 176.991 20.9907 176.692 21.056C176.403 21.1307 176.109 21.168 175.81 21.168C175.316 21.168 174.835 21.0653 174.368 20.86C173.902 20.6547 173.519 20.3327 173.22 19.894L173.976 19.334C174.144 19.6233 174.392 19.866 174.718 20.062C175.045 20.258 175.404 20.356 175.796 20.356C176.002 20.356 176.198 20.3373 176.384 20.3C176.571 20.2627 176.734 20.1973 176.874 20.104C177.014 20.0107 177.126 19.894 177.21 19.754C177.294 19.6047 177.336 19.4227 177.336 19.208C177.336 18.8627 177.168 18.606 176.832 18.438C176.506 18.2607 176.03 18.0973 175.404 17.948C175.208 17.9013 174.998 17.8453 174.774 17.78C174.56 17.7053 174.359 17.6027 174.172 17.472C173.986 17.332 173.832 17.1593 173.71 16.954C173.589 16.7487 173.528 16.492 173.528 16.184C173.528 15.848 173.594 15.5633 173.724 15.33C173.855 15.0873 174.028 14.8913 174.242 14.742C174.466 14.5833 174.718 14.4667 174.998 14.392C175.278 14.3173 175.568 14.28 175.866 14.28C176.324 14.28 176.767 14.3827 177.196 14.588C177.626 14.7933 177.948 15.0827 178.162 15.456L177.434 16.002Z" fill="#2A4661"/>
</svg>
