<svg width="127" height="44" viewBox="0 0 127 44" fill="none" xmlns="http://www.w3.org/2000/svg">
<rect width="127" height="33" rx="16.5" fill="#E2E2E2"/>
<path d="M63.3343 43.5835L70.552 31.896H56.1166L63.3343 43.5835Z" fill="#E2E2E2"/>
<path d="M21.9727 16.674L21.9447 16.646C21.7953 16.758 21.5853 16.8467 21.3147 16.912C21.044 16.9773 20.7827 17.01 20.5307 17.01C20.1013 17.01 19.7 16.9353 19.3267 16.786C18.9627 16.6367 18.6453 16.4313 18.3747 16.17C18.104 15.8993 17.8893 15.5773 17.7307 15.204C17.5813 14.8213 17.5067 14.406 17.5067 13.958C17.5067 13.5007 17.586 13.0807 17.7447 12.698C17.9033 12.306 18.1273 11.9747 18.4167 11.704C18.706 11.4333 19.0467 11.2233 19.4387 11.074C19.8307 10.9153 20.26 10.836 20.7267 10.836C21.1933 10.836 21.6227 10.9153 22.0147 11.074C22.4067 11.2233 22.7473 11.4333 23.0367 11.704C23.326 11.9747 23.55 12.306 23.7087 12.698C23.8673 13.0807 23.9467 13.5007 23.9467 13.958C23.9467 14.4713 23.858 14.9473 23.6807 15.386C23.5033 15.8247 23.2933 16.2447 23.0507 16.646L20.3487 21H19.1867L21.9727 16.674ZM22.9387 13.958C22.9387 13.6407 22.8827 13.342 22.7707 13.062C22.668 12.782 22.5187 12.544 22.3227 12.348C22.1267 12.1427 21.8933 11.984 21.6227 11.872C21.352 11.7507 21.0533 11.69 20.7267 11.69C20.4 11.69 20.1013 11.7507 19.8307 11.872C19.56 11.984 19.3267 12.1427 19.1307 12.348C18.9347 12.544 18.7807 12.782 18.6687 13.062C18.566 13.342 18.5147 13.6407 18.5147 13.958C18.5147 14.2753 18.566 14.574 18.6687 14.854C18.7713 15.1247 18.916 15.3627 19.1027 15.568C19.2987 15.764 19.532 15.918 19.8027 16.03C20.0827 16.142 20.3907 16.198 20.7267 16.198C21.0627 16.198 21.366 16.142 21.6367 16.03C21.9167 15.918 22.15 15.764 22.3367 15.568C22.5327 15.3627 22.682 15.1247 22.7847 14.854C22.8873 14.574 22.9387 14.2753 22.9387 13.958ZM33.4398 18.004H28.6798V17.206H33.4398V18.004ZM38.6812 11.088H41.6352C42.0086 11.088 42.3866 11.13 42.7692 11.214C43.1519 11.2887 43.4926 11.424 43.7912 11.62C44.0992 11.8067 44.3466 12.0633 44.5332 12.39C44.7292 12.7167 44.8272 13.1273 44.8272 13.622C44.8272 14.1447 44.6686 14.602 44.3512 14.994C44.0339 15.3767 43.6092 15.6287 43.0772 15.75V15.778C43.7212 15.8527 44.2532 16.1047 44.6732 16.534C45.1026 16.954 45.3172 17.528 45.3172 18.256C45.3172 18.6667 45.2286 19.0447 45.0512 19.39C44.8832 19.726 44.6406 20.0153 44.3232 20.258C44.0059 20.4913 43.6186 20.6733 43.1612 20.804C42.7039 20.9347 42.1906 21 41.6212 21H38.6812V11.088ZM39.6892 15.428H41.7192C41.9619 15.428 42.2046 15.4 42.4472 15.344C42.6992 15.288 42.9279 15.1947 43.1332 15.064C43.3386 14.924 43.5019 14.742 43.6232 14.518C43.7539 14.294 43.8192 14.0187 43.8192 13.692C43.8192 13.3747 43.7539 13.1087 43.6232 12.894C43.5019 12.67 43.3339 12.488 43.1192 12.348C42.9046 12.208 42.6526 12.11 42.3632 12.054C42.0739 11.9887 41.7659 11.956 41.4392 11.956H39.6892V15.428ZM39.6892 20.132H41.5652C41.9292 20.132 42.2746 20.0993 42.6012 20.034C42.9372 19.9593 43.2266 19.8473 43.4692 19.698C43.7212 19.5393 43.9219 19.3387 44.0712 19.096C44.2206 18.844 44.2952 18.5453 44.2952 18.2C44.2952 17.5467 44.0712 17.0613 43.6232 16.744C43.1846 16.4173 42.5592 16.254 41.7472 16.254H39.6892V20.132ZM51.6556 16.772C51.6556 16.2027 51.5063 15.778 51.2076 15.498C50.909 15.218 50.475 15.078 49.9056 15.078C49.5136 15.078 49.1496 15.148 48.8136 15.288C48.4776 15.428 48.193 15.6147 47.9596 15.848L47.4276 15.218C47.6983 14.9473 48.053 14.7233 48.4916 14.546C48.9396 14.3687 49.4436 14.28 50.0036 14.28C50.3583 14.28 50.6896 14.3313 50.9976 14.434C51.3056 14.5273 51.5763 14.672 51.8096 14.868C52.043 15.064 52.225 15.3113 52.3556 15.61C52.4863 15.9087 52.5516 16.2587 52.5516 16.66V19.53C52.5516 19.782 52.561 20.0433 52.5796 20.314C52.5983 20.5847 52.6263 20.8133 52.6636 21H51.8096C51.7816 20.8413 51.7583 20.6687 51.7396 20.482C51.721 20.2953 51.7116 20.1133 51.7116 19.936H51.6836C51.385 20.3747 51.0443 20.692 50.6616 20.888C50.2883 21.0747 49.8356 21.168 49.3036 21.168C49.0516 21.168 48.7903 21.1307 48.5196 21.056C48.2583 20.9907 48.0156 20.8787 47.7916 20.72C47.577 20.5613 47.395 20.356 47.2456 20.104C47.1056 19.852 47.0356 19.544 47.0356 19.18C47.0356 18.676 47.1616 18.2793 47.4136 17.99C47.675 17.6913 48.0203 17.472 48.4496 17.332C48.879 17.1827 49.369 17.0893 49.9196 17.052C50.4796 17.0053 51.0583 16.982 51.6556 16.982V16.772ZM51.3756 17.724C50.9836 17.724 50.587 17.7427 50.1856 17.78C49.7936 17.808 49.4343 17.8733 49.1076 17.976C48.7903 18.0693 48.529 18.2093 48.3236 18.396C48.1183 18.5827 48.0156 18.83 48.0156 19.138C48.0156 19.3713 48.0576 19.5673 48.1416 19.726C48.235 19.8847 48.3563 20.0153 48.5056 20.118C48.655 20.2113 48.8183 20.2813 48.9956 20.328C49.1823 20.3653 49.369 20.384 49.5556 20.384C49.8916 20.384 50.1903 20.328 50.4516 20.216C50.713 20.0947 50.9323 19.936 51.1096 19.74C51.287 19.5347 51.4223 19.3013 51.5156 19.04C51.609 18.7787 51.6556 18.5033 51.6556 18.214V17.724H51.3756ZM55.8581 14.448C55.8768 14.6253 55.8908 14.8213 55.9001 15.036C55.9095 15.2507 55.9141 15.428 55.9141 15.568H55.9421C56.1288 15.1853 56.4321 14.8773 56.8521 14.644C57.2721 14.4013 57.7155 14.28 58.1821 14.28C59.0128 14.28 59.6335 14.5273 60.0441 15.022C60.4641 15.5167 60.6741 16.17 60.6741 16.982V21H59.7221V17.374C59.7221 17.0287 59.6941 16.716 59.6381 16.436C59.5821 16.156 59.4841 15.918 59.3441 15.722C59.2135 15.5167 59.0315 15.358 58.7981 15.246C58.5741 15.134 58.2895 15.078 57.9441 15.078C57.6921 15.078 57.4448 15.1293 57.2021 15.232C56.9688 15.3347 56.7588 15.4933 56.5721 15.708C56.3855 15.9133 56.2361 16.1793 56.1241 16.506C56.0121 16.8233 55.9561 17.2013 55.9561 17.64V21H55.0041V15.89C55.0041 15.7127 54.9995 15.484 54.9901 15.204C54.9808 14.924 54.9668 14.672 54.9481 14.448H55.8581ZM64.1189 17.402H64.1609L67.1849 14.448H68.5569L65.2529 17.444L68.8929 21H67.4929L64.1609 17.556H64.1189V21H63.1669V10.416H64.1189V17.402ZM70.2756 15.89C70.2756 15.7127 70.271 15.484 70.2616 15.204C70.2523 14.924 70.2383 14.672 70.2196 14.448H71.1296C71.1483 14.6253 71.1623 14.8213 71.1716 15.036C71.181 15.2507 71.1856 15.428 71.1856 15.568H71.2136C71.4003 15.1853 71.6803 14.8773 72.0536 14.644C72.427 14.4013 72.847 14.28 73.3136 14.28C73.435 14.28 73.5423 14.2847 73.6356 14.294C73.7383 14.3033 73.841 14.322 73.9436 14.35L73.8176 15.246C73.7616 15.2273 73.6683 15.2087 73.5376 15.19C73.407 15.1713 73.2763 15.162 73.1456 15.162C72.8936 15.162 72.651 15.2087 72.4176 15.302C72.1843 15.3953 71.979 15.5447 71.8016 15.75C71.6336 15.946 71.4936 16.2027 71.3816 16.52C71.279 16.828 71.2276 17.2013 71.2276 17.64V21H70.2756V15.89ZM80.0805 21C80.0619 20.8227 80.0479 20.6267 80.0385 20.412C80.0292 20.1973 80.0245 20.02 80.0245 19.88H79.9965C79.8099 20.2627 79.5065 20.5753 79.0865 20.818C78.6665 21.0513 78.2232 21.168 77.7565 21.168C76.9259 21.168 76.3005 20.9207 75.8805 20.426C75.4699 19.9313 75.2645 19.278 75.2645 18.466V14.448H76.2165V18.074C76.2165 18.4193 76.2445 18.732 76.3005 19.012C76.3565 19.292 76.4499 19.5347 76.5805 19.74C76.7205 19.936 76.9025 20.09 77.1265 20.202C77.3599 20.314 77.6492 20.37 77.9945 20.37C78.2465 20.37 78.4892 20.3187 78.7225 20.216C78.9652 20.1133 79.1799 19.9593 79.3665 19.754C79.5532 19.5393 79.7025 19.2733 79.8145 18.956C79.9265 18.6293 79.9825 18.2467 79.9825 17.808V14.448H80.9345V19.558C80.9345 19.7353 80.9392 19.964 80.9485 20.244C80.9579 20.524 80.9719 20.776 80.9905 21H80.0805ZM84.4073 24.36H83.4553V14.448H84.4073V15.582H84.4493C84.72 15.1527 85.0793 14.8307 85.5273 14.616C85.9846 14.392 86.4466 14.28 86.9133 14.28C87.4266 14.28 87.8886 14.3687 88.2993 14.546C88.7193 14.7233 89.074 14.966 89.3633 15.274C89.662 15.582 89.8906 15.946 90.0493 16.366C90.2173 16.786 90.3013 17.2387 90.3013 17.724C90.3013 18.2093 90.2173 18.662 90.0493 19.082C89.8906 19.502 89.662 19.866 89.3633 20.174C89.074 20.482 88.7193 20.7247 88.2993 20.902C87.8886 21.0793 87.4266 21.168 86.9133 21.168C86.4466 21.168 85.9846 21.0607 85.5273 20.846C85.0793 20.622 84.72 20.3047 84.4493 19.894H84.4073V24.36ZM89.2933 17.724C89.2933 17.36 89.2373 17.0193 89.1253 16.702C89.0133 16.3753 88.85 16.0953 88.6353 15.862C88.43 15.6193 88.1733 15.428 87.8653 15.288C87.5573 15.148 87.2073 15.078 86.8153 15.078C86.4513 15.078 86.1153 15.148 85.8073 15.288C85.4993 15.4187 85.2333 15.6053 85.0093 15.848C84.7853 16.0813 84.608 16.3613 84.4773 16.688C84.356 17.0053 84.2953 17.3507 84.2953 17.724C84.2953 18.0973 84.356 18.4473 84.4773 18.774C84.608 19.0913 84.7853 19.3667 85.0093 19.6C85.2333 19.8333 85.4993 20.02 85.8073 20.16C86.1153 20.2907 86.4513 20.356 86.8153 20.356C87.2073 20.356 87.5573 20.2907 87.8653 20.16C88.1733 20.02 88.43 19.8333 88.6353 19.6C88.85 19.3573 89.0133 19.0773 89.1253 18.76C89.2373 18.4333 89.2933 18.088 89.2933 17.724ZM95.296 15.246H93.448V19.068C93.448 19.3107 93.4714 19.5113 93.518 19.67C93.5647 19.8287 93.63 19.9547 93.714 20.048C93.8074 20.132 93.9147 20.1927 94.036 20.23C94.1574 20.258 94.288 20.272 94.428 20.272C94.5587 20.272 94.694 20.2533 94.834 20.216C94.9834 20.1787 95.1234 20.1273 95.254 20.062L95.296 20.888C95.128 20.9533 94.9507 21 94.764 21.028C94.5867 21.0653 94.3907 21.084 94.176 21.084C93.9987 21.084 93.812 21.0607 93.616 21.014C93.42 20.9673 93.238 20.8787 93.07 20.748C92.902 20.6173 92.762 20.44 92.65 20.216C92.5474 19.992 92.496 19.698 92.496 19.334V15.246H91.138V14.448H92.496V12.6H93.448V14.448H95.296V15.246ZM101.503 15.946C101.345 15.694 101.111 15.4887 100.803 15.33C100.505 15.162 100.178 15.078 99.8234 15.078C99.4407 15.078 99.0954 15.148 98.7874 15.288C98.4794 15.4187 98.2134 15.6053 97.9894 15.848C97.7747 16.0813 97.6067 16.3613 97.4854 16.688C97.3734 17.0053 97.3174 17.3507 97.3174 17.724C97.3174 18.0973 97.3734 18.4427 97.4854 18.76C97.6067 19.0773 97.7747 19.3573 97.9894 19.6C98.2041 19.8333 98.4654 20.02 98.7734 20.16C99.0814 20.2907 99.4267 20.356 99.8094 20.356C100.229 20.356 100.584 20.2767 100.873 20.118C101.163 19.9593 101.401 19.754 101.587 19.502L102.301 20.034C102.021 20.3793 101.676 20.6547 101.265 20.86C100.864 21.0653 100.379 21.168 99.8094 21.168C99.2774 21.168 98.7967 21.084 98.3674 20.916C97.9381 20.7387 97.5694 20.496 97.2614 20.188C96.9627 19.88 96.7294 19.516 96.5614 19.096C96.3934 18.676 96.3094 18.2187 96.3094 17.724C96.3094 17.2293 96.3934 16.772 96.5614 16.352C96.7294 15.932 96.9627 15.568 97.2614 15.26C97.5694 14.952 97.9381 14.714 98.3674 14.546C98.7967 14.3687 99.2774 14.28 99.8094 14.28C100.248 14.28 100.691 14.378 101.139 14.574C101.597 14.7607 101.965 15.0407 102.245 15.414L101.503 15.946ZM106.039 19.978H106.067L108.097 14.448H109.133L105.871 22.694C105.675 23.198 105.423 23.5993 105.115 23.898C104.817 24.206 104.383 24.36 103.813 24.36C103.524 24.36 103.239 24.332 102.959 24.276L103.057 23.408C103.281 23.4827 103.515 23.52 103.757 23.52C104.084 23.52 104.341 23.4173 104.527 23.212C104.714 23.016 104.877 22.7313 105.017 22.358L105.549 20.986L102.749 14.448H103.813L106.039 19.978Z" fill="#2A4661"/>
</svg>
