<svg width="119" height="119" viewBox="0 0 119 119" fill="none" xmlns="http://www.w3.org/2000/svg">
<path d="M65.4498 41.65C80.1165 41.65 88.4346 51.0093 89.6425 62.3203H90.0114C99.4481 62.3203 107.1 69.6804 107.1 78.7601C107.1 87.8398 99.4481 95.2 90.0114 95.2H40.8882C31.4515 95.2 23.7998 87.8398 23.7998 78.7601C23.7998 69.6804 31.4515 62.3203 40.8882 62.3203H41.2571C42.4768 50.932 50.783 41.65 65.4498 41.65ZM22.6276 57.715C22.8569 58.374 22.8472 59.0926 22.6003 59.7452C22.3534 60.3977 21.885 60.9428 21.277 61.285L20.7831 61.4992L16.0172 63.1414C15.3139 63.3875 14.5438 63.3607 13.8592 63.0663C13.1747 62.7719 12.6256 62.2314 12.3204 61.5516C12.0153 60.8718 11.9764 60.1022 12.2114 59.3951C12.4464 58.688 12.9382 58.0948 13.5896 57.7328L14.0775 57.5186L18.8494 55.8764C19.595 55.6206 20.4117 55.6711 21.1202 56.0169C21.8286 56.3628 22.3708 56.9756 22.6276 57.7209V57.715ZM53.0738 32.725C55.0492 33.6889 56.7925 34.9443 58.2681 36.414C47.7842 38.5798 40.2396 45.5353 37.1873 55.1922L36.8005 56.525L36.5268 57.6376L35.5451 57.8161C32.9055 58.3596 30.3859 59.3755 28.1076 60.8149C25.8078 57.2325 24.7424 52.9964 25.0738 48.7523C25.4053 44.5081 27.1154 40.4887 29.9435 37.3068C32.7716 34.1248 36.5625 31.9549 40.7384 31.1277C44.9144 30.3005 49.2463 30.8614 53.0738 32.725ZM17.3559 33.7365L17.8498 33.9269L22.3837 36.1343C23.0521 36.4593 23.5747 37.0226 23.8486 37.7134C24.1225 38.4043 24.1279 39.1726 23.8638 39.8673C23.5997 40.562 23.0851 41.1326 22.4214 41.4669C21.7576 41.8012 20.9928 41.875 20.2774 41.6738L19.7776 41.4834L15.2437 39.2759C14.5753 38.951 14.0527 38.3877 13.7788 37.6969C13.5049 37.006 13.4995 36.2376 13.7636 35.543C14.0277 34.8483 14.5423 34.2777 15.206 33.9434C15.8698 33.609 16.6346 33.5352 17.35 33.7365H17.3559ZM59.4403 19.6052C60.0667 19.9109 60.566 20.4268 60.8509 21.063C61.1358 21.6991 61.1883 22.4151 60.9992 23.086L60.8088 23.5858L58.6013 28.1197C58.2764 28.7881 57.7131 29.3107 57.0223 29.5846C56.3314 29.8585 55.563 29.8639 54.8684 29.5998C54.1737 29.3357 53.6031 28.8211 53.2688 28.1574C52.9344 27.4936 52.8606 26.7288 53.0619 26.0134L53.2523 25.5076L55.4657 20.9737C55.8118 20.2657 56.4247 19.7239 57.1699 19.4673C57.9151 19.2108 58.7316 19.2604 59.4403 19.6052ZM36.8898 19.4148L37.1099 19.9027L38.7521 24.6746C38.9935 25.3771 38.9635 26.1444 38.6678 26.8258C38.3721 27.5071 37.8323 28.0533 37.1544 28.3568C36.4765 28.6603 35.7096 28.6993 35.0044 28.466C34.2992 28.2328 33.7068 27.7442 33.3436 27.0963L33.1294 26.6084L31.4872 21.8424C31.2496 21.1417 31.2816 20.3775 31.5771 19.6991C31.8726 19.0207 32.4103 18.4768 33.0853 18.1735C33.7602 17.8702 34.524 17.8293 35.2275 18.0589C35.9309 18.2884 36.5236 18.7718 36.8898 19.4148Z" fill="#B0F1EA"/>
</svg>
