<svg width="31" height="25" viewBox="0 0 31 25" fill="none" xmlns="http://www.w3.org/2000/svg">
<path d="M0 5.20473V23.4677C0 24.0646 0.615156 24.4728 1.1808 24.2513L8.61111 20.9375V0.6875L1.08285 3.63799C0.763256 3.76324 0.489289 3.97943 0.296281 4.25869C0.103273 4.53795 7.65424e-05 4.86746 0 5.20473H0ZM10.3333 20.9375L20.6667 24.3125V4.0625L10.3333 0.6875V20.9375ZM29.8192 0.748672L22.3889 4.0625V24.3125L29.9172 21.362C30.2368 21.2368 30.5108 21.0206 30.7038 20.7414C30.8968 20.4621 31 20.1326 31 19.7953V1.5323C31 0.935352 30.3848 0.527187 29.8192 0.748672Z" fill="#ADEDE6"/>
</svg>
