<svg width="34" height="34" viewBox="0 0 34 34" fill="none" xmlns="http://www.w3.org/2000/svg">
<path d="M33.0708 16.5354C33.0708 20.9209 31.3287 25.1267 28.2277 28.2277C25.1267 31.3287 20.9209 33.0708 16.5354 33.0708C12.1499 33.0708 7.9441 31.3287 4.84311 28.2277C1.74212 25.1267 0 20.9209 0 16.5354C0 12.1499 1.74212 7.9441 4.84311 4.84311C7.9441 1.74212 12.1499 0 16.5354 0C20.9209 0 25.1267 1.74212 28.2277 4.84311C31.3287 7.9441 33.0708 12.1499 33.0708 16.5354ZM11.3598 12.4698H13.065C13.3503 12.4698 13.5776 12.2362 13.6148 11.953C13.8009 10.5971 14.731 9.60913 16.3886 9.60913C17.8066 9.60913 19.1046 10.3181 19.1046 12.0233C19.1046 13.3358 18.3316 13.9393 17.11 14.8571C15.719 15.8678 14.6173 17.048 14.6958 18.964L14.702 19.4126C14.7042 19.5482 14.7596 19.6775 14.8563 19.7726C14.9529 19.8677 15.0831 19.921 15.2188 19.921H16.895C17.0321 19.921 17.1635 19.8666 17.2604 19.7697C17.3573 19.6728 17.4118 19.5413 17.4118 19.4043V19.1873C17.4118 17.7032 17.976 17.2712 19.4994 16.1158C20.7581 15.1588 22.0706 14.0964 22.0706 11.8662C22.0706 8.74309 19.4332 7.23424 16.5457 7.23424C13.9269 7.23424 11.058 8.45372 10.8617 11.9592C10.8589 12.026 10.8697 12.0926 10.8936 12.155C10.9175 12.2174 10.9538 12.2743 11.0005 12.3221C11.0472 12.3699 11.1031 12.4077 11.1649 12.4331C11.2267 12.4585 11.293 12.4709 11.3598 12.4698ZM16.1654 25.787C17.4262 25.787 18.2923 24.9726 18.2923 23.8709C18.2923 22.73 17.4242 21.928 16.1654 21.928C14.9583 21.928 14.0799 22.73 14.0799 23.8709C14.0799 24.9726 14.9583 25.787 16.1675 25.787H16.1654Z" fill="white"/>
</svg>
