<svg width="29" height="29" viewBox="0 0 29 29" fill="none" xmlns="http://www.w3.org/2000/svg">
<path d="M3.62504 6.04166H25.375C25.5953 6.04235 25.8111 6.10309 25.9994 6.21733C26.1876 6.33157 26.3412 6.49499 26.4434 6.69C26.5457 6.88501 26.5929 7.10422 26.5799 7.32405C26.5668 7.54387 26.4941 7.75598 26.3695 7.93754L15.4945 23.6459C15.0438 24.2972 13.9587 24.2972 13.5068 23.6459L2.63179 7.93754C2.50591 7.75636 2.4321 7.54414 2.41836 7.32395C2.40462 7.10376 2.45149 6.88402 2.55387 6.6886C2.65625 6.49317 2.81023 6.32954 2.99908 6.21549C3.18793 6.10143 3.40442 6.04132 3.62504 6.04166Z" fill="#FD5C5C"/>
</svg>
