<svg width="385" height="385" viewBox="0 0 385 385" fill="none" xmlns="http://www.w3.org/2000/svg">
<circle cx="192.5" cy="192.5" r="192.5" fill="#2E4F72"/>
<path d="M94.9008 200.112C94.1648 200.112 93.5035 199.984 92.9168 199.728C92.3408 199.461 91.8875 199.099 91.5568 198.64C91.2261 198.171 91.0555 197.632 91.0448 197.024H92.5968C92.6501 197.547 92.8635 197.989 93.2368 198.352C93.6208 198.704 94.1755 198.88 94.9008 198.88C95.5941 198.88 96.1381 198.709 96.5328 198.368C96.9381 198.016 97.1408 197.568 97.1408 197.024C97.1408 196.597 97.0235 196.251 96.7888 195.984C96.5541 195.717 96.2608 195.515 95.9088 195.376C95.5568 195.237 95.0821 195.088 94.4848 194.928C93.7488 194.736 93.1568 194.544 92.7088 194.352C92.2715 194.16 91.8928 193.861 91.5728 193.456C91.2635 193.04 91.1088 192.485 91.1088 191.792C91.1088 191.184 91.2635 190.645 91.5728 190.176C91.8821 189.707 92.3141 189.344 92.8688 189.088C93.4341 188.832 94.0795 188.704 94.8048 188.704C95.8501 188.704 96.7035 188.965 97.3648 189.488C98.0368 190.011 98.4155 190.704 98.5008 191.568H96.9008C96.8475 191.141 96.6235 190.768 96.2288 190.448C95.8341 190.117 95.3115 189.952 94.6608 189.952C94.0528 189.952 93.5568 190.112 93.1728 190.432C92.7888 190.741 92.5968 191.179 92.5968 191.744C92.5968 192.149 92.7088 192.48 92.9328 192.736C93.1675 192.992 93.4501 193.189 93.7808 193.328C94.1221 193.456 94.5968 193.605 95.2048 193.776C95.9408 193.979 96.5328 194.181 96.9808 194.384C97.4288 194.576 97.8128 194.88 98.1328 195.296C98.4528 195.701 98.6128 196.256 98.6128 196.96C98.6128 197.504 98.4688 198.016 98.1808 198.496C97.8928 198.976 97.4661 199.365 96.9008 199.664C96.3355 199.963 95.6688 200.112 94.9008 200.112ZM108.755 195.28C108.755 195.557 108.739 195.851 108.707 196.16H101.699C101.753 197.024 102.046 197.701 102.579 198.192C103.123 198.672 103.779 198.912 104.547 198.912C105.177 198.912 105.699 198.768 106.115 198.48C106.542 198.181 106.841 197.787 107.011 197.296H108.579C108.345 198.139 107.875 198.827 107.171 199.36C106.467 199.883 105.593 200.144 104.547 200.144C103.715 200.144 102.969 199.957 102.307 199.584C101.657 199.211 101.145 198.683 100.771 198C100.398 197.307 100.211 196.507 100.211 195.6C100.211 194.693 100.393 193.899 100.755 193.216C101.118 192.533 101.625 192.011 102.275 191.648C102.937 191.275 103.694 191.088 104.547 191.088C105.379 191.088 106.115 191.269 106.755 191.632C107.395 191.995 107.886 192.496 108.227 193.136C108.579 193.765 108.755 194.48 108.755 195.28ZM107.251 194.976C107.251 194.421 107.129 193.947 106.883 193.552C106.638 193.147 106.302 192.843 105.875 192.64C105.459 192.427 104.995 192.32 104.483 192.32C103.747 192.32 103.118 192.555 102.595 193.024C102.083 193.493 101.79 194.144 101.715 194.976H107.251ZM112.133 188.16V200H110.677V188.16H112.133ZM116.071 188.16V200H114.615V188.16H116.071ZM122.274 195.584C122.274 194.688 122.455 193.904 122.818 193.232C123.181 192.549 123.677 192.021 124.306 191.648C124.946 191.275 125.655 191.088 126.434 191.088C127.202 191.088 127.869 191.253 128.434 191.584C128.999 191.915 129.421 192.331 129.698 192.832V191.232H131.17V200H129.698V198.368C129.41 198.88 128.978 199.307 128.402 199.648C127.837 199.979 127.175 200.144 126.418 200.144C125.639 200.144 124.935 199.952 124.306 199.568C123.677 199.184 123.181 198.645 122.818 197.952C122.455 197.259 122.274 196.469 122.274 195.584ZM129.698 195.6C129.698 194.939 129.565 194.363 129.298 193.872C129.031 193.381 128.669 193.008 128.21 192.752C127.762 192.485 127.266 192.352 126.722 192.352C126.178 192.352 125.682 192.48 125.234 192.736C124.786 192.992 124.429 193.365 124.162 193.856C123.895 194.347 123.762 194.923 123.762 195.584C123.762 196.256 123.895 196.843 124.162 197.344C124.429 197.835 124.786 198.213 125.234 198.48C125.682 198.736 126.178 198.864 126.722 198.864C127.266 198.864 127.762 198.736 128.21 198.48C128.669 198.213 129.031 197.835 129.298 197.344C129.565 196.843 129.698 196.261 129.698 195.6ZM135.086 188.16V200H133.63V188.16H135.086ZM139.024 188.16V200H137.568V188.16H139.024ZM149.595 200.144C148.774 200.144 148.027 199.957 147.355 199.584C146.694 199.211 146.171 198.683 145.787 198C145.414 197.307 145.227 196.507 145.227 195.6C145.227 194.704 145.419 193.915 145.803 193.232C146.198 192.539 146.731 192.011 147.403 191.648C148.075 191.275 148.827 191.088 149.659 191.088C150.491 191.088 151.243 191.275 151.915 191.648C152.587 192.011 153.115 192.533 153.499 193.216C153.894 193.899 154.091 194.693 154.091 195.6C154.091 196.507 153.888 197.307 153.483 198C153.088 198.683 152.55 199.211 151.867 199.584C151.184 199.957 150.427 200.144 149.595 200.144ZM149.595 198.864C150.118 198.864 150.608 198.741 151.067 198.496C151.526 198.251 151.894 197.883 152.171 197.392C152.459 196.901 152.603 196.304 152.603 195.6C152.603 194.896 152.464 194.299 152.187 193.808C151.91 193.317 151.547 192.955 151.099 192.72C150.651 192.475 150.166 192.352 149.643 192.352C149.11 192.352 148.619 192.475 148.171 192.72C147.734 192.955 147.382 193.317 147.115 193.808C146.848 194.299 146.715 194.896 146.715 195.6C146.715 196.315 146.843 196.917 147.099 197.408C147.366 197.899 147.718 198.267 148.155 198.512C148.592 198.747 149.072 198.864 149.595 198.864ZM159.573 192.432H157.733V200H156.277V192.432H155.141V191.232H156.277V190.608C156.277 189.627 156.528 188.912 157.029 188.464C157.541 188.005 158.357 187.776 159.477 187.776V188.992C158.837 188.992 158.384 189.12 158.117 189.376C157.861 189.621 157.733 190.032 157.733 190.608V191.232H159.573V192.432ZM173.089 191.232L167.809 204.128H166.305L168.033 199.904L164.497 191.232H166.113L168.865 198.336L171.585 191.232H173.089ZM178.376 200.144C177.555 200.144 176.808 199.957 176.136 199.584C175.475 199.211 174.952 198.683 174.568 198C174.195 197.307 174.008 196.507 174.008 195.6C174.008 194.704 174.2 193.915 174.584 193.232C174.979 192.539 175.512 192.011 176.184 191.648C176.856 191.275 177.608 191.088 178.44 191.088C179.272 191.088 180.024 191.275 180.696 191.648C181.368 192.011 181.896 192.533 182.28 193.216C182.675 193.899 182.872 194.693 182.872 195.6C182.872 196.507 182.67 197.307 182.264 198C181.87 198.683 181.331 199.211 180.648 199.584C179.966 199.957 179.208 200.144 178.376 200.144ZM178.376 198.864C178.899 198.864 179.39 198.741 179.848 198.496C180.307 198.251 180.675 197.883 180.952 197.392C181.24 196.901 181.384 196.304 181.384 195.6C181.384 194.896 181.246 194.299 180.968 193.808C180.691 193.317 180.328 192.955 179.88 192.72C179.432 192.475 178.947 192.352 178.424 192.352C177.891 192.352 177.4 192.475 176.952 192.72C176.515 192.955 176.163 193.317 175.896 193.808C175.63 194.299 175.496 194.896 175.496 195.6C175.496 196.315 175.624 196.917 175.88 197.408C176.147 197.899 176.499 198.267 176.936 198.512C177.374 198.747 177.854 198.864 178.376 198.864ZM192.563 191.232V200H191.107V198.704C190.829 199.152 190.44 199.504 189.939 199.76C189.448 200.005 188.904 200.128 188.307 200.128C187.624 200.128 187.011 199.989 186.467 199.712C185.923 199.424 185.491 198.997 185.171 198.432C184.861 197.867 184.707 197.179 184.707 196.368V191.232H186.147V196.176C186.147 197.04 186.365 197.707 186.803 198.176C187.24 198.635 187.837 198.864 188.595 198.864C189.373 198.864 189.987 198.624 190.435 198.144C190.883 197.664 191.107 196.965 191.107 196.048V191.232H192.563ZM196.477 192.656C196.733 192.155 197.096 191.765 197.565 191.488C198.045 191.211 198.626 191.072 199.309 191.072V192.576H198.925C197.293 192.576 196.477 193.461 196.477 195.232V200H195.021V191.232H196.477V192.656ZM206.711 192.848C206.999 192.347 207.426 191.931 207.991 191.6C208.567 191.259 209.234 191.088 209.991 191.088C210.77 191.088 211.474 191.275 212.103 191.648C212.743 192.021 213.245 192.549 213.607 193.232C213.97 193.904 214.151 194.688 214.151 195.584C214.151 196.469 213.97 197.259 213.607 197.952C213.245 198.645 212.743 199.184 212.103 199.568C211.474 199.952 210.77 200.144 209.991 200.144C209.245 200.144 208.583 199.979 208.007 199.648C207.442 199.307 207.01 198.885 206.711 198.384V204.16H205.255V191.232H206.711V192.848ZM212.663 195.584C212.663 194.923 212.53 194.347 212.263 193.856C211.997 193.365 211.634 192.992 211.175 192.736C210.727 192.48 210.231 192.352 209.687 192.352C209.154 192.352 208.658 192.485 208.199 192.752C207.751 193.008 207.389 193.387 207.111 193.888C206.845 194.379 206.711 194.949 206.711 195.6C206.711 196.261 206.845 196.843 207.111 197.344C207.389 197.835 207.751 198.213 208.199 198.48C208.658 198.736 209.154 198.864 209.687 198.864C210.231 198.864 210.727 198.736 211.175 198.48C211.634 198.213 211.997 197.835 212.263 197.344C212.53 196.843 212.663 196.256 212.663 195.584ZM217.524 188.16V200H216.068V188.16H217.524ZM219.461 195.584C219.461 194.688 219.643 193.904 220.005 193.232C220.368 192.549 220.864 192.021 221.493 191.648C222.133 191.275 222.843 191.088 223.621 191.088C224.389 191.088 225.056 191.253 225.621 191.584C226.187 191.915 226.608 192.331 226.885 192.832V191.232H228.357V200H226.885V198.368C226.597 198.88 226.165 199.307 225.589 199.648C225.024 199.979 224.363 200.144 223.605 200.144C222.827 200.144 222.123 199.952 221.493 199.568C220.864 199.184 220.368 198.645 220.005 197.952C219.643 197.259 219.461 196.469 219.461 195.584ZM226.885 195.6C226.885 194.939 226.752 194.363 226.485 193.872C226.219 193.381 225.856 193.008 225.397 192.752C224.949 192.485 224.453 192.352 223.909 192.352C223.365 192.352 222.869 192.48 222.421 192.736C221.973 192.992 221.616 193.365 221.349 193.856C221.083 194.347 220.949 194.923 220.949 195.584C220.949 196.256 221.083 196.843 221.349 197.344C221.616 197.835 221.973 198.213 222.421 198.48C222.869 198.736 223.365 198.864 223.909 198.864C224.453 198.864 224.949 198.736 225.397 198.48C225.856 198.213 226.219 197.835 226.485 197.344C226.752 196.843 226.885 196.261 226.885 195.6ZM235.09 191.072C236.157 191.072 237.021 191.397 237.682 192.048C238.343 192.688 238.674 193.616 238.674 194.832V200H237.234V195.04C237.234 194.165 237.015 193.499 236.578 193.04C236.141 192.571 235.543 192.336 234.786 192.336C234.018 192.336 233.405 192.576 232.946 193.056C232.498 193.536 232.274 194.235 232.274 195.152V200H230.818V191.232H232.274V192.48C232.562 192.032 232.951 191.685 233.442 191.44C233.943 191.195 234.493 191.072 235.09 191.072ZM242.828 192.432V197.6C242.828 198.027 242.919 198.331 243.1 198.512C243.282 198.683 243.596 198.768 244.044 198.768H245.116V200H243.804C242.994 200 242.386 199.813 241.98 199.44C241.575 199.067 241.372 198.453 241.372 197.6V192.432H240.236V191.232H241.372V189.024H242.828V191.232H245.116V192.432H242.828ZM249.984 200.144C249.312 200.144 248.71 200.032 248.176 199.808C247.643 199.573 247.222 199.253 246.912 198.848C246.603 198.432 246.432 197.957 246.4 197.424H247.904C247.947 197.861 248.15 198.219 248.512 198.496C248.886 198.773 249.371 198.912 249.968 198.912C250.523 198.912 250.96 198.789 251.28 198.544C251.6 198.299 251.76 197.989 251.76 197.616C251.76 197.232 251.59 196.949 251.248 196.768C250.907 196.576 250.379 196.389 249.664 196.208C249.014 196.037 248.48 195.867 248.064 195.696C247.659 195.515 247.307 195.253 247.008 194.912C246.72 194.56 246.576 194.101 246.576 193.536C246.576 193.088 246.71 192.677 246.976 192.304C247.243 191.931 247.622 191.637 248.112 191.424C248.603 191.2 249.163 191.088 249.792 191.088C250.763 191.088 251.547 191.333 252.144 191.824C252.742 192.315 253.062 192.987 253.104 193.84H251.648C251.616 193.381 251.43 193.013 251.088 192.736C250.758 192.459 250.31 192.32 249.744 192.32C249.222 192.32 248.806 192.432 248.496 192.656C248.187 192.88 248.032 193.173 248.032 193.536C248.032 193.824 248.123 194.064 248.304 194.256C248.496 194.437 248.731 194.587 249.008 194.704C249.296 194.811 249.691 194.933 250.192 195.072C250.822 195.243 251.334 195.413 251.728 195.584C252.123 195.744 252.459 195.989 252.736 196.32C253.024 196.651 253.174 197.083 253.184 197.616C253.184 198.096 253.051 198.528 252.784 198.912C252.518 199.296 252.139 199.6 251.648 199.824C251.168 200.037 250.614 200.144 249.984 200.144ZM263.777 191.072C264.844 191.072 265.708 191.397 266.369 192.048C267.031 192.688 267.361 193.616 267.361 194.832V200H265.921V195.04C265.921 194.165 265.703 193.499 265.265 193.04C264.828 192.571 264.231 192.336 263.473 192.336C262.705 192.336 262.092 192.576 261.633 193.056C261.185 193.536 260.961 194.235 260.961 195.152V200H259.505V191.232H260.961V192.48C261.249 192.032 261.639 191.685 262.129 191.44C262.631 191.195 263.18 191.072 263.777 191.072ZM273.564 200.144C272.742 200.144 271.996 199.957 271.324 199.584C270.662 199.211 270.14 198.683 269.756 198C269.382 197.307 269.196 196.507 269.196 195.6C269.196 194.704 269.388 193.915 269.772 193.232C270.166 192.539 270.7 192.011 271.372 191.648C272.044 191.275 272.796 191.088 273.628 191.088C274.46 191.088 275.212 191.275 275.884 191.648C276.556 192.011 277.084 192.533 277.468 193.216C277.862 193.899 278.06 194.693 278.06 195.6C278.06 196.507 277.857 197.307 277.452 198C277.057 198.683 276.518 199.211 275.836 199.584C275.153 199.957 274.396 200.144 273.564 200.144ZM273.564 198.864C274.086 198.864 274.577 198.741 275.036 198.496C275.494 198.251 275.862 197.883 276.14 197.392C276.428 196.901 276.572 196.304 276.572 195.6C276.572 194.896 276.433 194.299 276.156 193.808C275.878 193.317 275.516 192.955 275.068 192.72C274.62 192.475 274.134 192.352 273.612 192.352C273.078 192.352 272.588 192.475 272.14 192.72C271.702 192.955 271.35 193.317 271.084 193.808C270.817 194.299 270.684 194.896 270.684 195.6C270.684 196.315 270.812 196.917 271.068 197.408C271.334 197.899 271.686 198.267 272.124 198.512C272.561 198.747 273.041 198.864 273.564 198.864ZM291.654 191.232L288.918 200H287.414L285.302 193.04L283.19 200H281.686L278.934 191.232H280.422L282.438 198.592L284.614 191.232H286.102L288.23 198.608L290.214 191.232H291.654ZM86.0786 211.864C86.3773 211.341 86.8146 210.915 87.3906 210.584C87.9666 210.253 88.6226 210.088 89.3586 210.088C90.148 210.088 90.8573 210.275 91.4866 210.648C92.116 211.021 92.612 211.549 92.9746 212.232C93.3373 212.904 93.5186 213.688 93.5186 214.584C93.5186 215.469 93.3373 216.259 92.9746 216.952C92.612 217.645 92.1106 218.184 91.4706 218.568C90.8413 218.952 90.1373 219.144 89.3586 219.144C88.6013 219.144 87.9346 218.979 87.3586 218.648C86.7933 218.317 86.3666 217.896 86.0786 217.384V219H84.6226V207.16H86.0786V211.864ZM92.0306 214.584C92.0306 213.923 91.8973 213.347 91.6306 212.856C91.364 212.365 91.0013 211.992 90.5426 211.736C90.0946 211.48 89.5986 211.352 89.0546 211.352C88.5213 211.352 88.0253 211.485 87.5666 211.752C87.1186 212.008 86.756 212.387 86.4786 212.888C86.212 213.379 86.0786 213.949 86.0786 214.6C86.0786 215.261 86.212 215.843 86.4786 216.344C86.756 216.835 87.1186 217.213 87.5666 217.48C88.0253 217.736 88.5213 217.864 89.0546 217.864C89.5986 217.864 90.0946 217.736 90.5426 217.48C91.0013 217.213 91.364 216.835 91.6306 216.344C91.8973 215.843 92.0306 215.256 92.0306 214.584ZM103.435 214.28C103.435 214.557 103.419 214.851 103.387 215.16H96.3791C96.4325 216.024 96.7258 216.701 97.2591 217.192C97.8031 217.672 98.4591 217.912 99.2271 217.912C99.8565 217.912 100.379 217.768 100.795 217.48C101.222 217.181 101.52 216.787 101.691 216.296H103.259C103.024 217.139 102.555 217.827 101.851 218.36C101.147 218.883 100.272 219.144 99.2271 219.144C98.3951 219.144 97.6485 218.957 96.9871 218.584C96.3365 218.211 95.8245 217.683 95.4511 217C95.0778 216.307 94.8911 215.507 94.8911 214.6C94.8911 213.693 95.0725 212.899 95.4351 212.216C95.7978 211.533 96.3045 211.011 96.9551 210.648C97.6165 210.275 98.3738 210.088 99.2271 210.088C100.059 210.088 100.795 210.269 101.435 210.632C102.075 210.995 102.566 211.496 102.907 212.136C103.259 212.765 103.435 213.48 103.435 214.28ZM101.931 213.976C101.931 213.421 101.808 212.947 101.563 212.552C101.318 212.147 100.982 211.843 100.555 211.64C100.139 211.427 99.6751 211.32 99.1631 211.32C98.4271 211.32 97.7978 211.555 97.2751 212.024C96.7631 212.493 96.4698 213.144 96.3951 213.976H101.931ZM108.925 211.432H107.085V219H105.629V211.432H104.493V210.232H105.629V209.608C105.629 208.627 105.88 207.912 106.381 207.464C106.893 207.005 107.709 206.776 108.829 206.776V207.992C108.189 207.992 107.736 208.12 107.469 208.376C107.213 208.621 107.085 209.032 107.085 209.608V210.232H108.925V211.432ZM114.447 219.144C113.625 219.144 112.879 218.957 112.207 218.584C111.545 218.211 111.023 217.683 110.639 217C110.265 216.307 110.079 215.507 110.079 214.6C110.079 213.704 110.271 212.915 110.655 212.232C111.049 211.539 111.583 211.011 112.255 210.648C112.927 210.275 113.679 210.088 114.511 210.088C115.343 210.088 116.095 210.275 116.767 210.648C117.439 211.011 117.967 211.533 118.351 212.216C118.745 212.899 118.943 213.693 118.943 214.6C118.943 215.507 118.74 216.307 118.335 217C117.94 217.683 117.401 218.211 116.719 218.584C116.036 218.957 115.279 219.144 114.447 219.144ZM114.447 217.864C114.969 217.864 115.46 217.741 115.919 217.496C116.377 217.251 116.745 216.883 117.023 216.392C117.311 215.901 117.455 215.304 117.455 214.6C117.455 213.896 117.316 213.299 117.039 212.808C116.761 212.317 116.399 211.955 115.951 211.72C115.503 211.475 115.017 211.352 114.495 211.352C113.961 211.352 113.471 211.475 113.023 211.72C112.585 211.955 112.233 212.317 111.967 212.808C111.7 213.299 111.567 213.896 111.567 214.6C111.567 215.315 111.695 215.917 111.951 216.408C112.217 216.899 112.569 217.267 113.007 217.512C113.444 217.747 113.924 217.864 114.447 217.864ZM122.313 211.656C122.569 211.155 122.932 210.765 123.401 210.488C123.881 210.211 124.462 210.072 125.145 210.072V211.576H124.761C123.129 211.576 122.313 212.461 122.313 214.232V219H120.857V210.232H122.313V211.656ZM134.826 214.28C134.826 214.557 134.81 214.851 134.778 215.16H127.77C127.823 216.024 128.116 216.701 128.65 217.192C129.194 217.672 129.85 217.912 130.618 217.912C131.247 217.912 131.77 217.768 132.186 217.48C132.612 217.181 132.911 216.787 133.082 216.296H134.65C134.415 217.139 133.946 217.827 133.242 218.36C132.538 218.883 131.663 219.144 130.618 219.144C129.786 219.144 129.039 218.957 128.378 218.584C127.727 218.211 127.215 217.683 126.842 217C126.468 216.307 126.282 215.507 126.282 214.6C126.282 213.693 126.463 212.899 126.826 212.216C127.188 211.533 127.695 211.011 128.346 210.648C129.007 210.275 129.764 210.088 130.618 210.088C131.45 210.088 132.186 210.269 132.826 210.632C133.466 210.995 133.956 211.496 134.298 212.136C134.65 212.765 134.826 213.48 134.826 214.28ZM133.322 213.976C133.322 213.421 133.199 212.947 132.954 212.552C132.708 212.147 132.372 211.843 131.946 211.64C131.53 211.427 131.066 211.32 130.554 211.32C129.818 211.32 129.188 211.555 128.666 212.024C128.154 212.493 127.86 213.144 127.786 213.976H133.322ZM149.013 214.28C149.013 214.557 148.997 214.851 148.965 215.16H141.957C142.011 216.024 142.304 216.701 142.837 217.192C143.381 217.672 144.037 217.912 144.805 217.912C145.435 217.912 145.957 217.768 146.373 217.48C146.8 217.181 147.099 216.787 147.269 216.296H148.837C148.603 217.139 148.133 217.827 147.429 218.36C146.725 218.883 145.851 219.144 144.805 219.144C143.973 219.144 143.227 218.957 142.565 218.584C141.915 218.211 141.403 217.683 141.029 217C140.656 216.307 140.469 215.507 140.469 214.6C140.469 213.693 140.651 212.899 141.013 212.216C141.376 211.533 141.883 211.011 142.533 210.648C143.195 210.275 143.952 210.088 144.805 210.088C145.637 210.088 146.373 210.269 147.013 210.632C147.653 210.995 148.144 211.496 148.485 212.136C148.837 212.765 149.013 213.48 149.013 214.28ZM147.509 213.976C147.509 213.421 147.387 212.947 147.141 212.552C146.896 212.147 146.56 211.843 146.133 211.64C145.717 211.427 145.253 211.32 144.741 211.32C144.005 211.32 143.376 211.555 142.853 212.024C142.341 212.493 142.048 213.144 141.973 213.976H147.509ZM155.207 210.072C156.274 210.072 157.138 210.397 157.799 211.048C158.46 211.688 158.791 212.616 158.791 213.832V219H157.351V214.04C157.351 213.165 157.132 212.499 156.695 212.04C156.258 211.571 155.66 211.336 154.903 211.336C154.135 211.336 153.522 211.576 153.063 212.056C152.615 212.536 152.391 213.235 152.391 214.152V219H150.935V210.232H152.391V211.48C152.679 211.032 153.068 210.685 153.559 210.44C154.06 210.195 154.61 210.072 155.207 210.072ZM160.626 214.584C160.626 213.688 160.807 212.904 161.17 212.232C161.532 211.549 162.028 211.021 162.658 210.648C163.298 210.275 164.012 210.088 164.802 210.088C165.484 210.088 166.119 210.248 166.706 210.568C167.292 210.877 167.74 211.288 168.05 211.8V207.16H169.522V219H168.05V217.352C167.762 217.875 167.335 218.307 166.77 218.648C166.204 218.979 165.543 219.144 164.786 219.144C164.007 219.144 163.298 218.952 162.658 218.568C162.028 218.184 161.532 217.645 161.17 216.952C160.807 216.259 160.626 215.469 160.626 214.584ZM168.05 214.6C168.05 213.939 167.916 213.363 167.65 212.872C167.383 212.381 167.02 212.008 166.562 211.752C166.114 211.485 165.618 211.352 165.074 211.352C164.53 211.352 164.034 211.48 163.586 211.736C163.138 211.992 162.78 212.365 162.514 212.856C162.247 213.347 162.114 213.923 162.114 214.584C162.114 215.256 162.247 215.843 162.514 216.344C162.78 216.835 163.138 217.213 163.586 217.48C164.034 217.736 164.53 217.864 165.074 217.864C165.618 217.864 166.114 217.736 166.562 217.48C167.02 217.213 167.383 216.835 167.65 216.344C167.916 215.843 168.05 215.261 168.05 214.6ZM172.734 208.808C172.457 208.808 172.222 208.712 172.03 208.52C171.838 208.328 171.742 208.093 171.742 207.816C171.742 207.539 171.838 207.304 172.03 207.112C172.222 206.92 172.457 206.824 172.734 206.824C173.001 206.824 173.225 206.92 173.406 207.112C173.598 207.304 173.694 207.539 173.694 207.816C173.694 208.093 173.598 208.328 173.406 208.52C173.225 208.712 173.001 208.808 172.734 208.808ZM173.438 210.232V219H171.982V210.232H173.438ZM180.192 210.072C181.258 210.072 182.122 210.397 182.784 211.048C183.445 211.688 183.776 212.616 183.776 213.832V219H182.336V214.04C182.336 213.165 182.117 212.499 181.68 212.04C181.242 211.571 180.645 211.336 179.888 211.336C179.12 211.336 178.506 211.576 178.048 212.056C177.6 212.536 177.376 213.235 177.376 214.152V219H175.92V210.232H177.376V211.48C177.664 211.032 178.053 210.685 178.544 210.44C179.045 210.195 179.594 210.072 180.192 210.072ZM189.77 210.088C190.527 210.088 191.189 210.253 191.754 210.584C192.33 210.915 192.757 211.331 193.034 211.832V210.232H194.506V219.192C194.506 219.992 194.335 220.701 193.994 221.32C193.653 221.949 193.162 222.44 192.522 222.792C191.893 223.144 191.157 223.32 190.314 223.32C189.162 223.32 188.202 223.048 187.434 222.504C186.666 221.96 186.213 221.219 186.074 220.28H187.514C187.674 220.813 188.005 221.24 188.506 221.56C189.007 221.891 189.61 222.056 190.314 222.056C191.114 222.056 191.765 221.805 192.266 221.304C192.778 220.803 193.034 220.099 193.034 219.192V217.352C192.746 217.864 192.319 218.291 191.754 218.632C191.189 218.973 190.527 219.144 189.77 219.144C188.991 219.144 188.282 218.952 187.642 218.568C187.013 218.184 186.517 217.645 186.154 216.952C185.791 216.259 185.61 215.469 185.61 214.584C185.61 213.688 185.791 212.904 186.154 212.232C186.517 211.549 187.013 211.021 187.642 210.648C188.282 210.275 188.991 210.088 189.77 210.088ZM193.034 214.6C193.034 213.939 192.901 213.363 192.634 212.872C192.367 212.381 192.005 212.008 191.546 211.752C191.098 211.485 190.602 211.352 190.058 211.352C189.514 211.352 189.018 211.48 188.57 211.736C188.122 211.992 187.765 212.365 187.498 212.856C187.231 213.347 187.098 213.923 187.098 214.584C187.098 215.256 187.231 215.843 187.498 216.344C187.765 216.835 188.122 217.213 188.57 217.48C189.018 217.736 189.514 217.864 190.058 217.864C190.602 217.864 191.098 217.736 191.546 217.48C192.005 217.213 192.367 216.835 192.634 216.344C192.901 215.843 193.034 215.261 193.034 214.6ZM203.008 211.432V216.6C203.008 217.027 203.099 217.331 203.28 217.512C203.461 217.683 203.776 217.768 204.224 217.768H205.296V219H203.984C203.173 219 202.565 218.813 202.16 218.44C201.755 218.067 201.552 217.453 201.552 216.6V211.432H200.416V210.232H201.552V208.024H203.008V210.232H205.296V211.432H203.008ZM211.412 210.072C212.073 210.072 212.671 210.216 213.204 210.504C213.737 210.781 214.153 211.203 214.452 211.768C214.761 212.333 214.916 213.021 214.916 213.832V219H213.476V214.04C213.476 213.165 213.257 212.499 212.82 212.04C212.383 211.571 211.785 211.336 211.028 211.336C210.26 211.336 209.647 211.576 209.188 212.056C208.74 212.536 208.516 213.235 208.516 214.152V219H207.06V207.16H208.516V211.48C208.804 211.032 209.199 210.685 209.7 210.44C210.212 210.195 210.783 210.072 211.412 210.072ZM225.295 214.28C225.295 214.557 225.279 214.851 225.247 215.16H218.239C218.292 216.024 218.585 216.701 219.119 217.192C219.663 217.672 220.319 217.912 221.087 217.912C221.716 217.912 222.239 217.768 222.655 217.48C223.081 217.181 223.38 216.787 223.551 216.296H225.119C224.884 217.139 224.415 217.827 223.711 218.36C223.007 218.883 222.132 219.144 221.087 219.144C220.255 219.144 219.508 218.957 218.847 218.584C218.196 218.211 217.684 217.683 217.311 217C216.937 216.307 216.751 215.507 216.751 214.6C216.751 213.693 216.932 212.899 217.295 212.216C217.657 211.533 218.164 211.011 218.815 210.648C219.476 210.275 220.233 210.088 221.087 210.088C221.919 210.088 222.655 210.269 223.295 210.632C223.935 210.995 224.425 211.496 224.767 212.136C225.119 212.765 225.295 213.48 225.295 214.28ZM223.791 213.976C223.791 213.421 223.668 212.947 223.423 212.552C223.177 212.147 222.841 211.843 222.415 211.64C221.999 211.427 221.535 211.32 221.023 211.32C220.287 211.32 219.657 211.555 219.135 212.024C218.623 212.493 218.329 213.144 218.255 213.976H223.791ZM235.098 210.088C235.855 210.088 236.517 210.253 237.082 210.584C237.658 210.915 238.085 211.331 238.362 211.832V210.232H239.834V219.192C239.834 219.992 239.663 220.701 239.322 221.32C238.981 221.949 238.49 222.44 237.85 222.792C237.221 223.144 236.485 223.32 235.642 223.32C234.49 223.32 233.53 223.048 232.762 222.504C231.994 221.96 231.541 221.219 231.402 220.28H232.842C233.002 220.813 233.333 221.24 233.834 221.56C234.335 221.891 234.938 222.056 235.642 222.056C236.442 222.056 237.093 221.805 237.594 221.304C238.106 220.803 238.362 220.099 238.362 219.192V217.352C238.074 217.864 237.647 218.291 237.082 218.632C236.517 218.973 235.855 219.144 235.098 219.144C234.319 219.144 233.61 218.952 232.97 218.568C232.341 218.184 231.845 217.645 231.482 216.952C231.119 216.259 230.938 215.469 230.938 214.584C230.938 213.688 231.119 212.904 231.482 212.232C231.845 211.549 232.341 211.021 232.97 210.648C233.61 210.275 234.319 210.088 235.098 210.088ZM238.362 214.6C238.362 213.939 238.229 213.363 237.962 212.872C237.695 212.381 237.333 212.008 236.874 211.752C236.426 211.485 235.93 211.352 235.386 211.352C234.842 211.352 234.346 211.48 233.898 211.736C233.45 211.992 233.093 212.365 232.826 212.856C232.559 213.347 232.426 213.923 232.426 214.584C232.426 215.256 232.559 215.843 232.826 216.344C233.093 216.835 233.45 217.213 233.898 217.48C234.346 217.736 234.842 217.864 235.386 217.864C235.93 217.864 236.426 217.736 236.874 217.48C237.333 217.213 237.695 216.835 237.962 216.344C238.229 215.843 238.362 215.261 238.362 214.6ZM241.751 214.584C241.751 213.688 241.932 212.904 242.295 212.232C242.657 211.549 243.153 211.021 243.783 210.648C244.423 210.275 245.132 210.088 245.911 210.088C246.679 210.088 247.345 210.253 247.911 210.584C248.476 210.915 248.897 211.331 249.175 211.832V210.232H250.647V219H249.175V217.368C248.887 217.88 248.455 218.307 247.879 218.648C247.313 218.979 246.652 219.144 245.895 219.144C245.116 219.144 244.412 218.952 243.783 218.568C243.153 218.184 242.657 217.645 242.295 216.952C241.932 216.259 241.751 215.469 241.751 214.584ZM249.175 214.6C249.175 213.939 249.041 213.363 248.775 212.872C248.508 212.381 248.145 212.008 247.687 211.752C247.239 211.485 246.743 211.352 246.199 211.352C245.655 211.352 245.159 211.48 244.711 211.736C244.263 211.992 243.905 212.365 243.639 212.856C243.372 213.347 243.239 213.923 243.239 214.584C243.239 215.256 243.372 215.843 243.639 216.344C243.905 216.835 244.263 217.213 244.711 217.48C245.159 217.736 245.655 217.864 246.199 217.864C246.743 217.864 247.239 217.736 247.687 217.48C248.145 217.213 248.508 216.835 248.775 216.344C249.041 215.843 249.175 215.261 249.175 214.6ZM263.651 210.072C264.334 210.072 264.942 210.216 265.475 210.504C266.008 210.781 266.43 211.203 266.739 211.768C267.048 212.333 267.203 213.021 267.203 213.832V219H265.763V214.04C265.763 213.165 265.544 212.499 265.107 212.04C264.68 211.571 264.099 211.336 263.363 211.336C262.606 211.336 262.003 211.581 261.555 212.072C261.107 212.552 260.883 213.251 260.883 214.168V219H259.443V214.04C259.443 213.165 259.224 212.499 258.787 212.04C258.36 211.571 257.779 211.336 257.043 211.336C256.286 211.336 255.683 211.581 255.235 212.072C254.787 212.552 254.563 213.251 254.563 214.168V219H253.107V210.232H254.563V211.496C254.851 211.037 255.235 210.685 255.715 210.44C256.206 210.195 256.744 210.072 257.331 210.072C258.067 210.072 258.718 210.237 259.283 210.568C259.848 210.899 260.27 211.384 260.547 212.024C260.792 211.405 261.198 210.925 261.763 210.584C262.328 210.243 262.958 210.072 263.651 210.072ZM277.591 214.28C277.591 214.557 277.575 214.851 277.543 215.16H270.535C270.589 216.024 270.882 216.701 271.415 217.192C271.959 217.672 272.615 217.912 273.383 217.912C274.013 217.912 274.535 217.768 274.951 217.48C275.378 217.181 275.677 216.787 275.847 216.296H277.415C277.181 217.139 276.711 217.827 276.007 218.36C275.303 218.883 274.429 219.144 273.383 219.144C272.551 219.144 271.805 218.957 271.143 218.584C270.493 218.211 269.981 217.683 269.607 217C269.234 216.307 269.047 215.507 269.047 214.6C269.047 213.693 269.229 212.899 269.591 212.216C269.954 211.533 270.461 211.011 271.111 210.648C271.773 210.275 272.53 210.088 273.383 210.088C274.215 210.088 274.951 210.269 275.591 210.632C276.231 210.995 276.722 211.496 277.063 212.136C277.415 212.765 277.591 213.48 277.591 214.28ZM276.087 213.976C276.087 213.421 275.965 212.947 275.719 212.552C275.474 212.147 275.138 211.843 274.711 211.64C274.295 211.427 273.831 211.32 273.319 211.32C272.583 211.32 271.954 211.555 271.431 212.024C270.919 212.493 270.626 213.144 270.551 213.976H276.087ZM285.555 211.432V216.6C285.555 217.027 285.646 217.331 285.827 217.512C286.008 217.683 286.323 217.768 286.771 217.768H287.843V219H286.531C285.72 219 285.112 218.813 284.707 218.44C284.302 218.067 284.099 217.453 284.099 216.6V211.432H282.963V210.232H284.099V208.024H285.555V210.232H287.843V211.432H285.555ZM293.431 219.144C292.61 219.144 291.863 218.957 291.191 218.584C290.53 218.211 290.007 217.683 289.623 217C289.25 216.307 289.063 215.507 289.063 214.6C289.063 213.704 289.255 212.915 289.639 212.232C290.034 211.539 290.567 211.011 291.239 210.648C291.911 210.275 292.663 210.088 293.495 210.088C294.327 210.088 295.079 210.275 295.751 210.648C296.423 211.011 296.951 211.533 297.335 212.216C297.73 212.899 297.927 213.693 297.927 214.6C297.927 215.507 297.724 216.307 297.319 217C296.924 217.683 296.386 218.211 295.703 218.584C295.02 218.957 294.263 219.144 293.431 219.144ZM293.431 217.864C293.954 217.864 294.444 217.741 294.903 217.496C295.362 217.251 295.73 216.883 296.007 216.392C296.295 215.901 296.439 215.304 296.439 214.6C296.439 213.896 296.3 213.299 296.023 212.808C295.746 212.317 295.383 211.955 294.935 211.72C294.487 211.475 294.002 211.352 293.479 211.352C292.946 211.352 292.455 211.475 292.007 211.72C291.57 211.955 291.218 212.317 290.951 212.808C290.684 213.299 290.551 213.896 290.551 214.6C290.551 215.315 290.679 215.917 290.935 216.408C291.202 216.899 291.554 217.267 291.991 217.512C292.428 217.747 292.908 217.864 293.431 217.864ZM120.126 233.6C120.126 232.693 120.307 231.904 120.67 231.232C121.032 230.549 121.534 230.021 122.174 229.648C122.824 229.275 123.566 229.088 124.398 229.088C125.475 229.088 126.36 229.349 127.054 229.872C127.758 230.395 128.222 231.12 128.446 232.048H126.878C126.728 231.515 126.435 231.093 125.998 230.784C125.571 230.475 125.038 230.32 124.398 230.32C123.566 230.32 122.894 230.608 122.382 231.184C121.87 231.749 121.614 232.555 121.614 233.6C121.614 234.656 121.87 235.472 122.382 236.048C122.894 236.624 123.566 236.912 124.398 236.912C125.038 236.912 125.571 236.763 125.998 236.464C126.424 236.165 126.718 235.739 126.878 235.184H128.446C128.211 236.08 127.742 236.8 127.038 237.344C126.334 237.877 125.454 238.144 124.398 238.144C123.566 238.144 122.824 237.957 122.174 237.584C121.534 237.211 121.032 236.683 120.67 236C120.307 235.317 120.126 234.517 120.126 233.6ZM134.212 238.144C133.391 238.144 132.644 237.957 131.972 237.584C131.311 237.211 130.788 236.683 130.404 236C130.031 235.307 129.844 234.507 129.844 233.6C129.844 232.704 130.036 231.915 130.42 231.232C130.815 230.539 131.348 230.011 132.02 229.648C132.692 229.275 133.444 229.088 134.276 229.088C135.108 229.088 135.86 229.275 136.532 229.648C137.204 230.011 137.732 230.533 138.116 231.216C138.511 231.899 138.708 232.693 138.708 233.6C138.708 234.507 138.506 235.307 138.1 236C137.706 236.683 137.167 237.211 136.484 237.584C135.802 237.957 135.044 238.144 134.212 238.144ZM134.212 236.864C134.735 236.864 135.226 236.741 135.684 236.496C136.143 236.251 136.511 235.883 136.788 235.392C137.076 234.901 137.22 234.304 137.22 233.6C137.22 232.896 137.082 232.299 136.804 231.808C136.527 231.317 136.164 230.955 135.716 230.72C135.268 230.475 134.783 230.352 134.26 230.352C133.727 230.352 133.236 230.475 132.788 230.72C132.351 230.955 131.999 231.317 131.732 231.808C131.466 232.299 131.332 232.896 131.332 233.6C131.332 234.315 131.46 234.917 131.716 235.408C131.983 235.899 132.335 236.267 132.772 236.512C133.21 236.747 133.69 236.864 134.212 236.864ZM142.079 226.16V238H140.623V226.16H142.079ZM146.016 226.16V238H144.56V226.16H146.016ZM156.498 233.28C156.498 233.557 156.482 233.851 156.45 234.16H149.442C149.495 235.024 149.788 235.701 150.322 236.192C150.866 236.672 151.522 236.912 152.29 236.912C152.919 236.912 153.442 236.768 153.858 236.48C154.284 236.181 154.583 235.787 154.754 235.296H156.322C156.087 236.139 155.618 236.827 154.914 237.36C154.21 237.883 153.335 238.144 152.29 238.144C151.458 238.144 150.711 237.957 150.05 237.584C149.399 237.211 148.887 236.683 148.514 236C148.14 235.307 147.954 234.507 147.954 233.6C147.954 232.693 148.135 231.899 148.498 231.216C148.86 230.533 149.367 230.011 150.018 229.648C150.679 229.275 151.436 229.088 152.29 229.088C153.122 229.088 153.858 229.269 154.498 229.632C155.138 229.995 155.628 230.496 155.97 231.136C156.322 231.765 156.498 232.48 156.498 233.28ZM154.994 232.976C154.994 232.421 154.871 231.947 154.626 231.552C154.38 231.147 154.044 230.843 153.618 230.64C153.202 230.427 152.738 230.32 152.226 230.32C151.49 230.32 150.86 230.555 150.338 231.024C149.826 231.493 149.532 232.144 149.458 232.976H154.994ZM157.876 233.6C157.876 232.693 158.057 231.904 158.42 231.232C158.782 230.549 159.284 230.021 159.924 229.648C160.574 229.275 161.316 229.088 162.148 229.088C163.225 229.088 164.11 229.349 164.804 229.872C165.508 230.395 165.972 231.12 166.196 232.048H164.628C164.478 231.515 164.185 231.093 163.748 230.784C163.321 230.475 162.788 230.32 162.148 230.32C161.316 230.32 160.644 230.608 160.132 231.184C159.62 231.749 159.364 232.555 159.364 233.6C159.364 234.656 159.62 235.472 160.132 236.048C160.644 236.624 161.316 236.912 162.148 236.912C162.788 236.912 163.321 236.763 163.748 236.464C164.174 236.165 164.468 235.739 164.628 235.184H166.196C165.961 236.08 165.492 236.8 164.788 237.344C164.084 237.877 163.204 238.144 162.148 238.144C161.316 238.144 160.574 237.957 159.924 237.584C159.284 237.211 158.782 236.683 158.42 236C158.057 235.317 157.876 234.517 157.876 233.6ZM169.914 230.432V235.6C169.914 236.027 170.005 236.331 170.186 236.512C170.368 236.683 170.682 236.768 171.13 236.768H172.202V238H170.89C170.08 238 169.472 237.813 169.066 237.44C168.661 237.067 168.458 236.453 168.458 235.6V230.432H167.322V229.232H168.458V227.024H169.914V229.232H172.202V230.432H169.914ZM185.784 229.232L180.504 242.128H179L180.728 237.904L177.192 229.232H178.808L181.56 236.336L184.28 229.232H185.784ZM191.072 238.144C190.25 238.144 189.504 237.957 188.832 237.584C188.17 237.211 187.648 236.683 187.264 236C186.89 235.307 186.704 234.507 186.704 233.6C186.704 232.704 186.896 231.915 187.28 231.232C187.674 230.539 188.208 230.011 188.88 229.648C189.552 229.275 190.304 229.088 191.136 229.088C191.968 229.088 192.72 229.275 193.392 229.648C194.064 230.011 194.592 230.533 194.976 231.216C195.37 231.899 195.568 232.693 195.568 233.6C195.568 234.507 195.365 235.307 194.96 236C194.565 236.683 194.026 237.211 193.344 237.584C192.661 237.957 191.904 238.144 191.072 238.144ZM191.072 236.864C191.594 236.864 192.085 236.741 192.544 236.496C193.002 236.251 193.37 235.883 193.648 235.392C193.936 234.901 194.08 234.304 194.08 233.6C194.08 232.896 193.941 232.299 193.664 231.808C193.386 231.317 193.024 230.955 192.576 230.72C192.128 230.475 191.642 230.352 191.12 230.352C190.586 230.352 190.096 230.475 189.648 230.72C189.21 230.955 188.858 231.317 188.592 231.808C188.325 232.299 188.192 232.896 188.192 233.6C188.192 234.315 188.32 234.917 188.576 235.408C188.842 235.899 189.194 236.267 189.632 236.512C190.069 236.747 190.549 236.864 191.072 236.864ZM205.258 229.232V238H203.802V236.704C203.525 237.152 203.135 237.504 202.634 237.76C202.143 238.005 201.599 238.128 201.002 238.128C200.319 238.128 199.706 237.989 199.162 237.712C198.618 237.424 198.186 236.997 197.866 236.432C197.557 235.867 197.402 235.179 197.402 234.368V229.232H198.842V234.176C198.842 235.04 199.061 235.707 199.498 236.176C199.935 236.635 200.533 236.864 201.29 236.864C202.069 236.864 202.682 236.624 203.13 236.144C203.578 235.664 203.802 234.965 203.802 234.048V229.232H205.258ZM209.172 230.656C209.428 230.155 209.791 229.765 210.26 229.488C210.74 229.211 211.322 229.072 212.004 229.072V230.576H211.62C209.988 230.576 209.172 231.461 209.172 233.232V238H207.716V229.232H209.172V230.656ZM217.407 233.6C217.407 232.693 217.588 231.904 217.951 231.232C218.313 230.549 218.815 230.021 219.455 229.648C220.105 229.275 220.847 229.088 221.679 229.088C222.756 229.088 223.641 229.349 224.335 229.872C225.039 230.395 225.503 231.12 225.727 232.048H224.159C224.009 231.515 223.716 231.093 223.279 230.784C222.852 230.475 222.319 230.32 221.679 230.32C220.847 230.32 220.175 230.608 219.663 231.184C219.151 231.749 218.895 232.555 218.895 233.6C218.895 234.656 219.151 235.472 219.663 236.048C220.175 236.624 220.847 236.912 221.679 236.912C222.319 236.912 222.852 236.763 223.279 236.464C223.705 236.165 223.999 235.739 224.159 235.184H225.727C225.492 236.08 225.023 236.8 224.319 237.344C223.615 237.877 222.735 238.144 221.679 238.144C220.847 238.144 220.105 237.957 219.455 237.584C218.815 237.211 218.313 236.683 217.951 236C217.588 235.317 217.407 234.517 217.407 233.6ZM231.494 238.144C230.672 238.144 229.926 237.957 229.254 237.584C228.592 237.211 228.07 236.683 227.686 236C227.312 235.307 227.126 234.507 227.126 233.6C227.126 232.704 227.318 231.915 227.702 231.232C228.096 230.539 228.63 230.011 229.302 229.648C229.974 229.275 230.726 229.088 231.558 229.088C232.39 229.088 233.142 229.275 233.814 229.648C234.486 230.011 235.014 230.533 235.398 231.216C235.792 231.899 235.99 232.693 235.99 233.6C235.99 234.507 235.787 235.307 235.382 236C234.987 236.683 234.448 237.211 233.766 237.584C233.083 237.957 232.326 238.144 231.494 238.144ZM231.494 236.864C232.016 236.864 232.507 236.741 232.966 236.496C233.424 236.251 233.792 235.883 234.07 235.392C234.358 234.901 234.502 234.304 234.502 233.6C234.502 232.896 234.363 232.299 234.086 231.808C233.808 231.317 233.446 230.955 232.998 230.72C232.55 230.475 232.064 230.352 231.542 230.352C231.008 230.352 230.518 230.475 230.07 230.72C229.632 230.955 229.28 231.317 229.014 231.808C228.747 232.299 228.614 232.896 228.614 233.6C228.614 234.315 228.742 234.917 228.998 235.408C229.264 235.899 229.616 236.267 230.054 236.512C230.491 236.747 230.971 236.864 231.494 236.864ZM238.656 227.808C238.379 227.808 238.144 227.712 237.952 227.52C237.76 227.328 237.664 227.093 237.664 226.816C237.664 226.539 237.76 226.304 237.952 226.112C238.144 225.92 238.379 225.824 238.656 225.824C238.923 225.824 239.147 225.92 239.328 226.112C239.52 226.304 239.616 226.539 239.616 226.816C239.616 227.093 239.52 227.328 239.328 227.52C239.147 227.712 238.923 227.808 238.656 227.808ZM239.36 229.232V238H237.904V229.232H239.36ZM246.113 229.072C247.18 229.072 248.044 229.397 248.705 230.048C249.367 230.688 249.697 231.616 249.697 232.832V238H248.257V233.04C248.257 232.165 248.039 231.499 247.601 231.04C247.164 230.571 246.567 230.336 245.809 230.336C245.041 230.336 244.428 230.576 243.969 231.056C243.521 231.536 243.297 232.235 243.297 233.152V238H241.841V229.232H243.297V230.48C243.585 230.032 243.975 229.685 244.465 229.44C244.967 229.195 245.516 229.072 246.113 229.072ZM255.18 238.144C254.508 238.144 253.905 238.032 253.372 237.808C252.838 237.573 252.417 237.253 252.108 236.848C251.798 236.432 251.628 235.957 251.596 235.424H253.1C253.142 235.861 253.345 236.219 253.708 236.496C254.081 236.773 254.566 236.912 255.164 236.912C255.718 236.912 256.156 236.789 256.476 236.544C256.796 236.299 256.956 235.989 256.956 235.616C256.956 235.232 256.785 234.949 256.444 234.768C256.102 234.576 255.574 234.389 254.86 234.208C254.209 234.037 253.676 233.867 253.26 233.696C252.854 233.515 252.502 233.253 252.204 232.912C251.916 232.56 251.772 232.101 251.772 231.536C251.772 231.088 251.905 230.677 252.172 230.304C252.438 229.931 252.817 229.637 253.308 229.424C253.798 229.2 254.358 229.088 254.988 229.088C255.958 229.088 256.742 229.333 257.34 229.824C257.937 230.315 258.257 230.987 258.3 231.84H256.844C256.812 231.381 256.625 231.013 256.284 230.736C255.953 230.459 255.505 230.32 254.94 230.32C254.417 230.32 254.001 230.432 253.692 230.656C253.382 230.88 253.228 231.173 253.228 231.536C253.228 231.824 253.318 232.064 253.5 232.256C253.692 232.437 253.926 232.587 254.204 232.704C254.492 232.811 254.886 232.933 255.388 233.072C256.017 233.243 256.529 233.413 256.924 233.584C257.318 233.744 257.654 233.989 257.932 234.32C258.22 234.651 258.369 235.083 258.38 235.616C258.38 236.096 258.246 236.528 257.98 236.912C257.713 237.296 257.334 237.6 256.844 237.824C256.364 238.037 255.809 238.144 255.18 238.144ZM260.899 238.096C260.622 238.096 260.387 238 260.195 237.808C260.003 237.616 259.907 237.381 259.907 237.104C259.907 236.827 260.003 236.592 260.195 236.4C260.387 236.208 260.622 236.112 260.899 236.112C261.166 236.112 261.39 236.208 261.571 236.4C261.763 236.592 261.859 236.827 261.859 237.104C261.859 237.381 261.763 237.616 261.571 237.808C261.39 238 261.166 238.096 260.899 238.096Z" fill="#B0F1EA"/>
<path d="M123.834 109.152L118.002 120.432V126H113.898V120.432L108.066 109.152H112.722L115.986 116.208L119.226 109.152H123.834ZM133.456 126.168C131.872 126.168 130.416 125.8 129.088 125.064C127.776 124.328 126.728 123.304 125.944 121.992C125.176 120.664 124.792 119.176 124.792 117.528C124.792 115.88 125.176 114.4 125.944 113.088C126.728 111.776 127.776 110.752 129.088 110.016C130.416 109.28 131.872 108.912 133.456 108.912C135.04 108.912 136.488 109.28 137.8 110.016C139.128 110.752 140.168 111.776 140.92 113.088C141.688 114.4 142.072 115.88 142.072 117.528C142.072 119.176 141.688 120.664 140.92 121.992C140.152 123.304 139.112 124.328 137.8 125.064C136.488 125.8 135.04 126.168 133.456 126.168ZM133.456 122.424C134.8 122.424 135.872 121.976 136.672 121.08C137.488 120.184 137.896 119 137.896 117.528C137.896 116.04 137.488 114.856 136.672 113.976C135.872 113.08 134.8 112.632 133.456 112.632C132.096 112.632 131.008 113.072 130.192 113.952C129.392 114.832 128.992 116.024 128.992 117.528C128.992 119.016 129.392 120.208 130.192 121.104C131.008 121.984 132.096 122.424 133.456 122.424ZM148.387 109.152V119.232C148.387 120.24 148.635 121.016 149.131 121.56C149.627 122.104 150.355 122.376 151.315 122.376C152.275 122.376 153.011 122.104 153.523 121.56C154.035 121.016 154.291 120.24 154.291 119.232V109.152H158.395V119.208C158.395 120.712 158.075 121.984 157.435 123.024C156.795 124.064 155.931 124.848 154.843 125.376C153.771 125.904 152.571 126.168 151.243 126.168C149.915 126.168 148.723 125.912 147.667 125.4C146.627 124.872 145.803 124.088 145.195 123.048C144.587 121.992 144.283 120.712 144.283 119.208V109.152H148.387ZM162.213 109.152H166.413L163.725 115.584H160.965L162.213 109.152ZM184.64 109.152L178.664 126H173.528L167.552 109.152H171.92L176.096 121.872L180.296 109.152H184.64ZM190.459 112.44V115.848H195.955V119.016H190.459V122.712H196.675V126H186.355V109.152H196.675V112.44H190.459ZM203.729 117.552C203.729 115.888 204.09 114.408 204.81 113.112C205.53 111.8 206.53 110.784 207.81 110.064C209.106 109.328 210.57 108.96 212.202 108.96C214.202 108.96 215.914 109.488 217.338 110.544C218.762 111.6 219.714 113.04 220.194 114.864H215.682C215.346 114.16 214.866 113.624 214.242 113.256C213.634 112.888 212.938 112.704 212.154 112.704C210.89 112.704 209.866 113.144 209.082 114.024C208.298 114.904 207.906 116.08 207.906 117.552C207.906 119.024 208.298 120.2 209.082 121.08C209.866 121.96 210.89 122.4 212.154 122.4C212.938 122.4 213.634 122.216 214.242 121.848C214.866 121.48 215.346 120.944 215.682 120.24H220.194C219.714 122.064 218.762 123.504 217.338 124.56C215.914 125.6 214.202 126.12 212.202 126.12C210.57 126.12 209.106 125.76 207.81 125.04C206.53 124.304 205.53 123.288 204.81 121.992C204.09 120.696 203.729 119.216 203.729 117.552ZM230.675 126.168C229.091 126.168 227.635 125.8 226.307 125.064C224.995 124.328 223.947 123.304 223.163 121.992C222.395 120.664 222.011 119.176 222.011 117.528C222.011 115.88 222.395 114.4 223.163 113.088C223.947 111.776 224.995 110.752 226.307 110.016C227.635 109.28 229.091 108.912 230.675 108.912C232.259 108.912 233.707 109.28 235.019 110.016C236.347 110.752 237.387 111.776 238.139 113.088C238.907 114.4 239.291 115.88 239.291 117.528C239.291 119.176 238.907 120.664 238.139 121.992C237.371 123.304 236.331 124.328 235.019 125.064C233.707 125.8 232.259 126.168 230.675 126.168ZM230.675 122.424C232.019 122.424 233.091 121.976 233.891 121.08C234.707 120.184 235.115 119 235.115 117.528C235.115 116.04 234.707 114.856 233.891 113.976C233.091 113.08 232.019 112.632 230.675 112.632C229.315 112.632 228.227 113.072 227.411 113.952C226.611 114.832 226.211 116.024 226.211 117.528C226.211 119.016 226.611 120.208 227.411 121.104C228.227 121.984 229.315 122.424 230.675 122.424ZM260.654 109.152V126H256.55V115.896L252.782 126H249.47L245.678 115.872V126H241.574V109.152H246.422L251.15 120.816L255.83 109.152H260.654ZM267.709 112.44V115.848H273.205V119.016H267.709V122.712H273.925V126H263.605V109.152H273.925V112.44H267.709ZM151.787 153.168C150.555 153.168 149.451 152.968 148.475 152.568C147.499 152.168 146.715 151.576 146.123 150.792C145.547 150.008 145.243 149.064 145.211 147.96H149.579C149.643 148.584 149.859 149.064 150.227 149.4C150.595 149.72 151.075 149.88 151.667 149.88C152.275 149.88 152.755 149.744 153.107 149.472C153.459 149.184 153.635 148.792 153.635 148.296C153.635 147.88 153.491 147.536 153.203 147.264C152.931 146.992 152.587 146.768 152.171 146.592C151.771 146.416 151.195 146.216 150.443 145.992C149.355 145.656 148.467 145.32 147.779 144.984C147.091 144.648 146.499 144.152 146.003 143.496C145.507 142.84 145.259 141.984 145.259 140.928C145.259 139.36 145.827 138.136 146.963 137.256C148.099 136.36 149.579 135.912 151.403 135.912C153.259 135.912 154.755 136.36 155.891 137.256C157.027 138.136 157.635 139.368 157.715 140.952H153.275C153.243 140.408 153.043 139.984 152.675 139.68C152.307 139.36 151.835 139.2 151.259 139.2C150.763 139.2 150.363 139.336 150.059 139.608C149.755 139.864 149.603 140.24 149.603 140.736C149.603 141.28 149.859 141.704 150.371 142.008C150.883 142.312 151.683 142.64 152.771 142.992C153.859 143.36 154.739 143.712 155.411 144.048C156.099 144.384 156.691 144.872 157.187 145.512C157.683 146.152 157.931 146.976 157.931 147.984C157.931 148.944 157.683 149.816 157.187 150.6C156.707 151.384 156.003 152.008 155.075 152.472C154.147 152.936 153.051 153.168 151.787 153.168ZM168.425 153.168C166.841 153.168 165.385 152.8 164.057 152.064C162.745 151.328 161.697 150.304 160.913 148.992C160.145 147.664 159.761 146.176 159.761 144.528C159.761 142.88 160.145 141.4 160.913 140.088C161.697 138.776 162.745 137.752 164.057 137.016C165.385 136.28 166.841 135.912 168.425 135.912C170.009 135.912 171.457 136.28 172.769 137.016C174.097 137.752 175.137 138.776 175.889 140.088C176.657 141.4 177.041 142.88 177.041 144.528C177.041 146.176 176.657 147.664 175.889 148.992C175.121 150.304 174.081 151.328 172.769 152.064C171.457 152.8 170.009 153.168 168.425 153.168ZM168.425 149.424C169.769 149.424 170.841 148.976 171.641 148.08C172.457 147.184 172.865 146 172.865 144.528C172.865 143.04 172.457 141.856 171.641 140.976C170.841 140.08 169.769 139.632 168.425 139.632C167.065 139.632 165.977 140.072 165.161 140.952C164.361 141.832 163.961 143.024 163.961 144.528C163.961 146.016 164.361 147.208 165.161 148.104C165.977 148.984 167.065 149.424 168.425 149.424ZM195.378 136.152V139.44H188.514V142.992H193.65V146.184H188.514V153H184.41V136.152H195.378ZM208.023 150.024H201.735L200.727 153H196.431L202.527 136.152H207.279L213.375 153H209.031L208.023 150.024ZM206.967 146.856L204.879 140.688L202.815 146.856H206.967ZM223.822 153L220.318 146.64H219.334V153H215.23V136.152H222.118C223.446 136.152 224.574 136.384 225.502 136.848C226.446 137.312 227.15 137.952 227.614 138.768C228.078 139.568 228.31 140.464 228.31 141.456C228.31 142.576 227.99 143.576 227.35 144.456C226.726 145.336 225.798 145.96 224.566 146.328L228.454 153H223.822ZM219.334 143.736H221.878C222.63 143.736 223.19 143.552 223.558 143.184C223.942 142.816 224.134 142.296 224.134 141.624C224.134 140.984 223.942 140.48 223.558 140.112C223.19 139.744 222.63 139.56 221.878 139.56H219.334V143.736ZM236.286 135.552L235.806 147.048H232.326L231.846 135.552H236.286ZM234.126 153.192C233.406 153.192 232.814 152.984 232.35 152.568C231.902 152.136 231.678 151.608 231.678 150.984C231.678 150.344 231.902 149.808 232.35 149.376C232.814 148.944 233.406 148.728 234.126 148.728C234.83 148.728 235.406 148.944 235.854 149.376C236.318 149.808 236.55 150.344 236.55 150.984C236.55 151.608 236.318 152.136 235.854 152.568C235.406 152.984 234.83 153.192 234.126 153.192Z" fill="#B0F1EA"/>
</svg>
