<svg width="31" height="27" viewBox="0 0 31 27" fill="none" xmlns="http://www.w3.org/2000/svg">
<path d="M9.10295 8.96249L10.4081 0.299988H3.62L0.783651 7.72499C0.696201 7.98899 0.650002 8.26289 0.650002 8.54999C0.650002 10.3716 2.5475 11.85 4.89215 11.85C7.05365 11.85 8.8406 10.5894 9.10295 8.96249ZM15.5 11.85C17.843 11.85 19.7422 10.3716 19.7422 8.54999C19.7422 8.48234 19.7372 8.41469 19.7339 8.35034L18.8941 0.299988H12.106L11.2645 8.34374C11.2612 8.41139 11.2579 8.47904 11.2579 8.54999C11.2579 10.3716 13.157 11.85 15.5 11.85ZM23.75 13.5759V20.1H7.25V13.5858C6.5273 13.8465 5.732 13.995 4.89215 13.995C4.5704 13.995 4.25855 13.957 3.95 13.9141V24.39C3.95 25.6605 4.98785 26.7 6.2567 26.7H24.74C26.0105 26.7 27.05 25.6588 27.05 24.39V13.9158C26.7381 13.9637 26.4234 13.9907 26.1079 13.9966C25.3033 13.9958 24.5052 13.8534 23.75 13.5759ZM30.218 7.72499L27.3784 0.299988H20.5919L21.8954 8.94929C22.1495 10.5828 23.9365 11.85 26.1079 11.85C28.4509 11.85 30.35 10.3716 30.35 8.54999C30.35 8.26289 30.3038 7.98899 30.218 7.72499Z" fill="#AEEEE7"/>
</svg>
