<svg width="27" height="27" viewBox="0 0 27 27" fill="none" xmlns="http://www.w3.org/2000/svg">
<g clip-path="url(#clip0)">
<path d="M15.8219 21.8219C19.3489 20.2749 21.8209 16.9129 21.8209 12.8219C21.8209 8.7309 19.3489 5.3689 15.8219 3.8219V5.8219C18.2089 7.2079 19.8209 9.8689 19.8209 12.8219C19.8209 15.7749 18.2089 18.4359 15.8219 19.8219V21.8219Z" fill="#ADEDE6"/>
<path d="M15.8219 7.82189V17.8219C17.0469 16.7219 17.8219 14.5929 17.8219 12.8219C17.8219 11.0509 17.0469 8.92189 15.8219 7.82189ZM3.8219 17.8219H6.5189L13.8219 22.6899V2.95389L6.5189 7.82189H3.8219C2.7189 7.82189 1.8219 8.71889 1.8219 9.82189V15.8219C1.8219 16.9249 2.7189 17.8219 3.8219 17.8219Z" fill="#ADEDE6"/>
</g>
<defs>
<clipPath id="clip0">
<rect width="26.3014" height="26.3014" fill="white"/>
</clipPath>
</defs>
</svg>
