<svg width="85" height="85" viewBox="0 0 85 85" fill="none" xmlns="http://www.w3.org/2000/svg">
<path d="M42.5 5.3125C43.2045 5.3125 43.8801 5.59235 44.3783 6.0905C44.8764 6.58864 45.1562 7.26427 45.1562 7.96875V13.2812C45.1562 13.9857 44.8764 14.6614 44.3783 15.1595C43.8801 15.6576 43.2045 15.9375 42.5 15.9375C41.7955 15.9375 41.1199 15.6576 40.6217 15.1595C40.1236 14.6614 39.8438 13.9857 39.8438 13.2812V7.96875C39.8438 7.26427 40.1236 6.58864 40.6217 6.0905C41.1199 5.59235 41.7955 5.3125 42.5 5.3125ZM69.6123 19.1436C69.866 18.8986 70.0684 18.6055 70.2076 18.2814C70.3468 17.9573 70.4201 17.6088 70.4232 17.2561C70.4262 16.9034 70.359 16.5536 70.2255 16.2272C70.0919 15.9007 69.8947 15.6041 69.6453 15.3547C69.3959 15.1053 69.0993 14.9081 68.7728 14.7745C68.4464 14.641 68.0966 14.5738 67.7439 14.5768C67.3912 14.5799 67.0427 14.6532 66.7186 14.7924C66.3945 14.9316 66.1014 15.134 65.8564 15.3877L61.872 19.372C61.3882 19.873 61.1204 20.544 61.1265 21.2404C61.1325 21.9369 61.4119 22.6031 61.9044 23.0956C62.3969 23.5881 63.0631 23.8675 63.7596 23.8735C64.456 23.8796 65.127 23.6118 65.628 23.128L69.6123 19.1436ZM15.3877 15.3877C15.8858 14.8897 16.5613 14.6099 17.2656 14.6099C17.97 14.6099 18.6455 14.8897 19.1436 15.3877L23.128 19.372C23.6118 19.873 23.8796 20.544 23.8735 21.2404C23.8675 21.9369 23.5881 22.6031 23.0956 23.0956C22.6031 23.5881 21.9369 23.8675 21.2404 23.8735C20.544 23.8796 19.873 23.6118 19.372 23.128L15.3877 19.1436C14.8897 18.6455 14.6099 17.97 14.6099 17.2656C14.6099 16.5613 14.8897 15.8858 15.3877 15.3877ZM42.5 23.9062C37.5686 23.9062 32.8392 25.8652 29.3522 29.3522C25.8652 32.8392 23.9062 37.5686 23.9062 42.5C23.9062 47.4314 25.8652 52.1608 29.3522 55.6478C32.8392 59.1348 37.5686 61.0938 42.5 61.0938C47.4314 61.0938 52.1608 59.1348 55.6478 55.6478C59.1348 52.1608 61.0938 47.4314 61.0938 42.5C61.0938 37.5686 59.1348 32.8392 55.6478 29.3522C52.1608 25.8652 47.4314 23.9062 42.5 23.9062ZM69.0625 42.5558C69.0625 41.8513 69.3424 41.1757 69.8405 40.6775C70.3386 40.1794 71.0143 39.8995 71.7188 39.8995H77.0312C77.7357 39.8995 78.4114 40.1794 78.9095 40.6775C79.4076 41.1757 79.6875 41.8513 79.6875 42.5558C79.6875 43.2603 79.4076 43.9359 78.9095 44.434C78.4114 44.9322 77.7357 45.212 77.0312 45.212H71.7188C71.0143 45.212 70.3386 44.9322 69.8405 44.434C69.3424 43.9359 69.0625 43.2603 69.0625 42.5558ZM7.96875 39.8438C7.26427 39.8438 6.58864 40.1236 6.0905 40.6217C5.59235 41.1199 5.3125 41.7955 5.3125 42.5C5.3125 43.2045 5.59235 43.8801 6.0905 44.3783C6.58864 44.8764 7.26427 45.1562 7.96875 45.1562H13.2812C13.9857 45.1562 14.6614 44.8764 15.1595 44.3783C15.6576 43.8801 15.9375 43.2045 15.9375 42.5C15.9375 41.7955 15.6576 41.1199 15.1595 40.6217C14.6614 40.1236 13.9857 39.8438 13.2812 39.8438H7.96875ZM61.872 61.872C62.3702 61.3741 63.0457 61.0943 63.75 61.0943C64.4543 61.0943 65.1298 61.3741 65.628 61.872L69.6123 65.8564C69.866 66.1014 70.0684 66.3945 70.2076 66.7186C70.3468 67.0427 70.4201 67.3912 70.4232 67.7439C70.4262 68.0966 70.359 68.4464 70.2255 68.7728C70.0919 69.0993 69.8947 69.3959 69.6453 69.6453C69.3959 69.8947 69.0993 70.0919 68.7728 70.2255C68.4464 70.359 68.0966 70.4262 67.7439 70.4232C67.3912 70.4201 67.0427 70.3468 66.7186 70.2076C66.3945 70.0684 66.1014 69.866 65.8564 69.6123L61.872 65.628C61.3741 65.1298 61.0943 64.4543 61.0943 63.75C61.0943 63.0457 61.3741 62.3702 61.872 61.872ZM23.128 65.628C23.3817 65.3829 23.584 65.0898 23.7232 64.7658C23.8624 64.4417 23.9357 64.0931 23.9388 63.7404C23.9419 63.3877 23.8746 63.038 23.7411 62.7115C23.6075 62.3851 23.4103 62.0885 23.1609 61.8391C22.9115 61.5897 22.6149 61.3925 22.2885 61.2589C21.962 61.1254 21.6123 61.0581 21.2596 61.0612C20.9069 61.0643 20.5583 61.1376 20.2342 61.2768C19.9102 61.416 19.6171 61.6183 19.372 61.872L15.3877 65.8564C15.134 66.1014 14.9316 66.3945 14.7924 66.7186C14.6532 67.0427 14.5799 67.3912 14.5768 67.7439C14.5738 68.0966 14.641 68.4464 14.7745 68.7728C14.9081 69.0993 15.1053 69.3959 15.3547 69.6453C15.6041 69.8947 15.9007 70.0919 16.2272 70.2255C16.5536 70.359 16.9034 70.4262 17.2561 70.4232C17.6088 70.4201 17.9573 70.3468 18.2814 70.2076C18.6055 70.0684 18.8986 69.866 19.1436 69.6123L23.128 65.628ZM45.1456 71.7692C45.1456 71.0647 44.8658 70.3891 44.3676 69.891C43.8695 69.3928 43.1939 69.113 42.4894 69.113C41.7849 69.113 41.1093 69.3928 40.6111 69.891C40.113 70.3891 39.8331 71.0647 39.8331 71.7692V77.0312C39.8331 77.7357 40.113 78.4114 40.6111 78.9095C41.1093 79.4076 41.7849 79.6875 42.4894 79.6875C43.1939 79.6875 43.8695 79.4076 44.3676 78.9095C44.8658 78.4114 45.1456 77.7357 45.1456 77.0312V71.7719V71.7692Z" fill="white"/>
</svg>
