<svg width="736" height="316" viewBox="0 0 736 316" fill="none" xmlns="http://www.w3.org/2000/svg">
<path d="M12.096 199.848V201.032H9.056V211H7.6V201.032H4.544V199.848H12.096ZM18.2403 202.072C18.9016 202.072 19.4989 202.216 20.0323 202.504C20.5656 202.781 20.9816 203.203 21.2803 203.768C21.5896 204.333 21.7443 205.021 21.7443 205.832V211H20.3043V206.04C20.3043 205.165 20.0856 204.499 19.6483 204.04C19.2109 203.571 18.6136 203.336 17.8563 203.336C17.0883 203.336 16.4749 203.576 16.0163 204.056C15.5683 204.536 15.3443 205.235 15.3443 206.152V211H13.8883V199.16H15.3443V203.48C15.6323 203.032 16.0269 202.685 16.5283 202.44C17.0403 202.195 17.6109 202.072 18.2403 202.072ZM32.1226 206.28C32.1226 206.557 32.1066 206.851 32.0746 207.16H25.0666C25.12 208.024 25.4133 208.701 25.9466 209.192C26.4906 209.672 27.1466 209.912 27.9146 209.912C28.544 209.912 29.0666 209.768 29.4826 209.48C29.9093 209.181 30.208 208.787 30.3786 208.296H31.9466C31.712 209.139 31.2426 209.827 30.5386 210.36C29.8346 210.883 28.96 211.144 27.9146 211.144C27.0826 211.144 26.336 210.957 25.6746 210.584C25.024 210.211 24.512 209.683 24.1386 209C23.7653 208.307 23.5786 207.507 23.5786 206.6C23.5786 205.693 23.76 204.899 24.1226 204.216C24.4853 203.533 24.992 203.011 25.6426 202.648C26.304 202.275 27.0613 202.088 27.9146 202.088C28.7466 202.088 29.4826 202.269 30.1226 202.632C30.7626 202.995 31.2533 203.496 31.5946 204.136C31.9466 204.765 32.1226 205.48 32.1226 206.28ZM30.6186 205.976C30.6186 205.421 30.496 204.947 30.2506 204.552C30.0053 204.147 29.6693 203.843 29.2426 203.64C28.8266 203.427 28.3626 203.32 27.8506 203.32C27.1146 203.32 26.4853 203.555 25.9626 204.024C25.4506 204.493 25.1573 205.144 25.0826 205.976H30.6186ZM41.9261 202.088C42.6835 202.088 43.3448 202.253 43.9101 202.584C44.4861 202.915 44.9128 203.331 45.1901 203.832V202.232H46.6621V211.192C46.6621 211.992 46.4915 212.701 46.1501 213.32C45.8088 213.949 45.3181 214.44 44.6781 214.792C44.0488 215.144 43.3128 215.32 42.4701 215.32C41.3181 215.32 40.3581 215.048 39.5901 214.504C38.8221 213.96 38.3688 213.219 38.2301 212.28H39.6701C39.8301 212.813 40.1608 213.24 40.6621 213.56C41.1635 213.891 41.7661 214.056 42.4701 214.056C43.2701 214.056 43.9208 213.805 44.4221 213.304C44.9341 212.803 45.1901 212.099 45.1901 211.192V209.352C44.9021 209.864 44.4755 210.291 43.9101 210.632C43.3448 210.973 42.6835 211.144 41.9261 211.144C41.1475 211.144 40.4381 210.952 39.7981 210.568C39.1688 210.184 38.6728 209.645 38.3101 208.952C37.9475 208.259 37.7661 207.469 37.7661 206.584C37.7661 205.688 37.9475 204.904 38.3101 204.232C38.6728 203.549 39.1688 203.021 39.7981 202.648C40.4381 202.275 41.1475 202.088 41.9261 202.088ZM45.1901 206.6C45.1901 205.939 45.0568 205.363 44.7901 204.872C44.5235 204.381 44.1608 204.008 43.7021 203.752C43.2541 203.485 42.7581 203.352 42.2141 203.352C41.6701 203.352 41.1741 203.48 40.7261 203.736C40.2781 203.992 39.9208 204.365 39.6541 204.856C39.3875 205.347 39.2541 205.923 39.2541 206.584C39.2541 207.256 39.3875 207.843 39.6541 208.344C39.9208 208.835 40.2781 209.213 40.7261 209.48C41.1741 209.736 41.6701 209.864 42.2141 209.864C42.7581 209.864 43.2541 209.736 43.7021 209.48C44.1608 209.213 44.5235 208.835 44.7901 208.344C45.0568 207.843 45.1901 207.261 45.1901 206.6ZM48.5786 206.584C48.5786 205.688 48.76 204.904 49.1226 204.232C49.4853 203.549 49.9813 203.021 50.6106 202.648C51.2506 202.275 51.96 202.088 52.7386 202.088C53.5066 202.088 54.1733 202.253 54.7386 202.584C55.304 202.915 55.7253 203.331 56.0026 203.832V202.232H57.4746V211H56.0026V209.368C55.7146 209.88 55.2826 210.307 54.7066 210.648C54.1413 210.979 53.48 211.144 52.7226 211.144C51.944 211.144 51.24 210.952 50.6106 210.568C49.9813 210.184 49.4853 209.645 49.1226 208.952C48.76 208.259 48.5786 207.469 48.5786 206.584ZM56.0026 206.6C56.0026 205.939 55.8693 205.363 55.6026 204.872C55.336 204.381 54.9733 204.008 54.5146 203.752C54.0666 203.485 53.5706 203.352 53.0266 203.352C52.4826 203.352 51.9866 203.48 51.5386 203.736C51.0906 203.992 50.7333 204.365 50.4666 204.856C50.2 205.347 50.0666 205.923 50.0666 206.584C50.0666 207.256 50.2 207.843 50.4666 208.344C50.7333 208.835 51.0906 209.213 51.5386 209.48C51.9866 209.736 52.4826 209.864 53.0266 209.864C53.5706 209.864 54.0666 209.736 54.5146 209.48C54.9733 209.213 55.336 208.835 55.6026 208.344C55.8693 207.843 56.0026 207.261 56.0026 206.6ZM70.4791 202.072C71.1618 202.072 71.7698 202.216 72.3031 202.504C72.8365 202.781 73.2578 203.203 73.5671 203.768C73.8765 204.333 74.0311 205.021 74.0311 205.832V211H72.5911V206.04C72.5911 205.165 72.3725 204.499 71.9351 204.04C71.5085 203.571 70.9271 203.336 70.1911 203.336C69.4338 203.336 68.8311 203.581 68.3831 204.072C67.9351 204.552 67.7111 205.251 67.7111 206.168V211H66.2711V206.04C66.2711 205.165 66.0525 204.499 65.6151 204.04C65.1885 203.571 64.6071 203.336 63.8711 203.336C63.1138 203.336 62.5111 203.581 62.0631 204.072C61.6151 204.552 61.3911 205.251 61.3911 206.168V211H59.9351V202.232H61.3911V203.496C61.6791 203.037 62.0631 202.685 62.5431 202.44C63.0338 202.195 63.5725 202.072 64.1591 202.072C64.8951 202.072 65.5458 202.237 66.1111 202.568C66.6765 202.899 67.0978 203.384 67.3751 204.024C67.6205 203.405 68.0258 202.925 68.5911 202.584C69.1565 202.243 69.7858 202.072 70.4791 202.072ZM84.4195 206.28C84.4195 206.557 84.4035 206.851 84.3715 207.16H77.3635C77.4168 208.024 77.7102 208.701 78.2435 209.192C78.7875 209.672 79.4435 209.912 80.2115 209.912C80.8408 209.912 81.3635 209.768 81.7795 209.48C82.2062 209.181 82.5048 208.787 82.6755 208.296H84.2435C84.0088 209.139 83.5395 209.827 82.8355 210.36C82.1315 210.883 81.2568 211.144 80.2115 211.144C79.3795 211.144 78.6328 210.957 77.9715 210.584C77.3208 210.211 76.8088 209.683 76.4355 209C76.0622 208.307 75.8755 207.507 75.8755 206.6C75.8755 205.693 76.0568 204.899 76.4195 204.216C76.7822 203.533 77.2888 203.011 77.9395 202.648C78.6008 202.275 79.3582 202.088 80.2115 202.088C81.0435 202.088 81.7795 202.269 82.4195 202.632C83.0595 202.995 83.5502 203.496 83.8915 204.136C84.2435 204.765 84.4195 205.48 84.4195 206.28ZM82.9155 205.976C82.9155 205.421 82.7928 204.947 82.5475 204.552C82.3022 204.147 81.9662 203.843 81.5395 203.64C81.1235 203.427 80.6595 203.32 80.1475 203.32C79.4115 203.32 78.7822 203.555 78.2595 204.024C77.7475 204.493 77.4542 205.144 77.3795 205.976H82.9155ZM102.287 202.232L99.551 211H98.047L95.935 204.04L93.823 211H92.319L89.567 202.232H91.055L93.071 209.592L95.247 202.232H96.735L98.863 209.608L100.847 202.232H102.287ZM108.084 202.072C108.745 202.072 109.343 202.216 109.876 202.504C110.409 202.781 110.825 203.203 111.124 203.768C111.433 204.333 111.588 205.021 111.588 205.832V211H110.148V206.04C110.148 205.165 109.929 204.499 109.492 204.04C109.055 203.571 108.457 203.336 107.7 203.336C106.932 203.336 106.319 203.576 105.86 204.056C105.412 204.536 105.188 205.235 105.188 206.152V211H103.732V199.16H105.188V203.48C105.476 203.032 105.871 202.685 106.372 202.44C106.884 202.195 107.455 202.072 108.084 202.072ZM121.966 206.28C121.966 206.557 121.95 206.851 121.918 207.16H114.91C114.964 208.024 115.257 208.701 115.79 209.192C116.334 209.672 116.99 209.912 117.758 209.912C118.388 209.912 118.91 209.768 119.326 209.48C119.753 209.181 120.052 208.787 120.222 208.296H121.79C121.556 209.139 121.086 209.827 120.382 210.36C119.678 210.883 118.804 211.144 117.758 211.144C116.926 211.144 116.18 210.957 115.518 210.584C114.868 210.211 114.356 209.683 113.982 209C113.609 208.307 113.422 207.507 113.422 206.6C113.422 205.693 113.604 204.899 113.966 204.216C114.329 203.533 114.836 203.011 115.486 202.648C116.148 202.275 116.905 202.088 117.758 202.088C118.59 202.088 119.326 202.269 119.966 202.632C120.606 202.995 121.097 203.496 121.438 204.136C121.79 204.765 121.966 205.48 121.966 206.28ZM120.462 205.976C120.462 205.421 120.34 204.947 120.094 204.552C119.849 204.147 119.513 203.843 119.086 203.64C118.67 203.427 118.206 203.32 117.694 203.32C116.958 203.32 116.329 203.555 115.806 204.024C115.294 204.493 115.001 205.144 114.926 205.976H120.462ZM125.344 203.656C125.6 203.155 125.963 202.765 126.432 202.488C126.912 202.211 127.494 202.072 128.176 202.072V203.576H127.792C126.16 203.576 125.344 204.461 125.344 206.232V211H123.888V202.232H125.344V203.656ZM137.857 206.28C137.857 206.557 137.841 206.851 137.809 207.16H130.801C130.854 208.024 131.148 208.701 131.681 209.192C132.225 209.672 132.881 209.912 133.649 209.912C134.278 209.912 134.801 209.768 135.217 209.48C135.644 209.181 135.942 208.787 136.113 208.296H137.681C137.446 209.139 136.977 209.827 136.273 210.36C135.569 210.883 134.694 211.144 133.649 211.144C132.817 211.144 132.07 210.957 131.409 210.584C130.758 210.211 130.246 209.683 129.873 209C129.5 208.307 129.313 207.507 129.313 206.6C129.313 205.693 129.494 204.899 129.857 204.216C130.22 203.533 130.726 203.011 131.377 202.648C132.038 202.275 132.796 202.088 133.649 202.088C134.481 202.088 135.217 202.269 135.857 202.632C136.497 202.995 136.988 203.496 137.329 204.136C137.681 204.765 137.857 205.48 137.857 206.28ZM136.353 205.976C136.353 205.421 136.23 204.947 135.985 204.552C135.74 204.147 135.404 203.843 134.977 203.64C134.561 203.427 134.097 203.32 133.585 203.32C132.849 203.32 132.22 203.555 131.697 204.024C131.185 204.493 130.892 205.144 130.817 205.976H136.353ZM145.821 203.432V208.6C145.821 209.027 145.911 209.331 146.093 209.512C146.274 209.683 146.589 209.768 147.036 209.768H148.109V211H146.797C145.986 211 145.378 210.813 144.973 210.44C144.567 210.067 144.365 209.453 144.365 208.6V203.432H143.229V202.232H144.365V200.024H145.821V202.232H148.109V203.432H145.821ZM154.225 202.072C154.886 202.072 155.483 202.216 156.017 202.504C156.55 202.781 156.966 203.203 157.265 203.768C157.574 204.333 157.729 205.021 157.729 205.832V211H156.289V206.04C156.289 205.165 156.07 204.499 155.633 204.04C155.195 203.571 154.598 203.336 153.841 203.336C153.073 203.336 152.459 203.576 152.001 204.056C151.553 204.536 151.329 205.235 151.329 206.152V211H149.873V199.16H151.329V203.48C151.617 203.032 152.011 202.685 152.513 202.44C153.025 202.195 153.595 202.072 154.225 202.072ZM168.107 206.28C168.107 206.557 168.091 206.851 168.059 207.16H161.051C161.104 208.024 161.398 208.701 161.931 209.192C162.475 209.672 163.131 209.912 163.899 209.912C164.528 209.912 165.051 209.768 165.467 209.48C165.894 209.181 166.192 208.787 166.363 208.296H167.931C167.696 209.139 167.227 209.827 166.523 210.36C165.819 210.883 164.944 211.144 163.899 211.144C163.067 211.144 162.32 210.957 161.659 210.584C161.008 210.211 160.496 209.683 160.123 209C159.75 208.307 159.563 207.507 159.563 206.6C159.563 205.693 159.744 204.899 160.107 204.216C160.47 203.533 160.976 203.011 161.627 202.648C162.288 202.275 163.046 202.088 163.899 202.088C164.731 202.088 165.467 202.269 166.107 202.632C166.747 202.995 167.238 203.496 167.579 204.136C167.931 204.765 168.107 205.48 168.107 206.28ZM166.603 205.976C166.603 205.421 166.48 204.947 166.235 204.552C165.99 204.147 165.654 203.843 165.227 203.64C164.811 203.427 164.347 203.32 163.835 203.32C163.099 203.32 162.47 203.555 161.947 204.024C161.435 204.493 161.142 205.144 161.067 205.976H166.603ZM182.071 202.232V211H180.615V209.704C180.337 210.152 179.948 210.504 179.447 210.76C178.956 211.005 178.412 211.128 177.815 211.128C177.132 211.128 176.519 210.989 175.975 210.712C175.431 210.424 174.999 209.997 174.679 209.432C174.369 208.867 174.215 208.179 174.215 207.368V202.232H175.655V207.176C175.655 208.04 175.873 208.707 176.311 209.176C176.748 209.635 177.345 209.864 178.103 209.864C178.881 209.864 179.495 209.624 179.943 209.144C180.391 208.664 180.615 207.965 180.615 207.048V202.232H182.071ZM188.801 202.072C189.868 202.072 190.732 202.397 191.393 203.048C192.054 203.688 192.385 204.616 192.385 205.832V211H190.945V206.04C190.945 205.165 190.726 204.499 190.289 204.04C189.852 203.571 189.254 203.336 188.497 203.336C187.729 203.336 187.116 203.576 186.657 204.056C186.209 204.536 185.985 205.235 185.985 206.152V211H184.529V202.232H185.985V203.48C186.273 203.032 186.662 202.685 187.153 202.44C187.654 202.195 188.204 202.072 188.801 202.072ZM194.219 206.6C194.219 205.693 194.401 204.904 194.763 204.232C195.126 203.549 195.627 203.021 196.267 202.648C196.918 202.275 197.659 202.088 198.491 202.088C199.569 202.088 200.454 202.349 201.147 202.872C201.851 203.395 202.315 204.12 202.539 205.048H200.971C200.822 204.515 200.529 204.093 200.091 203.784C199.665 203.475 199.131 203.32 198.491 203.32C197.659 203.32 196.987 203.608 196.475 204.184C195.963 204.749 195.707 205.555 195.707 206.6C195.707 207.656 195.963 208.472 196.475 209.048C196.987 209.624 197.659 209.912 198.491 209.912C199.131 209.912 199.665 209.763 200.091 209.464C200.518 209.165 200.811 208.739 200.971 208.184H202.539C202.305 209.08 201.835 209.8 201.131 210.344C200.427 210.877 199.547 211.144 198.491 211.144C197.659 211.144 196.918 210.957 196.267 210.584C195.627 210.211 195.126 209.683 194.763 209C194.401 208.317 194.219 207.517 194.219 206.6ZM212.482 206.28C212.482 206.557 212.466 206.851 212.434 207.16H205.426C205.479 208.024 205.773 208.701 206.306 209.192C206.85 209.672 207.506 209.912 208.274 209.912C208.903 209.912 209.426 209.768 209.842 209.48C210.269 209.181 210.567 208.787 210.738 208.296H212.306C212.071 209.139 211.602 209.827 210.898 210.36C210.194 210.883 209.319 211.144 208.274 211.144C207.442 211.144 206.695 210.957 206.034 210.584C205.383 210.211 204.871 209.683 204.498 209C204.125 208.307 203.938 207.507 203.938 206.6C203.938 205.693 204.119 204.899 204.482 204.216C204.845 203.533 205.351 203.011 206.002 202.648C206.663 202.275 207.421 202.088 208.274 202.088C209.106 202.088 209.842 202.269 210.482 202.632C211.122 202.995 211.613 203.496 211.954 204.136C212.306 204.765 212.482 205.48 212.482 206.28ZM210.978 205.976C210.978 205.421 210.855 204.947 210.61 204.552C210.365 204.147 210.029 203.843 209.602 203.64C209.186 203.427 208.722 203.32 208.21 203.32C207.474 203.32 206.845 203.555 206.322 204.024C205.81 204.493 205.517 205.144 205.442 205.976H210.978ZM215.86 203.656C216.116 203.155 216.479 202.765 216.948 202.488C217.428 202.211 218.009 202.072 218.692 202.072V203.576H218.308C216.676 203.576 215.86 204.461 215.86 206.232V211H214.404V202.232H215.86V203.656ZM222.149 203.432V208.6C222.149 209.027 222.239 209.331 222.421 209.512C222.602 209.683 222.917 209.768 223.365 209.768H224.437V211H223.125C222.314 211 221.706 210.813 221.301 210.44C220.895 210.067 220.693 209.453 220.693 208.6V203.432H219.557V202.232H220.693V200.024H222.149V202.232H224.437V203.432H222.149ZM225.657 206.584C225.657 205.688 225.838 204.904 226.201 204.232C226.563 203.549 227.059 203.021 227.689 202.648C228.329 202.275 229.038 202.088 229.817 202.088C230.585 202.088 231.251 202.253 231.817 202.584C232.382 202.915 232.803 203.331 233.081 203.832V202.232H234.553V211H233.081V209.368C232.793 209.88 232.361 210.307 231.785 210.648C231.219 210.979 230.558 211.144 229.801 211.144C229.022 211.144 228.318 210.952 227.689 210.568C227.059 210.184 226.563 209.645 226.201 208.952C225.838 208.259 225.657 207.469 225.657 206.584ZM233.081 206.6C233.081 205.939 232.947 205.363 232.681 204.872C232.414 204.381 232.051 204.008 231.593 203.752C231.145 203.485 230.649 203.352 230.105 203.352C229.561 203.352 229.065 203.48 228.617 203.736C228.169 203.992 227.811 204.365 227.545 204.856C227.278 205.347 227.145 205.923 227.145 206.584C227.145 207.256 227.278 207.843 227.545 208.344C227.811 208.835 228.169 209.213 228.617 209.48C229.065 209.736 229.561 209.864 230.105 209.864C230.649 209.864 231.145 209.736 231.593 209.48C232.051 209.213 232.414 208.835 232.681 208.344C232.947 207.843 233.081 207.261 233.081 206.6ZM237.765 200.808C237.488 200.808 237.253 200.712 237.061 200.52C236.869 200.328 236.773 200.093 236.773 199.816C236.773 199.539 236.869 199.304 237.061 199.112C237.253 198.92 237.488 198.824 237.765 198.824C238.032 198.824 238.256 198.92 238.437 199.112C238.629 199.304 238.725 199.539 238.725 199.816C238.725 200.093 238.629 200.328 238.437 200.52C238.256 200.712 238.032 200.808 237.765 200.808ZM238.469 202.232V211H237.013V202.232H238.469ZM245.223 202.072C246.289 202.072 247.153 202.397 247.815 203.048C248.476 203.688 248.807 204.616 248.807 205.832V211H247.367V206.04C247.367 205.165 247.148 204.499 246.711 204.04C246.273 203.571 245.676 203.336 244.919 203.336C244.151 203.336 243.537 203.576 243.079 204.056C242.631 204.536 242.407 205.235 242.407 206.152V211H240.951V202.232H242.407V203.48C242.695 203.032 243.084 202.685 243.575 202.44C244.076 202.195 244.625 202.072 245.223 202.072ZM252.961 203.432V208.6C252.961 209.027 253.052 209.331 253.233 209.512C253.414 209.683 253.729 209.768 254.177 209.768H255.249V211H253.937C253.126 211 252.518 210.813 252.113 210.44C251.708 210.067 251.505 209.453 251.505 208.6V203.432H250.369V202.232H251.505V200.024H252.961V202.232H255.249V203.432H252.961ZM264.565 202.232L259.285 215.128H257.781L259.509 210.904L255.973 202.232H257.589L260.341 209.336L263.061 202.232H264.565ZM274.119 211.144C273.297 211.144 272.551 210.957 271.879 210.584C271.217 210.211 270.695 209.683 270.311 209C269.937 208.307 269.751 207.507 269.751 206.6C269.751 205.704 269.943 204.915 270.327 204.232C270.721 203.539 271.255 203.011 271.927 202.648C272.599 202.275 273.351 202.088 274.183 202.088C275.015 202.088 275.767 202.275 276.439 202.648C277.111 203.011 277.639 203.533 278.023 204.216C278.417 204.899 278.615 205.693 278.615 206.6C278.615 207.507 278.412 208.307 278.007 209C277.612 209.683 277.073 210.211 276.391 210.584C275.708 210.957 274.951 211.144 274.119 211.144ZM274.119 209.864C274.641 209.864 275.132 209.741 275.591 209.496C276.049 209.251 276.417 208.883 276.695 208.392C276.983 207.901 277.127 207.304 277.127 206.6C277.127 205.896 276.988 205.299 276.711 204.808C276.433 204.317 276.071 203.955 275.623 203.72C275.175 203.475 274.689 203.352 274.167 203.352C273.633 203.352 273.143 203.475 272.695 203.72C272.257 203.955 271.905 204.317 271.639 204.808C271.372 205.299 271.239 205.896 271.239 206.6C271.239 207.315 271.367 207.917 271.623 208.408C271.889 208.899 272.241 209.267 272.679 209.512C273.116 209.747 273.596 209.864 274.119 209.864ZM284.097 203.432H282.257V211H280.801V203.432H279.665V202.232H280.801V201.608C280.801 200.627 281.052 199.912 281.553 199.464C282.065 199.005 282.881 198.776 284.001 198.776V199.992C283.361 199.992 282.908 200.12 282.641 200.376C282.385 200.621 282.257 201.032 282.257 201.608V202.232H284.097V203.432ZM293.164 211.144C292.492 211.144 291.889 211.032 291.356 210.808C290.823 210.573 290.401 210.253 290.092 209.848C289.783 209.432 289.612 208.957 289.58 208.424H291.084C291.127 208.861 291.329 209.219 291.692 209.496C292.065 209.773 292.551 209.912 293.148 209.912C293.703 209.912 294.14 209.789 294.46 209.544C294.78 209.299 294.94 208.989 294.94 208.616C294.94 208.232 294.769 207.949 294.428 207.768C294.087 207.576 293.559 207.389 292.844 207.208C292.193 207.037 291.66 206.867 291.244 206.696C290.839 206.515 290.487 206.253 290.188 205.912C289.9 205.56 289.756 205.101 289.756 204.536C289.756 204.088 289.889 203.677 290.156 203.304C290.423 202.931 290.801 202.637 291.292 202.424C291.783 202.2 292.343 202.088 292.972 202.088C293.943 202.088 294.727 202.333 295.324 202.824C295.921 203.315 296.241 203.987 296.284 204.84H294.828C294.796 204.381 294.609 204.013 294.268 203.736C293.937 203.459 293.489 203.32 292.924 203.32C292.401 203.32 291.985 203.432 291.676 203.656C291.367 203.88 291.212 204.173 291.212 204.536C291.212 204.824 291.303 205.064 291.484 205.256C291.676 205.437 291.911 205.587 292.188 205.704C292.476 205.811 292.871 205.933 293.372 206.072C294.001 206.243 294.513 206.413 294.908 206.584C295.303 206.744 295.639 206.989 295.916 207.32C296.204 207.651 296.353 208.083 296.364 208.616C296.364 209.096 296.231 209.528 295.964 209.912C295.697 210.296 295.319 210.6 294.828 210.824C294.348 211.037 293.793 211.144 293.164 211.144ZM300.196 203.432V208.6C300.196 209.027 300.286 209.331 300.468 209.512C300.649 209.683 300.964 209.768 301.411 209.768H302.484V211H301.172C300.361 211 299.753 210.813 299.348 210.44C298.942 210.067 298.74 209.453 298.74 208.6V203.432H297.604V202.232H298.74V200.024H300.196V202.232H302.484V203.432H300.196ZM308.072 211.144C307.25 211.144 306.504 210.957 305.832 210.584C305.17 210.211 304.648 209.683 304.264 209C303.89 208.307 303.704 207.507 303.704 206.6C303.704 205.704 303.896 204.915 304.28 204.232C304.674 203.539 305.208 203.011 305.88 202.648C306.552 202.275 307.304 202.088 308.136 202.088C308.968 202.088 309.72 202.275 310.392 202.648C311.064 203.011 311.592 203.533 311.976 204.216C312.37 204.899 312.568 205.693 312.568 206.6C312.568 207.507 312.365 208.307 311.96 209C311.565 209.683 311.026 210.211 310.344 210.584C309.661 210.957 308.904 211.144 308.072 211.144ZM308.072 209.864C308.594 209.864 309.085 209.741 309.544 209.496C310.002 209.251 310.37 208.883 310.648 208.392C310.936 207.901 311.08 207.304 311.08 206.6C311.08 205.896 310.941 205.299 310.664 204.808C310.386 204.317 310.024 203.955 309.576 203.72C309.128 203.475 308.642 203.352 308.12 203.352C307.586 203.352 307.096 203.475 306.648 203.72C306.21 203.955 305.858 204.317 305.592 204.808C305.325 205.299 305.192 205.896 305.192 206.6C305.192 207.315 305.32 207.917 305.576 208.408C305.842 208.899 306.194 209.267 306.632 209.512C307.069 209.747 307.549 209.864 308.072 209.864ZM313.938 206.6C313.938 205.693 314.119 204.904 314.482 204.232C314.845 203.549 315.346 203.021 315.986 202.648C316.637 202.275 317.378 202.088 318.21 202.088C319.287 202.088 320.173 202.349 320.866 202.872C321.57 203.395 322.034 204.12 322.258 205.048H320.69C320.541 204.515 320.247 204.093 319.81 203.784C319.383 203.475 318.85 203.32 318.21 203.32C317.378 203.32 316.706 203.608 316.194 204.184C315.682 204.749 315.426 205.555 315.426 206.6C315.426 207.656 315.682 208.472 316.194 209.048C316.706 209.624 317.378 209.912 318.21 209.912C318.85 209.912 319.383 209.763 319.81 209.464C320.237 209.165 320.53 208.739 320.69 208.184H322.258C322.023 209.08 321.554 209.8 320.85 210.344C320.146 210.877 319.266 211.144 318.21 211.144C317.378 211.144 316.637 210.957 315.986 210.584C315.346 210.211 314.845 209.683 314.482 209C314.119 208.317 313.938 207.517 313.938 206.6ZM329.097 211L325.657 207.128V211H324.201V199.16H325.657V206.12L329.033 202.232H331.065L326.937 206.6L331.081 211H329.097ZM335.539 211.144C334.867 211.144 334.264 211.032 333.731 210.808C333.198 210.573 332.776 210.253 332.467 209.848C332.158 209.432 331.987 208.957 331.955 208.424H333.459C333.502 208.861 333.704 209.219 334.067 209.496C334.44 209.773 334.926 209.912 335.523 209.912C336.078 209.912 336.515 209.789 336.835 209.544C337.155 209.299 337.315 208.989 337.315 208.616C337.315 208.232 337.144 207.949 336.803 207.768C336.462 207.576 335.934 207.389 335.219 207.208C334.568 207.037 334.035 206.867 333.619 206.696C333.214 206.515 332.862 206.253 332.563 205.912C332.275 205.56 332.131 205.101 332.131 204.536C332.131 204.088 332.264 203.677 332.531 203.304C332.798 202.931 333.176 202.637 333.667 202.424C334.158 202.2 334.718 202.088 335.347 202.088C336.318 202.088 337.102 202.333 337.699 202.824C338.296 203.315 338.616 203.987 338.659 204.84H337.203C337.171 204.381 336.984 204.013 336.643 203.736C336.312 203.459 335.864 203.32 335.299 203.32C334.776 203.32 334.36 203.432 334.051 203.656C333.742 203.88 333.587 204.173 333.587 204.536C333.587 204.824 333.678 205.064 333.859 205.256C334.051 205.437 334.286 205.587 334.563 205.704C334.851 205.811 335.246 205.933 335.747 206.072C336.376 206.243 336.888 206.413 337.283 206.584C337.678 206.744 338.014 206.989 338.291 207.32C338.579 207.651 338.728 208.083 338.739 208.616C338.739 209.096 338.606 209.528 338.339 209.912C338.072 210.296 337.694 210.6 337.203 210.824C336.723 211.037 336.168 211.144 335.539 211.144ZM345.812 200.808C345.535 200.808 345.3 200.712 345.108 200.52C344.916 200.328 344.82 200.093 344.82 199.816C344.82 199.539 344.916 199.304 345.108 199.112C345.3 198.92 345.535 198.824 345.812 198.824C346.079 198.824 346.303 198.92 346.484 199.112C346.676 199.304 346.772 199.539 346.772 199.816C346.772 200.093 346.676 200.328 346.484 200.52C346.303 200.712 346.079 200.808 345.812 200.808ZM346.516 202.232V211H345.06V202.232H346.516ZM352.102 211.144C351.43 211.144 350.827 211.032 350.294 210.808C349.76 210.573 349.339 210.253 349.03 209.848C348.72 209.432 348.55 208.957 348.518 208.424H350.022C350.064 208.861 350.267 209.219 350.63 209.496C351.003 209.773 351.488 209.912 352.086 209.912C352.64 209.912 353.078 209.789 353.398 209.544C353.718 209.299 353.878 208.989 353.878 208.616C353.878 208.232 353.707 207.949 353.366 207.768C353.024 207.576 352.496 207.389 351.782 207.208C351.131 207.037 350.598 206.867 350.182 206.696C349.776 206.515 349.424 206.253 349.126 205.912C348.838 205.56 348.694 205.101 348.694 204.536C348.694 204.088 348.827 203.677 349.094 203.304C349.36 202.931 349.739 202.637 350.23 202.424C350.72 202.2 351.28 202.088 351.91 202.088C352.88 202.088 353.664 202.333 354.262 202.824C354.859 203.315 355.179 203.987 355.222 204.84H353.766C353.734 204.381 353.547 204.013 353.206 203.736C352.875 203.459 352.427 203.32 351.862 203.32C351.339 203.32 350.923 203.432 350.614 203.656C350.304 203.88 350.15 204.173 350.15 204.536C350.15 204.824 350.24 205.064 350.422 205.256C350.614 205.437 350.848 205.587 351.126 205.704C351.414 205.811 351.808 205.933 352.31 206.072C352.939 206.243 353.451 206.413 353.846 206.584C354.24 206.744 354.576 206.989 354.854 207.32C355.142 207.651 355.291 208.083 355.302 208.616C355.302 209.096 355.168 209.528 354.902 209.912C354.635 210.296 354.256 210.6 353.766 210.824C353.286 211.037 352.731 211.144 352.102 211.144ZM6.688 222.656C6.944 222.155 7.30667 221.765 7.776 221.488C8.256 221.211 8.83733 221.072 9.52 221.072V222.576H9.136C7.504 222.576 6.688 223.461 6.688 225.232V230H5.232V221.232H6.688V222.656ZM15.0248 230.144C14.2034 230.144 13.4568 229.957 12.7848 229.584C12.1234 229.211 11.6008 228.683 11.2168 228C10.8434 227.307 10.6568 226.507 10.6568 225.6C10.6568 224.704 10.8488 223.915 11.2328 223.232C11.6274 222.539 12.1608 222.011 12.8328 221.648C13.5048 221.275 14.2568 221.088 15.0888 221.088C15.9208 221.088 16.6728 221.275 17.3448 221.648C18.0168 222.011 18.5448 222.533 18.9288 223.216C19.3234 223.899 19.5208 224.693 19.5208 225.6C19.5208 226.507 19.3181 227.307 18.9128 228C18.5181 228.683 17.9794 229.211 17.2968 229.584C16.6141 229.957 15.8568 230.144 15.0248 230.144ZM15.0248 228.864C15.5474 228.864 16.0381 228.741 16.4968 228.496C16.9554 228.251 17.3234 227.883 17.6008 227.392C17.8888 226.901 18.0328 226.304 18.0328 225.6C18.0328 224.896 17.8941 224.299 17.6168 223.808C17.3394 223.317 16.9768 222.955 16.5288 222.72C16.0808 222.475 15.5954 222.352 15.0728 222.352C14.5394 222.352 14.0488 222.475 13.6008 222.72C13.1634 222.955 12.8114 223.317 12.5448 223.808C12.2781 224.299 12.1448 224.896 12.1448 225.6C12.1448 226.315 12.2728 226.917 12.5288 227.408C12.7954 227.899 13.1474 228.267 13.5848 228.512C14.0221 228.747 14.5021 228.864 15.0248 228.864ZM25.2591 230.144C24.4378 230.144 23.6911 229.957 23.0191 229.584C22.3578 229.211 21.8351 228.683 21.4511 228C21.0778 227.307 20.8911 226.507 20.8911 225.6C20.8911 224.704 21.0831 223.915 21.4671 223.232C21.8618 222.539 22.3951 222.011 23.0671 221.648C23.7391 221.275 24.4911 221.088 25.3231 221.088C26.1551 221.088 26.9071 221.275 27.5791 221.648C28.2511 222.011 28.7791 222.533 29.1631 223.216C29.5578 223.899 29.7551 224.693 29.7551 225.6C29.7551 226.507 29.5525 227.307 29.1471 228C28.7525 228.683 28.2138 229.211 27.5311 229.584C26.8485 229.957 26.0911 230.144 25.2591 230.144ZM25.2591 228.864C25.7818 228.864 26.2725 228.741 26.7311 228.496C27.1898 228.251 27.5578 227.883 27.8351 227.392C28.1231 226.901 28.2671 226.304 28.2671 225.6C28.2671 224.896 28.1285 224.299 27.8511 223.808C27.5738 223.317 27.2111 222.955 26.7631 222.72C26.3151 222.475 25.8298 222.352 25.3071 222.352C24.7738 222.352 24.2831 222.475 23.8351 222.72C23.3978 222.955 23.0458 223.317 22.7791 223.808C22.5125 224.299 22.3791 224.896 22.3791 225.6C22.3791 226.315 22.5071 226.917 22.7631 227.408C23.0298 227.899 23.3818 228.267 23.8191 228.512C24.2565 228.747 24.7365 228.864 25.2591 228.864ZM33.4455 222.432V227.6C33.4455 228.027 33.5362 228.331 33.7175 228.512C33.8988 228.683 34.2135 228.768 34.6615 228.768H35.7335V230H34.4215C33.6108 230 33.0028 229.813 32.5975 229.44C32.1922 229.067 31.9895 228.453 31.9895 227.6V222.432H30.8535V221.232H31.9895V219.024H33.4455V221.232H35.7335V222.432H33.4455ZM45.4976 225.28C45.4976 225.557 45.4816 225.851 45.4496 226.16H38.4416C38.495 227.024 38.7883 227.701 39.3216 228.192C39.8656 228.672 40.5216 228.912 41.2896 228.912C41.919 228.912 42.4416 228.768 42.8576 228.48C43.2843 228.181 43.583 227.787 43.7536 227.296H45.3216C45.087 228.139 44.6176 228.827 43.9136 229.36C43.2096 229.883 42.335 230.144 41.2896 230.144C40.4576 230.144 39.711 229.957 39.0496 229.584C38.399 229.211 37.887 228.683 37.5136 228C37.1403 227.307 36.9536 226.507 36.9536 225.6C36.9536 224.693 37.135 223.899 37.4976 223.216C37.8603 222.533 38.367 222.011 39.0176 221.648C39.679 221.275 40.4363 221.088 41.2896 221.088C42.1216 221.088 42.8576 221.269 43.4976 221.632C44.1376 221.995 44.6283 222.496 44.9696 223.136C45.3216 223.765 45.4976 224.48 45.4976 225.28ZM43.9936 224.976C43.9936 224.421 43.871 223.947 43.6256 223.552C43.3803 223.147 43.0443 222.843 42.6176 222.64C42.2016 222.427 41.7376 222.32 41.2256 222.32C40.4896 222.32 39.8603 222.555 39.3376 223.024C38.8256 223.493 38.5323 224.144 38.4576 224.976H43.9936ZM46.8755 225.584C46.8755 224.688 47.0568 223.904 47.4195 223.232C47.7822 222.549 48.2782 222.021 48.9075 221.648C49.5475 221.275 50.2622 221.088 51.0515 221.088C51.7342 221.088 52.3688 221.248 52.9555 221.568C53.5422 221.877 53.9902 222.288 54.2995 222.8V218.16H55.7715V230H54.2995V228.352C54.0115 228.875 53.5848 229.307 53.0195 229.648C52.4542 229.979 51.7928 230.144 51.0355 230.144C50.2568 230.144 49.5475 229.952 48.9075 229.568C48.2782 229.184 47.7822 228.645 47.4195 227.952C47.0568 227.259 46.8755 226.469 46.8755 225.584ZM54.2995 225.6C54.2995 224.939 54.1662 224.363 53.8995 223.872C53.6328 223.381 53.2702 223.008 52.8115 222.752C52.3635 222.485 51.8675 222.352 51.3235 222.352C50.7795 222.352 50.2835 222.48 49.8355 222.736C49.3875 222.992 49.0302 223.365 48.7635 223.856C48.4968 224.347 48.3635 224.923 48.3635 225.584C48.3635 226.256 48.4968 226.843 48.7635 227.344C49.0302 227.835 49.3875 228.213 49.8355 228.48C50.2835 228.736 50.7795 228.864 51.3235 228.864C51.8675 228.864 52.3635 228.736 52.8115 228.48C53.2702 228.213 53.6328 227.835 53.8995 227.344C54.1662 226.843 54.2995 226.261 54.2995 225.6ZM63.2496 219.808C62.9723 219.808 62.7376 219.712 62.5456 219.52C62.3536 219.328 62.2576 219.093 62.2576 218.816C62.2576 218.539 62.3536 218.304 62.5456 218.112C62.7376 217.92 62.9723 217.824 63.2496 217.824C63.5163 217.824 63.7403 217.92 63.9216 218.112C64.1136 218.304 64.2096 218.539 64.2096 218.816C64.2096 219.093 64.1136 219.328 63.9216 219.52C63.7403 219.712 63.5163 219.808 63.2496 219.808ZM63.9536 221.232V230H62.4976V221.232H63.9536ZM70.7071 221.072C71.7738 221.072 72.6378 221.397 73.2991 222.048C73.9605 222.688 74.2911 223.616 74.2911 224.832V230H72.8511V225.04C72.8511 224.165 72.6325 223.499 72.1951 223.04C71.7578 222.571 71.1605 222.336 70.4031 222.336C69.6351 222.336 69.0218 222.576 68.5631 223.056C68.1151 223.536 67.8911 224.235 67.8911 225.152V230H66.4351V221.232H67.8911V222.48C68.1791 222.032 68.5685 221.685 69.0591 221.44C69.5605 221.195 70.1098 221.072 70.7071 221.072ZM84.0391 230.144C83.3671 230.144 82.7645 230.032 82.2311 229.808C81.6978 229.573 81.2765 229.253 80.9671 228.848C80.6578 228.432 80.4871 227.957 80.4551 227.424H81.9591C82.0018 227.861 82.2045 228.219 82.5671 228.496C82.9405 228.773 83.4258 228.912 84.0231 228.912C84.5778 228.912 85.0151 228.789 85.3351 228.544C85.6551 228.299 85.8151 227.989 85.8151 227.616C85.8151 227.232 85.6445 226.949 85.3031 226.768C84.9618 226.576 84.4338 226.389 83.7191 226.208C83.0685 226.037 82.5351 225.867 82.1191 225.696C81.7138 225.515 81.3618 225.253 81.0631 224.912C80.7751 224.56 80.6311 224.101 80.6311 223.536C80.6311 223.088 80.7645 222.677 81.0311 222.304C81.2978 221.931 81.6765 221.637 82.1671 221.424C82.6578 221.2 83.2178 221.088 83.8471 221.088C84.8178 221.088 85.6018 221.333 86.1991 221.824C86.7965 222.315 87.1165 222.987 87.1591 223.84H85.7031C85.6711 223.381 85.4845 223.013 85.1431 222.736C84.8125 222.459 84.3645 222.32 83.7991 222.32C83.2765 222.32 82.8605 222.432 82.5511 222.656C82.2418 222.88 82.0871 223.173 82.0871 223.536C82.0871 223.824 82.1778 224.064 82.3591 224.256C82.5511 224.437 82.7858 224.587 83.0631 224.704C83.3511 224.811 83.7458 224.933 84.2471 225.072C84.8765 225.243 85.3885 225.413 85.7831 225.584C86.1778 225.744 86.5138 225.989 86.7911 226.32C87.0791 226.651 87.2285 227.083 87.2391 227.616C87.2391 228.096 87.1058 228.528 86.8391 228.912C86.5725 229.296 86.1938 229.6 85.7031 229.824C85.2231 230.037 84.6685 230.144 84.0391 230.144ZM93.1185 230.144C92.2972 230.144 91.5505 229.957 90.8785 229.584C90.2172 229.211 89.6945 228.683 89.3105 228C88.9372 227.307 88.7505 226.507 88.7505 225.6C88.7505 224.704 88.9425 223.915 89.3265 223.232C89.7212 222.539 90.2545 222.011 90.9265 221.648C91.5985 221.275 92.3505 221.088 93.1825 221.088C94.0145 221.088 94.7665 221.275 95.4385 221.648C96.1105 222.011 96.6385 222.533 97.0225 223.216C97.4172 223.899 97.6145 224.693 97.6145 225.6C97.6145 226.507 97.4118 227.307 97.0065 228C96.6118 228.683 96.0732 229.211 95.3905 229.584C94.7078 229.957 93.9505 230.144 93.1185 230.144ZM93.1185 228.864C93.6412 228.864 94.1318 228.741 94.5905 228.496C95.0492 228.251 95.4172 227.883 95.6945 227.392C95.9825 226.901 96.1265 226.304 96.1265 225.6C96.1265 224.896 95.9878 224.299 95.7105 223.808C95.4332 223.317 95.0705 222.955 94.6225 222.72C94.1745 222.475 93.6892 222.352 93.1665 222.352C92.6332 222.352 92.1425 222.475 91.6945 222.72C91.2572 222.955 90.9052 223.317 90.6385 223.808C90.3718 224.299 90.2385 224.896 90.2385 225.6C90.2385 226.315 90.3665 226.917 90.6225 227.408C90.8892 227.899 91.2412 228.267 91.6785 228.512C92.1158 228.747 92.5958 228.864 93.1185 228.864ZM110.073 221.072C110.756 221.072 111.364 221.216 111.897 221.504C112.43 221.781 112.852 222.203 113.161 222.768C113.47 223.333 113.625 224.021 113.625 224.832V230H112.185V225.04C112.185 224.165 111.966 223.499 111.529 223.04C111.102 222.571 110.521 222.336 109.785 222.336C109.028 222.336 108.425 222.581 107.977 223.072C107.529 223.552 107.305 224.251 107.305 225.168V230H105.865V225.04C105.865 224.165 105.646 223.499 105.209 223.04C104.782 222.571 104.201 222.336 103.465 222.336C102.708 222.336 102.105 222.581 101.657 223.072C101.209 223.552 100.985 224.251 100.985 225.168V230H99.5289V221.232H100.985V222.496C101.273 222.037 101.657 221.685 102.137 221.44C102.628 221.195 103.166 221.072 103.753 221.072C104.489 221.072 105.14 221.237 105.705 221.568C106.27 221.899 106.692 222.384 106.969 223.024C107.214 222.405 107.62 221.925 108.185 221.584C108.75 221.243 109.38 221.072 110.073 221.072ZM124.013 225.28C124.013 225.557 123.997 225.851 123.965 226.16H116.957C117.011 227.024 117.304 227.701 117.837 228.192C118.381 228.672 119.037 228.912 119.805 228.912C120.435 228.912 120.957 228.768 121.373 228.48C121.8 228.181 122.099 227.787 122.269 227.296H123.837C123.603 228.139 123.133 228.827 122.429 229.36C121.725 229.883 120.851 230.144 119.805 230.144C118.973 230.144 118.227 229.957 117.565 229.584C116.915 229.211 116.403 228.683 116.029 228C115.656 227.307 115.469 226.507 115.469 225.6C115.469 224.693 115.651 223.899 116.013 223.216C116.376 222.533 116.883 222.011 117.533 221.648C118.195 221.275 118.952 221.088 119.805 221.088C120.637 221.088 121.373 221.269 122.013 221.632C122.653 221.995 123.144 222.496 123.485 223.136C123.837 223.765 124.013 224.48 124.013 225.28ZM122.509 224.976C122.509 224.421 122.387 223.947 122.141 223.552C121.896 223.147 121.56 222.843 121.133 222.64C120.717 222.427 120.253 222.32 119.741 222.32C119.005 222.32 118.376 222.555 117.853 223.024C117.341 223.493 117.048 224.144 116.973 224.976H122.509ZM137.977 221.232V230H136.521V228.704C136.243 229.152 135.854 229.504 135.353 229.76C134.862 230.005 134.318 230.128 133.721 230.128C133.038 230.128 132.425 229.989 131.881 229.712C131.337 229.424 130.905 228.997 130.585 228.432C130.275 227.867 130.121 227.179 130.121 226.368V221.232H131.561V226.176C131.561 227.04 131.779 227.707 132.217 228.176C132.654 228.635 133.251 228.864 134.009 228.864C134.787 228.864 135.401 228.624 135.849 228.144C136.297 227.664 136.521 226.965 136.521 226.048V221.232H137.977ZM144.707 221.072C145.774 221.072 146.638 221.397 147.299 222.048C147.96 222.688 148.291 223.616 148.291 224.832V230H146.851V225.04C146.851 224.165 146.632 223.499 146.195 223.04C145.758 222.571 145.16 222.336 144.403 222.336C143.635 222.336 143.022 222.576 142.563 223.056C142.115 223.536 141.891 224.235 141.891 225.152V230H140.435V221.232H141.891V222.48C142.179 222.032 142.568 221.685 143.059 221.44C143.56 221.195 144.11 221.072 144.707 221.072ZM152.126 222.864C152.424 222.341 152.862 221.915 153.438 221.584C154.014 221.253 154.67 221.088 155.406 221.088C156.195 221.088 156.904 221.275 157.534 221.648C158.163 222.021 158.659 222.549 159.022 223.232C159.384 223.904 159.566 224.688 159.566 225.584C159.566 226.469 159.384 227.259 159.022 227.952C158.659 228.645 158.157 229.184 157.517 229.568C156.888 229.952 156.184 230.144 155.406 230.144C154.648 230.144 153.982 229.979 153.406 229.648C152.84 229.317 152.414 228.896 152.126 228.384V230H150.67V218.16H152.126V222.864ZM158.078 225.584C158.078 224.923 157.944 224.347 157.678 223.856C157.411 223.365 157.048 222.992 156.59 222.736C156.142 222.48 155.646 222.352 155.102 222.352C154.568 222.352 154.072 222.485 153.614 222.752C153.166 223.008 152.803 223.387 152.526 223.888C152.259 224.379 152.126 224.949 152.126 225.6C152.126 226.261 152.259 226.843 152.526 227.344C152.803 227.835 153.166 228.213 153.614 228.48C154.072 228.736 154.568 228.864 155.102 228.864C155.646 228.864 156.142 228.736 156.59 228.48C157.048 228.213 157.411 227.835 157.678 227.344C157.944 226.843 158.078 226.256 158.078 225.584ZM169.482 225.28C169.482 225.557 169.466 225.851 169.434 226.16H162.426C162.479 227.024 162.773 227.701 163.306 228.192C163.85 228.672 164.506 228.912 165.274 228.912C165.903 228.912 166.426 228.768 166.842 228.48C167.269 228.181 167.567 227.787 167.738 227.296H169.306C169.071 228.139 168.602 228.827 167.898 229.36C167.194 229.883 166.319 230.144 165.274 230.144C164.442 230.144 163.695 229.957 163.034 229.584C162.383 229.211 161.871 228.683 161.498 228C161.125 227.307 160.938 226.507 160.938 225.6C160.938 224.693 161.119 223.899 161.482 223.216C161.845 222.533 162.351 222.011 163.002 221.648C163.663 221.275 164.421 221.088 165.274 221.088C166.106 221.088 166.842 221.269 167.482 221.632C168.122 221.995 168.613 222.496 168.954 223.136C169.306 223.765 169.482 224.48 169.482 225.28ZM167.978 224.976C167.978 224.421 167.855 223.947 167.61 223.552C167.365 223.147 167.029 222.843 166.602 222.64C166.186 222.427 165.722 222.32 165.21 222.32C164.474 222.32 163.845 222.555 163.322 223.024C162.81 223.493 162.517 224.144 162.442 224.976H167.978ZM172.86 218.16V230H171.404V218.16H172.86ZM183.341 225.28C183.341 225.557 183.325 225.851 183.293 226.16H176.285C176.339 227.024 176.632 227.701 177.165 228.192C177.709 228.672 178.365 228.912 179.133 228.912C179.763 228.912 180.285 228.768 180.701 228.48C181.128 228.181 181.427 227.787 181.597 227.296H183.165C182.931 228.139 182.461 228.827 181.757 229.36C181.053 229.883 180.179 230.144 179.133 230.144C178.301 230.144 177.555 229.957 176.893 229.584C176.243 229.211 175.731 228.683 175.357 228C174.984 227.307 174.797 226.507 174.797 225.6C174.797 224.693 174.979 223.899 175.341 223.216C175.704 222.533 176.211 222.011 176.861 221.648C177.523 221.275 178.28 221.088 179.133 221.088C179.965 221.088 180.701 221.269 181.341 221.632C181.981 221.995 182.472 222.496 182.813 223.136C183.165 223.765 183.341 224.48 183.341 225.28ZM181.837 224.976C181.837 224.421 181.715 223.947 181.469 223.552C181.224 223.147 180.888 222.843 180.461 222.64C180.045 222.427 179.581 222.32 179.069 222.32C178.333 222.32 177.704 222.555 177.181 223.024C176.669 223.493 176.376 224.144 176.301 224.976H181.837ZM184.719 225.584C184.719 224.688 184.901 223.904 185.263 223.232C185.626 222.549 186.122 222.021 186.751 221.648C187.391 221.275 188.101 221.088 188.879 221.088C189.647 221.088 190.314 221.253 190.879 221.584C191.445 221.915 191.866 222.331 192.143 222.832V221.232H193.615V230H192.143V228.368C191.855 228.88 191.423 229.307 190.847 229.648C190.282 229.979 189.621 230.144 188.863 230.144C188.085 230.144 187.381 229.952 186.751 229.568C186.122 229.184 185.626 228.645 185.263 227.952C184.901 227.259 184.719 226.469 184.719 225.584ZM192.143 225.6C192.143 224.939 192.01 224.363 191.743 223.872C191.477 223.381 191.114 223.008 190.655 222.752C190.207 222.485 189.711 222.352 189.167 222.352C188.623 222.352 188.127 222.48 187.679 222.736C187.231 222.992 186.874 223.365 186.607 223.856C186.341 224.347 186.207 224.923 186.207 225.584C186.207 226.256 186.341 226.843 186.607 227.344C186.874 227.835 187.231 228.213 187.679 228.48C188.127 228.736 188.623 228.864 189.167 228.864C189.711 228.864 190.207 228.736 190.655 228.48C191.114 228.213 191.477 227.835 191.743 227.344C192.01 226.843 192.143 226.261 192.143 225.6ZM199.644 222.432H197.804V230H196.348V222.432H195.212V221.232H196.348V220.608C196.348 219.627 196.598 218.912 197.1 218.464C197.612 218.005 198.428 217.776 199.548 217.776V218.992C198.908 218.992 198.454 219.12 198.188 219.376C197.932 219.621 197.804 220.032 197.804 220.608V221.232H199.644V222.432ZM200.797 225.584C200.797 224.688 200.979 223.904 201.341 223.232C201.704 222.549 202.2 222.021 202.829 221.648C203.469 221.275 204.179 221.088 204.957 221.088C205.725 221.088 206.392 221.253 206.957 221.584C207.523 221.915 207.944 222.331 208.221 222.832V221.232H209.693V230H208.221V228.368C207.933 228.88 207.501 229.307 206.925 229.648C206.36 229.979 205.699 230.144 204.941 230.144C204.163 230.144 203.459 229.952 202.829 229.568C202.2 229.184 201.704 228.645 201.341 227.952C200.979 227.259 200.797 226.469 200.797 225.584ZM208.221 225.6C208.221 224.939 208.088 224.363 207.821 223.872C207.555 223.381 207.192 223.008 206.733 222.752C206.285 222.485 205.789 222.352 205.245 222.352C204.701 222.352 204.205 222.48 203.757 222.736C203.309 222.992 202.952 223.365 202.685 223.856C202.419 224.347 202.285 224.923 202.285 225.584C202.285 226.256 202.419 226.843 202.685 227.344C202.952 227.835 203.309 228.213 203.757 228.48C204.205 228.736 204.701 228.864 205.245 228.864C205.789 228.864 206.285 228.736 206.733 228.48C207.192 228.213 207.555 227.835 207.821 227.344C208.088 226.843 208.221 226.261 208.221 225.6ZM213.61 222.864C213.909 222.341 214.346 221.915 214.922 221.584C215.498 221.253 216.154 221.088 216.89 221.088C217.679 221.088 218.389 221.275 219.018 221.648C219.647 222.021 220.143 222.549 220.506 223.232C220.869 223.904 221.05 224.688 221.05 225.584C221.05 226.469 220.869 227.259 220.506 227.952C220.143 228.645 219.642 229.184 219.002 229.568C218.373 229.952 217.669 230.144 216.89 230.144C216.133 230.144 215.466 229.979 214.89 229.648C214.325 229.317 213.898 228.896 213.61 228.384V230H212.154V218.16H213.61V222.864ZM219.562 225.584C219.562 224.923 219.429 224.347 219.162 223.856C218.895 223.365 218.533 222.992 218.074 222.736C217.626 222.48 217.13 222.352 216.586 222.352C216.053 222.352 215.557 222.485 215.098 222.752C214.65 223.008 214.287 223.387 214.01 223.888C213.743 224.379 213.61 224.949 213.61 225.6C213.61 226.261 213.743 226.843 214.01 227.344C214.287 227.835 214.65 228.213 215.098 228.48C215.557 228.736 216.053 228.864 216.586 228.864C217.13 228.864 217.626 228.736 218.074 228.48C218.533 228.213 218.895 227.835 219.162 227.344C219.429 226.843 219.562 226.256 219.562 225.584ZM224.422 218.16V230H222.966V218.16H224.422ZM234.456 221.232L229.176 234.128H227.672L229.4 229.904L225.864 221.232H227.48L230.232 228.336L232.952 221.232H234.456ZM243.289 230.144C242.617 230.144 242.014 230.032 241.481 229.808C240.948 229.573 240.526 229.253 240.217 228.848C239.908 228.432 239.737 227.957 239.705 227.424H241.209C241.252 227.861 241.454 228.219 241.817 228.496C242.19 228.773 242.676 228.912 243.273 228.912C243.828 228.912 244.265 228.789 244.585 228.544C244.905 228.299 245.065 227.989 245.065 227.616C245.065 227.232 244.894 226.949 244.553 226.768C244.212 226.576 243.684 226.389 242.969 226.208C242.318 226.037 241.785 225.867 241.369 225.696C240.964 225.515 240.612 225.253 240.313 224.912C240.025 224.56 239.881 224.101 239.881 223.536C239.881 223.088 240.014 222.677 240.281 222.304C240.548 221.931 240.926 221.637 241.417 221.424C241.908 221.2 242.468 221.088 243.097 221.088C244.068 221.088 244.852 221.333 245.449 221.824C246.046 222.315 246.366 222.987 246.409 223.84H244.953C244.921 223.381 244.734 223.013 244.393 222.736C244.062 222.459 243.614 222.32 243.049 222.32C242.526 222.32 242.11 222.432 241.801 222.656C241.492 222.88 241.337 223.173 241.337 223.536C241.337 223.824 241.428 224.064 241.609 224.256C241.801 224.437 242.036 224.587 242.313 224.704C242.601 224.811 242.996 224.933 243.497 225.072C244.126 225.243 244.638 225.413 245.033 225.584C245.428 225.744 245.764 225.989 246.041 226.32C246.329 226.651 246.478 227.083 246.489 227.616C246.489 228.096 246.356 228.528 246.089 228.912C245.822 229.296 245.444 229.6 244.953 229.824C244.473 230.037 243.918 230.144 243.289 230.144ZM249.297 219.808C249.019 219.808 248.785 219.712 248.593 219.52C248.401 219.328 248.305 219.093 248.305 218.816C248.305 218.539 248.401 218.304 248.593 218.112C248.785 217.92 249.019 217.824 249.297 217.824C249.563 217.824 249.787 217.92 249.969 218.112C250.161 218.304 250.257 218.539 250.257 218.816C250.257 219.093 250.161 219.328 249.969 219.52C249.787 219.712 249.563 219.808 249.297 219.808ZM250.001 221.232V230H248.545V221.232H250.001ZM263.026 221.072C263.709 221.072 264.317 221.216 264.85 221.504C265.383 221.781 265.805 222.203 266.114 222.768C266.423 223.333 266.578 224.021 266.578 224.832V230H265.138V225.04C265.138 224.165 264.919 223.499 264.482 223.04C264.055 222.571 263.474 222.336 262.738 222.336C261.981 222.336 261.378 222.581 260.93 223.072C260.482 223.552 260.258 224.251 260.258 225.168V230H258.818V225.04C258.818 224.165 258.599 223.499 258.162 223.04C257.735 222.571 257.154 222.336 256.418 222.336C255.661 222.336 255.058 222.581 254.61 223.072C254.162 223.552 253.938 224.251 253.938 225.168V230H252.482V221.232H253.938V222.496C254.226 222.037 254.61 221.685 255.09 221.44C255.581 221.195 256.119 221.072 256.706 221.072C257.442 221.072 258.093 221.237 258.658 221.568C259.223 221.899 259.645 222.384 259.922 223.024C260.167 222.405 260.573 221.925 261.138 221.584C261.703 221.243 262.333 221.072 263.026 221.072ZM270.422 222.848C270.71 222.347 271.137 221.931 271.702 221.6C272.278 221.259 272.945 221.088 273.702 221.088C274.481 221.088 275.185 221.275 275.814 221.648C276.454 222.021 276.956 222.549 277.318 223.232C277.681 223.904 277.862 224.688 277.862 225.584C277.862 226.469 277.681 227.259 277.318 227.952C276.956 228.645 276.454 229.184 275.814 229.568C275.185 229.952 274.481 230.144 273.702 230.144C272.956 230.144 272.294 229.979 271.718 229.648C271.153 229.307 270.721 228.885 270.422 228.384V234.16H268.966V221.232H270.422V222.848ZM276.374 225.584C276.374 224.923 276.241 224.347 275.974 223.856C275.708 223.365 275.345 222.992 274.886 222.736C274.438 222.48 273.942 222.352 273.398 222.352C272.865 222.352 272.369 222.485 271.91 222.752C271.462 223.008 271.1 223.387 270.822 223.888C270.556 224.379 270.422 224.949 270.422 225.6C270.422 226.261 270.556 226.843 270.822 227.344C271.1 227.835 271.462 228.213 271.91 228.48C272.369 228.736 272.865 228.864 273.398 228.864C273.942 228.864 274.438 228.736 274.886 228.48C275.345 228.213 275.708 227.835 275.974 227.344C276.241 226.843 276.374 226.256 276.374 225.584ZM281.235 218.16V230H279.779V218.16H281.235ZM291.716 225.28C291.716 225.557 291.7 225.851 291.668 226.16H284.66C284.714 227.024 285.007 227.701 285.54 228.192C286.084 228.672 286.74 228.912 287.508 228.912C288.138 228.912 288.66 228.768 289.076 228.48C289.503 228.181 289.802 227.787 289.972 227.296H291.54C291.306 228.139 290.836 228.827 290.132 229.36C289.428 229.883 288.554 230.144 287.508 230.144C286.676 230.144 285.93 229.957 285.268 229.584C284.618 229.211 284.106 228.683 283.732 228C283.359 227.307 283.172 226.507 283.172 225.6C283.172 224.693 283.354 223.899 283.716 223.216C284.079 222.533 284.586 222.011 285.236 221.648C285.898 221.275 286.655 221.088 287.508 221.088C288.34 221.088 289.076 221.269 289.716 221.632C290.356 221.995 290.847 222.496 291.188 223.136C291.54 223.765 291.716 224.48 291.716 225.28ZM290.212 224.976C290.212 224.421 290.09 223.947 289.844 223.552C289.599 223.147 289.263 222.843 288.836 222.64C288.42 222.427 287.956 222.32 287.444 222.32C286.708 222.32 286.079 222.555 285.556 223.024C285.044 223.493 284.751 224.144 284.676 224.976H290.212ZM297.36 225.6C297.36 224.693 297.541 223.904 297.904 223.232C298.267 222.549 298.768 222.021 299.408 221.648C300.059 221.275 300.8 221.088 301.632 221.088C302.709 221.088 303.595 221.349 304.288 221.872C304.992 222.395 305.456 223.12 305.68 224.048H304.112C303.963 223.515 303.669 223.093 303.232 222.784C302.805 222.475 302.272 222.32 301.632 222.32C300.8 222.32 300.128 222.608 299.616 223.184C299.104 223.749 298.848 224.555 298.848 225.6C298.848 226.656 299.104 227.472 299.616 228.048C300.128 228.624 300.8 228.912 301.632 228.912C302.272 228.912 302.805 228.763 303.232 228.464C303.659 228.165 303.952 227.739 304.112 227.184H305.68C305.445 228.08 304.976 228.8 304.272 229.344C303.568 229.877 302.688 230.144 301.632 230.144C300.8 230.144 300.059 229.957 299.408 229.584C298.768 229.211 298.267 228.683 297.904 228C297.541 227.317 297.36 226.517 297.36 225.6ZM311.447 230.144C310.625 230.144 309.879 229.957 309.207 229.584C308.545 229.211 308.023 228.683 307.639 228C307.265 227.307 307.079 226.507 307.079 225.6C307.079 224.704 307.271 223.915 307.655 223.232C308.049 222.539 308.583 222.011 309.255 221.648C309.927 221.275 310.679 221.088 311.511 221.088C312.343 221.088 313.095 221.275 313.767 221.648C314.439 222.011 314.967 222.533 315.351 223.216C315.745 223.899 315.943 224.693 315.943 225.6C315.943 226.507 315.74 227.307 315.335 228C314.94 228.683 314.401 229.211 313.719 229.584C313.036 229.957 312.279 230.144 311.447 230.144ZM311.447 228.864C311.969 228.864 312.46 228.741 312.919 228.496C313.377 228.251 313.745 227.883 314.023 227.392C314.311 226.901 314.455 226.304 314.455 225.6C314.455 224.896 314.316 224.299 314.039 223.808C313.761 223.317 313.399 222.955 312.951 222.72C312.503 222.475 312.017 222.352 311.495 222.352C310.961 222.352 310.471 222.475 310.023 222.72C309.585 222.955 309.233 223.317 308.967 223.808C308.7 224.299 308.567 224.896 308.567 225.6C308.567 226.315 308.695 226.917 308.951 227.408C309.217 227.899 309.569 228.267 310.007 228.512C310.444 228.747 310.924 228.864 311.447 228.864ZM322.129 221.072C323.196 221.072 324.06 221.397 324.721 222.048C325.382 222.688 325.713 223.616 325.713 224.832V230H324.273V225.04C324.273 224.165 324.054 223.499 323.617 223.04C323.18 222.571 322.582 222.336 321.825 222.336C321.057 222.336 320.444 222.576 319.985 223.056C319.537 223.536 319.313 224.235 319.313 225.152V230H317.857V221.232H319.313V222.48C319.601 222.032 319.99 221.685 320.481 221.44C320.982 221.195 321.532 221.072 322.129 221.072ZM327.547 225.6C327.547 224.693 327.729 223.904 328.091 223.232C328.454 222.549 328.955 222.021 329.595 221.648C330.246 221.275 330.987 221.088 331.819 221.088C332.897 221.088 333.782 221.349 334.475 221.872C335.179 222.395 335.643 223.12 335.867 224.048H334.299C334.15 223.515 333.857 223.093 333.419 222.784C332.993 222.475 332.459 222.32 331.819 222.32C330.987 222.32 330.315 222.608 329.803 223.184C329.291 223.749 329.035 224.555 329.035 225.6C329.035 226.656 329.291 227.472 329.803 228.048C330.315 228.624 330.987 228.912 331.819 228.912C332.459 228.912 332.993 228.763 333.419 228.464C333.846 228.165 334.139 227.739 334.299 227.184H335.867C335.633 228.08 335.163 228.8 334.459 229.344C333.755 229.877 332.875 230.144 331.819 230.144C330.987 230.144 330.246 229.957 329.595 229.584C328.955 229.211 328.454 228.683 328.091 228C327.729 227.317 327.547 226.517 327.547 225.6ZM345.81 225.28C345.81 225.557 345.794 225.851 345.762 226.16H338.754C338.807 227.024 339.101 227.701 339.634 228.192C340.178 228.672 340.834 228.912 341.602 228.912C342.231 228.912 342.754 228.768 343.17 228.48C343.597 228.181 343.895 227.787 344.066 227.296H345.634C345.399 228.139 344.93 228.827 344.226 229.36C343.522 229.883 342.647 230.144 341.602 230.144C340.77 230.144 340.023 229.957 339.362 229.584C338.711 229.211 338.199 228.683 337.826 228C337.453 227.307 337.266 226.507 337.266 225.6C337.266 224.693 337.447 223.899 337.81 223.216C338.173 222.533 338.679 222.011 339.33 221.648C339.991 221.275 340.749 221.088 341.602 221.088C342.434 221.088 343.17 221.269 343.81 221.632C344.45 221.995 344.941 222.496 345.282 223.136C345.634 223.765 345.81 224.48 345.81 225.28ZM344.306 224.976C344.306 224.421 344.183 223.947 343.938 223.552C343.693 223.147 343.357 222.843 342.93 222.64C342.514 222.427 342.05 222.32 341.538 222.32C340.802 222.32 340.173 222.555 339.65 223.024C339.138 223.493 338.845 224.144 338.77 224.976H344.306ZM349.188 222.848C349.476 222.347 349.903 221.931 350.468 221.6C351.044 221.259 351.711 221.088 352.468 221.088C353.247 221.088 353.951 221.275 354.58 221.648C355.22 222.021 355.721 222.549 356.084 223.232C356.447 223.904 356.628 224.688 356.628 225.584C356.628 226.469 356.447 227.259 356.084 227.952C355.721 228.645 355.22 229.184 354.58 229.568C353.951 229.952 353.247 230.144 352.468 230.144C351.721 230.144 351.06 229.979 350.484 229.648C349.919 229.307 349.487 228.885 349.188 228.384V234.16H347.732V221.232H349.188V222.848ZM355.14 225.584C355.14 224.923 355.007 224.347 354.74 223.856C354.473 223.365 354.111 222.992 353.652 222.736C353.204 222.48 352.708 222.352 352.164 222.352C351.631 222.352 351.135 222.485 350.676 222.752C350.228 223.008 349.865 223.387 349.588 223.888C349.321 224.379 349.188 224.949 349.188 225.6C349.188 226.261 349.321 226.843 349.588 227.344C349.865 227.835 350.228 228.213 350.676 228.48C351.135 228.736 351.631 228.864 352.164 228.864C352.708 228.864 353.204 228.736 353.652 228.48C354.111 228.213 354.473 227.835 354.74 227.344C355.007 226.843 355.14 226.256 355.14 225.584ZM360.321 222.432V227.6C360.321 228.027 360.411 228.331 360.593 228.512C360.774 228.683 361.089 228.768 361.536 228.768H362.609V230H361.297C360.486 230 359.878 229.813 359.473 229.44C359.067 229.067 358.865 228.453 358.865 227.6V222.432H357.729V221.232H358.865V219.024H360.321V221.232H362.609V222.432H360.321ZM367.477 230.144C366.805 230.144 366.202 230.032 365.669 229.808C365.135 229.573 364.714 229.253 364.405 228.848C364.095 228.432 363.925 227.957 363.893 227.424H365.397C365.439 227.861 365.642 228.219 366.005 228.496C366.378 228.773 366.863 228.912 367.461 228.912C368.015 228.912 368.453 228.789 368.773 228.544C369.093 228.299 369.253 227.989 369.253 227.616C369.253 227.232 369.082 226.949 368.741 226.768C368.399 226.576 367.871 226.389 367.157 226.208C366.506 226.037 365.973 225.867 365.557 225.696C365.151 225.515 364.799 225.253 364.501 224.912C364.213 224.56 364.069 224.101 364.069 223.536C364.069 223.088 364.202 222.677 364.469 222.304C364.735 221.931 365.114 221.637 365.605 221.424C366.095 221.2 366.655 221.088 367.285 221.088C368.255 221.088 369.039 221.333 369.637 221.824C370.234 222.315 370.554 222.987 370.597 223.84H369.141C369.109 223.381 368.922 223.013 368.581 222.736C368.25 222.459 367.802 222.32 367.237 222.32C366.714 222.32 366.298 222.432 365.989 222.656C365.679 222.88 365.525 223.173 365.525 223.536C365.525 223.824 365.615 224.064 365.797 224.256C365.989 224.437 366.223 224.587 366.501 224.704C366.789 224.811 367.183 224.933 367.685 225.072C368.314 225.243 368.826 225.413 369.221 225.584C369.615 225.744 369.951 225.989 370.229 226.32C370.517 226.651 370.666 227.083 370.677 227.616C370.677 228.096 370.543 228.528 370.277 228.912C370.01 229.296 369.631 229.6 369.141 229.824C368.661 230.037 368.106 230.144 367.477 230.144ZM373.196 230.096C372.919 230.096 372.684 230 372.492 229.808C372.3 229.616 372.204 229.381 372.204 229.104C372.204 228.827 372.3 228.592 372.492 228.4C372.684 228.208 372.919 228.112 373.196 228.112C373.463 228.112 373.687 228.208 373.868 228.4C374.06 228.592 374.156 228.827 374.156 229.104C374.156 229.381 374.06 229.616 373.868 229.808C373.687 230 373.463 230.096 373.196 230.096Z" fill="#53A151"/>
<path d="M2.94 54.5H19.74V93.91H25.69C27.8367 93.91 29.2833 93.63 30.03 93.07C30.8233 92.51 31.22 91.2967 31.22 89.43V54.5H48.02V83.97C48.02 88.45 47.7167 92.23 47.11 95.31C46.55 98.39 45.43 100.91 43.75 102.87C42.1167 104.783 39.83 106.16 36.89 107C33.95 107.84 30.1467 108.26 25.48 108.26C20.8133 108.26 17.01 107.84 14.07 107C11.13 106.16 8.82 104.783 7.14 102.87C5.50667 100.957 4.38667 98.46 3.78 95.38C3.22 92.2533 2.94 88.45 2.94 83.97V54.5ZM82.8477 94.33H71.9277V107H55.1277V54.5H81.5877C93.6277 54.5 99.6477 60.9633 99.6477 73.89C99.6477 76.7367 99.3677 79.3967 98.8077 81.87C98.2477 84.3433 97.2911 86.5133 95.9377 88.38C94.6311 90.2 92.9044 91.6467 90.7577 92.72C88.6577 93.7933 86.0211 94.33 82.8477 94.33ZM75.7777 67.94H71.9277V80.89H75.7777C77.8311 80.89 79.3011 80.68 80.1877 80.26C81.1211 79.84 81.5877 78.86 81.5877 77.32V71.44C81.5877 69.9467 81.1211 68.99 80.1877 68.57C79.3011 68.15 77.8311 67.94 75.7777 67.94ZM142.475 107V54.5H125.675V107H142.475ZM197.519 107H181.699L168.889 88.38C168.656 88.0533 168.469 87.5633 168.329 86.91C168.189 86.2567 168.096 85.3933 168.049 84.32H167.699V107H150.899V54.5H166.719L179.529 73.12C179.763 73.4467 179.949 73.9367 180.089 74.59C180.229 75.2433 180.323 76.1067 180.369 77.18H180.719V54.5H197.519V107ZM41.58 124.5H0.42V137.94H12.6V177H29.4V137.94H41.58V124.5ZM92.3727 177V124.5H75.5727V143.05H62.9727V124.5H46.1727V177H62.9727V158.45H75.5727V177H92.3727ZM134.392 145.01H117.592V137.94H135.652L137.752 124.5H100.792V177H138.172V163.56H117.592V157.19H134.392V145.01ZM180.7 168.67H194.56L196.52 177H214.23L200.65 124.5H174.68L161.1 177H178.81L180.7 168.67ZM188.12 140.6L191.48 155.3H183.78L187.21 140.6H188.12ZM234.281 177V124.5H217.481V177H234.281ZM279.386 159.5L288.486 177H270.006L263.146 161.39H259.506V177H242.706V124.5H269.166C281.206 124.5 287.226 130.637 287.226 142.91C287.226 151.31 284.613 156.84 279.386 159.5ZM263.356 137.94H259.506V148.44H263.356C265.409 148.44 266.879 148.23 267.766 147.81C268.699 147.39 269.166 146.433 269.166 144.94V141.44C269.166 139.947 268.699 138.99 267.766 138.57C266.879 138.15 265.409 137.94 263.356 137.94Z" fill="#3D833B"/>
<g clip-path="url(#clip0)">
<path d="M556.077 254.418C556.1 270.407 549.918 285.781 538.834 297.304C527.311 308.388 511.937 314.57 495.948 314.547C461.725 314.547 433.983 286.805 433.983 252.582C433.96 236.593 440.142 221.219 451.226 209.696C462.749 198.612 478.123 192.43 494.112 192.453C528.335 192.453 556.077 220.195 556.077 254.418Z" fill="#FFCD34"/>
<path d="M494.112 316.383C528.334 316.383 556.077 288.64 556.077 254.418C556.077 220.196 528.334 192.453 494.112 192.453C459.89 192.453 432.147 220.196 432.147 254.418C432.147 288.64 459.89 316.383 494.112 316.383Z" fill="#FEE05B"/>
<path d="M494.112 302.613C520.729 302.613 542.307 281.035 542.307 254.418C542.307 227.801 520.729 206.223 494.112 206.223C467.495 206.223 445.917 227.801 445.917 254.418C445.917 281.035 467.495 302.613 494.112 302.613Z" fill="#FFCD34"/>
<path d="M542.307 254.418C542.307 263.897 539.513 273.166 534.274 281.066C529.035 288.966 521.584 295.146 512.851 298.834C522.834 292.182 529.978 282.046 532.887 270.408C535.797 258.77 534.262 246.465 528.583 235.898C522.905 225.331 513.49 217.26 502.179 213.264C490.868 209.268 478.473 209.632 467.417 214.286C474.677 209.458 483.111 206.69 491.82 206.277C500.529 205.863 509.188 207.82 516.873 211.938C524.558 216.057 530.982 222.182 535.461 229.663C539.94 237.144 542.306 245.699 542.307 254.418Z" fill="#E6BA24"/>
<path d="M534.351 258.702C534.356 266.646 532.395 274.467 528.644 281.469C524.893 288.472 519.467 294.437 512.851 298.834C501.793 303.497 489.394 303.868 478.077 299.874C466.76 295.88 457.34 287.807 451.659 277.236C445.978 266.665 444.445 254.354 447.359 242.712C450.273 231.071 457.425 220.934 467.417 214.286C474.745 211.201 482.723 209.975 490.639 210.719C498.556 211.463 506.166 214.153 512.791 218.549C519.417 222.946 524.852 228.912 528.614 235.918C532.375 242.924 534.346 250.75 534.351 258.702Z" fill="#F9C42E"/>
<path d="M493.5 302.613C520.117 302.613 541.695 281.035 541.695 254.418C541.695 227.801 520.117 206.223 493.5 206.223C466.883 206.223 445.305 227.801 445.305 254.418C445.305 281.035 466.883 302.613 493.5 302.613Z" stroke="#E6BA24" stroke-width="3" stroke-miterlimit="10"/>
<path d="M538.834 297.304C533.058 303.344 526.117 308.15 518.429 311.429C510.742 314.709 502.469 316.394 494.112 316.383C459.889 316.383 432.147 288.641 432.147 254.418C432.136 246.061 433.821 237.788 437.101 230.101C440.38 222.413 445.186 215.472 451.226 209.696C440.142 221.219 433.96 236.593 433.983 252.582C433.983 286.805 461.725 314.547 495.948 314.547C511.937 314.57 527.311 308.388 538.834 297.304Z" fill="#E6BA24"/>
<path d="M469.65 283.402C468.218 282.463 460.847 262.013 471.238 248.31C473.466 245.376 475.786 243.806 480.272 240.798C487.576 235.902 495.878 233.035 501.211 231.168C505.715 229.589 516.144 224.436 517.809 222.426C517.937 222.276 518.473 221.627 518.971 221.71C519.232 221.753 519.381 222.016 519.473 222.196C519.938 223.081 528.871 258.084 513.32 275.168C503.723 285.713 491.848 286.49 484.963 287.132C484.592 287.166 480.265 286.826 479.889 286.573C479.889 286.573 479.65 286.413 479.427 286.227C479.063 285.921 476.382 281.582 477.475 272.542C478.2 266.818 480.572 261.428 484.302 257.025C493.206 246.64 505.416 245.489 505.416 244.516C505.416 243.986 487.518 246.698 481.089 252.319C476.058 256.728 473.567 260.869 472.242 264.21C471.407 266.209 470.832 268.307 470.532 270.452C469.644 277.022 470.226 282.76 470.167 283.304C470.152 283.451 469.88 283.552 469.65 283.402Z" fill="#FFCD34"/>
<path d="M518.167 222.049C518.093 222.12 517.962 222.248 517.809 222.42C513.714 226.979 518.286 233.916 515.838 238.904C515.707 239.163 515.555 239.412 515.385 239.647C512.717 243.625 507.735 244.617 505.425 245.1C494.957 247.279 489.721 248.371 484.865 251.199C481.937 252.871 479.339 255.062 477.196 257.665C476.055 259.097 472.444 264.271 471.517 270.315C470.47 277.129 470.798 280.584 470.832 283.197C470.832 283.543 470.366 283.867 470.183 283.88C470.076 283.965 469.507 283.812 469.305 283.95C467.469 285.208 465.4 285.603 464.201 285.376C460.688 284.715 459.669 275.752 459.454 273.041C459.112 269.104 459.299 265.139 460.011 261.251C461.292 256.367 463.611 251.816 466.811 247.909C472.518 241.177 483.124 236.554 492.285 233.221C492.285 233.221 501.545 229.834 505.942 227.943C508.121 227.007 510.532 225.884 511.049 225.648C514.023 224.268 515.468 223.506 516.211 223.123C517.022 222.689 517.702 222.313 518.167 222.049Z" fill="#E6BA24"/>
<path d="M513.32 275.168C503.724 285.713 491.848 286.49 484.963 287.132C484.592 287.166 480.266 286.826 479.889 286.573C479.889 286.573 479.65 286.413 479.427 286.227C479.063 285.921 476.382 281.582 477.475 272.542C478.2 266.818 480.572 261.428 484.302 257.025C486.669 254.28 489.458 251.929 492.564 250.061C499.296 245.982 505.416 245.204 505.416 244.516C505.416 244.491 505.376 244.473 505.296 244.464C504.179 244.314 495.471 245.648 488.344 248.362C485.468 249.461 482.836 250.78 481.089 252.319C476.058 256.728 473.567 260.869 472.242 264.21C471.407 266.209 470.832 268.307 470.532 270.452C469.644 277.022 470.226 282.76 470.168 283.304C470.152 283.448 469.88 283.549 469.65 283.399C469.516 283.287 469.403 283.151 469.317 282.998L469.277 282.937C467.291 279.684 461.56 261.07 471.239 248.307C473.466 245.373 475.37 243.378 479.935 240.492C487.423 235.752 495.89 233.035 501.211 231.162C505.716 229.583 516.144 224.43 517.809 222.42C517.919 222.288 518.038 222.164 518.167 222.049C518.269 221.938 518.393 221.849 518.532 221.79C518.671 221.73 518.82 221.701 518.971 221.704C519.232 221.746 519.382 222.01 519.473 222.19C519.492 222.233 519.51 222.276 519.525 222.322C519.639 222.655 519.877 223.527 520.171 224.837C522.108 233.436 526.475 260.712 513.32 275.168Z" fill="#FEE05B"/>
<path d="M523.252 253.876C522.481 259.384 521.609 265.615 517.172 272.123C513.142 278.032 508.298 281.028 504.892 283.139C496.19 288.525 488.769 289.226 480.336 290.024C477.992 290.245 476.358 290.278 474.865 289.296C469.969 286.077 471.964 275.474 472.533 272.466C472.533 272.466 474.155 263.971 481.6 254.565C482.985 252.733 484.681 251.158 486.612 249.914C487.787 249.173 488.708 248.791 490.55 248.026C494.901 246.22 494.752 246.991 499.075 245.339C499.075 245.339 502.187 244.115 505.296 244.464C505.376 244.464 505.416 244.491 505.416 244.516C505.416 245.204 499.296 245.982 492.564 250.061C489.458 251.929 486.669 254.28 484.302 257.025C480.572 261.428 478.2 266.818 477.475 272.542C476.382 281.582 479.063 285.936 479.424 286.242C479.647 286.429 479.886 286.588 479.886 286.588C480.262 286.836 484.589 287.181 484.96 287.148C491.845 286.502 503.72 285.728 513.317 275.183C526.475 260.728 522.105 233.451 520.168 224.858C520.939 227.195 521.584 229.571 522.102 231.976C523.014 236.162 524.636 244.014 523.252 253.876Z" fill="#E6BA24"/>
<path d="M634.196 309.738C622.744 313.538 604.206 316.014 583.294 316.014C571.518 316.076 559.758 315.205 548.142 313.413H548.082C548.255 310.805 549.216 307.046 554.093 297.296C555.742 293.904 557.133 290.408 558.256 286.835C565.831 263.501 568.37 228.555 568.363 217.606C568.363 183.273 559.083 152.623 556.197 132.225C556.107 131.576 556.017 130.927 555.934 130.286C555.3 124.695 555.049 119.072 555.183 113.451H622.759C621.076 142.358 602.996 176.411 602.996 214.719C602.996 253.612 611.728 274.736 620.137 288.481C625.998 297.945 631.656 303.9 634.196 309.738Z" fill="#8E3A2D"/>
<path d="M622.819 113.451C621.316 138.745 607.31 167.994 603.831 200.575C598.26 195.769 590.899 193.154 583.294 193.281C582.542 193.281 581.791 193.316 581.04 193.371C578.891 193.53 576.756 193.828 574.652 194.264C575.156 197.381 575.539 200.45 575.757 203.442C576.358 211.755 576.441 220.095 576.839 228.415C577.237 236.735 577.591 244.86 576.982 253.096C576.862 254.797 576.666 256.485 576.508 258.187C576.508 258.507 576.456 258.765 576.433 258.975C576.433 259.065 576.433 259.17 576.381 259.302C576.208 260.362 576.028 261.395 575.832 262.483C575.159 266.258 574.208 269.986 572.984 273.641C572.654 274.582 572.3 275.524 571.932 276.43C571.609 277.246 571.354 277.825 571.271 278.02C570.241 280.433 568.739 284.541 568.521 285.113C566.582 290.308 564.147 291.034 561.901 296.62C560.781 299.409 558.143 306.027 561.457 310.567C562.525 311.909 563.874 313.036 565.425 313.88C567.304 314.889 569.395 315.512 571.556 315.707C563.7 315.383 555.872 314.605 548.119 313.378H548.059C542.729 312.566 537.481 311.343 532.369 309.724C534.917 303.886 540.567 297.931 546.376 288.467C554.815 274.771 563.524 253.612 563.524 214.719C563.524 176.439 545.489 142.358 543.784 113.451H622.819Z" fill="#702029"/>
<path d="M518.663 141.981H514.628V235.068H518.663V141.981Z" fill="#AA5544"/>
<path d="M515.965 141.981H514.628V235.068H515.965V141.981Z" fill="#994136"/>
<path d="M458.331 95.4374H454.295V188.525H458.331V95.4374Z" fill="#AA5544"/>
<path d="M455.633 95.4374H454.295V188.525H455.633V95.4374Z" fill="#994136"/>
<path d="M619.693 126.011H615.658V219.098H619.693V126.011Z" fill="#AA5544"/>
<path d="M616.996 126.011H615.658V219.098H616.996V126.011Z" fill="#994136"/>
<path d="M667.537 86.8596H663.502V179.947H667.537V86.8596Z" fill="#AA5544"/>
<path d="M664.839 86.8596H663.502V179.947H664.839V86.8596Z" fill="#994136"/>
<path d="M715.546 134.526H711.511V227.613H715.546V134.526Z" fill="#AA5544"/>
<path d="M712.848 134.526H711.511V227.613H712.848V134.526Z" fill="#994136"/>
<path d="M609.452 164.095C604.342 164.449 599.208 164.335 594.122 163.753C590.265 163.384 586.44 162.759 582.678 161.884C573.459 159.822 564.674 156.348 556.686 151.605C555.679 150.998 554.92 150.908 553.891 151.605C549.76 154.539 545.171 156.872 540.282 158.523C529.882 162.254 519.242 164.751 507.971 163.405C494.114 161.794 483.391 153.125 480.115 141.005C479.331 138.241 479.077 135.37 479.364 132.524C478.56 132.573 478.304 133.054 477.928 133.361C470.346 139.477 461.449 142.176 451.5 140.872C436.697 138.885 426.741 131.109 421.819 117.998C416.589 104.064 423.006 87.4175 436.532 79.7602C449.915 72.1935 463.756 72.2284 477.808 78.1701C478.484 78.456 479.078 79.0488 480.198 78.8257C475.178 69.8573 474.186 60.5681 477.733 51.0627C481.28 41.5573 488.253 34.5695 498.149 30.3224C505.775 26.9711 514.399 26.1156 522.616 27.8955C534.639 30.4479 543.438 37.0173 549.066 47.2549C549.514 46.8075 549.764 46.2198 549.765 45.6091C552.561 31.4033 560.285 19.9732 572.646 11.3256C585.624 2.25953 600.382 -1.32504 616.462 0.495143C632.243 2.28743 645.513 8.91958 655.627 20.3358C667.342 33.5862 671.843 48.5242 666.899 65.4219C666.771 65.8612 666.433 66.3215 666.899 66.8655C668.123 66.1681 669.341 65.4707 670.588 64.8361C687.586 55.9583 708.295 58.3294 721.686 70.9312C731.063 79.7741 735.211 90.8207 735.211 103.011C735.144 117.035 729.11 128.877 717.756 138.292C710.108 144.648 700.56 148.699 690.376 149.907C680.193 151.115 669.854 149.423 660.729 145.057C658.776 144.115 657.596 144.359 656.101 145.642C653.734 147.693 638.487 157.303 625.292 161.327C620.154 162.85 614.834 163.78 609.452 164.095Z" fill="#FF95BA"/>
<path d="M513.215 224.301C509.721 224.564 506.419 225.896 503.829 228.088C501.238 230.281 499.505 233.209 498.9 236.414C491.995 235.64 485.472 241.854 485.78 248.27C486.088 254.686 492.423 260.195 499.306 260.746C506.189 261.297 510.863 260.349 514.245 254.714C516.251 259.791 524.938 259.993 530.596 258.682C535.397 257.573 540.447 252.405 539.538 246.408C538.741 241.163 533.526 236.923 527.184 236.763C527.184 236.066 527.184 230.061 522.075 226.511C519.497 224.823 516.357 224.039 513.215 224.301Z" fill="#FF95BA"/>
<path d="M443.099 179.647C440.454 182.478 441.363 186.105 441.431 186.384C441.72 187.395 442.223 188.344 442.909 189.174C443.595 190.005 444.451 190.701 445.428 191.224C444.952 192.877 445.122 194.634 445.909 196.182C447.976 199.829 453.98 200.715 458.218 199.236C462.802 197.632 464.567 193.518 464.898 192.688C468.745 191.726 471.353 188.741 471.398 185.533C471.415 184.453 471.15 183.386 470.627 182.422C470.103 181.458 469.337 180.626 468.392 179.996C465.544 178.182 461.171 178.601 457.684 181.23C456.258 179.315 454.116 177.96 451.673 177.429C451.102 177.297 446.172 176.362 443.099 179.647Z" fill="#FF95BA"/>
<path d="M608.008 211.211C604.77 211.573 602.057 214 600.937 216.825C600.034 219.117 600.03 221.631 600.925 223.926C601.82 226.221 603.558 228.15 605.833 229.375C608.108 230.599 610.776 231.04 613.367 230.621C615.957 230.202 618.307 228.95 620.001 227.083C621.504 229.873 625.472 231.1 628.673 230.131C631.874 229.161 634.181 226.33 634.827 223.268C635.367 220.156 634.701 216.966 632.949 214.265C630.694 210.534 626.524 207.514 621.902 207.487C620.545 207.504 619.208 207.798 617.986 208.347C616.764 208.897 615.687 209.688 614.831 210.667C614.426 211.127 614.185 211.852 613.757 212.257C613.103 212.87 613.208 212.626 612.344 212.131C611.05 211.383 609.524 211.059 608.008 211.211Z" fill="#FF95BA"/>
<path d="M660.774 168.307C654.913 167.031 648.15 173.098 646.136 179.298C644.348 184.787 645.265 193.33 651.592 196.035C656.589 198.163 662.074 195.429 662.976 194.961C672.955 202.047 683.836 200.687 686.811 196.307C689.133 192.89 687.285 186.663 682.566 181.481C685.151 178.231 685.323 173.963 683.069 170.957C680.191 167.108 674.894 167.394 674.36 167.429C669.1 167.791 666.425 171.801 666.177 172.192C665.042 170.623 663.276 168.858 660.774 168.307Z" fill="#FF95BA"/>
<path d="M701.517 237.237C703.122 237.704 704.833 237.759 706.469 237.398C708.129 237.047 709.694 236.385 711.067 235.452C712.082 239.357 716.56 242.049 720.881 241.777C725.202 241.505 729.064 238.618 730.793 234.936C732.521 231.254 732.295 226.93 730.717 223.185C729.65 220.639 727.824 218.178 725.082 217.194C722.339 216.211 718.649 217.285 717.77 219.893C718.048 219.056 716.463 217.208 715.922 216.636C714.984 215.635 713.819 214.84 712.51 214.307C709.823 213.261 706.821 213.145 704.049 213.979C700.881 214.978 698.24 217.057 696.662 219.795C695.768 221.397 695.236 223.15 695.098 224.949C694.96 226.748 695.218 228.554 695.858 230.256C695.934 230.591 697.068 235.794 701.517 237.237Z" fill="#FF95BA"/>
<path d="M535.473 256.199C534.103 257.382 532.445 258.238 530.641 258.696C526.568 259.637 520.94 259.791 517.348 257.908L516.837 257.622C516.372 257.338 515.944 257.005 515.56 256.631C515.427 256.507 515.304 256.374 515.191 256.234C515.137 256.172 515.087 256.107 515.041 256.039C515.003 256.001 514.97 255.959 514.944 255.913C514.828 255.754 514.723 255.589 514.628 255.418C514.569 255.323 514.517 255.225 514.47 255.125C514.418 255.02 514.372 254.916 514.327 254.811C514.309 254.782 514.294 254.752 514.282 254.721C510.901 260.362 506.272 261.304 499.344 260.753C492.416 260.202 486.126 254.735 485.788 248.27C485.735 246.98 485.937 245.692 486.382 244.469C486.797 245.928 487.448 247.32 488.313 248.598C489.674 250.696 491.579 252.444 493.855 253.684C496.131 254.924 498.705 255.616 501.343 255.697C503.943 255.695 506.51 255.154 508.857 254.114C510.781 253.347 512.171 252.775 513.057 251.401C514.064 249.853 513.809 248.374 514.38 248.263C514.951 248.151 515.657 250.146 517.13 251.896C519.129 254.267 521.887 255.104 524.284 255.829C527.908 256.896 531.776 257.023 535.473 256.199Z" fill="#D875A7"/>
<path d="M443.099 179.647C440.454 182.478 441.363 186.105 441.431 186.384C441.72 187.395 442.223 188.344 442.909 189.174C443.595 190.005 444.451 190.701 445.428 191.224C444.952 192.877 445.122 194.634 445.909 196.182C447.976 199.829 453.98 200.715 458.218 199.236C462.802 197.632 464.567 193.518 464.898 192.688C468.745 191.726 471.353 188.741 471.398 185.533C471.415 184.453 471.15 183.386 470.627 182.422C470.103 181.458 469.337 180.626 468.392 179.996C465.544 178.182 461.171 178.601 457.684 181.23C456.258 179.315 454.116 177.96 451.673 177.429C451.102 177.297 446.172 176.362 443.099 179.647Z" fill="#D875A7"/>
<path d="M608.008 211.211C604.77 211.573 602.057 214 600.937 216.825C600.034 219.117 600.03 221.631 600.925 223.926C601.82 226.221 603.558 228.15 605.833 229.375C608.108 230.599 610.775 231.04 613.366 230.621C615.957 230.202 618.306 228.95 620.001 227.083C621.504 229.873 625.472 231.1 628.673 230.131C631.874 229.161 634.181 226.33 634.827 223.268C635.367 220.156 634.701 216.966 632.948 214.265C630.694 210.534 626.524 207.514 621.902 207.487C620.545 207.504 619.208 207.798 617.986 208.347C616.764 208.897 615.687 209.688 614.831 210.667C614.426 211.127 614.185 211.852 613.757 212.257C613.103 212.87 613.208 212.626 612.344 212.131C611.05 211.383 609.524 211.059 608.008 211.211Z" fill="#FF95BA"/>
<path d="M660.774 168.307C654.913 167.031 648.15 173.098 646.136 179.298C644.348 184.787 645.265 193.33 651.592 196.035C656.589 198.163 662.074 195.429 662.976 194.961C672.955 202.047 683.836 200.687 686.811 196.307C689.133 192.89 687.285 186.663 682.566 181.481C685.151 178.231 685.323 173.963 683.069 170.957C680.191 167.108 674.894 167.394 674.36 167.429C669.1 167.791 666.425 171.801 666.177 172.192C665.042 170.623 663.276 168.858 660.774 168.307Z" fill="#FF95BA"/>
<path d="M719.581 238.283C718.233 237.447 717.104 236.341 716.275 235.047C715.474 233.848 714.935 232.514 714.689 231.121C713.819 232.152 712.713 232.991 711.451 233.576C710.004 234.19 708.425 234.488 706.834 234.449C705.244 234.409 703.685 234.031 702.276 233.346C698.654 231.637 697.173 227.523 696.685 224.043C696.494 222.73 696.436 221.404 696.512 220.081C694.861 223.254 694.626 226.903 695.858 230.235C695.934 230.591 697.068 235.814 701.517 237.209C703.122 237.676 704.833 237.732 706.469 237.37C708.129 237.019 709.694 236.357 711.067 235.424C712.082 239.329 716.56 242.021 720.881 241.749C722.929 241.6 724.89 240.919 726.539 239.783C724.104 240.02 721.654 239.492 719.581 238.283Z" fill="#D875A7"/>
<path d="M706.528 140.342C689.553 144.261 668.122 138.815 660.691 126.778C658.038 122.482 656.032 115.515 653.499 115.794C652.275 115.927 651.583 117.698 651.388 118.144C648.653 124.56 631.295 136.346 613.35 137.762C594.452 139.247 572.826 129.393 563.47 115.404C561.524 112.489 559.149 108.067 556.707 108.43C552.492 109.036 555.753 122.817 547.405 132.678C540.454 140.879 526.485 145.161 514.62 141.995C504.618 139.324 494.534 130.948 492.242 121.492C491.49 118.34 491.566 115.013 489.086 113.821C486.08 112.356 482.195 115.438 476.312 118.319C471.57 120.641 461.922 125.732 453.145 124.449C439.687 122.489 432.706 111.31 430.001 107.014C427.095 102.329 425.204 97.1622 424.433 91.804C419.796 99.7403 418.571 109.406 421.81 118.026C426.762 131.109 436.696 138.857 451.499 140.872C461.448 142.176 470.345 139.477 477.987 133.361C478.363 133.054 478.618 132.573 479.422 132.524C479.136 135.37 479.39 138.241 480.174 141.005C483.428 153.125 494.151 161.759 507.977 163.426C519.248 164.779 529.911 162.282 540.289 158.544C545.177 156.893 549.766 154.56 553.897 151.626C554.926 150.866 555.685 150.991 556.692 151.626C564.681 156.369 573.465 159.843 582.684 161.905C586.446 162.78 590.271 163.405 594.129 163.774C599.214 164.356 604.348 164.47 609.458 164.116C614.841 163.794 620.162 162.857 625.298 161.327C638.493 157.303 653.74 147.693 656.107 145.642C657.61 144.352 658.782 144.115 660.736 145.056C669.86 149.41 680.194 151.09 690.37 149.875C700.546 148.66 710.085 144.606 717.724 138.25C720.052 136.323 722.208 134.224 724.172 131.974C719.042 135.957 713.012 138.817 706.528 140.342Z" fill="#D875A7"/>
<path d="M630.123 228.366C627.5 229.001 624.713 228.671 622.346 227.446C621.444 226.965 620.482 226.239 619.43 226.051C618.464 226.017 617.499 226.157 616.59 226.462C613.952 227.16 611.179 227.711 608.655 226.365C605.649 224.754 605.536 221.281 607.775 219.042C608.685 218.057 609.913 217.37 611.277 217.083C612.412 216.873 613.892 216.978 614.816 216.734C615.588 216.503 616.3 216.125 616.905 215.625C617.657 214.997 618.408 214.307 619.16 213.686C621.124 212.025 623.718 211.154 626.373 211.266C628.144 211.397 629.886 211.754 631.551 212.326C629.161 209.537 625.697 207.5 621.902 207.445C620.545 207.462 619.208 207.756 617.986 208.305C616.764 208.855 615.687 209.647 614.831 210.625C614.426 211.085 614.185 211.81 613.757 212.215C613.103 212.829 613.208 212.584 612.344 212.089C611.05 211.342 609.524 211.018 608.008 211.169C604.77 211.531 602.057 213.958 600.937 216.783C600.034 219.075 600.03 221.589 600.925 223.885C601.82 226.18 603.558 228.109 605.833 229.333C608.108 230.557 610.775 230.999 613.366 230.58C615.957 230.16 618.306 228.908 620.001 227.041C621.504 229.831 625.472 231.058 628.673 230.089C630.296 229.575 631.72 228.629 632.768 227.369C631.94 227.813 631.05 228.149 630.123 228.366Z" fill="#D875A7"/>
<path d="M660.774 168.307C654.913 167.031 648.15 173.098 646.136 179.298C644.348 184.787 645.265 193.33 651.592 196.035C656.589 198.163 662.074 195.429 662.976 194.961C672.955 202.047 683.836 200.687 686.811 196.307C689.133 192.89 687.285 186.663 682.566 181.481C685.151 178.231 685.323 173.963 683.069 170.957C680.191 167.108 674.894 167.394 674.36 167.429C669.1 167.791 666.425 171.801 666.177 172.192C665.042 170.623 663.276 168.858 660.774 168.307Z" fill="#D875A7"/>
</g>
<defs>
<clipPath id="clip0">
<rect width="316" height="316" fill="white" transform="translate(420)"/>
</clipPath>
</defs>
</svg>
