<svg width="37" height="37" viewBox="0 0 37 37" fill="none" xmlns="http://www.w3.org/2000/svg">
<path d="M5.64783 31.8068C3.88089 30.1003 2.47152 28.0589 1.50196 25.8018C0.532389 23.5447 0.0220441 21.1172 0.0006985 18.6608C-0.0206471 16.2043 0.447434 13.7683 1.37763 11.4947C2.30783 9.2211 3.68151 7.15554 5.41852 5.41852C7.15554 3.68151 9.2211 2.30783 11.4947 1.37763C13.7683 0.447434 16.2043 -0.0206471 18.6608 0.0006985C21.1172 0.0220441 23.5447 0.532389 25.8018 1.50196C28.0589 2.47152 30.1003 3.88089 31.8068 5.64783C35.1768 9.13697 37.0415 13.8101 36.9993 18.6608C36.9571 23.5114 35.0115 28.1514 31.5815 31.5815C28.1514 35.0115 23.5114 36.9571 18.6608 36.9993C13.8101 37.0415 9.13697 35.1768 5.64783 31.8068ZM16.8773 20.5773V27.9773H20.5773V16.8773H16.8773V20.5773ZM16.8773 9.47733V13.1773H20.5773V9.47733H16.8773Z" fill="#F8D521"/>
</svg>
