<svg width="278" height="129" viewBox="0 0 278 129" fill="none" xmlns="http://www.w3.org/2000/svg">
<path d="M0 40C0 17.9086 17.9086 0 40 0H197C219.091 0 237 17.9086 237 40V89C237 111.091 219.091 129 197 129H40C17.9086 129 0 111.091 0 89V40Z" fill="#2E4F72"/>
<path d="M274.635 76.6153C275.506 76.9115 275.549 78.1265 274.702 78.4835L237.726 94.0639C237.072 94.3398 236.346 93.8641 236.338 93.1538L236.016 64.8803C236.008 64.1904 236.685 63.6999 237.338 63.9222L274.635 76.6153Z" fill="#2E4F72"/>
<path d="M65.5552 41.112C65.5552 42.04 65.2352 42.8133 64.5952 43.432C63.9659 44.04 63.0005 44.344 61.6992 44.344H59.5552V49H58.0992V37.848H61.6992C62.9579 37.848 63.9125 38.152 64.5632 38.76C65.2245 39.368 65.5552 40.152 65.5552 41.112ZM61.6992 43.144C62.5099 43.144 63.1072 42.968 63.4912 42.616C63.8752 42.264 64.0672 41.7627 64.0672 41.112C64.0672 39.736 63.2779 39.048 61.6992 39.048H59.5552V43.144H61.6992ZM68.8208 41.656C69.0768 41.1547 69.4395 40.7653 69.9088 40.488C70.3888 40.2107 70.9701 40.072 71.6528 40.072V41.576H71.2688C69.6368 41.576 68.8208 42.4613 68.8208 44.232V49H67.3648V40.232H68.8208V41.656ZM81.3336 44.28C81.3336 44.5573 81.3176 44.8507 81.2856 45.16H74.2776C74.3309 46.024 74.6242 46.7013 75.1576 47.192C75.7016 47.672 76.3576 47.912 77.1256 47.912C77.7549 47.912 78.2776 47.768 78.6936 47.48C79.1202 47.1813 79.4189 46.7867 79.5896 46.296H81.1576C80.9229 47.1387 80.4536 47.8267 79.7496 48.36C79.0456 48.8827 78.1709 49.144 77.1256 49.144C76.2936 49.144 75.5469 48.9573 74.8856 48.584C74.2349 48.2107 73.7229 47.6827 73.3496 47C72.9762 46.3067 72.7896 45.5067 72.7896 44.6C72.7896 43.6933 72.9709 42.8987 73.3336 42.216C73.6962 41.5333 74.2029 41.0107 74.8536 40.648C75.5149 40.2747 76.2722 40.088 77.1256 40.088C77.9576 40.088 78.6936 40.2693 79.3336 40.632C79.9736 40.9947 80.4642 41.496 80.8056 42.136C81.1576 42.7653 81.3336 43.48 81.3336 44.28ZM79.8296 43.976C79.8296 43.4213 79.7069 42.9467 79.4616 42.552C79.2162 42.1467 78.8802 41.8427 78.4536 41.64C78.0376 41.4267 77.5736 41.32 77.0616 41.32C76.3256 41.32 75.6962 41.5547 75.1736 42.024C74.6616 42.4933 74.3682 43.144 74.2936 43.976H79.8296ZM86.3594 49.144C85.6874 49.144 85.0848 49.032 84.5514 48.808C84.0181 48.5733 83.5968 48.2533 83.2874 47.848C82.9781 47.432 82.8074 46.9573 82.7754 46.424H84.2794C84.3221 46.8613 84.5248 47.2187 84.8874 47.496C85.2608 47.7733 85.7461 47.912 86.3434 47.912C86.8981 47.912 87.3354 47.7893 87.6554 47.544C87.9754 47.2987 88.1354 46.9893 88.1354 46.616C88.1354 46.232 87.9648 45.9493 87.6234 45.768C87.2821 45.576 86.7541 45.3893 86.0394 45.208C85.3888 45.0373 84.8554 44.8667 84.4394 44.696C84.0341 44.5147 83.6821 44.2533 83.3834 43.912C83.0954 43.56 82.9514 43.1013 82.9514 42.536C82.9514 42.088 83.0848 41.6773 83.3514 41.304C83.6181 40.9307 83.9968 40.6373 84.4874 40.424C84.9781 40.2 85.5381 40.088 86.1674 40.088C87.1381 40.088 87.9221 40.3333 88.5194 40.824C89.1168 41.3147 89.4368 41.9867 89.4794 42.84H88.0234C87.9914 42.3813 87.8048 42.0133 87.4634 41.736C87.1328 41.4587 86.6848 41.32 86.1194 41.32C85.5968 41.32 85.1808 41.432 84.8714 41.656C84.5621 41.88 84.4074 42.1733 84.4074 42.536C84.4074 42.824 84.4981 43.064 84.6794 43.256C84.8714 43.4373 85.1061 43.5867 85.3834 43.704C85.6714 43.8107 86.0661 43.9333 86.5674 44.072C87.1968 44.2427 87.7088 44.4133 88.1034 44.584C88.4981 44.744 88.8341 44.9893 89.1114 45.32C89.3994 45.6507 89.5488 46.0827 89.5594 46.616C89.5594 47.096 89.4261 47.528 89.1594 47.912C88.8928 48.296 88.5141 48.6 88.0234 48.824C87.5434 49.0373 86.9888 49.144 86.3594 49.144ZM94.7188 49.144C94.0468 49.144 93.4441 49.032 92.9108 48.808C92.3775 48.5733 91.9561 48.2533 91.6468 47.848C91.3375 47.432 91.1668 46.9573 91.1348 46.424H92.6388C92.6815 46.8613 92.8841 47.2187 93.2468 47.496C93.6201 47.7733 94.1055 47.912 94.7028 47.912C95.2575 47.912 95.6948 47.7893 96.0148 47.544C96.3348 47.2987 96.4948 46.9893 96.4948 46.616C96.4948 46.232 96.3241 45.9493 95.9828 45.768C95.6415 45.576 95.1135 45.3893 94.3988 45.208C93.7481 45.0373 93.2148 44.8667 92.7988 44.696C92.3935 44.5147 92.0415 44.2533 91.7428 43.912C91.4548 43.56 91.3108 43.1013 91.3108 42.536C91.3108 42.088 91.4441 41.6773 91.7108 41.304C91.9775 40.9307 92.3561 40.6373 92.8468 40.424C93.3375 40.2 93.8975 40.088 94.5268 40.088C95.4975 40.088 96.2815 40.3333 96.8788 40.824C97.4761 41.3147 97.7961 41.9867 97.8388 42.84H96.3828C96.3508 42.3813 96.1641 42.0133 95.8228 41.736C95.4921 41.4587 95.0441 41.32 94.4788 41.32C93.9561 41.32 93.5401 41.432 93.2308 41.656C92.9215 41.88 92.7668 42.1733 92.7668 42.536C92.7668 42.824 92.8575 43.064 93.0388 43.256C93.2308 43.4373 93.4655 43.5867 93.7428 43.704C94.0308 43.8107 94.4255 43.9333 94.9268 44.072C95.5561 44.2427 96.0681 44.4133 96.4628 44.584C96.8575 44.744 97.1935 44.9893 97.4708 45.32C97.7588 45.6507 97.9081 46.0827 97.9188 46.616C97.9188 47.096 97.7855 47.528 97.5188 47.912C97.2521 48.296 96.8735 48.6 96.3828 48.824C95.9028 49.0373 95.3481 49.144 94.7188 49.144ZM106.016 41.432V46.6C106.016 47.0267 106.106 47.3307 106.288 47.512C106.469 47.6827 106.784 47.768 107.232 47.768H108.304V49H106.992C106.181 49 105.573 48.8133 105.168 48.44C104.762 48.0667 104.56 47.4533 104.56 46.6V41.432H103.424V40.232H104.56V38.024H106.016V40.232H108.304V41.432H106.016ZM114.42 40.072C115.081 40.072 115.679 40.216 116.212 40.504C116.745 40.7813 117.161 41.2027 117.46 41.768C117.769 42.3333 117.924 43.0213 117.924 43.832V49H116.484V44.04C116.484 43.1653 116.265 42.4987 115.828 42.04C115.391 41.5707 114.793 41.336 114.036 41.336C113.268 41.336 112.655 41.576 112.196 42.056C111.748 42.536 111.524 43.2347 111.524 44.152V49H110.068V37.16H111.524V41.48C111.812 41.032 112.207 40.6853 112.708 40.44C113.22 40.1947 113.791 40.072 114.42 40.072ZM128.302 44.28C128.302 44.5573 128.286 44.8507 128.254 45.16H121.246C121.3 46.024 121.593 46.7013 122.126 47.192C122.67 47.672 123.326 47.912 124.094 47.912C124.724 47.912 125.246 47.768 125.662 47.48C126.089 47.1813 126.388 46.7867 126.558 46.296H128.126C127.892 47.1387 127.422 47.8267 126.718 48.36C126.014 48.8827 125.14 49.144 124.094 49.144C123.262 49.144 122.516 48.9573 121.854 48.584C121.204 48.2107 120.692 47.6827 120.318 47C119.945 46.3067 119.758 45.5067 119.758 44.6C119.758 43.6933 119.94 42.8987 120.302 42.216C120.665 41.5333 121.172 41.0107 121.822 40.648C122.484 40.2747 123.241 40.088 124.094 40.088C124.926 40.088 125.662 40.2693 126.302 40.632C126.942 40.9947 127.433 41.496 127.774 42.136C128.126 42.7653 128.302 43.48 128.302 44.28ZM126.798 43.976C126.798 43.4213 126.676 42.9467 126.43 42.552C126.185 42.1467 125.849 41.8427 125.422 41.64C125.006 41.4267 124.542 41.32 124.03 41.32C123.294 41.32 122.665 41.5547 122.142 42.024C121.63 42.4933 121.337 43.144 121.262 43.976H126.798ZM138.842 40.072C139.503 40.072 140.1 40.216 140.634 40.504C141.167 40.7813 141.583 41.2027 141.882 41.768C142.191 42.3333 142.346 43.0213 142.346 43.832V49H140.906V44.04C140.906 43.1653 140.687 42.4987 140.25 42.04C139.812 41.5707 139.215 41.336 138.458 41.336C137.69 41.336 137.076 41.576 136.618 42.056C136.17 42.536 135.946 43.2347 135.946 44.152V49H134.49V37.16H135.946V41.48C136.234 41.032 136.628 40.6853 137.13 40.44C137.642 40.1947 138.212 40.072 138.842 40.072ZM148.548 49.144C147.727 49.144 146.98 48.9573 146.308 48.584C145.647 48.2107 145.124 47.6827 144.74 47C144.367 46.3067 144.18 45.5067 144.18 44.6C144.18 43.704 144.372 42.9147 144.756 42.232C145.151 41.5387 145.684 41.0107 146.356 40.648C147.028 40.2747 147.78 40.088 148.612 40.088C149.444 40.088 150.196 40.2747 150.868 40.648C151.54 41.0107 152.068 41.5333 152.452 42.216C152.847 42.8987 153.044 43.6933 153.044 44.6C153.044 45.5067 152.842 46.3067 152.436 47C152.042 47.6827 151.503 48.2107 150.82 48.584C150.138 48.9573 149.38 49.144 148.548 49.144ZM148.548 47.864C149.071 47.864 149.562 47.7413 150.02 47.496C150.479 47.2507 150.847 46.8827 151.124 46.392C151.412 45.9013 151.556 45.304 151.556 44.6C151.556 43.896 151.418 43.2987 151.14 42.808C150.863 42.3173 150.5 41.9547 150.052 41.72C149.604 41.4747 149.119 41.352 148.596 41.352C148.063 41.352 147.572 41.4747 147.124 41.72C146.687 41.9547 146.335 42.3173 146.068 42.808C145.802 43.2987 145.668 43.896 145.668 44.6C145.668 45.3147 145.796 45.9173 146.052 46.408C146.319 46.8987 146.671 47.2667 147.108 47.512C147.546 47.7467 148.026 47.864 148.548 47.864ZM165.503 40.072C166.185 40.072 166.793 40.216 167.327 40.504C167.86 40.7813 168.281 41.2027 168.591 41.768C168.9 42.3333 169.055 43.0213 169.055 43.832V49H167.615V44.04C167.615 43.1653 167.396 42.4987 166.959 42.04C166.532 41.5707 165.951 41.336 165.215 41.336C164.457 41.336 163.855 41.5813 163.407 42.072C162.959 42.552 162.735 43.2507 162.735 44.168V49H161.295V44.04C161.295 43.1653 161.076 42.4987 160.639 42.04C160.212 41.5707 159.631 41.336 158.895 41.336C158.137 41.336 157.535 41.5813 157.087 42.072C156.639 42.552 156.415 43.2507 156.415 44.168V49H154.959V40.232H156.415V41.496C156.703 41.0373 157.087 40.6853 157.567 40.44C158.057 40.1947 158.596 40.072 159.183 40.072C159.919 40.072 160.569 40.2373 161.135 40.568C161.7 40.8987 162.121 41.384 162.399 42.024C162.644 41.4053 163.049 40.9253 163.615 40.584C164.18 40.2427 164.809 40.072 165.503 40.072ZM179.443 44.28C179.443 44.5573 179.427 44.8507 179.395 45.16H172.387C172.44 46.024 172.734 46.7013 173.267 47.192C173.811 47.672 174.467 47.912 175.235 47.912C175.864 47.912 176.387 47.768 176.803 47.48C177.23 47.1813 177.528 46.7867 177.699 46.296H179.267C179.032 47.1387 178.563 47.8267 177.859 48.36C177.155 48.8827 176.28 49.144 175.235 49.144C174.403 49.144 173.656 48.9573 172.995 48.584C172.344 48.2107 171.832 47.6827 171.459 47C171.086 46.3067 170.899 45.5067 170.899 44.6C170.899 43.6933 171.08 42.8987 171.443 42.216C171.806 41.5333 172.312 41.0107 172.963 40.648C173.624 40.2747 174.382 40.088 175.235 40.088C176.067 40.088 176.803 40.2693 177.443 40.632C178.083 40.9947 178.574 41.496 178.915 42.136C179.267 42.7653 179.443 43.48 179.443 44.28ZM177.939 43.976C177.939 43.4213 177.816 42.9467 177.571 42.552C177.326 42.1467 176.99 41.8427 176.563 41.64C176.147 41.4267 175.683 41.32 175.171 41.32C174.435 41.32 173.806 41.5547 173.283 42.024C172.771 42.4933 172.478 43.144 172.403 43.976H177.939ZM49.8599 59.864C50.1585 59.3413 50.5959 58.9147 51.1719 58.584C51.7479 58.2533 52.4039 58.088 53.1399 58.088C53.9292 58.088 54.6385 58.2747 55.2679 58.648C55.8972 59.0213 56.3932 59.5493 56.7559 60.232C57.1185 60.904 57.2999 61.688 57.2999 62.584C57.2999 63.4693 57.1185 64.2587 56.7559 64.952C56.3932 65.6453 55.8919 66.184 55.2519 66.568C54.6225 66.952 53.9185 67.144 53.1399 67.144C52.3825 67.144 51.7159 66.9787 51.1399 66.648C50.5745 66.3173 50.1479 65.896 49.8599 65.384V67H48.4039V55.16H49.8599V59.864ZM55.8119 62.584C55.8119 61.9227 55.6785 61.3467 55.4119 60.856C55.1452 60.3653 54.7825 59.992 54.3239 59.736C53.8759 59.48 53.3799 59.352 52.8359 59.352C52.3025 59.352 51.8065 59.4853 51.3479 59.752C50.8999 60.008 50.5372 60.3867 50.2599 60.888C49.9932 61.3787 49.8599 61.9493 49.8599 62.6C49.8599 63.2613 49.9932 63.8427 50.2599 64.344C50.5372 64.8347 50.8999 65.2133 51.3479 65.48C51.8065 65.736 52.3025 65.864 52.8359 65.864C53.3799 65.864 53.8759 65.736 54.3239 65.48C54.7825 65.2133 55.1452 64.8347 55.4119 64.344C55.6785 63.8427 55.8119 63.256 55.8119 62.584ZM66.9924 58.232V67H65.5364V65.704C65.259 66.152 64.8697 66.504 64.3684 66.76C63.8777 67.0053 63.3337 67.128 62.7364 67.128C62.0537 67.128 61.4404 66.9893 60.8964 66.712C60.3524 66.424 59.9204 65.9973 59.6004 65.432C59.291 64.8667 59.1364 64.1787 59.1364 63.368V58.232H60.5764V63.176C60.5764 64.04 60.795 64.7067 61.2324 65.176C61.6697 65.6347 62.267 65.864 63.0244 65.864C63.803 65.864 64.4164 65.624 64.8644 65.144C65.3124 64.664 65.5364 63.9653 65.5364 63.048V58.232H66.9924ZM71.2268 59.432V64.6C71.2268 65.0267 71.3174 65.3307 71.4988 65.512C71.6801 65.6827 71.9948 65.768 72.4427 65.768H73.5148V67H72.2028C71.3921 67 70.7841 66.8133 70.3788 66.44C69.9734 66.0667 69.7708 65.4533 69.7708 64.6V59.432H68.6348V58.232H69.7708V56.024H71.2268V58.232H73.5148V59.432H71.2268ZM77.0549 59.432V64.6C77.0549 65.0267 77.1455 65.3307 77.3269 65.512C77.5082 65.6827 77.8229 65.768 78.2709 65.768H79.3429V67H78.0309C77.2202 67 76.6122 66.8133 76.2069 66.44C75.8015 66.0667 75.5989 65.4533 75.5989 64.6V59.432H74.4629V58.232H75.5989V56.024H77.0549V58.232H79.3429V59.432H77.0549ZM84.931 67.144C84.1097 67.144 83.363 66.9573 82.691 66.584C82.0297 66.2107 81.507 65.6827 81.123 65C80.7497 64.3067 80.563 63.5067 80.563 62.6C80.563 61.704 80.755 60.9147 81.139 60.232C81.5337 59.5387 82.067 59.0107 82.739 58.648C83.411 58.2747 84.163 58.088 84.995 58.088C85.827 58.088 86.579 58.2747 87.251 58.648C87.923 59.0107 88.451 59.5333 88.835 60.216C89.2297 60.8987 89.427 61.6933 89.427 62.6C89.427 63.5067 89.2243 64.3067 88.819 65C88.4243 65.6827 87.8857 66.2107 87.203 66.584C86.5203 66.9573 85.763 67.144 84.931 67.144ZM84.931 65.864C85.4537 65.864 85.9443 65.7413 86.403 65.496C86.8617 65.2507 87.2297 64.8827 87.507 64.392C87.795 63.9013 87.939 63.304 87.939 62.6C87.939 61.896 87.8003 61.2987 87.523 60.808C87.2457 60.3173 86.883 59.9547 86.435 59.72C85.987 59.4747 85.5017 59.352 84.979 59.352C84.4457 59.352 83.955 59.4747 83.507 59.72C83.0697 59.9547 82.7177 60.3173 82.451 60.808C82.1843 61.2987 82.051 61.896 82.051 62.6C82.051 63.3147 82.179 63.9173 82.435 64.408C82.7017 64.8987 83.0537 65.2667 83.491 65.512C83.9283 65.7467 84.4083 65.864 84.931 65.864ZM95.6134 58.072C96.68 58.072 97.544 58.3973 98.2054 59.048C98.8667 59.688 99.1974 60.616 99.1974 61.832V67H97.7574V62.04C97.7574 61.1653 97.5387 60.4987 97.1014 60.04C96.664 59.5707 96.0667 59.336 95.3094 59.336C94.5414 59.336 93.928 59.576 93.4694 60.056C93.0214 60.536 92.7974 61.2347 92.7974 62.152V67H91.3414V58.232H92.7974V59.48C93.0854 59.032 93.4747 58.6853 93.9654 58.44C94.4667 58.1947 95.016 58.072 95.6134 58.072ZM107.617 59.432V64.6C107.617 65.0267 107.708 65.3307 107.889 65.512C108.071 65.6827 108.385 65.768 108.833 65.768H109.905V67H108.593C107.783 67 107.175 66.8133 106.769 66.44C106.364 66.0667 106.161 65.4533 106.161 64.6V59.432H105.025V58.232H106.161V56.024H107.617V58.232H109.905V59.432H107.617ZM115.494 67.144C114.672 67.144 113.926 66.9573 113.254 66.584C112.592 66.2107 112.07 65.6827 111.686 65C111.312 64.3067 111.126 63.5067 111.126 62.6C111.126 61.704 111.318 60.9147 111.702 60.232C112.096 59.5387 112.63 59.0107 113.302 58.648C113.974 58.2747 114.726 58.088 115.558 58.088C116.39 58.088 117.142 58.2747 117.814 58.648C118.486 59.0107 119.014 59.5333 119.398 60.216C119.792 60.8987 119.99 61.6933 119.99 62.6C119.99 63.5067 119.787 64.3067 119.382 65C118.987 65.6827 118.448 66.2107 117.766 66.584C117.083 66.9573 116.326 67.144 115.494 67.144ZM115.494 65.864C116.016 65.864 116.507 65.7413 116.966 65.496C117.424 65.2507 117.792 64.8827 118.07 64.392C118.358 63.9013 118.502 63.304 118.502 62.6C118.502 61.896 118.363 61.2987 118.086 60.808C117.808 60.3173 117.446 59.9547 116.998 59.72C116.55 59.4747 116.064 59.352 115.542 59.352C115.008 59.352 114.518 59.4747 114.07 59.72C113.632 59.9547 113.28 60.3173 113.014 60.808C112.747 61.2987 112.614 61.896 112.614 62.6C112.614 63.3147 112.742 63.9173 112.998 64.408C113.264 64.8987 113.616 65.2667 114.054 65.512C114.491 65.7467 114.971 65.864 115.494 65.864ZM129.786 58.088C130.543 58.088 131.204 58.2533 131.77 58.584C132.346 58.9147 132.772 59.3307 133.05 59.832V58.232H134.522V67.192C134.522 67.992 134.351 68.7013 134.01 69.32C133.668 69.9493 133.178 70.44 132.538 70.792C131.908 71.144 131.172 71.32 130.33 71.32C129.178 71.32 128.218 71.048 127.45 70.504C126.682 69.96 126.228 69.2187 126.09 68.28H127.53C127.69 68.8133 128.02 69.24 128.522 69.56C129.023 69.8907 129.626 70.056 130.33 70.056C131.13 70.056 131.78 69.8053 132.282 69.304C132.794 68.8027 133.05 68.0987 133.05 67.192V65.352C132.762 65.864 132.335 66.2907 131.77 66.632C131.204 66.9733 130.543 67.144 129.786 67.144C129.007 67.144 128.298 66.952 127.658 66.568C127.028 66.184 126.532 65.6453 126.17 64.952C125.807 64.2587 125.626 63.4693 125.626 62.584C125.626 61.688 125.807 60.904 126.17 60.232C126.532 59.5493 127.028 59.0213 127.658 58.648C128.298 58.2747 129.007 58.088 129.786 58.088ZM133.05 62.6C133.05 61.9387 132.916 61.3627 132.65 60.872C132.383 60.3813 132.02 60.008 131.562 59.752C131.114 59.4853 130.618 59.352 130.074 59.352C129.53 59.352 129.034 59.48 128.586 59.736C128.138 59.992 127.78 60.3653 127.514 60.856C127.247 61.3467 127.114 61.9227 127.114 62.584C127.114 63.256 127.247 63.8427 127.514 64.344C127.78 64.8347 128.138 65.2133 128.586 65.48C129.034 65.736 129.53 65.864 130.074 65.864C130.618 65.864 131.114 65.736 131.562 65.48C132.02 65.2133 132.383 64.8347 132.65 64.344C132.916 63.8427 133.05 63.2613 133.05 62.6ZM140.806 67.144C139.985 67.144 139.238 66.9573 138.566 66.584C137.905 66.2107 137.382 65.6827 136.998 65C136.625 64.3067 136.438 63.5067 136.438 62.6C136.438 61.704 136.63 60.9147 137.014 60.232C137.409 59.5387 137.942 59.0107 138.614 58.648C139.286 58.2747 140.038 58.088 140.87 58.088C141.702 58.088 142.454 58.2747 143.126 58.648C143.798 59.0107 144.326 59.5333 144.71 60.216C145.105 60.8987 145.302 61.6933 145.302 62.6C145.302 63.5067 145.099 64.3067 144.694 65C144.299 65.6827 143.761 66.2107 143.078 66.584C142.395 66.9573 141.638 67.144 140.806 67.144ZM140.806 65.864C141.329 65.864 141.819 65.7413 142.278 65.496C142.737 65.2507 143.105 64.8827 143.382 64.392C143.67 63.9013 143.814 63.304 143.814 62.6C143.814 61.896 143.675 61.2987 143.398 60.808C143.121 60.3173 142.758 59.9547 142.31 59.72C141.862 59.4747 141.377 59.352 140.854 59.352C140.321 59.352 139.83 59.4747 139.382 59.72C138.945 59.9547 138.593 60.3173 138.326 60.808C138.059 61.2987 137.926 61.896 137.926 62.6C137.926 63.3147 138.054 63.9173 138.31 64.408C138.577 64.8987 138.929 65.2667 139.366 65.512C139.803 65.7467 140.283 65.864 140.806 65.864ZM152.938 59.864C153.237 59.3413 153.674 58.9147 154.25 58.584C154.826 58.2533 155.482 58.088 156.218 58.088C157.007 58.088 157.717 58.2747 158.346 58.648C158.975 59.0213 159.471 59.5493 159.834 60.232C160.197 60.904 160.378 61.688 160.378 62.584C160.378 63.4693 160.197 64.2587 159.834 64.952C159.471 65.6453 158.97 66.184 158.33 66.568C157.701 66.952 156.997 67.144 156.218 67.144C155.461 67.144 154.794 66.9787 154.218 66.648C153.653 66.3173 153.226 65.896 152.938 65.384V67H151.482V55.16H152.938V59.864ZM158.89 62.584C158.89 61.9227 158.757 61.3467 158.49 60.856C158.223 60.3653 157.861 59.992 157.402 59.736C156.954 59.48 156.458 59.352 155.914 59.352C155.381 59.352 154.885 59.4853 154.426 59.752C153.978 60.008 153.615 60.3867 153.338 60.888C153.071 61.3787 152.938 61.9493 152.938 62.6C152.938 63.2613 153.071 63.8427 153.338 64.344C153.615 64.8347 153.978 65.2133 154.426 65.48C154.885 65.736 155.381 65.864 155.914 65.864C156.458 65.864 156.954 65.736 157.402 65.48C157.861 65.2133 158.223 64.8347 158.49 64.344C158.757 63.8427 158.89 63.256 158.89 62.584ZM161.751 62.584C161.751 61.688 161.932 60.904 162.295 60.232C162.657 59.5493 163.153 59.0213 163.783 58.648C164.423 58.2747 165.132 58.088 165.911 58.088C166.679 58.088 167.345 58.2533 167.911 58.584C168.476 58.9147 168.897 59.3307 169.175 59.832V58.232H170.647V67H169.175V65.368C168.887 65.88 168.455 66.3067 167.879 66.648C167.313 66.9787 166.652 67.144 165.895 67.144C165.116 67.144 164.412 66.952 163.783 66.568C163.153 66.184 162.657 65.6453 162.295 64.952C161.932 64.2587 161.751 63.4693 161.751 62.584ZM169.175 62.6C169.175 61.9387 169.041 61.3627 168.775 60.872C168.508 60.3813 168.145 60.008 167.687 59.752C167.239 59.4853 166.743 59.352 166.199 59.352C165.655 59.352 165.159 59.48 164.711 59.736C164.263 59.992 163.905 60.3653 163.639 60.856C163.372 61.3467 163.239 61.9227 163.239 62.584C163.239 63.256 163.372 63.8427 163.639 64.344C163.905 64.8347 164.263 65.2133 164.711 65.48C165.159 65.736 165.655 65.864 166.199 65.864C166.743 65.864 167.239 65.736 167.687 65.48C168.145 65.2133 168.508 64.8347 168.775 64.344C169.041 63.8427 169.175 63.2613 169.175 62.6ZM172.563 62.6C172.563 61.6933 172.744 60.904 173.107 60.232C173.47 59.5493 173.971 59.0213 174.611 58.648C175.262 58.2747 176.003 58.088 176.835 58.088C177.912 58.088 178.798 58.3493 179.491 58.872C180.195 59.3947 180.659 60.12 180.883 61.048H179.315C179.166 60.5147 178.872 60.0933 178.435 59.784C178.008 59.4747 177.475 59.32 176.835 59.32C176.003 59.32 175.331 59.608 174.819 60.184C174.307 60.7493 174.051 61.5547 174.051 62.6C174.051 63.656 174.307 64.472 174.819 65.048C175.331 65.624 176.003 65.912 176.835 65.912C177.475 65.912 178.008 65.7627 178.435 65.464C178.862 65.1653 179.155 64.7387 179.315 64.184H180.883C180.648 65.08 180.179 65.8 179.475 66.344C178.771 66.8773 177.891 67.144 176.835 67.144C176.003 67.144 175.262 66.9573 174.611 66.584C173.971 66.2107 173.47 65.6827 173.107 65C172.744 64.3173 172.563 63.5173 172.563 62.6ZM187.722 67L184.282 63.128V67H182.826V55.16H184.282V62.12L187.658 58.232H189.69L185.562 62.6L189.706 67H187.722ZM49.4689 77.432V82.6C49.4689 83.0267 49.5596 83.3307 49.7409 83.512C49.9223 83.6827 50.2369 83.768 50.6849 83.768H51.7569V85H50.4449C49.6343 85 49.0263 84.8133 48.6209 84.44C48.2156 84.0667 48.0129 83.4533 48.0129 82.6V77.432H46.8769V76.232H48.0129V74.024H49.4689V76.232H51.7569V77.432H49.4689ZM57.3451 85.144C56.5237 85.144 55.7771 84.9573 55.1051 84.584C54.4437 84.2107 53.9211 83.6827 53.5371 83C53.1637 82.3067 52.9771 81.5067 52.9771 80.6C52.9771 79.704 53.1691 78.9147 53.5531 78.232C53.9477 77.5387 54.4811 77.0107 55.1531 76.648C55.8251 76.2747 56.5771 76.088 57.4091 76.088C58.2411 76.088 58.9931 76.2747 59.6651 76.648C60.3371 77.0107 60.8651 77.5333 61.2491 78.216C61.6437 78.8987 61.8411 79.6933 61.8411 80.6C61.8411 81.5067 61.6384 82.3067 61.2331 83C60.8384 83.6827 60.2997 84.2107 59.6171 84.584C58.9344 84.9573 58.1771 85.144 57.3451 85.144ZM57.3451 83.864C57.8677 83.864 58.3584 83.7413 58.8171 83.496C59.2757 83.2507 59.6437 82.8827 59.9211 82.392C60.2091 81.9013 60.3531 81.304 60.3531 80.6C60.3531 79.896 60.2144 79.2987 59.9371 78.808C59.6597 78.3173 59.2971 77.9547 58.8491 77.72C58.4011 77.4747 57.9157 77.352 57.3931 77.352C56.8597 77.352 56.3691 77.4747 55.9211 77.72C55.4837 77.9547 55.1317 78.3173 54.8651 78.808C54.5984 79.2987 54.4651 79.896 54.4651 80.6C54.4651 81.3147 54.5931 81.9173 54.8491 82.408C55.1157 82.8987 55.4677 83.2667 55.9051 83.512C56.3424 83.7467 56.8224 83.864 57.3451 83.864ZM69.7971 77.432V82.6C69.7971 83.0267 69.8877 83.3307 70.0691 83.512C70.2504 83.6827 70.5651 83.768 71.0131 83.768H72.0851V85H70.7731C69.9624 85 69.3544 84.8133 68.9491 84.44C68.5437 84.0667 68.3411 83.4533 68.3411 82.6V77.432H67.2051V76.232H68.3411V74.024H69.7971V76.232H72.0851V77.432H69.7971ZM78.2012 76.072C78.8625 76.072 79.4599 76.216 79.9932 76.504C80.5265 76.7813 80.9425 77.2027 81.2412 77.768C81.5505 78.3333 81.7052 79.0213 81.7052 79.832V85H80.2652V80.04C80.2652 79.1653 80.0465 78.4987 79.6092 78.04C79.1719 77.5707 78.5745 77.336 77.8172 77.336C77.0492 77.336 76.4359 77.576 75.9772 78.056C75.5292 78.536 75.3052 79.2347 75.3052 80.152V85H73.8492V73.16H75.3052V77.48C75.5932 77.032 75.9879 76.6853 76.4892 76.44C77.0012 76.1947 77.5719 76.072 78.2012 76.072ZM92.0836 80.28C92.0836 80.5573 92.0676 80.8507 92.0356 81.16H85.0276C85.0809 82.024 85.3742 82.7013 85.9076 83.192C86.4516 83.672 87.1076 83.912 87.8756 83.912C88.5049 83.912 89.0276 83.768 89.4436 83.48C89.8702 83.1813 90.1689 82.7867 90.3396 82.296H91.9076C91.6729 83.1387 91.2036 83.8267 90.4996 84.36C89.7956 84.8827 88.9209 85.144 87.8756 85.144C87.0436 85.144 86.2969 84.9573 85.6356 84.584C84.9849 84.2107 84.4729 83.6827 84.0996 83C83.7262 82.3067 83.5396 81.5067 83.5396 80.6C83.5396 79.6933 83.7209 78.8987 84.0836 78.216C84.4462 77.5333 84.9529 77.0107 85.6036 76.648C86.2649 76.2747 87.0222 76.088 87.8756 76.088C88.7076 76.088 89.4436 76.2693 90.0836 76.632C90.7236 76.9947 91.2142 77.496 91.5556 78.136C91.9076 78.7653 92.0836 79.48 92.0836 80.28ZM90.5796 79.976C90.5796 79.4213 90.4569 78.9467 90.2116 78.552C89.9662 78.1467 89.6302 77.8427 89.2036 77.64C88.7876 77.4267 88.3236 77.32 87.8116 77.32C87.0756 77.32 86.4462 77.5547 85.9236 78.024C85.4116 78.4933 85.1182 79.144 85.0436 79.976H90.5796ZM102.623 76.072C103.284 76.072 103.882 76.216 104.415 76.504C104.948 76.7813 105.364 77.2027 105.663 77.768C105.972 78.3333 106.127 79.0213 106.127 79.832V85H104.687V80.04C104.687 79.1653 104.468 78.4987 104.031 78.04C103.594 77.5707 102.996 77.336 102.239 77.336C101.471 77.336 100.858 77.576 100.399 78.056C99.9511 78.536 99.7271 79.2347 99.7271 80.152V85H98.2711V73.16H99.7271V77.48C100.015 77.032 100.41 76.6853 100.911 76.44C101.423 76.1947 101.994 76.072 102.623 76.072ZM112.329 85.144C111.508 85.144 110.761 84.9573 110.089 84.584C109.428 84.2107 108.905 83.6827 108.521 83C108.148 82.3067 107.961 81.5067 107.961 80.6C107.961 79.704 108.153 78.9147 108.537 78.232C108.932 77.5387 109.465 77.0107 110.137 76.648C110.809 76.2747 111.561 76.088 112.393 76.088C113.225 76.088 113.977 76.2747 114.649 76.648C115.321 77.0107 115.849 77.5333 116.233 78.216C116.628 78.8987 116.825 79.6933 116.825 80.6C116.825 81.5067 116.623 82.3067 116.217 83C115.823 83.6827 115.284 84.2107 114.601 84.584C113.919 84.9573 113.161 85.144 112.329 85.144ZM112.329 83.864C112.852 83.864 113.343 83.7413 113.801 83.496C114.26 83.2507 114.628 82.8827 114.905 82.392C115.193 81.9013 115.337 81.304 115.337 80.6C115.337 79.896 115.199 79.2987 114.921 78.808C114.644 78.3173 114.281 77.9547 113.833 77.72C113.385 77.4747 112.9 77.352 112.377 77.352C111.844 77.352 111.353 77.4747 110.905 77.72C110.468 77.9547 110.116 78.3173 109.849 78.808C109.583 79.2987 109.449 79.896 109.449 80.6C109.449 81.3147 109.577 81.9173 109.833 82.408C110.1 82.8987 110.452 83.2667 110.889 83.512C111.327 83.7467 111.807 83.864 112.329 83.864ZM129.284 76.072C129.966 76.072 130.574 76.216 131.108 76.504C131.641 76.7813 132.062 77.2027 132.372 77.768C132.681 78.3333 132.836 79.0213 132.836 79.832V85H131.396V80.04C131.396 79.1653 131.177 78.4987 130.74 78.04C130.313 77.5707 129.732 77.336 128.996 77.336C128.238 77.336 127.636 77.5813 127.188 78.072C126.74 78.552 126.516 79.2507 126.516 80.168V85H125.076V80.04C125.076 79.1653 124.857 78.4987 124.42 78.04C123.993 77.5707 123.412 77.336 122.676 77.336C121.918 77.336 121.316 77.5813 120.868 78.072C120.42 78.552 120.196 79.2507 120.196 80.168V85H118.74V76.232H120.196V77.496C120.484 77.0373 120.868 76.6853 121.348 76.44C121.838 76.1947 122.377 76.072 122.964 76.072C123.7 76.072 124.35 76.2373 124.916 76.568C125.481 76.8987 125.902 77.384 126.18 78.024C126.425 77.4053 126.83 76.9253 127.396 76.584C127.961 76.2427 128.59 76.072 129.284 76.072ZM143.224 80.28C143.224 80.5573 143.208 80.8507 143.176 81.16H136.168C136.222 82.024 136.515 82.7013 137.048 83.192C137.592 83.672 138.248 83.912 139.016 83.912C139.646 83.912 140.168 83.768 140.584 83.48C141.011 83.1813 141.31 82.7867 141.48 82.296H143.048C142.814 83.1387 142.344 83.8267 141.64 84.36C140.936 84.8827 140.062 85.144 139.016 85.144C138.184 85.144 137.438 84.9573 136.776 84.584C136.126 84.2107 135.614 83.6827 135.24 83C134.867 82.3067 134.68 81.5067 134.68 80.6C134.68 79.6933 134.862 78.8987 135.224 78.216C135.587 77.5333 136.094 77.0107 136.744 76.648C137.406 76.2747 138.163 76.088 139.016 76.088C139.848 76.088 140.584 76.2693 141.224 76.632C141.864 76.9947 142.355 77.496 142.696 78.136C143.048 78.7653 143.224 79.48 143.224 80.28ZM141.72 79.976C141.72 79.4213 141.598 78.9467 141.352 78.552C141.107 78.1467 140.771 77.8427 140.344 77.64C139.928 77.4267 139.464 77.32 138.952 77.32C138.216 77.32 137.587 77.5547 137.064 78.024C136.552 78.4933 136.259 79.144 136.184 79.976H141.72ZM150.868 77.848C151.156 77.3467 151.582 76.9307 152.148 76.6C152.724 76.2587 153.39 76.088 154.148 76.088C154.926 76.088 155.63 76.2747 156.26 76.648C156.9 77.0213 157.401 77.5493 157.764 78.232C158.126 78.904 158.308 79.688 158.308 80.584C158.308 81.4693 158.126 82.2587 157.764 82.952C157.401 83.6453 156.9 84.184 156.26 84.568C155.63 84.952 154.926 85.144 154.148 85.144C153.401 85.144 152.74 84.9787 152.164 84.648C151.598 84.3067 151.166 83.8853 150.868 83.384V89.16H149.412V76.232H150.868V77.848ZM156.82 80.584C156.82 79.9227 156.686 79.3467 156.42 78.856C156.153 78.3653 155.79 77.992 155.332 77.736C154.884 77.48 154.388 77.352 153.844 77.352C153.31 77.352 152.814 77.4853 152.356 77.752C151.908 78.008 151.545 78.3867 151.268 78.888C151.001 79.3787 150.868 79.9493 150.868 80.6C150.868 81.2613 151.001 81.8427 151.268 82.344C151.545 82.8347 151.908 83.2133 152.356 83.48C152.814 83.736 153.31 83.864 153.844 83.864C154.388 83.864 154.884 83.736 155.332 83.48C155.79 83.2133 156.153 82.8347 156.42 82.344C156.686 81.8427 156.82 81.256 156.82 80.584ZM159.68 80.584C159.68 79.688 159.862 78.904 160.224 78.232C160.587 77.5493 161.083 77.0213 161.712 76.648C162.352 76.2747 163.062 76.088 163.84 76.088C164.608 76.088 165.275 76.2533 165.84 76.584C166.406 76.9147 166.827 77.3307 167.104 77.832V76.232H168.576V85H167.104V83.368C166.816 83.88 166.384 84.3067 165.808 84.648C165.243 84.9787 164.582 85.144 163.824 85.144C163.046 85.144 162.342 84.952 161.712 84.568C161.083 84.184 160.587 83.6453 160.224 82.952C159.862 82.2587 159.68 81.4693 159.68 80.584ZM167.104 80.6C167.104 79.9387 166.971 79.3627 166.704 78.872C166.438 78.3813 166.075 78.008 165.616 77.752C165.168 77.4853 164.672 77.352 164.128 77.352C163.584 77.352 163.088 77.48 162.64 77.736C162.192 77.992 161.835 78.3653 161.568 78.856C161.302 79.3467 161.168 79.9227 161.168 80.584C161.168 81.256 161.302 81.8427 161.568 82.344C161.835 82.8347 162.192 83.2133 162.64 83.48C163.088 83.736 163.584 83.864 164.128 83.864C164.672 83.864 165.168 83.736 165.616 83.48C166.075 83.2133 166.438 82.8347 166.704 82.344C166.971 81.8427 167.104 81.2613 167.104 80.6ZM174.653 76.088C175.41 76.088 176.071 76.2533 176.637 76.584C177.213 76.9147 177.639 77.3307 177.917 77.832V76.232H179.389V85.192C179.389 85.992 179.218 86.7013 178.877 87.32C178.535 87.9493 178.045 88.44 177.405 88.792C176.775 89.144 176.039 89.32 175.197 89.32C174.045 89.32 173.085 89.048 172.317 88.504C171.549 87.96 171.095 87.2187 170.957 86.28H172.397C172.557 86.8133 172.887 87.24 173.389 87.56C173.89 87.8907 174.493 88.056 175.197 88.056C175.997 88.056 176.647 87.8053 177.149 87.304C177.661 86.8027 177.917 86.0987 177.917 85.192V83.352C177.629 83.864 177.202 84.2907 176.637 84.632C176.071 84.9733 175.41 85.144 174.653 85.144C173.874 85.144 173.165 84.952 172.525 84.568C171.895 84.184 171.399 83.6453 171.037 82.952C170.674 82.2587 170.493 81.4693 170.493 80.584C170.493 79.688 170.674 78.904 171.037 78.232C171.399 77.5493 171.895 77.0213 172.525 76.648C173.165 76.2747 173.874 76.088 174.653 76.088ZM177.917 80.6C177.917 79.9387 177.783 79.3627 177.517 78.872C177.25 78.3813 176.887 78.008 176.429 77.752C175.981 77.4853 175.485 77.352 174.941 77.352C174.397 77.352 173.901 77.48 173.453 77.736C173.005 77.992 172.647 78.3653 172.381 78.856C172.114 79.3467 171.981 79.9227 171.981 80.584C171.981 81.256 172.114 81.8427 172.381 82.344C172.647 82.8347 173.005 83.2133 173.453 83.48C173.901 83.736 174.397 83.864 174.941 83.864C175.485 83.864 175.981 83.736 176.429 83.48C176.887 83.2133 177.25 82.8347 177.517 82.344C177.783 81.8427 177.917 81.2613 177.917 80.6ZM189.849 80.28C189.849 80.5573 189.833 80.8507 189.801 81.16H182.793C182.847 82.024 183.14 82.7013 183.673 83.192C184.217 83.672 184.873 83.912 185.641 83.912C186.271 83.912 186.793 83.768 187.209 83.48C187.636 83.1813 187.935 82.7867 188.105 82.296H189.673C189.439 83.1387 188.969 83.8267 188.265 84.36C187.561 84.8827 186.687 85.144 185.641 85.144C184.809 85.144 184.063 84.9573 183.401 84.584C182.751 84.2107 182.239 83.6827 181.865 83C181.492 82.3067 181.305 81.5067 181.305 80.6C181.305 79.6933 181.487 78.8987 181.849 78.216C182.212 77.5333 182.719 77.0107 183.369 76.648C184.031 76.2747 184.788 76.088 185.641 76.088C186.473 76.088 187.209 76.2693 187.849 76.632C188.489 76.9947 188.98 77.496 189.321 78.136C189.673 78.7653 189.849 79.48 189.849 80.28ZM188.345 79.976C188.345 79.4213 188.223 78.9467 187.977 78.552C187.732 78.1467 187.396 77.8427 186.969 77.64C186.553 77.4267 186.089 77.32 185.577 77.32C184.841 77.32 184.212 77.5547 183.689 78.024C183.177 78.4933 182.884 79.144 182.809 79.976H188.345Z" fill="#B0F7EF"/>
</svg>
