<svg width="191" height="142" viewBox="0 0 191 142" fill="none" xmlns="http://www.w3.org/2000/svg">
<path d="M144.59 139.483C144.284 140.35 143.068 140.38 142.721 139.528L127.563 102.378C127.295 101.72 127.778 101 128.489 101L156.764 101C157.454 101 157.937 101.682 157.707 102.333L144.59 139.483Z" fill="#2E4F72"/>
<path d="M0 40C0 17.9086 17.9086 0 40 0H151C173.091 0 191 17.9086 191 40V62C191 84.0914 173.091 102 151 102H40C17.9086 102 0 84.0914 0 62V40Z" fill="#2E4F72"/>
<path d="M34.4224 41.416C34.4224 40.328 34.6677 39.352 35.1584 38.488C35.649 37.6133 36.3157 36.9307 37.1584 36.44C38.0117 35.9493 38.9557 35.704 39.9904 35.704C41.2064 35.704 42.2677 35.9973 43.1744 36.584C44.081 37.1707 44.7424 38.0027 45.1584 39.08H43.4144C43.105 38.408 42.657 37.8907 42.0704 37.528C41.4944 37.1653 40.801 36.984 39.9904 36.984C39.2117 36.984 38.513 37.1653 37.8944 37.528C37.2757 37.8907 36.7904 38.408 36.4384 39.08C36.0864 39.7413 35.9104 40.52 35.9104 41.416C35.9104 42.3013 36.0864 43.08 36.4384 43.752C36.7904 44.4133 37.2757 44.9253 37.8944 45.288C38.513 45.6507 39.2117 45.832 39.9904 45.832C40.801 45.832 41.4944 45.656 42.0704 45.304C42.657 44.9413 43.105 44.424 43.4144 43.752H45.1584C44.7424 44.8187 44.081 45.6453 43.1744 46.232C42.2677 46.808 41.2064 47.096 39.9904 47.096C38.9557 47.096 38.0117 46.856 37.1584 46.376C36.3157 45.8853 35.649 45.208 35.1584 44.344C34.6677 43.48 34.4224 42.504 34.4224 41.416ZM48.7818 35.16V47H47.3258V35.16H48.7818ZM52.0153 36.808C51.7379 36.808 51.5033 36.712 51.3113 36.52C51.1193 36.328 51.0233 36.0933 51.0233 35.816C51.0233 35.5387 51.1193 35.304 51.3113 35.112C51.5033 34.92 51.7379 34.824 52.0153 34.824C52.2819 34.824 52.5059 34.92 52.6873 35.112C52.8793 35.304 52.9753 35.5387 52.9753 35.816C52.9753 36.0933 52.8793 36.328 52.6873 36.52C52.5059 36.712 52.2819 36.808 52.0153 36.808ZM52.7193 38.232V47H51.2633V38.232H52.7193ZM54.6568 42.6C54.6568 41.6933 54.8381 40.904 55.2008 40.232C55.5634 39.5493 56.0648 39.0213 56.7048 38.648C57.3554 38.2747 58.0968 38.088 58.9288 38.088C60.0061 38.088 60.8914 38.3493 61.5848 38.872C62.2888 39.3947 62.7528 40.12 62.9768 41.048H61.4088C61.2594 40.5147 60.9661 40.0933 60.5288 39.784C60.1021 39.4747 59.5688 39.32 58.9288 39.32C58.0968 39.32 57.4248 39.608 56.9128 40.184C56.4008 40.7493 56.1448 41.5547 56.1448 42.6C56.1448 43.656 56.4008 44.472 56.9128 45.048C57.4248 45.624 58.0968 45.912 58.9288 45.912C59.5688 45.912 60.1021 45.7627 60.5288 45.464C60.9554 45.1653 61.2488 44.7387 61.4088 44.184H62.9768C62.7421 45.08 62.2728 45.8 61.5688 46.344C60.8648 46.8773 59.9848 47.144 58.9288 47.144C58.0968 47.144 57.3554 46.9573 56.7048 46.584C56.0648 46.2107 55.5634 45.6827 55.2008 45C54.8381 44.3173 54.6568 43.5173 54.6568 42.6ZM69.8155 47L66.3755 43.128V47H64.9195V35.16H66.3755V42.12L69.7515 38.232H71.7835L67.6555 42.6L71.7995 47H69.8155ZM79.1955 39.432V44.6C79.1955 45.0267 79.2862 45.3307 79.4675 45.512C79.6488 45.6827 79.9635 45.768 80.4115 45.768H81.4835V47H80.1715C79.3608 47 78.7528 46.8133 78.3475 46.44C77.9422 46.0667 77.7395 45.4533 77.7395 44.6V39.432H76.6035V38.232H77.7395V36.024H79.1955V38.232H81.4835V39.432H79.1955ZM87.5996 38.072C88.261 38.072 88.8583 38.216 89.3916 38.504C89.925 38.7813 90.341 39.2027 90.6396 39.768C90.949 40.3333 91.1036 41.0213 91.1036 41.832V47H89.6636V42.04C89.6636 41.1653 89.445 40.4987 89.0076 40.04C88.5703 39.5707 87.973 39.336 87.2156 39.336C86.4476 39.336 85.8343 39.576 85.3756 40.056C84.9276 40.536 84.7036 41.2347 84.7036 42.152V47H83.2476V35.16H84.7036V39.48C84.9916 39.032 85.3863 38.6853 85.8876 38.44C86.3996 38.1947 86.9703 38.072 87.5996 38.072ZM101.482 42.28C101.482 42.5573 101.466 42.8507 101.434 43.16H94.426C94.4793 44.024 94.7727 44.7013 95.306 45.192C95.85 45.672 96.506 45.912 97.274 45.912C97.9033 45.912 98.426 45.768 98.842 45.48C99.2687 45.1813 99.5673 44.7867 99.738 44.296H101.306C101.071 45.1387 100.602 45.8267 99.898 46.36C99.194 46.8827 98.3193 47.144 97.274 47.144C96.442 47.144 95.6953 46.9573 95.034 46.584C94.3833 46.2107 93.8713 45.6827 93.498 45C93.1247 44.3067 92.938 43.5067 92.938 42.6C92.938 41.6933 93.1193 40.8987 93.482 40.216C93.8447 39.5333 94.3513 39.0107 95.002 38.648C95.6633 38.2747 96.4207 38.088 97.274 38.088C98.106 38.088 98.842 38.2693 99.482 38.632C100.122 38.9947 100.613 39.496 100.954 40.136C101.306 40.7653 101.482 41.48 101.482 42.28ZM99.978 41.976C99.978 41.4213 99.8553 40.9467 99.61 40.552C99.3647 40.1467 99.0287 39.8427 98.602 39.64C98.186 39.4267 97.722 39.32 97.21 39.32C96.474 39.32 95.8447 39.5547 95.322 40.024C94.81 40.4933 94.5167 41.144 94.442 41.976H99.978ZM107.126 42.6C107.126 41.6933 107.307 40.904 107.67 40.232C108.032 39.5493 108.534 39.0213 109.174 38.648C109.824 38.2747 110.566 38.088 111.398 38.088C112.475 38.088 113.36 38.3493 114.054 38.872C114.758 39.3947 115.222 40.12 115.446 41.048H113.878C113.728 40.5147 113.435 40.0933 112.998 39.784C112.571 39.4747 112.038 39.32 111.398 39.32C110.566 39.32 109.894 39.608 109.382 40.184C108.87 40.7493 108.614 41.5547 108.614 42.6C108.614 43.656 108.87 44.472 109.382 45.048C109.894 45.624 110.566 45.912 111.398 45.912C112.038 45.912 112.571 45.7627 112.998 45.464C113.424 45.1653 113.718 44.7387 113.878 44.184H115.446C115.211 45.08 114.742 45.8 114.038 46.344C113.334 46.8773 112.454 47.144 111.398 47.144C110.566 47.144 109.824 46.9573 109.174 46.584C108.534 46.2107 108.032 45.6827 107.67 45C107.307 44.3173 107.126 43.5173 107.126 42.6ZM121.74 38.072C122.402 38.072 122.999 38.216 123.532 38.504C124.066 38.7813 124.482 39.2027 124.78 39.768C125.09 40.3333 125.244 41.0213 125.244 41.832V47H123.804V42.04C123.804 41.1653 123.586 40.4987 123.148 40.04C122.711 39.5707 122.114 39.336 121.356 39.336C120.588 39.336 119.975 39.576 119.516 40.056C119.068 40.536 118.844 41.2347 118.844 42.152V47H117.388V35.16H118.844V39.48C119.132 39.032 119.527 38.6853 120.028 38.44C120.54 38.1947 121.111 38.072 121.74 38.072ZM135.623 42.28C135.623 42.5573 135.607 42.8507 135.575 43.16H128.567C128.62 44.024 128.913 44.7013 129.447 45.192C129.991 45.672 130.647 45.912 131.415 45.912C132.044 45.912 132.567 45.768 132.983 45.48C133.409 45.1813 133.708 44.7867 133.879 44.296H135.447C135.212 45.1387 134.743 45.8267 134.039 46.36C133.335 46.8827 132.46 47.144 131.415 47.144C130.583 47.144 129.836 46.9573 129.175 46.584C128.524 46.2107 128.012 45.6827 127.639 45C127.265 44.3067 127.079 43.5067 127.079 42.6C127.079 41.6933 127.26 40.8987 127.623 40.216C127.985 39.5333 128.492 39.0107 129.143 38.648C129.804 38.2747 130.561 38.088 131.415 38.088C132.247 38.088 132.983 38.2693 133.623 38.632C134.263 38.9947 134.753 39.496 135.095 40.136C135.447 40.7653 135.623 41.48 135.623 42.28ZM134.119 41.976C134.119 41.4213 133.996 40.9467 133.751 40.552C133.505 40.1467 133.169 39.8427 132.743 39.64C132.327 39.4267 131.863 39.32 131.351 39.32C130.615 39.32 129.985 39.5547 129.463 40.024C128.951 40.4933 128.657 41.144 128.583 41.976H134.119ZM137.001 42.6C137.001 41.6933 137.182 40.904 137.545 40.232C137.907 39.5493 138.409 39.0213 139.049 38.648C139.699 38.2747 140.441 38.088 141.273 38.088C142.35 38.088 143.235 38.3493 143.929 38.872C144.633 39.3947 145.097 40.12 145.321 41.048H143.753C143.603 40.5147 143.31 40.0933 142.873 39.784C142.446 39.4747 141.913 39.32 141.273 39.32C140.441 39.32 139.769 39.608 139.257 40.184C138.745 40.7493 138.489 41.5547 138.489 42.6C138.489 43.656 138.745 44.472 139.257 45.048C139.769 45.624 140.441 45.912 141.273 45.912C141.913 45.912 142.446 45.7627 142.873 45.464C143.299 45.1653 143.593 44.7387 143.753 44.184H145.321C145.086 45.08 144.617 45.8 143.913 46.344C143.209 46.8773 142.329 47.144 141.273 47.144C140.441 47.144 139.699 46.9573 139.049 46.584C138.409 46.2107 137.907 45.6827 137.545 45C137.182 44.3173 137.001 43.5173 137.001 42.6ZM152.159 47L148.719 43.128V47H147.263V35.16H148.719V42.12L152.095 38.232H154.127L149.999 42.6L154.143 47H152.159ZM51.7448 56.072C52.4274 56.072 53.0354 56.216 53.5688 56.504C54.1021 56.7813 54.5234 57.2027 54.8328 57.768C55.1421 58.3333 55.2968 59.0213 55.2968 59.832V65H53.8568V60.04C53.8568 59.1653 53.6381 58.4987 53.2008 58.04C52.7741 57.5707 52.1928 57.336 51.4568 57.336C50.6994 57.336 50.0968 57.5813 49.6488 58.072C49.2008 58.552 48.9768 59.2507 48.9768 60.168V65H47.5368V60.04C47.5368 59.1653 47.3181 58.4987 46.8808 58.04C46.4541 57.5707 45.8728 57.336 45.1368 57.336C44.3794 57.336 43.7768 57.5813 43.3288 58.072C42.8808 58.552 42.6568 59.2507 42.6568 60.168V65H41.2008V56.232H42.6568V57.496C42.9448 57.0373 43.3288 56.6853 43.8088 56.44C44.2994 56.1947 44.8381 56.072 45.4248 56.072C46.1608 56.072 46.8114 56.2373 47.3768 56.568C47.9421 56.8987 48.3634 57.384 48.6408 58.024C48.8861 57.4053 49.2914 56.9253 49.8568 56.584C50.4221 56.2427 51.0514 56.072 51.7448 56.072ZM57.1411 60.584C57.1411 59.688 57.3225 58.904 57.6851 58.232C58.0478 57.5493 58.5438 57.0213 59.1731 56.648C59.8131 56.2747 60.5225 56.088 61.3011 56.088C62.0691 56.088 62.7358 56.2533 63.3011 56.584C63.8665 56.9147 64.2878 57.3307 64.5651 57.832V56.232H66.0371V65H64.5651V63.368C64.2771 63.88 63.8451 64.3067 63.2691 64.648C62.7038 64.9787 62.0425 65.144 61.2851 65.144C60.5065 65.144 59.8025 64.952 59.1731 64.568C58.5438 64.184 58.0478 63.6453 57.6851 62.952C57.3225 62.2587 57.1411 61.4693 57.1411 60.584ZM64.5651 60.6C64.5651 59.9387 64.4318 59.3627 64.1651 58.872C63.8985 58.3813 63.5358 58.008 63.0771 57.752C62.6291 57.4853 62.1331 57.352 61.5891 57.352C61.0451 57.352 60.5491 57.48 60.1011 57.736C59.6531 57.992 59.2958 58.3653 59.0291 58.856C58.7625 59.3467 58.6291 59.9227 58.6291 60.584C58.6291 61.256 58.7625 61.8427 59.0291 62.344C59.2958 62.8347 59.6531 63.2133 60.1011 63.48C60.5491 63.736 61.0451 63.864 61.5891 63.864C62.1331 63.864 62.6291 63.736 63.0771 63.48C63.5358 63.2133 63.8985 62.8347 64.1651 62.344C64.4318 61.8427 64.5651 61.2613 64.5651 60.6ZM69.9536 57.656C70.2096 57.1547 70.5723 56.7653 71.0416 56.488C71.5216 56.2107 72.103 56.072 72.7856 56.072V57.576H72.4016C70.7696 57.576 69.9536 58.4613 69.9536 60.232V65H68.4976V56.232H69.9536V57.656ZM79.3624 65L75.9224 61.128V65H74.4664V53.16H75.9224V60.12L79.2984 56.232H81.3304L77.2024 60.6L81.3464 65H79.3624ZM88.7424 57.432V62.6C88.7424 63.0267 88.833 63.3307 89.0144 63.512C89.1957 63.6827 89.5104 63.768 89.9584 63.768H91.0304V65H89.7184C88.9077 65 88.2997 64.8133 87.8944 64.44C87.489 64.0667 87.2864 63.4533 87.2864 62.6V57.432H86.1504V56.232H87.2864V54.024H88.7424V56.232H91.0304V57.432H88.7424ZM96.6185 65.144C95.7972 65.144 95.0505 64.9573 94.3785 64.584C93.7172 64.2107 93.1945 63.6827 92.8105 63C92.4372 62.3067 92.2505 61.5067 92.2505 60.6C92.2505 59.704 92.4425 58.9147 92.8265 58.232C93.2212 57.5387 93.7545 57.0107 94.4265 56.648C95.0985 56.2747 95.8505 56.088 96.6825 56.088C97.5145 56.088 98.2665 56.2747 98.9385 56.648C99.6105 57.0107 100.139 57.5333 100.523 58.216C100.917 58.8987 101.115 59.6933 101.115 60.6C101.115 61.5067 100.912 62.3067 100.507 63C100.112 63.6827 99.5732 64.2107 98.8905 64.584C98.2078 64.9573 97.4505 65.144 96.6185 65.144ZM96.6185 63.864C97.1412 63.864 97.6318 63.7413 98.0905 63.496C98.5492 63.2507 98.9172 62.8827 99.1945 62.392C99.4825 61.9013 99.6265 61.304 99.6265 60.6C99.6265 59.896 99.4878 59.2987 99.2105 58.808C98.9332 58.3173 98.5705 57.9547 98.1225 57.72C97.6745 57.4747 97.1892 57.352 96.6665 57.352C96.1332 57.352 95.6425 57.4747 95.1945 57.72C94.7572 57.9547 94.4052 58.3173 94.1385 58.808C93.8718 59.2987 93.7385 59.896 93.7385 60.6C93.7385 61.3147 93.8665 61.9173 94.1225 62.408C94.3892 62.8987 94.7412 63.2667 95.1785 63.512C95.6158 63.7467 96.0958 63.864 96.6185 63.864ZM110.863 57.432H109.023V65H107.567V57.432H106.431V56.232H107.567V55.608C107.567 54.6267 107.817 53.912 108.319 53.464C108.831 53.0053 109.647 52.776 110.766 52.776V53.992C110.127 53.992 109.673 54.12 109.407 54.376C109.151 54.6213 109.023 55.032 109.023 55.608V56.232H110.863V57.432ZM113.312 54.808C113.035 54.808 112.8 54.712 112.608 54.52C112.416 54.328 112.32 54.0933 112.32 53.816C112.32 53.5387 112.416 53.304 112.608 53.112C112.8 52.92 113.035 52.824 113.312 52.824C113.579 52.824 113.803 52.92 113.984 53.112C114.176 53.304 114.272 53.5387 114.272 53.816C114.272 54.0933 114.176 54.328 113.984 54.52C113.803 54.712 113.579 54.808 113.312 54.808ZM114.016 56.232V65H112.56V56.232H114.016ZM120.77 56.072C121.836 56.072 122.7 56.3973 123.362 57.048C124.023 57.688 124.354 58.616 124.354 59.832V65H122.914V60.04C122.914 59.1653 122.695 58.4987 122.258 58.04C121.82 57.5707 121.223 57.336 120.466 57.336C119.698 57.336 119.084 57.576 118.626 58.056C118.178 58.536 117.954 59.2347 117.954 60.152V65H116.498V56.232H117.954V57.48C118.242 57.032 118.631 56.6853 119.122 56.44C119.623 56.1947 120.172 56.072 120.77 56.072ZM127.484 54.808C127.207 54.808 126.972 54.712 126.78 54.52C126.588 54.328 126.492 54.0933 126.492 53.816C126.492 53.5387 126.588 53.304 126.78 53.112C126.972 52.92 127.207 52.824 127.484 52.824C127.751 52.824 127.975 52.92 128.156 53.112C128.348 53.304 128.444 53.5387 128.444 53.816C128.444 54.0933 128.348 54.328 128.156 54.52C127.975 54.712 127.751 54.808 127.484 54.808ZM128.188 56.232V65H126.732V56.232H128.188ZM133.774 65.144C133.102 65.144 132.499 65.032 131.966 64.808C131.432 64.5733 131.011 64.2533 130.702 63.848C130.392 63.432 130.222 62.9573 130.19 62.424H131.694C131.736 62.8613 131.939 63.2187 132.302 63.496C132.675 63.7733 133.16 63.912 133.758 63.912C134.312 63.912 134.75 63.7893 135.07 63.544C135.39 63.2987 135.55 62.9893 135.55 62.616C135.55 62.232 135.379 61.9493 135.038 61.768C134.696 61.576 134.168 61.3893 133.454 61.208C132.803 61.0373 132.27 60.8667 131.854 60.696C131.448 60.5147 131.096 60.2533 130.798 59.912C130.51 59.56 130.366 59.1013 130.366 58.536C130.366 58.088 130.499 57.6773 130.766 57.304C131.032 56.9307 131.411 56.6373 131.902 56.424C132.392 56.2 132.952 56.088 133.582 56.088C134.552 56.088 135.336 56.3333 135.934 56.824C136.531 57.3147 136.851 57.9867 136.894 58.84H135.438C135.406 58.3813 135.219 58.0133 134.878 57.736C134.547 57.4587 134.099 57.32 133.534 57.32C133.011 57.32 132.595 57.432 132.286 57.656C131.976 57.88 131.822 58.1733 131.822 58.536C131.822 58.824 131.912 59.064 132.094 59.256C132.286 59.4373 132.52 59.5867 132.798 59.704C133.086 59.8107 133.48 59.9333 133.982 60.072C134.611 60.2427 135.123 60.4133 135.518 60.584C135.912 60.744 136.248 60.9893 136.526 61.32C136.814 61.6507 136.963 62.0827 136.974 62.616C136.974 63.096 136.84 63.528 136.574 63.912C136.307 64.296 135.928 64.6 135.438 64.824C134.958 65.0373 134.403 65.144 133.774 65.144ZM143.381 56.072C144.042 56.072 144.64 56.216 145.173 56.504C145.706 56.7813 146.122 57.2027 146.421 57.768C146.73 58.3333 146.885 59.0213 146.885 59.832V65H145.445V60.04C145.445 59.1653 145.226 58.4987 144.789 58.04C144.352 57.5707 143.754 57.336 142.997 57.336C142.229 57.336 141.616 57.576 141.157 58.056C140.709 58.536 140.485 59.2347 140.485 60.152V65H139.029V53.16H140.485V57.48C140.773 57.032 141.168 56.6853 141.669 56.44C142.181 56.1947 142.752 56.072 143.381 56.072Z" fill="#B0F1EA"/>
</svg>
