<svg width="296" height="169" viewBox="0 0 296 169" fill="none" xmlns="http://www.w3.org/2000/svg">
<path d="M247.586 166.555C247.275 167.411 246.075 167.44 245.723 166.6L230.912 131.238C230.636 130.579 231.12 129.852 231.834 129.852L259.463 129.852C260.156 129.852 260.639 130.541 260.403 131.193L247.586 166.555Z" fill="#2E4F72"/>
<path d="M0 40C0 17.9086 17.9086 0 40 0H256C278.091 0 296 17.9086 296 40V90.8066C296 112.898 278.091 130.807 256 130.807H40C17.9086 130.807 0 112.898 0 90.8066V40Z" fill="#2E4F72"/>
<path d="M71.0168 50.4391C69.9821 50.4391 69.0381 50.1991 68.1848 49.7191C67.3315 49.2285 66.6541 48.5511 66.1528 47.6871C65.6621 46.8125 65.4168 45.8311 65.4168 44.7431C65.4168 43.6551 65.6621 42.6791 66.1528 41.8151C66.6541 40.9405 67.3315 40.2631 68.1848 39.7831C69.0381 39.2925 69.9821 39.0471 71.0168 39.0471C72.0621 39.0471 73.0115 39.2925 73.8648 39.7831C74.7181 40.2631 75.3901 40.9351 75.8808 41.7991C76.3715 42.6631 76.6168 43.6445 76.6168 44.7431C76.6168 45.8418 76.3715 46.8231 75.8808 47.6871C75.3901 48.5511 74.7181 49.2285 73.8648 49.7191C73.0115 50.1991 72.0621 50.4391 71.0168 50.4391ZM71.0168 49.1751C71.7955 49.1751 72.4941 48.9938 73.1128 48.6311C73.7421 48.2685 74.2328 47.7511 74.5848 47.0791C74.9475 46.4071 75.1288 45.6285 75.1288 44.7431C75.1288 43.8471 74.9475 43.0685 74.5848 42.4071C74.2328 41.7351 73.7475 41.2178 73.1288 40.8551C72.5101 40.4925 71.8061 40.3111 71.0168 40.3111C70.2275 40.3111 69.5235 40.4925 68.9048 40.8551C68.2861 41.2178 67.7955 41.7351 67.4328 42.4071C67.0808 43.0685 66.9048 43.8471 66.9048 44.7431C66.9048 45.6285 67.0808 46.4071 67.4328 47.0791C67.7955 47.7511 68.2861 48.2685 68.9048 48.6311C69.5341 48.9938 70.2381 49.1751 71.0168 49.1751ZM82.8109 41.3991C83.8776 41.3991 84.7416 41.7245 85.4029 42.3751C86.0643 43.0151 86.3949 43.9431 86.3949 45.1591V50.3271H84.9549V45.3671C84.9549 44.4925 84.7363 43.8258 84.2989 43.3671C83.8616 42.8978 83.2643 42.6631 82.5069 42.6631C81.7389 42.6631 81.1256 42.9031 80.6669 43.3831C80.2189 43.8631 79.9949 44.5618 79.9949 45.4791V50.3271H78.5389V41.5591H79.9949V42.8071C80.2829 42.3591 80.6723 42.0125 81.1629 41.7671C81.6643 41.5218 82.2136 41.3991 82.8109 41.3991ZM88.2293 45.9271C88.2293 45.0205 88.4106 44.2311 88.7733 43.5591C89.136 42.8765 89.6373 42.3485 90.2773 41.9751C90.928 41.6018 91.6693 41.4151 92.5013 41.4151C93.5786 41.4151 94.464 41.6765 95.1573 42.1991C95.8613 42.7218 96.3253 43.4471 96.5493 44.3751H94.9813C94.832 43.8418 94.5386 43.4205 94.1013 43.1111C93.6746 42.8018 93.1413 42.6471 92.5013 42.6471C91.6693 42.6471 90.9973 42.9351 90.4853 43.5111C89.9733 44.0765 89.7173 44.8818 89.7173 45.9271C89.7173 46.9831 89.9733 47.7991 90.4853 48.3751C90.9973 48.9511 91.6693 49.2391 92.5013 49.2391C93.1413 49.2391 93.6746 49.0898 94.1013 48.7911C94.528 48.4925 94.8213 48.0658 94.9813 47.5111H96.5493C96.3146 48.4071 95.8453 49.1271 95.1413 49.6711C94.4373 50.2045 93.5573 50.4711 92.5013 50.4711C91.6693 50.4711 90.928 50.2845 90.2773 49.9111C89.6373 49.5378 89.136 49.0098 88.7733 48.3271C88.4106 47.6445 88.2293 46.8445 88.2293 45.9271ZM106.492 45.6071C106.492 45.8845 106.476 46.1778 106.444 46.4871H99.436C99.4894 47.3511 99.7827 48.0285 100.316 48.5191C100.86 48.9991 101.516 49.2391 102.284 49.2391C102.913 49.2391 103.436 49.0951 103.852 48.8071C104.279 48.5085 104.577 48.1138 104.748 47.6231H106.316C106.081 48.4658 105.612 49.1538 104.908 49.6871C104.204 50.2098 103.329 50.4711 102.284 50.4711C101.452 50.4711 100.705 50.2845 100.044 49.9111C99.3934 49.5378 98.8814 49.0098 98.508 48.3271C98.1347 47.6338 97.948 46.8338 97.948 45.9271C97.948 45.0205 98.1294 44.2258 98.492 43.5431C98.8547 42.8605 99.3614 42.3378 100.012 41.9751C100.673 41.6018 101.431 41.4151 102.284 41.4151C103.116 41.4151 103.852 41.5965 104.492 41.9591C105.132 42.3218 105.623 42.8231 105.964 43.4631C106.316 44.0925 106.492 44.8071 106.492 45.6071ZM104.988 45.3031C104.988 44.7485 104.865 44.2738 104.62 43.8791C104.375 43.4738 104.039 43.1698 103.612 42.9671C103.196 42.7538 102.732 42.6471 102.22 42.6471C101.484 42.6471 100.855 42.8818 100.332 43.3511C99.82 43.8205 99.5267 44.4711 99.452 45.3031H104.988ZM120.232 41.5591L114.952 54.4551H113.448L115.176 50.2311L111.64 41.5591H113.256L116.008 48.6631L118.728 41.5591H120.232ZM125.519 50.4711C124.698 50.4711 123.951 50.2845 123.279 49.9111C122.618 49.5378 122.095 49.0098 121.711 48.3271C121.338 47.6338 121.151 46.8338 121.151 45.9271C121.151 45.0311 121.343 44.2418 121.727 43.5591C122.122 42.8658 122.655 42.3378 123.327 41.9751C123.999 41.6018 124.751 41.4151 125.583 41.4151C126.415 41.4151 127.167 41.6018 127.839 41.9751C128.511 42.3378 129.039 42.8605 129.423 43.5431C129.818 44.2258 130.015 45.0205 130.015 45.9271C130.015 46.8338 129.813 47.6338 129.407 48.3271C129.013 49.0098 128.474 49.5378 127.791 49.9111C127.109 50.2845 126.351 50.4711 125.519 50.4711ZM125.519 49.1911C126.042 49.1911 126.533 49.0685 126.991 48.8231C127.45 48.5778 127.818 48.2098 128.095 47.7191C128.383 47.2285 128.527 46.6311 128.527 45.9271C128.527 45.2231 128.389 44.6258 128.111 44.1351C127.834 43.6445 127.471 43.2818 127.023 43.0471C126.575 42.8018 126.09 42.6791 125.567 42.6791C125.034 42.6791 124.543 42.8018 124.095 43.0471C123.658 43.2818 123.306 43.6445 123.039 44.1351C122.773 44.6258 122.639 45.2231 122.639 45.9271C122.639 46.6418 122.767 47.2445 123.023 47.7351C123.29 48.2258 123.642 48.5938 124.079 48.8391C124.517 49.0738 124.997 49.1911 125.519 49.1911ZM139.706 41.5591V50.3271H138.25V49.0311C137.972 49.4791 137.583 49.8311 137.082 50.0871C136.591 50.3325 136.047 50.4551 135.45 50.4551C134.767 50.4551 134.154 50.3165 133.61 50.0391C133.066 49.7511 132.634 49.3245 132.314 48.7591C132.004 48.1938 131.85 47.5058 131.85 46.6951V41.5591H133.29V46.5031C133.29 47.3671 133.508 48.0338 133.946 48.5031C134.383 48.9618 134.98 49.1911 135.738 49.1911C136.516 49.1911 137.13 48.9511 137.578 48.4711C138.026 47.9911 138.25 47.2925 138.25 46.3751V41.5591H139.706ZM142.388 39.1751H144.004L142.468 42.8071H141.444L142.388 39.1751ZM148.928 48.9831L151.648 41.5591H153.2L149.76 50.3271H148.064L144.624 41.5591H146.192L148.928 48.9831ZM162.633 45.6071C162.633 45.8845 162.617 46.1778 162.585 46.4871H155.577C155.63 47.3511 155.923 48.0285 156.457 48.5191C157.001 48.9991 157.657 49.2391 158.425 49.2391C159.054 49.2391 159.577 49.0951 159.993 48.8071C160.419 48.5085 160.718 48.1138 160.889 47.6231H162.457C162.222 48.4658 161.753 49.1538 161.049 49.6871C160.345 50.2098 159.47 50.4711 158.425 50.4711C157.593 50.4711 156.846 50.2845 156.185 49.9111C155.534 49.5378 155.022 49.0098 154.649 48.3271C154.275 47.6338 154.089 46.8338 154.089 45.9271C154.089 45.0205 154.27 44.2258 154.633 43.5431C154.995 42.8605 155.502 42.3378 156.153 41.9751C156.814 41.6018 157.571 41.4151 158.425 41.4151C159.257 41.4151 159.993 41.5965 160.633 41.9591C161.273 42.3218 161.763 42.8231 162.105 43.4631C162.457 44.0925 162.633 44.8071 162.633 45.6071ZM161.129 45.3031C161.129 44.7485 161.006 44.2738 160.761 43.8791C160.515 43.4738 160.179 43.1698 159.753 42.9671C159.337 42.7538 158.873 42.6471 158.361 42.6471C157.625 42.6471 156.995 42.8818 156.473 43.3511C155.961 43.8205 155.667 44.4711 155.593 45.3031H161.129ZM172.388 42.7591H170.548V50.3271H169.092V42.7591H167.956V41.5591H169.092V40.9351C169.092 39.9538 169.343 39.2391 169.844 38.7911C170.356 38.3325 171.172 38.1031 172.292 38.1031V39.3191C171.652 39.3191 171.199 39.4471 170.932 39.7031C170.676 39.9485 170.548 40.3591 170.548 40.9351V41.5591H172.388V42.7591ZM174.838 40.1351C174.56 40.1351 174.326 40.0391 174.134 39.8471C173.942 39.6551 173.846 39.4205 173.846 39.1431C173.846 38.8658 173.942 38.6311 174.134 38.4391C174.326 38.2471 174.56 38.1511 174.838 38.1511C175.104 38.1511 175.328 38.2471 175.51 38.4391C175.702 38.6311 175.798 38.8658 175.798 39.1431C175.798 39.4205 175.702 39.6551 175.51 39.8471C175.328 40.0391 175.104 40.1351 174.838 40.1351ZM175.542 41.5591V50.3271H174.086V41.5591H175.542ZM182.295 41.3991C183.362 41.3991 184.226 41.7245 184.887 42.3751C185.549 43.0151 185.879 43.9431 185.879 45.1591V50.3271H184.439V45.3671C184.439 44.4925 184.221 43.8258 183.783 43.3671C183.346 42.8978 182.749 42.6631 181.991 42.6631C181.223 42.6631 180.61 42.9031 180.151 43.3831C179.703 43.8631 179.479 44.5618 179.479 45.4791V50.3271H178.023V41.5591H179.479V42.8071C179.767 42.3591 180.157 42.0125 180.647 41.7671C181.149 41.5218 181.698 41.3991 182.295 41.3991ZM189.01 40.1351C188.732 40.1351 188.498 40.0391 188.306 39.8471C188.114 39.6551 188.018 39.4205 188.018 39.1431C188.018 38.8658 188.114 38.6311 188.306 38.4391C188.498 38.2471 188.732 38.1511 189.01 38.1511C189.276 38.1511 189.5 38.2471 189.682 38.4391C189.874 38.6311 189.97 38.8658 189.97 39.1431C189.97 39.4205 189.874 39.6551 189.682 39.8471C189.5 40.0391 189.276 40.1351 189.01 40.1351ZM189.714 41.5591V50.3271H188.258V41.5591H189.714ZM195.299 50.4711C194.627 50.4711 194.024 50.3591 193.491 50.1351C192.958 49.9005 192.536 49.5805 192.227 49.1751C191.918 48.7591 191.747 48.2845 191.715 47.7511H193.219C193.262 48.1885 193.464 48.5458 193.827 48.8231C194.2 49.1005 194.686 49.2391 195.283 49.2391C195.838 49.2391 196.275 49.1165 196.595 48.8711C196.915 48.6258 197.075 48.3165 197.075 47.9431C197.075 47.5591 196.904 47.2765 196.563 47.0951C196.222 46.9031 195.694 46.7165 194.979 46.5351C194.328 46.3645 193.795 46.1938 193.379 46.0231C192.974 45.8418 192.622 45.5805 192.323 45.2391C192.035 44.8871 191.891 44.4285 191.891 43.8631C191.891 43.4151 192.024 43.0045 192.291 42.6311C192.558 42.2578 192.936 41.9645 193.427 41.7511C193.918 41.5271 194.478 41.4151 195.107 41.4151C196.078 41.4151 196.862 41.6605 197.459 42.1511C198.056 42.6418 198.376 43.3138 198.419 44.1671H196.963C196.931 43.7085 196.744 43.3405 196.403 43.0631C196.072 42.7858 195.624 42.6471 195.059 42.6471C194.536 42.6471 194.12 42.7591 193.811 42.9831C193.502 43.2071 193.347 43.5005 193.347 43.8631C193.347 44.1511 193.438 44.3911 193.619 44.5831C193.811 44.7645 194.046 44.9138 194.323 45.0311C194.611 45.1378 195.006 45.2605 195.507 45.3991C196.136 45.5698 196.648 45.7405 197.043 45.9111C197.438 46.0711 197.774 46.3165 198.051 46.6471C198.339 46.9778 198.488 47.4098 198.499 47.9431C198.499 48.4231 198.366 48.8551 198.099 49.2391C197.832 49.6231 197.454 49.9271 196.963 50.1511C196.483 50.3645 195.928 50.4711 195.299 50.4711ZM204.907 41.3991C205.568 41.3991 206.165 41.5431 206.699 41.8311C207.232 42.1085 207.648 42.5298 207.947 43.0951C208.256 43.6605 208.411 44.3485 208.411 45.1591V50.3271H206.971V45.3671C206.971 44.4925 206.752 43.8258 206.315 43.3671C205.877 42.8978 205.28 42.6631 204.523 42.6631C203.755 42.6631 203.141 42.9031 202.683 43.3831C202.235 43.8631 202.011 44.5618 202.011 45.4791V50.3271H200.555V38.4871H202.011V42.8071C202.299 42.3591 202.693 42.0125 203.195 41.7671C203.707 41.5218 204.277 41.3991 204.907 41.3991ZM218.789 45.6071C218.789 45.8845 218.773 46.1778 218.741 46.4871H211.733C211.786 47.3511 212.08 48.0285 212.613 48.5191C213.157 48.9991 213.813 49.2391 214.581 49.2391C215.21 49.2391 215.733 49.0951 216.149 48.8071C216.576 48.5085 216.874 48.1138 217.045 47.6231H218.613C218.378 48.4658 217.909 49.1538 217.205 49.6871C216.501 50.2098 215.626 50.4711 214.581 50.4711C213.749 50.4711 213.002 50.2845 212.341 49.9111C211.69 49.5378 211.178 49.0098 210.805 48.3271C210.432 47.6338 210.245 46.8338 210.245 45.9271C210.245 45.0205 210.426 44.2258 210.789 43.5431C211.152 42.8605 211.658 42.3378 212.309 41.9751C212.97 41.6018 213.728 41.4151 214.581 41.4151C215.413 41.4151 216.149 41.5965 216.789 41.9591C217.429 42.3218 217.92 42.8231 218.261 43.4631C218.613 44.0925 218.789 44.8071 218.789 45.6071ZM217.285 45.3031C217.285 44.7485 217.162 44.2738 216.917 43.8791C216.672 43.4738 216.336 43.1698 215.909 42.9671C215.493 42.7538 215.029 42.6471 214.517 42.6471C213.781 42.6471 213.152 42.8818 212.629 43.3511C212.117 43.8205 211.824 44.4711 211.749 45.3031H217.285ZM220.167 45.9111C220.167 45.0151 220.348 44.2311 220.711 43.5591C221.073 42.8765 221.569 42.3485 222.199 41.9751C222.839 41.6018 223.553 41.4151 224.343 41.4151C225.025 41.4151 225.66 41.5751 226.247 41.8951C226.833 42.2045 227.281 42.6151 227.591 43.1271V38.4871H229.063V50.3271H227.591V48.6791C227.303 49.2018 226.876 49.6338 226.311 49.9751C225.745 50.3058 225.084 50.4711 224.327 50.4711C223.548 50.4711 222.839 50.2791 222.199 49.8951C221.569 49.5111 221.073 48.9725 220.711 48.2791C220.348 47.5858 220.167 46.7965 220.167 45.9111ZM227.591 45.9271C227.591 45.2658 227.457 44.6898 227.191 44.1991C226.924 43.7085 226.561 43.3351 226.103 43.0791C225.655 42.8125 225.159 42.6791 224.615 42.6791C224.071 42.6791 223.575 42.8071 223.127 43.0631C222.679 43.3191 222.321 43.6925 222.055 44.1831C221.788 44.6738 221.655 45.2498 221.655 45.9111C221.655 46.5831 221.788 47.1698 222.055 47.6711C222.321 48.1618 222.679 48.5405 223.127 48.8071C223.575 49.0631 224.071 49.1911 224.615 49.1911C225.159 49.1911 225.655 49.0631 226.103 48.8071C226.561 48.5405 226.924 48.1618 227.191 47.6711C227.457 47.1698 227.591 46.5885 227.591 45.9271ZM43.7684 61.1911C44.067 60.6685 44.5044 60.2418 45.0804 59.9111C45.6564 59.5805 46.3124 59.4151 47.0484 59.4151C47.8377 59.4151 48.547 59.6018 49.1764 59.9751C49.8057 60.3485 50.3017 60.8765 50.6644 61.5591C51.027 62.2311 51.2084 63.0151 51.2084 63.9111C51.2084 64.7965 51.027 65.5858 50.6644 66.2791C50.3017 66.9725 49.8004 67.5111 49.1604 67.8951C48.531 68.2791 47.827 68.4711 47.0484 68.4711C46.291 68.4711 45.6244 68.3058 45.0484 67.9751C44.483 67.6445 44.0564 67.2231 43.7684 66.7111V68.3271H42.3124V56.4871H43.7684V61.1911ZM49.7204 63.9111C49.7204 63.2498 49.587 62.6738 49.3204 62.1831C49.0537 61.6925 48.691 61.3191 48.2324 61.0631C47.7844 60.8071 47.2884 60.6791 46.7444 60.6791C46.211 60.6791 45.715 60.8125 45.2564 61.0791C44.8084 61.3351 44.4457 61.7138 44.1684 62.2151C43.9017 62.7058 43.7684 63.2765 43.7684 63.9271C43.7684 64.5885 43.9017 65.1698 44.1684 65.6711C44.4457 66.1618 44.8084 66.5405 45.2564 66.8071C45.715 67.0631 46.211 67.1911 46.7444 67.1911C47.2884 67.1911 47.7844 67.0631 48.2324 66.8071C48.691 66.5405 49.0537 66.1618 49.3204 65.6711C49.587 65.1698 49.7204 64.5831 49.7204 63.9111ZM60.9009 59.5591V68.3271H59.4449V67.0311C59.1675 67.4791 58.7782 67.8311 58.2769 68.0871C57.7862 68.3325 57.2422 68.4551 56.6449 68.4551C55.9622 68.4551 55.3489 68.3165 54.8049 68.0391C54.2609 67.7511 53.8289 67.3245 53.5089 66.7591C53.1995 66.1938 53.0449 65.5058 53.0449 64.6951V59.5591H54.4849V64.5031C54.4849 65.3671 54.7035 66.0338 55.1409 66.5031C55.5782 66.9618 56.1755 67.1911 56.9329 67.1911C57.7115 67.1911 58.3249 66.9511 58.7729 66.4711C59.2209 65.9911 59.4449 65.2925 59.4449 64.3751V59.5591H60.9009ZM70.9112 59.5591L65.6312 72.4551H64.1272L65.8552 68.2311L62.3192 59.5591H63.9352L66.6872 66.6631L69.4072 59.5591H70.9112ZM73.1269 58.1351C72.8495 58.1351 72.6149 58.0391 72.4229 57.8471C72.2309 57.6551 72.1349 57.4205 72.1349 57.1431C72.1349 56.8658 72.2309 56.6311 72.4229 56.4391C72.6149 56.2471 72.8495 56.1511 73.1269 56.1511C73.3935 56.1511 73.6175 56.2471 73.7989 56.4391C73.9909 56.6311 74.0869 56.8658 74.0869 57.1431C74.0869 57.4205 73.9909 57.6551 73.7989 57.8471C73.6175 58.0391 73.3935 58.1351 73.1269 58.1351ZM73.8309 59.5591V68.3271H72.3749V59.5591H73.8309ZM80.5844 59.3991C81.651 59.3991 82.515 59.7245 83.1764 60.3751C83.8377 61.0151 84.1684 61.9431 84.1684 63.1591V68.3271H82.7284V63.3671C82.7284 62.4925 82.5097 61.8258 82.0724 61.3671C81.635 60.8978 81.0377 60.6631 80.2804 60.6631C79.5124 60.6631 78.899 60.9031 78.4404 61.3831C77.9924 61.8631 77.7684 62.5618 77.7684 63.4791V68.3271H76.3124V59.5591H77.7684V60.8071C78.0564 60.3591 78.4457 60.0125 78.9364 59.7671C79.4377 59.5218 79.987 59.3991 80.5844 59.3991ZM90.1627 59.4151C90.9201 59.4151 91.5814 59.5805 92.1467 59.9111C92.7227 60.2418 93.1494 60.6578 93.4267 61.1591V59.5591H94.8987V68.5191C94.8987 69.3191 94.7281 70.0285 94.3867 70.6471C94.0454 71.2765 93.5547 71.7671 92.9147 72.1191C92.2854 72.4711 91.5494 72.6471 90.7067 72.6471C89.5547 72.6471 88.5947 72.3751 87.8267 71.8311C87.0587 71.2871 86.6054 70.5458 86.4667 69.6071H87.9067C88.0667 70.1405 88.3974 70.5671 88.8987 70.8871C89.4001 71.2178 90.0027 71.3831 90.7067 71.3831C91.5067 71.3831 92.1574 71.1325 92.6587 70.6311C93.1707 70.1298 93.4267 69.4258 93.4267 68.5191V66.6791C93.1387 67.1911 92.7121 67.6178 92.1467 67.9591C91.5814 68.3005 90.9201 68.4711 90.1627 68.4711C89.3841 68.4711 88.6747 68.2791 88.0347 67.8951C87.4054 67.5111 86.9094 66.9725 86.5467 66.2791C86.1841 65.5858 86.0027 64.7965 86.0027 63.9111C86.0027 63.0151 86.1841 62.2311 86.5467 61.5591C86.9094 60.8765 87.4054 60.3485 88.0347 59.9751C88.6747 59.6018 89.3841 59.4151 90.1627 59.4151ZM93.4267 63.9271C93.4267 63.2658 93.2934 62.6898 93.0267 62.1991C92.7601 61.7085 92.3974 61.3351 91.9387 61.0791C91.4907 60.8125 90.9947 60.6791 90.4507 60.6791C89.9067 60.6791 89.4107 60.8071 88.9627 61.0631C88.5147 61.3191 88.1574 61.6925 87.8907 62.1831C87.6241 62.6738 87.4907 63.2498 87.4907 63.9111C87.4907 64.5831 87.6241 65.1698 87.8907 65.6711C88.1574 66.1618 88.5147 66.5405 88.9627 66.8071C89.4107 67.0631 89.9067 67.1911 90.4507 67.1911C90.9947 67.1911 91.4907 67.0631 91.9387 66.8071C92.3974 66.5405 92.7601 66.1618 93.0267 65.6711C93.2934 65.1698 93.4267 64.5885 93.4267 63.9271ZM103.081 61.1751C103.369 60.6738 103.796 60.2578 104.361 59.9271C104.937 59.5858 105.604 59.4151 106.361 59.4151C107.14 59.4151 107.844 59.6018 108.473 59.9751C109.113 60.3485 109.614 60.8765 109.977 61.5591C110.34 62.2311 110.521 63.0151 110.521 63.9111C110.521 64.7965 110.34 65.5858 109.977 66.2791C109.614 66.9725 109.113 67.5111 108.473 67.8951C107.844 68.2791 107.14 68.4711 106.361 68.4711C105.614 68.4711 104.953 68.3058 104.377 67.9751C103.812 67.6338 103.38 67.2125 103.081 66.7111V72.4871H101.625V59.5591H103.081V61.1751ZM109.033 63.9111C109.033 63.2498 108.9 62.6738 108.633 62.1831C108.366 61.6925 108.004 61.3191 107.545 61.0631C107.097 60.8071 106.601 60.6791 106.057 60.6791C105.524 60.6791 105.028 60.8125 104.569 61.0791C104.121 61.3351 103.758 61.7138 103.481 62.2151C103.214 62.7058 103.081 63.2765 103.081 63.9271C103.081 64.5885 103.214 65.1698 103.481 65.6711C103.758 66.1618 104.121 66.5405 104.569 66.8071C105.028 67.0631 105.524 67.1911 106.057 67.1911C106.601 67.1911 107.097 67.0631 107.545 66.8071C108.004 66.5405 108.366 66.1618 108.633 65.6711C108.9 65.1698 109.033 64.5831 109.033 63.9111ZM113.893 56.4871V68.3271H112.437V56.4871H113.893ZM115.831 63.9111C115.831 63.0151 116.012 62.2311 116.375 61.5591C116.738 60.8765 117.234 60.3485 117.863 59.9751C118.503 59.6018 119.212 59.4151 119.991 59.4151C120.759 59.4151 121.426 59.5805 121.991 59.9111C122.556 60.2418 122.978 60.6578 123.255 61.1591V59.5591H124.727V68.3271H123.255V66.6951C122.967 67.2071 122.535 67.6338 121.959 67.9751C121.394 68.3058 120.732 68.4711 119.975 68.4711C119.196 68.4711 118.492 68.2791 117.863 67.8951C117.234 67.5111 116.738 66.9725 116.375 66.2791C116.012 65.5858 115.831 64.7965 115.831 63.9111ZM123.255 63.9271C123.255 63.2658 123.122 62.6898 122.855 62.1991C122.588 61.7085 122.226 61.3351 121.767 61.0791C121.319 60.8125 120.823 60.6791 120.279 60.6791C119.735 60.6791 119.239 60.8071 118.791 61.0631C118.343 61.3191 117.986 61.6925 117.719 62.1831C117.452 62.6738 117.319 63.2498 117.319 63.9111C117.319 64.5831 117.452 65.1698 117.719 65.6711C117.986 66.1618 118.343 66.5405 118.791 66.8071C119.239 67.0631 119.735 67.1911 120.279 67.1911C120.823 67.1911 121.319 67.0631 121.767 66.8071C122.226 66.5405 122.588 66.1618 122.855 65.6711C123.122 65.1698 123.255 64.5885 123.255 63.9271ZM131.459 59.3991C132.526 59.3991 133.39 59.7245 134.051 60.3751C134.713 61.0151 135.043 61.9431 135.043 63.1591V68.3271H133.603V63.3671C133.603 62.4925 133.385 61.8258 132.947 61.3671C132.51 60.8978 131.913 60.6631 131.155 60.6631C130.387 60.6631 129.774 60.9031 129.315 61.3831C128.867 61.8631 128.643 62.5618 128.643 63.4791V68.3271H127.187V59.5591H128.643V60.8071C128.931 60.3591 129.321 60.0125 129.811 59.7671C130.313 59.5218 130.862 59.3991 131.459 59.3991ZM139.198 60.7591V65.9271C139.198 66.3538 139.288 66.6578 139.47 66.8391C139.651 67.0098 139.966 67.0951 140.414 67.0951H141.486V68.3271H140.174C139.363 68.3271 138.755 68.1405 138.35 67.7671C137.944 67.3938 137.742 66.7805 137.742 65.9271V60.7591H136.606V59.5591H137.742V57.3511H139.198V59.5591H141.486V60.7591H139.198ZM146.354 68.4711C145.682 68.4711 145.079 68.3591 144.546 68.1351C144.013 67.9005 143.591 67.5805 143.282 67.1751C142.973 66.7591 142.802 66.2845 142.77 65.7511H144.274C144.317 66.1885 144.519 66.5458 144.882 66.8231C145.255 67.1005 145.741 67.2391 146.338 67.2391C146.893 67.2391 147.33 67.1165 147.65 66.8711C147.97 66.6258 148.13 66.3165 148.13 65.9431C148.13 65.5591 147.959 65.2765 147.618 65.0951C147.277 64.9031 146.749 64.7165 146.034 64.5351C145.383 64.3645 144.85 64.1938 144.434 64.0231C144.029 63.8418 143.677 63.5805 143.378 63.2391C143.09 62.8871 142.946 62.4285 142.946 61.8631C142.946 61.4151 143.079 61.0045 143.346 60.6311C143.613 60.2578 143.991 59.9645 144.482 59.7511C144.973 59.5271 145.533 59.4151 146.162 59.4151C147.133 59.4151 147.917 59.6605 148.514 60.1511C149.111 60.6418 149.431 61.3138 149.474 62.1671H148.018C147.986 61.7085 147.799 61.3405 147.458 61.0631C147.127 60.7858 146.679 60.6471 146.114 60.6471C145.591 60.6471 145.175 60.7591 144.866 60.9831C144.557 61.2071 144.402 61.5005 144.402 61.8631C144.402 62.1511 144.493 62.3911 144.674 62.5831C144.866 62.7645 145.101 62.9138 145.378 63.0311C145.666 63.1378 146.061 63.2605 146.562 63.3991C147.191 63.5698 147.703 63.7405 148.098 63.9111C148.493 64.0711 148.829 64.3165 149.106 64.6471C149.394 64.9778 149.543 65.4098 149.554 65.9431C149.554 66.4231 149.421 66.8551 149.154 67.2391C148.887 67.6231 148.509 67.9271 148.018 68.1511C147.538 68.3645 146.983 68.4711 146.354 68.4711ZM153.113 66.3111L151.321 70.6151H150.345L151.513 66.3111H153.113ZM167.047 63.6071C167.047 63.8845 167.031 64.1778 166.999 64.4871H159.991C160.044 65.3511 160.337 66.0285 160.871 66.5191C161.415 66.9991 162.071 67.2391 162.839 67.2391C163.468 67.2391 163.991 67.0951 164.407 66.8071C164.833 66.5085 165.132 66.1138 165.303 65.6231H166.871C166.636 66.4658 166.167 67.1538 165.463 67.6871C164.759 68.2098 163.884 68.4711 162.839 68.4711C162.007 68.4711 161.26 68.2845 160.599 67.9111C159.948 67.5378 159.436 67.0098 159.063 66.3271C158.689 65.6338 158.503 64.8338 158.503 63.9271C158.503 63.0205 158.684 62.2258 159.047 61.5431C159.409 60.8605 159.916 60.3378 160.567 59.9751C161.228 59.6018 161.985 59.4151 162.839 59.4151C163.671 59.4151 164.407 59.5965 165.047 59.9591C165.687 60.3218 166.177 60.8231 166.519 61.4631C166.871 62.0925 167.047 62.8071 167.047 63.6071ZM165.543 63.3031C165.543 62.7485 165.42 62.2738 165.175 61.8791C164.929 61.4738 164.593 61.1698 164.167 60.9671C163.751 60.7538 163.287 60.6471 162.775 60.6471C162.039 60.6471 161.409 60.8818 160.887 61.3511C160.375 61.8205 160.081 62.4711 160.007 63.3031H165.543ZM173.241 59.3991C174.307 59.3991 175.171 59.7245 175.833 60.3751C176.494 61.0151 176.825 61.9431 176.825 63.1591V68.3271H175.385V63.3671C175.385 62.4925 175.166 61.8258 174.729 61.3671C174.291 60.8978 173.694 60.6631 172.937 60.6631C172.169 60.6631 171.555 60.9031 171.097 61.3831C170.649 61.8631 170.425 62.5618 170.425 63.4791V68.3271H168.969V59.5591H170.425V60.8071C170.713 60.3591 171.102 60.0125 171.593 59.7671C172.094 59.5218 172.643 59.3991 173.241 59.3991ZM178.659 63.9111C178.659 63.0151 178.84 62.2311 179.203 61.5591C179.566 60.8765 180.062 60.3485 180.691 59.9751C181.331 59.6018 182.046 59.4151 182.835 59.4151C183.518 59.4151 184.152 59.5751 184.739 59.8951C185.326 60.2045 185.774 60.6151 186.083 61.1271V56.4871H187.555V68.3271H186.083V66.6791C185.795 67.2018 185.368 67.6338 184.803 67.9751C184.238 68.3058 183.576 68.4711 182.819 68.4711C182.04 68.4711 181.331 68.2791 180.691 67.8951C180.062 67.5111 179.566 66.9725 179.203 66.2791C178.84 65.5858 178.659 64.7965 178.659 63.9111ZM186.083 63.9271C186.083 63.2658 185.95 62.6898 185.683 62.1991C185.416 61.7085 185.054 61.3351 184.595 61.0791C184.147 60.8125 183.651 60.6791 183.107 60.6791C182.563 60.6791 182.067 60.8071 181.619 61.0631C181.171 61.3191 180.814 61.6925 180.547 62.1831C180.28 62.6738 180.147 63.2498 180.147 63.9111C180.147 64.5831 180.28 65.1698 180.547 65.6711C180.814 66.1618 181.171 66.5405 181.619 66.8071C182.067 67.0631 182.563 67.1911 183.107 67.1911C183.651 67.1911 184.147 67.0631 184.595 66.8071C185.054 66.5405 185.416 66.1618 185.683 65.6711C185.95 65.1698 186.083 64.5885 186.083 63.9271ZM196.057 60.7591V65.9271C196.057 66.3538 196.148 66.6578 196.329 66.8391C196.51 67.0098 196.825 67.0951 197.273 67.0951H198.345V68.3271H197.033C196.222 68.3271 195.614 68.1405 195.209 67.7671C194.804 67.3938 194.601 66.7805 194.601 65.9271V60.7591H193.465V59.5591H194.601V57.3511H196.057V59.5591H198.345V60.7591H196.057ZM204.461 59.3991C205.123 59.3991 205.72 59.5431 206.253 59.8311C206.787 60.1085 207.203 60.5298 207.501 61.0951C207.811 61.6605 207.965 62.3485 207.965 63.1591V68.3271H206.525V63.3671C206.525 62.4925 206.307 61.8258 205.869 61.3671C205.432 60.8978 204.835 60.6631 204.077 60.6631C203.309 60.6631 202.696 60.9031 202.237 61.3831C201.789 61.8631 201.565 62.5618 201.565 63.4791V68.3271H200.109V56.4871H201.565V60.8071C201.853 60.3591 202.248 60.0125 202.749 59.7671C203.261 59.5218 203.832 59.3991 204.461 59.3991ZM218.344 63.6071C218.344 63.8845 218.328 64.1778 218.296 64.4871H211.288C211.341 65.3511 211.634 66.0285 212.168 66.5191C212.712 66.9991 213.368 67.2391 214.136 67.2391C214.765 67.2391 215.288 67.0951 215.704 66.8071C216.13 66.5085 216.429 66.1138 216.6 65.6231H218.168C217.933 66.4658 217.464 67.1538 216.76 67.6871C216.056 68.2098 215.181 68.4711 214.136 68.4711C213.304 68.4711 212.557 68.2845 211.896 67.9111C211.245 67.5378 210.733 67.0098 210.36 66.3271C209.986 65.6338 209.8 64.8338 209.8 63.9271C209.8 63.0205 209.981 62.2258 210.344 61.5431C210.706 60.8605 211.213 60.3378 211.864 59.9751C212.525 59.6018 213.282 59.4151 214.136 59.4151C214.968 59.4151 215.704 59.5965 216.344 59.9591C216.984 60.3218 217.474 60.8231 217.816 61.4631C218.168 62.0925 218.344 62.8071 218.344 63.6071ZM216.84 63.3031C216.84 62.7485 216.717 62.2738 216.472 61.8791C216.226 61.4738 215.89 61.1698 215.464 60.9671C215.048 60.7538 214.584 60.6471 214.072 60.6471C213.336 60.6471 212.706 60.8818 212.184 61.3511C211.672 61.8205 211.378 62.4711 211.304 63.3031H216.84ZM223.987 63.9111C223.987 63.0151 224.168 62.2311 224.531 61.5591C224.894 60.8765 225.39 60.3485 226.019 59.9751C226.659 59.6018 227.374 59.4151 228.163 59.4151C228.846 59.4151 229.48 59.5751 230.067 59.8951C230.654 60.2045 231.102 60.6151 231.411 61.1271V56.4871H232.883V68.3271H231.411V66.6791C231.123 67.2018 230.696 67.6338 230.131 67.9751C229.566 68.3058 228.904 68.4711 228.147 68.4711C227.368 68.4711 226.659 68.2791 226.019 67.8951C225.39 67.5111 224.894 66.9725 224.531 66.2791C224.168 65.5858 223.987 64.7965 223.987 63.9111ZM231.411 63.9271C231.411 63.2658 231.278 62.6898 231.011 62.1991C230.744 61.7085 230.382 61.3351 229.923 61.0791C229.475 60.8125 228.979 60.6791 228.435 60.6791C227.891 60.6791 227.395 60.8071 226.947 61.0631C226.499 61.3191 226.142 61.6925 225.875 62.1831C225.608 62.6738 225.475 63.2498 225.475 63.9111C225.475 64.5831 225.608 65.1698 225.875 65.6711C226.142 66.1618 226.499 66.5405 226.947 66.8071C227.395 67.0631 227.891 67.1911 228.435 67.1911C228.979 67.1911 229.475 67.0631 229.923 66.8071C230.382 66.5405 230.744 66.1618 231.011 65.6711C231.278 65.1698 231.411 64.5885 231.411 63.9271ZM234.8 63.9111C234.8 63.0151 234.981 62.2311 235.344 61.5591C235.706 60.8765 236.202 60.3485 236.832 59.9751C237.472 59.6018 238.181 59.4151 238.96 59.4151C239.728 59.4151 240.394 59.5805 240.96 59.9111C241.525 60.2418 241.946 60.6578 242.224 61.1591V59.5591H243.696V68.3271H242.224V66.6951C241.936 67.2071 241.504 67.6338 240.928 67.9751C240.362 68.3058 239.701 68.4711 238.944 68.4711C238.165 68.4711 237.461 68.2791 236.832 67.8951C236.202 67.5111 235.706 66.9725 235.344 66.2791C234.981 65.5858 234.8 64.7965 234.8 63.9111ZM242.224 63.9271C242.224 63.2658 242.09 62.6898 241.824 62.1991C241.557 61.7085 241.194 61.3351 240.736 61.0791C240.288 60.8125 239.792 60.6791 239.248 60.6791C238.704 60.6791 238.208 60.8071 237.76 61.0631C237.312 61.3191 236.954 61.6925 236.688 62.1831C236.421 62.6738 236.288 63.2498 236.288 63.9111C236.288 64.5831 236.421 65.1698 236.688 65.6711C236.954 66.1618 237.312 66.5405 237.76 66.8071C238.208 67.0631 238.704 67.1911 239.248 67.1911C239.792 67.1911 240.288 67.0631 240.736 66.8071C241.194 66.5405 241.557 66.1618 241.824 65.6711C242.09 65.1698 242.224 64.5885 242.224 63.9271ZM253.708 59.5591L248.428 72.4551H246.924L248.652 68.2311L245.116 59.5591H246.732L249.484 66.6631L252.204 59.5591H253.708ZM49.2524 78.7591V83.9271C49.2524 84.3538 49.3431 84.6578 49.5244 84.8391C49.7058 85.0098 50.0204 85.0951 50.4684 85.0951H51.5404V86.3271H50.2284C49.4178 86.3271 48.8098 86.1405 48.4044 85.7671C47.9991 85.3938 47.7964 84.7805 47.7964 83.9271V78.7591H46.6604V77.5591H47.7964V75.3511H49.2524V77.5591H51.5404V78.7591H49.2524ZM57.1285 86.4711C56.3072 86.4711 55.5605 86.2845 54.8885 85.9111C54.2272 85.5378 53.7045 85.0098 53.3205 84.3271C52.9472 83.6338 52.7605 82.8338 52.7605 81.9271C52.7605 81.0311 52.9525 80.2418 53.3365 79.5591C53.7312 78.8658 54.2645 78.3378 54.9365 77.9751C55.6085 77.6018 56.3605 77.4151 57.1925 77.4151C58.0245 77.4151 58.7765 77.6018 59.4485 77.9751C60.1205 78.3378 60.6485 78.8605 61.0325 79.5431C61.4272 80.2258 61.6245 81.0205 61.6245 81.9271C61.6245 82.8338 61.4219 83.6338 61.0165 84.3271C60.6219 85.0098 60.0832 85.5378 59.4005 85.9111C58.7179 86.2845 57.9605 86.4711 57.1285 86.4711ZM57.1285 85.1911C57.6512 85.1911 58.1419 85.0685 58.6005 84.8231C59.0592 84.5778 59.4272 84.2098 59.7045 83.7191C59.9925 83.2285 60.1365 82.6311 60.1365 81.9271C60.1365 81.2231 59.9979 80.6258 59.7205 80.1351C59.4432 79.6445 59.0805 79.2818 58.6325 79.0471C58.1845 78.8018 57.6992 78.6791 57.1765 78.6791C56.6432 78.6791 56.1525 78.8018 55.7045 79.0471C55.2672 79.2818 54.9152 79.6445 54.6485 80.1351C54.3819 80.6258 54.2485 81.2231 54.2485 81.9271C54.2485 82.6418 54.3765 83.2445 54.6325 83.7351C54.8992 84.2258 55.2512 84.5938 55.6885 84.8391C56.1259 85.0738 56.6059 85.1911 57.1285 85.1911ZM70.9085 86.4711C70.2365 86.4711 69.6339 86.3591 69.1005 86.1351C68.5672 85.9005 68.1459 85.5805 67.8365 85.1751C67.5272 84.7591 67.3565 84.2845 67.3245 83.7511H68.8285C68.8712 84.1885 69.0739 84.5458 69.4365 84.8231C69.8099 85.1005 70.2952 85.2391 70.8925 85.2391C71.4472 85.2391 71.8845 85.1165 72.2045 84.8711C72.5245 84.6258 72.6845 84.3165 72.6845 83.9431C72.6845 83.5591 72.5139 83.2765 72.1725 83.0951C71.8312 82.9031 71.3032 82.7165 70.5885 82.5351C69.9379 82.3645 69.4045 82.1938 68.9885 82.0231C68.5832 81.8418 68.2312 81.5805 67.9325 81.2391C67.6445 80.8871 67.5005 80.4285 67.5005 79.8631C67.5005 79.4151 67.6339 79.0045 67.9005 78.6311C68.1672 78.2578 68.5459 77.9645 69.0365 77.7511C69.5272 77.5271 70.0872 77.4151 70.7165 77.4151C71.6872 77.4151 72.4712 77.6605 73.0685 78.1511C73.6659 78.6418 73.9859 79.3138 74.0285 80.1671H72.5725C72.5405 79.7085 72.3539 79.3405 72.0125 79.0631C71.6819 78.7858 71.2339 78.6471 70.6685 78.6471C70.1459 78.6471 69.7299 78.7591 69.4205 78.9831C69.1112 79.2071 68.9565 79.5005 68.9565 79.8631C68.9565 80.1511 69.0472 80.3911 69.2285 80.5831C69.4205 80.7645 69.6552 80.9138 69.9325 81.0311C70.2205 81.1378 70.6152 81.2605 71.1165 81.3991C71.7459 81.5698 72.2579 81.7405 72.6525 81.9111C73.0472 82.0711 73.3832 82.3165 73.6605 82.6471C73.9485 82.9778 74.0979 83.4098 74.1085 83.9431C74.1085 84.4231 73.9752 84.8551 73.7085 85.2391C73.4419 85.6231 73.0632 85.9271 72.5725 86.1511C72.0925 86.3645 71.5379 86.4711 70.9085 86.4711ZM84.1639 81.6071C84.1639 81.8845 84.1479 82.1778 84.1159 82.4871H77.1079C77.1613 83.3511 77.4546 84.0285 77.9879 84.5191C78.5319 84.9991 79.1879 85.2391 79.9559 85.2391C80.5853 85.2391 81.1079 85.0951 81.5239 84.8071C81.9506 84.5085 82.2493 84.1138 82.4199 83.6231H83.9879C83.7533 84.4658 83.2839 85.1538 82.5799 85.6871C81.8759 86.2098 81.0013 86.4711 79.9559 86.4711C79.1239 86.4711 78.3773 86.2845 77.7159 85.9111C77.0653 85.5378 76.5533 85.0098 76.1799 84.3271C75.8066 83.6338 75.6199 82.8338 75.6199 81.9271C75.6199 81.0205 75.8013 80.2258 76.1639 79.5431C76.5266 78.8605 77.0333 78.3378 77.6839 77.9751C78.3453 77.6018 79.1026 77.4151 79.9559 77.4151C80.7879 77.4151 81.5239 77.5965 82.1639 77.9591C82.8039 78.3218 83.2946 78.8231 83.6359 79.4631C83.9879 80.0925 84.1639 80.8071 84.1639 81.6071ZM82.6599 81.3031C82.6599 80.7485 82.5373 80.2738 82.2919 79.8791C82.0466 79.4738 81.7106 79.1698 81.2839 78.9671C80.8679 78.7538 80.4039 78.6471 79.8919 78.6471C79.1559 78.6471 78.5266 78.8818 78.0039 79.3511C77.4919 79.8205 77.1986 80.4711 77.1239 81.3031H82.6599ZM94.0858 81.6071C94.0858 81.8845 94.0698 82.1778 94.0378 82.4871H87.0298C87.0831 83.3511 87.3765 84.0285 87.9098 84.5191C88.4538 84.9991 89.1098 85.2391 89.8778 85.2391C90.5071 85.2391 91.0298 85.0951 91.4458 84.8071C91.8725 84.5085 92.1711 84.1138 92.3418 83.6231H93.9098C93.6751 84.4658 93.2058 85.1538 92.5018 85.6871C91.7978 86.2098 90.9231 86.4711 89.8778 86.4711C89.0458 86.4711 88.2991 86.2845 87.6378 85.9111C86.9871 85.5378 86.4751 85.0098 86.1018 84.3271C85.7285 83.6338 85.5418 82.8338 85.5418 81.9271C85.5418 81.0205 85.7231 80.2258 86.0858 79.5431C86.4485 78.8605 86.9551 78.3378 87.6058 77.9751C88.2671 77.6018 89.0245 77.4151 89.8778 77.4151C90.7098 77.4151 91.4458 77.5965 92.0858 77.9591C92.7258 78.3218 93.2165 78.8231 93.5578 79.4631C93.9098 80.0925 94.0858 80.8071 94.0858 81.6071ZM92.5818 81.3031C92.5818 80.7485 92.4591 80.2738 92.2138 79.8791C91.9685 79.4738 91.6325 79.1698 91.2058 78.9671C90.7898 78.7538 90.3258 78.6471 89.8138 78.6471C89.0778 78.6471 88.4485 78.8818 87.9258 79.3511C87.4138 79.8205 87.1205 80.4711 87.0458 81.3031H92.5818ZM102.049 78.7591V83.9271C102.049 84.3538 102.14 84.6578 102.321 84.8391C102.503 85.0098 102.817 85.0951 103.265 85.0951H104.337V86.3271H103.025C102.215 86.3271 101.607 86.1405 101.201 85.7671C100.796 85.3938 100.593 84.7805 100.593 83.9271V78.7591H99.4573V77.5591H100.593V75.3511H102.049V77.5591H104.337V78.7591H102.049ZM110.453 77.3991C111.115 77.3991 111.712 77.5431 112.245 77.8311C112.779 78.1085 113.195 78.5298 113.493 79.0951C113.803 79.6605 113.957 80.3485 113.957 81.1591V86.3271H112.517V81.3671C112.517 80.4925 112.299 79.8258 111.861 79.3671C111.424 78.8978 110.827 78.6631 110.069 78.6631C109.301 78.6631 108.688 78.9031 108.229 79.3831C107.781 79.8631 107.557 80.5618 107.557 81.4791V86.3271H106.101V74.4871H107.557V78.8071C107.845 78.3591 108.24 78.0125 108.741 77.7671C109.253 77.5218 109.824 77.3991 110.453 77.3991ZM124.336 81.6071C124.336 81.8845 124.32 82.1778 124.288 82.4871H117.28C117.333 83.3511 117.626 84.0285 118.16 84.5191C118.704 84.9991 119.36 85.2391 120.128 85.2391C120.757 85.2391 121.28 85.0951 121.696 84.8071C122.122 84.5085 122.421 84.1138 122.592 83.6231H124.16C123.925 84.4658 123.456 85.1538 122.752 85.6871C122.048 86.2098 121.173 86.4711 120.128 86.4711C119.296 86.4711 118.549 86.2845 117.888 85.9111C117.237 85.5378 116.725 85.0098 116.352 84.3271C115.978 83.6338 115.792 82.8338 115.792 81.9271C115.792 81.0205 115.973 80.2258 116.336 79.5431C116.698 78.8605 117.205 78.3378 117.856 77.9751C118.517 77.6018 119.274 77.4151 120.128 77.4151C120.96 77.4151 121.696 77.5965 122.336 77.9591C122.976 78.3218 123.466 78.8231 123.808 79.4631C124.16 80.0925 124.336 80.8071 124.336 81.6071ZM122.832 81.3031C122.832 80.7485 122.709 80.2738 122.464 79.8791C122.218 79.4738 121.882 79.1698 121.456 78.9671C121.04 78.7538 120.576 78.6471 120.064 78.6471C119.328 78.6471 118.698 78.8818 118.176 79.3511C117.664 79.8205 117.37 80.4711 117.296 81.3031H122.832ZM131.979 79.1751C132.267 78.6738 132.694 78.2578 133.259 77.9271C133.835 77.5858 134.502 77.4151 135.259 77.4151C136.038 77.4151 136.742 77.6018 137.371 77.9751C138.011 78.3485 138.513 78.8765 138.875 79.5591C139.238 80.2311 139.419 81.0151 139.419 81.9111C139.419 82.7965 139.238 83.5858 138.875 84.2791C138.513 84.9725 138.011 85.5111 137.371 85.8951C136.742 86.2791 136.038 86.4711 135.259 86.4711C134.513 86.4711 133.851 86.3058 133.275 85.9751C132.71 85.6338 132.278 85.2125 131.979 84.7111V90.4871H130.523V77.5591H131.979V79.1751ZM137.931 81.9111C137.931 81.2498 137.798 80.6738 137.531 80.1831C137.265 79.6925 136.902 79.3191 136.443 79.0631C135.995 78.8071 135.499 78.6791 134.955 78.6791C134.422 78.6791 133.926 78.8125 133.467 79.0791C133.019 79.3351 132.657 79.7138 132.379 80.2151C132.113 80.7058 131.979 81.2765 131.979 81.9271C131.979 82.5885 132.113 83.1698 132.379 83.6711C132.657 84.1618 133.019 84.5405 133.467 84.8071C133.926 85.0631 134.422 85.1911 134.955 85.1911C135.499 85.1911 135.995 85.0631 136.443 84.8071C136.902 84.5405 137.265 84.1618 137.531 83.6711C137.798 83.1698 137.931 82.5831 137.931 81.9111ZM142.792 78.9831C143.048 78.4818 143.41 78.0925 143.88 77.8151C144.36 77.5378 144.941 77.3991 145.624 77.3991V78.9031H145.24C143.608 78.9031 142.792 79.7885 142.792 81.5591V86.3271H141.336V77.5591H142.792V78.9831ZM148.057 76.1351C147.779 76.1351 147.545 76.0391 147.353 75.8471C147.161 75.6551 147.065 75.4205 147.065 75.1431C147.065 74.8658 147.161 74.6311 147.353 74.4391C147.545 74.2471 147.779 74.1511 148.057 74.1511C148.323 74.1511 148.547 74.2471 148.729 74.4391C148.921 74.6311 149.017 74.8658 149.017 75.1431C149.017 75.4205 148.921 75.6551 148.729 75.8471C148.547 76.0391 148.323 76.1351 148.057 76.1351ZM148.761 77.5591V86.3271H147.305V77.5591H148.761ZM150.698 81.9271C150.698 81.0205 150.879 80.2311 151.242 79.5591C151.605 78.8765 152.106 78.3485 152.746 77.9751C153.397 77.6018 154.138 77.4151 154.97 77.4151C156.047 77.4151 156.933 77.6765 157.626 78.1991C158.33 78.7218 158.794 79.4471 159.018 80.3751H157.45C157.301 79.8418 157.007 79.4205 156.57 79.1111C156.143 78.8018 155.61 78.6471 154.97 78.6471C154.138 78.6471 153.466 78.9351 152.954 79.5111C152.442 80.0765 152.186 80.8818 152.186 81.9271C152.186 82.9831 152.442 83.7991 152.954 84.3751C153.466 84.9511 154.138 85.2391 154.97 85.2391C155.61 85.2391 156.143 85.0898 156.57 84.7911C156.997 84.4925 157.29 84.0658 157.45 83.5111H159.018C158.783 84.4071 158.314 85.1271 157.61 85.6711C156.906 86.2045 156.026 86.4711 154.97 86.4711C154.138 86.4711 153.397 86.2845 152.746 85.9111C152.106 85.5378 151.605 85.0098 151.242 84.3271C150.879 83.6445 150.698 82.8445 150.698 81.9271ZM168.961 81.6071C168.961 81.8845 168.945 82.1778 168.913 82.4871H161.905C161.958 83.3511 162.251 84.0285 162.785 84.5191C163.329 84.9991 163.985 85.2391 164.753 85.2391C165.382 85.2391 165.905 85.0951 166.321 84.8071C166.747 84.5085 167.046 84.1138 167.217 83.6231H168.785C168.55 84.4658 168.081 85.1538 167.377 85.6871C166.673 86.2098 165.798 86.4711 164.753 86.4711C163.921 86.4711 163.174 86.2845 162.513 85.9111C161.862 85.5378 161.35 85.0098 160.977 84.3271C160.603 83.6338 160.417 82.8338 160.417 81.9271C160.417 81.0205 160.598 80.2258 160.961 79.5431C161.323 78.8605 161.83 78.3378 162.481 77.9751C163.142 77.6018 163.899 77.4151 164.753 77.4151C165.585 77.4151 166.321 77.5965 166.961 77.9591C167.601 78.3218 168.091 78.8231 168.433 79.4631C168.785 80.0925 168.961 80.8071 168.961 81.6071ZM167.457 81.3031C167.457 80.7485 167.334 80.2738 167.089 79.8791C166.843 79.4738 166.507 79.1698 166.081 78.9671C165.665 78.7538 165.201 78.6471 164.689 78.6471C163.953 78.6471 163.323 78.8818 162.801 79.3511C162.289 79.8205 161.995 80.4711 161.921 81.3031H167.457ZM173.987 86.4711C173.315 86.4711 172.712 86.3591 172.179 86.1351C171.645 85.9005 171.224 85.5805 170.915 85.1751C170.605 84.7591 170.435 84.2845 170.403 83.7511H171.907C171.949 84.1885 172.152 84.5458 172.515 84.8231C172.888 85.1005 173.373 85.2391 173.971 85.2391C174.525 85.2391 174.963 85.1165 175.283 84.8711C175.603 84.6258 175.763 84.3165 175.763 83.9431C175.763 83.5591 175.592 83.2765 175.251 83.0951C174.909 82.9031 174.381 82.7165 173.667 82.5351C173.016 82.3645 172.483 82.1938 172.067 82.0231C171.661 81.8418 171.309 81.5805 171.011 81.2391C170.723 80.8871 170.579 80.4285 170.579 79.8631C170.579 79.4151 170.712 79.0045 170.979 78.6311C171.245 78.2578 171.624 77.9645 172.115 77.7511C172.605 77.5271 173.165 77.4151 173.795 77.4151C174.765 77.4151 175.549 77.6605 176.147 78.1511C176.744 78.6418 177.064 79.3138 177.107 80.1671H175.651C175.619 79.7085 175.432 79.3405 175.091 79.0631C174.76 78.7858 174.312 78.6471 173.747 78.6471C173.224 78.6471 172.808 78.7591 172.499 78.9831C172.189 79.2071 172.035 79.5005 172.035 79.8631C172.035 80.1511 172.125 80.3911 172.307 80.5831C172.499 80.7645 172.733 80.9138 173.011 81.0311C173.299 81.1378 173.693 81.2605 174.195 81.3991C174.824 81.5698 175.336 81.7405 175.731 81.9111C176.125 82.0711 176.461 82.3165 176.739 82.6471C177.027 82.9778 177.176 83.4098 177.187 83.9431C177.187 84.4231 177.053 84.8551 176.787 85.2391C176.52 85.6231 176.141 85.9271 175.651 86.1511C175.171 86.3645 174.616 86.4711 173.987 86.4711ZM182.964 81.9271C182.964 81.0205 183.145 80.2311 183.508 79.5591C183.87 78.8765 184.372 78.3485 185.012 77.9751C185.662 77.6018 186.404 77.4151 187.236 77.4151C188.313 77.4151 189.198 77.6765 189.892 78.1991C190.596 78.7218 191.06 79.4471 191.284 80.3751H189.716C189.566 79.8418 189.273 79.4205 188.836 79.1111C188.409 78.8018 187.876 78.6471 187.236 78.6471C186.404 78.6471 185.732 78.9351 185.22 79.5111C184.708 80.0765 184.452 80.8818 184.452 81.9271C184.452 82.9831 184.708 83.7991 185.22 84.3751C185.732 84.9511 186.404 85.2391 187.236 85.2391C187.876 85.2391 188.409 85.0898 188.836 84.7911C189.262 84.4925 189.556 84.0658 189.716 83.5111H191.284C191.049 84.4071 190.58 85.1271 189.876 85.6711C189.172 86.2045 188.292 86.4711 187.236 86.4711C186.404 86.4711 185.662 86.2845 185.012 85.9111C184.372 85.5378 183.87 85.0098 183.508 84.3271C183.145 83.6445 182.964 82.8445 182.964 81.9271ZM197.578 77.3991C198.24 77.3991 198.837 77.5431 199.37 77.8311C199.904 78.1085 200.32 78.5298 200.618 79.0951C200.928 79.6605 201.082 80.3485 201.082 81.1591V86.3271H199.642V81.3671C199.642 80.4925 199.424 79.8258 198.986 79.3671C198.549 78.8978 197.952 78.6631 197.194 78.6631C196.426 78.6631 195.813 78.9031 195.354 79.3831C194.906 79.8631 194.682 80.5618 194.682 81.4791V86.3271H193.226V74.4871H194.682V78.8071C194.97 78.3591 195.365 78.0125 195.866 77.7671C196.378 77.5218 196.949 77.3991 197.578 77.3991ZM202.917 81.9111C202.917 81.0151 203.098 80.2311 203.461 79.5591C203.823 78.8765 204.319 78.3485 204.949 77.9751C205.589 77.6018 206.298 77.4151 207.077 77.4151C207.845 77.4151 208.511 77.5805 209.077 77.9111C209.642 78.2418 210.063 78.6578 210.341 79.1591V77.5591H211.813V86.3271H210.341V84.6951C210.053 85.2071 209.621 85.6338 209.045 85.9751C208.479 86.3058 207.818 86.4711 207.061 86.4711C206.282 86.4711 205.578 86.2791 204.949 85.8951C204.319 85.5111 203.823 84.9725 203.461 84.2791C203.098 83.5858 202.917 82.7965 202.917 81.9111ZM210.341 81.9271C210.341 81.2658 210.207 80.6898 209.941 80.1991C209.674 79.7085 209.311 79.3351 208.853 79.0791C208.405 78.8125 207.909 78.6791 207.365 78.6791C206.821 78.6791 206.325 78.8071 205.877 79.0631C205.429 79.3191 205.071 79.6925 204.805 80.1831C204.538 80.6738 204.405 81.2498 204.405 81.9111C204.405 82.5831 204.538 83.1698 204.805 83.6711C205.071 84.1618 205.429 84.5405 205.877 84.8071C206.325 85.0631 206.821 85.1911 207.365 85.1911C207.909 85.1911 208.405 85.0631 208.853 84.8071C209.311 84.5405 209.674 84.1618 209.941 83.6711C210.207 83.1698 210.341 82.5885 210.341 81.9271ZM218.545 77.3991C219.612 77.3991 220.476 77.7245 221.137 78.3751C221.799 79.0151 222.129 79.9431 222.129 81.1591V86.3271H220.689V81.3671C220.689 80.4925 220.471 79.8258 220.033 79.3671C219.596 78.8978 218.999 78.6631 218.241 78.6631C217.473 78.6631 216.86 78.9031 216.401 79.3831C215.953 79.8631 215.729 80.5618 215.729 81.4791V86.3271H214.273V77.5591H215.729V78.8071C216.017 78.3591 216.407 78.0125 216.897 77.7671C217.399 77.5218 217.948 77.3991 218.545 77.3991ZM228.124 77.4151C228.881 77.4151 229.542 77.5805 230.108 77.9111C230.684 78.2418 231.11 78.6578 231.388 79.1591V77.5591H232.86V86.5191C232.86 87.3191 232.689 88.0285 232.348 88.6471C232.006 89.2765 231.516 89.7671 230.876 90.1191C230.246 90.4711 229.51 90.6471 228.668 90.6471C227.516 90.6471 226.556 90.3751 225.788 89.8311C225.02 89.2871 224.566 88.5458 224.428 87.6071H225.868C226.028 88.1405 226.358 88.5671 226.86 88.8871C227.361 89.2178 227.964 89.3831 228.668 89.3831C229.468 89.3831 230.118 89.1325 230.62 88.6311C231.132 88.1298 231.388 87.4258 231.388 86.5191V84.6791C231.1 85.1911 230.673 85.6178 230.108 85.9591C229.542 86.3005 228.881 86.4711 228.124 86.4711C227.345 86.4711 226.636 86.2791 225.996 85.8951C225.366 85.5111 224.87 84.9725 224.508 84.2791C224.145 83.5858 223.964 82.7965 223.964 81.9111C223.964 81.0151 224.145 80.2311 224.508 79.5591C224.87 78.8765 225.366 78.3485 225.996 77.9751C226.636 77.6018 227.345 77.4151 228.124 77.4151ZM231.388 81.9271C231.388 81.2658 231.254 80.6898 230.988 80.1991C230.721 79.7085 230.358 79.3351 229.9 79.0791C229.452 78.8125 228.956 78.6791 228.412 78.6791C227.868 78.6791 227.372 78.8071 226.924 79.0631C226.476 79.3191 226.118 79.6925 225.852 80.1831C225.585 80.6738 225.452 81.2498 225.452 81.9111C225.452 82.5831 225.585 83.1698 225.852 83.6711C226.118 84.1618 226.476 84.5405 226.924 84.8071C227.372 85.0631 227.868 85.1911 228.412 85.1911C228.956 85.1911 229.452 85.0631 229.9 84.8071C230.358 84.5405 230.721 84.1618 230.988 83.6711C231.254 83.1698 231.388 82.5885 231.388 81.9271ZM243.32 81.6071C243.32 81.8845 243.304 82.1778 243.272 82.4871H236.264C236.317 83.3511 236.611 84.0285 237.144 84.5191C237.688 84.9991 238.344 85.2391 239.112 85.2391C239.741 85.2391 240.264 85.0951 240.68 84.8071C241.107 84.5085 241.405 84.1138 241.576 83.6231H243.144C242.909 84.4658 242.44 85.1538 241.736 85.6871C241.032 86.2098 240.157 86.4711 239.112 86.4711C238.28 86.4711 237.533 86.2845 236.872 85.9111C236.221 85.5378 235.709 85.0098 235.336 84.3271C234.963 83.6338 234.776 82.8338 234.776 81.9271C234.776 81.0205 234.957 80.2258 235.32 79.5431C235.683 78.8605 236.189 78.3378 236.84 77.9751C237.501 77.6018 238.259 77.4151 239.112 77.4151C239.944 77.4151 240.68 77.5965 241.32 77.9591C241.96 78.3218 242.451 78.8231 242.792 79.4631C243.144 80.0925 243.32 80.8071 243.32 81.6071ZM241.816 81.3031C241.816 80.7485 241.693 80.2738 241.448 79.8791C241.203 79.4738 240.867 79.1698 240.44 78.9671C240.024 78.7538 239.56 78.6471 239.048 78.6471C238.312 78.6471 237.683 78.8818 237.16 79.3511C236.648 79.8205 236.355 80.4711 236.28 81.3031H241.816ZM247.13 75.1751L246.954 83.1751H245.738L245.562 75.1751H247.13ZM246.41 86.4231C246.133 86.4231 245.898 86.3271 245.706 86.1351C245.514 85.9431 245.418 85.7085 245.418 85.4311C245.418 85.1538 245.514 84.9191 245.706 84.7271C245.898 84.5351 246.133 84.4391 246.41 84.4391C246.677 84.4391 246.901 84.5351 247.082 84.7271C247.274 84.9191 247.37 85.1538 247.37 85.4311C247.37 85.7085 247.274 85.9431 247.082 86.1351C246.901 86.3271 246.677 86.4231 246.41 86.4231Z" fill="#B0F1EA"/>
</svg>
