<svg width="217" height="135" viewBox="0 0 217 135" fill="none" xmlns="http://www.w3.org/2000/svg">
<path d="M112.589 132.483C112.283 133.35 111.067 133.38 110.72 132.528L95.562 95.3778C95.2936 94.72 95.7775 94 96.4879 94L124.763 94C125.453 94 125.936 94.6823 125.706 95.333L112.589 132.483Z" fill="#2E4F72"/>
<path d="M0 40C0 17.9086 17.9086 0 40 0H177C199.091 0 217 17.9086 217 40V54C217 76.0914 199.091 94 177 94H40C17.9086 94 0 76.0914 0 54V40Z" fill="#2E4F72"/>
<path d="M38.3599 37.416C38.3599 36.328 38.6052 35.352 39.0959 34.488C39.5865 33.6133 40.2532 32.9307 41.0959 32.44C41.9492 31.9493 42.8932 31.704 43.9279 31.704C45.1439 31.704 46.2052 31.9973 47.1119 32.584C48.0185 33.1707 48.6799 34.0027 49.0959 35.08H47.3519C47.0425 34.408 46.5945 33.8907 46.0079 33.528C45.4319 33.1653 44.7385 32.984 43.9279 32.984C43.1492 32.984 42.4505 33.1653 41.8319 33.528C41.2132 33.8907 40.7279 34.408 40.3759 35.08C40.0239 35.7413 39.8479 36.52 39.8479 37.416C39.8479 38.3013 40.0239 39.08 40.3759 39.752C40.7279 40.4133 41.2132 40.9253 41.8319 41.288C42.4505 41.6507 43.1492 41.832 43.9279 41.832C44.7385 41.832 45.4319 41.656 46.0079 41.304C46.5945 40.9413 47.0425 40.424 47.3519 39.752H49.0959C48.6799 40.8187 48.0185 41.6453 47.1119 42.232C46.2052 42.808 45.1439 43.096 43.9279 43.096C42.8932 43.096 41.9492 42.856 41.0959 42.376C40.2532 41.8853 39.5865 41.208 39.0959 40.344C38.6052 39.48 38.3599 38.504 38.3599 37.416ZM52.7193 31.16V43H51.2633V31.16H52.7193ZM55.9528 32.808C55.6754 32.808 55.4408 32.712 55.2488 32.52C55.0568 32.328 54.9608 32.0933 54.9608 31.816C54.9608 31.5387 55.0568 31.304 55.2488 31.112C55.4408 30.92 55.6754 30.824 55.9528 30.824C56.2194 30.824 56.4434 30.92 56.6248 31.112C56.8168 31.304 56.9128 31.5387 56.9128 31.816C56.9128 32.0933 56.8168 32.328 56.6248 32.52C56.4434 32.712 56.2194 32.808 55.9528 32.808ZM56.6568 34.232V43H55.2008V34.232H56.6568ZM58.5943 38.6C58.5943 37.6933 58.7756 36.904 59.1383 36.232C59.5009 35.5493 60.0023 35.0213 60.6423 34.648C61.2929 34.2747 62.0343 34.088 62.8663 34.088C63.9436 34.088 64.8289 34.3493 65.5223 34.872C66.2263 35.3947 66.6903 36.12 66.9143 37.048H65.3463C65.1969 36.5147 64.9036 36.0933 64.4663 35.784C64.0396 35.4747 63.5063 35.32 62.8663 35.32C62.0343 35.32 61.3623 35.608 60.8503 36.184C60.3383 36.7493 60.0823 37.5547 60.0823 38.6C60.0823 39.656 60.3383 40.472 60.8503 41.048C61.3623 41.624 62.0343 41.912 62.8663 41.912C63.5063 41.912 64.0396 41.7627 64.4663 41.464C64.8929 41.1653 65.1863 40.7387 65.3463 40.184H66.9143C66.6796 41.08 66.2103 41.8 65.5063 42.344C64.8023 42.8773 63.9223 43.144 62.8663 43.144C62.0343 43.144 61.2929 42.9573 60.6423 42.584C60.0023 42.2107 59.5009 41.6827 59.1383 41C58.7756 40.3173 58.5943 39.5173 58.5943 38.6ZM73.753 43L70.313 39.128V43H68.857V31.16H70.313V38.12L73.689 34.232H75.721L71.593 38.6L75.737 43H73.753ZM85.709 34.072C86.3703 34.072 86.9677 34.216 87.501 34.504C88.0343 34.7813 88.4503 35.2027 88.749 35.768C89.0583 36.3333 89.213 37.0213 89.213 37.832V43H87.773V38.04C87.773 37.1653 87.5543 36.4987 87.117 36.04C86.6797 35.5707 86.0823 35.336 85.325 35.336C84.557 35.336 83.9437 35.576 83.485 36.056C83.037 36.536 82.813 37.2347 82.813 38.152V43H81.357V31.16H82.813V35.48C83.101 35.032 83.4957 34.6853 83.997 34.44C84.509 34.1947 85.0797 34.072 85.709 34.072ZM99.5914 38.28C99.5914 38.5573 99.5754 38.8507 99.5434 39.16H92.5354C92.5887 40.024 92.882 40.7013 93.4154 41.192C93.9594 41.672 94.6154 41.912 95.3834 41.912C96.0127 41.912 96.5354 41.768 96.9514 41.48C97.378 41.1813 97.6767 40.7867 97.8474 40.296H99.4154C99.1807 41.1387 98.7114 41.8267 98.0074 42.36C97.3034 42.8827 96.4287 43.144 95.3834 43.144C94.5514 43.144 93.8047 42.9573 93.1434 42.584C92.4927 42.2107 91.9807 41.6827 91.6074 41C91.234 40.3067 91.0474 39.5067 91.0474 38.6C91.0474 37.6933 91.2287 36.8987 91.5914 36.216C91.954 35.5333 92.4607 35.0107 93.1114 34.648C93.7727 34.2747 94.53 34.088 95.3834 34.088C96.2154 34.088 96.9514 34.2693 97.5914 34.632C98.2314 34.9947 98.722 35.496 99.0634 36.136C99.4154 36.7653 99.5914 37.48 99.5914 38.28ZM98.0874 37.976C98.0874 37.4213 97.9647 36.9467 97.7194 36.552C97.474 36.1467 97.138 35.8427 96.7114 35.64C96.2954 35.4267 95.8314 35.32 95.3194 35.32C94.5834 35.32 93.954 35.5547 93.4314 36.024C92.9194 36.4933 92.626 37.144 92.5514 37.976H98.0874ZM102.969 35.656C103.225 35.1547 103.588 34.7653 104.057 34.488C104.537 34.2107 105.119 34.072 105.801 34.072V35.576H105.417C103.785 35.576 102.969 36.4613 102.969 38.232V43H101.513V34.232H102.969V35.656ZM115.482 38.28C115.482 38.5573 115.466 38.8507 115.434 39.16H108.426C108.479 40.024 108.773 40.7013 109.306 41.192C109.85 41.672 110.506 41.912 111.274 41.912C111.903 41.912 112.426 41.768 112.842 41.48C113.269 41.1813 113.567 40.7867 113.738 40.296H115.306C115.071 41.1387 114.602 41.8267 113.898 42.36C113.194 42.8827 112.319 43.144 111.274 43.144C110.442 43.144 109.695 42.9573 109.034 42.584C108.383 42.2107 107.871 41.6827 107.498 41C107.125 40.3067 106.938 39.5067 106.938 38.6C106.938 37.6933 107.119 36.8987 107.482 36.216C107.845 35.5333 108.351 35.0107 109.002 34.648C109.663 34.2747 110.421 34.088 111.274 34.088C112.106 34.088 112.842 34.2693 113.482 34.632C114.122 34.9947 114.613 35.496 114.954 36.136C115.306 36.7653 115.482 37.48 115.482 38.28ZM113.978 37.976C113.978 37.4213 113.855 36.9467 113.61 36.552C113.365 36.1467 113.029 35.8427 112.602 35.64C112.186 35.4267 111.722 35.32 111.21 35.32C110.474 35.32 109.845 35.5547 109.322 36.024C108.81 36.4933 108.517 37.144 108.442 37.976H113.978ZM123.446 35.432V40.6C123.446 41.0267 123.536 41.3307 123.718 41.512C123.899 41.6827 124.214 41.768 124.661 41.768H125.734V43H124.422C123.611 43 123.003 42.8133 122.598 42.44C122.192 42.0667 121.99 41.4533 121.99 40.6V35.432H120.854V34.232H121.99V32.024H123.446V34.232H125.734V35.432H123.446ZM131.322 43.144C130.5 43.144 129.754 42.9573 129.082 42.584C128.42 42.2107 127.898 41.6827 127.514 41C127.14 40.3067 126.954 39.5067 126.954 38.6C126.954 37.704 127.146 36.9147 127.53 36.232C127.924 35.5387 128.458 35.0107 129.13 34.648C129.802 34.2747 130.554 34.088 131.386 34.088C132.218 34.088 132.97 34.2747 133.642 34.648C134.314 35.0107 134.842 35.5333 135.226 36.216C135.62 36.8987 135.818 37.6933 135.818 38.6C135.818 39.5067 135.615 40.3067 135.21 41C134.815 41.6827 134.276 42.2107 133.594 42.584C132.911 42.9573 132.154 43.144 131.322 43.144ZM131.322 41.864C131.844 41.864 132.335 41.7413 132.794 41.496C133.252 41.2507 133.62 40.8827 133.898 40.392C134.186 39.9013 134.33 39.304 134.33 38.6C134.33 37.896 134.191 37.2987 133.914 36.808C133.636 36.3173 133.274 35.9547 132.826 35.72C132.378 35.4747 131.892 35.352 131.37 35.352C130.836 35.352 130.346 35.4747 129.898 35.72C129.46 35.9547 129.108 36.3173 128.842 36.808C128.575 37.2987 128.442 37.896 128.442 38.6C128.442 39.3147 128.57 39.9173 128.826 40.408C129.092 40.8987 129.444 41.2667 129.882 41.512C130.319 41.7467 130.799 41.864 131.322 41.864ZM143.774 35.432V40.6C143.774 41.0267 143.864 41.3307 144.046 41.512C144.227 41.6827 144.542 41.768 144.99 41.768H146.062V43H144.75C143.939 43 143.331 42.8133 142.926 42.44C142.52 42.0667 142.318 41.4533 142.318 40.6V35.432H141.182V34.232H142.318V32.024H143.774V34.232H146.062V35.432H143.774ZM149.282 35.656C149.538 35.1547 149.9 34.7653 150.37 34.488C150.85 34.2107 151.431 34.072 152.114 34.072V35.576H151.73C150.098 35.576 149.282 36.4613 149.282 38.232V43H147.826V34.232H149.282V35.656ZM153.251 38.584C153.251 37.688 153.432 36.904 153.795 36.232C154.157 35.5493 154.653 35.0213 155.283 34.648C155.923 34.2747 156.632 34.088 157.411 34.088C158.179 34.088 158.845 34.2533 159.411 34.584C159.976 34.9147 160.397 35.3307 160.675 35.832V34.232H162.147V43H160.675V41.368C160.387 41.88 159.955 42.3067 159.379 42.648C158.813 42.9787 158.152 43.144 157.395 43.144C156.616 43.144 155.912 42.952 155.283 42.568C154.653 42.184 154.157 41.6453 153.795 40.952C153.432 40.2587 153.251 39.4693 153.251 38.584ZM160.675 38.6C160.675 37.9387 160.541 37.3627 160.275 36.872C160.008 36.3813 159.645 36.008 159.187 35.752C158.739 35.4853 158.243 35.352 157.699 35.352C157.155 35.352 156.659 35.48 156.211 35.736C155.763 35.992 155.405 36.3653 155.139 36.856C154.872 37.3467 154.739 37.9227 154.739 38.584C154.739 39.256 154.872 39.8427 155.139 40.344C155.405 40.8347 155.763 41.2133 156.211 41.48C156.659 41.736 157.155 41.864 157.699 41.864C158.243 41.864 158.739 41.736 159.187 41.48C159.645 41.2133 160.008 40.8347 160.275 40.344C160.541 39.8427 160.675 39.2613 160.675 38.6ZM164.063 38.6C164.063 37.6933 164.244 36.904 164.607 36.232C164.97 35.5493 165.471 35.0213 166.111 34.648C166.762 34.2747 167.503 34.088 168.335 34.088C169.412 34.088 170.298 34.3493 170.991 34.872C171.695 35.3947 172.159 36.12 172.383 37.048H170.815C170.666 36.5147 170.372 36.0933 169.935 35.784C169.508 35.4747 168.975 35.32 168.335 35.32C167.503 35.32 166.831 35.608 166.319 36.184C165.807 36.7493 165.551 37.5547 165.551 38.6C165.551 39.656 165.807 40.472 166.319 41.048C166.831 41.624 167.503 41.912 168.335 41.912C168.975 41.912 169.508 41.7627 169.935 41.464C170.362 41.1653 170.655 40.7387 170.815 40.184H172.383C172.148 41.08 171.679 41.8 170.975 42.344C170.271 42.8773 169.391 43.144 168.335 43.144C167.503 43.144 166.762 42.9573 166.111 42.584C165.471 42.2107 164.97 41.6827 164.607 41C164.244 40.3173 164.063 39.5173 164.063 38.6ZM179.222 43L175.782 39.128V43H174.326V31.16H175.782V38.12L179.158 34.232H181.19L177.062 38.6L181.206 43H179.222ZM63.2059 52.232L57.9259 65.128H56.4219L58.1499 60.904L54.6139 52.232H56.2299L58.9819 59.336L61.7019 52.232H63.2059ZM68.4935 61.144C67.6722 61.144 66.9255 60.9573 66.2535 60.584C65.5922 60.2107 65.0695 59.6827 64.6855 59C64.3122 58.3067 64.1255 57.5067 64.1255 56.6C64.1255 55.704 64.3175 54.9147 64.7015 54.232C65.0962 53.5387 65.6295 53.0107 66.3015 52.648C66.9735 52.2747 67.7255 52.088 68.5575 52.088C69.3895 52.088 70.1415 52.2747 70.8135 52.648C71.4855 53.0107 72.0135 53.5333 72.3975 54.216C72.7922 54.8987 72.9895 55.6933 72.9895 56.6C72.9895 57.5067 72.7868 58.3067 72.3815 59C71.9868 59.6827 71.4482 60.2107 70.7655 60.584C70.0828 60.9573 69.3255 61.144 68.4935 61.144ZM68.4935 59.864C69.0162 59.864 69.5068 59.7413 69.9655 59.496C70.4242 59.2507 70.7922 58.8827 71.0695 58.392C71.3575 57.9013 71.5015 57.304 71.5015 56.6C71.5015 55.896 71.3628 55.2987 71.0855 54.808C70.8082 54.3173 70.4455 53.9547 69.9975 53.72C69.5495 53.4747 69.0642 53.352 68.5415 53.352C68.0082 53.352 67.5175 53.4747 67.0695 53.72C66.6322 53.9547 66.2802 54.3173 66.0135 54.808C65.7468 55.2987 65.6135 55.896 65.6135 56.6C65.6135 57.3147 65.7415 57.9173 65.9975 58.408C66.2642 58.8987 66.6162 59.2667 67.0535 59.512C67.4908 59.7467 67.9708 59.864 68.4935 59.864ZM82.6799 52.232V61H81.2239V59.704C80.9465 60.152 80.5572 60.504 80.0559 60.76C79.5652 61.0053 79.0212 61.128 78.4239 61.128C77.7412 61.128 77.1279 60.9893 76.5839 60.712C76.0399 60.424 75.6079 59.9973 75.2879 59.432C74.9785 58.8667 74.8239 58.1787 74.8239 57.368V52.232H76.2639V57.176C76.2639 58.04 76.4825 58.7067 76.9199 59.176C77.3572 59.6347 77.9545 59.864 78.7119 59.864C79.4905 59.864 80.1039 59.624 80.5519 59.144C80.9999 58.664 81.2239 57.9653 81.2239 57.048V52.232H82.6799ZM86.5943 53.656C86.8503 53.1547 87.2129 52.7653 87.6823 52.488C88.1623 52.2107 88.7436 52.072 89.4263 52.072V53.576H89.0423C87.4103 53.576 86.5943 54.4613 86.5943 56.232V61H85.1383V52.232H86.5943V53.656ZM96.8286 53.848C97.1166 53.3467 97.5433 52.9307 98.1086 52.6C98.6846 52.2587 99.3513 52.088 100.109 52.088C100.887 52.088 101.591 52.2747 102.221 52.648C102.861 53.0213 103.362 53.5493 103.725 54.232C104.087 54.904 104.269 55.688 104.269 56.584C104.269 57.4693 104.087 58.2587 103.725 58.952C103.362 59.6453 102.861 60.184 102.221 60.568C101.591 60.952 100.887 61.144 100.109 61.144C99.362 61.144 98.7006 60.9787 98.1246 60.648C97.5593 60.3067 97.1273 59.8853 96.8286 59.384V65.16H95.3726V52.232H96.8286V53.848ZM102.781 56.584C102.781 55.9227 102.647 55.3467 102.381 54.856C102.114 54.3653 101.751 53.992 101.293 53.736C100.845 53.48 100.349 53.352 99.8046 53.352C99.2713 53.352 98.7753 53.4853 98.3166 53.752C97.8686 54.008 97.506 54.3867 97.2286 54.888C96.962 55.3787 96.8286 55.9493 96.8286 56.6C96.8286 57.2613 96.962 57.8427 97.2286 58.344C97.506 58.8347 97.8686 59.2133 98.3166 59.48C98.7753 59.736 99.2713 59.864 99.8046 59.864C100.349 59.864 100.845 59.736 101.293 59.48C101.751 59.2133 102.114 58.8347 102.381 58.344C102.647 57.8427 102.781 57.256 102.781 56.584ZM107.641 53.656C107.897 53.1547 108.26 52.7653 108.729 52.488C109.209 52.2107 109.79 52.072 110.473 52.072V53.576H110.089C108.457 53.576 107.641 54.4613 107.641 56.232V61H106.185V52.232H107.641V53.656ZM115.978 61.144C115.157 61.144 114.41 60.9573 113.738 60.584C113.077 60.2107 112.554 59.6827 112.17 59C111.797 58.3067 111.61 57.5067 111.61 56.6C111.61 55.704 111.802 54.9147 112.186 54.232C112.581 53.5387 113.114 53.0107 113.786 52.648C114.458 52.2747 115.21 52.088 116.042 52.088C116.874 52.088 117.626 52.2747 118.298 52.648C118.97 53.0107 119.498 53.5333 119.882 54.216C120.277 54.8987 120.474 55.6933 120.474 56.6C120.474 57.5067 120.271 58.3067 119.866 59C119.471 59.6827 118.933 60.2107 118.25 60.584C117.567 60.9573 116.81 61.144 115.978 61.144ZM115.978 59.864C116.501 59.864 116.991 59.7413 117.45 59.496C117.909 59.2507 118.277 58.8827 118.554 58.392C118.842 57.9013 118.986 57.304 118.986 56.6C118.986 55.896 118.847 55.2987 118.57 54.808C118.293 54.3173 117.93 53.9547 117.482 53.72C117.034 53.4747 116.549 53.352 116.026 53.352C115.493 53.352 115.002 53.4747 114.554 53.72C114.117 53.9547 113.765 54.3173 113.498 54.808C113.231 55.2987 113.098 55.896 113.098 56.6C113.098 57.3147 113.226 57.9173 113.482 58.408C113.749 58.8987 114.101 59.2667 114.538 59.512C114.975 59.7467 115.455 59.864 115.978 59.864ZM126.004 52.088C126.762 52.088 127.423 52.2533 127.988 52.584C128.564 52.9147 128.991 53.3307 129.268 53.832V52.232H130.74V61.192C130.74 61.992 130.57 62.7013 130.228 63.32C129.887 63.9493 129.396 64.44 128.756 64.792C128.127 65.144 127.391 65.32 126.548 65.32C125.396 65.32 124.436 65.048 123.668 64.504C122.9 63.96 122.447 63.2187 122.308 62.28H123.748C123.908 62.8133 124.239 63.24 124.74 63.56C125.242 63.8907 125.844 64.056 126.548 64.056C127.348 64.056 127.999 63.8053 128.5 63.304C129.012 62.8027 129.268 62.0987 129.268 61.192V59.352C128.98 59.864 128.554 60.2907 127.988 60.632C127.423 60.9733 126.762 61.144 126.004 61.144C125.226 61.144 124.516 60.952 123.876 60.568C123.247 60.184 122.751 59.6453 122.388 58.952C122.026 58.2587 121.844 57.4693 121.844 56.584C121.844 55.688 122.026 54.904 122.388 54.232C122.751 53.5493 123.247 53.0213 123.876 52.648C124.516 52.2747 125.226 52.088 126.004 52.088ZM129.268 56.6C129.268 55.9387 129.135 55.3627 128.868 54.872C128.602 54.3813 128.239 54.008 127.78 53.752C127.332 53.4853 126.836 53.352 126.292 53.352C125.748 53.352 125.252 53.48 124.804 53.736C124.356 53.992 123.999 54.3653 123.732 54.856C123.466 55.3467 123.332 55.9227 123.332 56.584C123.332 57.256 123.466 57.8427 123.732 58.344C123.999 58.8347 124.356 59.2133 124.804 59.48C125.252 59.736 125.748 59.864 126.292 59.864C126.836 59.864 127.332 59.736 127.78 59.48C128.239 59.2133 128.602 58.8347 128.868 58.344C129.135 57.8427 129.268 57.2613 129.268 56.6ZM134.657 53.656C134.913 53.1547 135.275 52.7653 135.745 52.488C136.225 52.2107 136.806 52.072 137.489 52.072V53.576H137.105C135.473 53.576 134.657 54.4613 134.657 56.232V61H133.201V52.232H134.657V53.656ZM147.17 56.28C147.17 56.5573 147.154 56.8507 147.122 57.16H140.114C140.167 58.024 140.46 58.7013 140.994 59.192C141.538 59.672 142.194 59.912 142.962 59.912C143.591 59.912 144.114 59.768 144.53 59.48C144.956 59.1813 145.255 58.7867 145.426 58.296H146.994C146.759 59.1387 146.29 59.8267 145.586 60.36C144.882 60.8827 144.007 61.144 142.962 61.144C142.13 61.144 141.383 60.9573 140.722 60.584C140.071 60.2107 139.559 59.6827 139.186 59C138.812 58.3067 138.626 57.5067 138.626 56.6C138.626 55.6933 138.807 54.8987 139.17 54.216C139.532 53.5333 140.039 53.0107 140.69 52.648C141.351 52.2747 142.108 52.088 142.962 52.088C143.794 52.088 144.53 52.2693 145.17 52.632C145.81 52.9947 146.3 53.496 146.642 54.136C146.994 54.7653 147.17 55.48 147.17 56.28ZM145.666 55.976C145.666 55.4213 145.543 54.9467 145.298 54.552C145.052 54.1467 144.716 53.8427 144.29 53.64C143.874 53.4267 143.41 53.32 142.898 53.32C142.162 53.32 141.532 53.5547 141.01 54.024C140.498 54.4933 140.204 55.144 140.13 55.976H145.666ZM152.195 61.144C151.523 61.144 150.921 61.032 150.387 60.808C149.854 60.5733 149.433 60.2533 149.123 59.848C148.814 59.432 148.643 58.9573 148.611 58.424H150.115C150.158 58.8613 150.361 59.2187 150.723 59.496C151.097 59.7733 151.582 59.912 152.179 59.912C152.734 59.912 153.171 59.7893 153.491 59.544C153.811 59.2987 153.971 58.9893 153.971 58.616C153.971 58.232 153.801 57.9493 153.459 57.768C153.118 57.576 152.59 57.3893 151.875 57.208C151.225 57.0373 150.691 56.8667 150.275 56.696C149.87 56.5147 149.518 56.2533 149.219 55.912C148.931 55.56 148.787 55.1013 148.787 54.536C148.787 54.088 148.921 53.6773 149.187 53.304C149.454 52.9307 149.833 52.6373 150.323 52.424C150.814 52.2 151.374 52.088 152.003 52.088C152.974 52.088 153.758 52.3333 154.355 52.824C154.953 53.3147 155.273 53.9867 155.315 54.84H153.859C153.827 54.3813 153.641 54.0133 153.299 53.736C152.969 53.4587 152.521 53.32 151.955 53.32C151.433 53.32 151.017 53.432 150.707 53.656C150.398 53.88 150.243 54.1733 150.243 54.536C150.243 54.824 150.334 55.064 150.515 55.256C150.707 55.4373 150.942 55.5867 151.219 55.704C151.507 55.8107 151.902 55.9333 152.403 56.072C153.033 56.2427 153.545 56.4133 153.939 56.584C154.334 56.744 154.67 56.9893 154.947 57.32C155.235 57.6507 155.385 58.0827 155.395 58.616C155.395 59.096 155.262 59.528 154.995 59.912C154.729 60.296 154.35 60.6 153.859 60.824C153.379 61.0373 152.825 61.144 152.195 61.144ZM160.555 61.144C159.883 61.144 159.28 61.032 158.747 60.808C158.213 60.5733 157.792 60.2533 157.483 59.848C157.173 59.432 157.003 58.9573 156.971 58.424H158.475C158.517 58.8613 158.72 59.2187 159.083 59.496C159.456 59.7733 159.941 59.912 160.539 59.912C161.093 59.912 161.531 59.7893 161.851 59.544C162.171 59.2987 162.331 58.9893 162.331 58.616C162.331 58.232 162.16 57.9493 161.819 57.768C161.477 57.576 160.949 57.3893 160.235 57.208C159.584 57.0373 159.051 56.8667 158.635 56.696C158.229 56.5147 157.877 56.2533 157.579 55.912C157.291 55.56 157.147 55.1013 157.147 54.536C157.147 54.088 157.28 53.6773 157.547 53.304C157.813 52.9307 158.192 52.6373 158.683 52.424C159.173 52.2 159.733 52.088 160.363 52.088C161.333 52.088 162.117 52.3333 162.715 52.824C163.312 53.3147 163.632 53.9867 163.675 54.84H162.219C162.187 54.3813 162 54.0133 161.659 53.736C161.328 53.4587 160.88 53.32 160.315 53.32C159.792 53.32 159.376 53.432 159.067 53.656C158.757 53.88 158.603 54.1733 158.603 54.536C158.603 54.824 158.693 55.064 158.875 55.256C159.067 55.4373 159.301 55.5867 159.579 55.704C159.867 55.8107 160.261 55.9333 160.763 56.072C161.392 56.2427 161.904 56.4133 162.299 56.584C162.693 56.744 163.029 56.9893 163.307 57.32C163.595 57.6507 163.744 58.0827 163.755 58.616C163.755 59.096 163.621 59.528 163.355 59.912C163.088 60.296 162.709 60.6 162.219 60.824C161.739 61.0373 161.184 61.144 160.555 61.144Z" fill="#B0F1EA"/>
</svg>
