<svg width="450" height="301" viewBox="0 0 450 301" fill="none" xmlns="http://www.w3.org/2000/svg">
<path d="M89.999 40C89.999 17.9086 107.908 0 129.999 0H409.999C432.09 0 449.999 17.9086 449.999 40V246C449.999 268.091 432.09 286 409.999 286H129.999C107.908 286 89.999 268.091 89.999 246V40Z" fill="#2E4F72"/>
<path d="M19.9307 272.461C18.8883 272.741 18.202 271.4 19.0397 270.719L135.835 175.791C136.333 175.386 137.078 175.549 137.362 176.125L164.984 232.131C165.262 232.696 164.955 233.375 164.347 233.539L19.9307 272.461Z" fill="#2E4F72"/>
<path d="M190.595 64.152V81H186.491V70.896L182.723 81H179.411L175.619 70.872V81H171.515V64.152H176.363L181.091 75.816L185.771 64.152H190.595ZM201.515 81.168C199.931 81.168 198.475 80.8 197.147 80.064C195.835 79.328 194.787 78.304 194.003 76.992C193.235 75.664 192.851 74.176 192.851 72.528C192.851 70.88 193.235 69.4 194.003 68.088C194.787 66.776 195.835 65.752 197.147 65.016C198.475 64.28 199.931 63.912 201.515 63.912C203.099 63.912 204.547 64.28 205.859 65.016C207.187 65.752 208.227 66.776 208.979 68.088C209.747 69.4 210.131 70.88 210.131 72.528C210.131 74.176 209.747 75.664 208.979 76.992C208.211 78.304 207.171 79.328 205.859 80.064C204.547 80.8 203.099 81.168 201.515 81.168ZM201.515 77.424C202.859 77.424 203.931 76.976 204.731 76.08C205.547 75.184 205.955 74 205.955 72.528C205.955 71.04 205.547 69.856 204.731 68.976C203.931 68.08 202.859 67.632 201.515 67.632C200.155 67.632 199.067 68.072 198.251 68.952C197.451 69.832 197.051 71.024 197.051 72.528C197.051 74.016 197.451 75.208 198.251 76.104C199.067 76.984 200.155 77.424 201.515 77.424ZM227.486 81H223.382L216.518 70.608V81H212.414V64.152H216.518L223.382 74.592V64.152H227.486V81ZM234.565 67.44V70.848H240.061V74.016H234.565V77.712H240.781V81H230.461V64.152H240.781V67.44H234.565ZM257.893 64.152L252.061 75.432V81H247.957V75.432L242.125 64.152H246.781L250.045 71.208L253.285 64.152H257.893ZM270.945 64.152C272.721 64.152 274.273 64.504 275.601 65.208C276.929 65.912 277.953 66.904 278.673 68.184C279.409 69.448 279.777 70.912 279.777 72.576C279.777 74.224 279.409 75.688 278.673 76.968C277.953 78.248 276.921 79.24 275.577 79.944C274.249 80.648 272.705 81 270.945 81H264.633V64.152H270.945ZM270.681 77.448C272.233 77.448 273.441 77.024 274.305 76.176C275.169 75.328 275.601 74.128 275.601 72.576C275.601 71.024 275.169 69.816 274.305 68.952C273.441 68.088 272.233 67.656 270.681 67.656H268.737V77.448H270.681ZM290.038 81.168C288.454 81.168 286.998 80.8 285.67 80.064C284.358 79.328 283.31 78.304 282.526 76.992C281.758 75.664 281.374 74.176 281.374 72.528C281.374 70.88 281.758 69.4 282.526 68.088C283.31 66.776 284.358 65.752 285.67 65.016C286.998 64.28 288.454 63.912 290.038 63.912C291.622 63.912 293.07 64.28 294.382 65.016C295.71 65.752 296.75 66.776 297.502 68.088C298.27 69.4 298.654 70.88 298.654 72.528C298.654 74.176 298.27 75.664 297.502 76.992C296.734 78.304 295.694 79.328 294.382 80.064C293.07 80.8 291.622 81.168 290.038 81.168ZM290.038 77.424C291.382 77.424 292.454 76.976 293.254 76.08C294.07 75.184 294.478 74 294.478 72.528C294.478 71.04 294.07 69.856 293.254 68.976C292.454 68.08 291.382 67.632 290.038 67.632C288.678 67.632 287.59 68.072 286.774 68.952C285.974 69.832 285.574 71.024 285.574 72.528C285.574 74.016 285.974 75.208 286.774 76.104C287.59 76.984 288.678 77.424 290.038 77.424ZM305.041 67.44V70.848H310.537V74.016H305.041V77.712H311.257V81H300.937V64.152H311.257V67.44H305.041ZM320.018 81.168C318.786 81.168 317.682 80.968 316.706 80.568C315.73 80.168 314.946 79.576 314.354 78.792C313.778 78.008 313.474 77.064 313.442 75.96H317.81C317.874 76.584 318.09 77.064 318.458 77.4C318.826 77.72 319.306 77.88 319.898 77.88C320.506 77.88 320.986 77.744 321.338 77.472C321.69 77.184 321.866 76.792 321.866 76.296C321.866 75.88 321.722 75.536 321.434 75.264C321.162 74.992 320.818 74.768 320.402 74.592C320.002 74.416 319.426 74.216 318.674 73.992C317.586 73.656 316.698 73.32 316.01 72.984C315.322 72.648 314.73 72.152 314.234 71.496C313.738 70.84 313.49 69.984 313.49 68.928C313.49 67.36 314.058 66.136 315.194 65.256C316.33 64.36 317.81 63.912 319.634 63.912C321.49 63.912 322.986 64.36 324.122 65.256C325.258 66.136 325.866 67.368 325.946 68.952H321.506C321.474 68.408 321.274 67.984 320.906 67.68C320.538 67.36 320.066 67.2 319.49 67.2C318.994 67.2 318.594 67.336 318.29 67.608C317.986 67.864 317.834 68.24 317.834 68.736C317.834 69.28 318.09 69.704 318.602 70.008C319.114 70.312 319.914 70.64 321.002 70.992C322.09 71.36 322.97 71.712 323.642 72.048C324.33 72.384 324.922 72.872 325.418 73.512C325.914 74.152 326.162 74.976 326.162 75.984C326.162 76.944 325.914 77.816 325.418 78.6C324.938 79.384 324.234 80.008 323.306 80.472C322.378 80.936 321.282 81.168 320.018 81.168ZM343.759 81H339.655L332.791 70.608V81H328.687V64.152H332.791L339.655 74.592V64.152H343.759V81ZM347.67 64.152H351.87L349.182 70.584H346.422L347.67 64.152ZM366.401 64.152V67.44H361.937V81H357.833V67.44H353.369V64.152H366.401ZM173.16 96.48C172.856 95.92 172.416 95.496 171.84 95.208C171.28 94.904 170.616 94.752 169.848 94.752C168.52 94.752 167.456 95.192 166.656 96.072C165.856 96.936 165.456 98.096 165.456 99.552C165.456 101.104 165.872 102.32 166.704 103.2C167.552 104.064 168.712 104.496 170.184 104.496C171.192 104.496 172.04 104.24 172.728 103.728C173.432 103.216 173.944 102.48 174.264 101.52H169.056V98.496H177.984V102.312C177.68 103.336 177.16 104.288 176.424 105.168C175.704 106.048 174.784 106.76 173.664 107.304C172.544 107.848 171.28 108.12 169.872 108.12C168.208 108.12 166.72 107.76 165.408 107.04C164.112 106.304 163.096 105.288 162.36 103.992C161.64 102.696 161.28 101.216 161.28 99.552C161.28 97.888 161.64 96.408 162.36 95.112C163.096 93.8 164.112 92.784 165.408 92.064C166.704 91.328 168.184 90.96 169.848 90.96C171.864 90.96 173.56 91.448 174.936 92.424C176.328 93.4 177.248 94.752 177.696 96.48H173.16ZM188.85 108L185.346 101.64H184.362V108H180.258V91.152H187.146C188.474 91.152 189.602 91.384 190.53 91.848C191.474 92.312 192.178 92.952 192.642 93.768C193.106 94.568 193.338 95.464 193.338 96.456C193.338 97.576 193.018 98.576 192.378 99.456C191.754 100.336 190.826 100.96 189.594 101.328L193.482 108H188.85ZM184.362 98.736H186.906C187.658 98.736 188.218 98.552 188.586 98.184C188.97 97.816 189.162 97.296 189.162 96.624C189.162 95.984 188.97 95.48 188.586 95.112C188.218 94.744 187.658 94.56 186.906 94.56H184.362V98.736ZM203.882 108.168C202.298 108.168 200.842 107.8 199.514 107.064C198.202 106.328 197.154 105.304 196.37 103.992C195.602 102.664 195.218 101.176 195.218 99.528C195.218 97.88 195.602 96.4 196.37 95.088C197.154 93.776 198.202 92.752 199.514 92.016C200.842 91.28 202.298 90.912 203.882 90.912C205.466 90.912 206.914 91.28 208.226 92.016C209.554 92.752 210.594 93.776 211.346 95.088C212.114 96.4 212.498 97.88 212.498 99.528C212.498 101.176 212.114 102.664 211.346 103.992C210.578 105.304 209.538 106.328 208.226 107.064C206.914 107.8 205.466 108.168 203.882 108.168ZM203.882 104.424C205.226 104.424 206.298 103.976 207.098 103.08C207.914 102.184 208.322 101 208.322 99.528C208.322 98.04 207.914 96.856 207.098 95.976C206.298 95.08 205.226 94.632 203.882 94.632C202.522 94.632 201.434 95.072 200.618 95.952C199.818 96.832 199.418 98.024 199.418 99.528C199.418 101.016 199.818 102.208 200.618 103.104C201.434 103.984 202.522 104.424 203.882 104.424ZM237.965 91.152L233.573 108H228.605L225.917 96.912L223.133 108H218.165L213.893 91.152H218.285L220.709 103.416L223.709 91.152H228.221L231.101 103.416L233.549 91.152H237.965ZM253.077 108.168C251.493 108.168 250.037 107.8 248.709 107.064C247.397 106.328 246.349 105.304 245.565 103.992C244.797 102.664 244.413 101.176 244.413 99.528C244.413 97.88 244.797 96.4 245.565 95.088C246.349 93.776 247.397 92.752 248.709 92.016C250.037 91.28 251.493 90.912 253.077 90.912C254.661 90.912 256.109 91.28 257.421 92.016C258.749 92.752 259.789 93.776 260.541 95.088C261.309 96.4 261.693 97.88 261.693 99.528C261.693 101.176 261.309 102.664 260.541 103.992C259.773 105.304 258.733 106.328 257.421 107.064C256.109 107.8 254.661 108.168 253.077 108.168ZM253.077 104.424C254.421 104.424 255.493 103.976 256.293 103.08C257.109 102.184 257.517 101 257.517 99.528C257.517 98.04 257.109 96.856 256.293 95.976C255.493 95.08 254.421 94.632 253.077 94.632C251.717 94.632 250.629 95.072 249.813 95.952C249.013 96.832 248.613 98.024 248.613 99.528C248.613 101.016 249.013 102.208 249.813 103.104C250.629 103.984 251.717 104.424 253.077 104.424ZM279.048 108H274.944L268.08 97.608V108H263.976V91.152H268.08L274.944 101.592V91.152H279.048V108ZM299.229 91.152V94.44H294.765V108H290.661V94.44H286.197V91.152H299.229ZM309.881 108L306.377 101.64H305.393V108H301.289V91.152H308.177C309.505 91.152 310.633 91.384 311.561 91.848C312.505 92.312 313.209 92.952 313.673 93.768C314.137 94.568 314.369 95.464 314.369 96.456C314.369 97.576 314.049 98.576 313.409 99.456C312.785 100.336 311.857 100.96 310.625 101.328L314.513 108H309.881ZM305.393 98.736H307.937C308.689 98.736 309.249 98.552 309.617 98.184C310.001 97.816 310.193 97.296 310.193 96.624C310.193 95.984 310.001 95.48 309.617 95.112C309.249 94.744 308.689 94.56 307.937 94.56H305.393V98.736ZM321.049 94.44V97.848H326.545V101.016H321.049V104.712H327.265V108H316.945V91.152H327.265V94.44H321.049ZM334.033 94.44V97.848H339.529V101.016H334.033V104.712H340.249V108H329.929V91.152H340.249V94.44H334.033ZM349.01 108.168C347.778 108.168 346.674 107.968 345.698 107.568C344.722 107.168 343.938 106.576 343.346 105.792C342.77 105.008 342.466 104.064 342.434 102.96H346.802C346.866 103.584 347.082 104.064 347.45 104.4C347.818 104.72 348.298 104.88 348.89 104.88C349.498 104.88 349.978 104.744 350.33 104.472C350.682 104.184 350.858 103.792 350.858 103.296C350.858 102.88 350.714 102.536 350.426 102.264C350.154 101.992 349.81 101.768 349.394 101.592C348.994 101.416 348.418 101.216 347.666 100.992C346.578 100.656 345.69 100.32 345.002 99.984C344.314 99.648 343.722 99.152 343.226 98.496C342.73 97.84 342.482 96.984 342.482 95.928C342.482 94.36 343.05 93.136 344.186 92.256C345.322 91.36 346.802 90.912 348.626 90.912C350.482 90.912 351.978 91.36 353.114 92.256C354.25 93.136 354.858 94.368 354.938 95.952H350.498C350.466 95.408 350.266 94.984 349.898 94.68C349.53 94.36 349.058 94.2 348.482 94.2C347.986 94.2 347.586 94.336 347.282 94.608C346.978 94.864 346.826 95.24 346.826 95.736C346.826 96.28 347.082 96.704 347.594 97.008C348.106 97.312 348.906 97.64 349.994 97.992C351.082 98.36 351.962 98.712 352.634 99.048C353.322 99.384 353.914 99.872 354.41 100.512C354.906 101.152 355.154 101.976 355.154 102.984C355.154 103.944 354.906 104.816 354.41 105.6C353.93 106.384 353.226 107.008 352.298 107.472C351.37 107.936 350.274 108.168 349.01 108.168ZM359.599 108.192C358.879 108.192 358.287 107.984 357.823 107.568C357.375 107.136 357.151 106.608 357.151 105.984C357.151 105.344 357.375 104.808 357.823 104.376C358.287 103.944 358.879 103.728 359.599 103.728C360.303 103.728 360.879 103.944 361.327 104.376C361.791 104.808 362.023 105.344 362.023 105.984C362.023 106.608 361.791 107.136 361.327 107.568C360.879 107.984 360.303 108.192 359.599 108.192ZM366.373 108.192C365.653 108.192 365.061 107.984 364.597 107.568C364.149 107.136 363.925 106.608 363.925 105.984C363.925 105.344 364.149 104.808 364.597 104.376C365.061 103.944 365.653 103.728 366.373 103.728C367.077 103.728 367.653 103.944 368.101 104.376C368.565 104.808 368.797 105.344 368.797 105.984C368.797 106.608 368.565 107.136 368.101 107.568C367.653 107.984 367.077 108.192 366.373 108.192ZM373.146 108.192C372.426 108.192 371.834 107.984 371.37 107.568C370.922 107.136 370.698 106.608 370.698 105.984C370.698 105.344 370.922 104.808 371.37 104.376C371.834 103.944 372.426 103.728 373.146 103.728C373.85 103.728 374.426 103.944 374.874 104.376C375.338 104.808 375.57 105.344 375.57 105.984C375.57 106.608 375.338 107.136 374.874 107.568C374.426 107.984 373.85 108.192 373.146 108.192ZM206.495 135.168C204.911 135.168 203.455 134.8 202.127 134.064C200.815 133.328 199.767 132.304 198.983 130.992C198.215 129.664 197.831 128.176 197.831 126.528C197.831 124.88 198.215 123.4 198.983 122.088C199.767 120.776 200.815 119.752 202.127 119.016C203.455 118.28 204.911 117.912 206.495 117.912C208.079 117.912 209.527 118.28 210.839 119.016C212.167 119.752 213.207 120.776 213.959 122.088C214.727 123.4 215.111 124.88 215.111 126.528C215.111 128.176 214.727 129.664 213.959 130.992C213.191 132.304 212.151 133.328 210.839 134.064C209.527 134.8 208.079 135.168 206.495 135.168ZM206.495 131.424C207.839 131.424 208.911 130.976 209.711 130.08C210.527 129.184 210.935 128 210.935 126.528C210.935 125.04 210.527 123.856 209.711 122.976C208.911 122.08 207.839 121.632 206.495 121.632C205.135 121.632 204.047 122.072 203.231 122.952C202.431 123.832 202.031 125.024 202.031 126.528C202.031 128.016 202.431 129.208 203.231 130.104C204.047 130.984 205.135 131.424 206.495 131.424ZM225.986 135L222.482 128.64H221.498V135H217.394V118.152H224.282C225.61 118.152 226.738 118.384 227.666 118.848C228.61 119.312 229.314 119.952 229.778 120.768C230.242 121.568 230.474 122.464 230.474 123.456C230.474 124.576 230.154 125.576 229.514 126.456C228.89 127.336 227.962 127.96 226.73 128.328L230.618 135H225.986ZM221.498 125.736H224.042C224.794 125.736 225.354 125.552 225.722 125.184C226.106 124.816 226.298 124.296 226.298 123.624C226.298 122.984 226.106 122.48 225.722 122.112C225.354 121.744 224.794 121.56 224.042 121.56H221.498V125.736ZM244.448 118.152C246.224 118.152 247.776 118.504 249.104 119.208C250.432 119.912 251.456 120.904 252.176 122.184C252.912 123.448 253.28 124.912 253.28 126.576C253.28 128.224 252.912 129.688 252.176 130.968C251.456 132.248 250.424 133.24 249.08 133.944C247.752 134.648 246.208 135 244.448 135H238.136V118.152H244.448ZM244.184 131.448C245.736 131.448 246.944 131.024 247.808 130.176C248.672 129.328 249.104 128.128 249.104 126.576C249.104 125.024 248.672 123.816 247.808 122.952C246.944 122.088 245.736 121.656 244.184 121.656H242.24V131.448H244.184ZM263.542 135.168C261.958 135.168 260.502 134.8 259.174 134.064C257.862 133.328 256.814 132.304 256.03 130.992C255.262 129.664 254.878 128.176 254.878 126.528C254.878 124.88 255.262 123.4 256.03 122.088C256.814 120.776 257.862 119.752 259.174 119.016C260.502 118.28 261.958 117.912 263.542 117.912C265.126 117.912 266.574 118.28 267.886 119.016C269.214 119.752 270.254 120.776 271.006 122.088C271.774 123.4 272.158 124.88 272.158 126.528C272.158 128.176 271.774 129.664 271.006 130.992C270.238 132.304 269.198 133.328 267.886 134.064C266.574 134.8 265.126 135.168 263.542 135.168ZM263.542 131.424C264.886 131.424 265.958 130.976 266.758 130.08C267.574 129.184 267.982 128 267.982 126.528C267.982 125.04 267.574 123.856 266.758 122.976C265.958 122.08 264.886 121.632 263.542 121.632C262.182 121.632 261.094 122.072 260.278 122.952C259.478 123.832 259.078 125.024 259.078 126.528C259.078 128.016 259.478 129.208 260.278 130.104C261.094 130.984 262.182 131.424 263.542 131.424ZM278.545 121.44V124.848H284.041V128.016H278.545V131.712H284.761V135H274.441V118.152H284.761V121.44H278.545ZM293.522 135.168C292.29 135.168 291.186 134.968 290.21 134.568C289.234 134.168 288.45 133.576 287.858 132.792C287.282 132.008 286.978 131.064 286.946 129.96H291.314C291.378 130.584 291.594 131.064 291.962 131.4C292.33 131.72 292.81 131.88 293.402 131.88C294.01 131.88 294.49 131.744 294.842 131.472C295.194 131.184 295.37 130.792 295.37 130.296C295.37 129.88 295.226 129.536 294.938 129.264C294.666 128.992 294.322 128.768 293.906 128.592C293.506 128.416 292.93 128.216 292.178 127.992C291.09 127.656 290.202 127.32 289.514 126.984C288.826 126.648 288.234 126.152 287.738 125.496C287.242 124.84 286.994 123.984 286.994 122.928C286.994 121.36 287.562 120.136 288.698 119.256C289.834 118.36 291.314 117.912 293.138 117.912C294.994 117.912 296.49 118.36 297.626 119.256C298.762 120.136 299.37 121.368 299.45 122.952H295.01C294.978 122.408 294.778 121.984 294.41 121.68C294.042 121.36 293.57 121.2 292.993 121.2C292.498 121.2 292.098 121.336 291.794 121.608C291.49 121.864 291.338 122.24 291.338 122.736C291.338 123.28 291.594 123.704 292.105 124.008C292.618 124.312 293.418 124.64 294.506 124.992C295.594 125.36 296.474 125.712 297.146 126.048C297.834 126.384 298.426 126.872 298.922 127.512C299.418 128.152 299.666 128.976 299.666 129.984C299.666 130.944 299.418 131.816 298.922 132.6C298.442 133.384 297.738 134.008 296.81 134.472C295.882 134.936 294.786 135.168 293.522 135.168ZM311.381 118.152V135H307.277V118.152H311.381ZM326.475 118.152V121.44H322.011V135H317.907V121.44H313.443V118.152H326.475ZM333.455 117.216C335.167 117.216 336.535 117.664 337.559 118.56C338.599 119.456 339.119 120.72 339.119 122.352C339.119 123.856 338.623 125.032 337.631 125.88C336.655 126.712 335.359 127.136 333.743 127.152L333.623 128.952H330.023L329.903 124.488H331.343C332.575 124.488 333.511 124.336 334.151 124.032C334.807 123.728 335.135 123.176 335.135 122.376C335.135 121.816 334.983 121.376 334.679 121.056C334.375 120.736 333.951 120.576 333.407 120.576C332.831 120.576 332.383 120.744 332.063 121.08C331.743 121.4 331.583 121.84 331.583 122.4H327.719C327.687 121.424 327.887 120.544 328.319 119.76C328.767 118.976 329.423 118.36 330.287 117.912C331.167 117.448 332.223 117.216 333.455 117.216ZM331.871 135.192C331.151 135.192 330.559 134.984 330.095 134.568C329.647 134.136 329.423 133.608 329.423 132.984C329.423 132.344 329.647 131.808 330.095 131.376C330.559 130.944 331.151 130.728 331.871 130.728C332.575 130.728 333.151 130.944 333.599 131.376C334.063 131.808 334.295 132.344 334.295 132.984C334.295 133.608 334.063 134.136 333.599 134.568C333.151 134.984 332.575 135.192 331.871 135.192Z" fill="#B0F1EA"/>
<path d="M207.422 179.668H211.814V181H205.784V168.454H207.422V179.668ZM222.554 175.69C222.554 176.002 222.536 176.332 222.5 176.68H214.616C214.676 177.652 215.006 178.414 215.606 178.966C216.218 179.506 216.956 179.776 217.82 179.776C218.528 179.776 219.116 179.614 219.584 179.29C220.064 178.954 220.4 178.51 220.592 177.958H222.356C222.092 178.906 221.564 179.68 220.772 180.28C219.98 180.868 218.996 181.162 217.82 181.162C216.884 181.162 216.044 180.952 215.3 180.532C214.568 180.112 213.992 179.518 213.572 178.75C213.152 177.97 212.942 177.07 212.942 176.05C212.942 175.03 213.146 174.136 213.554 173.368C213.962 172.6 214.532 172.012 215.264 171.604C216.008 171.184 216.86 170.974 217.82 170.974C218.756 170.974 219.584 171.178 220.304 171.586C221.024 171.994 221.576 172.558 221.96 173.278C222.356 173.986 222.554 174.79 222.554 175.69ZM220.862 175.348C220.862 174.724 220.724 174.19 220.448 173.746C220.172 173.29 219.794 172.948 219.314 172.72C218.846 172.48 218.324 172.36 217.748 172.36C216.92 172.36 216.212 172.624 215.624 173.152C215.048 173.68 214.718 174.412 214.634 175.348H220.862ZM226.714 172.486V178.3C226.714 178.78 226.816 179.122 227.02 179.326C227.224 179.518 227.578 179.614 228.082 179.614H229.288V181H227.812C226.9 181 226.216 180.79 225.76 180.37C225.304 179.95 225.076 179.26 225.076 178.3V172.486H223.798V171.136H225.076V168.652H226.714V171.136H229.288V172.486H226.714ZM231.525 168.454H233.343L231.615 172.54H230.463L231.525 168.454ZM238.702 181.162C237.946 181.162 237.268 181.036 236.668 180.784C236.068 180.52 235.594 180.16 235.246 179.704C234.898 179.236 234.706 178.702 234.67 178.102H236.362C236.41 178.594 236.638 178.996 237.046 179.308C237.466 179.62 238.012 179.776 238.684 179.776C239.308 179.776 239.8 179.638 240.16 179.362C240.52 179.086 240.7 178.738 240.7 178.318C240.7 177.886 240.508 177.568 240.124 177.364C239.74 177.148 239.146 176.938 238.342 176.734C237.61 176.542 237.01 176.35 236.542 176.158C236.086 175.954 235.69 175.66 235.354 175.276C235.03 174.88 234.868 174.364 234.868 173.728C234.868 173.224 235.018 172.762 235.318 172.342C235.618 171.922 236.044 171.592 236.596 171.352C237.148 171.1 237.778 170.974 238.486 170.974C239.578 170.974 240.46 171.25 241.132 171.802C241.804 172.354 242.164 173.11 242.212 174.07H240.574C240.538 173.554 240.328 173.14 239.944 172.828C239.572 172.516 239.068 172.36 238.432 172.36C237.844 172.36 237.376 172.486 237.028 172.738C236.68 172.99 236.506 173.32 236.506 173.728C236.506 174.052 236.608 174.322 236.812 174.538C237.028 174.742 237.292 174.91 237.604 175.042C237.928 175.162 238.372 175.3 238.936 175.456C239.644 175.648 240.22 175.84 240.664 176.032C241.108 176.212 241.486 176.488 241.798 176.86C242.122 177.232 242.29 177.718 242.302 178.318C242.302 178.858 242.152 179.344 241.852 179.776C241.552 180.208 241.126 180.55 240.574 180.802C240.034 181.042 239.41 181.162 238.702 181.162ZM253.427 172.486H251.357V181H249.719V172.486H248.441V171.136H249.719V170.434C249.719 169.33 250.001 168.526 250.565 168.022C251.141 167.506 252.059 167.248 253.319 167.248V168.616C252.599 168.616 252.089 168.76 251.789 169.048C251.501 169.324 251.357 169.786 251.357 170.434V171.136H253.427V172.486ZM256.183 169.534C255.871 169.534 255.607 169.426 255.391 169.21C255.175 168.994 255.067 168.73 255.067 168.418C255.067 168.106 255.175 167.842 255.391 167.626C255.607 167.41 255.871 167.302 256.183 167.302C256.483 167.302 256.735 167.41 256.939 167.626C257.155 167.842 257.263 168.106 257.263 168.418C257.263 168.73 257.155 168.994 256.939 169.21C256.735 169.426 256.483 169.534 256.183 169.534ZM256.975 171.136V181H255.337V171.136H256.975ZM264.573 170.956C265.773 170.956 266.745 171.322 267.489 172.054C268.233 172.774 268.605 173.818 268.605 175.186V181H266.985V175.42C266.985 174.436 266.739 173.686 266.247 173.17C265.755 172.642 265.083 172.378 264.231 172.378C263.367 172.378 262.677 172.648 262.161 173.188C261.657 173.728 261.405 174.514 261.405 175.546V181H259.767V171.136H261.405V172.54C261.729 172.036 262.167 171.646 262.719 171.37C263.283 171.094 263.901 170.956 264.573 170.956ZM270.669 176.032C270.669 175.024 270.873 174.142 271.281 173.386C271.689 172.618 272.247 172.024 272.955 171.604C273.675 171.184 274.479 170.974 275.367 170.974C276.135 170.974 276.849 171.154 277.509 171.514C278.169 171.862 278.673 172.324 279.021 172.9V167.68H280.677V181H279.021V179.146C278.697 179.734 278.217 180.22 277.581 180.604C276.945 180.976 276.201 181.162 275.349 181.162C274.473 181.162 273.675 180.946 272.955 180.514C272.247 180.082 271.689 179.476 271.281 178.696C270.873 177.916 270.669 177.028 270.669 176.032ZM279.021 176.05C279.021 175.306 278.871 174.658 278.571 174.106C278.271 173.554 277.863 173.134 277.347 172.846C276.843 172.546 276.285 172.396 275.673 172.396C275.061 172.396 274.503 172.54 273.999 172.828C273.495 173.116 273.093 173.536 272.793 174.088C272.493 174.64 272.343 175.288 272.343 176.032C272.343 176.788 272.493 177.448 272.793 178.012C273.093 178.564 273.495 178.99 273.999 179.29C274.503 179.578 275.061 179.722 275.673 179.722C276.285 179.722 276.843 179.578 277.347 179.29C277.863 178.99 278.271 178.564 278.571 178.012C278.871 177.448 279.021 176.794 279.021 176.05ZM292.545 181.162C291.621 181.162 290.781 180.952 290.025 180.532C289.281 180.112 288.693 179.518 288.261 178.75C287.841 177.97 287.631 177.07 287.631 176.05C287.631 175.042 287.847 174.154 288.279 173.386C288.723 172.606 289.323 172.012 290.079 171.604C290.835 171.184 291.681 170.974 292.617 170.974C293.553 170.974 294.399 171.184 295.155 171.604C295.911 172.012 296.505 172.6 296.937 173.368C297.381 174.136 297.603 175.03 297.603 176.05C297.603 177.07 297.375 177.97 296.919 178.75C296.475 179.518 295.869 180.112 295.101 180.532C294.333 180.952 293.481 181.162 292.545 181.162ZM292.545 179.722C293.133 179.722 293.685 179.584 294.201 179.308C294.717 179.032 295.131 178.618 295.443 178.066C295.767 177.514 295.929 176.842 295.929 176.05C295.929 175.258 295.773 174.586 295.461 174.034C295.149 173.482 294.741 173.074 294.237 172.81C293.733 172.534 293.187 172.396 292.599 172.396C291.999 172.396 291.447 172.534 290.943 172.81C290.451 173.074 290.055 173.482 289.755 174.034C289.455 174.586 289.305 175.258 289.305 176.05C289.305 176.854 289.449 177.532 289.737 178.084C290.037 178.636 290.433 179.05 290.925 179.326C291.417 179.59 291.957 179.722 292.545 179.722ZM308.505 171.136V181H306.867V179.542C306.555 180.046 306.117 180.442 305.553 180.73C305.001 181.006 304.389 181.144 303.717 181.144C302.949 181.144 302.259 180.988 301.647 180.676C301.035 180.352 300.549 179.872 300.189 179.236C299.841 178.6 299.667 177.826 299.667 176.914V171.136H301.287V176.698C301.287 177.67 301.533 178.42 302.025 178.948C302.517 179.464 303.189 179.722 304.041 179.722C304.917 179.722 305.607 179.452 306.111 178.912C306.615 178.372 306.867 177.586 306.867 176.554V171.136H308.505ZM313.269 172.486V178.3C313.269 178.78 313.371 179.122 313.575 179.326C313.779 179.518 314.133 179.614 314.637 179.614H315.843V181H314.367C313.455 181 312.771 180.79 312.315 180.37C311.859 179.95 311.631 179.26 311.631 178.3V172.486H310.353V171.136H311.631V168.652H313.269V171.136H315.843V172.486H313.269ZM319.951 168.454L319.753 177.454H318.385L318.187 168.454H319.951ZM319.141 181.108C318.829 181.108 318.565 181 318.349 180.784C318.133 180.568 318.025 180.304 318.025 179.992C318.025 179.68 318.133 179.416 318.349 179.2C318.565 178.984 318.829 178.876 319.141 178.876C319.441 178.876 319.693 178.984 319.897 179.2C320.113 179.416 320.221 179.68 320.221 179.992C320.221 180.304 320.113 180.568 319.897 180.784C319.693 181 319.441 181.108 319.141 181.108ZM180.758 189.454V190.786H177.338V202H175.7V190.786H172.262V189.454H180.758ZM187.077 202.162C186.153 202.162 185.313 201.952 184.557 201.532C183.813 201.112 183.225 200.518 182.793 199.75C182.373 198.97 182.163 198.07 182.163 197.05C182.163 196.042 182.379 195.154 182.811 194.386C183.255 193.606 183.855 193.012 184.611 192.604C185.367 192.184 186.213 191.974 187.149 191.974C188.085 191.974 188.931 192.184 189.687 192.604C190.443 193.012 191.037 193.6 191.469 194.368C191.913 195.136 192.135 196.03 192.135 197.05C192.135 198.07 191.907 198.97 191.451 199.75C191.007 200.518 190.401 201.112 189.633 201.532C188.865 201.952 188.013 202.162 187.077 202.162ZM187.077 200.722C187.665 200.722 188.217 200.584 188.733 200.308C189.249 200.032 189.663 199.618 189.975 199.066C190.299 198.514 190.461 197.842 190.461 197.05C190.461 196.258 190.305 195.586 189.993 195.034C189.681 194.482 189.273 194.074 188.769 193.81C188.265 193.534 187.719 193.396 187.131 193.396C186.531 193.396 185.979 193.534 185.475 193.81C184.983 194.074 184.587 194.482 184.287 195.034C183.987 195.586 183.837 196.258 183.837 197.05C183.837 197.854 183.981 198.532 184.269 199.084C184.569 199.636 184.965 200.05 185.457 200.326C185.949 200.59 186.489 200.722 187.077 200.722ZM200.725 193.972C201.061 193.384 201.553 192.904 202.201 192.532C202.849 192.16 203.587 191.974 204.415 191.974C205.303 191.974 206.101 192.184 206.809 192.604C207.517 193.024 208.075 193.618 208.483 194.386C208.891 195.142 209.095 196.024 209.095 197.032C209.095 198.028 208.891 198.916 208.483 199.696C208.075 200.476 207.511 201.082 206.791 201.514C206.083 201.946 205.291 202.162 204.415 202.162C203.563 202.162 202.813 201.976 202.165 201.604C201.529 201.232 201.049 200.758 200.725 200.182V202H199.087V188.68H200.725V193.972ZM207.421 197.032C207.421 196.288 207.271 195.64 206.971 195.088C206.671 194.536 206.263 194.116 205.747 193.828C205.243 193.54 204.685 193.396 204.073 193.396C203.473 193.396 202.915 193.546 202.399 193.846C201.895 194.134 201.487 194.56 201.175 195.124C200.875 195.676 200.725 196.318 200.725 197.05C200.725 197.794 200.875 198.448 201.175 199.012C201.487 199.564 201.895 199.99 202.399 200.29C202.915 200.578 203.473 200.722 204.073 200.722C204.685 200.722 205.243 200.578 205.747 200.29C206.263 199.99 206.671 199.564 206.971 199.012C207.271 198.448 207.421 197.788 207.421 197.032ZM220.251 196.69C220.251 197.002 220.233 197.332 220.197 197.68H212.313C212.373 198.652 212.703 199.414 213.303 199.966C213.915 200.506 214.653 200.776 215.517 200.776C216.225 200.776 216.813 200.614 217.281 200.29C217.761 199.954 218.097 199.51 218.289 198.958H220.053C219.789 199.906 219.261 200.68 218.469 201.28C217.677 201.868 216.693 202.162 215.517 202.162C214.581 202.162 213.741 201.952 212.997 201.532C212.265 201.112 211.689 200.518 211.269 199.75C210.849 198.97 210.639 198.07 210.639 197.05C210.639 196.03 210.843 195.136 211.251 194.368C211.659 193.6 212.229 193.012 212.961 192.604C213.705 192.184 214.557 191.974 215.517 191.974C216.453 191.974 217.281 192.178 218.001 192.586C218.721 192.994 219.273 193.558 219.657 194.278C220.053 194.986 220.251 195.79 220.251 196.69ZM218.559 196.348C218.559 195.724 218.421 195.19 218.145 194.746C217.869 194.29 217.491 193.948 217.011 193.72C216.543 193.48 216.021 193.36 215.445 193.36C214.617 193.36 213.909 193.624 213.321 194.152C212.745 194.68 212.415 195.412 212.331 196.348H218.559ZM226.481 191.974C227.333 191.974 228.077 192.16 228.713 192.532C229.361 192.904 229.841 193.372 230.153 193.936V192.136H231.809V202.216C231.809 203.116 231.617 203.914 231.233 204.61C230.849 205.318 230.297 205.87 229.577 206.266C228.869 206.662 228.041 206.86 227.093 206.86C225.797 206.86 224.717 206.554 223.853 205.942C222.989 205.33 222.479 204.496 222.323 203.44H223.943C224.123 204.04 224.495 204.52 225.059 204.88C225.623 205.252 226.301 205.438 227.093 205.438C227.993 205.438 228.725 205.156 229.289 204.592C229.865 204.028 230.153 203.236 230.153 202.216V200.146C229.829 200.722 229.349 201.202 228.713 201.586C228.077 201.97 227.333 202.162 226.481 202.162C225.605 202.162 224.807 201.946 224.087 201.514C223.379 201.082 222.821 200.476 222.413 199.696C222.005 198.916 221.801 198.028 221.801 197.032C221.801 196.024 222.005 195.142 222.413 194.386C222.821 193.618 223.379 193.024 224.087 192.604C224.807 192.184 225.605 191.974 226.481 191.974ZM230.153 197.05C230.153 196.306 230.003 195.658 229.703 195.106C229.403 194.554 228.995 194.134 228.479 193.846C227.975 193.546 227.417 193.396 226.805 193.396C226.193 193.396 225.635 193.54 225.131 193.828C224.627 194.116 224.225 194.536 223.925 195.088C223.625 195.64 223.475 196.288 223.475 197.032C223.475 197.788 223.625 198.448 223.925 199.012C224.225 199.564 224.627 199.99 225.131 200.29C225.635 200.578 226.193 200.722 226.805 200.722C227.417 200.722 227.975 200.578 228.479 200.29C228.995 199.99 229.403 199.564 229.703 199.012C230.003 198.448 230.153 197.794 230.153 197.05ZM235.423 190.534C235.111 190.534 234.847 190.426 234.631 190.21C234.415 189.994 234.307 189.73 234.307 189.418C234.307 189.106 234.415 188.842 234.631 188.626C234.847 188.41 235.111 188.302 235.423 188.302C235.723 188.302 235.975 188.41 236.179 188.626C236.395 188.842 236.503 189.106 236.503 189.418C236.503 189.73 236.395 189.994 236.179 190.21C235.975 190.426 235.723 190.534 235.423 190.534ZM236.215 192.136V202H234.577V192.136H236.215ZM243.813 191.956C245.013 191.956 245.985 192.322 246.729 193.054C247.473 193.774 247.845 194.818 247.845 196.186V202H246.225V196.42C246.225 195.436 245.979 194.686 245.487 194.17C244.995 193.642 244.323 193.378 243.471 193.378C242.607 193.378 241.917 193.648 241.401 194.188C240.897 194.728 240.645 195.514 240.645 196.546V202H239.007V192.136H240.645V193.54C240.969 193.036 241.407 192.646 241.959 192.37C242.523 192.094 243.141 191.956 243.813 191.956ZM252.213 199.732L250.197 204.574H249.099L250.413 199.732H252.213ZM258.276 197.05C258.276 196.03 258.48 195.142 258.888 194.386C259.296 193.618 259.86 193.024 260.58 192.604C261.312 192.184 262.146 191.974 263.082 191.974C264.294 191.974 265.29 192.268 266.07 192.856C266.862 193.444 267.384 194.26 267.636 195.304H265.872C265.704 194.704 265.374 194.23 264.882 193.882C264.402 193.534 263.802 193.36 263.082 193.36C262.146 193.36 261.39 193.684 260.814 194.332C260.238 194.968 259.95 195.874 259.95 197.05C259.95 198.238 260.238 199.156 260.814 199.804C261.39 200.452 262.146 200.776 263.082 200.776C263.802 200.776 264.402 200.608 264.882 200.272C265.362 199.936 265.692 199.456 265.872 198.832H267.636C267.372 199.84 266.844 200.65 266.052 201.262C265.26 201.862 264.27 202.162 263.082 202.162C262.146 202.162 261.312 201.952 260.58 201.532C259.86 201.112 259.296 200.518 258.888 199.75C258.48 198.982 258.276 198.082 258.276 197.05ZM271.46 188.68V202H269.822V188.68H271.46ZM275.097 190.534C274.785 190.534 274.521 190.426 274.305 190.21C274.089 189.994 273.981 189.73 273.981 189.418C273.981 189.106 274.089 188.842 274.305 188.626C274.521 188.41 274.785 188.302 275.097 188.302C275.397 188.302 275.649 188.41 275.853 188.626C276.069 188.842 276.177 189.106 276.177 189.418C276.177 189.73 276.069 189.994 275.853 190.21C275.649 190.426 275.397 190.534 275.097 190.534ZM275.889 192.136V202H274.251V192.136H275.889ZM278.069 197.05C278.069 196.03 278.273 195.142 278.681 194.386C279.089 193.618 279.653 193.024 280.373 192.604C281.105 192.184 281.939 191.974 282.875 191.974C284.087 191.974 285.083 192.268 285.863 192.856C286.655 193.444 287.177 194.26 287.429 195.304H285.665C285.497 194.704 285.167 194.23 284.675 193.882C284.195 193.534 283.595 193.36 282.875 193.36C281.939 193.36 281.183 193.684 280.607 194.332C280.031 194.968 279.743 195.874 279.743 197.05C279.743 198.238 280.031 199.156 280.607 199.804C281.183 200.452 281.939 200.776 282.875 200.776C283.595 200.776 284.195 200.608 284.675 200.272C285.155 199.936 285.485 199.456 285.665 198.832H287.429C287.165 199.84 286.637 200.65 285.845 201.262C285.053 201.862 284.063 202.162 282.875 202.162C281.939 202.162 281.105 201.952 280.373 201.532C279.653 201.112 279.089 200.518 278.681 199.75C278.273 198.982 278.069 198.082 278.069 197.05ZM295.123 202L291.253 197.644V202H289.615V188.68H291.253V196.51L295.051 192.136H297.337L292.693 197.05L297.355 202H295.123ZM307.979 202.162C307.055 202.162 306.215 201.952 305.459 201.532C304.715 201.112 304.127 200.518 303.695 199.75C303.275 198.97 303.065 198.07 303.065 197.05C303.065 196.042 303.281 195.154 303.713 194.386C304.157 193.606 304.757 193.012 305.513 192.604C306.269 192.184 307.115 191.974 308.051 191.974C308.987 191.974 309.833 192.184 310.589 192.604C311.345 193.012 311.939 193.6 312.371 194.368C312.815 195.136 313.037 196.03 313.037 197.05C313.037 198.07 312.809 198.97 312.353 199.75C311.909 200.518 311.303 201.112 310.535 201.532C309.767 201.952 308.915 202.162 307.979 202.162ZM307.979 200.722C308.567 200.722 309.119 200.584 309.635 200.308C310.151 200.032 310.565 199.618 310.877 199.066C311.201 198.514 311.363 197.842 311.363 197.05C311.363 196.258 311.207 195.586 310.895 195.034C310.583 194.482 310.175 194.074 309.671 193.81C309.167 193.534 308.621 193.396 308.033 193.396C307.433 193.396 306.881 193.534 306.377 193.81C305.885 194.074 305.489 194.482 305.189 195.034C304.889 195.586 304.739 196.258 304.739 197.05C304.739 197.854 304.883 198.532 305.171 199.084C305.471 199.636 305.867 200.05 306.359 200.326C306.851 200.59 307.391 200.722 307.979 200.722ZM319.997 191.956C321.197 191.956 322.169 192.322 322.913 193.054C323.657 193.774 324.029 194.818 324.029 196.186V202H322.409V196.42C322.409 195.436 322.163 194.686 321.671 194.17C321.179 193.642 320.507 193.378 319.655 193.378C318.791 193.378 318.101 193.648 317.585 194.188C317.081 194.728 316.829 195.514 316.829 196.546V202H315.191V192.136H316.829V193.54C317.153 193.036 317.591 192.646 318.143 192.37C318.707 192.094 319.325 191.956 319.997 191.956ZM333.501 193.486V199.3C333.501 199.78 333.603 200.122 333.807 200.326C334.011 200.518 334.365 200.614 334.869 200.614H336.075V202H334.599C333.687 202 333.003 201.79 332.547 201.37C332.091 200.95 331.863 200.26 331.863 199.3V193.486H330.585V192.136H331.863V189.652H333.501V192.136H336.075V193.486H333.501ZM342.956 191.956C343.7 191.956 344.372 192.118 344.972 192.442C345.572 192.754 346.04 193.228 346.376 193.864C346.724 194.5 346.898 195.274 346.898 196.186V202H345.278V196.42C345.278 195.436 345.032 194.686 344.54 194.17C344.048 193.642 343.376 193.378 342.524 193.378C341.66 193.378 340.97 193.648 340.454 194.188C339.95 194.728 339.698 195.514 339.698 196.546V202H338.06V188.68H339.698V193.54C340.022 193.036 340.466 192.646 341.03 192.37C341.606 192.094 342.248 191.956 342.956 191.956ZM358.574 196.69C358.574 197.002 358.556 197.332 358.52 197.68H350.636C350.696 198.652 351.026 199.414 351.626 199.966C352.238 200.506 352.976 200.776 353.84 200.776C354.548 200.776 355.136 200.614 355.604 200.29C356.084 199.954 356.42 199.51 356.612 198.958H358.376C358.112 199.906 357.584 200.68 356.792 201.28C356 201.868 355.016 202.162 353.84 202.162C352.904 202.162 352.064 201.952 351.32 201.532C350.588 201.112 350.012 200.518 349.592 199.75C349.172 198.97 348.962 198.07 348.962 197.05C348.962 196.03 349.166 195.136 349.574 194.368C349.982 193.6 350.552 193.012 351.284 192.604C352.028 192.184 352.88 191.974 353.84 191.974C354.776 191.974 355.604 192.178 356.324 192.586C357.044 192.994 357.596 193.558 357.98 194.278C358.376 194.986 358.574 195.79 358.574 196.69ZM356.882 196.348C356.882 195.724 356.744 195.19 356.468 194.746C356.192 194.29 355.814 193.948 355.334 193.72C354.866 193.48 354.344 193.36 353.768 193.36C352.94 193.36 352.232 193.624 351.644 194.152C351.068 194.68 350.738 195.412 350.654 196.348H356.882ZM175.749 212.956C176.517 212.956 177.201 213.118 177.801 213.442C178.401 213.754 178.875 214.228 179.223 214.864C179.571 215.5 179.745 216.274 179.745 217.186V223H178.125V217.42C178.125 216.436 177.879 215.686 177.387 215.17C176.907 214.642 176.253 214.378 175.425 214.378C174.573 214.378 173.895 214.654 173.391 215.206C172.887 215.746 172.635 216.532 172.635 217.564V223H171.015V217.42C171.015 216.436 170.769 215.686 170.277 215.17C169.797 214.642 169.143 214.378 168.315 214.378C167.463 214.378 166.785 214.654 166.281 215.206C165.777 215.746 165.525 216.532 165.525 217.564V223H163.887V213.136H165.525V214.558C165.849 214.042 166.281 213.646 166.821 213.37C167.373 213.094 167.979 212.956 168.639 212.956C169.467 212.956 170.199 213.142 170.835 213.514C171.471 213.886 171.945 214.432 172.257 215.152C172.533 214.456 172.989 213.916 173.625 213.532C174.261 213.148 174.969 212.956 175.749 212.956ZM181.82 218.032C181.82 217.024 182.024 216.142 182.432 215.386C182.84 214.618 183.398 214.024 184.106 213.604C184.826 213.184 185.624 212.974 186.5 212.974C187.364 212.974 188.114 213.16 188.75 213.532C189.386 213.904 189.86 214.372 190.172 214.936V213.136H191.828V223H190.172V221.164C189.848 221.74 189.362 222.22 188.714 222.604C188.078 222.976 187.334 223.162 186.482 223.162C185.606 223.162 184.814 222.946 184.106 222.514C183.398 222.082 182.84 221.476 182.432 220.696C182.024 219.916 181.82 219.028 181.82 218.032ZM190.172 218.05C190.172 217.306 190.022 216.658 189.722 216.106C189.422 215.554 189.014 215.134 188.498 214.846C187.994 214.546 187.436 214.396 186.824 214.396C186.212 214.396 185.654 214.54 185.15 214.828C184.646 215.116 184.244 215.536 183.944 216.088C183.644 216.64 183.494 217.288 183.494 218.032C183.494 218.788 183.644 219.448 183.944 220.012C184.244 220.564 184.646 220.99 185.15 221.29C185.654 221.578 186.212 221.722 186.824 221.722C187.436 221.722 187.994 221.578 188.498 221.29C189.014 220.99 189.422 220.564 189.722 220.012C190.022 219.448 190.172 218.794 190.172 218.05ZM196.234 214.954C196.558 214.39 197.038 213.922 197.674 213.55C198.322 213.166 199.072 212.974 199.924 212.974C200.8 212.974 201.592 213.184 202.3 213.604C203.02 214.024 203.584 214.618 203.992 215.386C204.4 216.142 204.604 217.024 204.604 218.032C204.604 219.028 204.4 219.916 203.992 220.696C203.584 221.476 203.02 222.082 202.3 222.514C201.592 222.946 200.8 223.162 199.924 223.162C199.084 223.162 198.34 222.976 197.692 222.604C197.056 222.22 196.57 221.746 196.234 221.182V227.68H194.596V213.136H196.234V214.954ZM202.93 218.032C202.93 217.288 202.78 216.64 202.48 216.088C202.18 215.536 201.772 215.116 201.256 214.828C200.752 214.54 200.194 214.396 199.582 214.396C198.982 214.396 198.424 214.546 197.908 214.846C197.404 215.134 196.996 215.56 196.684 216.124C196.384 216.676 196.234 217.318 196.234 218.05C196.234 218.794 196.384 219.448 196.684 220.012C196.996 220.564 197.404 220.99 197.908 221.29C198.424 221.578 198.982 221.722 199.582 221.722C200.194 221.722 200.752 221.578 201.256 221.29C201.772 220.99 202.18 220.564 202.48 220.012C202.78 219.448 202.93 218.788 202.93 218.032ZM213.197 214.972C213.533 214.384 214.025 213.904 214.673 213.532C215.321 213.16 216.059 212.974 216.887 212.974C217.775 212.974 218.573 213.184 219.281 213.604C219.989 214.024 220.547 214.618 220.955 215.386C221.363 216.142 221.567 217.024 221.567 218.032C221.567 219.028 221.363 219.916 220.955 220.696C220.547 221.476 219.983 222.082 219.263 222.514C218.555 222.946 217.763 223.162 216.887 223.162C216.035 223.162 215.285 222.976 214.637 222.604C214.001 222.232 213.521 221.758 213.197 221.182V223H211.559V209.68H213.197V214.972ZM219.893 218.032C219.893 217.288 219.743 216.64 219.443 216.088C219.143 215.536 218.735 215.116 218.219 214.828C217.715 214.54 217.157 214.396 216.545 214.396C215.945 214.396 215.387 214.546 214.871 214.846C214.367 215.134 213.959 215.56 213.647 216.124C213.347 216.676 213.197 217.318 213.197 218.05C213.197 218.794 213.347 219.448 213.647 220.012C213.959 220.564 214.367 220.99 214.871 221.29C215.387 221.578 215.945 221.722 216.545 221.722C217.157 221.722 217.715 221.578 218.219 221.29C218.735 220.99 219.143 220.564 219.443 220.012C219.743 219.448 219.893 218.788 219.893 218.032ZM232.471 213.136V223H230.833V221.542C230.521 222.046 230.083 222.442 229.519 222.73C228.967 223.006 228.355 223.144 227.683 223.144C226.915 223.144 226.225 222.988 225.613 222.676C225.001 222.352 224.515 221.872 224.155 221.236C223.807 220.6 223.633 219.826 223.633 218.914V213.136H225.253V218.698C225.253 219.67 225.499 220.42 225.991 220.948C226.483 221.464 227.155 221.722 228.007 221.722C228.883 221.722 229.573 221.452 230.077 220.912C230.581 220.372 230.833 219.586 230.833 218.554V213.136H232.471ZM237.235 214.486V220.3C237.235 220.78 237.337 221.122 237.541 221.326C237.745 221.518 238.099 221.614 238.603 221.614H239.809V223H238.333C237.421 223 236.737 222.79 236.281 222.37C235.825 221.95 235.597 221.26 235.597 220.3V214.486H234.319V213.136H235.597V210.652H237.235V213.136H239.809V214.486H237.235ZM243.791 214.486V220.3C243.791 220.78 243.893 221.122 244.097 221.326C244.301 221.518 244.655 221.614 245.159 221.614H246.365V223H244.889C243.977 223 243.293 222.79 242.837 222.37C242.381 221.95 242.153 221.26 242.153 220.3V214.486H240.875V213.136H242.153V210.652H243.791V213.136H246.365V214.486H243.791ZM252.652 223.162C251.728 223.162 250.888 222.952 250.132 222.532C249.388 222.112 248.8 221.518 248.368 220.75C247.948 219.97 247.738 219.07 247.738 218.05C247.738 217.042 247.954 216.154 248.386 215.386C248.83 214.606 249.43 214.012 250.186 213.604C250.942 213.184 251.788 212.974 252.724 212.974C253.66 212.974 254.506 213.184 255.262 213.604C256.018 214.012 256.612 214.6 257.044 215.368C257.488 216.136 257.71 217.03 257.71 218.05C257.71 219.07 257.482 219.97 257.026 220.75C256.582 221.518 255.976 222.112 255.208 222.532C254.44 222.952 253.588 223.162 252.652 223.162ZM252.652 221.722C253.24 221.722 253.792 221.584 254.308 221.308C254.824 221.032 255.238 220.618 255.55 220.066C255.874 219.514 256.036 218.842 256.036 218.05C256.036 217.258 255.88 216.586 255.568 216.034C255.256 215.482 254.848 215.074 254.344 214.81C253.84 214.534 253.294 214.396 252.706 214.396C252.106 214.396 251.554 214.534 251.05 214.81C250.558 215.074 250.162 215.482 249.862 216.034C249.562 216.586 249.412 217.258 249.412 218.05C249.412 218.854 249.556 219.532 249.844 220.084C250.144 220.636 250.54 221.05 251.032 221.326C251.524 221.59 252.064 221.722 252.652 221.722ZM264.67 212.956C265.87 212.956 266.842 213.322 267.586 214.054C268.33 214.774 268.702 215.818 268.702 217.186V223H267.082V217.42C267.082 216.436 266.836 215.686 266.344 215.17C265.852 214.642 265.18 214.378 264.328 214.378C263.464 214.378 262.774 214.648 262.258 215.188C261.754 215.728 261.502 216.514 261.502 217.546V223H259.864V213.136H261.502V214.54C261.826 214.036 262.264 213.646 262.816 213.37C263.38 213.094 263.998 212.956 264.67 212.956ZM280.478 223.162C279.554 223.162 278.714 222.952 277.958 222.532C277.214 222.112 276.626 221.518 276.194 220.75C275.774 219.97 275.564 219.07 275.564 218.05C275.564 217.042 275.78 216.154 276.212 215.386C276.656 214.606 277.256 214.012 278.012 213.604C278.768 213.184 279.614 212.974 280.55 212.974C281.486 212.974 282.332 213.184 283.088 213.604C283.844 214.012 284.438 214.6 284.87 215.368C285.314 216.136 285.536 217.03 285.536 218.05C285.536 219.07 285.308 219.97 284.852 220.75C284.408 221.518 283.802 222.112 283.034 222.532C282.266 222.952 281.414 223.162 280.478 223.162ZM280.478 221.722C281.066 221.722 281.618 221.584 282.134 221.308C282.65 221.032 283.064 220.618 283.376 220.066C283.7 219.514 283.862 218.842 283.862 218.05C283.862 217.258 283.706 216.586 283.394 216.034C283.082 215.482 282.674 215.074 282.17 214.81C281.666 214.534 281.12 214.396 280.532 214.396C279.932 214.396 279.38 214.534 278.876 214.81C278.384 215.074 277.988 215.482 277.688 216.034C277.388 216.586 277.238 217.258 277.238 218.05C277.238 218.854 277.382 219.532 277.67 220.084C277.97 220.636 278.366 221.05 278.858 221.326C279.35 221.59 279.89 221.722 280.478 221.722ZM292.496 212.956C293.696 212.956 294.668 213.322 295.412 214.054C296.156 214.774 296.528 215.818 296.528 217.186V223H294.908V217.42C294.908 216.436 294.662 215.686 294.17 215.17C293.678 214.642 293.006 214.378 292.154 214.378C291.29 214.378 290.6 214.648 290.084 215.188C289.58 215.728 289.328 216.514 289.328 217.546V223H287.69V213.136H289.328V214.54C289.652 214.036 290.09 213.646 290.642 213.37C291.206 213.094 291.824 212.956 292.496 212.956ZM306 214.486V220.3C306 220.78 306.102 221.122 306.306 221.326C306.51 221.518 306.864 221.614 307.368 221.614H308.574V223H307.098C306.186 223 305.502 222.79 305.046 222.37C304.59 221.95 304.362 221.26 304.362 220.3V214.486H303.084V213.136H304.362V210.652H306V213.136H308.574V214.486H306ZM315.455 212.956C316.199 212.956 316.871 213.118 317.471 213.442C318.071 213.754 318.539 214.228 318.875 214.864C319.223 215.5 319.397 216.274 319.397 217.186V223H317.777V217.42C317.777 216.436 317.531 215.686 317.039 215.17C316.547 214.642 315.875 214.378 315.023 214.378C314.159 214.378 313.469 214.648 312.953 215.188C312.449 215.728 312.197 216.514 312.197 217.546V223H310.559V209.68H312.197V214.54C312.521 214.036 312.965 213.646 313.529 213.37C314.105 213.094 314.747 212.956 315.455 212.956ZM331.073 217.69C331.073 218.002 331.055 218.332 331.019 218.68H323.135C323.195 219.652 323.525 220.414 324.125 220.966C324.737 221.506 325.475 221.776 326.339 221.776C327.047 221.776 327.635 221.614 328.103 221.29C328.583 220.954 328.919 220.51 329.111 219.958H330.875C330.611 220.906 330.083 221.68 329.291 222.28C328.499 222.868 327.515 223.162 326.339 223.162C325.403 223.162 324.563 222.952 323.819 222.532C323.087 222.112 322.511 221.518 322.091 220.75C321.671 219.97 321.461 219.07 321.461 218.05C321.461 217.03 321.665 216.136 322.073 215.368C322.481 214.6 323.051 214.012 323.783 213.604C324.527 213.184 325.379 212.974 326.339 212.974C327.275 212.974 328.103 213.178 328.823 213.586C329.543 213.994 330.095 214.558 330.479 215.278C330.875 215.986 331.073 216.79 331.073 217.69ZM329.381 217.348C329.381 216.724 329.243 216.19 328.967 215.746C328.691 215.29 328.313 214.948 327.833 214.72C327.365 214.48 326.843 214.36 326.267 214.36C325.439 214.36 324.731 214.624 324.143 215.152C323.567 215.68 323.237 216.412 323.153 217.348H329.381ZM339.671 209.68V223H338.033V209.68H339.671ZM351.463 217.69C351.463 218.002 351.445 218.332 351.409 218.68H343.525C343.585 219.652 343.915 220.414 344.515 220.966C345.127 221.506 345.865 221.776 346.729 221.776C347.437 221.776 348.025 221.614 348.493 221.29C348.973 220.954 349.309 220.51 349.501 219.958H351.265C351.001 220.906 350.473 221.68 349.681 222.28C348.889 222.868 347.905 223.162 346.729 223.162C345.793 223.162 344.953 222.952 344.209 222.532C343.477 222.112 342.901 221.518 342.481 220.75C342.061 219.97 341.851 219.07 341.851 218.05C341.851 217.03 342.055 216.136 342.463 215.368C342.871 214.6 343.441 214.012 344.173 213.604C344.917 213.184 345.769 212.974 346.729 212.974C347.665 212.974 348.493 213.178 349.213 213.586C349.933 213.994 350.485 214.558 350.869 215.278C351.265 215.986 351.463 216.79 351.463 217.69ZM349.771 217.348C349.771 216.724 349.633 216.19 349.357 215.746C349.081 215.29 348.703 214.948 348.223 214.72C347.755 214.48 347.233 214.36 346.657 214.36C345.829 214.36 345.121 214.624 344.533 215.152C343.957 215.68 343.627 216.412 343.543 217.348H349.771ZM357.639 214.486H355.569V223H353.931V214.486H352.653V213.136H353.931V212.434C353.931 211.33 354.213 210.526 354.777 210.022C355.353 209.506 356.271 209.248 357.531 209.248V210.616C356.811 210.616 356.301 210.76 356.001 211.048C355.713 211.324 355.569 211.786 355.569 212.434V213.136H357.639V214.486ZM361.547 214.486V220.3C361.547 220.78 361.649 221.122 361.853 221.326C362.057 221.518 362.411 221.614 362.915 221.614H364.121V223H362.645C361.733 223 361.049 222.79 360.593 222.37C360.137 221.95 359.909 221.26 359.909 220.3V214.486H358.631V213.136H359.909V210.652H361.547V213.136H364.121V214.486H361.547ZM366.628 223.108C366.316 223.108 366.052 223 365.836 222.784C365.62 222.568 365.512 222.304 365.512 221.992C365.512 221.68 365.62 221.416 365.836 221.2C366.052 220.984 366.316 220.876 366.628 220.876C366.928 220.876 367.18 220.984 367.384 221.2C367.6 221.416 367.708 221.68 367.708 221.992C367.708 222.304 367.6 222.568 367.384 222.784C367.18 223 366.928 223.108 366.628 223.108Z" fill="#B0F1EA"/>
</svg>
