<svg width="294" height="166" viewBox="0 0 294 166" fill="none" xmlns="http://www.w3.org/2000/svg">
<path d="M145.589 163.483C145.283 164.35 144.067 164.38 143.72 163.528L128.562 126.378C128.294 125.72 128.777 125 129.488 125L157.763 125C158.453 125 158.936 125.682 158.706 126.333L145.589 163.483Z" fill="#2E4F72"/>
<path d="M0 40C0 17.9086 17.9086 0 40 0H254C276.091 0 294 17.9086 294 40V85C294 107.091 276.091 125 254 125H40C17.9086 125 0 107.091 0 85V40Z" fill="#2E4F72"/>
<path d="M41.0474 42.416C41.0474 41.328 41.2927 40.352 41.7834 39.488C42.274 38.6133 42.9407 37.9307 43.7834 37.44C44.6367 36.9493 45.5807 36.704 46.6154 36.704C47.8314 36.704 48.8927 36.9973 49.7994 37.584C50.706 38.1707 51.3674 39.0027 51.7834 40.08H50.0394C49.73 39.408 49.282 38.8907 48.6954 38.528C48.1194 38.1653 47.426 37.984 46.6154 37.984C45.8367 37.984 45.138 38.1653 44.5194 38.528C43.9007 38.8907 43.4154 39.408 43.0634 40.08C42.7114 40.7413 42.5354 41.52 42.5354 42.416C42.5354 43.3013 42.7114 44.08 43.0634 44.752C43.4154 45.4133 43.9007 45.9253 44.5194 46.288C45.138 46.6507 45.8367 46.832 46.6154 46.832C47.426 46.832 48.1194 46.656 48.6954 46.304C49.282 45.9413 49.73 45.424 50.0394 44.752H51.7834C51.3674 45.8187 50.706 46.6453 49.7994 47.232C48.8927 47.808 47.8314 48.096 46.6154 48.096C45.5807 48.096 44.6367 47.856 43.7834 47.376C42.9407 46.8853 42.274 46.208 41.7834 45.344C41.2927 44.48 41.0474 43.504 41.0474 42.416ZM55.4068 36.16V48H53.9508V36.16H55.4068ZM58.6403 37.808C58.3629 37.808 58.1283 37.712 57.9363 37.52C57.7443 37.328 57.6483 37.0933 57.6483 36.816C57.6483 36.5387 57.7443 36.304 57.9363 36.112C58.1283 35.92 58.3629 35.824 58.6403 35.824C58.9069 35.824 59.1309 35.92 59.3123 36.112C59.5043 36.304 59.6003 36.5387 59.6003 36.816C59.6003 37.0933 59.5043 37.328 59.3123 37.52C59.1309 37.712 58.9069 37.808 58.6403 37.808ZM59.3443 39.232V48H57.8883V39.232H59.3443ZM61.2818 43.6C61.2818 42.6933 61.4631 41.904 61.8258 41.232C62.1884 40.5493 62.6898 40.0213 63.3298 39.648C63.9804 39.2747 64.7218 39.088 65.5538 39.088C66.6311 39.088 67.5164 39.3493 68.2098 39.872C68.9138 40.3947 69.3778 41.12 69.6018 42.048H68.0338C67.8844 41.5147 67.5911 41.0933 67.1538 40.784C66.7271 40.4747 66.1938 40.32 65.5538 40.32C64.7218 40.32 64.0498 40.608 63.5378 41.184C63.0258 41.7493 62.7698 42.5547 62.7698 43.6C62.7698 44.656 63.0258 45.472 63.5378 46.048C64.0498 46.624 64.7218 46.912 65.5538 46.912C66.1938 46.912 66.7271 46.7627 67.1538 46.464C67.5804 46.1653 67.8738 45.7387 68.0338 45.184H69.6018C69.3671 46.08 68.8978 46.8 68.1938 47.344C67.4898 47.8773 66.6098 48.144 65.5538 48.144C64.7218 48.144 63.9804 47.9573 63.3298 47.584C62.6898 47.2107 62.1884 46.6827 61.8258 46C61.4631 45.3173 61.2818 44.5173 61.2818 43.6ZM76.4405 48L73.0005 44.128V48H71.5445V36.16H73.0005V43.12L76.3765 39.232H78.4085L74.2805 43.6L78.4245 48H76.4405ZM88.3965 39.072C89.0578 39.072 89.6552 39.216 90.1885 39.504C90.7218 39.7813 91.1378 40.2027 91.4365 40.768C91.7458 41.3333 91.9005 42.0213 91.9005 42.832V48H90.4605V43.04C90.4605 42.1653 90.2418 41.4987 89.8045 41.04C89.3672 40.5707 88.7698 40.336 88.0125 40.336C87.2445 40.336 86.6312 40.576 86.1725 41.056C85.7245 41.536 85.5005 42.2347 85.5005 43.152V48H84.0445V36.16H85.5005V40.48C85.7885 40.032 86.1832 39.6853 86.6845 39.44C87.1965 39.1947 87.7672 39.072 88.3965 39.072ZM102.279 43.28C102.279 43.5573 102.263 43.8507 102.231 44.16H95.2229C95.2762 45.024 95.5695 45.7013 96.1029 46.192C96.6469 46.672 97.3029 46.912 98.0709 46.912C98.7002 46.912 99.2229 46.768 99.6389 46.48C100.066 46.1813 100.364 45.7867 100.535 45.296H102.103C101.868 46.1387 101.399 46.8267 100.695 47.36C99.9909 47.8827 99.1162 48.144 98.0709 48.144C97.2389 48.144 96.4922 47.9573 95.8309 47.584C95.1802 47.2107 94.6682 46.6827 94.2949 46C93.9215 45.3067 93.7349 44.5067 93.7349 43.6C93.7349 42.6933 93.9162 41.8987 94.2789 41.216C94.6415 40.5333 95.1482 40.0107 95.7989 39.648C96.4602 39.2747 97.2175 39.088 98.0709 39.088C98.9029 39.088 99.6389 39.2693 100.279 39.632C100.919 39.9947 101.41 40.496 101.751 41.136C102.103 41.7653 102.279 42.48 102.279 43.28ZM100.775 42.976C100.775 42.4213 100.652 41.9467 100.407 41.552C100.162 41.1467 99.8255 40.8427 99.3989 40.64C98.9829 40.4267 98.5189 40.32 98.0069 40.32C97.2709 40.32 96.6415 40.5547 96.1189 41.024C95.6069 41.4933 95.3135 42.144 95.2389 42.976H100.775ZM105.657 40.656C105.913 40.1547 106.275 39.7653 106.745 39.488C107.225 39.2107 107.806 39.072 108.489 39.072V40.576H108.105C106.473 40.576 105.657 41.4613 105.657 43.232V48H104.201V39.232H105.657V40.656ZM118.17 43.28C118.17 43.5573 118.154 43.8507 118.122 44.16H111.114C111.167 45.024 111.46 45.7013 111.994 46.192C112.538 46.672 113.194 46.912 113.962 46.912C114.591 46.912 115.114 46.768 115.53 46.48C115.956 46.1813 116.255 45.7867 116.426 45.296H117.994C117.759 46.1387 117.29 46.8267 116.586 47.36C115.882 47.8827 115.007 48.144 113.962 48.144C113.13 48.144 112.383 47.9573 111.722 47.584C111.071 47.2107 110.559 46.6827 110.186 46C109.812 45.3067 109.626 44.5067 109.626 43.6C109.626 42.6933 109.807 41.8987 110.17 41.216C110.532 40.5333 111.039 40.0107 111.69 39.648C112.351 39.2747 113.108 39.088 113.962 39.088C114.794 39.088 115.53 39.2693 116.17 39.632C116.81 39.9947 117.3 40.496 117.642 41.136C117.994 41.7653 118.17 42.48 118.17 43.28ZM116.666 42.976C116.666 42.4213 116.543 41.9467 116.298 41.552C116.052 41.1467 115.716 40.8427 115.29 40.64C114.874 40.4267 114.41 40.32 113.898 40.32C113.162 40.32 112.532 40.5547 112.01 41.024C111.498 41.4933 111.204 42.144 111.13 42.976H116.666ZM126.133 40.432V45.6C126.133 46.0267 126.224 46.3307 126.405 46.512C126.586 46.6827 126.901 46.768 127.349 46.768H128.421V48H127.109C126.298 48 125.69 47.8133 125.285 47.44C124.88 47.0667 124.677 46.4533 124.677 45.6V40.432H123.541V39.232H124.677V37.024H126.133V39.232H128.421V40.432H126.133ZM134.009 48.144C133.188 48.144 132.441 47.9573 131.769 47.584C131.108 47.2107 130.585 46.6827 130.201 46C129.828 45.3067 129.641 44.5067 129.641 43.6C129.641 42.704 129.833 41.9147 130.217 41.232C130.612 40.5387 131.145 40.0107 131.817 39.648C132.489 39.2747 133.241 39.088 134.073 39.088C134.905 39.088 135.657 39.2747 136.329 39.648C137.001 40.0107 137.529 40.5333 137.913 41.216C138.308 41.8987 138.505 42.6933 138.505 43.6C138.505 44.5067 138.302 45.3067 137.897 46C137.502 46.6827 136.964 47.2107 136.281 47.584C135.598 47.9573 134.841 48.144 134.009 48.144ZM134.009 46.864C134.532 46.864 135.022 46.7413 135.481 46.496C135.94 46.2507 136.308 45.8827 136.585 45.392C136.873 44.9013 137.017 44.304 137.017 43.6C137.017 42.896 136.878 42.2987 136.601 41.808C136.324 41.3173 135.961 40.9547 135.513 40.72C135.065 40.4747 134.58 40.352 134.057 40.352C133.524 40.352 133.033 40.4747 132.585 40.72C132.148 40.9547 131.796 41.3173 131.529 41.808C131.262 42.2987 131.129 42.896 131.129 43.6C131.129 44.3147 131.257 44.9173 131.513 45.408C131.78 45.8987 132.132 46.2667 132.569 46.512C133.006 46.7467 133.486 46.864 134.009 46.864ZM148.253 40.432H146.413V48H144.957V40.432H143.821V39.232H144.957V38.608C144.957 37.6267 145.208 36.912 145.709 36.464C146.221 36.0053 147.037 35.776 148.157 35.776V36.992C147.517 36.992 147.064 37.12 146.797 37.376C146.541 37.6213 146.413 38.032 146.413 38.608V39.232H148.253V40.432ZM150.703 37.808C150.425 37.808 150.191 37.712 149.999 37.52C149.807 37.328 149.711 37.0933 149.711 36.816C149.711 36.5387 149.807 36.304 149.999 36.112C150.191 35.92 150.425 35.824 150.703 35.824C150.969 35.824 151.193 35.92 151.375 36.112C151.567 36.304 151.663 36.5387 151.663 36.816C151.663 37.0933 151.567 37.328 151.375 37.52C151.193 37.712 150.969 37.808 150.703 37.808ZM151.407 39.232V48H149.951V39.232H151.407ZM158.16 39.072C159.227 39.072 160.091 39.3973 160.752 40.048C161.414 40.688 161.744 41.616 161.744 42.832V48H160.304V43.04C160.304 42.1653 160.086 41.4987 159.648 41.04C159.211 40.5707 158.614 40.336 157.856 40.336C157.088 40.336 156.475 40.576 156.016 41.056C155.568 41.536 155.344 42.2347 155.344 43.152V48H153.888V39.232H155.344V40.48C155.632 40.032 156.022 39.6853 156.512 39.44C157.014 39.1947 157.563 39.072 158.16 39.072ZM163.579 43.584C163.579 42.688 163.76 41.904 164.123 41.232C164.485 40.5493 164.981 40.0213 165.611 39.648C166.251 39.2747 166.965 39.088 167.755 39.088C168.437 39.088 169.072 39.248 169.659 39.568C170.245 39.8773 170.693 40.288 171.003 40.8V36.16H172.475V48H171.003V46.352C170.715 46.8747 170.288 47.3067 169.723 47.648C169.157 47.9787 168.496 48.144 167.739 48.144C166.96 48.144 166.251 47.952 165.611 47.568C164.981 47.184 164.485 46.6453 164.123 45.952C163.76 45.2587 163.579 44.4693 163.579 43.584ZM171.003 43.6C171.003 42.9387 170.869 42.3627 170.603 41.872C170.336 41.3813 169.973 41.008 169.515 40.752C169.067 40.4853 168.571 40.352 168.027 40.352C167.483 40.352 166.987 40.48 166.539 40.736C166.091 40.992 165.733 41.3653 165.467 41.856C165.2 42.3467 165.067 42.9227 165.067 43.584C165.067 44.256 165.2 44.8427 165.467 45.344C165.733 45.8347 166.091 46.2133 166.539 46.48C166.987 46.736 167.483 46.864 168.027 46.864C168.571 46.864 169.067 46.736 169.515 46.48C169.973 46.2133 170.336 45.8347 170.603 45.344C170.869 44.8427 171.003 44.2613 171.003 43.6ZM180.977 40.432V45.6C180.977 46.0267 181.067 46.3307 181.249 46.512C181.43 46.6827 181.745 46.768 182.193 46.768H183.265V48H181.953C181.142 48 180.534 47.8133 180.129 47.44C179.723 47.0667 179.521 46.4533 179.521 45.6V40.432H178.385V39.232H179.521V37.024H180.977V39.232H183.265V40.432H180.977ZM189.381 39.072C190.042 39.072 190.64 39.216 191.173 39.504C191.706 39.7813 192.122 40.2027 192.421 40.768C192.73 41.3333 192.885 42.0213 192.885 42.832V48H191.445V43.04C191.445 42.1653 191.226 41.4987 190.789 41.04C190.352 40.5707 189.754 40.336 188.997 40.336C188.229 40.336 187.616 40.576 187.157 41.056C186.709 41.536 186.485 42.2347 186.485 43.152V48H185.029V36.16H186.485V40.48C186.773 40.032 187.168 39.6853 187.669 39.44C188.181 39.1947 188.752 39.072 189.381 39.072ZM203.263 43.28C203.263 43.5573 203.247 43.8507 203.215 44.16H196.207C196.261 45.024 196.554 45.7013 197.087 46.192C197.631 46.672 198.287 46.912 199.055 46.912C199.685 46.912 200.207 46.768 200.623 46.48C201.05 46.1813 201.349 45.7867 201.519 45.296H203.087C202.853 46.1387 202.383 46.8267 201.679 47.36C200.975 47.8827 200.101 48.144 199.055 48.144C198.223 48.144 197.477 47.9573 196.815 47.584C196.165 47.2107 195.653 46.6827 195.279 46C194.906 45.3067 194.719 44.5067 194.719 43.6C194.719 42.6933 194.901 41.8987 195.263 41.216C195.626 40.5333 196.133 40.0107 196.783 39.648C197.445 39.2747 198.202 39.088 199.055 39.088C199.887 39.088 200.623 39.2693 201.263 39.632C201.903 39.9947 202.394 40.496 202.735 41.136C203.087 41.7653 203.263 42.48 203.263 43.28ZM201.759 42.976C201.759 42.4213 201.637 41.9467 201.391 41.552C201.146 41.1467 200.81 40.8427 200.383 40.64C199.967 40.4267 199.503 40.32 198.991 40.32C198.255 40.32 197.626 40.5547 197.103 41.024C196.591 41.4933 196.298 42.144 196.223 42.976H201.759ZM210.203 37.808C209.925 37.808 209.691 37.712 209.499 37.52C209.307 37.328 209.211 37.0933 209.211 36.816C209.211 36.5387 209.307 36.304 209.499 36.112C209.691 35.92 209.925 35.824 210.203 35.824C210.469 35.824 210.693 35.92 210.875 36.112C211.067 36.304 211.163 36.5387 211.163 36.816C211.163 37.0933 211.067 37.328 210.875 37.52C210.693 37.712 210.469 37.808 210.203 37.808ZM210.907 39.232V48H209.451V39.232H210.907ZM212.844 43.584C212.844 42.688 213.026 41.904 213.388 41.232C213.751 40.5493 214.247 40.0213 214.876 39.648C215.516 39.2747 216.231 39.088 217.02 39.088C217.703 39.088 218.338 39.248 218.924 39.568C219.511 39.8773 219.959 40.288 220.268 40.8V36.16H221.74V48H220.268V46.352C219.98 46.8747 219.554 47.3067 218.988 47.648C218.423 47.9787 217.762 48.144 217.004 48.144C216.226 48.144 215.516 47.952 214.876 47.568C214.247 47.184 213.751 46.6453 213.388 45.952C213.026 45.2587 212.844 44.4693 212.844 43.584ZM220.268 43.6C220.268 42.9387 220.135 42.3627 219.868 41.872C219.602 41.3813 219.239 41.008 218.78 40.752C218.332 40.4853 217.836 40.352 217.292 40.352C216.748 40.352 216.252 40.48 215.804 40.736C215.356 40.992 214.999 41.3653 214.732 41.856C214.466 42.3467 214.332 42.9227 214.332 43.584C214.332 44.256 214.466 44.8427 214.732 45.344C214.999 45.8347 215.356 46.2133 215.804 46.48C216.252 46.736 216.748 46.864 217.292 46.864C217.836 46.864 218.332 46.736 218.78 46.48C219.239 46.2133 219.602 45.8347 219.868 45.344C220.135 44.8427 220.268 44.2613 220.268 43.6ZM232.201 43.28C232.201 43.5573 232.185 43.8507 232.153 44.16H225.145C225.198 45.024 225.491 45.7013 226.025 46.192C226.569 46.672 227.225 46.912 227.993 46.912C228.622 46.912 229.145 46.768 229.561 46.48C229.987 46.1813 230.286 45.7867 230.457 45.296H232.025C231.79 46.1387 231.321 46.8267 230.617 47.36C229.913 47.8827 229.038 48.144 227.993 48.144C227.161 48.144 226.414 47.9573 225.753 47.584C225.102 47.2107 224.59 46.6827 224.217 46C223.843 45.3067 223.657 44.5067 223.657 43.6C223.657 42.6933 223.838 41.8987 224.201 41.216C224.563 40.5333 225.07 40.0107 225.721 39.648C226.382 39.2747 227.139 39.088 227.993 39.088C228.825 39.088 229.561 39.2693 230.201 39.632C230.841 39.9947 231.331 40.496 231.673 41.136C232.025 41.7653 232.201 42.48 232.201 43.28ZM230.697 42.976C230.697 42.4213 230.574 41.9467 230.329 41.552C230.083 41.1467 229.747 40.8427 229.321 40.64C228.905 40.4267 228.441 40.32 227.929 40.32C227.193 40.32 226.563 40.5547 226.041 41.024C225.529 41.4933 225.235 42.144 225.161 42.976H230.697ZM233.579 43.584C233.579 42.688 233.76 41.904 234.123 41.232C234.485 40.5493 234.981 40.0213 235.611 39.648C236.251 39.2747 236.96 39.088 237.739 39.088C238.507 39.088 239.173 39.2533 239.739 39.584C240.304 39.9147 240.725 40.3307 241.003 40.832V39.232H242.475V48H241.003V46.368C240.715 46.88 240.283 47.3067 239.707 47.648C239.141 47.9787 238.48 48.144 237.723 48.144C236.944 48.144 236.24 47.952 235.611 47.568C234.981 47.184 234.485 46.6453 234.123 45.952C233.76 45.2587 233.579 44.4693 233.579 43.584ZM241.003 43.6C241.003 42.9387 240.869 42.3627 240.603 41.872C240.336 41.3813 239.973 41.008 239.515 40.752C239.067 40.4853 238.571 40.352 238.027 40.352C237.483 40.352 236.987 40.48 236.539 40.736C236.091 40.992 235.733 41.3653 235.467 41.856C235.2 42.3467 235.067 42.9227 235.067 43.584C235.067 44.256 235.2 44.8427 235.467 45.344C235.733 45.8347 236.091 46.2133 236.539 46.48C236.987 46.736 237.483 46.864 238.027 46.864C238.571 46.864 239.067 46.736 239.515 46.48C239.973 46.2133 240.336 45.8347 240.603 45.344C240.869 44.8427 241.003 44.2613 241.003 43.6ZM246.391 36.16V48H244.935V36.16H246.391ZM41.8208 61.6C41.8208 60.6933 42.0021 59.904 42.3648 59.232C42.7275 58.5493 43.2288 58.0213 43.8688 57.648C44.5195 57.2747 45.2608 57.088 46.0928 57.088C47.1701 57.088 48.0555 57.3493 48.7488 57.872C49.4528 58.3947 49.9168 59.12 50.1408 60.048H48.5728C48.4235 59.5147 48.1301 59.0933 47.6928 58.784C47.2661 58.4747 46.7328 58.32 46.0928 58.32C45.2608 58.32 44.5888 58.608 44.0768 59.184C43.5648 59.7493 43.3088 60.5547 43.3088 61.6C43.3088 62.656 43.5648 63.472 44.0768 64.048C44.5888 64.624 45.2608 64.912 46.0928 64.912C46.7328 64.912 47.2661 64.7627 47.6928 64.464C48.1195 64.1653 48.4128 63.7387 48.5728 63.184H50.1408C49.9061 64.08 49.4368 64.8 48.7328 65.344C48.0288 65.8773 47.1488 66.144 46.0928 66.144C45.2608 66.144 44.5195 65.9573 43.8688 65.584C43.2288 65.2107 42.7275 64.6827 42.3648 64C42.0021 63.3173 41.8208 62.5173 41.8208 61.6ZM55.9076 66.144C55.0862 66.144 54.3396 65.9573 53.6676 65.584C53.0062 65.2107 52.4836 64.6827 52.0996 64C51.7262 63.3067 51.5396 62.5067 51.5396 61.6C51.5396 60.704 51.7316 59.9147 52.1156 59.232C52.5102 58.5387 53.0436 58.0107 53.7156 57.648C54.3876 57.2747 55.1396 57.088 55.9716 57.088C56.8036 57.088 57.5556 57.2747 58.2276 57.648C58.8996 58.0107 59.4276 58.5333 59.8116 59.216C60.2062 59.8987 60.4036 60.6933 60.4036 61.6C60.4036 62.5067 60.2009 63.3067 59.7956 64C59.4009 64.6827 58.8622 65.2107 58.1796 65.584C57.4969 65.9573 56.7396 66.144 55.9076 66.144ZM55.9076 64.864C56.4302 64.864 56.9209 64.7413 57.3796 64.496C57.8382 64.2507 58.2062 63.8827 58.4836 63.392C58.7716 62.9013 58.9156 62.304 58.9156 61.6C58.9156 60.896 58.7769 60.2987 58.4996 59.808C58.2222 59.3173 57.8596 58.9547 57.4116 58.72C56.9636 58.4747 56.4782 58.352 55.9556 58.352C55.4222 58.352 54.9316 58.4747 54.4836 58.72C54.0462 58.9547 53.6942 59.3173 53.4276 59.808C53.1609 60.2987 53.0276 60.896 53.0276 61.6C53.0276 62.3147 53.1556 62.9173 53.4116 63.408C53.6782 63.8987 54.0302 64.2667 54.4676 64.512C54.9049 64.7467 55.3849 64.864 55.9076 64.864ZM66.5899 57.072C67.6566 57.072 68.5206 57.3973 69.1819 58.048C69.8433 58.688 70.1739 59.616 70.1739 60.832V66H68.7339V61.04C68.7339 60.1653 68.5153 59.4987 68.0779 59.04C67.6406 58.5707 67.0433 58.336 66.2859 58.336C65.5179 58.336 64.9046 58.576 64.4459 59.056C63.9979 59.536 63.7739 60.2347 63.7739 61.152V66H62.3179V57.232H63.7739V58.48C64.0619 58.032 64.4513 57.6853 64.9419 57.44C65.4433 57.1947 65.9926 57.072 66.5899 57.072ZM72.0083 61.584C72.0083 60.688 72.1896 59.904 72.5523 59.232C72.915 58.5493 73.411 58.0213 74.0403 57.648C74.6803 57.2747 75.395 57.088 76.1843 57.088C76.867 57.088 77.5016 57.248 78.0883 57.568C78.675 57.8773 79.123 58.288 79.4323 58.8V54.16H80.9043V66H79.4323V64.352C79.1443 64.8747 78.7176 65.3067 78.1523 65.648C77.587 65.9787 76.9256 66.144 76.1683 66.144C75.3896 66.144 74.6803 65.952 74.0403 65.568C73.411 65.184 72.915 64.6453 72.5523 63.952C72.1896 63.2587 72.0083 62.4693 72.0083 61.584ZM79.4323 61.6C79.4323 60.9387 79.299 60.3627 79.0323 59.872C78.7656 59.3813 78.403 59.008 77.9443 58.752C77.4963 58.4853 77.0003 58.352 76.4563 58.352C75.9123 58.352 75.4163 58.48 74.9683 58.736C74.5203 58.992 74.163 59.3653 73.8963 59.856C73.6296 60.3467 73.4963 60.9227 73.4963 61.584C73.4963 62.256 73.6296 62.8427 73.8963 63.344C74.163 63.8347 74.5203 64.2133 74.9683 64.48C75.4163 64.736 75.9123 64.864 76.4563 64.864C77.0003 64.864 77.4963 64.736 77.9443 64.48C78.403 64.2133 78.7656 63.8347 79.0323 63.344C79.299 62.8427 79.4323 62.2613 79.4323 61.6ZM84.1168 55.808C83.8395 55.808 83.6048 55.712 83.4128 55.52C83.2208 55.328 83.1248 55.0933 83.1248 54.816C83.1248 54.5387 83.2208 54.304 83.4128 54.112C83.6048 53.92 83.8395 53.824 84.1168 53.824C84.3835 53.824 84.6075 53.92 84.7888 54.112C84.9808 54.304 85.0768 54.5387 85.0768 54.816C85.0768 55.0933 84.9808 55.328 84.7888 55.52C84.6075 55.712 84.3835 55.808 84.1168 55.808ZM84.8208 57.232V66H83.3648V57.232H84.8208ZM89.0783 58.432V63.6C89.0783 64.0267 89.169 64.3307 89.3503 64.512C89.5316 64.6827 89.8463 64.768 90.2943 64.768H91.3663V66H90.0543C89.2436 66 88.6356 65.8133 88.2303 65.44C87.825 65.0667 87.6223 64.4533 87.6223 63.6V58.432H86.4863V57.232H87.6223V55.024H89.0783V57.232H91.3663V58.432H89.0783ZM93.8824 55.808C93.6051 55.808 93.3704 55.712 93.1784 55.52C92.9864 55.328 92.8904 55.0933 92.8904 54.816C92.8904 54.5387 92.9864 54.304 93.1784 54.112C93.3704 53.92 93.6051 53.824 93.8824 53.824C94.1491 53.824 94.3731 53.92 94.5544 54.112C94.7464 54.304 94.8424 54.5387 94.8424 54.816C94.8424 55.0933 94.7464 55.328 94.5544 55.52C94.3731 55.712 94.1491 55.808 93.8824 55.808ZM94.5864 57.232V66H93.1304V57.232H94.5864ZM100.892 66.144C100.071 66.144 99.3239 65.9573 98.6519 65.584C97.9906 65.2107 97.4679 64.6827 97.0839 64C96.7106 63.3067 96.5239 62.5067 96.5239 61.6C96.5239 60.704 96.7159 59.9147 97.0999 59.232C97.4946 58.5387 98.0279 58.0107 98.6999 57.648C99.3719 57.2747 100.124 57.088 100.956 57.088C101.788 57.088 102.54 57.2747 103.212 57.648C103.884 58.0107 104.412 58.5333 104.796 59.216C105.191 59.8987 105.388 60.6933 105.388 61.6C105.388 62.5067 105.185 63.3067 104.78 64C104.385 64.6827 103.847 65.2107 103.164 65.584C102.481 65.9573 101.724 66.144 100.892 66.144ZM100.892 64.864C101.415 64.864 101.905 64.7413 102.364 64.496C102.823 64.2507 103.191 63.8827 103.468 63.392C103.756 62.9013 103.9 62.304 103.9 61.6C103.9 60.896 103.761 60.2987 103.484 59.808C103.207 59.3173 102.844 58.9547 102.396 58.72C101.948 58.4747 101.463 58.352 100.94 58.352C100.407 58.352 99.9159 58.4747 99.4679 58.72C99.0306 58.9547 98.6786 59.3173 98.4119 59.808C98.1453 60.2987 98.0119 60.896 98.0119 61.6C98.0119 62.3147 98.1399 62.9173 98.3959 63.408C98.6626 63.8987 99.0146 64.2667 99.4519 64.512C99.8893 64.7467 100.369 64.864 100.892 64.864ZM111.574 57.072C112.641 57.072 113.505 57.3973 114.166 58.048C114.828 58.688 115.158 59.616 115.158 60.832V66H113.718V61.04C113.718 60.1653 113.5 59.4987 113.062 59.04C112.625 58.5707 112.028 58.336 111.27 58.336C110.502 58.336 109.889 58.576 109.43 59.056C108.982 59.536 108.758 60.2347 108.758 61.152V66H107.302V57.232H108.758V58.48C109.046 58.032 109.436 57.6853 109.926 57.44C110.428 57.1947 110.977 57.072 111.574 57.072ZM120.641 66.144C119.969 66.144 119.366 66.032 118.833 65.808C118.299 65.5733 117.878 65.2533 117.569 64.848C117.259 64.432 117.089 63.9573 117.057 63.424H118.561C118.603 63.8613 118.806 64.2187 119.169 64.496C119.542 64.7733 120.027 64.912 120.625 64.912C121.179 64.912 121.617 64.7893 121.937 64.544C122.257 64.2987 122.417 63.9893 122.417 63.616C122.417 63.232 122.246 62.9493 121.905 62.768C121.563 62.576 121.035 62.3893 120.321 62.208C119.67 62.0373 119.137 61.8667 118.721 61.696C118.315 61.5147 117.963 61.2533 117.665 60.912C117.377 60.56 117.233 60.1013 117.233 59.536C117.233 59.088 117.366 58.6773 117.633 58.304C117.899 57.9307 118.278 57.6373 118.769 57.424C119.259 57.2 119.819 57.088 120.449 57.088C121.419 57.088 122.203 57.3333 122.801 57.824C123.398 58.3147 123.718 58.9867 123.761 59.84H122.305C122.273 59.3813 122.086 59.0133 121.745 58.736C121.414 58.4587 120.966 58.32 120.401 58.32C119.878 58.32 119.462 58.432 119.153 58.656C118.843 58.88 118.689 59.1733 118.689 59.536C118.689 59.824 118.779 60.064 118.961 60.256C119.153 60.4373 119.387 60.5867 119.665 60.704C119.953 60.8107 120.347 60.9333 120.849 61.072C121.478 61.2427 121.99 61.4133 122.385 61.584C122.779 61.744 123.115 61.9893 123.393 62.32C123.681 62.6507 123.83 63.0827 123.841 63.616C123.841 64.096 123.707 64.528 123.441 64.912C123.174 65.296 122.795 65.6 122.305 65.824C121.825 66.0373 121.27 66.144 120.641 66.144ZM133.73 58.432H131.89V66H130.434V58.432H129.298V57.232H130.434V56.608C130.434 55.6267 130.684 54.912 131.186 54.464C131.698 54.0053 132.514 53.776 133.634 53.776V54.992C132.994 54.992 132.54 55.12 132.274 55.376C132.018 55.6213 131.89 56.032 131.89 56.608V57.232H133.73V58.432ZM139.251 66.144C138.43 66.144 137.683 65.9573 137.011 65.584C136.35 65.2107 135.827 64.6827 135.443 64C135.07 63.3067 134.883 62.5067 134.883 61.6C134.883 60.704 135.075 59.9147 135.459 59.232C135.854 58.5387 136.387 58.0107 137.059 57.648C137.731 57.2747 138.483 57.088 139.315 57.088C140.147 57.088 140.899 57.2747 141.571 57.648C142.243 58.0107 142.771 58.5333 143.155 59.216C143.55 59.8987 143.747 60.6933 143.747 61.6C143.747 62.5067 143.545 63.3067 143.139 64C142.745 64.6827 142.206 65.2107 141.523 65.584C140.841 65.9573 140.083 66.144 139.251 66.144ZM139.251 64.864C139.774 64.864 140.265 64.7413 140.723 64.496C141.182 64.2507 141.55 63.8827 141.827 63.392C142.115 62.9013 142.259 62.304 142.259 61.6C142.259 60.896 142.121 60.2987 141.843 59.808C141.566 59.3173 141.203 58.9547 140.755 58.72C140.307 58.4747 139.822 58.352 139.299 58.352C138.766 58.352 138.275 58.4747 137.827 58.72C137.39 58.9547 137.038 59.3173 136.771 59.808C136.505 60.2987 136.371 60.896 136.371 61.6C136.371 62.3147 136.499 62.9173 136.755 63.408C137.022 63.8987 137.374 64.2667 137.811 64.512C138.249 64.7467 138.729 64.864 139.251 64.864ZM147.118 58.656C147.374 58.1547 147.736 57.7653 148.206 57.488C148.686 57.2107 149.267 57.072 149.95 57.072V58.576H149.566C147.934 58.576 147.118 59.4613 147.118 61.232V66H145.662V57.232H147.118V58.656ZM157.672 58.432V63.6C157.672 64.0267 157.763 64.3307 157.944 64.512C158.125 64.6827 158.44 64.768 158.888 64.768H159.96V66H158.648C157.837 66 157.229 65.8133 156.824 65.44C156.419 65.0667 156.216 64.4533 156.216 63.6V58.432H155.08V57.232H156.216V55.024H157.672V57.232H159.96V58.432H157.672ZM166.076 57.072C166.738 57.072 167.335 57.216 167.868 57.504C168.402 57.7813 168.818 58.2027 169.116 58.768C169.426 59.3333 169.58 60.0213 169.58 60.832V66H168.14V61.04C168.14 60.1653 167.922 59.4987 167.484 59.04C167.047 58.5707 166.45 58.336 165.692 58.336C164.924 58.336 164.311 58.576 163.852 59.056C163.404 59.536 163.18 60.2347 163.18 61.152V66H161.724V54.16H163.18V58.48C163.468 58.032 163.863 57.6853 164.364 57.44C164.876 57.1947 165.447 57.072 166.076 57.072ZM179.959 61.28C179.959 61.5573 179.943 61.8507 179.911 62.16H172.903C172.956 63.024 173.249 63.7013 173.783 64.192C174.327 64.672 174.983 64.912 175.751 64.912C176.38 64.912 176.903 64.768 177.319 64.48C177.745 64.1813 178.044 63.7867 178.215 63.296H179.783C179.548 64.1387 179.079 64.8267 178.375 65.36C177.671 65.8827 176.796 66.144 175.751 66.144C174.919 66.144 174.172 65.9573 173.511 65.584C172.86 65.2107 172.348 64.6827 171.975 64C171.601 63.3067 171.415 62.5067 171.415 61.6C171.415 60.6933 171.596 59.8987 171.959 59.216C172.321 58.5333 172.828 58.0107 173.479 57.648C174.14 57.2747 174.897 57.088 175.751 57.088C176.583 57.088 177.319 57.2693 177.959 57.632C178.599 57.9947 179.089 58.496 179.431 59.136C179.783 59.7653 179.959 60.48 179.959 61.28ZM178.455 60.976C178.455 60.4213 178.332 59.9467 178.087 59.552C177.841 59.1467 177.505 58.8427 177.079 58.64C176.663 58.4267 176.199 58.32 175.687 58.32C174.951 58.32 174.321 58.5547 173.799 59.024C173.287 59.4933 172.993 60.144 172.919 60.976H178.455ZM187.602 58.848C187.89 58.3467 188.317 57.9307 188.882 57.6C189.458 57.2587 190.125 57.088 190.882 57.088C191.661 57.088 192.365 57.2747 192.994 57.648C193.634 58.0213 194.135 58.5493 194.498 59.232C194.861 59.904 195.042 60.688 195.042 61.584C195.042 62.4693 194.861 63.2587 194.498 63.952C194.135 64.6453 193.634 65.184 192.994 65.568C192.365 65.952 191.661 66.144 190.882 66.144C190.135 66.144 189.474 65.9787 188.898 65.648C188.333 65.3067 187.901 64.8853 187.602 64.384V70.16H186.146V57.232H187.602V58.848ZM193.554 61.584C193.554 60.9227 193.421 60.3467 193.154 59.856C192.887 59.3653 192.525 58.992 192.066 58.736C191.618 58.48 191.122 58.352 190.578 58.352C190.045 58.352 189.549 58.4853 189.09 58.752C188.642 59.008 188.279 59.3867 188.002 59.888C187.735 60.3787 187.602 60.9493 187.602 61.6C187.602 62.2613 187.735 62.8427 188.002 63.344C188.279 63.8347 188.642 64.2133 189.09 64.48C189.549 64.736 190.045 64.864 190.578 64.864C191.122 64.864 191.618 64.736 192.066 64.48C192.525 64.2133 192.887 63.8347 193.154 63.344C193.421 62.8427 193.554 62.256 193.554 61.584ZM198.415 54.16V66H196.959V54.16H198.415ZM200.352 61.584C200.352 60.688 200.533 59.904 200.896 59.232C201.259 58.5493 201.755 58.0213 202.384 57.648C203.024 57.2747 203.733 57.088 204.512 57.088C205.28 57.088 205.947 57.2533 206.512 57.584C207.077 57.9147 207.499 58.3307 207.776 58.832V57.232H209.248V66H207.776V64.368C207.488 64.88 207.056 65.3067 206.48 65.648C205.915 65.9787 205.253 66.144 204.496 66.144C203.717 66.144 203.013 65.952 202.384 65.568C201.755 65.184 201.259 64.6453 200.896 63.952C200.533 63.2587 200.352 62.4693 200.352 61.584ZM207.776 61.6C207.776 60.9387 207.643 60.3627 207.376 59.872C207.109 59.3813 206.747 59.008 206.288 58.752C205.84 58.4853 205.344 58.352 204.8 58.352C204.256 58.352 203.76 58.48 203.312 58.736C202.864 58.992 202.507 59.3653 202.24 59.856C201.973 60.3467 201.84 60.9227 201.84 61.584C201.84 62.256 201.973 62.8427 202.24 63.344C202.507 63.8347 202.864 64.2133 203.312 64.48C203.76 64.736 204.256 64.864 204.8 64.864C205.344 64.864 205.84 64.736 206.288 64.48C206.747 64.2133 207.109 63.8347 207.376 63.344C207.643 62.8427 207.776 62.2613 207.776 61.6ZM215.981 57.072C217.047 57.072 217.911 57.3973 218.573 58.048C219.234 58.688 219.565 59.616 219.565 60.832V66H218.125V61.04C218.125 60.1653 217.906 59.4987 217.469 59.04C217.031 58.5707 216.434 58.336 215.677 58.336C214.909 58.336 214.295 58.576 213.837 59.056C213.389 59.536 213.165 60.2347 213.165 61.152V66H211.709V57.232H213.165V58.48C213.453 58.032 213.842 57.6853 214.333 57.44C214.834 57.1947 215.383 57.072 215.981 57.072ZM223.719 58.432V63.6C223.719 64.0267 223.81 64.3307 223.991 64.512C224.172 64.6827 224.487 64.768 224.935 64.768H226.007V66H224.695C223.884 66 223.276 65.8133 222.871 65.44C222.466 65.0667 222.263 64.4533 222.263 63.6V58.432H221.127V57.232H222.263V55.024H223.719V57.232H226.007V58.432H223.719ZM233.813 58.432V63.6C233.813 64.0267 233.903 64.3307 234.085 64.512C234.266 64.6827 234.581 64.768 235.029 64.768H236.101V66H234.789C233.978 66 233.37 65.8133 232.965 65.44C232.559 65.0667 232.357 64.4533 232.357 63.6V58.432H231.221V57.232H232.357V55.024H233.813V57.232H236.101V58.432H233.813ZM241.689 66.144C240.867 66.144 240.121 65.9573 239.449 65.584C238.787 65.2107 238.265 64.6827 237.881 64C237.507 63.3067 237.321 62.5067 237.321 61.6C237.321 60.704 237.513 59.9147 237.897 59.232C238.291 58.5387 238.825 58.0107 239.497 57.648C240.169 57.2747 240.921 57.088 241.753 57.088C242.585 57.088 243.337 57.2747 244.009 57.648C244.681 58.0107 245.209 58.5333 245.593 59.216C245.987 59.8987 246.185 60.6933 246.185 61.6C246.185 62.5067 245.982 63.3067 245.577 64C245.182 64.6827 244.643 65.2107 243.961 65.584C243.278 65.9573 242.521 66.144 241.689 66.144ZM241.689 64.864C242.211 64.864 242.702 64.7413 243.161 64.496C243.619 64.2507 243.987 63.8827 244.265 63.392C244.553 62.9013 244.697 62.304 244.697 61.6C244.697 60.896 244.558 60.2987 244.281 59.808C244.003 59.3173 243.641 58.9547 243.193 58.72C242.745 58.4747 242.259 58.352 241.737 58.352C241.203 58.352 240.713 58.4747 240.265 58.72C239.827 58.9547 239.475 59.3173 239.209 59.808C238.942 60.2987 238.809 60.896 238.809 61.6C238.809 62.3147 238.937 62.9173 239.193 63.408C239.459 63.8987 239.811 64.2667 240.249 64.512C240.686 64.7467 241.166 64.864 241.689 64.864ZM48.2855 75.088C49.0428 75.088 49.7042 75.2533 50.2695 75.584C50.8455 75.9147 51.2722 76.3307 51.5495 76.832V75.232H53.0215V84.192C53.0215 84.992 52.8508 85.7013 52.5095 86.32C52.1682 86.9493 51.6775 87.44 51.0375 87.792C50.4082 88.144 49.6722 88.32 48.8295 88.32C47.6775 88.32 46.7175 88.048 45.9495 87.504C45.1815 86.96 44.7282 86.2187 44.5895 85.28H46.0295C46.1895 85.8133 46.5202 86.24 47.0215 86.56C47.5228 86.8907 48.1255 87.056 48.8295 87.056C49.6295 87.056 50.2802 86.8053 50.7815 86.304C51.2935 85.8027 51.5495 85.0987 51.5495 84.192V82.352C51.2615 82.864 50.8348 83.2907 50.2695 83.632C49.7042 83.9733 49.0428 84.144 48.2855 84.144C47.5068 84.144 46.7975 83.952 46.1575 83.568C45.5282 83.184 45.0322 82.6453 44.6695 81.952C44.3068 81.2587 44.1255 80.4693 44.1255 79.584C44.1255 78.688 44.3068 77.904 44.6695 77.232C45.0322 76.5493 45.5282 76.0213 46.1575 75.648C46.7975 75.2747 47.5068 75.088 48.2855 75.088ZM51.5495 79.6C51.5495 78.9387 51.4162 78.3627 51.1495 77.872C50.8828 77.3813 50.5202 77.008 50.0615 76.752C49.6135 76.4853 49.1175 76.352 48.5735 76.352C48.0295 76.352 47.5335 76.48 47.0855 76.736C46.6375 76.992 46.2802 77.3653 46.0135 77.856C45.7468 78.3467 45.6135 78.9227 45.6135 79.584C45.6135 80.256 45.7468 80.8427 46.0135 81.344C46.2802 81.8347 46.6375 82.2133 47.0855 82.48C47.5335 82.736 48.0295 82.864 48.5735 82.864C49.1175 82.864 49.6135 82.736 50.0615 82.48C50.5202 82.2133 50.8828 81.8347 51.1495 81.344C51.4162 80.8427 51.5495 80.2613 51.5495 79.6ZM56.938 76.656C57.194 76.1547 57.5567 75.7653 58.026 75.488C58.506 75.2107 59.0873 75.072 59.77 75.072V76.576H59.386C57.754 76.576 56.938 77.4613 56.938 79.232V84H55.482V75.232H56.938V76.656ZM65.2748 84.144C64.4534 84.144 63.7068 83.9573 63.0348 83.584C62.3734 83.2107 61.8508 82.6827 61.4668 82C61.0934 81.3067 60.9068 80.5067 60.9068 79.6C60.9068 78.704 61.0988 77.9147 61.4828 77.232C61.8774 76.5387 62.4108 76.0107 63.0828 75.648C63.7548 75.2747 64.5068 75.088 65.3388 75.088C66.1708 75.088 66.9228 75.2747 67.5948 75.648C68.2668 76.0107 68.7948 76.5333 69.1788 77.216C69.5734 77.8987 69.7708 78.6933 69.7708 79.6C69.7708 80.5067 69.5681 81.3067 69.1628 82C68.7681 82.6827 68.2294 83.2107 67.5468 83.584C66.8641 83.9573 66.1068 84.144 65.2748 84.144ZM65.2748 82.864C65.7974 82.864 66.2881 82.7413 66.7468 82.496C67.2054 82.2507 67.5734 81.8827 67.8508 81.392C68.1388 80.9013 68.2828 80.304 68.2828 79.6C68.2828 78.896 68.1441 78.2987 67.8668 77.808C67.5894 77.3173 67.2268 76.9547 66.7788 76.72C66.3308 76.4747 65.8454 76.352 65.3228 76.352C64.7894 76.352 64.2988 76.4747 63.8508 76.72C63.4134 76.9547 63.0614 77.3173 62.7948 77.808C62.5281 78.2987 62.3948 78.896 62.3948 79.6C62.3948 80.3147 62.5228 80.9173 62.7788 81.408C63.0454 81.8987 63.3974 82.2667 63.8348 82.512C64.2721 82.7467 64.7521 82.864 65.2748 82.864ZM83.3651 75.232L80.6291 84H79.1251L77.0131 77.04L74.9011 84H73.3971L70.6451 75.232H72.1331L74.1491 82.592L76.3251 75.232H77.8131L79.9411 82.608L81.9251 75.232H83.3651ZM88.5318 79.584C88.5318 78.688 88.7131 77.904 89.0758 77.232C89.4384 76.5493 89.9344 76.0213 90.5638 75.648C91.2038 75.2747 91.9131 75.088 92.6918 75.088C93.4598 75.088 94.1264 75.2533 94.6918 75.584C95.2571 75.9147 95.6784 76.3307 95.9558 76.832V75.232H97.4278V84H95.9558V82.368C95.6678 82.88 95.2358 83.3067 94.6598 83.648C94.0944 83.9787 93.4331 84.144 92.6758 84.144C91.8971 84.144 91.1931 83.952 90.5638 83.568C89.9344 83.184 89.4384 82.6453 89.0758 81.952C88.7131 81.2587 88.5318 80.4693 88.5318 79.584ZM95.9558 79.6C95.9558 78.9387 95.8224 78.3627 95.5558 77.872C95.2891 77.3813 94.9264 77.008 94.4678 76.752C94.0198 76.4853 93.5238 76.352 92.9798 76.352C92.4358 76.352 91.9398 76.48 91.4918 76.736C91.0438 76.992 90.6864 77.3653 90.4198 77.856C90.1531 78.3467 90.0198 78.9227 90.0198 79.584C90.0198 80.256 90.1531 80.8427 90.4198 81.344C90.6864 81.8347 91.0438 82.2133 91.4918 82.48C91.9398 82.736 92.4358 82.864 92.9798 82.864C93.5238 82.864 94.0198 82.736 94.4678 82.48C94.9264 82.2133 95.2891 81.8347 95.5558 81.344C95.8224 80.8427 95.9558 80.2613 95.9558 79.6ZM104.16 75.072C105.227 75.072 106.091 75.3973 106.752 76.048C107.414 76.688 107.744 77.616 107.744 78.832V84H106.304V79.04C106.304 78.1653 106.086 77.4987 105.648 77.04C105.211 76.5707 104.614 76.336 103.856 76.336C103.088 76.336 102.475 76.576 102.016 77.056C101.568 77.536 101.344 78.2347 101.344 79.152V84H99.8883V75.232H101.344V76.48C101.632 76.032 102.022 75.6853 102.512 75.44C103.014 75.1947 103.563 75.072 104.16 75.072ZM109.579 79.584C109.579 78.688 109.76 77.904 110.123 77.232C110.485 76.5493 110.981 76.0213 111.611 75.648C112.251 75.2747 112.965 75.088 113.755 75.088C114.437 75.088 115.072 75.248 115.659 75.568C116.245 75.8773 116.693 76.288 117.003 76.8V72.16H118.475V84H117.003V82.352C116.715 82.8747 116.288 83.3067 115.723 83.648C115.157 83.9787 114.496 84.144 113.739 84.144C112.96 84.144 112.251 83.952 111.611 83.568C110.981 83.184 110.485 82.6453 110.123 81.952C109.76 81.2587 109.579 80.4693 109.579 79.584ZM117.003 79.6C117.003 78.9387 116.869 78.3627 116.603 77.872C116.336 77.3813 115.973 77.008 115.515 76.752C115.067 76.4853 114.571 76.352 114.027 76.352C113.483 76.352 112.987 76.48 112.539 76.736C112.091 76.992 111.733 77.3653 111.467 77.856C111.2 78.3467 111.067 78.9227 111.067 79.584C111.067 80.256 111.2 80.8427 111.467 81.344C111.733 81.8347 112.091 82.2133 112.539 82.48C112.987 82.736 113.483 82.864 114.027 82.864C114.571 82.864 115.067 82.736 115.515 82.48C115.973 82.2133 116.336 81.8347 116.603 81.344C116.869 80.8427 117.003 80.2613 117.003 79.6ZM125.953 73.808C125.675 73.808 125.441 73.712 125.249 73.52C125.057 73.328 124.961 73.0933 124.961 72.816C124.961 72.5387 125.057 72.304 125.249 72.112C125.441 71.92 125.675 71.824 125.953 71.824C126.219 71.824 126.443 71.92 126.625 72.112C126.817 72.304 126.913 72.5387 126.913 72.816C126.913 73.0933 126.817 73.328 126.625 73.52C126.443 73.712 126.219 73.808 125.953 73.808ZM126.657 75.232V84H125.201V75.232H126.657ZM130.914 76.432V81.6C130.914 82.0267 131.005 82.3307 131.186 82.512C131.368 82.6827 131.682 82.768 132.13 82.768H133.202V84H131.89C131.08 84 130.472 83.8133 130.066 83.44C129.661 83.0667 129.458 82.4533 129.458 81.6V76.432H128.322V75.232H129.458V73.024H130.914V75.232H133.202V76.432H130.914ZM138.07 84.144C137.398 84.144 136.796 84.032 136.262 83.808C135.729 83.5733 135.308 83.2533 134.998 82.848C134.689 82.432 134.518 81.9573 134.486 81.424H135.99C136.033 81.8613 136.236 82.2187 136.598 82.496C136.972 82.7733 137.457 82.912 138.054 82.912C138.609 82.912 139.046 82.7893 139.366 82.544C139.686 82.2987 139.846 81.9893 139.846 81.616C139.846 81.232 139.676 80.9493 139.334 80.768C138.993 80.576 138.465 80.3893 137.75 80.208C137.1 80.0373 136.566 79.8667 136.15 79.696C135.745 79.5147 135.393 79.2533 135.094 78.912C134.806 78.56 134.662 78.1013 134.662 77.536C134.662 77.088 134.796 76.6773 135.062 76.304C135.329 75.9307 135.708 75.6373 136.198 75.424C136.689 75.2 137.249 75.088 137.878 75.088C138.849 75.088 139.633 75.3333 140.23 75.824C140.828 76.3147 141.148 76.9867 141.19 77.84H139.734C139.702 77.3813 139.516 77.0133 139.174 76.736C138.844 76.4587 138.396 76.32 137.83 76.32C137.308 76.32 136.892 76.432 136.582 76.656C136.273 76.88 136.118 77.1733 136.118 77.536C136.118 77.824 136.209 78.064 136.39 78.256C136.582 78.4373 136.817 78.5867 137.094 78.704C137.382 78.8107 137.777 78.9333 138.278 79.072C138.908 79.2427 139.42 79.4133 139.814 79.584C140.209 79.744 140.545 79.9893 140.822 80.32C141.11 80.6507 141.26 81.0827 141.27 81.616C141.27 82.096 141.137 82.528 140.87 82.912C140.604 83.296 140.225 83.6 139.734 83.824C139.254 84.0373 138.7 84.144 138.07 84.144ZM149.047 76.848C149.335 76.3467 149.762 75.9307 150.327 75.6C150.903 75.2587 151.57 75.088 152.327 75.088C153.106 75.088 153.81 75.2747 154.439 75.648C155.079 76.0213 155.581 76.5493 155.943 77.232C156.306 77.904 156.487 78.688 156.487 79.584C156.487 80.4693 156.306 81.2587 155.943 81.952C155.581 82.6453 155.079 83.184 154.439 83.568C153.81 83.952 153.106 84.144 152.327 84.144C151.581 84.144 150.919 83.9787 150.343 83.648C149.778 83.3067 149.346 82.8853 149.047 82.384V88.16H147.591V75.232H149.047V76.848ZM154.999 79.584C154.999 78.9227 154.866 78.3467 154.599 77.856C154.333 77.3653 153.97 76.992 153.511 76.736C153.063 76.48 152.567 76.352 152.023 76.352C151.49 76.352 150.994 76.4853 150.535 76.752C150.087 77.008 149.725 77.3867 149.447 77.888C149.181 78.3787 149.047 78.9493 149.047 79.6C149.047 80.2613 149.181 80.8427 149.447 81.344C149.725 81.8347 150.087 82.2133 150.535 82.48C150.994 82.736 151.49 82.864 152.023 82.864C152.567 82.864 153.063 82.736 153.511 82.48C153.97 82.2133 154.333 81.8347 154.599 81.344C154.866 80.8427 154.999 80.256 154.999 79.584ZM159.86 76.656C160.116 76.1547 160.479 75.7653 160.948 75.488C161.428 75.2107 162.009 75.072 162.692 75.072V76.576H162.308C160.676 76.576 159.86 77.4613 159.86 79.232V84H158.404V75.232H159.86V76.656ZM165.125 73.808C164.847 73.808 164.613 73.712 164.421 73.52C164.229 73.328 164.133 73.0933 164.133 72.816C164.133 72.5387 164.229 72.304 164.421 72.112C164.613 71.92 164.847 71.824 165.125 71.824C165.391 71.824 165.615 71.92 165.797 72.112C165.989 72.304 166.085 72.5387 166.085 72.816C166.085 73.0933 165.989 73.328 165.797 73.52C165.615 73.712 165.391 73.808 165.125 73.808ZM165.829 75.232V84H164.373V75.232H165.829ZM167.766 79.6C167.766 78.6933 167.947 77.904 168.31 77.232C168.673 76.5493 169.174 76.0213 169.814 75.648C170.465 75.2747 171.206 75.088 172.038 75.088C173.115 75.088 174.001 75.3493 174.694 75.872C175.398 76.3947 175.862 77.12 176.086 78.048H174.518C174.369 77.5147 174.075 77.0933 173.638 76.784C173.211 76.4747 172.678 76.32 172.038 76.32C171.206 76.32 170.534 76.608 170.022 77.184C169.51 77.7493 169.254 78.5547 169.254 79.6C169.254 80.656 169.51 81.472 170.022 82.048C170.534 82.624 171.206 82.912 172.038 82.912C172.678 82.912 173.211 82.7627 173.638 82.464C174.065 82.1653 174.358 81.7387 174.518 81.184H176.086C175.851 82.08 175.382 82.8 174.678 83.344C173.974 83.8773 173.094 84.144 172.038 84.144C171.206 84.144 170.465 83.9573 169.814 83.584C169.174 83.2107 168.673 82.6827 168.31 82C167.947 81.3173 167.766 80.5173 167.766 79.6ZM186.029 79.28C186.029 79.5573 186.013 79.8507 185.981 80.16H178.973C179.026 81.024 179.32 81.7013 179.853 82.192C180.397 82.672 181.053 82.912 181.821 82.912C182.45 82.912 182.973 82.768 183.389 82.48C183.816 82.1813 184.114 81.7867 184.285 81.296H185.853C185.618 82.1387 185.149 82.8267 184.445 83.36C183.741 83.8827 182.866 84.144 181.821 84.144C180.989 84.144 180.242 83.9573 179.581 83.584C178.93 83.2107 178.418 82.6827 178.045 82C177.672 81.3067 177.485 80.5067 177.485 79.6C177.485 78.6933 177.666 77.8987 178.029 77.216C178.392 76.5333 178.898 76.0107 179.549 75.648C180.21 75.2747 180.968 75.088 181.821 75.088C182.653 75.088 183.389 75.2693 184.029 75.632C184.669 75.9947 185.16 76.496 185.501 77.136C185.853 77.7653 186.029 78.48 186.029 79.28ZM184.525 78.976C184.525 78.4213 184.402 77.9467 184.157 77.552C183.912 77.1467 183.576 76.8427 183.149 76.64C182.733 76.4267 182.269 76.32 181.757 76.32C181.021 76.32 180.392 76.5547 179.869 77.024C179.357 77.4933 179.064 78.144 178.989 78.976H184.525ZM196.568 75.072C197.23 75.072 197.827 75.216 198.36 75.504C198.894 75.7813 199.31 76.2027 199.608 76.768C199.918 77.3333 200.072 78.0213 200.072 78.832V84H198.632V79.04C198.632 78.1653 198.414 77.4987 197.976 77.04C197.539 76.5707 196.942 76.336 196.184 76.336C195.416 76.336 194.803 76.576 194.344 77.056C193.896 77.536 193.672 78.2347 193.672 79.152V84H192.216V72.16H193.672V76.48C193.96 76.032 194.355 75.6853 194.856 75.44C195.368 75.1947 195.939 75.072 196.568 75.072ZM203.203 73.808C202.925 73.808 202.691 73.712 202.499 73.52C202.307 73.328 202.211 73.0933 202.211 72.816C202.211 72.5387 202.307 72.304 202.499 72.112C202.691 71.92 202.925 71.824 203.203 71.824C203.469 71.824 203.693 71.92 203.875 72.112C204.067 72.304 204.163 72.5387 204.163 72.816C204.163 73.0933 204.067 73.328 203.875 73.52C203.693 73.712 203.469 73.808 203.203 73.808ZM203.907 75.232V84H202.451V75.232H203.907ZM209.492 84.144C208.82 84.144 208.218 84.032 207.684 83.808C207.151 83.5733 206.73 83.2533 206.42 82.848C206.111 82.432 205.94 81.9573 205.908 81.424H207.412C207.455 81.8613 207.658 82.2187 208.02 82.496C208.394 82.7733 208.879 82.912 209.476 82.912C210.031 82.912 210.468 82.7893 210.788 82.544C211.108 82.2987 211.268 81.9893 211.268 81.616C211.268 81.232 211.098 80.9493 210.756 80.768C210.415 80.576 209.887 80.3893 209.172 80.208C208.522 80.0373 207.988 79.8667 207.572 79.696C207.167 79.5147 206.815 79.2533 206.516 78.912C206.228 78.56 206.084 78.1013 206.084 77.536C206.084 77.088 206.218 76.6773 206.484 76.304C206.751 75.9307 207.13 75.6373 207.62 75.424C208.111 75.2 208.671 75.088 209.3 75.088C210.271 75.088 211.055 75.3333 211.652 75.824C212.25 76.3147 212.57 76.9867 212.612 77.84H211.156C211.124 77.3813 210.938 77.0133 210.596 76.736C210.266 76.4587 209.818 76.32 209.252 76.32C208.73 76.32 208.314 76.432 208.004 76.656C207.695 76.88 207.54 77.1733 207.54 77.536C207.54 77.824 207.631 78.064 207.812 78.256C208.004 78.4373 208.239 78.5867 208.516 78.704C208.804 78.8107 209.199 78.9333 209.7 79.072C210.33 79.2427 210.842 79.4133 211.236 79.584C211.631 79.744 211.967 79.9893 212.244 80.32C212.532 80.6507 212.682 81.0827 212.692 81.616C212.692 82.096 212.559 82.528 212.292 82.912C212.026 83.296 211.647 83.6 211.156 83.824C210.676 84.0373 210.122 84.144 209.492 84.144ZM216.524 76.432V81.6C216.524 82.0267 216.614 82.3307 216.796 82.512C216.977 82.6827 217.292 82.768 217.74 82.768H218.812V84H217.5C216.689 84 216.081 83.8133 215.676 83.44C215.27 83.0667 215.068 82.4533 215.068 81.6V76.432H213.932V75.232H215.068V73.024H216.524V75.232H218.812V76.432H216.524ZM224.4 84.144C223.578 84.144 222.832 83.9573 222.16 83.584C221.498 83.2107 220.976 82.6827 220.592 82C220.218 81.3067 220.032 80.5067 220.032 79.6C220.032 78.704 220.224 77.9147 220.608 77.232C221.002 76.5387 221.536 76.0107 222.208 75.648C222.88 75.2747 223.632 75.088 224.464 75.088C225.296 75.088 226.048 75.2747 226.72 75.648C227.392 76.0107 227.92 76.5333 228.304 77.216C228.698 77.8987 228.896 78.6933 228.896 79.6C228.896 80.5067 228.693 81.3067 228.288 82C227.893 82.6827 227.354 83.2107 226.672 83.584C225.989 83.9573 225.232 84.144 224.4 84.144ZM224.4 82.864C224.922 82.864 225.413 82.7413 225.872 82.496C226.33 82.2507 226.698 81.8827 226.976 81.392C227.264 80.9013 227.408 80.304 227.408 79.6C227.408 78.896 227.269 78.2987 226.992 77.808C226.714 77.3173 226.352 76.9547 225.904 76.72C225.456 76.4747 224.97 76.352 224.448 76.352C223.914 76.352 223.424 76.4747 222.976 76.72C222.538 76.9547 222.186 77.3173 221.92 77.808C221.653 78.2987 221.52 78.896 221.52 79.6C221.52 80.3147 221.648 80.9173 221.904 81.408C222.17 81.8987 222.522 82.2667 222.96 82.512C223.397 82.7467 223.877 82.864 224.4 82.864ZM232.266 76.656C232.522 76.1547 232.885 75.7653 233.354 75.488C233.834 75.2107 234.415 75.072 235.098 75.072V76.576H234.714C233.082 76.576 232.266 77.4613 232.266 79.232V84H230.81V75.232H232.266V76.656ZM244.331 75.232L239.051 88.128H237.547L239.275 83.904L235.739 75.232H237.355L240.107 82.336L242.827 75.232H244.331Z" fill="#B0F1EA"/>
</svg>
