<svg width="346" height="175" viewBox="0 0 346 175" fill="none" xmlns="http://www.w3.org/2000/svg">
<path d="M173.589 172.483C173.283 173.35 172.067 173.38 171.72 172.528L156.562 135.378C156.294 134.72 156.777 134 157.488 134L185.763 134C186.453 134 186.936 134.682 186.706 135.333L173.589 172.483Z" fill="#2E4F72"/>
<path d="M0 40C0 17.9086 17.9086 0 40 0H306C328.091 0 346 17.9086 346 40V94C346 116.091 328.091 134 306 134H40C17.9086 134 0 116.091 0 94V40Z" fill="#2E4F72"/>
<path d="M51.8105 52.1016H55.7145V53.2856H50.3545V42.1336H51.8105V52.1016ZM61.0847 53.4296C60.2634 53.4296 59.5167 53.243 58.8447 52.8696C58.1834 52.4963 57.6607 51.9683 57.2767 51.2856C56.9034 50.5923 56.7167 49.7923 56.7167 48.8856C56.7167 47.9896 56.9087 47.2003 57.2927 46.5176C57.6874 45.8243 58.2207 45.2963 58.8927 44.9336C59.5647 44.5603 60.3167 44.3736 61.1487 44.3736C61.9807 44.3736 62.7327 44.5603 63.4047 44.9336C64.0767 45.2963 64.6047 45.819 64.9887 46.5016C65.3834 47.1843 65.5807 47.979 65.5807 48.8856C65.5807 49.7923 65.378 50.5923 64.9727 51.2856C64.578 51.9683 64.0394 52.4963 63.3567 52.8696C62.674 53.243 61.9167 53.4296 61.0847 53.4296ZM61.0847 52.1496C61.6074 52.1496 62.098 52.027 62.5567 51.7816C63.0154 51.5363 63.3834 51.1683 63.6607 50.6776C63.9487 50.187 64.0927 49.5896 64.0927 48.8856C64.0927 48.1816 63.954 47.5843 63.6767 47.0936C63.3994 46.603 63.0367 46.2403 62.5887 46.0056C62.1407 45.7603 61.6554 45.6376 61.1327 45.6376C60.5994 45.6376 60.1087 45.7603 59.6607 46.0056C59.2234 46.2403 58.8714 46.603 58.6047 47.0936C58.338 47.5843 58.2047 48.1816 58.2047 48.8856C58.2047 49.6003 58.3327 50.203 58.5887 50.6936C58.8554 51.1843 59.2074 51.5523 59.6447 51.7976C60.082 52.0323 60.562 52.1496 61.0847 52.1496ZM71.3191 53.4296C70.4977 53.4296 69.7511 53.243 69.0791 52.8696C68.4177 52.4963 67.8951 51.9683 67.5111 51.2856C67.1377 50.5923 66.9511 49.7923 66.9511 48.8856C66.9511 47.9896 67.1431 47.2003 67.5271 46.5176C67.9217 45.8243 68.4551 45.2963 69.1271 44.9336C69.7991 44.5603 70.5511 44.3736 71.3831 44.3736C72.2151 44.3736 72.9671 44.5603 73.6391 44.9336C74.3111 45.2963 74.8391 45.819 75.2231 46.5016C75.6177 47.1843 75.8151 47.979 75.8151 48.8856C75.8151 49.7923 75.6124 50.5923 75.2071 51.2856C74.8124 51.9683 74.2737 52.4963 73.5911 52.8696C72.9084 53.243 72.1511 53.4296 71.3191 53.4296ZM71.3191 52.1496C71.8417 52.1496 72.3324 52.027 72.7911 51.7816C73.2497 51.5363 73.6177 51.1683 73.8951 50.6776C74.1831 50.187 74.3271 49.5896 74.3271 48.8856C74.3271 48.1816 74.1884 47.5843 73.9111 47.0936C73.6337 46.603 73.2711 46.2403 72.8231 46.0056C72.3751 45.7603 71.8897 45.6376 71.3671 45.6376C70.8337 45.6376 70.3431 45.7603 69.8951 46.0056C69.4577 46.2403 69.1057 46.603 68.8391 47.0936C68.5724 47.5843 68.4391 48.1816 68.4391 48.8856C68.4391 49.6003 68.5671 50.203 68.8231 50.6936C69.0897 51.1843 69.4417 51.5523 69.8791 51.7976C70.3164 52.0323 70.7964 52.1496 71.3191 52.1496ZM82.6255 53.2856L79.1855 49.4136V53.2856H77.7295V41.4456H79.1855V48.4056L82.5615 44.5176H84.5935L80.4655 48.8856L84.6095 53.2856H82.6255ZM89.6855 48.8696C89.6855 47.9736 89.8668 47.1896 90.2295 46.5176C90.5921 45.835 91.0881 45.307 91.7175 44.9336C92.3575 44.5603 93.0668 44.3736 93.8455 44.3736C94.6135 44.3736 95.2801 44.539 95.8455 44.8696C96.4108 45.2003 96.8321 45.6163 97.1095 46.1176V44.5176H98.5815V53.2856H97.1095V51.6536C96.8215 52.1656 96.3895 52.5923 95.8135 52.9336C95.2481 53.2643 94.5868 53.4296 93.8295 53.4296C93.0508 53.4296 92.3468 53.2376 91.7175 52.8536C91.0881 52.4696 90.5921 51.931 90.2295 51.2376C89.8668 50.5443 89.6855 49.755 89.6855 48.8696ZM97.1095 48.8856C97.1095 48.2243 96.9761 47.6483 96.7095 47.1576C96.4428 46.667 96.0801 46.2936 95.6215 46.0376C95.1735 45.771 94.6775 45.6376 94.1335 45.6376C93.5895 45.6376 93.0935 45.7656 92.6455 46.0216C92.1975 46.2776 91.8401 46.651 91.5735 47.1416C91.3068 47.6323 91.1735 48.2083 91.1735 48.8696C91.1735 49.5416 91.3068 50.1283 91.5735 50.6296C91.8401 51.1203 92.1975 51.499 92.6455 51.7656C93.0935 52.0216 93.5895 52.1496 94.1335 52.1496C94.6775 52.1496 95.1735 52.0216 95.6215 51.7656C96.0801 51.499 96.4428 51.1203 96.7095 50.6296C96.9761 50.1283 97.1095 49.547 97.1095 48.8856ZM102.818 45.7176V50.8856C102.818 51.3123 102.909 51.6163 103.09 51.7976C103.271 51.9683 103.586 52.0536 104.034 52.0536H105.106V53.2856H103.794C102.983 53.2856 102.375 53.099 101.97 52.7256C101.565 52.3523 101.362 51.739 101.362 50.8856V45.7176H100.226V44.5176H101.362V42.3096H102.818V44.5176H105.106V45.7176H102.818ZM112.912 45.7176V50.8856C112.912 51.3123 113.002 51.6163 113.184 51.7976C113.365 51.9683 113.68 52.0536 114.128 52.0536H115.2V53.2856H113.888C113.077 53.2856 112.469 53.099 112.064 52.7256C111.658 52.3523 111.456 51.739 111.456 50.8856V45.7176H110.32V44.5176H111.456V42.3096H112.912V44.5176H115.2V45.7176H112.912ZM121.316 44.3576C121.977 44.3576 122.574 44.5016 123.108 44.7896C123.641 45.067 124.057 45.4883 124.356 46.0536C124.665 46.619 124.82 47.307 124.82 48.1176V53.2856H123.38V48.3256C123.38 47.451 123.161 46.7843 122.724 46.3256C122.286 45.8563 121.689 45.6216 120.932 45.6216C120.164 45.6216 119.55 45.8616 119.092 46.3416C118.644 46.8216 118.42 47.5203 118.42 48.4376V53.2856H116.964V41.4456H118.42V45.7656C118.708 45.3176 119.102 44.971 119.604 44.7256C120.116 44.4803 120.686 44.3576 121.316 44.3576ZM135.198 48.5656C135.198 48.843 135.182 49.1363 135.15 49.4456H128.142C128.196 50.3096 128.489 50.987 129.022 51.4776C129.566 51.9576 130.222 52.1976 130.99 52.1976C131.62 52.1976 132.142 52.0536 132.558 51.7656C132.985 51.467 133.284 51.0723 133.454 50.5816H135.022C134.788 51.4243 134.318 52.1123 133.614 52.6456C132.91 53.1683 132.036 53.4296 130.99 53.4296C130.158 53.4296 129.412 53.243 128.75 52.8696C128.1 52.4963 127.588 51.9683 127.214 51.2856C126.841 50.5923 126.654 49.7923 126.654 48.8856C126.654 47.979 126.836 47.1843 127.198 46.5016C127.561 45.819 128.068 45.2963 128.718 44.9336C129.38 44.5603 130.137 44.3736 130.99 44.3736C131.822 44.3736 132.558 44.555 133.198 44.9176C133.838 45.2803 134.329 45.7816 134.67 46.4216C135.022 47.051 135.198 47.7656 135.198 48.5656ZM133.694 48.2616C133.694 47.707 133.572 47.2323 133.326 46.8376C133.081 46.4323 132.745 46.1283 132.318 45.9256C131.902 45.7123 131.438 45.6056 130.926 45.6056C130.19 45.6056 129.561 45.8403 129.038 46.3096C128.526 46.779 128.233 47.4296 128.158 48.2616H133.694ZM153.066 44.5176L150.33 53.2856H148.826L146.714 46.3256L144.602 53.2856H143.098L140.346 44.5176H141.834L143.85 51.8776L146.026 44.5176H147.514L149.642 51.8936L151.626 44.5176H153.066ZM162.511 48.5656C162.511 48.843 162.495 49.1363 162.463 49.4456H155.455C155.508 50.3096 155.801 50.987 156.335 51.4776C156.879 51.9576 157.535 52.1976 158.303 52.1976C158.932 52.1976 159.455 52.0536 159.871 51.7656C160.297 51.467 160.596 51.0723 160.767 50.5816H162.335C162.1 51.4243 161.631 52.1123 160.927 52.6456C160.223 53.1683 159.348 53.4296 158.303 53.4296C157.471 53.4296 156.724 53.243 156.063 52.8696C155.412 52.4963 154.9 51.9683 154.527 51.2856C154.153 50.5923 153.967 49.7923 153.967 48.8856C153.967 47.979 154.148 47.1843 154.511 46.5016C154.873 45.819 155.38 45.2963 156.031 44.9336C156.692 44.5603 157.449 44.3736 158.303 44.3736C159.135 44.3736 159.871 44.555 160.511 44.9176C161.151 45.2803 161.641 45.7816 161.983 46.4216C162.335 47.051 162.511 47.7656 162.511 48.5656ZM161.007 48.2616C161.007 47.707 160.884 47.2323 160.639 46.8376C160.393 46.4323 160.057 46.1283 159.631 45.9256C159.215 45.7123 158.751 45.6056 158.239 45.6056C157.503 45.6056 156.873 45.8403 156.351 46.3096C155.839 46.779 155.545 47.4296 155.471 48.2616H161.007ZM163.889 48.8696C163.889 47.9736 164.07 47.1896 164.433 46.5176C164.795 45.835 165.291 45.307 165.921 44.9336C166.561 44.5603 167.27 44.3736 168.049 44.3736C168.817 44.3736 169.483 44.539 170.049 44.8696C170.614 45.2003 171.035 45.6163 171.313 46.1176V44.5176H172.785V53.2856H171.313V51.6536C171.025 52.1656 170.593 52.5923 170.017 52.9336C169.451 53.2643 168.79 53.4296 168.033 53.4296C167.254 53.4296 166.55 53.2376 165.921 52.8536C165.291 52.4696 164.795 51.931 164.433 51.2376C164.07 50.5443 163.889 49.755 163.889 48.8696ZM171.313 48.8856C171.313 48.2243 171.179 47.6483 170.913 47.1576C170.646 46.667 170.283 46.2936 169.825 46.0376C169.377 45.771 168.881 45.6376 168.337 45.6376C167.793 45.6376 167.297 45.7656 166.849 46.0216C166.401 46.2776 166.043 46.651 165.777 47.1416C165.51 47.6323 165.377 48.2083 165.377 48.8696C165.377 49.5416 165.51 50.1283 165.777 50.6296C166.043 51.1203 166.401 51.499 166.849 51.7656C167.297 52.0216 167.793 52.1496 168.337 52.1496C168.881 52.1496 169.377 52.0216 169.825 51.7656C170.283 51.499 170.646 51.1203 170.913 50.6296C171.179 50.1283 171.313 49.547 171.313 48.8856ZM177.021 45.7176V50.8856C177.021 51.3123 177.112 51.6163 177.293 51.7976C177.474 51.9683 177.789 52.0536 178.237 52.0536H179.309V53.2856H177.997C177.186 53.2856 176.578 53.099 176.173 52.7256C175.768 52.3523 175.565 51.739 175.565 50.8856V45.7176H174.429V44.5176H175.565V42.3096H177.021V44.5176H179.309V45.7176H177.021ZM185.425 44.3576C186.087 44.3576 186.684 44.5016 187.217 44.7896C187.751 45.067 188.167 45.4883 188.465 46.0536C188.775 46.619 188.929 47.307 188.929 48.1176V53.2856H187.489V48.3256C187.489 47.451 187.271 46.7843 186.833 46.3256C186.396 45.8563 185.799 45.6216 185.041 45.6216C184.273 45.6216 183.66 45.8616 183.201 46.3416C182.753 46.8216 182.529 47.5203 182.529 48.4376V53.2856H181.073V41.4456H182.529V45.7656C182.817 45.3176 183.212 44.971 183.713 44.7256C184.225 44.4803 184.796 44.3576 185.425 44.3576ZM199.308 48.5656C199.308 48.843 199.292 49.1363 199.26 49.4456H192.252C192.305 50.3096 192.598 50.987 193.132 51.4776C193.676 51.9576 194.332 52.1976 195.1 52.1976C195.729 52.1976 196.252 52.0536 196.668 51.7656C197.094 51.467 197.393 51.0723 197.564 50.5816H199.132C198.897 51.4243 198.428 52.1123 197.724 52.6456C197.02 53.1683 196.145 53.4296 195.1 53.4296C194.268 53.4296 193.521 53.243 192.86 52.8696C192.209 52.4963 191.697 51.9683 191.324 51.2856C190.95 50.5923 190.764 49.7923 190.764 48.8856C190.764 47.979 190.945 47.1843 191.308 46.5016C191.67 45.819 192.177 45.2963 192.828 44.9336C193.489 44.5603 194.246 44.3736 195.1 44.3736C195.932 44.3736 196.668 44.555 197.308 44.9176C197.948 45.2803 198.438 45.7816 198.78 46.4216C199.132 47.051 199.308 47.7656 199.308 48.5656ZM197.804 48.2616C197.804 47.707 197.681 47.2323 197.436 46.8376C197.19 46.4323 196.854 46.1283 196.428 45.9256C196.012 45.7123 195.548 45.6056 195.036 45.6056C194.3 45.6056 193.67 45.8403 193.148 46.3096C192.636 46.779 192.342 47.4296 192.268 48.2616H197.804ZM202.685 45.9416C202.941 45.4403 203.304 45.051 203.773 44.7736C204.253 44.4963 204.835 44.3576 205.517 44.3576V45.8616H205.133C203.501 45.8616 202.685 46.747 202.685 48.5176V53.2856H201.229V44.5176H202.685V45.9416ZM212.92 46.1336C213.208 45.6323 213.634 45.2163 214.2 44.8856C214.776 44.5443 215.442 44.3736 216.2 44.3736C216.978 44.3736 217.682 44.5603 218.312 44.9336C218.952 45.307 219.453 45.835 219.816 46.5176C220.178 47.1896 220.36 47.9736 220.36 48.8696C220.36 49.755 220.178 50.5443 219.816 51.2376C219.453 51.931 218.952 52.4696 218.312 52.8536C217.682 53.2376 216.978 53.4296 216.2 53.4296C215.453 53.4296 214.792 53.2643 214.216 52.9336C213.65 52.5923 213.218 52.171 212.92 51.6696V57.4456H211.464V44.5176H212.92V46.1336ZM218.872 48.8696C218.872 48.2083 218.738 47.6323 218.472 47.1416C218.205 46.651 217.842 46.2776 217.384 46.0216C216.936 45.7656 216.44 45.6376 215.896 45.6376C215.362 45.6376 214.866 45.771 214.408 46.0376C213.96 46.2936 213.597 46.6723 213.32 47.1736C213.053 47.6643 212.92 48.235 212.92 48.8856C212.92 49.547 213.053 50.1283 213.32 50.6296C213.597 51.1203 213.96 51.499 214.408 51.7656C214.866 52.0216 215.362 52.1496 215.896 52.1496C216.44 52.1496 216.936 52.0216 217.384 51.7656C217.842 51.499 218.205 51.1203 218.472 50.6296C218.738 50.1283 218.872 49.5416 218.872 48.8696ZM223.732 45.9416C223.988 45.4403 224.351 45.051 224.82 44.7736C225.3 44.4963 225.882 44.3576 226.564 44.3576V45.8616H226.18C224.548 45.8616 223.732 46.747 223.732 48.5176V53.2856H222.276V44.5176H223.732V45.9416ZM236.245 48.5656C236.245 48.843 236.229 49.1363 236.197 49.4456H229.189C229.242 50.3096 229.536 50.987 230.069 51.4776C230.613 51.9576 231.269 52.1976 232.037 52.1976C232.666 52.1976 233.189 52.0536 233.605 51.7656C234.032 51.467 234.33 51.0723 234.501 50.5816H236.069C235.834 51.4243 235.365 52.1123 234.661 52.6456C233.957 53.1683 233.082 53.4296 232.037 53.4296C231.205 53.4296 230.458 53.243 229.797 52.8696C229.146 52.4963 228.634 51.9683 228.261 51.2856C227.888 50.5923 227.701 49.7923 227.701 48.8856C227.701 47.979 227.882 47.1843 228.245 46.5016C228.608 45.819 229.114 45.2963 229.765 44.9336C230.426 44.5603 231.184 44.3736 232.037 44.3736C232.869 44.3736 233.605 44.555 234.245 44.9176C234.885 45.2803 235.376 45.7816 235.717 46.4216C236.069 47.051 236.245 47.7656 236.245 48.5656ZM234.741 48.2616C234.741 47.707 234.618 47.2323 234.373 46.8376C234.128 46.4323 233.792 46.1283 233.365 45.9256C232.949 45.7123 232.485 45.6056 231.973 45.6056C231.237 45.6056 230.608 45.8403 230.085 46.3096C229.573 46.779 229.28 47.4296 229.205 48.2616H234.741ZM237.623 48.8696C237.623 47.9736 237.804 47.1896 238.167 46.5176C238.53 45.835 239.026 45.307 239.655 44.9336C240.295 44.5603 241.01 44.3736 241.799 44.3736C242.482 44.3736 243.116 44.5336 243.703 44.8536C244.29 45.163 244.738 45.5736 245.047 46.0856V41.4456H246.519V53.2856H245.047V51.6376C244.759 52.1603 244.332 52.5923 243.767 52.9336C243.202 53.2643 242.54 53.4296 241.783 53.4296C241.004 53.4296 240.295 53.2376 239.655 52.8536C239.026 52.4696 238.53 51.931 238.167 51.2376C237.804 50.5443 237.623 49.755 237.623 48.8696ZM245.047 48.8856C245.047 48.2243 244.914 47.6483 244.647 47.1576C244.38 46.667 244.018 46.2936 243.559 46.0376C243.111 45.771 242.615 45.6376 242.071 45.6376C241.527 45.6376 241.031 45.7656 240.583 46.0216C240.135 46.2776 239.778 46.651 239.511 47.1416C239.244 47.6323 239.111 48.2083 239.111 48.8696C239.111 49.5416 239.244 50.1283 239.511 50.6296C239.778 51.1203 240.135 51.499 240.583 51.7656C241.031 52.0216 241.527 52.1496 242.071 52.1496C242.615 52.1496 243.111 52.0216 243.559 51.7656C244.018 51.499 244.38 51.1203 244.647 50.6296C244.914 50.1283 245.047 49.547 245.047 48.8856ZM249.731 43.0936C249.454 43.0936 249.219 42.9976 249.027 42.8056C248.835 42.6136 248.739 42.379 248.739 42.1016C248.739 41.8243 248.835 41.5896 249.027 41.3976C249.219 41.2056 249.454 41.1096 249.731 41.1096C249.998 41.1096 250.222 41.2056 250.403 41.3976C250.595 41.5896 250.691 41.8243 250.691 42.1016C250.691 42.379 250.595 42.6136 250.403 42.8056C250.222 42.9976 249.998 43.0936 249.731 43.0936ZM250.435 44.5176V53.2856H248.979V44.5176H250.435ZM252.373 48.8856C252.373 47.979 252.554 47.1896 252.917 46.5176C253.28 45.835 253.781 45.307 254.421 44.9336C255.072 44.5603 255.813 44.3736 256.645 44.3736C257.722 44.3736 258.608 44.635 259.301 45.1576C260.005 45.6803 260.469 46.4056 260.693 47.3336H259.125C258.976 46.8003 258.682 46.379 258.245 46.0696C257.818 45.7603 257.285 45.6056 256.645 45.6056C255.813 45.6056 255.141 45.8936 254.629 46.4696C254.117 47.035 253.861 47.8403 253.861 48.8856C253.861 49.9416 254.117 50.7576 254.629 51.3336C255.141 51.9096 255.813 52.1976 256.645 52.1976C257.285 52.1976 257.818 52.0483 258.245 51.7496C258.672 51.451 258.965 51.0243 259.125 50.4696H260.693C260.458 51.3656 259.989 52.0856 259.285 52.6296C258.581 53.163 257.701 53.4296 256.645 53.4296C255.813 53.4296 255.072 53.243 254.421 52.8696C253.781 52.4963 253.28 51.9683 252.917 51.2856C252.554 50.603 252.373 49.803 252.373 48.8856ZM264.412 45.7176V50.8856C264.412 51.3123 264.502 51.6163 264.684 51.7976C264.865 51.9683 265.18 52.0536 265.628 52.0536H266.7V53.2856H265.388C264.577 53.2856 263.969 53.099 263.564 52.7256C263.158 52.3523 262.956 51.739 262.956 50.8856V45.7176H261.82V44.5176H262.956V42.3096H264.412V44.5176H266.7V45.7176H264.412ZM269.216 43.0936C268.938 43.0936 268.704 42.9976 268.512 42.8056C268.32 42.6136 268.224 42.379 268.224 42.1016C268.224 41.8243 268.32 41.5896 268.512 41.3976C268.704 41.2056 268.938 41.1096 269.216 41.1096C269.482 41.1096 269.706 41.2056 269.888 41.3976C270.08 41.5896 270.176 41.8243 270.176 42.1016C270.176 42.379 270.08 42.6136 269.888 42.8056C269.706 42.9976 269.482 43.0936 269.216 43.0936ZM269.92 44.5176V53.2856H268.464V44.5176H269.92ZM276.225 53.4296C275.404 53.4296 274.657 53.243 273.985 52.8696C273.324 52.4963 272.801 51.9683 272.417 51.2856C272.044 50.5923 271.857 49.7923 271.857 48.8856C271.857 47.9896 272.049 47.2003 272.433 46.5176C272.828 45.8243 273.361 45.2963 274.033 44.9336C274.705 44.5603 275.457 44.3736 276.289 44.3736C277.121 44.3736 277.873 44.5603 278.545 44.9336C279.217 45.2963 279.745 45.819 280.129 46.5016C280.524 47.1843 280.721 47.979 280.721 48.8856C280.721 49.7923 280.519 50.5923 280.113 51.2856C279.719 51.9683 279.18 52.4963 278.497 52.8696C277.815 53.243 277.057 53.4296 276.225 53.4296ZM276.225 52.1496C276.748 52.1496 277.239 52.027 277.697 51.7816C278.156 51.5363 278.524 51.1683 278.801 50.6776C279.089 50.187 279.233 49.5896 279.233 48.8856C279.233 48.1816 279.095 47.5843 278.817 47.0936C278.54 46.603 278.177 46.2403 277.729 46.0056C277.281 45.7603 276.796 45.6376 276.273 45.6376C275.74 45.6376 275.249 45.7603 274.801 46.0056C274.364 46.2403 274.012 46.603 273.745 47.0936C273.479 47.5843 273.345 48.1816 273.345 48.8856C273.345 49.6003 273.473 50.203 273.729 50.6936C273.996 51.1843 274.348 51.5523 274.785 51.7976C275.223 52.0323 275.703 52.1496 276.225 52.1496ZM286.908 44.3576C287.974 44.3576 288.838 44.683 289.5 45.3336C290.161 45.9736 290.492 46.9016 290.492 48.1176V53.2856H289.052V48.3256C289.052 47.451 288.833 46.7843 288.396 46.3256C287.958 45.8563 287.361 45.6216 286.604 45.6216C285.836 45.6216 285.222 45.8616 284.764 46.3416C284.316 46.8216 284.092 47.5203 284.092 48.4376V53.2856H282.636V44.5176H284.092V45.7656C284.38 45.3176 284.769 44.971 285.26 44.7256C285.761 44.4803 286.31 44.3576 286.908 44.3576ZM55.2662 63.7176H53.4262V71.2856H51.9702V63.7176H50.8342V62.5176H51.9702V61.8936C51.9702 60.9123 52.2209 60.1976 52.7222 59.7496C53.2342 59.291 54.0502 59.0616 55.1702 59.0616V60.2776C54.5302 60.2776 54.0769 60.4056 53.8102 60.6616C53.5542 60.907 53.4262 61.3176 53.4262 61.8936V62.5176H55.2662V63.7176ZM60.7878 71.4296C59.9665 71.4296 59.2198 71.243 58.5478 70.8696C57.8865 70.4963 57.3638 69.9683 56.9798 69.2856C56.6065 68.5923 56.4198 67.7923 56.4198 66.8856C56.4198 65.9896 56.6118 65.2003 56.9958 64.5176C57.3905 63.8243 57.9238 63.2963 58.5958 62.9336C59.2678 62.5603 60.0198 62.3736 60.8518 62.3736C61.6838 62.3736 62.4358 62.5603 63.1078 62.9336C63.7798 63.2963 64.3078 63.819 64.6918 64.5016C65.0865 65.1843 65.2838 65.979 65.2838 66.8856C65.2838 67.7923 65.0812 68.5923 64.6758 69.2856C64.2812 69.9683 63.7425 70.4963 63.0598 70.8696C62.3772 71.243 61.6198 71.4296 60.7878 71.4296ZM60.7878 70.1496C61.3105 70.1496 61.8012 70.027 62.2598 69.7816C62.7185 69.5363 63.0865 69.1683 63.3638 68.6776C63.6518 68.187 63.7958 67.5896 63.7958 66.8856C63.7958 66.1816 63.6572 65.5843 63.3798 65.0936C63.1025 64.603 62.7398 64.2403 62.2918 64.0056C61.8438 63.7603 61.3585 63.6376 60.8358 63.6376C60.3025 63.6376 59.8118 63.7603 59.3638 64.0056C58.9265 64.2403 58.5745 64.603 58.3078 65.0936C58.0412 65.5843 57.9078 66.1816 57.9078 66.8856C57.9078 67.6003 58.0358 68.203 58.2918 68.6936C58.5585 69.1843 58.9105 69.5523 59.3478 69.7976C59.7852 70.0323 60.2652 70.1496 60.7878 70.1496ZM68.6542 63.9416C68.9102 63.4403 69.2729 63.051 69.7422 62.7736C70.2222 62.4963 70.8035 62.3576 71.4862 62.3576V63.8616H71.1022C69.4702 63.8616 68.6542 64.747 68.6542 66.5176V71.2856H67.1982V62.5176H68.6542V63.9416ZM79.2086 63.7176V68.8856C79.2086 69.3123 79.2992 69.6163 79.4806 69.7976C79.6619 69.9683 79.9766 70.0536 80.4246 70.0536H81.4966V71.2856H80.1846C79.3739 71.2856 78.7659 71.099 78.3606 70.7256C77.9552 70.3523 77.7526 69.739 77.7526 68.8856V63.7176H76.6166V62.5176H77.7526V60.3096H79.2086V62.5176H81.4966V63.7176H79.2086ZM87.6127 62.3576C88.274 62.3576 88.8714 62.5016 89.4047 62.7896C89.938 63.067 90.354 63.4883 90.6527 64.0536C90.962 64.619 91.1167 65.307 91.1167 66.1176V71.2856H89.6767V66.3256C89.6767 65.451 89.458 64.7843 89.0207 64.3256C88.5834 63.8563 87.986 63.6216 87.2287 63.6216C86.4607 63.6216 85.8474 63.8616 85.3887 64.3416C84.9407 64.8216 84.7167 65.5203 84.7167 66.4376V71.2856H83.2607V59.4456H84.7167V63.7656C85.0047 63.3176 85.3994 62.971 85.9007 62.7256C86.4127 62.4803 86.9834 62.3576 87.6127 62.3576ZM101.495 66.5656C101.495 66.843 101.479 67.1363 101.447 67.4456H94.4391C94.4924 68.3096 94.7857 68.987 95.3191 69.4776C95.8631 69.9576 96.5191 70.1976 97.2871 70.1976C97.9164 70.1976 98.4391 70.0536 98.8551 69.7656C99.2817 69.467 99.5804 69.0723 99.7511 68.5816H101.319C101.084 69.4243 100.615 70.1123 99.9111 70.6456C99.2071 71.1683 98.3324 71.4296 97.2871 71.4296C96.4551 71.4296 95.7084 71.243 95.0471 70.8696C94.3964 70.4963 93.8844 69.9683 93.5111 69.2856C93.1377 68.5923 92.9511 67.7923 92.9511 66.8856C92.9511 65.979 93.1324 65.1843 93.4951 64.5016C93.8577 63.819 94.3644 63.2963 95.0151 62.9336C95.6764 62.5603 96.4337 62.3736 97.2871 62.3736C98.1191 62.3736 98.8551 62.555 99.4951 62.9176C100.135 63.2803 100.626 63.7816 100.967 64.4216C101.319 65.051 101.495 65.7656 101.495 66.5656ZM99.9911 66.2616C99.9911 65.707 99.8684 65.2323 99.6231 64.8376C99.3777 64.4323 99.0417 64.1283 98.6151 63.9256C98.1991 63.7123 97.7351 63.6056 97.2231 63.6056C96.4871 63.6056 95.8577 63.8403 95.3351 64.3096C94.8231 64.779 94.5297 65.4296 94.4551 66.2616H99.9911ZM111.955 62.3576C113.021 62.3576 113.885 62.683 114.547 63.3336C115.208 63.9736 115.539 64.9016 115.539 66.1176V71.2856H114.099V66.3256C114.099 65.451 113.88 64.7843 113.443 64.3256C113.005 63.8563 112.408 63.6216 111.651 63.6216C110.883 63.6216 110.269 63.8616 109.811 64.3416C109.363 64.8216 109.139 65.5203 109.139 66.4376V71.2856H107.683V62.5176H109.139V63.7656C109.427 63.3176 109.816 62.971 110.307 62.7256C110.808 62.4803 111.357 62.3576 111.955 62.3576ZM125.917 66.5656C125.917 66.843 125.901 67.1363 125.869 67.4456H118.861C118.914 68.3096 119.208 68.987 119.741 69.4776C120.285 69.9576 120.941 70.1976 121.709 70.1976C122.338 70.1976 122.861 70.0536 123.277 69.7656C123.704 69.467 124.002 69.0723 124.173 68.5816H125.741C125.506 69.4243 125.037 70.1123 124.333 70.6456C123.629 71.1683 122.754 71.4296 121.709 71.4296C120.877 71.4296 120.13 71.243 119.469 70.8696C118.818 70.4963 118.306 69.9683 117.933 69.2856C117.56 68.5923 117.373 67.7923 117.373 66.8856C117.373 65.979 117.554 65.1843 117.917 64.5016C118.28 63.819 118.786 63.2963 119.437 62.9336C120.098 62.5603 120.856 62.3736 121.709 62.3736C122.541 62.3736 123.277 62.555 123.917 62.9176C124.557 63.2803 125.048 63.7816 125.389 64.4216C125.741 65.051 125.917 65.7656 125.917 66.5656ZM124.413 66.2616C124.413 65.707 124.29 65.2323 124.045 64.8376C123.8 64.4323 123.464 64.1283 123.037 63.9256C122.621 63.7123 122.157 63.6056 121.645 63.6056C120.909 63.6056 120.28 63.8403 119.757 64.3096C119.245 64.779 118.952 65.4296 118.877 66.2616H124.413ZM132.415 71.2856L130.335 68.0216L128.335 71.2856H126.815L129.647 66.9336L126.815 62.5176H128.463L130.543 65.7656L132.527 62.5176H134.047L131.231 66.8536L134.063 71.2856H132.415ZM137.271 63.7176V68.8856C137.271 69.3123 137.362 69.6163 137.543 69.7976C137.724 69.9683 138.039 70.0536 138.487 70.0536H139.559V71.2856H138.247C137.436 71.2856 136.828 71.099 136.423 70.7256C136.018 70.3523 135.815 69.739 135.815 68.8856V63.7176H134.679V62.5176H135.815V60.3096H137.271V62.5176H139.559V63.7176H137.271ZM145.317 62.6296C145.391 61.6483 145.77 60.8803 146.453 60.3256C147.135 59.771 148.021 59.4936 149.109 59.4936C149.834 59.4936 150.458 59.627 150.981 59.8936C151.514 60.1496 151.914 60.5016 152.181 60.9496C152.458 61.3976 152.597 61.9043 152.597 62.4696C152.597 63.131 152.405 63.7016 152.021 64.1816C151.647 64.6616 151.157 64.971 150.549 65.1096V65.1896C151.242 65.3603 151.791 65.6963 152.197 66.1976C152.602 66.699 152.805 67.355 152.805 68.1656C152.805 68.7736 152.666 69.323 152.389 69.8136C152.111 70.2936 151.695 70.6723 151.141 70.9496C150.586 71.227 149.919 71.3656 149.141 71.3656C148.01 71.3656 147.082 71.0723 146.357 70.4856C145.631 69.8883 145.226 69.0456 145.141 67.9576H146.549C146.623 68.5976 146.885 69.1203 147.333 69.5256C147.781 69.931 148.378 70.1336 149.125 70.1336C149.871 70.1336 150.437 69.9416 150.821 69.5576C151.215 69.163 151.413 68.6563 151.413 68.0376C151.413 67.2376 151.146 66.6616 150.613 66.3096C150.079 65.9576 149.274 65.7816 148.197 65.7816H147.829V64.5656H148.213C149.194 64.555 149.935 64.395 150.437 64.0856C150.938 63.7656 151.189 63.275 151.189 62.6136C151.189 62.0483 151.002 61.595 150.629 61.2536C150.266 60.9123 149.743 60.7416 149.061 60.7416C148.399 60.7416 147.866 60.9123 147.461 61.2536C147.055 61.595 146.815 62.0536 146.741 62.6296H145.317ZM158.732 66.8696C158.732 65.9736 158.914 65.1896 159.276 64.5176C159.639 63.835 160.135 63.307 160.764 62.9336C161.404 62.5603 162.119 62.3736 162.908 62.3736C163.591 62.3736 164.226 62.5336 164.812 62.8536C165.399 63.163 165.847 63.5736 166.156 64.0856V59.4456H167.628V71.2856H166.156V69.6376C165.868 70.1603 165.442 70.5923 164.876 70.9336C164.311 71.2643 163.65 71.4296 162.892 71.4296C162.114 71.4296 161.404 71.2376 160.764 70.8536C160.135 70.4696 159.639 69.931 159.276 69.2376C158.914 68.5443 158.732 67.755 158.732 66.8696ZM166.156 66.8856C166.156 66.2243 166.023 65.6483 165.756 65.1576C165.49 64.667 165.127 64.2936 164.668 64.0376C164.22 63.771 163.724 63.6376 163.18 63.6376C162.636 63.6376 162.14 63.7656 161.692 64.0216C161.244 64.2776 160.887 64.651 160.62 65.1416C160.354 65.6323 160.22 66.2083 160.22 66.8696C160.22 67.5416 160.354 68.1283 160.62 68.6296C160.887 69.1203 161.244 69.499 161.692 69.7656C162.14 70.0216 162.636 70.1496 163.18 70.1496C163.724 70.1496 164.22 70.0216 164.668 69.7656C165.127 69.499 165.49 69.1203 165.756 68.6296C166.023 68.1283 166.156 67.547 166.156 66.8856ZM169.545 66.8696C169.545 65.9736 169.726 65.1896 170.089 64.5176C170.451 63.835 170.947 63.307 171.577 62.9336C172.217 62.5603 172.926 62.3736 173.705 62.3736C174.473 62.3736 175.139 62.539 175.705 62.8696C176.27 63.2003 176.691 63.6163 176.969 64.1176V62.5176H178.441V71.2856H176.969V69.6536C176.681 70.1656 176.249 70.5923 175.673 70.9336C175.107 71.2643 174.446 71.4296 173.689 71.4296C172.91 71.4296 172.206 71.2376 171.577 70.8536C170.947 70.4696 170.451 69.931 170.089 69.2376C169.726 68.5443 169.545 67.755 169.545 66.8696ZM176.969 66.8856C176.969 66.2243 176.835 65.6483 176.569 65.1576C176.302 64.667 175.939 64.2936 175.481 64.0376C175.033 63.771 174.537 63.6376 173.993 63.6376C173.449 63.6376 172.953 63.7656 172.505 64.0216C172.057 64.2776 171.699 64.651 171.433 65.1416C171.166 65.6323 171.033 66.2083 171.033 66.8696C171.033 67.5416 171.166 68.1283 171.433 68.6296C171.699 69.1203 172.057 69.499 172.505 69.7656C172.953 70.0216 173.449 70.1496 173.993 70.1496C174.537 70.1496 175.033 70.0216 175.481 69.7656C175.939 69.499 176.302 69.1203 176.569 68.6296C176.835 68.1283 176.969 67.547 176.969 66.8856ZM188.453 62.5176L183.173 75.4136H181.669L183.397 71.1896L179.861 62.5176H181.477L184.229 69.6216L186.949 62.5176H188.453ZM193.021 71.4296C192.349 71.4296 191.746 71.3176 191.213 71.0936C190.68 70.859 190.258 70.539 189.949 70.1336C189.64 69.7176 189.469 69.243 189.437 68.7096H190.941C190.984 69.147 191.186 69.5043 191.549 69.7816C191.922 70.059 192.408 70.1976 193.005 70.1976C193.56 70.1976 193.997 70.075 194.317 69.8296C194.637 69.5843 194.797 69.275 194.797 68.9016C194.797 68.5176 194.626 68.235 194.285 68.0536C193.944 67.8616 193.416 67.675 192.701 67.4936C192.05 67.323 191.517 67.1523 191.101 66.9816C190.696 66.8003 190.344 66.539 190.045 66.1976C189.757 65.8456 189.613 65.387 189.613 64.8216C189.613 64.3736 189.746 63.963 190.013 63.5896C190.28 63.2163 190.658 62.923 191.149 62.7096C191.64 62.4856 192.2 62.3736 192.829 62.3736C193.8 62.3736 194.584 62.619 195.181 63.1096C195.778 63.6003 196.098 64.2723 196.141 65.1256H194.685C194.653 64.667 194.466 64.299 194.125 64.0216C193.794 63.7443 193.346 63.6056 192.781 63.6056C192.258 63.6056 191.842 63.7176 191.533 63.9416C191.224 64.1656 191.069 64.459 191.069 64.8216C191.069 65.1096 191.16 65.3496 191.341 65.5416C191.533 65.723 191.768 65.8723 192.045 65.9896C192.333 66.0963 192.728 66.219 193.229 66.3576C193.858 66.5283 194.37 66.699 194.765 66.8696C195.16 67.0296 195.496 67.275 195.773 67.6056C196.061 67.9363 196.21 68.3683 196.221 68.9016C196.221 69.3816 196.088 69.8136 195.821 70.1976C195.554 70.5816 195.176 70.8856 194.685 71.1096C194.205 71.323 193.65 71.4296 193.021 71.4296ZM204.318 63.7176V68.8856C204.318 69.3123 204.409 69.6163 204.59 69.7976C204.771 69.9683 205.086 70.0536 205.534 70.0536H206.606V71.2856H205.294C204.483 71.2856 203.875 71.099 203.47 70.7256C203.065 70.3523 202.862 69.739 202.862 68.8856V63.7176H201.726V62.5176H202.862V60.3096H204.318V62.5176H206.606V63.7176H204.318ZM212.194 71.4296C211.373 71.4296 210.626 71.243 209.954 70.8696C209.293 70.4963 208.77 69.9683 208.386 69.2856C208.013 68.5923 207.826 67.7923 207.826 66.8856C207.826 65.9896 208.018 65.2003 208.402 64.5176C208.797 63.8243 209.33 63.2963 210.002 62.9336C210.674 62.5603 211.426 62.3736 212.258 62.3736C213.09 62.3736 213.842 62.5603 214.514 62.9336C215.186 63.2963 215.714 63.819 216.098 64.5016C216.493 65.1843 216.69 65.979 216.69 66.8856C216.69 67.7923 216.487 68.5923 216.082 69.2856C215.687 69.9683 215.149 70.4963 214.466 70.8696C213.783 71.243 213.026 71.4296 212.194 71.4296ZM212.194 70.1496C212.717 70.1496 213.207 70.027 213.666 69.7816C214.125 69.5363 214.493 69.1683 214.77 68.6776C215.058 68.187 215.202 67.5896 215.202 66.8856C215.202 66.1816 215.063 65.5843 214.786 65.0936C214.509 64.603 214.146 64.2403 213.698 64.0056C213.25 63.7603 212.765 63.6376 212.242 63.6376C211.709 63.6376 211.218 63.7603 210.77 64.0056C210.333 64.2403 209.981 64.603 209.714 65.0936C209.447 65.5843 209.314 66.1816 209.314 66.8856C209.314 67.6003 209.442 68.203 209.698 68.6936C209.965 69.1843 210.317 69.5523 210.754 69.7976C211.191 70.0323 211.671 70.1496 212.194 70.1496ZM227.222 62.3576C227.883 62.3576 228.481 62.5016 229.014 62.7896C229.547 63.067 229.963 63.4883 230.262 64.0536C230.571 64.619 230.726 65.307 230.726 66.1176V71.2856H229.286V66.3256C229.286 65.451 229.067 64.7843 228.63 64.3256C228.193 63.8563 227.595 63.6216 226.838 63.6216C226.07 63.6216 225.457 63.8616 224.998 64.3416C224.55 64.8216 224.326 65.5203 224.326 66.4376V71.2856H222.87V59.4456H224.326V63.7656C224.614 63.3176 225.009 62.971 225.51 62.7256C226.022 62.4803 226.593 62.3576 227.222 62.3576ZM241.104 66.5656C241.104 66.843 241.088 67.1363 241.056 67.4456H234.048C234.102 68.3096 234.395 68.987 234.928 69.4776C235.472 69.9576 236.128 70.1976 236.896 70.1976C237.526 70.1976 238.048 70.0536 238.464 69.7656C238.891 69.467 239.19 69.0723 239.36 68.5816H240.928C240.694 69.4243 240.224 70.1123 239.52 70.6456C238.816 71.1683 237.942 71.4296 236.896 71.4296C236.064 71.4296 235.318 71.243 234.656 70.8696C234.006 70.4963 233.494 69.9683 233.12 69.2856C232.747 68.5923 232.56 67.7923 232.56 66.8856C232.56 65.979 232.742 65.1843 233.104 64.5016C233.467 63.819 233.974 63.2963 234.624 62.9336C235.286 62.5603 236.043 62.3736 236.896 62.3736C237.728 62.3736 238.464 62.555 239.104 62.9176C239.744 63.2803 240.235 63.7816 240.576 64.4216C240.928 65.051 241.104 65.7656 241.104 66.5656ZM239.6 66.2616C239.6 65.707 239.478 65.2323 239.232 64.8376C238.987 64.4323 238.651 64.1283 238.224 63.9256C237.808 63.7123 237.344 63.6056 236.832 63.6056C236.096 63.6056 235.467 63.8403 234.944 64.3096C234.432 64.779 234.139 65.4296 234.064 66.2616H239.6ZM244.482 59.4456V71.2856H243.026V59.4456H244.482ZM248.42 64.1336C248.708 63.6323 249.134 63.2163 249.7 62.8856C250.276 62.5443 250.942 62.3736 251.7 62.3736C252.478 62.3736 253.182 62.5603 253.812 62.9336C254.452 63.307 254.953 63.835 255.316 64.5176C255.678 65.1896 255.86 65.9736 255.86 66.8696C255.86 67.755 255.678 68.5443 255.316 69.2376C254.953 69.931 254.452 70.4696 253.812 70.8536C253.182 71.2376 252.478 71.4296 251.7 71.4296C250.953 71.4296 250.292 71.2643 249.716 70.9336C249.15 70.5923 248.718 70.171 248.42 69.6696V75.4456H246.964V62.5176H248.42V64.1336ZM254.372 66.8696C254.372 66.2083 254.238 65.6323 253.972 65.1416C253.705 64.651 253.342 64.2776 252.884 64.0216C252.436 63.7656 251.94 63.6376 251.396 63.6376C250.862 63.6376 250.366 63.771 249.908 64.0376C249.46 64.2936 249.097 64.6723 248.82 65.1736C248.553 65.6643 248.42 66.235 248.42 66.8856C248.42 67.547 248.553 68.1283 248.82 68.6296C249.097 69.1203 249.46 69.499 249.908 69.7656C250.366 70.0216 250.862 70.1496 251.396 70.1496C251.94 70.1496 252.436 70.0216 252.884 69.7656C253.342 69.499 253.705 69.1203 253.972 68.6296C254.238 68.1283 254.372 67.5416 254.372 66.8696ZM269.594 62.5176L264.314 75.4136H262.81L264.538 71.1896L261.002 62.5176H262.618L265.37 69.6216L268.09 62.5176H269.594ZM274.882 71.4296C274.06 71.4296 273.314 71.243 272.642 70.8696C271.98 70.4963 271.458 69.9683 271.074 69.2856C270.7 68.5923 270.514 67.7923 270.514 66.8856C270.514 65.9896 270.706 65.2003 271.09 64.5176C271.484 63.8243 272.018 63.2963 272.69 62.9336C273.362 62.5603 274.114 62.3736 274.946 62.3736C275.778 62.3736 276.53 62.5603 277.202 62.9336C277.874 63.2963 278.402 63.819 278.786 64.5016C279.18 65.1843 279.378 65.979 279.378 66.8856C279.378 67.7923 279.175 68.5923 278.77 69.2856C278.375 69.9683 277.836 70.4963 277.154 70.8696C276.471 71.243 275.714 71.4296 274.882 71.4296ZM274.882 70.1496C275.404 70.1496 275.895 70.027 276.354 69.7816C276.812 69.5363 277.18 69.1683 277.458 68.6776C277.746 68.187 277.89 67.5896 277.89 66.8856C277.89 66.1816 277.751 65.5843 277.474 65.0936C277.196 64.603 276.834 64.2403 276.386 64.0056C275.938 63.7603 275.452 63.6376 274.93 63.6376C274.396 63.6376 273.906 63.7603 273.458 64.0056C273.02 64.2403 272.668 64.603 272.402 65.0936C272.135 65.5843 272.002 66.1816 272.002 66.8856C272.002 67.6003 272.13 68.203 272.386 68.6936C272.652 69.1843 273.004 69.5523 273.442 69.7976C273.879 70.0323 274.359 70.1496 274.882 70.1496ZM289.068 62.5176V71.2856H287.612V69.9896C287.335 70.4376 286.945 70.7896 286.444 71.0456C285.953 71.291 285.409 71.4136 284.812 71.4136C284.129 71.4136 283.516 71.275 282.972 70.9976C282.428 70.7096 281.996 70.283 281.676 69.7176C281.367 69.1523 281.212 68.4643 281.212 67.6536V62.5176H282.652V67.4616C282.652 68.3256 282.871 68.9923 283.308 69.4616C283.745 69.9203 284.343 70.1496 285.1 70.1496C285.879 70.1496 286.492 69.9096 286.94 69.4296C287.388 68.9496 287.612 68.251 287.612 67.3336V62.5176H289.068ZM63.2948 84.8696C63.2948 83.9736 63.4762 83.1896 63.8388 82.5176C64.2015 81.835 64.6975 81.307 65.3268 80.9336C65.9668 80.5603 66.6815 80.3736 67.4708 80.3736C68.1535 80.3736 68.7882 80.5336 69.3748 80.8536C69.9615 81.163 70.4095 81.5736 70.7188 82.0856V77.4456H72.1908V89.2856H70.7188V87.6376C70.4308 88.1603 70.0042 88.5923 69.4388 88.9336C68.8735 89.2643 68.2122 89.4296 67.4548 89.4296C66.6762 89.4296 65.9668 89.2376 65.3268 88.8536C64.6975 88.4696 64.2015 87.931 63.8388 87.2376C63.4762 86.5443 63.2948 85.755 63.2948 84.8696ZM70.7188 84.8856C70.7188 84.2243 70.5855 83.6483 70.3188 83.1576C70.0522 82.667 69.6895 82.2936 69.2308 82.0376C68.7828 81.771 68.2868 81.6376 67.7428 81.6376C67.1988 81.6376 66.7028 81.7656 66.2548 82.0216C65.8068 82.2776 65.4495 82.651 65.1828 83.1416C64.9162 83.6323 64.7828 84.2083 64.7828 84.8696C64.7828 85.5416 64.9162 86.1283 65.1828 86.6296C65.4495 87.1203 65.8068 87.499 66.2548 87.7656C66.7028 88.0216 67.1988 88.1496 67.7428 88.1496C68.2868 88.1496 68.7828 88.0216 69.2308 87.7656C69.6895 87.499 70.0522 87.1203 70.3188 86.6296C70.5855 86.1283 70.7188 85.547 70.7188 84.8856ZM82.6513 84.5656C82.6513 84.843 82.6353 85.1363 82.6033 85.4456H75.5953C75.6487 86.3096 75.942 86.987 76.4753 87.4776C77.0193 87.9576 77.6753 88.1976 78.4433 88.1976C79.0727 88.1976 79.5953 88.0536 80.0113 87.7656C80.438 87.467 80.7367 87.0723 80.9073 86.5816H82.4753C82.2407 87.4243 81.7713 88.1123 81.0673 88.6456C80.3633 89.1683 79.4887 89.4296 78.4433 89.4296C77.6113 89.4296 76.8647 89.243 76.2033 88.8696C75.5527 88.4963 75.0407 87.9683 74.6673 87.2856C74.294 86.5923 74.1073 85.7923 74.1073 84.8856C74.1073 83.979 74.2887 83.1843 74.6513 82.5016C75.014 81.819 75.5207 81.2963 76.1713 80.9336C76.8327 80.5603 77.59 80.3736 78.4433 80.3736C79.2753 80.3736 80.0113 80.555 80.6513 80.9176C81.2913 81.2803 81.782 81.7816 82.1233 82.4216C82.4753 83.051 82.6513 83.7656 82.6513 84.5656ZM81.1473 84.2616C81.1473 83.707 81.0247 83.2323 80.7793 82.8376C80.534 82.4323 80.198 82.1283 79.7713 81.9256C79.3553 81.7123 78.8913 81.6056 78.3793 81.6056C77.6433 81.6056 77.014 81.8403 76.4913 82.3096C75.9793 82.779 75.686 83.4296 75.6113 84.2616H81.1473ZM84.0292 84.8856C84.0292 83.979 84.2105 83.1896 84.5732 82.5176C84.9359 81.835 85.4372 81.307 86.0772 80.9336C86.7279 80.5603 87.4692 80.3736 88.3012 80.3736C89.3785 80.3736 90.2639 80.635 90.9572 81.1576C91.6612 81.6803 92.1252 82.4056 92.3492 83.3336H90.7812C90.6319 82.8003 90.3385 82.379 89.9012 82.0696C89.4745 81.7603 88.9412 81.6056 88.3012 81.6056C87.4692 81.6056 86.7972 81.8936 86.2852 82.4696C85.7732 83.035 85.5172 83.8403 85.5172 84.8856C85.5172 85.9416 85.7732 86.7576 86.2852 87.3336C86.7972 87.9096 87.4692 88.1976 88.3012 88.1976C88.9412 88.1976 89.4745 88.0483 89.9012 87.7496C90.3279 87.451 90.6212 87.0243 90.7812 86.4696H92.3492C92.1145 87.3656 91.6452 88.0856 90.9412 88.6296C90.2372 89.163 89.3572 89.4296 88.3012 89.4296C87.4692 89.4296 86.7279 89.243 86.0772 88.8696C85.4372 88.4963 84.9359 87.9683 84.5732 87.2856C84.2105 86.603 84.0292 85.803 84.0292 84.8856ZM95.044 79.0936C94.7666 79.0936 94.532 78.9976 94.34 78.8056C94.148 78.6136 94.052 78.379 94.052 78.1016C94.052 77.8243 94.148 77.5896 94.34 77.3976C94.532 77.2056 94.7666 77.1096 95.044 77.1096C95.3106 77.1096 95.5346 77.2056 95.716 77.3976C95.908 77.5896 96.004 77.8243 96.004 78.1016C96.004 78.379 95.908 78.6136 95.716 78.8056C95.5346 78.9976 95.3106 79.0936 95.044 79.0936ZM95.748 80.5176V89.2856H94.292V80.5176H95.748ZM97.6855 84.8696C97.6855 83.9736 97.8668 83.1896 98.2295 82.5176C98.5921 81.835 99.0881 81.307 99.7175 80.9336C100.357 80.5603 101.072 80.3736 101.861 80.3736C102.544 80.3736 103.179 80.5336 103.765 80.8536C104.352 81.163 104.8 81.5736 105.109 82.0856V77.4456H106.581V89.2856H105.109V87.6376C104.821 88.1603 104.395 88.5923 103.829 88.9336C103.264 89.2643 102.603 89.4296 101.845 89.4296C101.067 89.4296 100.357 89.2376 99.7175 88.8536C99.0881 88.4696 98.5921 87.931 98.2295 87.2376C97.8668 86.5443 97.6855 85.755 97.6855 84.8696ZM105.109 84.8856C105.109 84.2243 104.976 83.6483 104.709 83.1576C104.443 82.667 104.08 82.2936 103.621 82.0376C103.173 81.771 102.677 81.6376 102.133 81.6376C101.589 81.6376 101.093 81.7656 100.645 82.0216C100.197 82.2776 99.8401 82.651 99.5735 83.1416C99.3068 83.6323 99.1735 84.2083 99.1735 84.8696C99.1735 85.5416 99.3068 86.1283 99.5735 86.6296C99.8401 87.1203 100.197 87.499 100.645 87.7656C101.093 88.0216 101.589 88.1496 102.133 88.1496C102.677 88.1496 103.173 88.0216 103.621 87.7656C104.08 87.499 104.443 87.1203 104.709 86.6296C104.976 86.1283 105.109 85.547 105.109 84.8856ZM117.042 84.5656C117.042 84.843 117.026 85.1363 116.994 85.4456H109.986C110.039 86.3096 110.333 86.987 110.866 87.4776C111.41 87.9576 112.066 88.1976 112.834 88.1976C113.463 88.1976 113.986 88.0536 114.402 87.7656C114.829 87.467 115.127 87.0723 115.298 86.5816H116.866C116.631 87.4243 116.162 88.1123 115.458 88.6456C114.754 89.1683 113.879 89.4296 112.834 89.4296C112.002 89.4296 111.255 89.243 110.594 88.8696C109.943 88.4963 109.431 87.9683 109.058 87.2856C108.685 86.5923 108.498 85.7923 108.498 84.8856C108.498 83.979 108.679 83.1843 109.042 82.5016C109.405 81.819 109.911 81.2963 110.562 80.9336C111.223 80.5603 111.981 80.3736 112.834 80.3736C113.666 80.3736 114.402 80.555 115.042 80.9176C115.682 81.2803 116.173 81.7816 116.514 82.4216C116.866 83.051 117.042 83.7656 117.042 84.5656ZM115.538 84.2616C115.538 83.707 115.415 83.2323 115.17 82.8376C114.925 82.4323 114.589 82.1283 114.162 81.9256C113.746 81.7123 113.282 81.6056 112.77 81.6056C112.034 81.6056 111.405 81.8403 110.882 82.3096C110.37 82.779 110.077 83.4296 110.002 84.2616H115.538ZM134.909 80.5176L132.173 89.2856H130.669L128.557 82.3256L126.445 89.2856H124.941L122.189 80.5176H123.677L125.693 87.8776L127.869 80.5176H129.357L131.485 87.8936L133.469 80.5176H134.909ZM140.706 80.3576C141.368 80.3576 141.965 80.5016 142.498 80.7896C143.032 81.067 143.448 81.4883 143.746 82.0536C144.056 82.619 144.21 83.307 144.21 84.1176V89.2856H142.77V84.3256C142.77 83.451 142.552 82.7843 142.114 82.3256C141.677 81.8563 141.08 81.6216 140.322 81.6216C139.554 81.6216 138.941 81.8616 138.482 82.3416C138.034 82.8216 137.81 83.5203 137.81 84.4376V89.2856H136.354V77.4456H137.81V81.7656C138.098 81.3176 138.493 80.971 138.994 80.7256C139.506 80.4803 140.077 80.3576 140.706 80.3576ZM147.341 79.0936C147.063 79.0936 146.829 78.9976 146.637 78.8056C146.445 78.6136 146.349 78.379 146.349 78.1016C146.349 77.8243 146.445 77.5896 146.637 77.3976C146.829 77.2056 147.063 77.1096 147.341 77.1096C147.607 77.1096 147.831 77.2056 148.013 77.3976C148.205 77.5896 148.301 77.8243 148.301 78.1016C148.301 78.379 148.205 78.6136 148.013 78.8056C147.831 78.9976 147.607 79.0936 147.341 79.0936ZM148.045 80.5176V89.2856H146.589V80.5176H148.045ZM149.982 84.8856C149.982 83.979 150.164 83.1896 150.526 82.5176C150.889 81.835 151.39 81.307 152.03 80.9336C152.681 80.5603 153.422 80.3736 154.254 80.3736C155.332 80.3736 156.217 80.635 156.91 81.1576C157.614 81.6803 158.078 82.4056 158.302 83.3336H156.734C156.585 82.8003 156.292 82.379 155.854 82.0696C155.428 81.7603 154.894 81.6056 154.254 81.6056C153.422 81.6056 152.75 81.8936 152.238 82.4696C151.726 83.035 151.47 83.8403 151.47 84.8856C151.47 85.9416 151.726 86.7576 152.238 87.3336C152.75 87.9096 153.422 88.1976 154.254 88.1976C154.894 88.1976 155.428 88.0483 155.854 87.7496C156.281 87.451 156.574 87.0243 156.734 86.4696H158.302C158.068 87.3656 157.598 88.0856 156.894 88.6296C156.19 89.163 155.31 89.4296 154.254 89.4296C153.422 89.4296 152.681 89.243 152.03 88.8696C151.39 88.4963 150.889 87.9683 150.526 87.2856C150.164 86.603 149.982 85.803 149.982 84.8856ZM164.597 80.3576C165.258 80.3576 165.856 80.5016 166.389 80.7896C166.922 81.067 167.338 81.4883 167.637 82.0536C167.946 82.619 168.101 83.307 168.101 84.1176V89.2856H166.661V84.3256C166.661 83.451 166.442 82.7843 166.005 82.3256C165.568 81.8563 164.97 81.6216 164.213 81.6216C163.445 81.6216 162.832 81.8616 162.373 82.3416C161.925 82.8216 161.701 83.5203 161.701 84.4376V89.2856H160.245V77.4456H161.701V81.7656C161.989 81.3176 162.384 80.971 162.885 80.7256C163.397 80.4803 163.968 80.3576 164.597 80.3576ZM176.201 82.1336C176.489 81.6323 176.916 81.2163 177.481 80.8856C178.057 80.5443 178.724 80.3736 179.481 80.3736C180.26 80.3736 180.964 80.5603 181.593 80.9336C182.233 81.307 182.734 81.835 183.097 82.5176C183.46 83.1896 183.641 83.9736 183.641 84.8696C183.641 85.755 183.46 86.5443 183.097 87.2376C182.734 87.931 182.233 88.4696 181.593 88.8536C180.964 89.2376 180.26 89.4296 179.481 89.4296C178.734 89.4296 178.073 89.2643 177.497 88.9336C176.932 88.5923 176.5 88.171 176.201 87.6696V93.4456H174.745V80.5176H176.201V82.1336ZM182.153 84.8696C182.153 84.2083 182.02 83.6323 181.753 83.1416C181.486 82.651 181.124 82.2776 180.665 82.0216C180.217 81.7656 179.721 81.6376 179.177 81.6376C178.644 81.6376 178.148 81.771 177.689 82.0376C177.241 82.2936 176.878 82.6723 176.601 83.1736C176.334 83.6643 176.201 84.235 176.201 84.8856C176.201 85.547 176.334 86.1283 176.601 86.6296C176.878 87.1203 177.241 87.499 177.689 87.7656C178.148 88.0216 178.644 88.1496 179.177 88.1496C179.721 88.1496 180.217 88.0216 180.665 87.7656C181.124 87.499 181.486 87.1203 181.753 86.6296C182.02 86.1283 182.153 85.5416 182.153 84.8696ZM187.014 77.4456V89.2856H185.558V77.4456H187.014ZM188.951 84.8696C188.951 83.9736 189.132 83.1896 189.495 82.5176C189.858 81.835 190.354 81.307 190.983 80.9336C191.623 80.5603 192.332 80.3736 193.111 80.3736C193.879 80.3736 194.546 80.539 195.111 80.8696C195.676 81.2003 196.098 81.6163 196.375 82.1176V80.5176H197.847V89.2856H196.375V87.6536C196.087 88.1656 195.655 88.5923 195.079 88.9336C194.514 89.2643 193.852 89.4296 193.095 89.4296C192.316 89.4296 191.612 89.2376 190.983 88.8536C190.354 88.4696 189.858 87.931 189.495 87.2376C189.132 86.5443 188.951 85.755 188.951 84.8696ZM196.375 84.8856C196.375 84.2243 196.242 83.6483 195.975 83.1576C195.708 82.667 195.346 82.2936 194.887 82.0376C194.439 81.771 193.943 81.6376 193.399 81.6376C192.855 81.6376 192.359 81.7656 191.911 82.0216C191.463 82.2776 191.106 82.651 190.839 83.1416C190.572 83.6323 190.439 84.2083 190.439 84.8696C190.439 85.5416 190.572 86.1283 190.839 86.6296C191.106 87.1203 191.463 87.499 191.911 87.7656C192.359 88.0216 192.855 88.1496 193.399 88.1496C193.943 88.1496 194.439 88.0216 194.887 87.7656C195.346 87.499 195.708 87.1203 195.975 86.6296C196.242 86.1283 196.375 85.547 196.375 84.8856ZM204.58 80.3576C205.646 80.3576 206.51 80.683 207.172 81.3336C207.833 81.9736 208.164 82.9016 208.164 84.1176V89.2856H206.724V84.3256C206.724 83.451 206.505 82.7843 206.068 82.3256C205.63 81.8563 205.033 81.6216 204.276 81.6216C203.508 81.6216 202.894 81.8616 202.436 82.3416C201.988 82.8216 201.764 83.5203 201.764 84.4376V89.2856H200.308V80.5176H201.764V81.7656C202.052 81.3176 202.441 80.971 202.932 80.7256C203.433 80.4803 203.982 80.3576 204.58 80.3576ZM212.318 81.7176V86.8856C212.318 87.3123 212.409 87.6163 212.59 87.7976C212.771 87.9683 213.086 88.0536 213.534 88.0536H214.606V89.2856H213.294C212.483 89.2856 211.875 89.099 211.47 88.7256C211.065 88.3523 210.862 87.739 210.862 86.8856V81.7176H209.726V80.5176H210.862V78.3096H212.318V80.5176H214.606V81.7176H212.318ZM219.474 89.4296C218.802 89.4296 218.199 89.3176 217.666 89.0936C217.133 88.859 216.711 88.539 216.402 88.1336C216.093 87.7176 215.922 87.243 215.89 86.7096H217.394C217.437 87.147 217.639 87.5043 218.002 87.7816C218.375 88.059 218.861 88.1976 219.458 88.1976C220.013 88.1976 220.45 88.075 220.77 87.8296C221.09 87.5843 221.25 87.275 221.25 86.9016C221.25 86.5176 221.079 86.235 220.738 86.0536C220.397 85.8616 219.869 85.675 219.154 85.4936C218.503 85.323 217.97 85.1523 217.554 84.9816C217.149 84.8003 216.797 84.539 216.498 84.1976C216.21 83.8456 216.066 83.387 216.066 82.8216C216.066 82.3736 216.199 81.963 216.466 81.5896C216.733 81.2163 217.111 80.923 217.602 80.7096C218.093 80.4856 218.653 80.3736 219.282 80.3736C220.253 80.3736 221.037 80.619 221.634 81.1096C222.231 81.6003 222.551 82.2723 222.594 83.1256H221.138C221.106 82.667 220.919 82.299 220.578 82.0216C220.247 81.7443 219.799 81.6056 219.234 81.6056C218.711 81.6056 218.295 81.7176 217.986 81.9416C217.677 82.1656 217.522 82.459 217.522 82.8216C217.522 83.1096 217.613 83.3496 217.794 83.5416C217.986 83.723 218.221 83.8723 218.498 83.9896C218.786 84.0963 219.181 84.219 219.682 84.3576C220.311 84.5283 220.823 84.699 221.218 84.8696C221.613 85.0296 221.949 85.275 222.226 85.6056C222.514 85.9363 222.663 86.3683 222.674 86.9016C222.674 87.3816 222.541 87.8136 222.274 88.1976C222.007 88.5816 221.629 88.8856 221.138 89.1096C220.658 89.323 220.103 89.4296 219.474 89.4296ZM230.771 81.7176V86.8856C230.771 87.3123 230.862 87.6163 231.043 87.7976C231.224 87.9683 231.539 88.0536 231.987 88.0536H233.059V89.2856H231.747C230.936 89.2856 230.328 89.099 229.923 88.7256C229.518 88.3523 229.315 87.739 229.315 86.8856V81.7176H228.179V80.5176H229.315V78.3096H230.771V80.5176H233.059V81.7176H230.771ZM238.647 89.4296C237.826 89.4296 237.079 89.243 236.407 88.8696C235.746 88.4963 235.223 87.9683 234.839 87.2856C234.466 86.5923 234.279 85.7923 234.279 84.8856C234.279 83.9896 234.471 83.2003 234.855 82.5176C235.25 81.8243 235.783 81.2963 236.455 80.9336C237.127 80.5603 237.879 80.3736 238.711 80.3736C239.543 80.3736 240.295 80.5603 240.967 80.9336C241.639 81.2963 242.167 81.819 242.551 82.5016C242.946 83.1843 243.143 83.979 243.143 84.8856C243.143 85.7923 242.941 86.5923 242.535 87.2856C242.141 87.9683 241.602 88.4963 240.919 88.8696C240.237 89.243 239.479 89.4296 238.647 89.4296ZM238.647 88.1496C239.17 88.1496 239.661 88.027 240.119 87.7816C240.578 87.5363 240.946 87.1683 241.223 86.6776C241.511 86.187 241.655 85.5896 241.655 84.8856C241.655 84.1816 241.517 83.5843 241.239 83.0936C240.962 82.603 240.599 82.2403 240.151 82.0056C239.703 81.7603 239.218 81.6376 238.695 81.6376C238.162 81.6376 237.671 81.7603 237.223 82.0056C236.786 82.2403 236.434 82.603 236.167 83.0936C235.901 83.5843 235.767 84.1816 235.767 84.8856C235.767 85.6003 235.895 86.203 236.151 86.6936C236.418 87.1843 236.77 87.5523 237.207 87.7976C237.645 88.0323 238.125 88.1496 238.647 88.1496ZM250.779 82.1496C251.078 81.627 251.515 81.2003 252.091 80.8696C252.667 80.539 253.323 80.3736 254.059 80.3736C254.849 80.3736 255.558 80.5603 256.187 80.9336C256.817 81.307 257.313 81.835 257.675 82.5176C258.038 83.1896 258.219 83.9736 258.219 84.8696C258.219 85.755 258.038 86.5443 257.675 87.2376C257.313 87.931 256.811 88.4696 256.171 88.8536C255.542 89.2376 254.838 89.4296 254.059 89.4296C253.302 89.4296 252.635 89.2643 252.059 88.9336C251.494 88.603 251.067 88.1816 250.779 87.6696V89.2856H249.323V77.4456H250.779V82.1496ZM256.731 84.8696C256.731 84.2083 256.598 83.6323 256.331 83.1416C256.065 82.651 255.702 82.2776 255.243 82.0216C254.795 81.7656 254.299 81.6376 253.755 81.6376C253.222 81.6376 252.726 81.771 252.267 82.0376C251.819 82.2936 251.457 82.6723 251.179 83.1736C250.913 83.6643 250.779 84.235 250.779 84.8856C250.779 85.547 250.913 86.1283 251.179 86.6296C251.457 87.1203 251.819 87.499 252.267 87.7656C252.726 88.0216 253.222 88.1496 253.755 88.1496C254.299 88.1496 254.795 88.0216 255.243 87.7656C255.702 87.499 256.065 87.1203 256.331 86.6296C256.598 86.1283 256.731 85.5416 256.731 84.8696ZM267.912 80.5176V89.2856H266.456V87.9896C266.178 88.4376 265.789 88.7896 265.288 89.0456C264.797 89.291 264.253 89.4136 263.656 89.4136C262.973 89.4136 262.36 89.275 261.816 88.9976C261.272 88.7096 260.84 88.283 260.52 87.7176C260.21 87.1523 260.056 86.4643 260.056 85.6536V80.5176H261.496V85.4616C261.496 86.3256 261.714 86.9923 262.152 87.4616C262.589 87.9203 263.186 88.1496 263.944 88.1496C264.722 88.1496 265.336 87.9096 265.784 87.4296C266.232 86.9496 266.456 86.251 266.456 85.3336V80.5176H267.912ZM277.922 80.5176L272.642 93.4136H271.138L272.866 89.1896L269.33 80.5176H270.946L273.698 87.6216L276.418 80.5176H277.922Z" fill="#B0F1EA"/>
</svg>
