<svg width="321" height="189" viewBox="0 0 321 189" fill="none" xmlns="http://www.w3.org/2000/svg">
<path d="M165.589 186.483C165.283 187.35 164.067 187.38 163.72 186.528L148.562 149.378C148.294 148.72 148.777 148 149.488 148L177.763 148C178.453 148 178.936 148.682 178.706 149.333L165.589 186.483Z" fill="#2E4F72"/>
<path d="M0 40C0 17.9086 17.9086 0 40 0H281C303.091 0 321 17.9086 321 40V108C321 130.091 303.091 148 281 148H40C17.9086 148 0 130.091 0 108V40Z" fill="#2E4F72"/>
<path d="M61.1273 46.848V48.032H58.0873V58H56.6313V48.032H53.5753V46.848H61.1273ZM62.3755 53.584C62.3755 52.688 62.5568 51.904 62.9195 51.232C63.2822 50.5493 63.7782 50.0213 64.4075 49.648C65.0475 49.2747 65.7568 49.088 66.5355 49.088C67.3035 49.088 67.9702 49.2533 68.5355 49.584C69.1008 49.9147 69.5222 50.3307 69.7995 50.832V49.232H71.2715V58H69.7995V56.368C69.5115 56.88 69.0795 57.3067 68.5035 57.648C67.9382 57.9787 67.2768 58.144 66.5195 58.144C65.7408 58.144 65.0368 57.952 64.4075 57.568C63.7782 57.184 63.2822 56.6453 62.9195 55.952C62.5568 55.2587 62.3755 54.4693 62.3755 53.584ZM69.7995 53.6C69.7995 52.9387 69.6662 52.3627 69.3995 51.872C69.1328 51.3813 68.7702 51.008 68.3115 50.752C67.8635 50.4853 67.3675 50.352 66.8235 50.352C66.2795 50.352 65.7835 50.48 65.3355 50.736C64.8875 50.992 64.5302 51.3653 64.2635 51.856C63.9968 52.3467 63.8635 52.9227 63.8635 53.584C63.8635 54.256 63.9968 54.8427 64.2635 55.344C64.5302 55.8347 64.8875 56.2133 65.3355 56.48C65.7835 56.736 66.2795 56.864 66.8235 56.864C67.3675 56.864 67.8635 56.736 68.3115 56.48C68.7702 56.2133 69.1328 55.8347 69.3995 55.344C69.6662 54.8427 69.7995 54.2613 69.7995 53.6ZM78.628 58L75.188 54.128V58H73.732V46.16H75.188V53.12L78.564 49.232H80.596L76.468 53.6L80.612 58H78.628ZM89.9664 53.28C89.9664 53.5573 89.9504 53.8507 89.9184 54.16H82.9104C82.9637 55.024 83.257 55.7013 83.7904 56.192C84.3344 56.672 84.9904 56.912 85.7584 56.912C86.3877 56.912 86.9104 56.768 87.3264 56.48C87.753 56.1813 88.0517 55.7867 88.2224 55.296H89.7904C89.5557 56.1387 89.0864 56.8267 88.3824 57.36C87.6784 57.8827 86.8037 58.144 85.7584 58.144C84.9264 58.144 84.1797 57.9573 83.5184 57.584C82.8677 57.2107 82.3557 56.6827 81.9824 56C81.609 55.3067 81.4224 54.5067 81.4224 53.6C81.4224 52.6933 81.6037 51.8987 81.9664 51.216C82.329 50.5333 82.8357 50.0107 83.4864 49.648C84.1477 49.2747 84.905 49.088 85.7584 49.088C86.5904 49.088 87.3264 49.2693 87.9664 49.632C88.6064 49.9947 89.097 50.496 89.4384 51.136C89.7904 51.7653 89.9664 52.48 89.9664 53.28ZM88.4624 52.976C88.4624 52.4213 88.3397 51.9467 88.0944 51.552C87.849 51.1467 87.513 50.8427 87.0864 50.64C86.6704 50.4267 86.2064 50.32 85.6944 50.32C84.9584 50.32 84.329 50.5547 83.8064 51.024C83.2944 51.4933 83.001 52.144 82.9264 52.976H88.4624ZM95.6099 53.584C95.6099 52.688 95.7912 51.904 96.1539 51.232C96.5165 50.5493 97.0125 50.0213 97.6419 49.648C98.2819 49.2747 98.9912 49.088 99.7699 49.088C100.538 49.088 101.205 49.2533 101.77 49.584C102.335 49.9147 102.757 50.3307 103.034 50.832V49.232H104.506V58H103.034V56.368C102.746 56.88 102.314 57.3067 101.738 57.648C101.173 57.9787 100.511 58.144 99.7539 58.144C98.9752 58.144 98.2712 57.952 97.6419 57.568C97.0125 57.184 96.5165 56.6453 96.1539 55.952C95.7912 55.2587 95.6099 54.4693 95.6099 53.584ZM103.034 53.6C103.034 52.9387 102.901 52.3627 102.634 51.872C102.367 51.3813 102.005 51.008 101.546 50.752C101.098 50.4853 100.602 50.352 100.058 50.352C99.5139 50.352 99.0179 50.48 98.5699 50.736C98.1219 50.992 97.7645 51.3653 97.4979 51.856C97.2312 52.3467 97.0979 52.9227 97.0979 53.584C97.0979 54.256 97.2312 54.8427 97.4979 55.344C97.7645 55.8347 98.1219 56.2133 98.5699 56.48C99.0179 56.736 99.5139 56.864 100.058 56.864C100.602 56.864 101.098 56.736 101.546 56.48C102.005 56.2133 102.367 55.8347 102.634 55.344C102.901 54.8427 103.034 54.2613 103.034 53.6ZM113.008 50.432V55.6C113.008 56.0267 113.099 56.3307 113.28 56.512C113.461 56.6827 113.776 56.768 114.224 56.768H115.296V58H113.984C113.173 58 112.565 57.8133 112.16 57.44C111.755 57.0667 111.552 56.4533 111.552 55.6V50.432H110.416V49.232H111.552V47.024H113.008V49.232H115.296V50.432H113.008ZM118.516 50.656C118.772 50.1547 119.135 49.7653 119.604 49.488C120.084 49.2107 120.665 49.072 121.348 49.072V50.576H120.964C119.332 50.576 118.516 51.4613 118.516 53.232V58H117.06V49.232H118.516V50.656ZM123.781 47.808C123.504 47.808 123.269 47.712 123.077 47.52C122.885 47.328 122.789 47.0933 122.789 46.816C122.789 46.5387 122.885 46.304 123.077 46.112C123.269 45.92 123.504 45.824 123.781 45.824C124.048 45.824 124.272 45.92 124.453 46.112C124.645 46.304 124.741 46.5387 124.741 46.816C124.741 47.0933 124.645 47.328 124.453 47.52C124.272 47.712 124.048 47.808 123.781 47.808ZM124.485 49.232V58H123.029V49.232H124.485ZM128.422 50.848C128.71 50.3467 129.137 49.9307 129.702 49.6C130.278 49.2587 130.945 49.088 131.702 49.088C132.481 49.088 133.185 49.2747 133.814 49.648C134.454 50.0213 134.956 50.5493 135.318 51.232C135.681 51.904 135.862 52.688 135.862 53.584C135.862 54.4693 135.681 55.2587 135.318 55.952C134.956 56.6453 134.454 57.184 133.814 57.568C133.185 57.952 132.481 58.144 131.702 58.144C130.956 58.144 130.294 57.9787 129.718 57.648C129.153 57.3067 128.721 56.8853 128.422 56.384V62.16H126.966V49.232H128.422V50.848ZM134.374 53.584C134.374 52.9227 134.241 52.3467 133.974 51.856C133.708 51.3653 133.345 50.992 132.886 50.736C132.438 50.48 131.942 50.352 131.398 50.352C130.865 50.352 130.369 50.4853 129.91 50.752C129.462 51.008 129.1 51.3867 128.822 51.888C128.556 52.3787 128.422 52.9493 128.422 53.6C128.422 54.2613 128.556 54.8427 128.822 55.344C129.1 55.8347 129.462 56.2133 129.91 56.48C130.369 56.736 130.865 56.864 131.398 56.864C131.942 56.864 132.438 56.736 132.886 56.48C133.345 56.2133 133.708 55.8347 133.974 55.344C134.241 54.8427 134.374 54.256 134.374 53.584ZM143.821 50.432V55.6C143.821 56.0267 143.911 56.3307 144.093 56.512C144.274 56.6827 144.589 56.768 145.036 56.768H146.109V58H144.797C143.986 58 143.378 57.8133 142.973 57.44C142.567 57.0667 142.365 56.4533 142.365 55.6V50.432H141.229V49.232H142.365V47.024H143.821V49.232H146.109V50.432H143.821ZM151.697 58.144C150.875 58.144 150.129 57.9573 149.457 57.584C148.795 57.2107 148.273 56.6827 147.889 56C147.515 55.3067 147.329 54.5067 147.329 53.6C147.329 52.704 147.521 51.9147 147.905 51.232C148.299 50.5387 148.833 50.0107 149.505 49.648C150.177 49.2747 150.929 49.088 151.761 49.088C152.593 49.088 153.345 49.2747 154.017 49.648C154.689 50.0107 155.217 50.5333 155.601 51.216C155.995 51.8987 156.193 52.6933 156.193 53.6C156.193 54.5067 155.99 55.3067 155.585 56C155.19 56.6827 154.651 57.2107 153.969 57.584C153.286 57.9573 152.529 58.144 151.697 58.144ZM151.697 56.864C152.219 56.864 152.71 56.7413 153.169 56.496C153.627 56.2507 153.995 55.8827 154.273 55.392C154.561 54.9013 154.705 54.304 154.705 53.6C154.705 52.896 154.566 52.2987 154.289 51.808C154.011 51.3173 153.649 50.9547 153.201 50.72C152.753 50.4747 152.267 50.352 151.745 50.352C151.211 50.352 150.721 50.4747 150.273 50.72C149.835 50.9547 149.483 51.3173 149.217 51.808C148.95 52.2987 148.817 52.896 148.817 53.6C148.817 54.3147 148.945 54.9173 149.201 55.408C149.467 55.8987 149.819 56.2667 150.257 56.512C150.694 56.7467 151.174 56.864 151.697 56.864ZM164.149 50.432V55.6C164.149 56.0267 164.239 56.3307 164.421 56.512C164.602 56.6827 164.917 56.768 165.365 56.768H166.437V58H165.125C164.314 58 163.706 57.8133 163.301 57.44C162.895 57.0667 162.693 56.4533 162.693 55.6V50.432H161.557V49.232H162.693V47.024H164.149V49.232H166.437V50.432H164.149ZM172.553 49.072C173.214 49.072 173.811 49.216 174.345 49.504C174.878 49.7813 175.294 50.2027 175.593 50.768C175.902 51.3333 176.057 52.0213 176.057 52.832V58H174.617V53.04C174.617 52.1653 174.398 51.4987 173.961 51.04C173.523 50.5707 172.926 50.336 172.169 50.336C171.401 50.336 170.787 50.576 170.329 51.056C169.881 51.536 169.657 52.2347 169.657 53.152V58H168.201V46.16H169.657V50.48C169.945 50.032 170.339 49.6853 170.841 49.44C171.353 49.1947 171.923 49.072 172.553 49.072ZM186.435 53.28C186.435 53.5573 186.419 53.8507 186.387 54.16H179.379C179.432 55.024 179.726 55.7013 180.259 56.192C180.803 56.672 181.459 56.912 182.227 56.912C182.856 56.912 183.379 56.768 183.795 56.48C184.222 56.1813 184.52 55.7867 184.691 55.296H186.259C186.024 56.1387 185.555 56.8267 184.851 57.36C184.147 57.8827 183.272 58.144 182.227 58.144C181.395 58.144 180.648 57.9573 179.987 57.584C179.336 57.2107 178.824 56.6827 178.451 56C178.078 55.3067 177.891 54.5067 177.891 53.6C177.891 52.6933 178.072 51.8987 178.435 51.216C178.798 50.5333 179.304 50.0107 179.955 49.648C180.616 49.2747 181.374 49.088 182.227 49.088C183.059 49.088 183.795 49.2693 184.435 49.632C185.075 49.9947 185.566 50.496 185.907 51.136C186.259 51.7653 186.435 52.48 186.435 53.28ZM184.931 52.976C184.931 52.4213 184.808 51.9467 184.563 51.552C184.318 51.1467 183.982 50.8427 183.555 50.64C183.139 50.4267 182.675 50.32 182.163 50.32C181.427 50.32 180.798 50.5547 180.275 51.024C179.763 51.4933 179.47 52.144 179.395 52.976H184.931ZM203.167 49.072C203.849 49.072 204.457 49.216 204.991 49.504C205.524 49.7813 205.945 50.2027 206.255 50.768C206.564 51.3333 206.719 52.0213 206.719 52.832V58H205.279V53.04C205.279 52.1653 205.06 51.4987 204.623 51.04C204.196 50.5707 203.615 50.336 202.879 50.336C202.121 50.336 201.519 50.5813 201.071 51.072C200.623 51.552 200.399 52.2507 200.399 53.168V58H198.959V53.04C198.959 52.1653 198.74 51.4987 198.303 51.04C197.876 50.5707 197.295 50.336 196.559 50.336C195.801 50.336 195.199 50.5813 194.751 51.072C194.303 51.552 194.079 52.2507 194.079 53.168V58H192.623V49.232H194.079V50.496C194.367 50.0373 194.751 49.6853 195.231 49.44C195.721 49.1947 196.26 49.072 196.847 49.072C197.583 49.072 198.233 49.2373 198.799 49.568C199.364 49.8987 199.785 50.384 200.063 51.024C200.308 50.4053 200.713 49.9253 201.279 49.584C201.844 49.2427 202.473 49.072 203.167 49.072ZM208.563 53.584C208.563 52.688 208.744 51.904 209.107 51.232C209.47 50.5493 209.966 50.0213 210.595 49.648C211.235 49.2747 211.944 49.088 212.723 49.088C213.491 49.088 214.158 49.2533 214.723 49.584C215.288 49.9147 215.71 50.3307 215.987 50.832V49.232H217.459V58H215.987V56.368C215.699 56.88 215.267 57.3067 214.691 57.648C214.126 57.9787 213.464 58.144 212.707 58.144C211.928 58.144 211.224 57.952 210.595 57.568C209.966 57.184 209.47 56.6453 209.107 55.952C208.744 55.2587 208.563 54.4693 208.563 53.584ZM215.987 53.6C215.987 52.9387 215.854 52.3627 215.587 51.872C215.32 51.3813 214.958 51.008 214.499 50.752C214.051 50.4853 213.555 50.352 213.011 50.352C212.467 50.352 211.971 50.48 211.523 50.736C211.075 50.992 210.718 51.3653 210.451 51.856C210.184 52.3467 210.051 52.9227 210.051 53.584C210.051 54.256 210.184 54.8427 210.451 55.344C210.718 55.8347 211.075 56.2133 211.523 56.48C211.971 56.736 212.467 56.864 213.011 56.864C213.555 56.864 214.051 56.736 214.499 56.48C214.958 56.2133 215.32 55.8347 215.587 55.344C215.854 54.8427 215.987 54.2613 215.987 53.6ZM221.376 50.656C221.632 50.1547 221.994 49.7653 222.464 49.488C222.944 49.2107 223.525 49.072 224.208 49.072V50.576H223.824C222.192 50.576 221.376 51.4613 221.376 53.232V58H219.92V49.232H221.376V50.656ZM230.784 58L227.344 54.128V58H225.888V46.16H227.344V53.12L230.72 49.232H232.752L228.624 53.6L232.768 58H230.784ZM242.123 53.28C242.123 53.5573 242.107 53.8507 242.075 54.16H235.067C235.12 55.024 235.413 55.7013 235.947 56.192C236.491 56.672 237.147 56.912 237.915 56.912C238.544 56.912 239.067 56.768 239.483 56.48C239.909 56.1813 240.208 55.7867 240.379 55.296H241.947C241.712 56.1387 241.243 56.8267 240.539 57.36C239.835 57.8827 238.96 58.144 237.915 58.144C237.083 58.144 236.336 57.9573 235.675 57.584C235.024 57.2107 234.512 56.6827 234.139 56C233.765 55.3067 233.579 54.5067 233.579 53.6C233.579 52.6933 233.76 51.8987 234.123 51.216C234.485 50.5333 234.992 50.0107 235.643 49.648C236.304 49.2747 237.061 49.088 237.915 49.088C238.747 49.088 239.483 49.2693 240.123 49.632C240.763 49.9947 241.253 50.496 241.595 51.136C241.947 51.7653 242.123 52.48 242.123 53.28ZM240.619 52.976C240.619 52.4213 240.496 51.9467 240.251 51.552C240.005 51.1467 239.669 50.8427 239.243 50.64C238.827 50.4267 238.363 50.32 237.851 50.32C237.115 50.32 236.485 50.5547 235.963 51.024C235.451 51.4933 235.157 52.144 235.083 52.976H240.619ZM245.821 50.432V55.6C245.821 56.0267 245.911 56.3307 246.093 56.512C246.274 56.6827 246.589 56.768 247.036 56.768H248.109V58H246.797C245.986 58 245.378 57.8133 244.973 57.44C244.567 57.0667 244.365 56.4533 244.365 55.6V50.432H243.229V49.232H244.365V47.024H245.821V49.232H248.109V50.432H245.821ZM255.914 50.432V55.6C255.914 56.0267 256.005 56.3307 256.186 56.512C256.368 56.6827 256.682 56.768 257.13 56.768H258.202V58H256.89C256.08 58 255.472 57.8133 255.066 57.44C254.661 57.0667 254.458 56.4533 254.458 55.6V50.432H253.322V49.232H254.458V47.024H255.914V49.232H258.202V50.432H255.914ZM263.79 58.144C262.969 58.144 262.222 57.9573 261.55 57.584C260.889 57.2107 260.366 56.6827 259.982 56C259.609 55.3067 259.422 54.5067 259.422 53.6C259.422 52.704 259.614 51.9147 259.998 51.232C260.393 50.5387 260.926 50.0107 261.598 49.648C262.27 49.2747 263.022 49.088 263.854 49.088C264.686 49.088 265.438 49.2747 266.11 49.648C266.782 50.0107 267.31 50.5333 267.694 51.216C268.089 51.8987 268.286 52.6933 268.286 53.6C268.286 54.5067 268.084 55.3067 267.678 56C267.284 56.6827 266.745 57.2107 266.062 57.584C265.38 57.9573 264.622 58.144 263.79 58.144ZM263.79 56.864C264.313 56.864 264.804 56.7413 265.262 56.496C265.721 56.2507 266.089 55.8827 266.366 55.392C266.654 54.9013 266.798 54.304 266.798 53.6C266.798 52.896 266.66 52.2987 266.382 51.808C266.105 51.3173 265.742 50.9547 265.294 50.72C264.846 50.4747 264.361 50.352 263.838 50.352C263.305 50.352 262.814 50.4747 262.366 50.72C261.929 50.9547 261.577 51.3173 261.31 51.808C261.044 52.2987 260.91 52.896 260.91 53.6C260.91 54.3147 261.038 54.9173 261.294 55.408C261.561 55.8987 261.913 56.2667 262.35 56.512C262.788 56.7467 263.268 56.864 263.79 56.864ZM63.9614 68.864C64.2601 68.3413 64.6974 67.9147 65.2734 67.584C65.8494 67.2533 66.5054 67.088 67.2414 67.088C68.0308 67.088 68.7401 67.2747 69.3694 67.648C69.9988 68.0213 70.4948 68.5493 70.8574 69.232C71.2201 69.904 71.4014 70.688 71.4014 71.584C71.4014 72.4693 71.2201 73.2587 70.8574 73.952C70.4948 74.6453 69.9934 75.184 69.3534 75.568C68.7241 75.952 68.0201 76.144 67.2414 76.144C66.4841 76.144 65.8174 75.9787 65.2414 75.648C64.6761 75.3173 64.2494 74.896 63.9614 74.384V76H62.5054V64.16H63.9614V68.864ZM69.9134 71.584C69.9134 70.9227 69.7801 70.3467 69.5134 69.856C69.2468 69.3653 68.8841 68.992 68.4254 68.736C67.9774 68.48 67.4814 68.352 66.9374 68.352C66.4041 68.352 65.9081 68.4853 65.4494 68.752C65.0014 69.008 64.6388 69.3867 64.3614 69.888C64.0948 70.3787 63.9614 70.9493 63.9614 71.6C63.9614 72.2613 64.0948 72.8427 64.3614 73.344C64.6388 73.8347 65.0014 74.2133 65.4494 74.48C65.9081 74.736 66.4041 74.864 66.9374 74.864C67.4814 74.864 67.9774 74.736 68.4254 74.48C68.8841 74.2133 69.2468 73.8347 69.5134 73.344C69.7801 72.8427 69.9134 72.256 69.9134 71.584ZM81.0939 67.232V76H79.6379V74.704C79.3606 75.152 78.9713 75.504 78.4699 75.76C77.9793 76.0053 77.4353 76.128 76.8379 76.128C76.1553 76.128 75.5419 75.9893 74.9979 75.712C74.4539 75.424 74.0219 74.9973 73.7019 74.432C73.3926 73.8667 73.2379 73.1787 73.2379 72.368V67.232H74.6779V72.176C74.6779 73.04 74.8966 73.7067 75.3339 74.176C75.7713 74.6347 76.3686 74.864 77.1259 74.864C77.9046 74.864 78.5179 74.624 78.9659 74.144C79.4139 73.664 79.6379 72.9653 79.6379 72.048V67.232H81.0939ZM91.1043 67.232L85.8243 80.128H84.3203L86.0483 75.904L82.5123 67.232H84.1283L86.8803 74.336L89.6003 67.232H91.1043ZM98.2896 68.848C98.5776 68.3467 99.0042 67.9307 99.5696 67.6C100.146 67.2587 100.812 67.088 101.57 67.088C102.348 67.088 103.052 67.2747 103.682 67.648C104.322 68.0213 104.823 68.5493 105.186 69.232C105.548 69.904 105.73 70.688 105.73 71.584C105.73 72.4693 105.548 73.2587 105.186 73.952C104.823 74.6453 104.322 75.184 103.682 75.568C103.052 75.952 102.348 76.144 101.57 76.144C100.823 76.144 100.162 75.9787 99.5856 75.648C99.0202 75.3067 98.5882 74.8853 98.2896 74.384V80.16H96.8336V67.232H98.2896V68.848ZM104.242 71.584C104.242 70.9227 104.108 70.3467 103.842 69.856C103.575 69.3653 103.212 68.992 102.754 68.736C102.306 68.48 101.81 68.352 101.266 68.352C100.732 68.352 100.236 68.4853 99.7776 68.752C99.3296 69.008 98.9669 69.3867 98.6896 69.888C98.4229 70.3787 98.2896 70.9493 98.2896 71.6C98.2896 72.2613 98.4229 72.8427 98.6896 73.344C98.9669 73.8347 99.3296 74.2133 99.7776 74.48C100.236 74.736 100.732 74.864 101.266 74.864C101.81 74.864 102.306 74.736 102.754 74.48C103.212 74.2133 103.575 73.8347 103.842 73.344C104.108 72.8427 104.242 72.256 104.242 71.584ZM109.102 64.16V76H107.646V64.16H109.102ZM111.04 71.584C111.04 70.688 111.221 69.904 111.584 69.232C111.946 68.5493 112.442 68.0213 113.072 67.648C113.712 67.2747 114.421 67.088 115.2 67.088C115.968 67.088 116.634 67.2533 117.2 67.584C117.765 67.9147 118.186 68.3307 118.464 68.832V67.232H119.936V76H118.464V74.368C118.176 74.88 117.744 75.3067 117.168 75.648C116.602 75.9787 115.941 76.144 115.184 76.144C114.405 76.144 113.701 75.952 113.072 75.568C112.442 75.184 111.946 74.6453 111.584 73.952C111.221 73.2587 111.04 72.4693 111.04 71.584ZM118.464 71.6C118.464 70.9387 118.33 70.3627 118.064 69.872C117.797 69.3813 117.434 69.008 116.976 68.752C116.528 68.4853 116.032 68.352 115.488 68.352C114.944 68.352 114.448 68.48 114 68.736C113.552 68.992 113.194 69.3653 112.928 69.856C112.661 70.3467 112.528 70.9227 112.528 71.584C112.528 72.256 112.661 72.8427 112.928 73.344C113.194 73.8347 113.552 74.2133 114 74.48C114.448 74.736 114.944 74.864 115.488 74.864C116.032 74.864 116.528 74.736 116.976 74.48C117.434 74.2133 117.797 73.8347 118.064 73.344C118.33 72.8427 118.464 72.2613 118.464 71.6ZM126.668 67.072C127.735 67.072 128.599 67.3973 129.26 68.048C129.921 68.688 130.252 69.616 130.252 70.832V76H128.812V71.04C128.812 70.1653 128.593 69.4987 128.156 69.04C127.719 68.5707 127.121 68.336 126.364 68.336C125.596 68.336 124.983 68.576 124.524 69.056C124.076 69.536 123.852 70.2347 123.852 71.152V76H122.396V67.232H123.852V68.48C124.14 68.032 124.529 67.6853 125.02 67.44C125.521 67.1947 126.071 67.072 126.668 67.072ZM134.406 68.432V73.6C134.406 74.0267 134.497 74.3307 134.678 74.512C134.86 74.6827 135.174 74.768 135.622 74.768H136.694V76H135.382C134.572 76 133.964 75.8133 133.558 75.44C133.153 75.0667 132.95 74.4533 132.95 73.6V68.432H131.814V67.232H132.95V65.024H134.406V67.232H136.694V68.432H134.406ZM141.563 76.144C140.891 76.144 140.288 76.032 139.755 75.808C139.221 75.5733 138.8 75.2533 138.491 74.848C138.181 74.432 138.011 73.9573 137.979 73.424H139.483C139.525 73.8613 139.728 74.2187 140.091 74.496C140.464 74.7733 140.949 74.912 141.547 74.912C142.101 74.912 142.539 74.7893 142.859 74.544C143.179 74.2987 143.339 73.9893 143.339 73.616C143.339 73.232 143.168 72.9493 142.827 72.768C142.485 72.576 141.957 72.3893 141.243 72.208C140.592 72.0373 140.059 71.8667 139.643 71.696C139.237 71.5147 138.885 71.2533 138.587 70.912C138.299 70.56 138.155 70.1013 138.155 69.536C138.155 69.088 138.288 68.6773 138.555 68.304C138.821 67.9307 139.2 67.6373 139.691 67.424C140.181 67.2 140.741 67.088 141.371 67.088C142.341 67.088 143.125 67.3333 143.723 67.824C144.32 68.3147 144.64 68.9867 144.683 69.84H143.227C143.195 69.3813 143.008 69.0133 142.667 68.736C142.336 68.4587 141.888 68.32 141.323 68.32C140.8 68.32 140.384 68.432 140.075 68.656C139.765 68.88 139.611 69.1733 139.611 69.536C139.611 69.824 139.701 70.064 139.883 70.256C140.075 70.4373 140.309 70.5867 140.587 70.704C140.875 70.8107 141.269 70.9333 141.771 71.072C142.4 71.2427 142.912 71.4133 143.307 71.584C143.701 71.744 144.037 71.9893 144.315 72.32C144.603 72.6507 144.752 73.0827 144.763 73.616C144.763 74.096 144.629 74.528 144.363 74.912C144.096 75.296 143.717 75.6 143.227 75.824C142.747 76.0373 142.192 76.144 141.563 76.144ZM147.282 76.096C147.005 76.096 146.77 76 146.578 75.808C146.386 75.616 146.29 75.3813 146.29 75.104C146.29 74.8267 146.386 74.592 146.578 74.4C146.77 74.208 147.005 74.112 147.282 74.112C147.549 74.112 147.773 74.208 147.954 74.4C148.146 74.592 148.242 74.8267 148.242 75.104C148.242 75.3813 148.146 75.616 147.954 75.808C147.773 76 147.549 76.096 147.282 76.096ZM161.307 64.848V66.032H158.267V76H156.811V66.032H153.755V64.848H161.307ZM167.451 67.072C168.113 67.072 168.71 67.216 169.243 67.504C169.777 67.7813 170.193 68.2027 170.491 68.768C170.801 69.3333 170.955 70.0213 170.955 70.832V76H169.515V71.04C169.515 70.1653 169.297 69.4987 168.859 69.04C168.422 68.5707 167.825 68.336 167.067 68.336C166.299 68.336 165.686 68.576 165.227 69.056C164.779 69.536 164.555 70.2347 164.555 71.152V76H163.099V64.16H164.555V68.48C164.843 68.032 165.238 67.6853 165.739 67.44C166.251 67.1947 166.822 67.072 167.451 67.072ZM181.334 71.28C181.334 71.5573 181.318 71.8507 181.286 72.16H174.278C174.331 73.024 174.624 73.7013 175.158 74.192C175.702 74.672 176.358 74.912 177.126 74.912C177.755 74.912 178.278 74.768 178.694 74.48C179.12 74.1813 179.419 73.7867 179.59 73.296H181.158C180.923 74.1387 180.454 74.8267 179.75 75.36C179.046 75.8827 178.171 76.144 177.126 76.144C176.294 76.144 175.547 75.9573 174.886 75.584C174.235 75.2107 173.723 74.6827 173.35 74C172.976 73.3067 172.79 72.5067 172.79 71.6C172.79 70.6933 172.971 69.8987 173.334 69.216C173.696 68.5333 174.203 68.0107 174.854 67.648C175.515 67.2747 176.272 67.088 177.126 67.088C177.958 67.088 178.694 67.2693 179.334 67.632C179.974 67.9947 180.464 68.496 180.806 69.136C181.158 69.7653 181.334 70.48 181.334 71.28ZM179.83 70.976C179.83 70.4213 179.707 69.9467 179.462 69.552C179.216 69.1467 178.88 68.8427 178.454 68.64C178.038 68.4267 177.574 68.32 177.062 68.32C176.326 68.32 175.696 68.5547 175.174 69.024C174.662 69.4933 174.368 70.144 174.294 70.976H179.83ZM190.807 67.232L185.527 80.128H184.023L185.751 75.904L182.215 67.232H183.831L186.583 74.336L189.303 67.232H190.807ZM208.217 67.232L205.481 76H203.977L201.865 69.04L199.753 76H198.249L195.497 67.232H196.985L199.001 74.592L201.177 67.232H202.665L204.793 74.608L206.777 67.232H208.217ZM210.414 65.808C210.136 65.808 209.902 65.712 209.71 65.52C209.518 65.328 209.422 65.0933 209.422 64.816C209.422 64.5387 209.518 64.304 209.71 64.112C209.902 63.92 210.136 63.824 210.414 63.824C210.68 63.824 210.904 63.92 211.086 64.112C211.278 64.304 211.374 64.5387 211.374 64.816C211.374 65.0933 211.278 65.328 211.086 65.52C210.904 65.712 210.68 65.808 210.414 65.808ZM211.118 67.232V76H209.662V67.232H211.118ZM215.055 64.16V76H213.599V64.16H215.055ZM218.993 64.16V76H217.537V64.16H218.993ZM227.516 68.432V73.6C227.516 74.0267 227.606 74.3307 227.788 74.512C227.969 74.6827 228.284 74.768 228.732 74.768H229.804V76H228.492C227.681 76 227.073 75.8133 226.668 75.44C226.262 75.0667 226.06 74.4533 226.06 73.6V68.432H224.924V67.232H226.06V65.024H227.516V67.232H229.804V68.432H227.516ZM235.92 67.072C236.581 67.072 237.179 67.216 237.712 67.504C238.245 67.7813 238.661 68.2027 238.96 68.768C239.269 69.3333 239.424 70.0213 239.424 70.832V76H237.984V71.04C237.984 70.1653 237.765 69.4987 237.328 69.04C236.891 68.5707 236.293 68.336 235.536 68.336C234.768 68.336 234.155 68.576 233.696 69.056C233.248 69.536 233.024 70.2347 233.024 71.152V76H231.568V64.16H233.024V68.48C233.312 68.032 233.707 67.6853 234.208 67.44C234.72 67.1947 235.291 67.072 235.92 67.072ZM249.802 71.28C249.802 71.5573 249.786 71.8507 249.754 72.16H242.746C242.8 73.024 243.093 73.7013 243.626 74.192C244.17 74.672 244.826 74.912 245.594 74.912C246.224 74.912 246.746 74.768 247.162 74.48C247.589 74.1813 247.888 73.7867 248.058 73.296H249.626C249.392 74.1387 248.922 74.8267 248.218 75.36C247.514 75.8827 246.64 76.144 245.594 76.144C244.762 76.144 244.016 75.9573 243.354 75.584C242.704 75.2107 242.192 74.6827 241.818 74C241.445 73.3067 241.258 72.5067 241.258 71.6C241.258 70.6933 241.44 69.8987 241.802 69.216C242.165 68.5333 242.672 68.0107 243.322 67.648C243.984 67.2747 244.741 67.088 245.594 67.088C246.426 67.088 247.162 67.2693 247.802 67.632C248.442 67.9947 248.933 68.496 249.274 69.136C249.626 69.7653 249.802 70.48 249.802 71.28ZM248.298 70.976C248.298 70.4213 248.176 69.9467 247.93 69.552C247.685 69.1467 247.349 68.8427 246.922 68.64C246.506 68.4267 246.042 68.32 245.53 68.32C244.794 68.32 244.165 68.5547 243.642 69.024C243.13 69.4933 242.837 70.144 242.762 70.976H248.298ZM255.996 67.072C257.063 67.072 257.927 67.3973 258.588 68.048C259.25 68.688 259.58 69.616 259.58 70.832V76H258.14V71.04C258.14 70.1653 257.922 69.4987 257.484 69.04C257.047 68.5707 256.45 68.336 255.692 68.336C254.924 68.336 254.311 68.576 253.852 69.056C253.404 69.536 253.18 70.2347 253.18 71.152V76H251.724V67.232H253.18V68.48C253.468 68.032 253.858 67.6853 254.348 67.44C254.85 67.1947 255.399 67.072 255.996 67.072ZM45.0786 89.584C45.0786 88.688 45.26 87.904 45.6226 87.232C45.9853 86.5493 46.4813 86.0213 47.1106 85.648C47.7506 85.2747 48.46 85.088 49.2386 85.088C50.0066 85.088 50.6733 85.2533 51.2386 85.584C51.804 85.9147 52.2253 86.3307 52.5026 86.832V85.232H53.9746V94H52.5026V92.368C52.2146 92.88 51.7826 93.3067 51.2066 93.648C50.6413 93.9787 49.98 94.144 49.2226 94.144C48.444 94.144 47.74 93.952 47.1106 93.568C46.4813 93.184 45.9853 92.6453 45.6226 91.952C45.26 91.2587 45.0786 90.4693 45.0786 89.584ZM52.5026 89.6C52.5026 88.9387 52.3693 88.3627 52.1026 87.872C51.836 87.3813 51.4733 87.008 51.0146 86.752C50.5666 86.4853 50.0706 86.352 49.5266 86.352C48.9826 86.352 48.4866 86.48 48.0386 86.736C47.5906 86.992 47.2333 87.3653 46.9666 87.856C46.7 88.3467 46.5666 88.9227 46.5666 89.584C46.5666 90.256 46.7 90.8427 46.9666 91.344C47.2333 91.8347 47.5906 92.2133 48.0386 92.48C48.4866 92.736 48.9826 92.864 49.5266 92.864C50.0706 92.864 50.5666 92.736 51.0146 92.48C51.4733 92.2133 51.836 91.8347 52.1026 91.344C52.3693 90.8427 52.5026 90.2613 52.5026 89.6ZM57.8911 86.848C58.1791 86.3467 58.6058 85.9307 59.1711 85.6C59.7471 85.2587 60.4138 85.088 61.1711 85.088C61.9498 85.088 62.6538 85.2747 63.2831 85.648C63.9231 86.0213 64.4245 86.5493 64.7871 87.232C65.1498 87.904 65.3311 88.688 65.3311 89.584C65.3311 90.4693 65.1498 91.2587 64.7871 91.952C64.4245 92.6453 63.9231 93.184 63.2831 93.568C62.6538 93.952 61.9498 94.144 61.1711 94.144C60.4245 94.144 59.7631 93.9787 59.1871 93.648C58.6218 93.3067 58.1898 92.8853 57.8911 92.384V98.16H56.4351V85.232H57.8911V86.848ZM63.8431 89.584C63.8431 88.9227 63.7098 88.3467 63.4431 87.856C63.1765 87.3653 62.8138 86.992 62.3551 86.736C61.9071 86.48 61.4111 86.352 60.8671 86.352C60.3338 86.352 59.8378 86.4853 59.3791 86.752C58.9311 87.008 58.5685 87.3867 58.2911 87.888C58.0245 88.3787 57.8911 88.9493 57.8911 89.6C57.8911 90.2613 58.0245 90.8427 58.2911 91.344C58.5685 91.8347 58.9311 92.2133 59.3791 92.48C59.8378 92.736 60.3338 92.864 60.8671 92.864C61.4111 92.864 61.9071 92.736 62.3551 92.48C62.8138 92.2133 63.1765 91.8347 63.4431 91.344C63.7098 90.8427 63.8431 90.256 63.8431 89.584ZM68.7036 86.848C68.9916 86.3467 69.4183 85.9307 69.9836 85.6C70.5596 85.2587 71.2263 85.088 71.9836 85.088C72.7623 85.088 73.4663 85.2747 74.0956 85.648C74.7356 86.0213 75.237 86.5493 75.5996 87.232C75.9623 87.904 76.1436 88.688 76.1436 89.584C76.1436 90.4693 75.9623 91.2587 75.5996 91.952C75.237 92.6453 74.7356 93.184 74.0956 93.568C73.4663 93.952 72.7623 94.144 71.9836 94.144C71.237 94.144 70.5756 93.9787 69.9996 93.648C69.4343 93.3067 69.0023 92.8853 68.7036 92.384V98.16H67.2476V85.232H68.7036V86.848ZM74.6556 89.584C74.6556 88.9227 74.5223 88.3467 74.2556 87.856C73.989 87.3653 73.6263 86.992 73.1676 86.736C72.7196 86.48 72.2236 86.352 71.6796 86.352C71.1463 86.352 70.6503 86.4853 70.1916 86.752C69.7436 87.008 69.381 87.3867 69.1036 87.888C68.837 88.3787 68.7036 88.9493 68.7036 89.6C68.7036 90.2613 68.837 90.8427 69.1036 91.344C69.381 91.8347 69.7436 92.2133 70.1916 92.48C70.6503 92.736 71.1463 92.864 71.6796 92.864C72.2236 92.864 72.7196 92.736 73.1676 92.48C73.6263 92.2133 73.989 91.8347 74.2556 91.344C74.5223 90.8427 74.6556 90.256 74.6556 89.584ZM86.0601 89.28C86.0601 89.5573 86.0441 89.8507 86.0121 90.16H79.0041C79.0575 91.024 79.3508 91.7013 79.8841 92.192C80.4281 92.672 81.0841 92.912 81.8521 92.912C82.4815 92.912 83.0041 92.768 83.4201 92.48C83.8468 92.1813 84.1455 91.7867 84.3161 91.296H85.8841C85.6495 92.1387 85.1801 92.8267 84.4761 93.36C83.7721 93.8827 82.8975 94.144 81.8521 94.144C81.0201 94.144 80.2735 93.9573 79.6121 93.584C78.9615 93.2107 78.4495 92.6827 78.0761 92C77.7028 91.3067 77.5161 90.5067 77.5161 89.6C77.5161 88.6933 77.6975 87.8987 78.0601 87.216C78.4228 86.5333 78.9295 86.0107 79.5801 85.648C80.2415 85.2747 80.9988 85.088 81.8521 85.088C82.6841 85.088 83.4201 85.2693 84.0601 85.632C84.7001 85.9947 85.1908 86.496 85.5321 87.136C85.8841 87.7653 86.0601 88.48 86.0601 89.28ZM84.5561 88.976C84.5561 88.4213 84.4335 87.9467 84.1881 87.552C83.9428 87.1467 83.6068 86.8427 83.1801 86.64C82.7641 86.4267 82.3001 86.32 81.7881 86.32C81.0521 86.32 80.4228 86.5547 79.9001 87.024C79.3881 87.4933 79.0948 88.144 79.0201 88.976H84.5561ZM87.438 89.584C87.438 88.688 87.6193 87.904 87.982 87.232C88.3447 86.5493 88.8407 86.0213 89.47 85.648C90.11 85.2747 90.8193 85.088 91.598 85.088C92.366 85.088 93.0327 85.2533 93.598 85.584C94.1633 85.9147 94.5847 86.3307 94.862 86.832V85.232H96.334V94H94.862V92.368C94.574 92.88 94.142 93.3067 93.566 93.648C93.0007 93.9787 92.3393 94.144 91.582 94.144C90.8033 94.144 90.0993 93.952 89.47 93.568C88.8407 93.184 88.3447 92.6453 87.982 91.952C87.6193 91.2587 87.438 90.4693 87.438 89.584ZM94.862 89.6C94.862 88.9387 94.7287 88.3627 94.462 87.872C94.1953 87.3813 93.8327 87.008 93.374 86.752C92.926 86.4853 92.43 86.352 91.886 86.352C91.342 86.352 90.846 86.48 90.398 86.736C89.95 86.992 89.5927 87.3653 89.326 87.856C89.0593 88.3467 88.926 88.9227 88.926 89.584C88.926 90.256 89.0593 90.8427 89.326 91.344C89.5927 91.8347 89.95 92.2133 90.398 92.48C90.846 92.736 91.342 92.864 91.886 92.864C92.43 92.864 92.926 92.736 93.374 92.48C93.8327 92.2133 94.1953 91.8347 94.462 91.344C94.7287 90.8427 94.862 90.2613 94.862 89.6ZM100.251 86.656C100.507 86.1547 100.869 85.7653 101.339 85.488C101.819 85.2107 102.4 85.072 103.083 85.072V86.576H102.699C101.067 86.576 100.251 87.4613 100.251 89.232V94H98.7945V85.232H100.251V86.656ZM112.853 94.144C112.032 94.144 111.285 93.9573 110.613 93.584C109.952 93.2107 109.429 92.6827 109.045 92C108.672 91.3067 108.485 90.5067 108.485 89.6C108.485 88.704 108.677 87.9147 109.061 87.232C109.456 86.5387 109.989 86.0107 110.661 85.648C111.333 85.2747 112.085 85.088 112.917 85.088C113.749 85.088 114.501 85.2747 115.173 85.648C115.845 86.0107 116.373 86.5333 116.757 87.216C117.152 87.8987 117.349 88.6933 117.349 89.6C117.349 90.5067 117.146 91.3067 116.741 92C116.346 92.6827 115.808 93.2107 115.125 93.584C114.442 93.9573 113.685 94.144 112.853 94.144ZM112.853 92.864C113.376 92.864 113.866 92.7413 114.325 92.496C114.784 92.2507 115.152 91.8827 115.429 91.392C115.717 90.9013 115.861 90.304 115.861 89.6C115.861 88.896 115.722 88.2987 115.445 87.808C115.168 87.3173 114.805 86.9547 114.357 86.72C113.909 86.4747 113.424 86.352 112.901 86.352C112.368 86.352 111.877 86.4747 111.429 86.72C110.992 86.9547 110.64 87.3173 110.373 87.808C110.106 88.2987 109.973 88.896 109.973 89.6C109.973 90.3147 110.101 90.9173 110.357 91.408C110.624 91.8987 110.976 92.2667 111.413 92.512C111.85 92.7467 112.33 92.864 112.853 92.864ZM123.535 85.072C124.602 85.072 125.466 85.3973 126.127 86.048C126.789 86.688 127.119 87.616 127.119 88.832V94H125.679V89.04C125.679 88.1653 125.461 87.4987 125.023 87.04C124.586 86.5707 123.989 86.336 123.231 86.336C122.463 86.336 121.85 86.576 121.391 87.056C120.943 87.536 120.719 88.2347 120.719 89.152V94H119.263V85.232H120.719V86.48C121.007 86.032 121.397 85.6853 121.887 85.44C122.389 85.1947 122.938 85.072 123.535 85.072ZM135.539 86.432V91.6C135.539 92.0267 135.63 92.3307 135.811 92.512C135.993 92.6827 136.307 92.768 136.755 92.768H137.827V94H136.515C135.705 94 135.097 93.8133 134.691 93.44C134.286 93.0667 134.083 92.4533 134.083 91.6V86.432H132.947V85.232H134.083V83.024H135.539V85.232H137.827V86.432H135.539ZM143.943 85.072C144.605 85.072 145.202 85.216 145.735 85.504C146.269 85.7813 146.685 86.2027 146.983 86.768C147.293 87.3333 147.447 88.0213 147.447 88.832V94H146.007V89.04C146.007 88.1653 145.789 87.4987 145.351 87.04C144.914 86.5707 144.317 86.336 143.559 86.336C142.791 86.336 142.178 86.576 141.719 87.056C141.271 87.536 141.047 88.2347 141.047 89.152V94H139.591V82.16H141.047V86.48C141.335 86.032 141.73 85.6853 142.231 85.44C142.743 85.1947 143.314 85.072 143.943 85.072ZM157.826 89.28C157.826 89.5573 157.81 89.8507 157.778 90.16H150.77C150.823 91.024 151.116 91.7013 151.65 92.192C152.194 92.672 152.85 92.912 153.618 92.912C154.247 92.912 154.77 92.768 155.186 92.48C155.612 92.1813 155.911 91.7867 156.082 91.296H157.65C157.415 92.1387 156.946 92.8267 156.242 93.36C155.538 93.8827 154.663 94.144 153.618 94.144C152.786 94.144 152.039 93.9573 151.378 93.584C150.727 93.2107 150.215 92.6827 149.842 92C149.468 91.3067 149.282 90.5067 149.282 89.6C149.282 88.6933 149.463 87.8987 149.826 87.216C150.188 86.5333 150.695 86.0107 151.346 85.648C152.007 85.2747 152.764 85.088 153.618 85.088C154.45 85.088 155.186 85.2693 155.826 85.632C156.466 85.9947 156.956 86.496 157.298 87.136C157.65 87.7653 157.826 88.48 157.826 89.28ZM156.322 88.976C156.322 88.4213 156.199 87.9467 155.954 87.552C155.708 87.1467 155.372 86.8427 154.946 86.64C154.53 86.4267 154.066 86.32 153.554 86.32C152.818 86.32 152.188 86.5547 151.666 87.024C151.154 87.4933 150.86 88.144 150.786 88.976H156.322ZM164.765 83.808C164.488 83.808 164.253 83.712 164.061 83.52C163.869 83.328 163.773 83.0933 163.773 82.816C163.773 82.5387 163.869 82.304 164.061 82.112C164.253 81.92 164.488 81.824 164.765 81.824C165.032 81.824 165.256 81.92 165.437 82.112C165.629 82.304 165.725 82.5387 165.725 82.816C165.725 83.0933 165.629 83.328 165.437 83.52C165.256 83.712 165.032 83.808 164.765 83.808ZM165.469 85.232V94H164.013V85.232H165.469ZM171.055 94.144C170.383 94.144 169.78 94.032 169.247 93.808C168.713 93.5733 168.292 93.2533 167.983 92.848C167.673 92.432 167.503 91.9573 167.471 91.424H168.975C169.017 91.8613 169.22 92.2187 169.583 92.496C169.956 92.7733 170.441 92.912 171.039 92.912C171.593 92.912 172.031 92.7893 172.351 92.544C172.671 92.2987 172.831 91.9893 172.831 91.616C172.831 91.232 172.66 90.9493 172.319 90.768C171.977 90.576 171.449 90.3893 170.735 90.208C170.084 90.0373 169.551 89.8667 169.135 89.696C168.729 89.5147 168.377 89.2533 168.079 88.912C167.791 88.56 167.647 88.1013 167.647 87.536C167.647 87.088 167.78 86.6773 168.047 86.304C168.313 85.9307 168.692 85.6373 169.183 85.424C169.673 85.2 170.233 85.088 170.863 85.088C171.833 85.088 172.617 85.3333 173.215 85.824C173.812 86.3147 174.132 86.9867 174.175 87.84H172.719C172.687 87.3813 172.5 87.0133 172.159 86.736C171.828 86.4587 171.38 86.32 170.815 86.32C170.292 86.32 169.876 86.432 169.567 86.656C169.257 86.88 169.103 87.1733 169.103 87.536C169.103 87.824 169.193 88.064 169.375 88.256C169.567 88.4373 169.801 88.5867 170.079 88.704C170.367 88.8107 170.761 88.9333 171.263 89.072C171.892 89.2427 172.404 89.4133 172.799 89.584C173.193 89.744 173.529 89.9893 173.807 90.32C174.095 90.6507 174.244 91.0827 174.255 91.616C174.255 92.096 174.121 92.528 173.855 92.912C173.588 93.296 173.209 93.6 172.719 93.824C172.239 94.0373 171.684 94.144 171.055 94.144ZM177.766 82.16V94H176.31V82.16H177.766ZM179.704 89.584C179.704 88.688 179.885 87.904 180.248 87.232C180.61 86.5493 181.106 86.0213 181.736 85.648C182.376 85.2747 183.085 85.088 183.864 85.088C184.632 85.088 185.298 85.2533 185.864 85.584C186.429 85.9147 186.85 86.3307 187.128 86.832V85.232H188.6V94H187.128V92.368C186.84 92.88 186.408 93.3067 185.832 93.648C185.266 93.9787 184.605 94.144 183.848 94.144C183.069 94.144 182.365 93.952 181.736 93.568C181.106 93.184 180.61 92.6453 180.248 91.952C179.885 91.2587 179.704 90.4693 179.704 89.584ZM187.128 89.6C187.128 88.9387 186.994 88.3627 186.728 87.872C186.461 87.3813 186.098 87.008 185.64 86.752C185.192 86.4853 184.696 86.352 184.152 86.352C183.608 86.352 183.112 86.48 182.664 86.736C182.216 86.992 181.858 87.3653 181.592 87.856C181.325 88.3467 181.192 88.9227 181.192 89.584C181.192 90.256 181.325 90.8427 181.592 91.344C181.858 91.8347 182.216 92.2133 182.664 92.48C183.112 92.736 183.608 92.864 184.152 92.864C184.696 92.864 185.192 92.736 185.64 92.48C186.098 92.2133 186.461 91.8347 186.728 91.344C186.994 90.8427 187.128 90.2613 187.128 89.6ZM195.332 85.072C196.399 85.072 197.263 85.3973 197.924 86.048C198.585 86.688 198.916 87.616 198.916 88.832V94H197.476V89.04C197.476 88.1653 197.257 87.4987 196.82 87.04C196.383 86.5707 195.785 86.336 195.028 86.336C194.26 86.336 193.647 86.576 193.188 87.056C192.74 87.536 192.516 88.2347 192.516 89.152V94H191.06V85.232H192.516V86.48C192.804 86.032 193.193 85.6853 193.684 85.44C194.185 85.1947 194.735 85.072 195.332 85.072ZM200.751 89.584C200.751 88.688 200.932 87.904 201.295 87.232C201.657 86.5493 202.153 86.0213 202.783 85.648C203.423 85.2747 204.137 85.088 204.927 85.088C205.609 85.088 206.244 85.248 206.831 85.568C207.417 85.8773 207.865 86.288 208.175 86.8V82.16H209.647V94H208.175V92.352C207.887 92.8747 207.46 93.3067 206.895 93.648C206.329 93.9787 205.668 94.144 204.911 94.144C204.132 94.144 203.423 93.952 202.783 93.568C202.153 93.184 201.657 92.6453 201.295 91.952C200.932 91.2587 200.751 90.4693 200.751 89.584ZM208.175 89.6C208.175 88.9387 208.041 88.3627 207.775 87.872C207.508 87.3813 207.145 87.008 206.687 86.752C206.239 86.4853 205.743 86.352 205.199 86.352C204.655 86.352 204.159 86.48 203.711 86.736C203.263 86.992 202.905 87.3653 202.639 87.856C202.372 88.3467 202.239 88.9227 202.239 89.584C202.239 90.256 202.372 90.8427 202.639 91.344C202.905 91.8347 203.263 92.2133 203.711 92.48C204.159 92.736 204.655 92.864 205.199 92.864C205.743 92.864 206.239 92.736 206.687 92.48C207.145 92.2133 207.508 91.8347 207.775 91.344C208.041 90.8427 208.175 90.2613 208.175 89.6ZM215.211 94.144C214.539 94.144 213.936 94.032 213.403 93.808C212.87 93.5733 212.448 93.2533 212.139 92.848C211.83 92.432 211.659 91.9573 211.627 91.424H213.131C213.174 91.8613 213.376 92.2187 213.739 92.496C214.112 92.7733 214.598 92.912 215.195 92.912C215.75 92.912 216.187 92.7893 216.507 92.544C216.827 92.2987 216.987 91.9893 216.987 91.616C216.987 91.232 216.816 90.9493 216.475 90.768C216.134 90.576 215.606 90.3893 214.891 90.208C214.24 90.0373 213.707 89.8667 213.291 89.696C212.886 89.5147 212.534 89.2533 212.235 88.912C211.947 88.56 211.803 88.1013 211.803 87.536C211.803 87.088 211.936 86.6773 212.203 86.304C212.47 85.9307 212.848 85.6373 213.339 85.424C213.83 85.2 214.39 85.088 215.019 85.088C215.99 85.088 216.774 85.3333 217.371 85.824C217.968 86.3147 218.288 86.9867 218.331 87.84H216.875C216.843 87.3813 216.656 87.0133 216.315 86.736C215.984 86.4587 215.536 86.32 214.971 86.32C214.448 86.32 214.032 86.432 213.723 86.656C213.414 86.88 213.259 87.1733 213.259 87.536C213.259 87.824 213.35 88.064 213.531 88.256C213.723 88.4373 213.958 88.5867 214.235 88.704C214.523 88.8107 214.918 88.9333 215.419 89.072C216.048 89.2427 216.56 89.4133 216.955 89.584C217.35 89.744 217.686 89.9893 217.963 90.32C218.251 90.6507 218.4 91.0827 218.411 91.616C218.411 92.096 218.278 92.528 218.011 92.912C217.744 93.296 217.366 93.6 216.875 93.824C216.395 94.0373 215.84 94.144 215.211 94.144ZM224.188 89.584C224.188 88.688 224.369 87.904 224.732 87.232C225.095 86.5493 225.591 86.0213 226.22 85.648C226.86 85.2747 227.569 85.088 228.348 85.088C229.116 85.088 229.783 85.2533 230.348 85.584C230.913 85.9147 231.335 86.3307 231.612 86.832V85.232H233.084V94H231.612V92.368C231.324 92.88 230.892 93.3067 230.316 93.648C229.751 93.9787 229.089 94.144 228.332 94.144C227.553 94.144 226.849 93.952 226.22 93.568C225.591 93.184 225.095 92.6453 224.732 91.952C224.369 91.2587 224.188 90.4693 224.188 89.584ZM231.612 89.6C231.612 88.9387 231.479 88.3627 231.212 87.872C230.945 87.3813 230.583 87.008 230.124 86.752C229.676 86.4853 229.18 86.352 228.636 86.352C228.092 86.352 227.596 86.48 227.148 86.736C226.7 86.992 226.343 87.3653 226.076 87.856C225.809 88.3467 225.676 88.9227 225.676 89.584C225.676 90.256 225.809 90.8427 226.076 91.344C226.343 91.8347 226.7 92.2133 227.148 92.48C227.596 92.736 228.092 92.864 228.636 92.864C229.18 92.864 229.676 92.736 230.124 92.48C230.583 92.2133 230.945 91.8347 231.212 91.344C231.479 90.8427 231.612 90.2613 231.612 89.6ZM237.001 86.864C237.299 86.3413 237.737 85.9147 238.312 85.584C238.889 85.2533 239.545 85.088 240.281 85.088C241.07 85.088 241.779 85.2747 242.409 85.648C243.038 86.0213 243.534 86.5493 243.897 87.232C244.259 87.904 244.441 88.688 244.441 89.584C244.441 90.4693 244.259 91.2587 243.897 91.952C243.534 92.6453 243.032 93.184 242.392 93.568C241.763 93.952 241.059 94.144 240.281 94.144C239.523 94.144 238.857 93.9787 238.281 93.648C237.715 93.3173 237.289 92.896 237.001 92.384V94H235.545V82.16H237.001V86.864ZM242.953 89.584C242.953 88.9227 242.819 88.3467 242.553 87.856C242.286 87.3653 241.923 86.992 241.465 86.736C241.017 86.48 240.521 86.352 239.977 86.352C239.443 86.352 238.947 86.4853 238.489 86.752C238.041 87.008 237.678 87.3867 237.401 87.888C237.134 88.3787 237.001 88.9493 237.001 89.6C237.001 90.2613 237.134 90.8427 237.401 91.344C237.678 91.8347 238.041 92.2133 238.489 92.48C238.947 92.736 239.443 92.864 239.977 92.864C240.521 92.864 241.017 92.736 241.465 92.48C241.923 92.2133 242.286 91.8347 242.553 91.344C242.819 90.8427 242.953 90.256 242.953 89.584ZM250.181 94.144C249.36 94.144 248.613 93.9573 247.941 93.584C247.28 93.2107 246.757 92.6827 246.373 92C246 91.3067 245.813 90.5067 245.813 89.6C245.813 88.704 246.005 87.9147 246.389 87.232C246.784 86.5387 247.317 86.0107 247.989 85.648C248.661 85.2747 249.413 85.088 250.245 85.088C251.077 85.088 251.829 85.2747 252.501 85.648C253.173 86.0107 253.701 86.5333 254.085 87.216C254.48 87.8987 254.677 88.6933 254.677 89.6C254.677 90.5067 254.474 91.3067 254.069 92C253.674 92.6827 253.136 93.2107 252.453 93.584C251.77 93.9573 251.013 94.144 250.181 94.144ZM250.181 92.864C250.704 92.864 251.194 92.7413 251.653 92.496C252.112 92.2507 252.48 91.8827 252.757 91.392C253.045 90.9013 253.189 90.304 253.189 89.6C253.189 88.896 253.05 88.2987 252.773 87.808C252.496 87.3173 252.133 86.9547 251.685 86.72C251.237 86.4747 250.752 86.352 250.229 86.352C249.696 86.352 249.205 86.4747 248.757 86.72C248.32 86.9547 247.968 87.3173 247.701 87.808C247.434 88.2987 247.301 88.896 247.301 89.6C247.301 90.3147 247.429 90.9173 247.685 91.408C247.952 91.8987 248.304 92.2667 248.741 92.512C249.178 92.7467 249.658 92.864 250.181 92.864ZM259.855 92.656L262.575 85.232H264.127L260.687 94H258.991L255.551 85.232H257.119L259.855 92.656ZM273.56 89.28C273.56 89.5573 273.544 89.8507 273.512 90.16H266.504C266.557 91.024 266.851 91.7013 267.384 92.192C267.928 92.672 268.584 92.912 269.352 92.912C269.981 92.912 270.504 92.768 270.92 92.48C271.347 92.1813 271.645 91.7867 271.816 91.296H273.384C273.149 92.1387 272.68 92.8267 271.976 93.36C271.272 93.8827 270.397 94.144 269.352 94.144C268.52 94.144 267.773 93.9573 267.112 93.584C266.461 93.2107 265.949 92.6827 265.576 92C265.203 91.3067 265.016 90.5067 265.016 89.6C265.016 88.6933 265.197 87.8987 265.56 87.216C265.923 86.5333 266.429 86.0107 267.08 85.648C267.741 85.2747 268.499 85.088 269.352 85.088C270.184 85.088 270.92 85.2693 271.56 85.632C272.2 85.9947 272.691 86.496 273.032 87.136C273.384 87.7653 273.56 88.48 273.56 89.28ZM272.056 88.976C272.056 88.4213 271.933 87.9467 271.688 87.552C271.443 87.1467 271.107 86.8427 270.68 86.64C270.264 86.4267 269.8 86.32 269.288 86.32C268.552 86.32 267.923 86.5547 267.4 87.024C266.888 87.4933 266.595 88.144 266.52 88.976H272.056ZM275.946 94.096C275.669 94.096 275.434 94 275.242 93.808C275.05 93.616 274.954 93.3813 274.954 93.104C274.954 92.8267 275.05 92.592 275.242 92.4C275.434 92.208 275.669 92.112 275.946 92.112C276.213 92.112 276.437 92.208 276.618 92.4C276.81 92.592 276.906 92.8267 276.906 93.104C276.906 93.3813 276.81 93.616 276.618 93.808C276.437 94 276.213 94.096 275.946 94.096Z" fill="#B0F1EA"/>
</svg>
