<svg width="408" height="168" viewBox="0 0 408 168" fill="none" xmlns="http://www.w3.org/2000/svg">
<path d="M41 40C41 17.9086 58.9086 0 81 0H368C390.091 0 408 17.9086 408 40V128C408 150.091 390.091 168 368 168H81C58.9086 168 41 150.091 41 128V40Z" fill="#2E4F72"/>
<path d="M2.47948 84.3755C1.61251 84.0694 1.58335 82.854 2.43464 82.5066L39.5851 67.3486C40.2429 67.0802 40.9629 67.5641 40.9629 68.2745L40.9629 96.5498C40.9629 97.2398 40.2806 97.7225 39.6299 97.4927L2.47948 84.3755Z" fill="#2E4F72"/>
<path d="M95.2818 52.416C95.2818 51.328 95.5271 50.352 96.0178 49.488C96.5084 48.6133 97.1751 47.9307 98.0178 47.44C98.8711 46.9493 99.8151 46.704 100.85 46.704C102.066 46.704 103.127 46.9973 104.034 47.584C104.94 48.1707 105.602 49.0027 106.018 50.08H104.274C103.964 49.408 103.516 48.8907 102.93 48.528C102.354 48.1653 101.66 47.984 100.85 47.984C100.071 47.984 99.3724 48.1653 98.7538 48.528C98.1351 48.8907 97.6498 49.408 97.2978 50.08C96.9458 50.7413 96.7698 51.52 96.7698 52.416C96.7698 53.3013 96.9458 54.08 97.2978 54.752C97.6498 55.4133 98.1351 55.9253 98.7538 56.288C99.3724 56.6507 100.071 56.832 100.85 56.832C101.66 56.832 102.354 56.656 102.93 56.304C103.516 55.9413 103.964 55.424 104.274 54.752H106.018C105.602 55.8187 104.94 56.6453 104.034 57.232C103.127 57.808 102.066 58.096 100.85 58.096C99.8151 58.096 98.8711 57.856 98.0178 57.376C97.1751 56.8853 96.5084 56.208 96.0178 55.344C95.5271 54.48 95.2818 53.504 95.2818 52.416ZM109.641 46.16V58H108.185V46.16H109.641ZM112.875 47.808C112.597 47.808 112.363 47.712 112.171 47.52C111.979 47.328 111.883 47.0933 111.883 46.816C111.883 46.5387 111.979 46.304 112.171 46.112C112.363 45.92 112.597 45.824 112.875 45.824C113.141 45.824 113.365 45.92 113.547 46.112C113.739 46.304 113.835 46.5387 113.835 46.816C113.835 47.0933 113.739 47.328 113.547 47.52C113.365 47.712 113.141 47.808 112.875 47.808ZM113.579 49.232V58H112.123V49.232H113.579ZM115.516 53.6C115.516 52.6933 115.697 51.904 116.06 51.232C116.423 50.5493 116.924 50.0213 117.564 49.648C118.215 49.2747 118.956 49.088 119.788 49.088C120.865 49.088 121.751 49.3493 122.444 49.872C123.148 50.3947 123.612 51.12 123.836 52.048H122.268C122.119 51.5147 121.825 51.0933 121.388 50.784C120.961 50.4747 120.428 50.32 119.788 50.32C118.956 50.32 118.284 50.608 117.772 51.184C117.26 51.7493 117.004 52.5547 117.004 53.6C117.004 54.656 117.26 55.472 117.772 56.048C118.284 56.624 118.956 56.912 119.788 56.912C120.428 56.912 120.961 56.7627 121.388 56.464C121.815 56.1653 122.108 55.7387 122.268 55.184H123.836C123.601 56.08 123.132 56.8 122.428 57.344C121.724 57.8773 120.844 58.144 119.788 58.144C118.956 58.144 118.215 57.9573 117.564 57.584C116.924 57.2107 116.423 56.6827 116.06 56C115.697 55.3173 115.516 54.5173 115.516 53.6ZM130.675 58L127.235 54.128V58H125.779V46.16H127.235V53.12L130.611 49.232H132.643L128.515 53.6L132.659 58H130.675ZM142.103 58.144C141.282 58.144 140.535 57.9573 139.863 57.584C139.202 57.2107 138.679 56.6827 138.295 56C137.922 55.3067 137.735 54.5067 137.735 53.6C137.735 52.704 137.927 51.9147 138.311 51.232C138.706 50.5387 139.239 50.0107 139.911 49.648C140.583 49.2747 141.335 49.088 142.167 49.088C142.999 49.088 143.751 49.2747 144.423 49.648C145.095 50.0107 145.623 50.5333 146.007 51.216C146.402 51.8987 146.599 52.6933 146.599 53.6C146.599 54.5067 146.396 55.3067 145.991 56C145.596 56.6827 145.058 57.2107 144.375 57.584C143.692 57.9573 142.935 58.144 142.103 58.144ZM142.103 56.864C142.626 56.864 143.116 56.7413 143.575 56.496C144.034 56.2507 144.402 55.8827 144.679 55.392C144.967 54.9013 145.111 54.304 145.111 53.6C145.111 52.896 144.972 52.2987 144.695 51.808C144.418 51.3173 144.055 50.9547 143.607 50.72C143.159 50.4747 142.674 50.352 142.151 50.352C141.618 50.352 141.127 50.4747 140.679 50.72C140.242 50.9547 139.89 51.3173 139.623 51.808C139.356 52.2987 139.223 52.896 139.223 53.6C139.223 54.3147 139.351 54.9173 139.607 55.408C139.874 55.8987 140.226 56.2667 140.663 56.512C141.1 56.7467 141.58 56.864 142.103 56.864ZM152.785 49.072C153.852 49.072 154.716 49.3973 155.377 50.048C156.039 50.688 156.369 51.616 156.369 52.832V58H154.929V53.04C154.929 52.1653 154.711 51.4987 154.273 51.04C153.836 50.5707 153.239 50.336 152.481 50.336C151.713 50.336 151.1 50.576 150.641 51.056C150.193 51.536 149.969 52.2347 149.969 53.152V58H148.513V49.232H149.969V50.48C150.257 50.032 150.647 49.6853 151.137 49.44C151.639 49.1947 152.188 49.072 152.785 49.072ZM164.789 50.432V55.6C164.789 56.0267 164.88 56.3307 165.061 56.512C165.243 56.6827 165.557 56.768 166.005 56.768H167.077V58H165.765C164.955 58 164.347 57.8133 163.941 57.44C163.536 57.0667 163.333 56.4533 163.333 55.6V50.432H162.197V49.232H163.333V47.024H164.789V49.232H167.077V50.432H164.789ZM173.193 49.072C173.855 49.072 174.452 49.216 174.985 49.504C175.519 49.7813 175.935 50.2027 176.233 50.768C176.543 51.3333 176.697 52.0213 176.697 52.832V58H175.257V53.04C175.257 52.1653 175.039 51.4987 174.601 51.04C174.164 50.5707 173.567 50.336 172.809 50.336C172.041 50.336 171.428 50.576 170.969 51.056C170.521 51.536 170.297 52.2347 170.297 53.152V58H168.841V46.16H170.297V50.48C170.585 50.032 170.98 49.6853 171.481 49.44C171.993 49.1947 172.564 49.072 173.193 49.072ZM187.076 53.28C187.076 53.5573 187.06 53.8507 187.028 54.16H180.02C180.073 55.024 180.366 55.7013 180.9 56.192C181.444 56.672 182.1 56.912 182.868 56.912C183.497 56.912 184.02 56.768 184.436 56.48C184.862 56.1813 185.161 55.7867 185.332 55.296H186.9C186.665 56.1387 186.196 56.8267 185.492 57.36C184.788 57.8827 183.913 58.144 182.868 58.144C182.036 58.144 181.289 57.9573 180.628 57.584C179.977 57.2107 179.465 56.6827 179.092 56C178.718 55.3067 178.532 54.5067 178.532 53.6C178.532 52.6933 178.713 51.8987 179.076 51.216C179.438 50.5333 179.945 50.0107 180.596 49.648C181.257 49.2747 182.014 49.088 182.868 49.088C183.7 49.088 184.436 49.2693 185.076 49.632C185.716 49.9947 186.206 50.496 186.548 51.136C186.9 51.7653 187.076 52.48 187.076 53.28ZM185.572 52.976C185.572 52.4213 185.449 51.9467 185.204 51.552C184.958 51.1467 184.622 50.8427 184.196 50.64C183.78 50.4267 183.316 50.32 182.804 50.32C182.068 50.32 181.438 50.5547 180.916 51.024C180.404 51.4933 180.11 52.144 180.036 52.976H185.572ZM194.719 50.864C195.018 50.3413 195.455 49.9147 196.031 49.584C196.607 49.2533 197.263 49.088 197.999 49.088C198.789 49.088 199.498 49.2747 200.127 49.648C200.757 50.0213 201.253 50.5493 201.615 51.232C201.978 51.904 202.159 52.688 202.159 53.584C202.159 54.4693 201.978 55.2587 201.615 55.952C201.253 56.6453 200.751 57.184 200.111 57.568C199.482 57.952 198.778 58.144 197.999 58.144C197.242 58.144 196.575 57.9787 195.999 57.648C195.434 57.3173 195.007 56.896 194.719 56.384V58H193.263V46.16H194.719V50.864ZM200.671 53.584C200.671 52.9227 200.538 52.3467 200.271 51.856C200.005 51.3653 199.642 50.992 199.183 50.736C198.735 50.48 198.239 50.352 197.695 50.352C197.162 50.352 196.666 50.4853 196.207 50.752C195.759 51.008 195.397 51.3867 195.119 51.888C194.853 52.3787 194.719 52.9493 194.719 53.6C194.719 54.2613 194.853 54.8427 195.119 55.344C195.397 55.8347 195.759 56.2133 196.207 56.48C196.666 56.736 197.162 56.864 197.695 56.864C198.239 56.864 198.735 56.736 199.183 56.48C199.642 56.2133 200.005 55.8347 200.271 55.344C200.538 54.8427 200.671 54.256 200.671 53.584ZM207.9 58.144C207.078 58.144 206.332 57.9573 205.66 57.584C204.998 57.2107 204.476 56.6827 204.092 56C203.718 55.3067 203.532 54.5067 203.532 53.6C203.532 52.704 203.724 51.9147 204.108 51.232C204.502 50.5387 205.036 50.0107 205.708 49.648C206.38 49.2747 207.132 49.088 207.964 49.088C208.796 49.088 209.548 49.2747 210.22 49.648C210.892 50.0107 211.42 50.5333 211.804 51.216C212.198 51.8987 212.396 52.6933 212.396 53.6C212.396 54.5067 212.193 55.3067 211.788 56C211.393 56.6827 210.854 57.2107 210.172 57.584C209.489 57.9573 208.732 58.144 207.9 58.144ZM207.9 56.864C208.422 56.864 208.913 56.7413 209.372 56.496C209.83 56.2507 210.198 55.8827 210.476 55.392C210.764 54.9013 210.908 54.304 210.908 53.6C210.908 52.896 210.769 52.2987 210.492 51.808C210.214 51.3173 209.852 50.9547 209.404 50.72C208.956 50.4747 208.47 50.352 207.948 50.352C207.414 50.352 206.924 50.4747 206.476 50.72C206.038 50.9547 205.686 51.3173 205.42 51.808C205.153 52.2987 205.02 52.896 205.02 53.6C205.02 54.3147 205.148 54.9173 205.404 55.408C205.67 55.8987 206.022 56.2667 206.46 56.512C206.897 56.7467 207.377 56.864 207.9 56.864ZM218.886 58L216.806 54.736L214.806 58H213.286L216.118 53.648L213.286 49.232H214.934L217.014 52.48L218.998 49.232H220.518L217.702 53.568L220.534 58H218.886ZM228.008 50.432V55.6C228.008 56.0267 228.099 56.3307 228.28 56.512C228.461 56.6827 228.776 56.768 229.224 56.768H230.296V58H228.984C228.173 58 227.565 57.8133 227.16 57.44C226.755 57.0667 226.552 56.4533 226.552 55.6V50.432H225.416V49.232H226.552V47.024H228.008V49.232H230.296V50.432H228.008ZM235.884 58.144C235.063 58.144 234.316 57.9573 233.644 57.584C232.983 57.2107 232.46 56.6827 232.076 56C231.703 55.3067 231.516 54.5067 231.516 53.6C231.516 52.704 231.708 51.9147 232.092 51.232C232.487 50.5387 233.02 50.0107 233.692 49.648C234.364 49.2747 235.116 49.088 235.948 49.088C236.78 49.088 237.532 49.2747 238.204 49.648C238.876 50.0107 239.404 50.5333 239.788 51.216C240.183 51.8987 240.38 52.6933 240.38 53.6C240.38 54.5067 240.177 55.3067 239.772 56C239.377 56.6827 238.839 57.2107 238.156 57.584C237.473 57.9573 236.716 58.144 235.884 58.144ZM235.884 56.864C236.407 56.864 236.897 56.7413 237.356 56.496C237.815 56.2507 238.183 55.8827 238.46 55.392C238.748 54.9013 238.892 54.304 238.892 53.6C238.892 52.896 238.753 52.2987 238.476 51.808C238.199 51.3173 237.836 50.9547 237.388 50.72C236.94 50.4747 236.455 50.352 235.932 50.352C235.399 50.352 234.908 50.4747 234.46 50.72C234.023 50.9547 233.671 51.3173 233.404 51.808C233.137 52.2987 233.004 52.896 233.004 53.6C233.004 54.3147 233.132 54.9173 233.388 55.408C233.655 55.8987 234.007 56.2667 234.444 56.512C234.881 56.7467 235.361 56.864 235.884 56.864ZM250.384 58.144C249.563 58.144 248.816 57.9573 248.144 57.584C247.483 57.2107 246.96 56.6827 246.576 56C246.203 55.3067 246.016 54.5067 246.016 53.6C246.016 52.704 246.208 51.9147 246.592 51.232C246.987 50.5387 247.52 50.0107 248.192 49.648C248.864 49.2747 249.616 49.088 250.448 49.088C251.28 49.088 252.032 49.2747 252.704 49.648C253.376 50.0107 253.904 50.5333 254.288 51.216C254.683 51.8987 254.88 52.6933 254.88 53.6C254.88 54.5067 254.677 55.3067 254.272 56C253.877 56.6827 253.339 57.2107 252.656 57.584C251.973 57.9573 251.216 58.144 250.384 58.144ZM250.384 56.864C250.907 56.864 251.397 56.7413 251.856 56.496C252.315 56.2507 252.683 55.8827 252.96 55.392C253.248 54.9013 253.392 54.304 253.392 53.6C253.392 52.896 253.253 52.2987 252.976 51.808C252.699 51.3173 252.336 50.9547 251.888 50.72C251.44 50.4747 250.955 50.352 250.432 50.352C249.899 50.352 249.408 50.4747 248.96 50.72C248.523 50.9547 248.171 51.3173 247.904 51.808C247.637 52.2987 247.504 52.896 247.504 53.6C247.504 54.3147 247.632 54.9173 247.888 55.408C248.155 55.8987 248.507 56.2667 248.944 56.512C249.381 56.7467 249.861 56.864 250.384 56.864ZM258.251 50.848C258.539 50.3467 258.965 49.9307 259.531 49.6C260.107 49.2587 260.773 49.088 261.531 49.088C262.309 49.088 263.013 49.2747 263.642 49.648C264.282 50.0213 264.784 50.5493 265.147 51.232C265.509 51.904 265.691 52.688 265.691 53.584C265.691 54.4693 265.509 55.2587 265.147 55.952C264.784 56.6453 264.282 57.184 263.642 57.568C263.013 57.952 262.309 58.144 261.531 58.144C260.784 58.144 260.123 57.9787 259.547 57.648C258.981 57.3067 258.549 56.8853 258.251 56.384V62.16H256.795V49.232H258.251V50.848ZM264.203 53.584C264.203 52.9227 264.069 52.3467 263.803 51.856C263.536 51.3653 263.173 50.992 262.715 50.736C262.267 50.48 261.771 50.352 261.227 50.352C260.693 50.352 260.197 50.4853 259.739 50.752C259.291 51.008 258.928 51.3867 258.651 51.888C258.384 52.3787 258.251 52.9493 258.251 53.6C258.251 54.2613 258.384 54.8427 258.651 55.344C258.928 55.8347 259.291 56.2133 259.739 56.48C260.197 56.736 260.693 56.864 261.227 56.864C261.771 56.864 262.267 56.736 262.715 56.48C263.173 56.2133 263.536 55.8347 263.803 55.344C264.069 54.8427 264.203 54.256 264.203 53.584ZM275.607 53.28C275.607 53.5573 275.591 53.8507 275.559 54.16H268.551C268.604 55.024 268.898 55.7013 269.431 56.192C269.975 56.672 270.631 56.912 271.399 56.912C272.028 56.912 272.551 56.768 272.967 56.48C273.394 56.1813 273.692 55.7867 273.863 55.296H275.431C275.196 56.1387 274.727 56.8267 274.023 57.36C273.319 57.8827 272.444 58.144 271.399 58.144C270.567 58.144 269.82 57.9573 269.159 57.584C268.508 57.2107 267.996 56.6827 267.623 56C267.25 55.3067 267.063 54.5067 267.063 53.6C267.063 52.6933 267.244 51.8987 267.607 51.216C267.97 50.5333 268.476 50.0107 269.127 49.648C269.788 49.2747 270.546 49.088 271.399 49.088C272.231 49.088 272.967 49.2693 273.607 49.632C274.247 49.9947 274.738 50.496 275.079 51.136C275.431 51.7653 275.607 52.48 275.607 53.28ZM274.103 52.976C274.103 52.4213 273.98 51.9467 273.735 51.552C273.49 51.1467 273.154 50.8427 272.727 50.64C272.311 50.4267 271.847 50.32 271.335 50.32C270.599 50.32 269.97 50.5547 269.447 51.024C268.935 51.4933 268.642 52.144 268.567 52.976H274.103ZM281.801 49.072C282.868 49.072 283.732 49.3973 284.393 50.048C285.054 50.688 285.385 51.616 285.385 52.832V58H283.945V53.04C283.945 52.1653 283.726 51.4987 283.289 51.04C282.852 50.5707 282.254 50.336 281.497 50.336C280.729 50.336 280.116 50.576 279.657 51.056C279.209 51.536 278.985 52.2347 278.985 53.152V58H277.529V49.232H278.985V50.48C279.273 50.032 279.662 49.6853 280.153 49.44C280.654 49.1947 281.204 49.072 281.801 49.072ZM293.805 50.432V55.6C293.805 56.0267 293.896 56.3307 294.077 56.512C294.258 56.6827 294.573 56.768 295.021 56.768H296.093V58H294.781C293.97 58 293.362 57.8133 292.957 57.44C292.552 57.0667 292.349 56.4533 292.349 55.6V50.432H291.213V49.232H292.349V47.024H293.805V49.232H296.093V50.432H293.805ZM302.209 49.072C302.87 49.072 303.468 49.216 304.001 49.504C304.534 49.7813 304.95 50.2027 305.249 50.768C305.558 51.3333 305.713 52.0213 305.713 52.832V58H304.273V53.04C304.273 52.1653 304.054 51.4987 303.617 51.04C303.18 50.5707 302.582 50.336 301.825 50.336C301.057 50.336 300.444 50.576 299.985 51.056C299.537 51.536 299.313 52.2347 299.313 53.152V58H297.857V46.16H299.313V50.48C299.601 50.032 299.996 49.6853 300.497 49.44C301.009 49.1947 301.58 49.072 302.209 49.072ZM316.091 53.28C316.091 53.5573 316.075 53.8507 316.043 54.16H309.035C309.089 55.024 309.382 55.7013 309.915 56.192C310.459 56.672 311.115 56.912 311.883 56.912C312.513 56.912 313.035 56.768 313.451 56.48C313.878 56.1813 314.177 55.7867 314.347 55.296H315.915C315.681 56.1387 315.211 56.8267 314.507 57.36C313.803 57.8827 312.929 58.144 311.883 58.144C311.051 58.144 310.305 57.9573 309.643 57.584C308.993 57.2107 308.481 56.6827 308.107 56C307.734 55.3067 307.547 54.5067 307.547 53.6C307.547 52.6933 307.729 51.8987 308.091 51.216C308.454 50.5333 308.961 50.0107 309.611 49.648C310.273 49.2747 311.03 49.088 311.883 49.088C312.715 49.088 313.451 49.2693 314.091 49.632C314.731 49.9947 315.222 50.496 315.563 51.136C315.915 51.7653 316.091 52.48 316.091 53.28ZM314.587 52.976C314.587 52.4213 314.465 51.9467 314.219 51.552C313.974 51.1467 313.638 50.8427 313.211 50.64C312.795 50.4267 312.331 50.32 311.819 50.32C311.083 50.32 310.454 50.5547 309.931 51.024C309.419 51.4933 309.126 52.144 309.051 52.976H314.587ZM325.847 50.432H324.007V58H322.551V50.432H321.415V49.232H322.551V48.608C322.551 47.6267 322.802 46.912 323.303 46.464C323.815 46.0053 324.631 45.776 325.751 45.776V46.992C325.111 46.992 324.658 47.12 324.391 47.376C324.135 47.6213 324.007 48.032 324.007 48.608V49.232H325.847V50.432ZM328.297 47.808C328.019 47.808 327.785 47.712 327.593 47.52C327.401 47.328 327.305 47.0933 327.305 46.816C327.305 46.5387 327.401 46.304 327.593 46.112C327.785 45.92 328.019 45.824 328.297 45.824C328.563 45.824 328.787 45.92 328.969 46.112C329.161 46.304 329.257 46.5387 329.257 46.816C329.257 47.0933 329.161 47.328 328.969 47.52C328.787 47.712 328.563 47.808 328.297 47.808ZM329.001 49.232V58H327.545V49.232H329.001ZM332.938 50.656C333.194 50.1547 333.557 49.7653 334.026 49.488C334.506 49.2107 335.087 49.072 335.77 49.072V50.576H335.386C333.754 50.576 332.938 51.4613 332.938 53.232V58H331.482V49.232H332.938V50.656ZM340.555 58.144C339.883 58.144 339.28 58.032 338.747 57.808C338.213 57.5733 337.792 57.2533 337.483 56.848C337.173 56.432 337.003 55.9573 336.971 55.424H338.475C338.517 55.8613 338.72 56.2187 339.083 56.496C339.456 56.7733 339.941 56.912 340.539 56.912C341.093 56.912 341.531 56.7893 341.851 56.544C342.171 56.2987 342.331 55.9893 342.331 55.616C342.331 55.232 342.16 54.9493 341.819 54.768C341.477 54.576 340.949 54.3893 340.235 54.208C339.584 54.0373 339.051 53.8667 338.635 53.696C338.229 53.5147 337.877 53.2533 337.579 52.912C337.291 52.56 337.147 52.1013 337.147 51.536C337.147 51.088 337.28 50.6773 337.547 50.304C337.813 49.9307 338.192 49.6373 338.683 49.424C339.173 49.2 339.733 49.088 340.363 49.088C341.333 49.088 342.117 49.3333 342.715 49.824C343.312 50.3147 343.632 50.9867 343.675 51.84H342.219C342.187 51.3813 342 51.0133 341.659 50.736C341.328 50.4587 340.88 50.32 340.315 50.32C339.792 50.32 339.376 50.432 339.067 50.656C338.757 50.88 338.603 51.1733 338.603 51.536C338.603 51.824 338.693 52.064 338.875 52.256C339.067 52.4373 339.301 52.5867 339.579 52.704C339.867 52.8107 340.261 52.9333 340.763 53.072C341.392 53.2427 341.904 53.4133 342.299 53.584C342.693 53.744 343.029 53.9893 343.307 54.32C343.595 54.6507 343.744 55.0827 343.755 55.616C343.755 56.096 343.621 56.528 343.355 56.912C343.088 57.296 342.709 57.6 342.219 57.824C341.739 58.0373 341.184 58.144 340.555 58.144ZM347.586 50.432V55.6C347.586 56.0267 347.677 56.3307 347.858 56.512C348.039 56.6827 348.354 56.768 348.802 56.768H349.874V58H348.562C347.751 58 347.143 57.8133 346.738 57.44C346.333 57.0667 346.13 56.4533 346.13 55.6V50.432H344.994V49.232H346.13V47.024H347.586V49.232H349.874V50.432H347.586ZM97.438 64.16V76H95.982V64.16H97.438ZM107.92 71.28C107.92 71.5573 107.904 71.8507 107.872 72.16H100.864C100.917 73.024 101.21 73.7013 101.744 74.192C102.288 74.672 102.944 74.912 103.712 74.912C104.341 74.912 104.864 74.768 105.28 74.48C105.706 74.1813 106.005 73.7867 106.176 73.296H107.744C107.509 74.1387 107.04 74.8267 106.336 75.36C105.632 75.8827 104.757 76.144 103.712 76.144C102.88 76.144 102.133 75.9573 101.472 75.584C100.821 75.2107 100.309 74.6827 99.9355 74C99.5622 73.3067 99.3755 72.5067 99.3755 71.6C99.3755 70.6933 99.5568 69.8987 99.9195 69.216C100.282 68.5333 100.789 68.0107 101.44 67.648C102.101 67.2747 102.858 67.088 103.712 67.088C104.544 67.088 105.28 67.2693 105.92 67.632C106.56 67.9947 107.05 68.496 107.392 69.136C107.744 69.7653 107.92 70.48 107.92 71.28ZM106.416 70.976C106.416 70.4213 106.293 69.9467 106.048 69.552C105.802 69.1467 105.466 68.8427 105.04 68.64C104.624 68.4267 104.16 68.32 103.648 68.32C102.912 68.32 102.282 68.5547 101.76 69.024C101.248 69.4933 100.954 70.144 100.88 70.976H106.416ZM112.945 76.144C112.273 76.144 111.671 76.032 111.137 75.808C110.604 75.5733 110.183 75.2533 109.873 74.848C109.564 74.432 109.393 73.9573 109.361 73.424H110.865C110.908 73.8613 111.111 74.2187 111.473 74.496C111.847 74.7733 112.332 74.912 112.929 74.912C113.484 74.912 113.921 74.7893 114.241 74.544C114.561 74.2987 114.721 73.9893 114.721 73.616C114.721 73.232 114.551 72.9493 114.209 72.768C113.868 72.576 113.34 72.3893 112.625 72.208C111.975 72.0373 111.441 71.8667 111.025 71.696C110.62 71.5147 110.268 71.2533 109.969 70.912C109.681 70.56 109.537 70.1013 109.537 69.536C109.537 69.088 109.671 68.6773 109.937 68.304C110.204 67.9307 110.583 67.6373 111.073 67.424C111.564 67.2 112.124 67.088 112.753 67.088C113.724 67.088 114.508 67.3333 115.105 67.824C115.703 68.3147 116.023 68.9867 116.065 69.84H114.609C114.577 69.3813 114.391 69.0133 114.049 68.736C113.719 68.4587 113.271 68.32 112.705 68.32C112.183 68.32 111.767 68.432 111.457 68.656C111.148 68.88 110.993 69.1733 110.993 69.536C110.993 69.824 111.084 70.064 111.265 70.256C111.457 70.4373 111.692 70.5867 111.969 70.704C112.257 70.8107 112.652 70.9333 113.153 71.072C113.783 71.2427 114.295 71.4133 114.689 71.584C115.084 71.744 115.42 71.9893 115.697 72.32C115.985 72.6507 116.135 73.0827 116.145 73.616C116.145 74.096 116.012 74.528 115.745 74.912C115.479 75.296 115.1 75.6 114.609 75.824C114.129 76.0373 113.575 76.144 112.945 76.144ZM121.305 76.144C120.633 76.144 120.03 76.032 119.497 75.808C118.963 75.5733 118.542 75.2533 118.233 74.848C117.923 74.432 117.753 73.9573 117.721 73.424H119.225C119.267 73.8613 119.47 74.2187 119.833 74.496C120.206 74.7733 120.691 74.912 121.289 74.912C121.843 74.912 122.281 74.7893 122.601 74.544C122.921 74.2987 123.081 73.9893 123.081 73.616C123.081 73.232 122.91 72.9493 122.569 72.768C122.227 72.576 121.699 72.3893 120.985 72.208C120.334 72.0373 119.801 71.8667 119.385 71.696C118.979 71.5147 118.627 71.2533 118.329 70.912C118.041 70.56 117.897 70.1013 117.897 69.536C117.897 69.088 118.03 68.6773 118.297 68.304C118.563 67.9307 118.942 67.6373 119.433 67.424C119.923 67.2 120.483 67.088 121.113 67.088C122.083 67.088 122.867 67.3333 123.465 67.824C124.062 68.3147 124.382 68.9867 124.425 69.84H122.969C122.937 69.3813 122.75 69.0133 122.409 68.736C122.078 68.4587 121.63 68.32 121.065 68.32C120.542 68.32 120.126 68.432 119.817 68.656C119.507 68.88 119.353 69.1733 119.353 69.536C119.353 69.824 119.443 70.064 119.625 70.256C119.817 70.4373 120.051 70.5867 120.329 70.704C120.617 70.8107 121.011 70.9333 121.513 71.072C122.142 71.2427 122.654 71.4133 123.049 71.584C123.443 71.744 123.779 71.9893 124.057 72.32C124.345 72.6507 124.494 73.0827 124.505 73.616C124.505 74.096 124.371 74.528 124.105 74.912C123.838 75.296 123.459 75.6 122.969 75.824C122.489 76.0373 121.934 76.144 121.305 76.144ZM130.384 76.144C129.563 76.144 128.816 75.9573 128.144 75.584C127.483 75.2107 126.96 74.6827 126.576 74C126.203 73.3067 126.016 72.5067 126.016 71.6C126.016 70.704 126.208 69.9147 126.592 69.232C126.987 68.5387 127.52 68.0107 128.192 67.648C128.864 67.2747 129.616 67.088 130.448 67.088C131.28 67.088 132.032 67.2747 132.704 67.648C133.376 68.0107 133.904 68.5333 134.288 69.216C134.683 69.8987 134.88 70.6933 134.88 71.6C134.88 72.5067 134.677 73.3067 134.272 74C133.877 74.6827 133.339 75.2107 132.656 75.584C131.973 75.9573 131.216 76.144 130.384 76.144ZM130.384 74.864C130.907 74.864 131.397 74.7413 131.856 74.496C132.315 74.2507 132.683 73.8827 132.96 73.392C133.248 72.9013 133.392 72.304 133.392 71.6C133.392 70.896 133.253 70.2987 132.976 69.808C132.699 69.3173 132.336 68.9547 131.888 68.72C131.44 68.4747 130.955 68.352 130.432 68.352C129.899 68.352 129.408 68.4747 128.96 68.72C128.523 68.9547 128.171 69.3173 127.904 69.808C127.637 70.2987 127.504 70.896 127.504 71.6C127.504 72.3147 127.632 72.9173 127.888 73.408C128.155 73.8987 128.507 74.2667 128.944 74.512C129.381 74.7467 129.861 74.864 130.384 74.864ZM141.067 67.072C142.133 67.072 142.997 67.3973 143.659 68.048C144.32 68.688 144.651 69.616 144.651 70.832V76H143.211V71.04C143.211 70.1653 142.992 69.4987 142.555 69.04C142.117 68.5707 141.52 68.336 140.763 68.336C139.995 68.336 139.381 68.576 138.923 69.056C138.475 69.536 138.251 70.2347 138.251 71.152V76H136.795V67.232H138.251V68.48C138.539 68.032 138.928 67.6853 139.419 67.44C139.92 67.1947 140.469 67.072 141.067 67.072ZM148.533 73.984L146.741 78.288H145.765L146.933 73.984H148.533ZM156.242 68.432V73.6C156.242 74.0267 156.333 74.3307 156.514 74.512C156.696 74.6827 157.01 74.768 157.458 74.768H158.53V76H157.218C156.408 76 155.8 75.8133 155.394 75.44C154.989 75.0667 154.786 74.4533 154.786 73.6V68.432H153.65V67.232H154.786V65.024H156.242V67.232H158.53V68.432H156.242ZM164.647 67.072C165.308 67.072 165.905 67.216 166.439 67.504C166.972 67.7813 167.388 68.2027 167.687 68.768C167.996 69.3333 168.151 70.0213 168.151 70.832V76H166.711V71.04C166.711 70.1653 166.492 69.4987 166.055 69.04C165.617 68.5707 165.02 68.336 164.263 68.336C163.495 68.336 162.881 68.576 162.423 69.056C161.975 69.536 161.751 70.2347 161.751 71.152V76H160.295V64.16H161.751V68.48C162.039 68.032 162.433 67.6853 162.935 67.44C163.447 67.1947 164.017 67.072 164.647 67.072ZM178.529 71.28C178.529 71.5573 178.513 71.8507 178.481 72.16H171.473C171.526 73.024 171.82 73.7013 172.353 74.192C172.897 74.672 173.553 74.912 174.321 74.912C174.95 74.912 175.473 74.768 175.889 74.48C176.316 74.1813 176.614 73.7867 176.785 73.296H178.353C178.118 74.1387 177.649 74.8267 176.945 75.36C176.241 75.8827 175.366 76.144 174.321 76.144C173.489 76.144 172.742 75.9573 172.081 75.584C171.43 75.2107 170.918 74.6827 170.545 74C170.172 73.3067 169.985 72.5067 169.985 71.6C169.985 70.6933 170.166 69.8987 170.529 69.216C170.892 68.5333 171.398 68.0107 172.049 67.648C172.71 67.2747 173.468 67.088 174.321 67.088C175.153 67.088 175.889 67.2693 176.529 67.632C177.169 67.9947 177.66 68.496 178.001 69.136C178.353 69.7653 178.529 70.48 178.529 71.28ZM177.025 70.976C177.025 70.4213 176.902 69.9467 176.657 69.552C176.412 69.1467 176.076 68.8427 175.649 68.64C175.233 68.4267 174.769 68.32 174.257 68.32C173.521 68.32 172.892 68.5547 172.369 69.024C171.857 69.4933 171.564 70.144 171.489 70.976H177.025ZM184.723 67.072C185.789 67.072 186.653 67.3973 187.315 68.048C187.976 68.688 188.307 69.616 188.307 70.832V76H186.867V71.04C186.867 70.1653 186.648 69.4987 186.211 69.04C185.773 68.5707 185.176 68.336 184.419 68.336C183.651 68.336 183.037 68.576 182.579 69.056C182.131 69.536 181.907 70.2347 181.907 71.152V76H180.451V67.232H181.907V68.48C182.195 68.032 182.584 67.6853 183.075 67.44C183.576 67.1947 184.125 67.072 184.723 67.072ZM194.407 71.6C194.407 70.6933 194.588 69.904 194.951 69.232C195.313 68.5493 195.815 68.0213 196.455 67.648C197.105 67.2747 197.847 67.088 198.679 67.088C199.756 67.088 200.641 67.3493 201.335 67.872C202.039 68.3947 202.503 69.12 202.727 70.048H201.159C201.009 69.5147 200.716 69.0933 200.279 68.784C199.852 68.4747 199.319 68.32 198.679 68.32C197.847 68.32 197.175 68.608 196.663 69.184C196.151 69.7493 195.895 70.5547 195.895 71.6C195.895 72.656 196.151 73.472 196.663 74.048C197.175 74.624 197.847 74.912 198.679 74.912C199.319 74.912 199.852 74.7627 200.279 74.464C200.705 74.1653 200.999 73.7387 201.159 73.184H202.727C202.492 74.08 202.023 74.8 201.319 75.344C200.615 75.8773 199.735 76.144 198.679 76.144C197.847 76.144 197.105 75.9573 196.455 75.584C195.815 75.2107 195.313 74.6827 194.951 74C194.588 73.3173 194.407 72.5173 194.407 71.6ZM208.494 76.144C207.672 76.144 206.926 75.9573 206.254 75.584C205.592 75.2107 205.07 74.6827 204.686 74C204.312 73.3067 204.126 72.5067 204.126 71.6C204.126 70.704 204.318 69.9147 204.702 69.232C205.096 68.5387 205.63 68.0107 206.302 67.648C206.974 67.2747 207.726 67.088 208.558 67.088C209.39 67.088 210.142 67.2747 210.814 67.648C211.486 68.0107 212.014 68.5333 212.398 69.216C212.792 69.8987 212.99 70.6933 212.99 71.6C212.99 72.5067 212.787 73.3067 212.382 74C211.987 74.6827 211.448 75.2107 210.766 75.584C210.083 75.9573 209.326 76.144 208.494 76.144ZM208.494 74.864C209.016 74.864 209.507 74.7413 209.966 74.496C210.424 74.2507 210.792 73.8827 211.07 73.392C211.358 72.9013 211.502 72.304 211.502 71.6C211.502 70.896 211.363 70.2987 211.086 69.808C210.808 69.3173 210.446 68.9547 209.998 68.72C209.55 68.4747 209.064 68.352 208.542 68.352C208.008 68.352 207.518 68.4747 207.07 68.72C206.632 68.9547 206.28 69.3173 206.014 69.808C205.747 70.2987 205.614 70.896 205.614 71.6C205.614 72.3147 205.742 72.9173 205.998 73.408C206.264 73.8987 206.616 74.2667 207.054 74.512C207.491 74.7467 207.971 74.864 208.494 74.864ZM225.448 67.072C226.131 67.072 226.739 67.216 227.272 67.504C227.805 67.7813 228.227 68.2027 228.536 68.768C228.845 69.3333 229 70.0213 229 70.832V76H227.56V71.04C227.56 70.1653 227.341 69.4987 226.904 69.04C226.477 68.5707 225.896 68.336 225.16 68.336C224.403 68.336 223.8 68.5813 223.352 69.072C222.904 69.552 222.68 70.2507 222.68 71.168V76H221.24V71.04C221.24 70.1653 221.021 69.4987 220.584 69.04C220.157 68.5707 219.576 68.336 218.84 68.336C218.083 68.336 217.48 68.5813 217.032 69.072C216.584 69.552 216.36 70.2507 216.36 71.168V76H214.904V67.232H216.36V68.496C216.648 68.0373 217.032 67.6853 217.512 67.44C218.003 67.1947 218.541 67.072 219.128 67.072C219.864 67.072 220.515 67.2373 221.08 67.568C221.645 67.8987 222.067 68.384 222.344 69.024C222.589 68.4053 222.995 67.9253 223.56 67.584C224.125 67.2427 224.755 67.072 225.448 67.072ZM232.844 68.848C233.132 68.3467 233.559 67.9307 234.124 67.6C234.7 67.2587 235.367 67.088 236.124 67.088C236.903 67.088 237.607 67.2747 238.236 67.648C238.876 68.0213 239.378 68.5493 239.74 69.232C240.103 69.904 240.284 70.688 240.284 71.584C240.284 72.4693 240.103 73.2587 239.74 73.952C239.378 74.6453 238.876 75.184 238.236 75.568C237.607 75.952 236.903 76.144 236.124 76.144C235.378 76.144 234.716 75.9787 234.14 75.648C233.575 75.3067 233.143 74.8853 232.844 74.384V80.16H231.388V67.232H232.844V68.848ZM238.796 71.584C238.796 70.9227 238.663 70.3467 238.396 69.856C238.13 69.3653 237.767 68.992 237.308 68.736C236.86 68.48 236.364 68.352 235.82 68.352C235.287 68.352 234.791 68.4853 234.332 68.752C233.884 69.008 233.522 69.3867 233.244 69.888C232.978 70.3787 232.844 70.9493 232.844 71.6C232.844 72.2613 232.978 72.8427 233.244 73.344C233.522 73.8347 233.884 74.2133 234.332 74.48C234.791 74.736 235.287 74.864 235.82 74.864C236.364 74.864 236.86 74.736 237.308 74.48C237.767 74.2133 238.13 73.8347 238.396 73.344C238.663 72.8427 238.796 72.256 238.796 71.584ZM243.657 64.16V76H242.201V64.16H243.657ZM254.138 71.28C254.138 71.5573 254.122 71.8507 254.09 72.16H247.082C247.136 73.024 247.429 73.7013 247.962 74.192C248.506 74.672 249.162 74.912 249.93 74.912C250.56 74.912 251.082 74.768 251.498 74.48C251.925 74.1813 252.224 73.7867 252.394 73.296H253.962C253.728 74.1387 253.258 74.8267 252.554 75.36C251.85 75.8827 250.976 76.144 249.93 76.144C249.098 76.144 248.352 75.9573 247.69 75.584C247.04 75.2107 246.528 74.6827 246.154 74C245.781 73.3067 245.594 72.5067 245.594 71.6C245.594 70.6933 245.776 69.8987 246.138 69.216C246.501 68.5333 247.008 68.0107 247.658 67.648C248.32 67.2747 249.077 67.088 249.93 67.088C250.762 67.088 251.498 67.2693 252.138 67.632C252.778 67.9947 253.269 68.496 253.61 69.136C253.962 69.7653 254.138 70.48 254.138 71.28ZM252.634 70.976C252.634 70.4213 252.512 69.9467 252.266 69.552C252.021 69.1467 251.685 68.8427 251.258 68.64C250.842 68.4267 250.378 68.32 249.866 68.32C249.13 68.32 248.501 68.5547 247.978 69.024C247.466 69.4933 247.173 70.144 247.098 70.976H252.634ZM257.836 68.432V73.6C257.836 74.0267 257.927 74.3307 258.108 74.512C258.289 74.6827 258.604 74.768 259.052 74.768H260.124V76H258.812C258.001 76 257.393 75.8133 256.988 75.44C256.583 75.0667 256.38 74.4533 256.38 73.6V68.432H255.244V67.232H256.38V65.024H257.836V67.232H260.124V68.432H257.836ZM269.888 71.28C269.888 71.5573 269.872 71.8507 269.84 72.16H262.832C262.886 73.024 263.179 73.7013 263.712 74.192C264.256 74.672 264.912 74.912 265.68 74.912C266.31 74.912 266.832 74.768 267.248 74.48C267.675 74.1813 267.974 73.7867 268.144 73.296H269.712C269.478 74.1387 269.008 74.8267 268.304 75.36C267.6 75.8827 266.726 76.144 265.68 76.144C264.848 76.144 264.102 75.9573 263.44 75.584C262.79 75.2107 262.278 74.6827 261.904 74C261.531 73.3067 261.344 72.5067 261.344 71.6C261.344 70.6933 261.526 69.8987 261.888 69.216C262.251 68.5333 262.758 68.0107 263.408 67.648C264.07 67.2747 264.827 67.088 265.68 67.088C266.512 67.088 267.248 67.2693 267.888 67.632C268.528 67.9947 269.019 68.496 269.36 69.136C269.712 69.7653 269.888 70.48 269.888 71.28ZM268.384 70.976C268.384 70.4213 268.262 69.9467 268.016 69.552C267.771 69.1467 267.435 68.8427 267.008 68.64C266.592 68.4267 266.128 68.32 265.616 68.32C264.88 68.32 264.251 68.5547 263.728 69.024C263.216 69.4933 262.923 70.144 262.848 70.976H268.384ZM277.852 68.432V73.6C277.852 74.0267 277.942 74.3307 278.124 74.512C278.305 74.6827 278.62 74.768 279.068 74.768H280.14V76H278.828C278.017 76 277.409 75.8133 277.004 75.44C276.598 75.0667 276.396 74.4533 276.396 73.6V68.432H275.26V67.232H276.396V65.024H277.852V67.232H280.14V68.432H277.852ZM286.256 67.072C286.917 67.072 287.515 67.216 288.048 67.504C288.581 67.7813 288.997 68.2027 289.296 68.768C289.605 69.3333 289.76 70.0213 289.76 70.832V76H288.32V71.04C288.32 70.1653 288.101 69.4987 287.664 69.04C287.227 68.5707 286.629 68.336 285.872 68.336C285.104 68.336 284.491 68.576 284.032 69.056C283.584 69.536 283.36 70.2347 283.36 71.152V76H281.904V64.16H283.36V68.48C283.648 68.032 284.043 67.6853 284.544 67.44C285.056 67.1947 285.627 67.072 286.256 67.072ZM300.138 71.28C300.138 71.5573 300.122 71.8507 300.09 72.16H293.082C293.136 73.024 293.429 73.7013 293.962 74.192C294.506 74.672 295.162 74.912 295.93 74.912C296.56 74.912 297.082 74.768 297.498 74.48C297.925 74.1813 298.224 73.7867 298.394 73.296H299.962C299.728 74.1387 299.258 74.8267 298.554 75.36C297.85 75.8827 296.976 76.144 295.93 76.144C295.098 76.144 294.352 75.9573 293.69 75.584C293.04 75.2107 292.528 74.6827 292.154 74C291.781 73.3067 291.594 72.5067 291.594 71.6C291.594 70.6933 291.776 69.8987 292.138 69.216C292.501 68.5333 293.008 68.0107 293.658 67.648C294.32 67.2747 295.077 67.088 295.93 67.088C296.762 67.088 297.498 67.2693 298.138 67.632C298.778 67.9947 299.269 68.496 299.61 69.136C299.962 69.7653 300.138 70.48 300.138 71.28ZM298.634 70.976C298.634 70.4213 298.512 69.9467 298.266 69.552C298.021 69.1467 297.685 68.8427 297.258 68.64C296.842 68.4267 296.378 68.32 295.866 68.32C295.13 68.32 294.501 68.5547 293.978 69.024C293.466 69.4933 293.173 70.144 293.098 70.976H298.634ZM305.782 71.584C305.782 70.688 305.963 69.904 306.326 69.232C306.688 68.5493 307.184 68.0213 307.814 67.648C308.454 67.2747 309.168 67.088 309.958 67.088C310.715 67.088 311.376 67.2587 311.942 67.6C312.518 67.9307 312.939 68.3413 313.206 68.832V67.232H314.678V80.16H313.206V74.384C312.928 74.8747 312.502 75.2907 311.926 75.632C311.35 75.9733 310.678 76.144 309.91 76.144C309.142 76.144 308.443 75.952 307.814 75.568C307.184 75.184 306.688 74.6453 306.326 73.952C305.963 73.2587 305.782 72.4693 305.782 71.584ZM313.206 71.6C313.206 70.9387 313.072 70.3627 312.806 69.872C312.539 69.3813 312.176 69.008 311.718 68.752C311.27 68.4853 310.774 68.352 310.23 68.352C309.686 68.352 309.19 68.48 308.742 68.736C308.294 68.992 307.936 69.3653 307.67 69.856C307.403 70.3467 307.27 70.9227 307.27 71.584C307.27 72.256 307.403 72.8427 307.67 73.344C307.936 73.8347 308.294 74.2133 308.742 74.48C309.19 74.736 309.686 74.864 310.23 74.864C310.774 74.864 311.27 74.736 311.718 74.48C312.176 74.2133 312.539 73.8347 312.806 73.344C313.072 72.8427 313.206 72.2613 313.206 71.6ZM324.914 67.232V76H323.458V74.704C323.181 75.152 322.792 75.504 322.29 75.76C321.8 76.0053 321.256 76.128 320.658 76.128C319.976 76.128 319.362 75.9893 318.818 75.712C318.274 75.424 317.842 74.9973 317.522 74.432C317.213 73.8667 317.058 73.1787 317.058 72.368V67.232H318.498V72.176C318.498 73.04 318.717 73.7067 319.154 74.176C319.592 74.6347 320.189 74.864 320.946 74.864C321.725 74.864 322.338 74.624 322.786 74.144C323.234 73.664 323.458 72.9653 323.458 72.048V67.232H324.914ZM335.373 71.28C335.373 71.5573 335.357 71.8507 335.325 72.16H328.317C328.37 73.024 328.663 73.7013 329.197 74.192C329.741 74.672 330.397 74.912 331.165 74.912C331.794 74.912 332.317 74.768 332.733 74.48C333.159 74.1813 333.458 73.7867 333.629 73.296H335.197C334.962 74.1387 334.493 74.8267 333.789 75.36C333.085 75.8827 332.21 76.144 331.165 76.144C330.333 76.144 329.586 75.9573 328.925 75.584C328.274 75.2107 327.762 74.6827 327.389 74C327.015 73.3067 326.829 72.5067 326.829 71.6C326.829 70.6933 327.01 69.8987 327.373 69.216C327.735 68.5333 328.242 68.0107 328.893 67.648C329.554 67.2747 330.311 67.088 331.165 67.088C331.997 67.088 332.733 67.2693 333.373 67.632C334.013 67.9947 334.503 68.496 334.845 69.136C335.197 69.7653 335.373 70.48 335.373 71.28ZM333.869 70.976C333.869 70.4213 333.746 69.9467 333.501 69.552C333.255 69.1467 332.919 68.8427 332.493 68.64C332.077 68.4267 331.613 68.32 331.101 68.32C330.365 68.32 329.735 68.5547 329.213 69.024C328.701 69.4933 328.407 70.144 328.333 70.976H333.869ZM340.399 76.144C339.727 76.144 339.124 76.032 338.591 75.808C338.057 75.5733 337.636 75.2533 337.327 74.848C337.017 74.432 336.847 73.9573 336.815 73.424H338.319C338.361 73.8613 338.564 74.2187 338.927 74.496C339.3 74.7733 339.785 74.912 340.383 74.912C340.937 74.912 341.375 74.7893 341.695 74.544C342.015 74.2987 342.175 73.9893 342.175 73.616C342.175 73.232 342.004 72.9493 341.663 72.768C341.321 72.576 340.793 72.3893 340.079 72.208C339.428 72.0373 338.895 71.8667 338.479 71.696C338.073 71.5147 337.721 71.2533 337.423 70.912C337.135 70.56 336.991 70.1013 336.991 69.536C336.991 69.088 337.124 68.6773 337.391 68.304C337.657 67.9307 338.036 67.6373 338.527 67.424C339.017 67.2 339.577 67.088 340.207 67.088C341.177 67.088 341.961 67.3333 342.559 67.824C343.156 68.3147 343.476 68.9867 343.519 69.84H342.063C342.031 69.3813 341.844 69.0133 341.503 68.736C341.172 68.4587 340.724 68.32 340.159 68.32C339.636 68.32 339.22 68.432 338.911 68.656C338.601 68.88 338.447 69.1733 338.447 69.536C338.447 69.824 338.537 70.064 338.719 70.256C338.911 70.4373 339.145 70.5867 339.423 70.704C339.711 70.8107 340.105 70.9333 340.607 71.072C341.236 71.2427 341.748 71.4133 342.143 71.584C342.537 71.744 342.873 71.9893 343.151 72.32C343.439 72.6507 343.588 73.0827 343.599 73.616C343.599 74.096 343.465 74.528 343.199 74.912C342.932 75.296 342.553 75.6 342.063 75.824C341.583 76.0373 341.028 76.144 340.399 76.144ZM347.43 68.432V73.6C347.43 74.0267 347.521 74.3307 347.702 74.512C347.883 74.6827 348.198 74.768 348.646 74.768H349.718V76H348.406C347.595 76 346.987 75.8133 346.582 75.44C346.177 75.0667 345.974 74.4533 345.974 73.6V68.432H344.838V67.232H345.974V65.024H347.43V67.232H349.718V68.432H347.43ZM107.758 86.432V91.6C107.758 92.0267 107.849 92.3307 108.03 92.512C108.211 92.6827 108.526 92.768 108.974 92.768H110.046V94H108.734C107.923 94 107.315 93.8133 106.91 93.44C106.505 93.0667 106.302 92.4533 106.302 91.6V86.432H105.166V85.232H106.302V83.024H107.758V85.232H110.046V86.432H107.758ZM115.634 94.144C114.813 94.144 114.066 93.9573 113.394 93.584C112.733 93.2107 112.21 92.6827 111.826 92C111.453 91.3067 111.266 90.5067 111.266 89.6C111.266 88.704 111.458 87.9147 111.842 87.232C112.237 86.5387 112.77 86.0107 113.442 85.648C114.114 85.2747 114.866 85.088 115.698 85.088C116.53 85.088 117.282 85.2747 117.954 85.648C118.626 86.0107 119.154 86.5333 119.538 87.216C119.933 87.8987 120.13 88.6933 120.13 89.6C120.13 90.5067 119.927 91.3067 119.522 92C119.127 92.6827 118.589 93.2107 117.906 93.584C117.223 93.9573 116.466 94.144 115.634 94.144ZM115.634 92.864C116.157 92.864 116.647 92.7413 117.106 92.496C117.565 92.2507 117.933 91.8827 118.21 91.392C118.498 90.9013 118.642 90.304 118.642 89.6C118.642 88.896 118.503 88.2987 118.226 87.808C117.949 87.3173 117.586 86.9547 117.138 86.72C116.69 86.4747 116.205 86.352 115.682 86.352C115.149 86.352 114.658 86.4747 114.21 86.72C113.773 86.9547 113.421 87.3173 113.154 87.808C112.887 88.2987 112.754 88.896 112.754 89.6C112.754 90.3147 112.882 90.9173 113.138 91.408C113.405 91.8987 113.757 92.2667 114.194 92.512C114.631 92.7467 115.111 92.864 115.634 92.864ZM125.766 89.6C125.766 88.6933 125.947 87.904 126.31 87.232C126.673 86.5493 127.174 86.0213 127.814 85.648C128.465 85.2747 129.206 85.088 130.038 85.088C131.115 85.088 132.001 85.3493 132.694 85.872C133.398 86.3947 133.862 87.12 134.086 88.048H132.518C132.369 87.5147 132.075 87.0933 131.638 86.784C131.211 86.4747 130.678 86.32 130.038 86.32C129.206 86.32 128.534 86.608 128.022 87.184C127.51 87.7493 127.254 88.5547 127.254 89.6C127.254 90.656 127.51 91.472 128.022 92.048C128.534 92.624 129.206 92.912 130.038 92.912C130.678 92.912 131.211 92.7627 131.638 92.464C132.065 92.1653 132.358 91.7387 132.518 91.184H134.086C133.851 92.08 133.382 92.8 132.678 93.344C131.974 93.8773 131.094 94.144 130.038 94.144C129.206 94.144 128.465 93.9573 127.814 93.584C127.174 93.2107 126.673 92.6827 126.31 92C125.947 91.3173 125.766 90.5173 125.766 89.6ZM140.381 85.072C141.042 85.072 141.64 85.216 142.173 85.504C142.706 85.7813 143.122 86.2027 143.421 86.768C143.73 87.3333 143.885 88.0213 143.885 88.832V94H142.445V89.04C142.445 88.1653 142.226 87.4987 141.789 87.04C141.352 86.5707 140.754 86.336 139.997 86.336C139.229 86.336 138.616 86.576 138.157 87.056C137.709 87.536 137.485 88.2347 137.485 89.152V94H136.029V82.16H137.485V86.48C137.773 86.032 138.168 85.6853 138.669 85.44C139.181 85.1947 139.752 85.072 140.381 85.072ZM154.263 89.28C154.263 89.5573 154.247 89.8507 154.215 90.16H147.207C147.261 91.024 147.554 91.7013 148.087 92.192C148.631 92.672 149.287 92.912 150.055 92.912C150.685 92.912 151.207 92.768 151.623 92.48C152.05 92.1813 152.349 91.7867 152.519 91.296H154.087C153.853 92.1387 153.383 92.8267 152.679 93.36C151.975 93.8827 151.101 94.144 150.055 94.144C149.223 94.144 148.477 93.9573 147.815 93.584C147.165 93.2107 146.653 92.6827 146.279 92C145.906 91.3067 145.719 90.5067 145.719 89.6C145.719 88.6933 145.901 87.8987 146.263 87.216C146.626 86.5333 147.133 86.0107 147.783 85.648C148.445 85.2747 149.202 85.088 150.055 85.088C150.887 85.088 151.623 85.2693 152.263 85.632C152.903 85.9947 153.394 86.496 153.735 87.136C154.087 87.7653 154.263 88.48 154.263 89.28ZM152.759 88.976C152.759 88.4213 152.637 87.9467 152.391 87.552C152.146 87.1467 151.81 86.8427 151.383 86.64C150.967 86.4267 150.503 86.32 149.991 86.32C149.255 86.32 148.626 86.5547 148.103 87.024C147.591 87.4933 147.298 88.144 147.223 88.976H152.759ZM155.641 89.6C155.641 88.6933 155.822 87.904 156.185 87.232C156.548 86.5493 157.049 86.0213 157.689 85.648C158.34 85.2747 159.081 85.088 159.913 85.088C160.99 85.088 161.876 85.3493 162.569 85.872C163.273 86.3947 163.737 87.12 163.961 88.048H162.393C162.244 87.5147 161.95 87.0933 161.513 86.784C161.086 86.4747 160.553 86.32 159.913 86.32C159.081 86.32 158.409 86.608 157.897 87.184C157.385 87.7493 157.129 88.5547 157.129 89.6C157.129 90.656 157.385 91.472 157.897 92.048C158.409 92.624 159.081 92.912 159.913 92.912C160.553 92.912 161.086 92.7627 161.513 92.464C161.94 92.1653 162.233 91.7387 162.393 91.184H163.961C163.726 92.08 163.257 92.8 162.553 93.344C161.849 93.8773 160.969 94.144 159.913 94.144C159.081 94.144 158.34 93.9573 157.689 93.584C157.049 93.2107 156.548 92.6827 156.185 92C155.822 91.3173 155.641 90.5173 155.641 89.6ZM170.8 94L167.36 90.128V94H165.904V82.16H167.36V89.12L170.736 85.232H172.768L168.64 89.6L172.784 94H170.8ZM185.956 85.232L180.676 98.128H179.172L180.9 93.904L177.364 85.232H178.98L181.732 92.336L184.452 85.232H185.956ZM191.244 94.144C190.422 94.144 189.676 93.9573 189.004 93.584C188.342 93.2107 187.82 92.6827 187.436 92C187.062 91.3067 186.876 90.5067 186.876 89.6C186.876 88.704 187.068 87.9147 187.452 87.232C187.846 86.5387 188.38 86.0107 189.052 85.648C189.724 85.2747 190.476 85.088 191.308 85.088C192.14 85.088 192.892 85.2747 193.564 85.648C194.236 86.0107 194.764 86.5333 195.148 87.216C195.542 87.8987 195.74 88.6933 195.74 89.6C195.74 90.5067 195.537 91.3067 195.132 92C194.737 92.6827 194.198 93.2107 193.516 93.584C192.833 93.9573 192.076 94.144 191.244 94.144ZM191.244 92.864C191.766 92.864 192.257 92.7413 192.716 92.496C193.174 92.2507 193.542 91.8827 193.82 91.392C194.108 90.9013 194.252 90.304 194.252 89.6C194.252 88.896 194.113 88.2987 193.836 87.808C193.558 87.3173 193.196 86.9547 192.748 86.72C192.3 86.4747 191.814 86.352 191.292 86.352C190.758 86.352 190.268 86.4747 189.82 86.72C189.382 86.9547 189.03 87.3173 188.764 87.808C188.497 88.2987 188.364 88.896 188.364 89.6C188.364 90.3147 188.492 90.9173 188.748 91.408C189.014 91.8987 189.366 92.2667 189.804 92.512C190.241 92.7467 190.721 92.864 191.244 92.864ZM205.43 85.232V94H203.974V92.704C203.697 93.152 203.307 93.504 202.806 93.76C202.315 94.0053 201.771 94.128 201.174 94.128C200.491 94.128 199.878 93.9893 199.334 93.712C198.79 93.424 198.358 92.9973 198.038 92.432C197.729 91.8667 197.574 91.1787 197.574 90.368V85.232H199.014V90.176C199.014 91.04 199.233 91.7067 199.67 92.176C200.107 92.6347 200.705 92.864 201.462 92.864C202.241 92.864 202.854 92.624 203.302 92.144C203.75 91.664 203.974 90.9653 203.974 90.048V85.232H205.43ZM209.344 86.656C209.6 86.1547 209.963 85.7653 210.432 85.488C210.912 85.2107 211.494 85.072 212.176 85.072V86.576H211.792C210.16 86.576 209.344 87.4613 209.344 89.232V94H207.888V85.232H209.344V86.656ZM223.019 94L219.579 90.128V94H218.123V82.16H219.579V89.12L222.955 85.232H224.987L220.859 89.6L225.003 94H223.019ZM230.629 85.072C231.696 85.072 232.56 85.3973 233.221 86.048C233.882 86.688 234.213 87.616 234.213 88.832V94H232.773V89.04C232.773 88.1653 232.554 87.4987 232.117 87.04C231.68 86.5707 231.082 86.336 230.325 86.336C229.557 86.336 228.944 86.576 228.485 87.056C228.037 87.536 227.813 88.2347 227.813 89.152V94H226.357V85.232H227.813V86.48C228.101 86.032 228.49 85.6853 228.981 85.44C229.482 85.1947 230.032 85.072 230.629 85.072ZM240.415 94.144C239.594 94.144 238.847 93.9573 238.175 93.584C237.514 93.2107 236.991 92.6827 236.607 92C236.234 91.3067 236.047 90.5067 236.047 89.6C236.047 88.704 236.239 87.9147 236.623 87.232C237.018 86.5387 237.551 86.0107 238.223 85.648C238.895 85.2747 239.647 85.088 240.479 85.088C241.311 85.088 242.063 85.2747 242.735 85.648C243.407 86.0107 243.935 86.5333 244.319 87.216C244.714 87.8987 244.911 88.6933 244.911 89.6C244.911 90.5067 244.709 91.3067 244.303 92C243.909 92.6827 243.37 93.2107 242.687 93.584C242.005 93.9573 241.247 94.144 240.415 94.144ZM240.415 92.864C240.938 92.864 241.429 92.7413 241.887 92.496C242.346 92.2507 242.714 91.8827 242.991 91.392C243.279 90.9013 243.423 90.304 243.423 89.6C243.423 88.896 243.285 88.2987 243.007 87.808C242.73 87.3173 242.367 86.9547 241.919 86.72C241.471 86.4747 240.986 86.352 240.463 86.352C239.93 86.352 239.439 86.4747 238.991 86.72C238.554 86.9547 238.202 87.3173 237.935 87.808C237.669 88.2987 237.535 88.896 237.535 89.6C237.535 90.3147 237.663 90.9173 237.919 91.408C238.186 91.8987 238.538 92.2667 238.975 92.512C239.413 92.7467 239.893 92.864 240.415 92.864ZM258.506 85.232L255.77 94H254.266L252.154 87.04L250.042 94H248.538L245.786 85.232H247.274L249.29 92.592L251.466 85.232H252.954L255.082 92.608L257.066 85.232H258.506ZM261.407 82.16V94H259.951V82.16H261.407ZM271.888 89.28C271.888 89.5573 271.872 89.8507 271.84 90.16H264.832C264.886 91.024 265.179 91.7013 265.712 92.192C266.256 92.672 266.912 92.912 267.68 92.912C268.31 92.912 268.832 92.768 269.248 92.48C269.675 92.1813 269.974 91.7867 270.144 91.296H271.712C271.478 92.1387 271.008 92.8267 270.304 93.36C269.6 93.8827 268.726 94.144 267.68 94.144C266.848 94.144 266.102 93.9573 265.44 93.584C264.79 93.2107 264.278 92.6827 263.904 92C263.531 91.3067 263.344 90.5067 263.344 89.6C263.344 88.6933 263.526 87.8987 263.888 87.216C264.251 86.5333 264.758 86.0107 265.408 85.648C266.07 85.2747 266.827 85.088 267.68 85.088C268.512 85.088 269.248 85.2693 269.888 85.632C270.528 85.9947 271.019 86.496 271.36 87.136C271.712 87.7653 271.888 88.48 271.888 89.28ZM270.384 88.976C270.384 88.4213 270.262 87.9467 270.016 87.552C269.771 87.1467 269.435 86.8427 269.008 86.64C268.592 86.4267 268.128 86.32 267.616 86.32C266.88 86.32 266.251 86.5547 265.728 87.024C265.216 87.4933 264.923 88.144 264.848 88.976H270.384ZM273.266 89.584C273.266 88.688 273.447 87.904 273.81 87.232C274.173 86.5493 274.669 86.0213 275.298 85.648C275.938 85.2747 276.653 85.088 277.442 85.088C278.125 85.088 278.759 85.248 279.346 85.568C279.933 85.8773 280.381 86.288 280.69 86.8V82.16H282.162V94H280.69V92.352C280.402 92.8747 279.975 93.3067 279.41 93.648C278.845 93.9787 278.183 94.144 277.426 94.144C276.647 94.144 275.938 93.952 275.298 93.568C274.669 93.184 274.173 92.6453 273.81 91.952C273.447 91.2587 273.266 90.4693 273.266 89.584ZM280.69 89.6C280.69 88.9387 280.557 88.3627 280.29 87.872C280.023 87.3813 279.661 87.008 279.202 86.752C278.754 86.4853 278.258 86.352 277.714 86.352C277.17 86.352 276.674 86.48 276.226 86.736C275.778 86.992 275.421 87.3653 275.154 87.856C274.887 88.3467 274.754 88.9227 274.754 89.584C274.754 90.256 274.887 90.8427 275.154 91.344C275.421 91.8347 275.778 92.2133 276.226 92.48C276.674 92.736 277.17 92.864 277.714 92.864C278.258 92.864 278.754 92.736 279.202 92.48C279.661 92.2133 280.023 91.8347 280.29 91.344C280.557 90.8427 280.69 90.2613 280.69 89.6ZM288.239 85.088C288.996 85.088 289.657 85.2533 290.223 85.584C290.799 85.9147 291.225 86.3307 291.503 86.832V85.232H292.975V94.192C292.975 94.992 292.804 95.7013 292.463 96.32C292.121 96.9493 291.631 97.44 290.991 97.792C290.361 98.144 289.625 98.32 288.783 98.32C287.631 98.32 286.671 98.048 285.903 97.504C285.135 96.96 284.681 96.2187 284.543 95.28H285.983C286.143 95.8133 286.473 96.24 286.975 96.56C287.476 96.8907 288.079 97.056 288.783 97.056C289.583 97.056 290.233 96.8053 290.735 96.304C291.247 95.8027 291.503 95.0987 291.503 94.192V92.352C291.215 92.864 290.788 93.2907 290.223 93.632C289.657 93.9733 288.996 94.144 288.239 94.144C287.46 94.144 286.751 93.952 286.111 93.568C285.481 93.184 284.985 92.6453 284.623 91.952C284.26 91.2587 284.079 90.4693 284.079 89.584C284.079 88.688 284.26 87.904 284.623 87.232C284.985 86.5493 285.481 86.0213 286.111 85.648C286.751 85.2747 287.46 85.088 288.239 85.088ZM291.503 89.6C291.503 88.9387 291.369 88.3627 291.103 87.872C290.836 87.3813 290.473 87.008 290.015 86.752C289.567 86.4853 289.071 86.352 288.527 86.352C287.983 86.352 287.487 86.48 287.039 86.736C286.591 86.992 286.233 87.3653 285.967 87.856C285.7 88.3467 285.567 88.9227 285.567 89.584C285.567 90.256 285.7 90.8427 285.967 91.344C286.233 91.8347 286.591 92.2133 287.039 92.48C287.487 92.736 287.983 92.864 288.527 92.864C289.071 92.864 289.567 92.736 290.015 92.48C290.473 92.2133 290.836 91.8347 291.103 91.344C291.369 90.8427 291.503 90.2613 291.503 89.6ZM303.435 89.28C303.435 89.5573 303.419 89.8507 303.387 90.16H296.379C296.432 91.024 296.726 91.7013 297.259 92.192C297.803 92.672 298.459 92.912 299.227 92.912C299.856 92.912 300.379 92.768 300.795 92.48C301.222 92.1813 301.52 91.7867 301.691 91.296H303.259C303.024 92.1387 302.555 92.8267 301.851 93.36C301.147 93.8827 300.272 94.144 299.227 94.144C298.395 94.144 297.648 93.9573 296.987 93.584C296.336 93.2107 295.824 92.6827 295.451 92C295.078 91.3067 294.891 90.5067 294.891 89.6C294.891 88.6933 295.072 87.8987 295.435 87.216C295.798 86.5333 296.304 86.0107 296.955 85.648C297.616 85.2747 298.374 85.088 299.227 85.088C300.059 85.088 300.795 85.2693 301.435 85.632C302.075 85.9947 302.566 86.496 302.907 87.136C303.259 87.7653 303.435 88.48 303.435 89.28ZM301.931 88.976C301.931 88.4213 301.808 87.9467 301.563 87.552C301.318 87.1467 300.982 86.8427 300.555 86.64C300.139 86.4267 299.675 86.32 299.163 86.32C298.427 86.32 297.798 86.5547 297.275 87.024C296.763 87.4933 296.47 88.144 296.395 88.976H301.931ZM309.079 89.584C309.079 88.688 309.26 87.904 309.623 87.232C309.985 86.5493 310.481 86.0213 311.111 85.648C311.751 85.2747 312.46 85.088 313.239 85.088C314.007 85.088 314.673 85.2533 315.239 85.584C315.804 85.9147 316.225 86.3307 316.503 86.832V85.232H317.975V94H316.503V92.368C316.215 92.88 315.783 93.3067 315.207 93.648C314.641 93.9787 313.98 94.144 313.223 94.144C312.444 94.144 311.74 93.952 311.111 93.568C310.481 93.184 309.985 92.6453 309.623 91.952C309.26 91.2587 309.079 90.4693 309.079 89.584ZM316.503 89.6C316.503 88.9387 316.369 88.3627 316.103 87.872C315.836 87.3813 315.473 87.008 315.015 86.752C314.567 86.4853 314.071 86.352 313.527 86.352C312.983 86.352 312.487 86.48 312.039 86.736C311.591 86.992 311.233 87.3653 310.967 87.856C310.7 88.3467 310.567 88.9227 310.567 89.584C310.567 90.256 310.7 90.8427 310.967 91.344C311.233 91.8347 311.591 92.2133 312.039 92.48C312.487 92.736 312.983 92.864 313.527 92.864C314.071 92.864 314.567 92.736 315.015 92.48C315.473 92.2133 315.836 91.8347 316.103 91.344C316.369 90.8427 316.503 90.2613 316.503 89.6ZM324.707 85.072C325.774 85.072 326.638 85.3973 327.299 86.048C327.96 86.688 328.291 87.616 328.291 88.832V94H326.851V89.04C326.851 88.1653 326.632 87.4987 326.195 87.04C325.758 86.5707 325.16 86.336 324.403 86.336C323.635 86.336 323.022 86.576 322.563 87.056C322.115 87.536 321.891 88.2347 321.891 89.152V94H320.435V85.232H321.891V86.48C322.179 86.032 322.568 85.6853 323.059 85.44C323.56 85.1947 324.11 85.072 324.707 85.072ZM330.126 89.584C330.126 88.688 330.307 87.904 330.67 87.232C331.032 86.5493 331.528 86.0213 332.158 85.648C332.798 85.2747 333.512 85.088 334.302 85.088C334.984 85.088 335.619 85.248 336.206 85.568C336.792 85.8773 337.24 86.288 337.55 86.8V82.16H339.022V94H337.55V92.352C337.262 92.8747 336.835 93.3067 336.27 93.648C335.704 93.9787 335.043 94.144 334.286 94.144C333.507 94.144 332.798 93.952 332.158 93.568C331.528 93.184 331.032 92.6453 330.67 91.952C330.307 91.2587 330.126 90.4693 330.126 89.584ZM337.55 89.6C337.55 88.9387 337.416 88.3627 337.15 87.872C336.883 87.3813 336.52 87.008 336.062 86.752C335.614 86.4853 335.118 86.352 334.574 86.352C334.03 86.352 333.534 86.48 333.086 86.736C332.638 86.992 332.28 87.3653 332.014 87.856C331.747 88.3467 331.614 88.9227 331.614 89.584C331.614 90.256 331.747 90.8427 332.014 91.344C332.28 91.8347 332.638 92.2133 333.086 92.48C333.534 92.736 334.03 92.864 334.574 92.864C335.118 92.864 335.614 92.736 336.062 92.48C336.52 92.2133 336.883 91.8347 337.15 91.344C337.416 90.8427 337.55 90.2613 337.55 89.6ZM187.505 107.28C187.505 107.557 187.489 107.851 187.457 108.16H180.449C180.503 109.024 180.796 109.701 181.329 110.192C181.873 110.672 182.529 110.912 183.297 110.912C183.927 110.912 184.449 110.768 184.865 110.48C185.292 110.181 185.591 109.787 185.761 109.296H187.329C187.095 110.139 186.625 110.827 185.921 111.36C185.217 111.883 184.343 112.144 183.297 112.144C182.465 112.144 181.719 111.957 181.057 111.584C180.407 111.211 179.895 110.683 179.521 110C179.148 109.307 178.961 108.507 178.961 107.6C178.961 106.693 179.143 105.899 179.505 105.216C179.868 104.533 180.375 104.011 181.025 103.648C181.687 103.275 182.444 103.088 183.297 103.088C184.129 103.088 184.865 103.269 185.505 103.632C186.145 103.995 186.636 104.496 186.977 105.136C187.329 105.765 187.505 106.48 187.505 107.28ZM186.001 106.976C186.001 106.421 185.879 105.947 185.633 105.552C185.388 105.147 185.052 104.843 184.625 104.64C184.209 104.427 183.745 104.32 183.233 104.32C182.497 104.32 181.868 104.555 181.345 105.024C180.833 105.493 180.54 106.144 180.465 106.976H186.001ZM188.883 107.584C188.883 106.688 189.065 105.904 189.427 105.232C189.79 104.549 190.286 104.021 190.915 103.648C191.555 103.275 192.265 103.088 193.043 103.088C193.811 103.088 194.478 103.253 195.043 103.584C195.609 103.915 196.03 104.331 196.307 104.832V103.232H197.779V112H196.307V110.368C196.019 110.88 195.587 111.307 195.011 111.648C194.446 111.979 193.785 112.144 193.027 112.144C192.249 112.144 191.545 111.952 190.915 111.568C190.286 111.184 189.79 110.645 189.427 109.952C189.065 109.259 188.883 108.469 188.883 107.584ZM196.307 107.6C196.307 106.939 196.174 106.363 195.907 105.872C195.641 105.381 195.278 105.008 194.819 104.752C194.371 104.485 193.875 104.352 193.331 104.352C192.787 104.352 192.291 104.48 191.843 104.736C191.395 104.992 191.038 105.365 190.771 105.856C190.505 106.347 190.371 106.923 190.371 107.584C190.371 108.256 190.505 108.843 190.771 109.344C191.038 109.835 191.395 110.213 191.843 110.48C192.291 110.736 192.787 110.864 193.331 110.864C193.875 110.864 194.371 110.736 194.819 110.48C195.278 110.213 195.641 109.835 195.907 109.344C196.174 108.843 196.307 108.261 196.307 107.6ZM201.696 104.656C201.952 104.155 202.314 103.765 202.784 103.488C203.264 103.211 203.845 103.072 204.528 103.072V104.576H204.144C202.512 104.576 201.696 105.461 201.696 107.232V112H200.24V103.232H201.696V104.656ZM210.481 103.072C211.547 103.072 212.411 103.397 213.073 104.048C213.734 104.688 214.065 105.616 214.065 106.832V112H212.625V107.04C212.625 106.165 212.406 105.499 211.969 105.04C211.531 104.571 210.934 104.336 210.177 104.336C209.409 104.336 208.795 104.576 208.337 105.056C207.889 105.536 207.665 106.235 207.665 107.152V112H206.209V103.232H207.665V104.48C207.953 104.032 208.342 103.685 208.833 103.44C209.334 103.195 209.883 103.072 210.481 103.072ZM220.165 107.6C220.165 106.693 220.346 105.904 220.709 105.232C221.071 104.549 221.573 104.021 222.213 103.648C222.863 103.275 223.605 103.088 224.437 103.088C225.514 103.088 226.399 103.349 227.093 103.872C227.797 104.395 228.261 105.12 228.485 106.048H226.917C226.767 105.515 226.474 105.093 226.037 104.784C225.61 104.475 225.077 104.32 224.437 104.32C223.605 104.32 222.933 104.608 222.421 105.184C221.909 105.749 221.653 106.555 221.653 107.6C221.653 108.656 221.909 109.472 222.421 110.048C222.933 110.624 223.605 110.912 224.437 110.912C225.077 110.912 225.61 110.763 226.037 110.464C226.463 110.165 226.757 109.739 226.917 109.184H228.485C228.25 110.08 227.781 110.8 227.077 111.344C226.373 111.877 225.493 112.144 224.437 112.144C223.605 112.144 222.863 111.957 222.213 111.584C221.573 111.211 221.071 110.683 220.709 110C220.346 109.317 220.165 108.517 220.165 107.6ZM234.251 112.144C233.43 112.144 232.683 111.957 232.011 111.584C231.35 111.211 230.827 110.683 230.443 110C230.07 109.307 229.883 108.507 229.883 107.6C229.883 106.704 230.075 105.915 230.459 105.232C230.854 104.539 231.387 104.011 232.059 103.648C232.731 103.275 233.483 103.088 234.315 103.088C235.147 103.088 235.899 103.275 236.571 103.648C237.243 104.011 237.771 104.533 238.155 105.216C238.55 105.899 238.747 106.693 238.747 107.6C238.747 108.507 238.545 109.307 238.139 110C237.745 110.683 237.206 111.211 236.523 111.584C235.841 111.957 235.083 112.144 234.251 112.144ZM234.251 110.864C234.774 110.864 235.265 110.741 235.723 110.496C236.182 110.251 236.55 109.883 236.827 109.392C237.115 108.901 237.259 108.304 237.259 107.6C237.259 106.896 237.121 106.299 236.843 105.808C236.566 105.317 236.203 104.955 235.755 104.72C235.307 104.475 234.822 104.352 234.299 104.352C233.766 104.352 233.275 104.475 232.827 104.72C232.39 104.955 232.038 105.317 231.771 105.808C231.505 106.299 231.371 106.896 231.371 107.6C231.371 108.315 231.499 108.917 231.755 109.408C232.022 109.899 232.374 110.267 232.811 110.512C233.249 110.747 233.729 110.864 234.251 110.864ZM241.414 101.808C241.136 101.808 240.902 101.712 240.71 101.52C240.518 101.328 240.422 101.093 240.422 100.816C240.422 100.539 240.518 100.304 240.71 100.112C240.902 99.92 241.136 99.824 241.414 99.824C241.68 99.824 241.904 99.92 242.086 100.112C242.278 100.304 242.374 100.539 242.374 100.816C242.374 101.093 242.278 101.328 242.086 101.52C241.904 101.712 241.68 101.808 241.414 101.808ZM242.118 103.232V112H240.662V103.232H242.118ZM248.871 103.072C249.938 103.072 250.802 103.397 251.463 104.048C252.125 104.688 252.455 105.616 252.455 106.832V112H251.015V107.04C251.015 106.165 250.797 105.499 250.359 105.04C249.922 104.571 249.325 104.336 248.567 104.336C247.799 104.336 247.186 104.576 246.727 105.056C246.279 105.536 246.055 106.235 246.055 107.152V112H244.599V103.232H246.055V104.48C246.343 104.032 246.733 103.685 247.223 103.44C247.725 103.195 248.274 103.072 248.871 103.072ZM257.938 112.144C257.266 112.144 256.663 112.032 256.13 111.808C255.596 111.573 255.175 111.253 254.866 110.848C254.556 110.432 254.386 109.957 254.354 109.424H255.858C255.9 109.861 256.103 110.219 256.466 110.496C256.839 110.773 257.324 110.912 257.922 110.912C258.476 110.912 258.914 110.789 259.234 110.544C259.554 110.299 259.714 109.989 259.714 109.616C259.714 109.232 259.543 108.949 259.202 108.768C258.86 108.576 258.332 108.389 257.618 108.208C256.967 108.037 256.434 107.867 256.018 107.696C255.612 107.515 255.26 107.253 254.962 106.912C254.674 106.56 254.53 106.101 254.53 105.536C254.53 105.088 254.663 104.677 254.93 104.304C255.196 103.931 255.575 103.637 256.066 103.424C256.556 103.2 257.116 103.088 257.746 103.088C258.716 103.088 259.5 103.333 260.098 103.824C260.695 104.315 261.015 104.987 261.058 105.84H259.602C259.57 105.381 259.383 105.013 259.042 104.736C258.711 104.459 258.263 104.32 257.698 104.32C257.175 104.32 256.759 104.432 256.45 104.656C256.14 104.88 255.986 105.173 255.986 105.536C255.986 105.824 256.076 106.064 256.258 106.256C256.45 106.437 256.684 106.587 256.962 106.704C257.25 106.811 257.644 106.933 258.146 107.072C258.775 107.243 259.287 107.413 259.682 107.584C260.076 107.744 260.412 107.989 260.69 108.32C260.978 108.651 261.127 109.083 261.138 109.616C261.138 110.096 261.004 110.528 260.738 110.912C260.471 111.296 260.092 111.6 259.602 111.824C259.122 112.037 258.567 112.144 257.938 112.144ZM265.081 100.848L264.905 108.848H263.689L263.513 100.848H265.081ZM264.361 112.096C264.084 112.096 263.849 112 263.657 111.808C263.465 111.616 263.369 111.381 263.369 111.104C263.369 110.827 263.465 110.592 263.657 110.4C263.849 110.208 264.084 110.112 264.361 110.112C264.628 110.112 264.852 110.208 265.033 110.4C265.225 110.592 265.321 110.827 265.321 111.104C265.321 111.381 265.225 111.616 265.033 111.808C264.852 112 264.628 112.096 264.361 112.096Z" fill="#B0F7EF"/>
</svg>
