<svg width="256" height="154" viewBox="0 0 256 154" fill="none" xmlns="http://www.w3.org/2000/svg">
<path d="M70.5888 151.483C70.2827 152.35 69.0673 152.38 68.72 151.528L53.562 114.378C53.2936 113.72 53.7775 113 54.4879 113L82.7632 113C83.4532 113 83.9358 113.682 83.7061 114.333L70.5888 151.483Z" fill="#2E4F72"/>
<path d="M0 40C0 17.9086 17.9086 0 40 0H216C238.091 0 256 17.9086 256 40V73C256 95.0914 238.091 113 216 113H40C17.9086 113 0 95.0914 0 73V40Z" fill="#2E4F72"/>
<path d="M47.5239 45.48C47.5239 44.392 47.7693 43.416 48.2599 42.552C48.7506 41.6773 49.4173 40.9946 50.2599 40.504C51.1133 40.0133 52.0573 39.768 53.0919 39.768C54.3079 39.768 55.3693 40.0613 56.2759 40.648C57.1826 41.2346 57.8439 42.0666 58.2599 43.144H56.5159C56.2066 42.472 55.7586 41.9546 55.1719 41.592C54.5959 41.2293 53.9026 41.048 53.0919 41.048C52.3133 41.048 51.6146 41.2293 50.9959 41.592C50.3773 41.9546 49.8919 42.472 49.5399 43.144C49.1879 43.8053 49.0119 44.584 49.0119 45.48C49.0119 46.3653 49.1879 47.144 49.5399 47.816C49.8919 48.4773 50.3773 48.9893 50.9959 49.352C51.6146 49.7146 52.3133 49.896 53.0919 49.896C53.9026 49.896 54.5959 49.72 55.1719 49.368C55.7586 49.0053 56.2066 48.488 56.5159 47.816H58.2599C57.8439 48.8826 57.1826 49.7093 56.2759 50.296C55.3693 50.872 54.3079 51.16 53.0919 51.16C52.0573 51.16 51.1133 50.92 50.2599 50.44C49.4173 49.9493 48.7506 49.272 48.2599 48.408C47.7693 47.544 47.5239 46.568 47.5239 45.48ZM64.7793 42.136C65.4406 42.136 66.038 42.28 66.5713 42.568C67.1046 42.8453 67.5206 43.2666 67.8193 43.832C68.1286 44.3973 68.2833 45.0853 68.2833 45.896V51.064H66.8433V46.104C66.8433 45.2293 66.6246 44.5626 66.1873 44.104C65.75 43.6346 65.1526 43.4 64.3953 43.4C63.6273 43.4 63.014 43.64 62.5553 44.12C62.1073 44.6 61.8833 45.2986 61.8833 46.216V51.064H60.4273V39.224H61.8833V43.544C62.1713 43.096 62.566 42.7493 63.0673 42.504C63.5793 42.2586 64.15 42.136 64.7793 42.136ZM78.6617 46.344C78.6617 46.6213 78.6457 46.9146 78.6137 47.224H71.6057C71.659 48.088 71.9524 48.7653 72.4857 49.256C73.0297 49.736 73.6857 49.976 74.4537 49.976C75.083 49.976 75.6057 49.832 76.0217 49.544C76.4484 49.2453 76.747 48.8506 76.9177 48.36H78.4857C78.251 49.2026 77.7817 49.8906 77.0777 50.424C76.3737 50.9466 75.499 51.208 74.4537 51.208C73.6217 51.208 72.875 51.0213 72.2137 50.648C71.563 50.2746 71.051 49.7466 70.6777 49.064C70.3044 48.3706 70.1177 47.5706 70.1177 46.664C70.1177 45.7573 70.299 44.9626 70.6617 44.28C71.0244 43.5973 71.531 43.0746 72.1817 42.712C72.843 42.3386 73.6004 42.152 74.4537 42.152C75.2857 42.152 76.0217 42.3333 76.6617 42.696C77.3017 43.0586 77.7924 43.56 78.1337 44.2C78.4857 44.8293 78.6617 45.544 78.6617 46.344ZM77.1577 46.04C77.1577 45.4853 77.035 45.0106 76.7897 44.616C76.5444 44.2106 76.2084 43.9066 75.7817 43.704C75.3657 43.4906 74.9017 43.384 74.3897 43.384C73.6537 43.384 73.0244 43.6186 72.5017 44.088C71.9897 44.5573 71.6964 45.208 71.6217 46.04H77.1577ZM80.0396 46.664C80.0396 45.7573 80.2209 44.968 80.5836 44.296C80.9462 43.6133 81.4476 43.0853 82.0876 42.712C82.7382 42.3386 83.4796 42.152 84.3116 42.152C85.3889 42.152 86.2742 42.4133 86.9676 42.936C87.6716 43.4586 88.1356 44.184 88.3596 45.112H86.7916C86.6422 44.5786 86.3489 44.1573 85.9116 43.848C85.4849 43.5386 84.9516 43.384 84.3116 43.384C83.4796 43.384 82.8076 43.672 82.2956 44.248C81.7836 44.8133 81.5276 45.6186 81.5276 46.664C81.5276 47.72 81.7836 48.536 82.2956 49.112C82.8076 49.688 83.4796 49.976 84.3116 49.976C84.9516 49.976 85.4849 49.8266 85.9116 49.528C86.3382 49.2293 86.6316 48.8026 86.7916 48.248H88.3596C88.1249 49.144 87.6556 49.864 86.9516 50.408C86.2476 50.9413 85.3676 51.208 84.3116 51.208C83.4796 51.208 82.7382 51.0213 82.0876 50.648C81.4476 50.2746 80.9462 49.7466 80.5836 49.064C80.2209 48.3813 80.0396 47.5813 80.0396 46.664ZM95.1983 51.064L91.7583 47.192V51.064H90.3023V39.224H91.7583V46.184L95.1343 42.296H97.1663L93.0383 46.664L97.1823 51.064H95.1983ZM104.578 43.496V48.664C104.578 49.0906 104.669 49.3946 104.85 49.576C105.032 49.7466 105.346 49.832 105.794 49.832H106.866V51.064H105.554C104.744 51.064 104.136 50.8773 103.73 50.504C103.325 50.1306 103.122 49.5173 103.122 48.664V43.496H101.986V42.296H103.122V40.088H104.578V42.296H106.866V43.496H104.578ZM112.982 42.136C113.644 42.136 114.241 42.28 114.774 42.568C115.308 42.8453 115.724 43.2666 116.022 43.832C116.332 44.3973 116.486 45.0853 116.486 45.896V51.064H115.046V46.104C115.046 45.2293 114.828 44.5626 114.39 44.104C113.953 43.6346 113.356 43.4 112.598 43.4C111.83 43.4 111.217 43.64 110.758 44.12C110.31 44.6 110.086 45.2986 110.086 46.216V51.064H108.63V39.224H110.086V43.544C110.374 43.096 110.769 42.7493 111.27 42.504C111.782 42.2586 112.353 42.136 112.982 42.136ZM126.865 46.344C126.865 46.6213 126.849 46.9146 126.817 47.224H119.809C119.862 48.088 120.155 48.7653 120.689 49.256C121.233 49.736 121.889 49.976 122.657 49.976C123.286 49.976 123.809 49.832 124.225 49.544C124.651 49.2453 124.95 48.8506 125.121 48.36H126.689C126.454 49.2026 125.985 49.8906 125.281 50.424C124.577 50.9466 123.702 51.208 122.657 51.208C121.825 51.208 121.078 51.0213 120.417 50.648C119.766 50.2746 119.254 49.7466 118.881 49.064C118.507 48.3706 118.321 47.5706 118.321 46.664C118.321 45.7573 118.502 44.9626 118.865 44.28C119.227 43.5973 119.734 43.0746 120.385 42.712C121.046 42.3386 121.803 42.152 122.657 42.152C123.489 42.152 124.225 42.3333 124.865 42.696C125.505 43.0586 125.995 43.56 126.337 44.2C126.689 44.8293 126.865 45.544 126.865 46.344ZM125.361 46.04C125.361 45.4853 125.238 45.0106 124.993 44.616C124.747 44.2106 124.411 43.9066 123.985 43.704C123.569 43.4906 123.105 43.384 122.593 43.384C121.857 43.384 121.227 43.6186 120.705 44.088C120.193 44.5573 119.899 45.208 119.825 46.04H125.361ZM137.404 42.136C138.066 42.136 138.663 42.28 139.196 42.568C139.73 42.8453 140.146 43.2666 140.444 43.832C140.754 44.3973 140.908 45.0853 140.908 45.896V51.064H139.468V46.104C139.468 45.2293 139.25 44.5626 138.812 44.104C138.375 43.6346 137.778 43.4 137.02 43.4C136.252 43.4 135.639 43.64 135.18 44.12C134.732 44.6 134.508 45.2986 134.508 46.216V51.064H133.052V39.224H134.508V43.544C134.796 43.096 135.191 42.7493 135.692 42.504C136.204 42.2586 136.775 42.136 137.404 42.136ZM144.039 40.872C143.761 40.872 143.527 40.776 143.335 40.584C143.143 40.392 143.047 40.1573 143.047 39.88C143.047 39.6026 143.143 39.368 143.335 39.176C143.527 38.984 143.761 38.888 144.039 38.888C144.305 38.888 144.529 38.984 144.711 39.176C144.903 39.368 144.999 39.6026 144.999 39.88C144.999 40.1573 144.903 40.392 144.711 40.584C144.529 40.776 144.305 40.872 144.039 40.872ZM144.743 42.296V51.064H143.287V42.296H144.743ZM150.328 51.208C149.656 51.208 149.054 51.096 148.52 50.872C147.987 50.6373 147.566 50.3173 147.256 49.912C146.947 49.496 146.776 49.0213 146.744 48.488H148.248C148.291 48.9253 148.494 49.2826 148.856 49.56C149.23 49.8373 149.715 49.976 150.312 49.976C150.867 49.976 151.304 49.8533 151.624 49.608C151.944 49.3626 152.104 49.0533 152.104 48.68C152.104 48.296 151.934 48.0133 151.592 47.832C151.251 47.64 150.723 47.4533 150.008 47.272C149.358 47.1013 148.824 46.9306 148.408 46.76C148.003 46.5786 147.651 46.3173 147.352 45.976C147.064 45.624 146.92 45.1653 146.92 44.6C146.92 44.152 147.054 43.7413 147.32 43.368C147.587 42.9946 147.966 42.7013 148.456 42.488C148.947 42.264 149.507 42.152 150.136 42.152C151.107 42.152 151.891 42.3973 152.488 42.888C153.086 43.3786 153.406 44.0506 153.448 44.904H151.992C151.96 44.4453 151.774 44.0773 151.432 43.8C151.102 43.5226 150.654 43.384 150.088 43.384C149.566 43.384 149.15 43.496 148.84 43.72C148.531 43.944 148.376 44.2373 148.376 44.6C148.376 44.888 148.467 45.128 148.648 45.32C148.84 45.5013 149.075 45.6506 149.352 45.768C149.64 45.8746 150.035 45.9973 150.536 46.136C151.166 46.3066 151.678 46.4773 152.072 46.648C152.467 46.808 152.803 47.0533 153.08 47.384C153.368 47.7146 153.518 48.1466 153.528 48.68C153.528 49.16 153.395 49.592 153.128 49.976C152.862 50.36 152.483 50.664 151.992 50.888C151.512 51.1013 150.958 51.208 150.328 51.208ZM157.36 43.496V48.664C157.36 49.0906 157.45 49.3946 157.632 49.576C157.813 49.7466 158.128 49.832 158.576 49.832H159.648V51.064H158.336C157.525 51.064 156.917 50.8773 156.512 50.504C156.106 50.1306 155.904 49.5173 155.904 48.664V43.496H154.768V42.296H155.904V40.088H157.36V42.296H159.648V43.496H157.36ZM165.236 51.208C164.414 51.208 163.668 51.0213 162.996 50.648C162.334 50.2746 161.812 49.7466 161.428 49.064C161.054 48.3706 160.868 47.5706 160.868 46.664C160.868 45.768 161.06 44.9786 161.444 44.296C161.838 43.6026 162.372 43.0746 163.044 42.712C163.716 42.3386 164.468 42.152 165.3 42.152C166.132 42.152 166.884 42.3386 167.556 42.712C168.228 43.0746 168.756 43.5973 169.14 44.28C169.534 44.9626 169.732 45.7573 169.732 46.664C169.732 47.5706 169.529 48.3706 169.124 49.064C168.729 49.7466 168.19 50.2746 167.508 50.648C166.825 51.0213 166.068 51.208 165.236 51.208ZM165.236 49.928C165.758 49.928 166.249 49.8053 166.708 49.56C167.166 49.3146 167.534 48.9466 167.812 48.456C168.1 47.9653 168.244 47.368 168.244 46.664C168.244 45.96 168.105 45.3626 167.828 44.872C167.55 44.3813 167.188 44.0186 166.74 43.784C166.292 43.5386 165.806 43.416 165.284 43.416C164.75 43.416 164.26 43.5386 163.812 43.784C163.374 44.0186 163.022 44.3813 162.756 44.872C162.489 45.3626 162.356 45.96 162.356 46.664C162.356 47.3786 162.484 47.9813 162.74 48.472C163.006 48.9626 163.358 49.3306 163.796 49.576C164.233 49.8106 164.713 49.928 165.236 49.928ZM173.102 43.72C173.358 43.2186 173.721 42.8293 174.19 42.552C174.67 42.2746 175.251 42.136 175.934 42.136V43.64H175.55C173.918 43.64 173.102 44.5253 173.102 46.296V51.064H171.646V42.296H173.102V43.72ZM185.167 42.296L179.887 55.192H178.383L180.111 50.968L176.575 42.296H178.191L180.943 49.4L183.663 42.296H185.167ZM194.72 51.208C193.899 51.208 193.152 51.0213 192.48 50.648C191.819 50.2746 191.296 49.7466 190.912 49.064C190.539 48.3706 190.352 47.5706 190.352 46.664C190.352 45.768 190.544 44.9786 190.928 44.296C191.323 43.6026 191.856 43.0746 192.528 42.712C193.2 42.3386 193.952 42.152 194.784 42.152C195.616 42.152 196.368 42.3386 197.04 42.712C197.712 43.0746 198.24 43.5973 198.624 44.28C199.019 44.9626 199.216 45.7573 199.216 46.664C199.216 47.5706 199.013 48.3706 198.608 49.064C198.213 49.7466 197.675 50.2746 196.992 50.648C196.309 51.0213 195.552 51.208 194.72 51.208ZM194.72 49.928C195.243 49.928 195.733 49.8053 196.192 49.56C196.651 49.3146 197.019 48.9466 197.296 48.456C197.584 47.9653 197.728 47.368 197.728 46.664C197.728 45.96 197.589 45.3626 197.312 44.872C197.035 44.3813 196.672 44.0186 196.224 43.784C195.776 43.5386 195.291 43.416 194.768 43.416C194.235 43.416 193.744 43.5386 193.296 43.784C192.859 44.0186 192.507 44.3813 192.24 44.872C191.973 45.3626 191.84 45.96 191.84 46.664C191.84 47.3786 191.968 47.9813 192.224 48.472C192.491 48.9626 192.843 49.3306 193.28 49.576C193.717 49.8106 194.197 49.928 194.72 49.928ZM204.698 43.496H202.858V51.064H201.402V43.496H200.266V42.296H201.402V41.672C201.402 40.6906 201.653 39.976 202.154 39.528C202.666 39.0693 203.482 38.84 204.602 38.84V40.056C203.962 40.056 203.509 40.184 203.242 40.44C202.986 40.6853 202.858 41.096 202.858 41.672V42.296H204.698V43.496ZM64.8283 61.496V66.664C64.8283 67.0906 64.919 67.3946 65.1003 67.576C65.2816 67.7466 65.5963 67.832 66.0443 67.832H67.1163V69.064H65.8043C64.9936 69.064 64.3856 68.8773 63.9803 68.504C63.575 68.1306 63.3723 67.5173 63.3723 66.664V61.496H62.2363V60.296H63.3723V58.088H64.8283V60.296H67.1163V61.496H64.8283ZM73.2324 60.136C73.8938 60.136 74.4911 60.28 75.0244 60.568C75.5578 60.8453 75.9738 61.2666 76.2724 61.832C76.5818 62.3973 76.7364 63.0853 76.7364 63.896V69.064H75.2964V64.104C75.2964 63.2293 75.0778 62.5626 74.6404 62.104C74.2031 61.6346 73.6058 61.4 72.8484 61.4C72.0804 61.4 71.4671 61.64 71.0084 62.12C70.5604 62.6 70.3364 63.2986 70.3364 64.216V69.064H68.8804V57.224H70.3364V61.544C70.6244 61.096 71.0191 60.7493 71.5204 60.504C72.0324 60.2586 72.6031 60.136 73.2324 60.136ZM87.1148 64.344C87.1148 64.6213 87.0988 64.9146 87.0668 65.224H80.0588C80.1121 66.088 80.4055 66.7653 80.9388 67.256C81.4828 67.736 82.1388 67.976 82.9068 67.976C83.5361 67.976 84.0588 67.832 84.4748 67.544C84.9015 67.2453 85.2001 66.8506 85.3708 66.36H86.9388C86.7041 67.2026 86.2348 67.8906 85.5308 68.424C84.8268 68.9466 83.9521 69.208 82.9068 69.208C82.0748 69.208 81.3281 69.0213 80.6668 68.648C80.0161 68.2746 79.5041 67.7466 79.1308 67.064C78.7575 66.3706 78.5708 65.5706 78.5708 64.664C78.5708 63.7573 78.7521 62.9626 79.1148 62.28C79.4775 61.5973 79.9841 61.0746 80.6348 60.712C81.2961 60.3386 82.0535 60.152 82.9068 60.152C83.7388 60.152 84.4748 60.3333 85.1148 60.696C85.7548 61.0586 86.2455 61.56 86.5868 62.2C86.9388 62.8293 87.1148 63.544 87.1148 64.344ZM85.6108 64.04C85.6108 63.4853 85.4881 63.0106 85.2428 62.616C84.9975 62.2106 84.6615 61.9066 84.2348 61.704C83.8188 61.4906 83.3548 61.384 82.8428 61.384C82.1068 61.384 81.4775 61.6186 80.9548 62.088C80.4428 62.5573 80.1495 63.208 80.0748 64.04H85.6108ZM94.7583 61.912C95.0463 61.4106 95.473 60.9946 96.0383 60.664C96.6143 60.3226 97.281 60.152 98.0383 60.152C98.817 60.152 99.521 60.3386 100.15 60.712C100.79 61.0853 101.292 61.6133 101.654 62.296C102.017 62.968 102.198 63.752 102.198 64.648C102.198 65.5333 102.017 66.3226 101.654 67.016C101.292 67.7093 100.79 68.248 100.15 68.632C99.521 69.016 98.817 69.208 98.0383 69.208C97.2916 69.208 96.6303 69.0426 96.0543 68.712C95.489 68.3706 95.057 67.9493 94.7583 67.448V73.224H93.3023V60.296H94.7583V61.912ZM100.71 64.648C100.71 63.9866 100.577 63.4106 100.31 62.92C100.044 62.4293 99.681 62.056 99.2223 61.8C98.7743 61.544 98.2783 61.416 97.7343 61.416C97.201 61.416 96.705 61.5493 96.2463 61.816C95.7983 62.072 95.4356 62.4506 95.1583 62.952C94.8916 63.4426 94.7583 64.0133 94.7583 64.664C94.7583 65.3253 94.8916 65.9066 95.1583 66.408C95.4356 66.8986 95.7983 67.2773 96.2463 67.544C96.705 67.8 97.201 67.928 97.7343 67.928C98.2783 67.928 98.7743 67.8 99.2223 67.544C99.681 67.2773 100.044 66.8986 100.31 66.408C100.577 65.9066 100.71 65.32 100.71 64.648ZM105.571 57.224V69.064H104.115V57.224H105.571ZM107.508 64.648C107.508 63.752 107.69 62.968 108.052 62.296C108.415 61.6133 108.911 61.0853 109.54 60.712C110.18 60.3386 110.89 60.152 111.668 60.152C112.436 60.152 113.103 60.3173 113.668 60.648C114.234 60.9786 114.655 61.3946 114.932 61.896V60.296H116.404V69.064H114.932V67.432C114.644 67.944 114.212 68.3706 113.636 68.712C113.071 69.0426 112.41 69.208 111.652 69.208C110.874 69.208 110.17 69.016 109.54 68.632C108.911 68.248 108.415 67.7093 108.052 67.016C107.69 66.3226 107.508 65.5333 107.508 64.648ZM114.932 64.664C114.932 64.0026 114.799 63.4266 114.532 62.936C114.266 62.4453 113.903 62.072 113.444 61.816C112.996 61.5493 112.5 61.416 111.956 61.416C111.412 61.416 110.916 61.544 110.468 61.8C110.02 62.056 109.663 62.4293 109.396 62.92C109.13 63.4106 108.996 63.9866 108.996 64.648C108.996 65.32 109.13 65.9066 109.396 66.408C109.663 66.8986 110.02 67.2773 110.468 67.544C110.916 67.8 111.412 67.928 111.956 67.928C112.5 67.928 112.996 67.8 113.444 67.544C113.903 67.2773 114.266 66.8986 114.532 66.408C114.799 65.9066 114.932 65.3253 114.932 64.664ZM123.137 60.136C124.203 60.136 125.067 60.4613 125.729 61.112C126.39 61.752 126.721 62.68 126.721 63.896V69.064H125.281V64.104C125.281 63.2293 125.062 62.5626 124.625 62.104C124.187 61.6346 123.59 61.4 122.833 61.4C122.065 61.4 121.451 61.64 120.993 62.12C120.545 62.6 120.321 63.2986 120.321 64.216V69.064H118.865V60.296H120.321V61.544C120.609 61.096 120.998 60.7493 121.489 60.504C121.99 60.2586 122.539 60.136 123.137 60.136ZM130.875 61.496V66.664C130.875 67.0906 130.966 67.3946 131.147 67.576C131.329 67.7466 131.643 67.832 132.091 67.832H133.163V69.064H131.851C131.041 69.064 130.433 68.8773 130.027 68.504C129.622 68.1306 129.419 67.5173 129.419 66.664V61.496H128.283V60.296H129.419V58.088H130.875V60.296H133.163V61.496H130.875ZM135.151 57.912H136.767L135.231 61.544H134.207L135.151 57.912ZM141.531 69.208C140.859 69.208 140.257 69.096 139.723 68.872C139.19 68.6373 138.769 68.3173 138.459 67.912C138.15 67.496 137.979 67.0213 137.947 66.488H139.451C139.494 66.9253 139.697 67.2826 140.059 67.56C140.433 67.8373 140.918 67.976 141.515 67.976C142.07 67.976 142.507 67.8533 142.827 67.608C143.147 67.3626 143.307 67.0533 143.307 66.68C143.307 66.296 143.137 66.0133 142.795 65.832C142.454 65.64 141.926 65.4533 141.211 65.272C140.561 65.1013 140.027 64.9306 139.611 64.76C139.206 64.5786 138.854 64.3173 138.555 63.976C138.267 63.624 138.123 63.1653 138.123 62.6C138.123 62.152 138.257 61.7413 138.523 61.368C138.79 60.9946 139.169 60.7013 139.659 60.488C140.15 60.264 140.71 60.152 141.339 60.152C142.31 60.152 143.094 60.3973 143.691 60.888C144.289 61.3786 144.609 62.0506 144.651 62.904H143.195C143.163 62.4453 142.977 62.0773 142.635 61.8C142.305 61.5226 141.857 61.384 141.291 61.384C140.769 61.384 140.353 61.496 140.043 61.72C139.734 61.944 139.579 62.2373 139.579 62.6C139.579 62.888 139.67 63.128 139.851 63.32C140.043 63.5013 140.278 63.6506 140.555 63.768C140.843 63.8746 141.238 63.9973 141.739 64.136C142.369 64.3066 142.881 64.4773 143.275 64.648C143.67 64.808 144.006 65.0533 144.283 65.384C144.571 65.7146 144.721 66.1466 144.731 66.68C144.731 67.16 144.598 67.592 144.331 67.976C144.065 68.36 143.686 68.664 143.195 68.888C142.715 69.1013 142.161 69.208 141.531 69.208ZM152.508 61.912C152.796 61.4106 153.223 60.9946 153.788 60.664C154.364 60.3226 155.031 60.152 155.788 60.152C156.567 60.152 157.271 60.3386 157.9 60.712C158.54 61.0853 159.042 61.6133 159.404 62.296C159.767 62.968 159.948 63.752 159.948 64.648C159.948 65.5333 159.767 66.3226 159.404 67.016C159.042 67.7093 158.54 68.248 157.9 68.632C157.271 69.016 156.567 69.208 155.788 69.208C155.042 69.208 154.38 69.0426 153.804 68.712C153.239 68.3706 152.807 67.9493 152.508 67.448V73.224H151.052V60.296H152.508V61.912ZM158.46 64.648C158.46 63.9866 158.327 63.4106 158.06 62.92C157.794 62.4293 157.431 62.056 156.972 61.8C156.524 61.544 156.028 61.416 155.484 61.416C154.951 61.416 154.455 61.5493 153.996 61.816C153.548 62.072 153.186 62.4506 152.908 62.952C152.642 63.4426 152.508 64.0133 152.508 64.664C152.508 65.3253 152.642 65.9066 152.908 66.408C153.186 66.8986 153.548 67.2773 153.996 67.544C154.455 67.8 154.951 67.928 155.484 67.928C156.028 67.928 156.524 67.8 156.972 67.544C157.431 67.2773 157.794 66.8986 158.06 66.408C158.327 65.9066 158.46 65.32 158.46 64.648ZM163.321 61.72C163.577 61.2186 163.939 60.8293 164.409 60.552C164.889 60.2746 165.47 60.136 166.153 60.136V61.64H165.769C164.137 61.64 163.321 62.5253 163.321 64.296V69.064H161.865V60.296H163.321V61.72ZM168.586 58.872C168.308 58.872 168.074 58.776 167.882 58.584C167.69 58.392 167.594 58.1573 167.594 57.88C167.594 57.6026 167.69 57.368 167.882 57.176C168.074 56.984 168.308 56.888 168.586 56.888C168.852 56.888 169.076 56.984 169.258 57.176C169.45 57.368 169.546 57.6026 169.546 57.88C169.546 58.1573 169.45 58.392 169.258 58.584C169.076 58.776 168.852 58.872 168.586 58.872ZM169.29 60.296V69.064H167.834V60.296H169.29ZM171.227 64.664C171.227 63.7573 171.408 62.968 171.771 62.296C172.134 61.6133 172.635 61.0853 173.275 60.712C173.926 60.3386 174.667 60.152 175.499 60.152C176.576 60.152 177.462 60.4133 178.155 60.936C178.859 61.4586 179.323 62.184 179.547 63.112H177.979C177.83 62.5786 177.536 62.1573 177.099 61.848C176.672 61.5386 176.139 61.384 175.499 61.384C174.667 61.384 173.995 61.672 173.483 62.248C172.971 62.8133 172.715 63.6186 172.715 64.664C172.715 65.72 172.971 66.536 173.483 67.112C173.995 67.688 174.667 67.976 175.499 67.976C176.139 67.976 176.672 67.8266 177.099 67.528C177.526 67.2293 177.819 66.8026 177.979 66.248H179.547C179.312 67.144 178.843 67.864 178.139 68.408C177.435 68.9413 176.555 69.208 175.499 69.208C174.667 69.208 173.926 69.0213 173.275 68.648C172.635 68.2746 172.134 67.7466 171.771 67.064C171.408 66.3813 171.227 65.5813 171.227 64.664ZM189.49 64.344C189.49 64.6213 189.474 64.9146 189.442 65.224H182.434C182.487 66.088 182.78 66.7653 183.314 67.256C183.858 67.736 184.514 67.976 185.282 67.976C185.911 67.976 186.434 67.832 186.85 67.544C187.276 67.2453 187.575 66.8506 187.746 66.36H189.314C189.079 67.2026 188.61 67.8906 187.906 68.424C187.202 68.9466 186.327 69.208 185.282 69.208C184.45 69.208 183.703 69.0213 183.042 68.648C182.391 68.2746 181.879 67.7466 181.506 67.064C181.132 66.3706 180.946 65.5706 180.946 64.664C180.946 63.7573 181.127 62.9626 181.49 62.28C181.852 61.5973 182.359 61.0746 183.01 60.712C183.671 60.3386 184.428 60.152 185.282 60.152C186.114 60.152 186.85 60.3333 187.49 60.696C188.13 61.0586 188.62 61.56 188.962 62.2C189.314 62.8293 189.49 63.544 189.49 64.344ZM187.986 64.04C187.986 63.4853 187.863 63.0106 187.618 62.616C187.372 62.2106 187.036 61.9066 186.61 61.704C186.194 61.4906 185.73 61.384 185.218 61.384C184.482 61.384 183.852 61.6186 183.33 62.088C182.818 62.5573 182.524 63.208 182.45 64.04H187.986Z" fill="#B0F1EA"/>
</svg>
