<svg width="259" height="128" viewBox="0 0 259 128" fill="none" xmlns="http://www.w3.org/2000/svg">
<path d="M128.589 125.483C128.283 126.35 127.067 126.38 126.72 125.528L111.562 88.3778C111.294 87.72 111.777 87 112.488 87L140.763 87C141.453 87 141.936 87.6823 141.706 88.333L128.589 125.483Z" fill="#2E4F72"/>
<path d="M0 40C0 17.9086 17.9086 0 40 0H219C241.091 0 259 17.9086 259 40V47C259 69.0914 241.091 87 219 87H40C17.9086 87 0 69.0914 0 47V40Z" fill="#2E4F72"/>
<path d="M31.8705 41.416C31.8705 40.328 32.1159 39.352 32.6065 38.488C33.0972 37.6133 33.7639 36.9307 34.6065 36.44C35.4599 35.9493 36.4039 35.704 37.4385 35.704C38.6545 35.704 39.7159 35.9973 40.6225 36.584C41.5292 37.1707 42.1905 38.0027 42.6065 39.08H40.8625C40.5532 38.408 40.1052 37.8907 39.5185 37.528C38.9425 37.1653 38.2492 36.984 37.4385 36.984C36.6599 36.984 35.9612 37.1653 35.3425 37.528C34.7239 37.8907 34.2385 38.408 33.8865 39.08C33.5345 39.7413 33.3585 40.52 33.3585 41.416C33.3585 42.3013 33.5345 43.08 33.8865 43.752C34.2385 44.4133 34.7239 44.9253 35.3425 45.288C35.9612 45.6507 36.6599 45.832 37.4385 45.832C38.2492 45.832 38.9425 45.656 39.5185 45.304C40.1052 44.9413 40.5532 44.424 40.8625 43.752H42.6065C42.1905 44.8187 41.5292 45.6453 40.6225 46.232C39.7159 46.808 38.6545 47.096 37.4385 47.096C36.4039 47.096 35.4599 46.856 34.6065 46.376C33.7639 45.8853 33.0972 45.208 32.6065 44.344C32.1159 43.48 31.8705 42.504 31.8705 41.416ZM46.2299 35.16V47H44.7739V35.16H46.2299ZM49.4634 36.808C49.1861 36.808 48.9514 36.712 48.7594 36.52C48.5674 36.328 48.4714 36.0933 48.4714 35.816C48.4714 35.5387 48.5674 35.304 48.7594 35.112C48.9514 34.92 49.1861 34.824 49.4634 34.824C49.7301 34.824 49.9541 34.92 50.1354 35.112C50.3274 35.304 50.4234 35.5387 50.4234 35.816C50.4234 36.0933 50.3274 36.328 50.1354 36.52C49.9541 36.712 49.7301 36.808 49.4634 36.808ZM50.1674 38.232V47H48.7114V38.232H50.1674ZM52.1049 42.6C52.1049 41.6933 52.2862 40.904 52.6489 40.232C53.0116 39.5493 53.5129 39.0213 54.1529 38.648C54.8036 38.2747 55.5449 38.088 56.3769 38.088C57.4542 38.088 58.3396 38.3493 59.0329 38.872C59.7369 39.3947 60.2009 40.12 60.4249 41.048H58.8569C58.7076 40.5147 58.4142 40.0933 57.9769 39.784C57.5502 39.4747 57.0169 39.32 56.3769 39.32C55.5449 39.32 54.8729 39.608 54.3609 40.184C53.8489 40.7493 53.5929 41.5547 53.5929 42.6C53.5929 43.656 53.8489 44.472 54.3609 45.048C54.8729 45.624 55.5449 45.912 56.3769 45.912C57.0169 45.912 57.5502 45.7627 57.9769 45.464C58.4036 45.1653 58.6969 44.7387 58.8569 44.184H60.4249C60.1902 45.08 59.7209 45.8 59.0169 46.344C58.3129 46.8773 57.4329 47.144 56.3769 47.144C55.5449 47.144 54.8036 46.9573 54.1529 46.584C53.5129 46.2107 53.0116 45.6827 52.6489 45C52.2862 44.3173 52.1049 43.5173 52.1049 42.6ZM67.2637 47L63.8237 43.128V47H62.3677V35.16H63.8237V42.12L67.1997 38.232H69.2317L65.1037 42.6L69.2477 47H67.2637ZM79.2197 38.072C79.881 38.072 80.4783 38.216 81.0117 38.504C81.545 38.7813 81.961 39.2027 82.2597 39.768C82.569 40.3333 82.7237 41.0213 82.7237 41.832V47H81.2837V42.04C81.2837 41.1653 81.065 40.4987 80.6277 40.04C80.1903 39.5707 79.593 39.336 78.8357 39.336C78.0677 39.336 77.4543 39.576 76.9957 40.056C76.5477 40.536 76.3237 41.2347 76.3237 42.152V47H74.8677V35.16H76.3237V39.48C76.6117 39.032 77.0063 38.6853 77.5077 38.44C78.0197 38.1947 78.5903 38.072 79.2197 38.072ZM93.102 42.28C93.102 42.5573 93.086 42.8507 93.054 43.16H86.046C86.0994 44.024 86.3927 44.7013 86.926 45.192C87.47 45.672 88.126 45.912 88.894 45.912C89.5234 45.912 90.046 45.768 90.462 45.48C90.8887 45.1813 91.1874 44.7867 91.358 44.296H92.926C92.6914 45.1387 92.222 45.8267 91.518 46.36C90.814 46.8827 89.9394 47.144 88.894 47.144C88.062 47.144 87.3154 46.9573 86.654 46.584C86.0034 46.2107 85.4914 45.6827 85.118 45C84.7447 44.3067 84.558 43.5067 84.558 42.6C84.558 41.6933 84.7394 40.8987 85.102 40.216C85.4647 39.5333 85.9714 39.0107 86.622 38.648C87.2834 38.2747 88.0407 38.088 88.894 38.088C89.726 38.088 90.462 38.2693 91.102 38.632C91.742 38.9947 92.2327 39.496 92.574 40.136C92.926 40.7653 93.102 41.48 93.102 42.28ZM91.598 41.976C91.598 41.4213 91.4754 40.9467 91.23 40.552C90.9847 40.1467 90.6487 39.8427 90.222 39.64C89.806 39.4267 89.342 39.32 88.83 39.32C88.094 39.32 87.4647 39.5547 86.942 40.024C86.43 40.4933 86.1367 41.144 86.062 41.976H91.598ZM96.4799 39.656C96.7359 39.1547 97.0986 38.7653 97.5679 38.488C98.0479 38.2107 98.6292 38.072 99.3119 38.072V39.576H98.9279C97.2959 39.576 96.4799 40.4613 96.4799 42.232V47H95.0239V38.232H96.4799V39.656ZM108.993 42.28C108.993 42.5573 108.977 42.8507 108.945 43.16H101.937C101.99 44.024 102.283 44.7013 102.817 45.192C103.361 45.672 104.017 45.912 104.785 45.912C105.414 45.912 105.937 45.768 106.353 45.48C106.779 45.1813 107.078 44.7867 107.249 44.296H108.817C108.582 45.1387 108.113 45.8267 107.409 46.36C106.705 46.8827 105.83 47.144 104.785 47.144C103.953 47.144 103.206 46.9573 102.545 46.584C101.894 46.2107 101.382 45.6827 101.009 45C100.635 44.3067 100.449 43.5067 100.449 42.6C100.449 41.6933 100.63 40.8987 100.993 40.216C101.355 39.5333 101.862 39.0107 102.513 38.648C103.174 38.2747 103.931 38.088 104.785 38.088C105.617 38.088 106.353 38.2693 106.993 38.632C107.633 38.9947 108.123 39.496 108.465 40.136C108.817 40.7653 108.993 41.48 108.993 42.28ZM107.489 41.976C107.489 41.4213 107.366 40.9467 107.121 40.552C106.875 40.1467 106.539 39.8427 106.113 39.64C105.697 39.4267 105.233 39.32 104.721 39.32C103.985 39.32 103.355 39.5547 102.833 40.024C102.321 40.4933 102.027 41.144 101.953 41.976H107.489ZM116.956 39.432V44.6C116.956 45.0267 117.047 45.3307 117.228 45.512C117.409 45.6827 117.724 45.768 118.172 45.768H119.244V47H117.932C117.121 47 116.513 46.8133 116.108 46.44C115.703 46.0667 115.5 45.4533 115.5 44.6V39.432H114.364V38.232H115.5V36.024H116.956V38.232H119.244V39.432H116.956ZM124.832 47.144C124.011 47.144 123.264 46.9573 122.592 46.584C121.931 46.2107 121.408 45.6827 121.024 45C120.651 44.3067 120.464 43.5067 120.464 42.6C120.464 41.704 120.656 40.9147 121.04 40.232C121.435 39.5387 121.968 39.0107 122.64 38.648C123.312 38.2747 124.064 38.088 124.896 38.088C125.728 38.088 126.48 38.2747 127.152 38.648C127.824 39.0107 128.352 39.5333 128.736 40.216C129.131 40.8987 129.328 41.6933 129.328 42.6C129.328 43.5067 129.126 44.3067 128.72 45C128.326 45.6827 127.787 46.2107 127.104 46.584C126.422 46.9573 125.664 47.144 124.832 47.144ZM124.832 45.864C125.355 45.864 125.846 45.7413 126.304 45.496C126.763 45.2507 127.131 44.8827 127.408 44.392C127.696 43.9013 127.84 43.304 127.84 42.6C127.84 41.896 127.702 41.2987 127.424 40.808C127.147 40.3173 126.784 39.9547 126.336 39.72C125.888 39.4747 125.403 39.352 124.88 39.352C124.347 39.352 123.856 39.4747 123.408 39.72C122.971 39.9547 122.619 40.3173 122.352 40.808C122.086 41.2987 121.952 41.896 121.952 42.6C121.952 43.3147 122.08 43.9173 122.336 44.408C122.603 44.8987 122.955 45.2667 123.392 45.512C123.83 45.7467 124.31 45.864 124.832 45.864ZM136.964 39.864C137.263 39.3413 137.7 38.9147 138.276 38.584C138.852 38.2533 139.508 38.088 140.244 38.088C141.034 38.088 141.743 38.2747 142.372 38.648C143.002 39.0213 143.498 39.5493 143.86 40.232C144.223 40.904 144.404 41.688 144.404 42.584C144.404 43.4693 144.223 44.2587 143.86 44.952C143.498 45.6453 142.996 46.184 142.356 46.568C141.727 46.952 141.023 47.144 140.244 47.144C139.487 47.144 138.82 46.9787 138.244 46.648C137.679 46.3173 137.252 45.896 136.964 45.384V47H135.508V35.16H136.964V39.864ZM142.916 42.584C142.916 41.9227 142.783 41.3467 142.516 40.856C142.25 40.3653 141.887 39.992 141.428 39.736C140.98 39.48 140.484 39.352 139.94 39.352C139.407 39.352 138.911 39.4853 138.452 39.752C138.004 40.008 137.642 40.3867 137.364 40.888C137.098 41.3787 136.964 41.9493 136.964 42.6C136.964 43.2613 137.098 43.8427 137.364 44.344C137.642 44.8347 138.004 45.2133 138.452 45.48C138.911 45.736 139.407 45.864 139.94 45.864C140.484 45.864 140.98 45.736 141.428 45.48C141.887 45.2133 142.25 44.8347 142.516 44.344C142.783 43.8427 142.916 43.256 142.916 42.584ZM154.097 38.232V47H152.641V45.704C152.363 46.152 151.974 46.504 151.473 46.76C150.982 47.0053 150.438 47.128 149.841 47.128C149.158 47.128 148.545 46.9893 148.001 46.712C147.457 46.424 147.025 45.9973 146.705 45.432C146.395 44.8667 146.241 44.1787 146.241 43.368V38.232H147.681V43.176C147.681 44.04 147.899 44.7067 148.337 45.176C148.774 45.6347 149.371 45.864 150.129 45.864C150.907 45.864 151.521 45.624 151.969 45.144C152.417 44.664 152.641 43.9653 152.641 43.048V38.232H154.097ZM164.107 38.232L158.827 51.128H157.323L159.051 46.904L155.515 38.232H157.131L159.883 45.336L162.603 38.232H164.107ZM169.292 42.584C169.292 41.688 169.474 40.904 169.836 40.232C170.199 39.5493 170.695 39.0213 171.324 38.648C171.964 38.2747 172.674 38.088 173.452 38.088C174.22 38.088 174.887 38.2533 175.452 38.584C176.018 38.9147 176.439 39.3307 176.716 39.832V38.232H178.188V47H176.716V45.368C176.428 45.88 175.996 46.3067 175.42 46.648C174.855 46.9787 174.194 47.144 173.436 47.144C172.658 47.144 171.954 46.952 171.324 46.568C170.695 46.184 170.199 45.6453 169.836 44.952C169.474 44.2587 169.292 43.4693 169.292 42.584ZM176.716 42.6C176.716 41.9387 176.583 41.3627 176.316 40.872C176.05 40.3813 175.687 40.008 175.228 39.752C174.78 39.4853 174.284 39.352 173.74 39.352C173.196 39.352 172.7 39.48 172.252 39.736C171.804 39.992 171.447 40.3653 171.18 40.856C170.914 41.3467 170.78 41.9227 170.78 42.584C170.78 43.256 170.914 43.8427 171.18 44.344C171.447 44.8347 171.804 45.2133 172.252 45.48C172.7 45.736 173.196 45.864 173.74 45.864C174.284 45.864 174.78 45.736 175.228 45.48C175.687 45.2133 176.05 44.8347 176.316 44.344C176.583 43.8427 176.716 43.2613 176.716 42.6ZM186.371 39.848C186.659 39.3467 187.085 38.9307 187.651 38.6C188.227 38.2587 188.893 38.088 189.651 38.088C190.429 38.088 191.133 38.2747 191.763 38.648C192.403 39.0213 192.904 39.5493 193.267 40.232C193.629 40.904 193.811 41.688 193.811 42.584C193.811 43.4693 193.629 44.2587 193.267 44.952C192.904 45.6453 192.403 46.184 191.763 46.568C191.133 46.952 190.429 47.144 189.651 47.144C188.904 47.144 188.243 46.9787 187.667 46.648C187.101 46.3067 186.669 45.8853 186.371 45.384V51.16H184.915V38.232H186.371V39.848ZM192.323 42.584C192.323 41.9227 192.189 41.3467 191.923 40.856C191.656 40.3653 191.293 39.992 190.835 39.736C190.387 39.48 189.891 39.352 189.347 39.352C188.813 39.352 188.317 39.4853 187.859 39.752C187.411 40.008 187.048 40.3867 186.771 40.888C186.504 41.3787 186.371 41.9493 186.371 42.6C186.371 43.2613 186.504 43.8427 186.771 44.344C187.048 44.8347 187.411 45.2133 187.859 45.48C188.317 45.736 188.813 45.864 189.347 45.864C189.891 45.864 190.387 45.736 190.835 45.48C191.293 45.2133 191.656 44.8347 191.923 44.344C192.189 43.8427 192.323 43.256 192.323 42.584ZM197.183 35.16V47H195.727V35.16H197.183ZM199.121 42.584C199.121 41.688 199.302 40.904 199.665 40.232C200.027 39.5493 200.523 39.0213 201.153 38.648C201.793 38.2747 202.502 38.088 203.281 38.088C204.049 38.088 204.715 38.2533 205.281 38.584C205.846 38.9147 206.267 39.3307 206.545 39.832V38.232H208.017V47H206.545V45.368C206.257 45.88 205.825 46.3067 205.249 46.648C204.683 46.9787 204.022 47.144 203.265 47.144C202.486 47.144 201.782 46.952 201.153 46.568C200.523 46.184 200.027 45.6453 199.665 44.952C199.302 44.2587 199.121 43.4693 199.121 42.584ZM206.545 42.6C206.545 41.9387 206.411 41.3627 206.145 40.872C205.878 40.3813 205.515 40.008 205.057 39.752C204.609 39.4853 204.113 39.352 203.569 39.352C203.025 39.352 202.529 39.48 202.081 39.736C201.633 39.992 201.275 40.3653 201.009 40.856C200.742 41.3467 200.609 41.9227 200.609 42.584C200.609 43.256 200.742 43.8427 201.009 44.344C201.275 44.8347 201.633 45.2133 202.081 45.48C202.529 45.736 203.025 45.864 203.569 45.864C204.113 45.864 204.609 45.736 205.057 45.48C205.515 45.2133 205.878 44.8347 206.145 44.344C206.411 43.8427 206.545 43.2613 206.545 42.6ZM214.749 38.072C215.816 38.072 216.68 38.3973 217.341 39.048C218.002 39.688 218.333 40.616 218.333 41.832V47H216.893V42.04C216.893 41.1653 216.674 40.4987 216.237 40.04C215.8 39.5707 215.202 39.336 214.445 39.336C213.677 39.336 213.064 39.576 212.605 40.056C212.157 40.536 211.933 41.2347 211.933 42.152V47H210.477V38.232H211.933V39.48C212.221 39.032 212.61 38.6853 213.101 38.44C213.602 38.1947 214.152 38.072 214.749 38.072ZM222.487 39.432V44.6C222.487 45.0267 222.578 45.3307 222.759 45.512C222.941 45.6827 223.255 45.768 223.703 45.768H224.775V47H223.463C222.653 47 222.045 46.8133 221.639 46.44C221.234 46.0667 221.031 45.4533 221.031 44.6V39.432H219.895V38.232H221.031V36.024H222.487V38.232H224.775V39.432H222.487Z" fill="#B0F1EA"/>
</svg>
