<svg width="210" height="119" viewBox="0 0 210 119" fill="none" xmlns="http://www.w3.org/2000/svg">
<path d="M0 77C0 54.9086 17.9086 37 40 37H170C192.091 37 210 54.9086 210 77C210 99.0914 192.091 117 170 117H40C17.9086 117 0 99.0914 0 77Z" fill="#2E4F72"/>
<path d="M33.4018 75.416C33.4018 74.328 33.6471 73.352 34.1378 72.488C34.6284 71.6133 35.2951 70.9307 36.1378 70.44C36.9911 69.9493 37.9351 69.704 38.9698 69.704C40.1858 69.704 41.2471 69.9973 42.1538 70.584C43.0605 71.1707 43.7218 72.0027 44.1378 73.08H42.3938C42.0845 72.408 41.6365 71.8907 41.0498 71.528C40.4738 71.1653 39.7805 70.984 38.9698 70.984C38.1911 70.984 37.4925 71.1653 36.8738 71.528C36.2551 71.8907 35.7698 72.408 35.4178 73.08C35.0658 73.7413 34.8898 74.52 34.8898 75.416C34.8898 76.3013 35.0658 77.08 35.4178 77.752C35.7698 78.4133 36.2551 78.9253 36.8738 79.288C37.4925 79.6507 38.1911 79.832 38.9698 79.832C39.7805 79.832 40.4738 79.656 41.0498 79.304C41.6365 78.9413 42.0845 78.424 42.3938 77.752H44.1378C43.7218 78.8187 43.0605 79.6453 42.1538 80.232C41.2471 80.808 40.1858 81.096 38.9698 81.096C37.9351 81.096 36.9911 80.856 36.1378 80.376C35.2951 79.8853 34.6284 79.208 34.1378 78.344C33.6471 77.48 33.4018 76.504 33.4018 75.416ZM47.7612 69.16V81H46.3052V69.16H47.7612ZM50.9947 70.808C50.7173 70.808 50.4827 70.712 50.2907 70.52C50.0987 70.328 50.0027 70.0933 50.0027 69.816C50.0027 69.5387 50.0987 69.304 50.2907 69.112C50.4827 68.92 50.7173 68.824 50.9947 68.824C51.2613 68.824 51.4853 68.92 51.6667 69.112C51.8587 69.304 51.9547 69.5387 51.9547 69.816C51.9547 70.0933 51.8587 70.328 51.6667 70.52C51.4853 70.712 51.2613 70.808 50.9947 70.808ZM51.6987 72.232V81H50.2427V72.232H51.6987ZM53.6362 76.6C53.6362 75.6933 53.8175 74.904 54.1802 74.232C54.5428 73.5493 55.0442 73.0213 55.6842 72.648C56.3348 72.2747 57.0762 72.088 57.9082 72.088C58.9855 72.088 59.8708 72.3493 60.5642 72.872C61.2682 73.3947 61.7322 74.12 61.9562 75.048H60.3882C60.2388 74.5147 59.9455 74.0933 59.5082 73.784C59.0815 73.4747 58.5482 73.32 57.9082 73.32C57.0762 73.32 56.4042 73.608 55.8922 74.184C55.3802 74.7493 55.1242 75.5547 55.1242 76.6C55.1242 77.656 55.3802 78.472 55.8922 79.048C56.4042 79.624 57.0762 79.912 57.9082 79.912C58.5482 79.912 59.0815 79.7627 59.5082 79.464C59.9348 79.1653 60.2282 78.7387 60.3882 78.184H61.9562C61.7215 79.08 61.2522 79.8 60.5482 80.344C59.8442 80.8773 58.9642 81.144 57.9082 81.144C57.0762 81.144 56.3348 80.9573 55.6842 80.584C55.0442 80.2107 54.5428 79.6827 54.1802 79C53.8175 78.3173 53.6362 77.5173 53.6362 76.6ZM68.7949 81L65.3549 77.128V81H63.8989V69.16H65.3549V76.12L68.7309 72.232H70.7629L66.6349 76.6L70.7789 81H68.7949ZM80.2229 81.144C79.4016 81.144 78.6549 80.9573 77.9829 80.584C77.3216 80.2107 76.7989 79.6827 76.4149 79C76.0416 78.3067 75.8549 77.5067 75.8549 76.6C75.8549 75.704 76.0469 74.9147 76.4309 74.232C76.8256 73.5387 77.3589 73.0107 78.0309 72.648C78.7029 72.2747 79.4549 72.088 80.2869 72.088C81.1189 72.088 81.8709 72.2747 82.5429 72.648C83.2149 73.0107 83.7429 73.5333 84.1269 74.216C84.5216 74.8987 84.7189 75.6933 84.7189 76.6C84.7189 77.5067 84.5162 78.3067 84.1109 79C83.7162 79.6827 83.1776 80.2107 82.4949 80.584C81.8122 80.9573 81.0549 81.144 80.2229 81.144ZM80.2229 79.864C80.7456 79.864 81.2362 79.7413 81.6949 79.496C82.1536 79.2507 82.5216 78.8827 82.7989 78.392C83.0869 77.9013 83.2309 77.304 83.2309 76.6C83.2309 75.896 83.0922 75.2987 82.8149 74.808C82.5376 74.3173 82.1749 73.9547 81.7269 73.72C81.2789 73.4747 80.7936 73.352 80.2709 73.352C79.7376 73.352 79.2469 73.4747 78.7989 73.72C78.3616 73.9547 78.0096 74.3173 77.7429 74.808C77.4762 75.2987 77.3429 75.896 77.3429 76.6C77.3429 77.3147 77.4709 77.9173 77.7269 78.408C77.9936 78.8987 78.3456 79.2667 78.7829 79.512C79.2202 79.7467 79.7002 79.864 80.2229 79.864ZM90.9053 72.072C91.972 72.072 92.836 72.3973 93.4973 73.048C94.1586 73.688 94.4893 74.616 94.4893 75.832V81H93.0493V76.04C93.0493 75.1653 92.8306 74.4987 92.3933 74.04C91.956 73.5707 91.3586 73.336 90.6013 73.336C89.8333 73.336 89.22 73.576 88.7613 74.056C88.3133 74.536 88.0893 75.2347 88.0893 76.152V81H86.6333V72.232H88.0893V73.48C88.3773 73.032 88.7666 72.6853 89.2573 72.44C89.7586 72.1947 90.308 72.072 90.9053 72.072ZM102.909 73.432V78.6C102.909 79.0267 103 79.3307 103.181 79.512C103.363 79.6827 103.677 79.768 104.125 79.768H105.197V81H103.885C103.075 81 102.467 80.8133 102.061 80.44C101.656 80.0667 101.453 79.4533 101.453 78.6V73.432H100.317V72.232H101.453V70.024H102.909V72.232H105.197V73.432H102.909ZM111.313 72.072C111.975 72.072 112.572 72.216 113.105 72.504C113.639 72.7813 114.055 73.2027 114.353 73.768C114.663 74.3333 114.817 75.0213 114.817 75.832V81H113.377V76.04C113.377 75.1653 113.159 74.4987 112.721 74.04C112.284 73.5707 111.687 73.336 110.929 73.336C110.161 73.336 109.548 73.576 109.089 74.056C108.641 74.536 108.417 75.2347 108.417 76.152V81H106.961V69.16H108.417V73.48C108.705 73.032 109.1 72.6853 109.601 72.44C110.113 72.1947 110.684 72.072 111.313 72.072ZM125.196 76.28C125.196 76.5573 125.18 76.8507 125.148 77.16H118.14C118.193 78.024 118.486 78.7013 119.02 79.192C119.564 79.672 120.22 79.912 120.988 79.912C121.617 79.912 122.14 79.768 122.556 79.48C122.982 79.1813 123.281 78.7867 123.452 78.296H125.02C124.785 79.1387 124.316 79.8267 123.612 80.36C122.908 80.8827 122.033 81.144 120.988 81.144C120.156 81.144 119.409 80.9573 118.748 80.584C118.097 80.2107 117.585 79.6827 117.212 79C116.838 78.3067 116.652 77.5067 116.652 76.6C116.652 75.6933 116.833 74.8987 117.196 74.216C117.558 73.5333 118.065 73.0107 118.716 72.648C119.377 72.2747 120.134 72.088 120.988 72.088C121.82 72.088 122.556 72.2693 123.196 72.632C123.836 72.9947 124.326 73.496 124.668 74.136C125.02 74.7653 125.196 75.48 125.196 76.28ZM123.692 75.976C123.692 75.4213 123.569 74.9467 123.324 74.552C123.078 74.1467 122.742 73.8427 122.316 73.64C121.9 73.4267 121.436 73.32 120.924 73.32C120.188 73.32 119.558 73.5547 119.036 74.024C118.524 74.4933 118.23 75.144 118.156 75.976H123.692ZM132.839 73.848C133.127 73.3467 133.554 72.9307 134.119 72.6C134.695 72.2587 135.362 72.088 136.119 72.088C136.898 72.088 137.602 72.2747 138.231 72.648C138.871 73.0213 139.373 73.5493 139.735 74.232C140.098 74.904 140.279 75.688 140.279 76.584C140.279 77.4693 140.098 78.2587 139.735 78.952C139.373 79.6453 138.871 80.184 138.231 80.568C137.602 80.952 136.898 81.144 136.119 81.144C135.373 81.144 134.711 80.9787 134.135 80.648C133.57 80.3067 133.138 79.8853 132.839 79.384V85.16H131.383V72.232H132.839V73.848ZM138.791 76.584C138.791 75.9227 138.658 75.3467 138.391 74.856C138.125 74.3653 137.762 73.992 137.303 73.736C136.855 73.48 136.359 73.352 135.815 73.352C135.282 73.352 134.786 73.4853 134.327 73.752C133.879 74.008 133.517 74.3867 133.239 74.888C132.973 75.3787 132.839 75.9493 132.839 76.6C132.839 77.2613 132.973 77.8427 133.239 78.344C133.517 78.8347 133.879 79.2133 134.327 79.48C134.786 79.736 135.282 79.864 135.815 79.864C136.359 79.864 136.855 79.736 137.303 79.48C137.762 79.2133 138.125 78.8347 138.391 78.344C138.658 77.8427 138.791 77.256 138.791 76.584ZM143.652 69.16V81H142.196V69.16H143.652ZM145.589 76.584C145.589 75.688 145.771 74.904 146.133 74.232C146.496 73.5493 146.992 73.0213 147.621 72.648C148.261 72.2747 148.971 72.088 149.749 72.088C150.517 72.088 151.184 72.2533 151.749 72.584C152.315 72.9147 152.736 73.3307 153.013 73.832V72.232H154.485V81H153.013V79.368C152.725 79.88 152.293 80.3067 151.717 80.648C151.152 80.9787 150.491 81.144 149.733 81.144C148.955 81.144 148.251 80.952 147.621 80.568C146.992 80.184 146.496 79.6453 146.133 78.952C145.771 78.2587 145.589 77.4693 145.589 76.584ZM153.013 76.6C153.013 75.9387 152.88 75.3627 152.613 74.872C152.347 74.3813 151.984 74.008 151.525 73.752C151.077 73.4853 150.581 73.352 150.037 73.352C149.493 73.352 148.997 73.48 148.549 73.736C148.101 73.992 147.744 74.3653 147.477 74.856C147.211 75.3467 147.077 75.9227 147.077 76.584C147.077 77.256 147.211 77.8427 147.477 78.344C147.744 78.8347 148.101 79.2133 148.549 79.48C148.997 79.736 149.493 79.864 150.037 79.864C150.581 79.864 151.077 79.736 151.525 79.48C151.984 79.2133 152.347 78.8347 152.613 78.344C152.88 77.8427 153.013 77.2613 153.013 76.6ZM161.218 72.072C162.284 72.072 163.148 72.3973 163.81 73.048C164.471 73.688 164.802 74.616 164.802 75.832V81H163.362V76.04C163.362 75.1653 163.143 74.4987 162.706 74.04C162.268 73.5707 161.671 73.336 160.914 73.336C160.146 73.336 159.532 73.576 159.074 74.056C158.626 74.536 158.402 75.2347 158.402 76.152V81H156.946V72.232H158.402V73.48C158.69 73.032 159.079 72.6853 159.57 72.44C160.071 72.1947 160.62 72.072 161.218 72.072ZM168.956 73.432V78.6C168.956 79.0267 169.047 79.3307 169.228 79.512C169.409 79.6827 169.724 79.768 170.172 79.768H171.244V81H169.932C169.121 81 168.513 80.8133 168.108 80.44C167.703 80.0667 167.5 79.4533 167.5 78.6V73.432H166.364V72.232H167.5V70.024H168.956V72.232H171.244V73.432H168.956Z" fill="#B0F1EA"/>
<path d="M47.1581 3.03586C47.4996 2.1822 48.7152 2.20301 49.0272 3.06787L62.6455 40.8099C62.8866 41.4782 62.3736 42.1777 61.6638 42.1485L33.4124 40.9864C32.723 40.958 32.2687 40.2564 32.525 39.6158L47.1581 3.03586Z" fill="#2E4F72"/>
</svg>
