<svg width="191" height="135" viewBox="0 0 191 135" fill="none" xmlns="http://www.w3.org/2000/svg">
<path d="M100.59 132.483C100.284 133.35 99.0683 133.38 98.721 132.528L83.563 95.3778C83.2946 94.72 83.7785 94 84.4889 94L112.764 94C113.454 94 113.937 94.6823 113.707 95.333L100.59 132.483Z" fill="#2E4F72"/>
<path d="M0 40C0 17.9086 17.9086 0 40 0H151C173.091 0 191 17.9086 191 40V55C191 77.0914 173.091 95 151 95H40C17.9086 95 0 77.0914 0 55V40Z" fill="#2E4F72"/>
<path d="M49.9922 43.804H48.5362L42.6802 34.924V43.804H41.2242V32.636H42.6802L48.5362 41.5V32.636H49.9922V43.804ZM56.2982 43.948C55.4769 43.948 54.7302 43.7613 54.0582 43.388C53.3969 43.0146 52.8742 42.4866 52.4902 41.804C52.1169 41.1106 51.9302 40.3106 51.9302 39.404C51.9302 38.508 52.1222 37.7186 52.5062 37.036C52.9009 36.3426 53.4342 35.8146 54.1062 35.452C54.7782 35.0786 55.5302 34.892 56.3622 34.892C57.1942 34.892 57.9462 35.0786 58.6182 35.452C59.2902 35.8146 59.8182 36.3373 60.2022 37.02C60.5969 37.7026 60.7942 38.4973 60.7942 39.404C60.7942 40.3106 60.5915 41.1106 60.1862 41.804C59.7915 42.4866 59.2529 43.0146 58.5702 43.388C57.8875 43.7613 57.1302 43.948 56.2982 43.948ZM56.2982 42.668C56.8209 42.668 57.3115 42.5453 57.7702 42.3C58.2289 42.0546 58.5969 41.6866 58.8742 41.196C59.1622 40.7053 59.3062 40.108 59.3062 39.404C59.3062 38.7 59.1675 38.1026 58.8902 37.612C58.6129 37.1213 58.2502 36.7586 57.8022 36.524C57.3542 36.2786 56.8689 36.156 56.3462 36.156C55.8129 36.156 55.3222 36.2786 54.8742 36.524C54.4369 36.7586 54.0849 37.1213 53.8182 37.612C53.5515 38.1026 53.4182 38.7 53.4182 39.404C53.4182 40.1186 53.5462 40.7213 53.8022 41.212C54.0689 41.7026 54.4209 42.0706 54.8582 42.316C55.2955 42.5506 55.7755 42.668 56.2982 42.668ZM74.3886 35.036L71.6526 43.804H70.1486L68.0366 36.844L65.9246 43.804H64.4206L61.6686 35.036H63.1566L65.1726 42.396L67.3486 35.036H68.8366L70.9646 42.412L72.9486 35.036H74.3886ZM77.3376 41.788L75.5456 46.092H74.5696L75.7376 41.788H77.3376ZM84.7271 31.964V43.804H83.2711V31.964H84.7271ZM95.2086 39.084C95.2086 39.3613 95.1926 39.6546 95.1606 39.964H88.1526C88.2059 40.828 88.4992 41.5053 89.0326 41.996C89.5766 42.476 90.2326 42.716 91.0006 42.716C91.6299 42.716 92.1526 42.572 92.5686 42.284C92.9952 41.9853 93.2939 41.5906 93.4646 41.1H95.0326C94.7979 41.9426 94.3286 42.6306 93.6246 43.164C92.9206 43.6866 92.0459 43.948 91.0006 43.948C90.1686 43.948 89.4219 43.7613 88.7606 43.388C88.1099 43.0146 87.5979 42.4866 87.2246 41.804C86.8512 41.1106 86.6646 40.3106 86.6646 39.404C86.6646 38.4973 86.8459 37.7026 87.2086 37.02C87.5712 36.3373 88.0779 35.8146 88.7286 35.452C89.3899 35.0786 90.1472 34.892 91.0006 34.892C91.8326 34.892 92.5686 35.0733 93.2086 35.436C93.8486 35.7986 94.3392 36.3 94.6806 36.94C95.0326 37.5693 95.2086 38.284 95.2086 39.084ZM93.7046 38.78C93.7046 38.2253 93.5819 37.7506 93.3366 37.356C93.0912 36.9506 92.7552 36.6466 92.3286 36.444C91.9126 36.2306 91.4486 36.124 90.9366 36.124C90.2006 36.124 89.5712 36.3586 89.0486 36.828C88.5366 37.2973 88.2432 37.948 88.1686 38.78H93.7046ZM98.9064 36.236V41.404C98.9064 41.8306 98.9971 42.1346 99.1784 42.316C99.3598 42.4866 99.6744 42.572 100.122 42.572H101.194V43.804H99.8824C99.0718 43.804 98.4638 43.6173 98.0584 43.244C97.6531 42.8706 97.4504 42.2573 97.4504 41.404V36.236H96.3144V35.036H97.4504V32.828H98.9064V35.036H101.194V36.236H98.9064ZM103.183 32.652H104.799L103.263 36.284H102.239L103.183 32.652ZM109.563 43.948C108.891 43.948 108.288 43.836 107.755 43.612C107.221 43.3773 106.8 43.0573 106.491 42.652C106.181 42.236 106.011 41.7613 105.979 41.228H107.483C107.525 41.6653 107.728 42.0226 108.091 42.3C108.464 42.5773 108.949 42.716 109.547 42.716C110.101 42.716 110.539 42.5933 110.859 42.348C111.179 42.1026 111.339 41.7933 111.339 41.42C111.339 41.036 111.168 40.7533 110.827 40.572C110.485 40.38 109.957 40.1933 109.243 40.012C108.592 39.8413 108.059 39.6706 107.643 39.5C107.237 39.3186 106.885 39.0573 106.587 38.716C106.299 38.364 106.155 37.9053 106.155 37.34C106.155 36.892 106.288 36.4813 106.555 36.108C106.821 35.7346 107.2 35.4413 107.691 35.228C108.181 35.004 108.741 34.892 109.371 34.892C110.341 34.892 111.125 35.1373 111.723 35.628C112.32 36.1186 112.64 36.7906 112.683 37.644H111.227C111.195 37.1853 111.008 36.8173 110.667 36.54C110.336 36.2626 109.888 36.124 109.323 36.124C108.8 36.124 108.384 36.236 108.075 36.46C107.765 36.684 107.611 36.9773 107.611 37.34C107.611 37.628 107.701 37.868 107.883 38.06C108.075 38.2413 108.309 38.3906 108.587 38.508C108.875 38.6146 109.269 38.7373 109.771 38.876C110.4 39.0466 110.912 39.2173 111.307 39.388C111.701 39.548 112.037 39.7933 112.315 40.124C112.603 40.4546 112.752 40.8866 112.763 41.42C112.763 41.9 112.629 42.332 112.363 42.716C112.096 43.1 111.717 43.404 111.227 43.628C110.747 43.8413 110.192 43.948 109.563 43.948ZM122.188 43.948C121.516 43.948 120.913 43.836 120.38 43.612C119.846 43.3773 119.425 43.0573 119.116 42.652C118.806 42.236 118.636 41.7613 118.604 41.228H120.108C120.15 41.6653 120.353 42.0226 120.716 42.3C121.089 42.5773 121.574 42.716 122.172 42.716C122.726 42.716 123.164 42.5933 123.484 42.348C123.804 42.1026 123.964 41.7933 123.964 41.42C123.964 41.036 123.793 40.7533 123.452 40.572C123.11 40.38 122.582 40.1933 121.868 40.012C121.217 39.8413 120.684 39.6706 120.268 39.5C119.862 39.3186 119.51 39.0573 119.212 38.716C118.924 38.364 118.78 37.9053 118.78 37.34C118.78 36.892 118.913 36.4813 119.18 36.108C119.446 35.7346 119.825 35.4413 120.316 35.228C120.806 35.004 121.366 34.892 121.996 34.892C122.966 34.892 123.75 35.1373 124.348 35.628C124.945 36.1186 125.265 36.7906 125.308 37.644H123.852C123.82 37.1853 123.633 36.8173 123.292 36.54C122.961 36.2626 122.513 36.124 121.948 36.124C121.425 36.124 121.009 36.236 120.7 36.46C120.39 36.684 120.236 36.9773 120.236 37.34C120.236 37.628 120.326 37.868 120.508 38.06C120.7 38.2413 120.934 38.3906 121.212 38.508C121.5 38.6146 121.894 38.7373 122.396 38.876C123.025 39.0466 123.537 39.2173 123.932 39.388C124.326 39.548 124.662 39.7933 124.94 40.124C125.228 40.4546 125.377 40.8866 125.388 41.42C125.388 41.9 125.254 42.332 124.988 42.716C124.721 43.1 124.342 43.404 123.852 43.628C123.372 43.8413 122.817 43.948 122.188 43.948ZM135.443 39.084C135.443 39.3613 135.427 39.6546 135.395 39.964H128.387C128.44 40.828 128.734 41.5053 129.267 41.996C129.811 42.476 130.467 42.716 131.235 42.716C131.864 42.716 132.387 42.572 132.803 42.284C133.23 41.9853 133.528 41.5906 133.699 41.1H135.267C135.032 41.9426 134.563 42.6306 133.859 43.164C133.155 43.6866 132.28 43.948 131.235 43.948C130.403 43.948 129.656 43.7613 128.995 43.388C128.344 43.0146 127.832 42.4866 127.459 41.804C127.086 41.1106 126.899 40.3106 126.899 39.404C126.899 38.4973 127.08 37.7026 127.443 37.02C127.806 36.3373 128.312 35.8146 128.963 35.452C129.624 35.0786 130.382 34.892 131.235 34.892C132.067 34.892 132.803 35.0733 133.443 35.436C134.083 35.7986 134.574 36.3 134.915 36.94C135.267 37.5693 135.443 38.284 135.443 39.084ZM133.939 38.78C133.939 38.2253 133.816 37.7506 133.571 37.356C133.326 36.9506 132.99 36.6466 132.563 36.444C132.147 36.2306 131.683 36.124 131.171 36.124C130.435 36.124 129.806 36.3586 129.283 36.828C128.771 37.2973 128.478 37.948 128.403 38.78H133.939ZM138.821 31.964V43.804H137.365V31.964H138.821ZM142.758 31.964V43.804H141.302V31.964H142.758ZM59.0705 54.236V59.404C59.0705 59.8306 59.1612 60.1346 59.3425 60.316C59.5238 60.4866 59.8385 60.572 60.2865 60.572H61.3585V61.804H60.0465C59.2358 61.804 58.6278 61.6173 58.2225 61.244C57.8172 60.8706 57.6145 60.2573 57.6145 59.404V54.236H56.4785V53.036H57.6145V50.828H59.0705V53.036H61.3585V54.236H59.0705ZM67.4746 52.876C68.136 52.876 68.7333 53.02 69.2666 53.308C69.8 53.5853 70.216 54.0066 70.5146 54.572C70.824 55.1373 70.9786 55.8253 70.9786 56.636V61.804H69.5386V56.844C69.5386 55.9693 69.32 55.3026 68.8826 54.844C68.4453 54.3746 67.848 54.14 67.0906 54.14C66.3226 54.14 65.7093 54.38 65.2506 54.86C64.8026 55.34 64.5786 56.0386 64.5786 56.956V61.804H63.1226V49.964H64.5786V54.284C64.8666 53.836 65.2613 53.4893 65.7626 53.244C66.2746 52.9986 66.8453 52.876 67.4746 52.876ZM81.357 57.084C81.357 57.3613 81.341 57.6546 81.309 57.964H74.301C74.3543 58.828 74.6477 59.5053 75.181 59.996C75.725 60.476 76.381 60.716 77.149 60.716C77.7783 60.716 78.301 60.572 78.717 60.284C79.1437 59.9853 79.4423 59.5906 79.613 59.1H81.181C80.9463 59.9426 80.477 60.6306 79.773 61.164C79.069 61.6866 78.1943 61.948 77.149 61.948C76.317 61.948 75.5703 61.7613 74.909 61.388C74.2583 61.0146 73.7463 60.4866 73.373 59.804C72.9997 59.1106 72.813 58.3106 72.813 57.404C72.813 56.4973 72.9943 55.7026 73.357 55.02C73.7197 54.3373 74.2263 53.8146 74.877 53.452C75.5383 53.0786 76.2957 52.892 77.149 52.892C77.981 52.892 78.717 53.0733 79.357 53.436C79.997 53.7986 80.4877 54.3 80.829 54.94C81.181 55.5693 81.357 56.284 81.357 57.084ZM79.853 56.78C79.853 56.2253 79.7303 55.7506 79.485 55.356C79.2397 54.9506 78.9037 54.6466 78.477 54.444C78.061 54.2306 77.597 54.124 77.085 54.124C76.349 54.124 75.7197 54.3586 75.197 54.828C74.685 55.2973 74.3917 55.948 74.317 56.78H79.853ZM89.0005 54.652C89.2885 54.1506 89.7152 53.7346 90.2805 53.404C90.8565 53.0626 91.5232 52.892 92.2805 52.892C93.0592 52.892 93.7632 53.0786 94.3925 53.452C95.0325 53.8253 95.5338 54.3533 95.8965 55.036C96.2592 55.708 96.4405 56.492 96.4405 57.388C96.4405 58.2733 96.2592 59.0626 95.8965 59.756C95.5338 60.4493 95.0325 60.988 94.3925 61.372C93.7632 61.756 93.0592 61.948 92.2805 61.948C91.5338 61.948 90.8725 61.7826 90.2965 61.452C89.7312 61.1106 89.2992 60.6893 89.0005 60.188V65.964H87.5445V53.036H89.0005V54.652ZM94.9525 57.388C94.9525 56.7266 94.8192 56.1506 94.5525 55.66C94.2858 55.1693 93.9232 54.796 93.4645 54.54C93.0165 54.284 92.5205 54.156 91.9765 54.156C91.4432 54.156 90.9472 54.2893 90.4885 54.556C90.0405 54.812 89.6778 55.1906 89.4005 55.692C89.1338 56.1826 89.0005 56.7533 89.0005 57.404C89.0005 58.0653 89.1338 58.6466 89.4005 59.148C89.6778 59.6386 90.0405 60.0173 90.4885 60.284C90.9472 60.54 91.4432 60.668 91.9765 60.668C92.5205 60.668 93.0165 60.54 93.4645 60.284C93.9232 60.0173 94.2858 59.6386 94.5525 59.148C94.8192 58.6466 94.9525 58.06 94.9525 57.388ZM99.813 49.964V61.804H98.357V49.964H99.813ZM101.751 57.388C101.751 56.492 101.932 55.708 102.295 55.036C102.657 54.3533 103.153 53.8253 103.783 53.452C104.423 53.0786 105.132 52.892 105.911 52.892C106.679 52.892 107.345 53.0573 107.911 53.388C108.476 53.7186 108.897 54.1346 109.175 54.636V53.036H110.647V61.804H109.175V60.172C108.887 60.684 108.455 61.1106 107.879 61.452C107.313 61.7826 106.652 61.948 105.895 61.948C105.116 61.948 104.412 61.756 103.783 61.372C103.153 60.988 102.657 60.4493 102.295 59.756C101.932 59.0626 101.751 58.2733 101.751 57.388ZM109.175 57.404C109.175 56.7426 109.041 56.1666 108.775 55.676C108.508 55.1853 108.145 54.812 107.687 54.556C107.239 54.2893 106.743 54.156 106.199 54.156C105.655 54.156 105.159 54.284 104.711 54.54C104.263 54.796 103.905 55.1693 103.639 55.66C103.372 56.1506 103.239 56.7266 103.239 57.388C103.239 58.06 103.372 58.6466 103.639 59.148C103.905 59.6386 104.263 60.0173 104.711 60.284C105.159 60.54 105.655 60.668 106.199 60.668C106.743 60.668 107.239 60.54 107.687 60.284C108.145 60.0173 108.508 59.6386 108.775 59.148C109.041 58.6466 109.175 58.0653 109.175 57.404ZM117.379 52.876C118.446 52.876 119.31 53.2013 119.971 53.852C120.632 54.492 120.963 55.42 120.963 56.636V61.804H119.523V56.844C119.523 55.9693 119.304 55.3026 118.867 54.844C118.43 54.3746 117.832 54.14 117.075 54.14C116.307 54.14 115.694 54.38 115.235 54.86C114.787 55.34 114.563 56.0386 114.563 56.956V61.804H113.107V53.036H114.563V54.284C114.851 53.836 115.24 53.4893 115.731 53.244C116.232 52.9986 116.782 52.876 117.379 52.876ZM125.117 54.236V59.404C125.117 59.8306 125.208 60.1346 125.389 60.316C125.571 60.4866 125.885 60.572 126.333 60.572H127.405V61.804H126.093C125.283 61.804 124.675 61.6173 124.269 61.244C123.864 60.8706 123.661 60.2573 123.661 59.404V54.236H122.525V53.036H123.661V50.828H125.117V53.036H127.405V54.236H125.117Z" fill="#B0F1EA"/>
</svg>
