<svg width="31" height="23" viewBox="0 0 31 23" fill="none" xmlns="http://www.w3.org/2000/svg">
<path d="M16.503 4.5135C21.255 4.5135 23.952 7.659 24.3435 11.4585H24.4635C25.1899 11.4575 25.9094 11.5996 26.5809 11.8768C27.2523 12.1539 27.8626 12.5606 28.3769 13.0736C28.8912 13.5866 29.2993 14.1959 29.5781 14.8667C29.8568 15.5375 30.0007 16.2566 30.0015 16.983C30.0005 17.7093 29.8565 18.4282 29.5777 19.0989C29.2988 19.7695 28.8906 20.3786 28.3764 20.8915C27.8621 21.4043 27.2519 21.8109 26.5805 22.0879C25.9091 22.3649 25.1898 22.507 24.4635 22.506H8.54101C7.81473 22.507 7.09537 22.3649 6.42401 22.0879C5.75264 21.8109 5.14241 21.4043 4.62816 20.8915C4.1139 20.3786 3.7057 19.7695 3.42686 19.0989C3.14802 18.4282 3.00399 17.7093 3.00301 16.983C3.00379 16.2566 3.14767 15.5375 3.42643 14.8667C3.70519 14.1959 4.11335 13.5866 4.62763 13.0736C5.1419 12.5606 5.75219 12.1539 6.42366 11.8768C7.09513 11.5996 7.81461 11.4575 8.54101 11.4585H8.66101C9.05551 7.6335 11.751 4.5135 16.503 4.5135ZM12 0C14.4255 0 16.575 1.2225 17.85 3.093C17.403 3.03956 16.9532 3.01301 16.503 3.0135C12.012 3.0135 8.74651 5.529 7.59751 9.333L7.49551 9.693L7.40851 10.05L7.09951 10.1085C5.91689 10.36 4.81925 10.9126 3.91288 11.7128C3.00651 12.513 2.32213 13.5337 1.92601 14.676C1.12856 14.0644 0.537401 13.2234 0.231949 12.2659C-0.0735019 11.3085 -0.0786112 10.2805 0.217308 9.32006C0.513227 8.35963 1.096 7.51277 1.88733 6.89326C2.67865 6.27375 3.64063 5.91126 4.64401 5.8545L5.02951 5.8455C5.31956 4.20752 6.17709 2.72397 7.45169 1.65509C8.72628 0.586202 10.3365 0.000245024 12 0Z" fill="#AEEEE7"/>
</svg>
