<svg xmlns="http://www.w3.org/2000/svg" viewBox="0 0 359.09 425"><defs><style>.cls-1{fill:#e08119;}.cls-2{fill:#c10073;}.cls-3{fill:#680061;}.cls-4{fill:#fb8b24;}.cls-5{fill:#d90368;}.cls-6{fill:#820263;}</style></defs><g id="Layer_4" data-name="Layer 4"><path class="cls-1" d="M274.69,378.18l-.05.07a.65.65,0,0,1-.1.15c-.33.52-.67,1-1,1.55s-.65,1-1,1.44-.68,1-1,1.45l-.24.33c-.34.46-.69.92-1,1.39q-1.8,2.35-3.76,4.67-.62.72-1.26,1.44c-.72.81-1.46,1.61-2.22,2.41-.33.36-.67.72-1,1.07l-.5.51c-.35.36-.7.71-1.06,1s-1,.93-1.44,1.38l-.86.8q-.71.66-1.44,1.29c-.39.35-.79.7-1.2,1s-.54.47-.81.69c-.55.46-1.11.91-1.67,1.36-28,22.19-59.78,22.43-95.07,22.69-35.81.27-68.66.52-97.44-22.12-44-34.58-42.57-94.44-42.44-99.73,0-1,.06-2,.11-2.95s.09-1.76.16-2.64c0-.6.08-1.19.14-1.79,0-.33.05-.66.08-1,.06-.69.13-1.39.21-2.08,0-.2,0-.41.07-.61.08-.73.16-1.47.26-2.2,0-.2.05-.4.09-.61.09-.76.2-1.52.33-2.29a1.11,1.11,0,0,1,0-.17c.12-.81.25-1.62.4-2.43.33-2,.72-3.92,1.15-5.88.21-1,.43-1.93.67-2.9.05-.23.11-.46.17-.69.16-.68.33-1.35.51-2,.13-.49.26-1,.41-1.49s.24-.9.38-1.35.25-.9.39-1.35c.18-.65.38-1.3.59-1.95.07-.25.15-.5.23-.74.22-.72.45-1.44.71-2.16.13-.42.27-.84.41-1.25.3-.87.6-1.74.92-2.6v0C38.52,226.82,63,196.22,96.54,179.05l1.12-.57,1.84-.89,1.72-.82,1.72-.78,1.93-.84,1.63-.68c.73-.31,1.47-.6,2.21-.88.47-.19.94-.38,1.41-.55,1.22-.46,2.44-.91,3.68-1.33a123.36,123.36,0,0,1,12.56-3.6l.58-.14q3-.69,6.11-1.24l1-.17q2.94-.51,6-.87c.76-.1,1.53-.18,2.3-.26s1.54-.16,2.31-.23l2.3-.18h0c.78-.06,1.56-.1,2.35-.14s1.81-.09,2.73-.12l2,0,2.39,0h1.89c1,0,2,0,3,.08q6.33.21,12.49,1l1.7.22a136.6,136.6,0,0,1,18.84,3.95c1.1.31,2.19.63,3.27,1l1.62.52,1.61.53,1.39.48c.6.21,1.21.42,1.81.65l1.59.59,1.57.61,1.57.63,1.74.72,1.36.59.71.31,1.36.62c1.35.61,2.69,1.25,4,1.91l1.5.76,1.18.61a138.65,138.65,0,0,1,33.59,24.7q1,1,2,2l1.4,1.48.8.87a138.24,138.24,0,0,1,10.06,12.3l.82,1.14a138,138,0,0,1,7.77,12.22c.23.41.46.82.68,1.23s.53,1,.79,1.45l.67,1.26a138.11,138.11,0,0,1,7.8,18c.19.51.37,1,.54,1.55q.93,2.75,1.74,5.53c.14.46.27.91.39,1.36s.3,1.08.45,1.63.24.88.35,1.33.18.68.26,1,.15.6.22.91l.39,1.64c.17.76.34,1.53.5,2.29.07.34.15.68.21,1,.45,2.22.85,4.45,1.2,6.71.17,1.12.32,2.24.47,3.37l.24,2c.08.76.16,1.52.23,2.29s.14,1.5.2,2.25q.25,3.12.36,6.29l0,1h0c0,1.26.06,2.53.06,3.8C294.84,307.42,295.82,345.43,274.69,378.18Z"/><path class="cls-2" d="M359.09,164.69c0,26.43-11.09,52.64-29.32,71.24l-1.18,1.19c-1.49,1.48-3,2.91-4.62,4.27-.53.46-1.06.91-1.6,1.35l-1.3,1.06c-2.15,1.72-4.38,3.34-6.68,4.84a.94.94,0,0,1-.18.12l-1.31.84-1.42.88-1.44.85-1.45.82-1.47.79c-.49.26-1,.51-1.49.76s-1,.49-1.46.72l-.08,0-1.48.68c-.67.31-1.34.6-2,.88s-1.45.61-2.19.89c-1.22.48-2.45.92-3.7,1.34l-1.5.48-1.43.43c-1.14.34-2.29.65-3.46.93-44.32,10.8-80.75-20.35-89.59-27.91-9.37-8-37.38-32-38.93-67.49-.08-1.89-.09-3.8,0-5.71,0-.41,0-.82,0-1.22s.05-.83.08-1.25.07-1,.12-1.57.11-1.21.18-1.82c.09-.76.18-1.51.29-2.27s.2-1.37.31-2.06c0-.08,0-.16,0-.24.09-.58.19-1.15.31-1.73s.18-.93.28-1.39.2-1,.31-1.43c.23-1,.49-2.07.76-3.1.21-.78.42-1.56.66-2.33.13-.48.28-1,.43-1.43a3.58,3.58,0,0,1,.11-.35c.16-.53.33-1,.51-1.57s.39-1.16.6-1.74.42-1.16.64-1.74.45-1.16.68-1.73c.15-.39.32-.79.48-1.18s.29-.71.45-1.05c.91-2.12,1.9-4.23,3-6.3.27-.53.55-1.06.84-1.58q1.05-2,2.2-3.9l.7-1.16q1-1.57,2-3.12l.12-.18,1-1.53q1.1-1.59,2.25-3.15c.77-1,1.56-2.06,2.37-3.07.4-.51.81-1,1.23-1.51s.7-.84,1-1.26l.51-.58,1-1.11.06-.06,1.28-1.41c1.32-1.44,2.7-2.85,4.12-4.22l1.43-1.36c1-.89,1.94-1.77,2.93-2.65,0,0,0,0,0,0,1-.86,2-1.71,3.05-2.54.52-.41,1-.83,1.56-1.23,1-.81,2.12-1.61,3.2-2.38s2.18-1.53,3.3-2.26l1.68-1.09,1.71-1c.58-.35,1.15-.69,1.73-1l1.32-.75c.88-.49,1.76-1,2.66-1.43.45-.24.9-.46,1.35-.69,1.21-.61,2.43-1.19,3.67-1.73.93-.42,1.86-.82,2.8-1.21s1.89-.77,2.85-1.12l1.93-.7c.62-.22,1.26-.44,1.89-.64l0,0A94.41,94.41,0,0,1,259.44,65,99.64,99.64,0,0,1,359.09,164.69Z"/><path class="cls-3" d="M231.76,72a48.86,48.86,0,0,1-4.11,16.63c0,.1-.09.2-.14.3s-.08.18-.12.27c-.17.4-.36.81-.55,1.2s-.25.52-.38.77c-.24.51-.5,1-.77,1.52-.34.65-.7,1.29-1.06,1.92s-.69,1.2-1,1.79l-.14.22c-.35.57-.71,1.14-1.08,1.7s-.93,1.4-1.4,2.08l-1,1.36c-.43.58-.85,1.15-1.28,1.71s-.83,1.08-1.25,1.6c-.78,1-1.58,2-2.37,2.9l-.12.14-1.23,1.43c-1,1.2-2.06,2.33-3,3.4l-.82.9-.8.87c-8.15,8.91-25.55,27.94-49.31,29.26-32.13,1.78-72-29.07-72-72,0-1,0-2,.07-3,0-.36,0-.71,0-1.07.09-1.7.25-3.39.46-5,.07-.56.15-1.12.23-1.68s.14-.88.22-1.32.13-.76.2-1.14c.12-.63.24-1.25.38-1.87s.25-1.15.39-1.72c.08-.36.17-.73.27-1.09.14-.57.3-1.14.46-1.71.27-.94.56-1.87.86-2.79.13-.4.26-.79.4-1.18s.29-.83.44-1.23c.3-.82.62-1.63,1-2.43l.51-1.2c.34-.8.7-1.58,1.07-2.36l.57-1.16c.19-.39.39-.77.59-1.16l.6-1.14.63-1.12c.41-.72.82-1.42,1.25-2.12l.5-.78c.27-.43.53-.85.81-1.27l.14-.22A71.9,71.9,0,0,1,159.79,0C202.83,0,233.67,40.39,231.76,72Z"/></g><g id="Layer_2" data-name="Layer 2"><path class="cls-4" d="M294.83,303.09c0,5.47,1.57,64.7-41.84,99.16-28,22.19-59.79,22.43-95.07,22.69-35.81.27-68.67.52-97.45-22.12C16.5,368.24,17.9,308.38,18,303.09c1.56-65.08,56.15-138.4,138.4-138.4A138.4,138.4,0,0,1,294.83,303.09Z"/><path class="cls-1" d="M105.05,226c13.67,14.29,30.71,18.67,49.09,22.95,19,4.41,18.34.82,41.18,4.68,25.86,4.37,42.4,11.63,67.08,22.46,7.09,3.12,16.75,7.68,26.39,16.83a79.28,79.28,0,0,1,6,6.35A138.4,138.4,0,0,0,156.43,164.69a130.38,130.38,0,0,0-68,18.9C89.34,199.66,94.2,214.69,105.05,226Z"/><path class="cls-1" d="M247,388.57c-30.25,6.93-63.69,5.13-94.07-.06C120.7,383,90.65,369.24,66.55,347c-25.18-23.21-36-54.31-40.11-87.08A136.31,136.31,0,0,0,18,303.09c-.13,5.29-1.53,65.15,42.44,99.73,28.78,22.64,61.64,22.39,97.45,22.12,35.28-.26,67.11-.5,95.07-22.69a99.21,99.21,0,0,0,21.7-24.07A113.56,113.56,0,0,1,247,388.57Z"/><path class="cls-5" d="M359.09,164.69c0,42.93-29.26,85.28-70.78,95.4-44.33,10.8-80.76-20.35-89.6-27.91-9.37-8-37.37-32-38.92-67.49-2-46.17,41.13-99.65,99.65-99.65A99.65,99.65,0,0,1,359.09,164.69Z"/><path class="cls-2" d="M305,235.39c-21-.47-42-6-61-14.67-17.16-7.81-34.14-20.31-40.38-38.86-7.37-21.89,5.19-41.65,16.73-59.29,6.31-9.65,10.39-18.86,10.75-30.53a126.26,126.26,0,0,0-1.19-22.27c-42.86,14-71.75,57-70.09,94.92,1.55,35.54,29.55,59.48,38.92,67.49,8.84,7.56,45.27,38.71,89.6,27.91,17.61-4.29,33-14.39,44.9-27.86A104.49,104.49,0,0,1,305,235.39Z"/><path class="cls-6" d="M231.76,72c-1.16,19.19-14.31,33.58-22.67,42.71-8.15,8.91-25.54,27.94-49.3,29.26-32.14,1.78-72-29.07-72-72a72,72,0,0,1,72-72C202.83,0,233.66,40.39,231.76,72Z"/><path class="cls-3" d="M203,109.53c-15.31,7.28-33.61,9.08-49.7,3.15-14.63-5.39-26.2-15.41-35.1-28.07-10.53-15-16.85-33.67-18.34-52.5A71.58,71.58,0,0,0,87.82,72c0,42.9,39.83,73.75,72,72,23.76-1.32,41.15-20.35,49.3-29.26,5.74-6.27,13.73-15,18.56-26.08C221,97.19,213.13,104.71,203,109.53Z"/></g></svg>