<svg xmlns="http://www.w3.org/2000/svg" viewBox="0 0 365.9 440.52"><defs><style>.cls-1{fill:#005950;}.cls-2{fill:#93482f;}.cls-3{fill:#00755e;}.cls-4{fill:#ad5b40;}</style></defs><g id="Layer_5" data-name="Layer 5"><path class="cls-1" d="M318.68,330.61c.25-.8.46-1.6.7-2.4.05-.2.11-.39.16-.58a168.65,168.65,0,0,0,.62-90q-5.69,3.47-11.17,6.85c-5.43-28.4-16.64-57.69-34.56-86.07L272,161h0l-.22-.54c-.53-1.28-1.07-2.56-1.61-3.85s-1.1-2.57-1.66-3.86-1.13-2.58-1.71-3.87a504.65,504.65,0,0,0-38.09-69.62L226.09,83q-2.15-4.59-4.35-9.22Q204.57,37.86,183,0q-2.32,4.05-4.58,8.09c-1.32,2.35-2.63,4.7-3.92,7l-2,3.71q-1.47,2.67-2.92,5.34l-2.87,5.33Q159.5,42.79,153,55.84c-.88,1.74-1.74,3.48-2.6,5.21s-1.71,3.46-2.55,5.19c-.47,1-.93,1.9-1.39,2.85q-1.09,2.25-2.16,4.49-1.32,2.76-2.61,5.5c-.61,1.3-1.22,2.59-1.82,3.88l-2.6-3.74A498,498,0,0,0,93.92,161h0c-.16.38-.31.75-.47,1.12.14-.38.3-.76.45-1.13l-2.44-2.52c-17.92,28.38-29.13,57.66-34.56,86.06q-4.48-2.76-9.09-5.56l-.52-.32-1-.63-.53-.32c-.17.63-.33,1.27-.5,1.9h0q-1,3.83-1.76,7.65c-.13.64-.25,1.27-.38,1.91h0l-.36,1.9h0c-.12.63-.23,1.27-.34,1.9h0c-.11.63-.21,1.27-.32,1.9h0c-.1.63-.19,1.26-.29,1.9h0l-.27,1.89h0c-.09.64-.17,1.27-.25,1.9h0c-.16,1.27-.31,2.53-.44,3.8h0c-.07.63-.13,1.26-.19,1.89s-.11,1.27-.16,1.9c-.08.92-.15,1.84-.2,2.76a166.33,166.33,0,0,0,3.5,46.63c.07.34.14.68.22,1q1.38,6.09,3.21,12-22-6.54-47.1-13.71l-.11,0c.72,1.36,1.69,3.15,2.93,5.31.33.59.69,1.21,1.07,1.85,2.42,4.12,5.66,9.29,9.79,15.1.75,1.06,1.53,2.13,2.34,3.23s1.65,2.21,2.52,3.34h0c.88,1.13,1.77,2.28,2.7,3.44s1.9,2.35,2.89,3.54,2,2.38,3.07,3.59a0,0,0,0,1,0,0c1.06,1.21,2.14,2.43,3.26,3.65h0c.84.92,1.71,1.85,2.58,2.78s1.77,1.85,2.68,2.78l1.38,1.4h0l1.41,1.4c1,.94,1.92,1.87,2.91,2.81.66.63,1.32,1.25,2,1.87q2.28,2.1,4.69,4.21c.53.47,1.08.93,1.62,1.4l2.21,1.86q2.23,1.84,4.57,3.68a204.46,204.46,0,0,0,34.94,22.1q3.06,1.51,6.22,3c.66.3,1.31.6,2,.89h0l2,.87c1.34.58,2.69,1.14,4.06,1.7h0c.68.28,1.37.55,2.07.82,2.07.82,4.19,1.61,6.34,2.36h0s0,0,0,0l0,0c-.35-.3-.68-.58-1-.89l1.11.94c-.2-.33-.4-.66-.59-1,.2.34.4.68.61,1v0h.07l0,0,0,0,0,0v0l-.06-.05h0a6.36,6.36,0,0,0,1.5,3h0l0,0a2.39,2.39,0,0,0,.13.21l.14.21.27.41c.2.28.41.56.62.83l.45.55.47.55c.48.53,1,1.05,1.54,1.56l.56.5c.38.33.77.65,1.18,1l.63.48c.42.31.86.62,1.3.92a37.16,37.16,0,0,0,3.62,2.15c.51.27,1,.53,1.57.8s.93.43,1.41.64h0a60.34,60.34,0,0,0,7.41,3.34c1.25.47,2.54.91,3.85,1.32l2,.59,1.52.41c1,.26,2,.51,3.1.75l1.59.34q2.13.43,4.32.78c1.09.17,2.21.33,3.33.47s2.25.26,3.39.37c2.28.22,4.61.37,7,.45h.09a121.18,121.18,0,0,0,15.62.25h0a121.15,121.15,0,0,0,15.62-.25h.22q3.47-.12,6.83-.43c1.14-.11,2.27-.23,3.39-.37s2.23-.3,3.33-.47q2.19-.35,4.32-.78l1.59-.34c1.05-.24,2.08-.49,3.1-.75l1.52-.41,2-.59c1.32-.41,2.6-.85,3.85-1.32a60.65,60.65,0,0,0,7.12-3.17l.29-.17h0l.06,0,1.34-.61c.54-.26,1.06-.53,1.58-.8a36,36,0,0,0,3.62-2.15c.44-.3.88-.61,1.3-.92l.63-.48c.41-.33.8-.65,1.18-1l.56-.5.53-.51a19.27,19.27,0,0,0,1.45-1.56,7,7,0,0,0,.44-.54c.28-.36.55-.73.81-1.1.16-.21.3-.43.43-.64L250,419a.05.05,0,0,0,0,0l0,0,0,0,0,0a7.59,7.59,0,0,0,.78-1.09h0a5.35,5.35,0,0,0,.44-.9,3.53,3.53,0,0,0,.15-.46c0-.16.08-.32.11-.47a.06.06,0,0,0,0,0l0,0c-.43.48-.87.94-1.31,1.39.44-.46.87-.92,1.29-1.39-.6.5-1.21,1-1.82,1.45q.86-.66,1.68-1.35c-.65.49-1.32,1-2,1.42.68-.48,1.35-1,2-1.46-.64.42-1.29.84-1.95,1.24l2-1.26.08-.05h.08s0,0,0,0h0v0h0v0h0v0l0,0h0l.09-.06-.1.08v0c1.13-.4,2.24-.8,3.35-1.22q1.29-.48,2.58-1l1.13-.44c.81-.32,1.61-.64,2.4-1l1.19-.5c.88-.36,1.75-.73,2.62-1.11s1.53-.67,2.28-1l1.86-.85,2.19-1,2-1c.79-.38,1.58-.78,2.36-1.17q2.5-1.27,4.94-2.59c.77-.41,1.52-.83,2.27-1.25q6.15-3.44,11.79-7.12l2.28-1.51c.77-.51,1.54-1,2.29-1.56a208.82,208.82,0,0,0,25.14-20.42l1.4-1.34c1.9-1.83,3.72-3.66,5.48-5.48.69-.71,1.37-1.43,2-2.14s1.38-1.48,2.06-2.22,1.28-1.41,1.9-2.12,1.27-1.43,1.88-2.14,1.23-1.42,1.82-2.13,1.18-1.4,1.75-2.1a206.71,206.71,0,0,0,23.23-34.59Q340.75,324.06,318.68,330.61ZM59.16,334.18h0c.21.8.42,1.6.65,2.4C59.61,335.79,59.38,335,59.16,334.18Zm6.39-50.05c0,.36,0,.72,0,1.07l.06-1.83C65.55,283.63,65.55,283.88,65.55,284.13Zm11.93,21.11c0,.41,0,.81,0,1.21,0-.4,0-.81,0-1.22,0-.12,0-.24,0-.36C77.48,305,77.48,305.12,77.48,305.24Zm1.44,34.95h0c0,.44.1.88.16,1.32C79,341.07,79,340.63,78.92,340.19ZM90.37,218.68l.27-1.12a1,1,0,0,1,0-.23c.13-.49.25-1,.39-1.48C90.84,216.8,90.6,217.74,90.37,218.68Zm2.2-8.52c.17-.68.34-1.37.55-2.06C92.93,208.79,92.74,209.47,92.57,210.16Zm1.75-6.43c-.09.33-.19.65-.28,1l.27-1c.24-.85.48-1.7.73-2.56Q94.67,202.44,94.32,203.73Zm1.52-5.41c.16-.57.32-1.15.49-1.72l.3-1C96.36,196.51,96.1,197.42,95.84,198.32Zm2.65,175h0c0,.7.09,1.4.14,2.1C98.58,374.68,98.53,374,98.49,373.27Zm.71,7.4q-.09-.63-.15-1.26c.06.5.12,1,.19,1.49A1.85,1.85,0,0,1,99.2,380.67ZM99.59,347c0-.13,0-.26,0-.39h0Zm10.56-192.58c-.43,1.18-.84,2.35-1.25,3.51-.11.26-.21.53-.3.8C109.1,157.33,109.62,155.89,110.15,154.45Zm-2.76,256.48c1.11.87,2.25,1.71,3.39,2.52C109.63,412.64,108.5,411.81,107.39,410.93Zm10.93,10.14c-.32-.34-.63-.68-.93-1,.31.36.62.71,1,1.05Zm4.09,3.81c.93.74,1.89,1.46,2.9,2.14C124.3,426.34,123.34,425.63,122.41,424.88Zm111.44,1.54h0s0,0,0,0Zm-4.52.95h0Zm-31.55,9-1.64.28h-.06Zm-8.06-168.06h0l-.35-.45Zm-5,62.46.62.5-.63-.49-1.42-1.1ZM183,150a0,0,0,0,1,0,0c-.25-.41-.5-.82-.74-1.23Zm0,179.46h0c-.73.55-1.45,1.11-2.16,1.66Zm-5.86-189.13.72,1.18c-.25-.39-.49-.78-.73-1.17Zm-7.25,296.33h-.07l-1.63-.28Zm-24.91-75.14,1.09-1-1.07,1q-2,1.92-3.88,3.76C142.3,364,143.59,362.75,144.93,361.47Zm-6.88-274.7.9-2-.9,2Zm44.54,351.45.3,0H183l.3,0Zm64.43-46c.32.55.62,1.08.9,1.61-.29-.53-.59-1.06-.92-1.61Zm-2.59,12.56c-.55-.44-1.14-.88-1.75-1.34C243.3,403.89,243.88,404.34,244.43,404.78Zm-2.18-58.42h0c-.4-.78-.8-1.57-1.22-2.37-.28-.54-.55-1.08-.84-1.63C240.9,343.72,241.58,345.05,242.25,346.36Zm5.36,74.69.59-.42-.61.45-.05,0-.27.18.3-.21ZM255,379.39c-.08-.38-.17-.75-.26-1.13.1.39.19.78.28,1.17C255,379.42,255,379.4,255,379.39Zm1.71,10.17c0-.23,0-.47-.07-.7,0,.23.05.46.08.69s.06.64.08,1ZM257,157.88s0-.08,0-.12l.05.11Zm8.44,183c0,.18.05.36.08.54a5.07,5.07,0,0,0-.09-.54c0-.15,0-.31-.07-.46C265.38,340.55,265.4,340.71,265.43,340.86Zm21.56-.67h0c.1-.8.19-1.61.28-2.42C287.16,338.58,287.08,339.4,287,340.19Zm.41-3.85c0,.41-.09.82-.13,1.23.07-.61.13-1.22.18-1.84l.06-.62h0C287.49,335.52,287.45,335.94,287.4,336.34Zm6.82,42.17q.84-1.1,1.65-2.22h0C295.34,377,294.79,377.78,294.22,378.51Zm2.7-44.38c.11-.59.22-1.18.32-1.77h0Z"/><path class="cls-2" d="M182.94,440.52c-8.56,0-16.12-.22-22.78-.63l-3.73-.25-1.79-.14-1.74-.15-1.7-.16-1.65-.16c-1-.11-2.05-.22-3-.34-1.59-.2-3.1-.4-4.55-.62l-1.34-.2q-3.44-.56-6.37-1.19l-1.14-.25c-.75-.17-1.48-.35-2.18-.53l-1-.27-1.11-.31-1.68-.5-1-.33-.85-.29c-1.26-.45-2.4-.91-3.44-1.38-.22-.09-.43-.19-.63-.29a19.77,19.77,0,0,1-7-5l-.31-.39a8.94,8.94,0,0,1-1.48-2.82,4.5,4.5,0,0,1-.14-.49,4.1,4.1,0,0,1-.1-.48c0-.12,0-.24-.06-.36a9.81,9.81,0,0,1,2.18-7.11s2,5.71,68.6,5.71c54.77,0,68.61-5.71,68.61-5.71a10,10,0,0,1,1.2,1.86c0,.09.09.19.13.29a10,10,0,0,1,.7,2C255.19,427.06,249.58,440.52,182.94,440.52Z"/></g><g id="plant_9" data-name="plant 9"><g id="leaves"><path class="cls-3" d="M183,0C69.78,197.64,48.69,361.46,114.35,415.89c35.9,29.77,101.3,29.77,137.21,0C317.21,361.46,296.12,197.64,183,0Z"/><path class="cls-1" d="M280.7,370c-.47,1.48-.95,2.92-1.46,4.36q-1.74,4.88-3.78,9.39a105,105,0,0,1-6.06,11.39c-.55.91-1.13,1.79-1.71,2.67-1.14,1.72-2.35,3.41-3.6,5-.63.81-1.25,1.6-1.9,2.39-1.3,1.56-2.65,3.06-4,4.53a77.4,77.4,0,0,1-6.58,6.12c-35.91,29.76-101.32,29.76-137.22,0a87.32,87.32,0,0,1-22.5-29.16c-1.44-2.94-2.76-6-4-9.16v0q-1.84-4.74-3.37-9.86c-.34-1.14-.67-2.3-1-3.46Q82.1,359,81,353.48v0c-4.24-21.78-4.77-47.36-1.5-76.12q1.77-15.55,5-32.29c0-.26.09-.51.14-.74q1.17-5.92,2.52-12c.12-.62.26-1.23.4-1.83.44-2,.9-3.92,1.37-5.89.55-2.32,1.13-4.64,1.71-7a1,1,0,0,1,0-.23c.58-2.27,1.18-4.54,1.79-6.84.2-.81.41-1.62.65-2.44q1.53-5.67,3.2-11.45c.27-.91.55-1.84.81-2.74.51-1.69,1-3.41,1.55-5.13.74-2.46,1.51-4.91,2.3-7.4l2.22-6.88.21-.61c.84-2.5,1.67-5,2.55-7.56.77-2.23,1.54-4.48,2.35-6.73.18-.53.37-1.06.58-1.6.81-2.31,1.67-4.68,2.53-7l2.43-6.54c.65-1.72,1.3-3.41,2-5.13q9.12-23.7,20.44-48.57c.58-1.3,1.18-2.57,1.78-3.87v0C150.55,59.63,165,31.52,181.43,2.69c-4.5,42.91-5.18,85.43,5.91,126.29,5.13-8.28,10.58-16.39,15.91-24.56,6.22-9.51,11.74-20.69,18.49-30.68,27.88,58.29,46.91,112.39,57.31,160.07l.15.68q.78,3.6,1.49,7.14c.19.92.36,1.83.54,2.74.38,1.93.76,3.86,1.1,5.77.53,2.91,1,5.79,1.5,8.64.63,3.87,1.18,7.68,1.69,11.46q1.5,11.31,2.25,22c.12,1.79.23,3.55.33,5.31s.16,3.48.23,5.2.11,3.43.14,5.15C288.91,331.47,286.31,352.35,280.7,370Z"/><path class="cls-3" d="M137.22,79.22C41.84,225.75,49,367.22,114.35,415.89c38.69,28.83,107.81,32.56,137.21,0C318.56,341.66,155.4,105.19,137.22,79.22Z"/><path class="cls-1" d="M251.57,415.9c-29.41,32.54-98.53,28.83-137.22,0-32.17-24-50.24-70.49-48.9-129,0-.91,0-1.81.1-2.74,0-.67,0-1.37.07-2,0-.51,0-1,.07-1.55,0-1.16.11-2.32.18-3.51.35-5.93.88-12,1.63-18.13.16-1.44.34-2.86.55-4.29s.4-3,.63-4.41c.09-.74.21-1.51.35-2.27q1.22-7.83,2.85-15.85c8.53-41.51,25.72-86.72,52.93-132.83a166.51,166.51,0,0,0,23.7,82.18,364.68,364.68,0,0,0,28.58-41.15c14.22,23.19,30.17,50.91,44.69,80,.79,1.58,1.56,3.14,2.35,4.71,1.37,2.79,2.71,5.59,4.08,8.4.16.35.32.72.51,1.09.74,1.58,1.48,3.18,2.23,4.75s1.48,3.18,2.2,4.78,1.37,3,2,4.46c.74,1.69,1.51,3.4,2.25,5.1l2.09,4.8c.67,1.6,1.34,3.2,2,4.78.07.16.11.3.18.44,1,2.53,2.09,5.05,3.09,7.56.2.53.41,1,.62,1.58.63,1.57,1.25,3.17,1.86,4.77,3.66,9.51,7,19,9.76,28.23.88,2.86,1.7,5.68,2.46,8.49.91,3.29,1.74,6.57,2.51,9.79.37,1.48.69,2.94,1,4.41.72,3.27,1.34,6.49,1.9,9.67.21,1.11.39,2.22.56,3.34.48,3,.88,5.94,1.18,8.84.16,1.32.28,2.64.39,3.94s.19,2.46.28,3.66a6.56,6.56,0,0,0,.05.79c0,1.21.11,2.37.14,3.55C268.22,383.89,263.63,402.54,251.57,415.9Z"/><path class="cls-3" d="M228.69,79.22c-18.19,26-181.35,262.44-114.34,336.67,29.4,32.56,98.52,28.83,137.21,0C316.86,367.22,324.07,225.75,228.69,79.22Z"/><path class="cls-1" d="M300.51,293c0,55.66-17.91,99.78-48.94,122.93-38.69,28.83-107.83,32.54-137.22,0a55.47,55.47,0,0,1-8.75-13,68.06,68.06,0,0,1-3.52-9c-.65-2.08-1.21-4.24-1.69-6.44s-.86-4.46-1.19-6.75a124.6,124.6,0,0,1-.09-29.44c.14-1.3.28-2.6.44-3.89.35-2.6.72-5.25,1.18-7.94,1.35-8,3.23-16.3,5.55-24.79.76-2.83,1.6-5.68,2.45-8.56,7-22.94,16.82-47,28-70.58.69-1.46,1.41-2.95,2.11-4.41,20.29-42.21,44.42-82.43,62.79-111.21-5,14.12-9.56,28.36-14.15,42.21a642.48,642.48,0,0,0-17.38,64.6,22.25,22.25,0,0,0,14,1.94c13.11-2.45,22.48-15.91,30.81-25.23,16.74-18.81,33-37.92,51.88-54.53a417.17,417.17,0,0,1,21.78,60.51c1.11,4.13,2.18,8.24,3.13,12.32.07.28.14.56.21.86.44,1.9.88,3.82,1.3,5.73.44,2.06.88,4.13,1.27,6.19s.79,4.1,1.16,6.15c.65,3.52,1.21,7,1.72,10.5.37,2.62.72,5.2,1,7.77.21,1.74.4,3.44.58,5.15,0,.16,0,.35,0,.54.21,1.94.37,3.89.53,5.82s.31,3.85.42,5.77c.09,1.56.19,3.11.26,4.64l.07,1.53Q300.51,287.72,300.51,293Z"/><path class="cls-3" d="M91.48,158.43C27.34,260,49.16,373.18,114.35,415.89c44.11,28.89,117.47,31.7,137.21,0C270.15,386,246.16,317.56,91.48,158.43Z"/><path class="cls-1" d="M251.57,415.9c-19.77,31.68-93.11,28.88-137.22,0a114.18,114.18,0,0,1-10.3-7.63,121.56,121.56,0,0,1-9.49-8.82,130.28,130.28,0,0,1-16.35-20.89q-3.61-5.71-6.77-11.88v0a160.55,160.55,0,0,1-9-21.71c-.51-1.53-1-3.06-1.46-4.6-1.41-4.61-2.62-9.37-3.69-14.19a196.62,196.62,0,0,1-4.22-41c0-1.35,0-2.71,0-4.06,0-1,.07-2.06.09-3.11s.09-2.29.14-3.45q.24-4.08.58-8.19c3.09-34,14.43-70,35.72-104.77-1.09,47.76,19.53,93.26,54.65,125.39,9-13.11,19.78-25,31.28-36.07C188,265.78,198.71,279.49,208,292.13q8.39,11.44,15.15,21.74,1.38,2.06,2.66,4.08c.72,1.11,1.42,2.23,2.11,3.32.14.2.28.44.42.67.77,1.2,1.53,2.43,2.25,3.62,3.25,5.31,6.15,10.36,8.75,15.17.6,1.11,1.16,2.18,1.71,3.27q4.45,8.55,7.56,16.09c.33.77.63,1.53.93,2.28q2.61,6.6,4.27,12.45c.21.7.37,1.37.56,2,.23.86.44,1.7.62,2.53,0,.07,0,.14.05.19.18.78.35,1.53.49,2.29C258.52,396.76,256.62,407.76,251.57,415.9Z"/><path class="cls-3" d="M274.43,158.43C119.75,317.57,95.76,386,114.35,415.89c19.74,31.7,93.1,28.89,137.21,0C316.75,373.18,338.57,260,274.43,158.43Z"/><path class="cls-1" d="M251.57,415.9c-44.12,28.88-117.48,31.68-137.22,0-11.11-17.88-7-49.52,31.19-106.14.75-1.09,1.49-2.2,2.25-3.32l2.32-3.36c.82-1.14,1.6-2.27,2.42-3.41.46-.67.95-1.32,1.43-2,23.59-33,57.83-73.76,105.89-124.12-6.13,8.91-13,17.31-20,25.77-11.83,14.45-22.31,29.74-33.19,44.88-14.34,19.9-28.81,40.06-39.64,62a45.53,45.53,0,0,0,7.79,1.81,37.43,37.43,0,0,0,19,.48c16.82-4.43,31.71-18.07,44.84-28.74,21.48-17.44,48.92-30,66.5-51.67C326.46,307.51,302,382.82,251.57,415.9Z"/><path class="cls-3" d="M45.75,237.65C26.56,310,56.26,383.19,114.35,415.89c52.45,29.52,127.34,25.67,137.21,0C259.52,395.18,229.26,349.59,45.75,237.65Z"/><path class="cls-1" d="M251.57,415.9c-9.89,25.65-84.78,29.5-137.22,0C56.27,383.19,26.56,310,45.74,237.65l2.09,1.28c3.68,12.71,6.61,25.65,11.9,37.85,6.37,14.66,16.3,28,27.62,39.29,16.61,16.54,36.79,28.78,58.54,37.06,8.33-11,17.33-21.38,26.51-31.7,6.06,4.5,11.67,8.81,16.89,12.92l1.74,1.39C246.23,379.55,256.62,402.75,251.57,415.9Z"/><path class="cls-3" d="M320.16,237.65C136.65,349.59,106.39,395.18,114.35,415.89c9.87,25.67,84.76,29.52,137.21,0C309.65,383.19,339.35,310,320.16,237.65Z"/><path class="cls-1" d="M320.22,325.21c-10.44,38.57-34.67,71.55-68.65,90.69-52.47,29.5-127.36,25.65-137.22,0-3.39-8.82.16-22.15,19.48-43.14v0c2.23-2.39,4.62-4.89,7.24-7.49s5.47-5.31,8.56-8.14c0,0,0,0,.07-.07.9-.79,1.81-1.6,2.73-2.46,9.77-8.76,21.74-18.55,36.28-29.55-7.79,10.88-15.26,22-21.34,33.75,21.73,2.74,46.95-6.08,66.34-10.46C262.84,341.75,291.92,334.67,320.22,325.21Z"/><path class="cls-3" d="M0,316.87c7.36,13.89,40.62,72.91,114.34,99,60.73,21.51,134.41,15.53,137.21,0C254,402.55,205.28,375.53,0,316.87Z"/><path class="cls-1" d="M251.57,415.9c-2.81,15.52-76.48,21.5-137.22,0-73.71-26.12-107-85.15-114.35-99l.09,0c11,8.14,23.17,14.68,35,21.5,20,11.48,39.83,23.27,60.54,33.5A416.28,416.28,0,0,0,136,389.32a102.46,102.46,0,0,1,35.33-18.53c33.38,12.22,54.25,21.75,66.31,29.29,0,0,0,0,.05,0,1,.65,2,1.28,2.9,1.88l.53.37,1.53,1.09c1.23.91,2.34,1.79,3.3,2.62.55.49,1.06,1,1.53,1.44.25.23.46.47.69.7l.47.51c.18.23.34.44.53.65a13,13,0,0,1,1.67,2.55,11,11,0,0,1,.58,1.58A5.84,5.84,0,0,1,251.57,415.9Z"/><path class="cls-1" d="M237.72,400.1c1,.63,2,1.28,2.9,1.88C239.71,401.38,238.74,400.75,237.72,400.1Z"/><path class="cls-1" d="M242.68,403.44c1.25.91,2.34,1.77,3.3,2.62C245,405.23,243.91,404.35,242.68,403.44Z"/><path class="cls-1" d="M249.2,409.36a11.9,11.9,0,0,1,1.67,2.55A13,13,0,0,0,249.2,409.36Z"/><path class="cls-1" d="M250.87,411.91a6.61,6.61,0,0,1,.58,1.58A11,11,0,0,0,250.87,411.91Z"/><path class="cls-1" d="M251.57,415.9a5.84,5.84,0,0,0-.12-2.41A5.51,5.51,0,0,1,251.57,415.9Z"/><path class="cls-3" d="M365.9,316.87c-205.27,58.66-254,85.68-251.55,99,2.8,15.53,76.47,21.51,137.21,0C325.28,389.78,358.54,330.76,365.9,316.87Z"/><path class="cls-1" d="M236.1,395.05c-21.38,5.37-43.44,9.33-65.53,6.55-7.92-1-16.54-3.26-20.92-10.65a18.6,18.6,0,0,1-.86-1.65c-26.86,12.42-35.48,20.8-34.44,26.59,2.8,15.53,76.47,21.51,137.21,0,43.41-15.38,72.79-42.17,91.11-64.43C311.4,373.27,274.23,385.47,236.1,395.05Z"/></g><g id="base"><path class="cls-4" d="M114.35,415.89s-21.55,24.63,68.59,24.63,68.62-24.63,68.62-24.63S237.72,421.6,183,421.6C116.3,421.6,114.35,415.89,114.35,415.89Z"/><path class="cls-2" d="M192.24,428.16c20.26-2.8,41.7-2.07,61.34-8.12a10.38,10.38,0,0,0-2-4.15S237.72,421.6,183,421.6c-66.65,0-68.6-5.71-68.6-5.71s-17.64,20.17,45.8,24A77.62,77.62,0,0,1,192.24,428.16Z"/></g></g></svg>