<svg xmlns="http://www.w3.org/2000/svg" viewBox="0 0 215.1 456.1"><defs><style>.cls-1{fill:#dd7d3c;}.cls-2{fill:#877b10;}.cls-3{fill:#9b8816;}.cls-4{fill:#f98948;}.cls-5{fill:#cc783a;}</style></defs><g id="Layer_3" data-name="Layer 3"><path class="cls-1" d="M98.9,7.5v444a2.39,2.39,0,0,1-1.5,2.2,27,27,0,0,1-2.92,1.08l.12,0A26.32,26.32,0,0,1,87.54,456c-.39,0-.74,0-1,0l-1,0-1-.05a29.33,29.33,0,0,1-4.5-.67,22.44,22.44,0,0,1-2.24-.62l-.17-.05-.51-.17c-1.15-.39-2.09-.8-2.81-1.12a1.15,1.15,0,0,1-.6-.9V6.8a.37.37,0,0,1,.1-.3.37.37,0,0,1,.1-.3c.1-.2.1-.4.2-.5l.3-.6c.2-.3.4-.6.7-1l.3-.3a11.65,11.65,0,0,1,2-1.6A17.24,17.24,0,0,1,86.2,0a17.24,17.24,0,0,1,8.9,2.2C97.5,3.6,98.9,5.5,98.9,7.5Z"/><path class="cls-2" d="M135.48,238.71a.29.29,0,0,0,0,.09,39.36,39.36,0,0,1-22.85.78l-.92-.26c-.54-.16-1.08-.33-1.63-.52-14.6-5.3-24.9-19.8-26.7-37.3a49.22,49.22,0,0,1,52.1,37.2Z"/><path class="cls-1" d="M153.5,113.3V453a1.38,1.38,0,0,1-1,1.3,47.29,47.29,0,0,1-5.8,1.3.6.6,0,0,0-.4.1c-.3,0-.5.1-.8.1a18.32,18.32,0,0,1-2.1.2c-1.1.1-2,.1-2.6.1-1,0-2,0-3-.1a2,2,0,0,1-.8-.1,8.81,8.81,0,0,1-1.7-.2c-.3,0-.5-.1-.8-.1-1.2-.2-2.2-.4-3.1-.6-.2-.1-.5-.1-.7-.2-.7-.2-1.2-.3-1.7-.5a1.21,1.21,0,0,1-.8-1.2V112.6a3532150915675.22,3532150915675.22,0,0,0,.2-.6c.1-.2.1-.4.2-.5l.3-.6c.2-.3.4-.6.7-1l.3-.3.16-.15A11.13,11.13,0,0,1,131.9,108a19.1,19.1,0,0,1,17.8,0C152,109.4,153.5,111.3,153.5,113.3Z"/><path class="cls-2" d="M78.2,319.3A43.74,43.74,0,0,1,59.9,315c-19.7-9.3-25.1-30.5-26-34.1H34A49.14,49.14,0,0,1,52.8,286.3c17.71,9.38,23.69,27.11,25.22,32.37.06.2.11.37.15.53Z"/><path class="cls-2" d="M78.3,319.2h-.13c0-.16-.09-.33-.15-.53l.18,0A4.33,4.33,0,0,0,78.3,319.2Z"/><path class="cls-2" d="M86.3,165.2l-.14-.08h.1Z"/><path class="cls-2" d="M215.1,329.7a54.69,54.69,0,0,1-19.5,27.2c-13.34,9.76-27.9,10.84-37.41,10.14l-1.62-.13-.88-.09-1.93-.24-.95-.14-.74-.13-1.43-.26-.87-.18-.56-.12-.61-.15-.4-.1c-.1-2.3-.5-18,12-29.5a37.76,37.76,0,0,1,23.9-9.8,99.1,99.1,0,0,1-7.84,12.95A81,81,0,0,1,215.1,329.7Z"/><path class="cls-2" d="M165.6,151.2c-9.7,8.8-21,10.5-25.6,11a71,71,0,0,1,15.6-35.8,69.68,69.68,0,0,1,23.8-18.3C179.7,110.1,183.6,135,165.6,151.2Z"/><path class="cls-2" d="M86.3,165.2l-1,.72.06,0C80.11,169.79,66,179,46.21,178.3H46c-27.1-.9-43.3-19.4-46-22.5a106.9,106.9,0,0,1,36.1-5c3.49.12,6.86.41,10.08.83A50.79,50.79,0,0,1,34.3,133.8a50.68,50.68,0,0,1,23.4,3.3c16.23,6.39,24.41,19.63,27.5,25.77.47.92.82,1.69,1.06,2.24h-.1Z"/><path class="cls-2" d="M90.06,82.1c-.31.64-.58,1.25-.82,1.8l0,.1a48.26,48.26,0,0,0,29.6-8.5c14.6-10.4,18.1-25.7,18.8-29.1a64,64,0,0,0-31,14.1A62.3,62.3,0,0,0,90.06,82.1Zm9.59-6.86-.35.36A1.34,1.34,0,0,1,99.65,75.24Z"/></g><g id="Layer_2" data-name="Layer 2"><g id="Layer_3-2" data-name="Layer 3"><path class="cls-3" d="M89.2,84a62.78,62.78,0,0,1,17.4-23.5,64,64,0,0,1,31-14.1c-.7,3.4-4.2,18.7-18.8,29.1A48.26,48.26,0,0,1,89.2,84Z"/><path class="cls-2" d="M99.9,75.1c4.2-3,8.1-6.7,12.3-9.7,4.5-3.3,9.2-6.2,13.6-9.6,1-.8,1.9-1.6,2.8-2.4-.8.5-1.7,1-2.6,1.6a132,132,0,0,0-14.1,9.3A122.48,122.48,0,0,0,99.3,75.6,1.33,1.33,0,0,1,99.9,75.1Z"/><path class="cls-2" d="M115.5,74.6c-6.8,4.6-16.6,8.1-25.5,7.5-.3.6-.6,1.3-.8,1.8a47.56,47.56,0,0,0,29.6-8.5,47.57,47.57,0,0,0,17.6-24.5C131,60.1,124.3,68.6,115.5,74.6Z"/><path class="cls-4" d="M98.9,7.5v444a2.39,2.39,0,0,1-1.5,2.2A27.82,27.82,0,0,1,86.3,456a29.14,29.14,0,0,1-12.1-2.7,1.15,1.15,0,0,1-.6-.9V6.8a.37.37,0,0,1,.1-.3.37.37,0,0,1,.1-.3c.1-.2.1-.4.2-.5l.3-.6h0c.2-.3.4-.6.7-1l.3-.3a11.65,11.65,0,0,1,2-1.6A17.24,17.24,0,0,1,86.2,0a17.24,17.24,0,0,1,8.9,2.2C97.5,3.6,98.9,5.5,98.9,7.5Z"/><path class="cls-1" d="M88.3,453.1c-2.6-2-2.8-26.6-2.4-39.6.4-17.6-.5-164.4-.2-172,.7-17.8-.5-35.6-.9-53.4-1.3-54-1-63.8-1-70.1-.4-36-.4-53.9-.4-54.9.1-16.8-.8-34-1.4-50.9,0-.9,0-3.7-1.8-5.2a9.92,9.92,0,0,0-2.7-1.3,10.26,10.26,0,0,0-2.6-.4c-.3,0-.5,0-.6-.1-.1.2-.2.3-.2.5a1.69,1.69,0,0,0-.2.5c0,.1-.1.2-.1.3V452.4a1,1,0,0,0,.6.9A27.25,27.25,0,0,0,86.5,456a26.8,26.8,0,0,0,8.1-1.2C93.4,454.5,91.1,455.2,88.3,453.1Z"/><path class="cls-5" d="M84.6,164.3c.1.1.3.2.4.3a6.3,6.3,0,0,1-4.6-3.7c-2.2-1.8-4.5-3.4-6.6-5.1v25.7a37.17,37.17,0,0,1,2.7-4.8,50.21,50.21,0,0,1,5-6.2c1.3-1.4,4.4-3.4,4.4-5.5v-.1A13.92,13.92,0,0,0,84.6,164.3Z"/><path class="cls-5" d="M77.7,318.8c-1.2-.9-2.3-1.9-3.4-2.9-.2-.2-.4-.3-.5-.5v9A17.55,17.55,0,0,1,77.7,318.8Z"/><path class="cls-1" d="M82.3,208.7c.8,2,1.7,3.9,2.6,5.9,2.5,5.4,5.5,10.4,8.1,15.8a83,83,0,0,1,6,18.9V216.2C93.5,213.5,87.9,211,82.3,208.7Z"/><path class="cls-3" d="M135.5,238.7a49.22,49.22,0,0,0-52.1-37.2c1.8,17.5,12.1,32,26.7,37.3A39.74,39.74,0,0,0,135.5,238.7Z"/><path class="cls-2" d="M106.7,232.7c-10.7-5.5-16.8-16.3-22.5-26.6,3,15.4,12.7,27.9,26,32.7a39,39,0,0,0,25.3,0c-.3-1.1-.8-3-1.7-5.5C125.6,237.4,116.2,237.6,106.7,232.7Z"/><path class="cls-2" d="M97.7,213.1a53,53,0,0,0,10.6,8.5c1.7,1,2.8,1.6,6.3,3.5,2.9,1.6,7.2,3.9,12.5,6.9a1.38,1.38,0,0,0-.4-.3c-6.9-5.1-9.6-6.5-16.8-11.3-6.2-4.2-10.4-7.3-14.1-10.3l-.1-.1C96.5,211.1,97.1,212.1,97.7,213.1Z"/><path class="cls-4" d="M153.5,113.3V453a1.38,1.38,0,0,1-1,1.3,47.29,47.29,0,0,1-5.8,1.3.6.6,0,0,0-.4.1c-.3,0-.5.1-.8.1a18.32,18.32,0,0,1-2.1.2c-1.1.1-2,.1-2.6.1-1,0-2,0-3-.1a2,2,0,0,1-.8-.1,8.81,8.81,0,0,1-1.7-.2c-.3,0-.5-.1-.8-.1-1.2-.2-2.2-.4-3.1-.6-.2-.1-.5-.1-.7-.2-.7-.2-1.2-.3-1.7-.5h0a1.21,1.21,0,0,1-.8-1.2V112.6a3532150915675.22,3532150915675.22,0,0,0,.2-.6c.1-.2.1-.4.2-.5l.3-.6h0c.2-.3.4-.6.7-1l.3-.3a11.65,11.65,0,0,1,2-1.6,19.1,19.1,0,0,1,17.8,0C152,109.4,153.5,111.3,153.5,113.3Z"/><path class="cls-1" d="M146.7,455.6a.6.6,0,0,0-.4.1c-.3,0-.5.1-.8.1a18.32,18.32,0,0,1-2.1.2c-1.1.1-2,.1-2.6.1-1,0-2,0-3-.1a2,2,0,0,1-.8-.1,8.81,8.81,0,0,1-1.7-.2c-.3,0-.5-.1-.8-.1-1.2-.2-2.2-.4-3.1-.6-.2-.1-.5-.1-.7-.2-.7-.2-1.2-.3-1.7-.5h0a1.21,1.21,0,0,1-.8-1.2V112.6a3532150915675.22,3532150915675.22,0,0,0,.2-.6c.1-.2.1-.4.2-.5l.3-.6h0c.2-.3.4-.6.7-1l.3-.3a1.38,1.38,0,0,1,.4-.3,1.23,1.23,0,0,1,1.4-.2,7.37,7.37,0,0,1,2.5,2.2c.1.1.1.2.2.4l1.1,3.3c1,33.6,1.6,67.9,1.7,103.1q.15,46.5-.9,91.1c-.9,51.8-.4,101-.4,114.8,0,9.9-.7,26.4.9,28.7C139.5,456.5,144.6,455.5,146.7,455.6Z"/><path class="cls-1" d="M141.8,161.9a12.25,12.25,0,0,1,1.9-.2,13.1,13.1,0,0,1,7.2,1.8,11.38,11.38,0,0,1,2.5,1.8V143C148.9,149,144.6,155.1,141.8,161.9Z"/><path class="cls-1" d="M151.3,358.5c-1.5,1.8-2.1,4.4-2.9,6.8a19.45,19.45,0,0,1,5.1,5.9V356.7A7.87,7.87,0,0,0,151.3,358.5Z"/><path class="cls-3" d="M78.2,319.3c-1.2-4.3-6.9-23.2-25.4-33a49.1,49.1,0,0,0-18.9-5.4c.9,3.6,6.3,24.8,26,34.1A43.74,43.74,0,0,0,78.2,319.3Z"/><path class="cls-2" d="M51.6,295.6c-3.4-2.8-6.4-5.5-9.1-8.2,7.7,8.7,13.5,13.3,17.6,15.9a68.27,68.27,0,0,1,11.3,8.9c1.2,1.2,2.4,2.5,3.5,3.7a51.72,51.72,0,0,0-5.8-6.9,47.13,47.13,0,0,0-7.3-5.8A89.52,89.52,0,0,1,51.6,295.6Z"/><path class="cls-2" d="M52.1,307.5a51.05,51.05,0,0,1-10.8-12.8c-2.4-3.8-3.6-9.9-6.7-13.1a4.35,4.35,0,0,1-.6-.7c.9,3.7,6.4,24.7,26,34.1a44.33,44.33,0,0,0,18.3,4.2,4.33,4.33,0,0,1-.1-.5A50.25,50.25,0,0,1,52.1,307.5Z"/><path class="cls-3" d="M86.3,165.2c-1.8-4.1-9.8-20.7-28.6-28.1a50.68,50.68,0,0,0-23.4-3.3,50.66,50.66,0,0,0,21.1,24.9A51.43,51.43,0,0,0,86.3,165.2Z"/><path class="cls-2" d="M62.9,149.5c-5.9-3.8-12.2-6.7-18.6-9.7,4.6,3.1,9.4,6,13.9,8.9,5.9,3.8,11.9,7.2,18.1,10.4C71.9,155.8,67.5,152.5,62.9,149.5Z"/><path class="cls-2" d="M74.8,158.5A94.56,94.56,0,0,0,56.3,152a30.37,30.37,0,0,1-15-8.4c-1.5-1.5-3-3-4.6-4.7a49.58,49.58,0,0,0,18.7,19.6,51.25,51.25,0,0,0,31,6.6,22.06,22.06,0,0,0-1.1-2.2A63.26,63.26,0,0,1,74.8,158.5Z"/><path class="cls-3" d="M86.3,165.2a108.46,108.46,0,0,0-50.2-14.4,106.9,106.9,0,0,0-36.1,5c2.7,3.1,18.9,21.6,46,22.5A63.66,63.66,0,0,0,86.3,165.2Z"/><path class="cls-2" d="M47.7,163.4c-8.3-1-16.5-2.7-24.8-4.2l-5.2-.9q3.3,1,6.3,2.1a106.3,106.3,0,0,0,25.5,4.8,193.81,193.81,0,0,0,24.1-.2C65.1,164.5,56.3,164.4,47.7,163.4Z"/><path class="cls-2" d="M84.6,166.1c-7.5,1.7-14.4,5.9-21.8,7.9a52.44,52.44,0,0,1-22.3.8c-13.5-2.2-26.4-8.3-37.7-16.1,6.1,6.2,21,18.8,43.3,19.6a63.19,63.19,0,0,0,39.3-12.4A3.09,3.09,0,0,1,84.6,166.1Z"/><path class="cls-3" d="M148.2,365.5c-.1-2.3-.5-18,12-29.5a37.76,37.76,0,0,1,23.9-9.8,98.72,98.72,0,0,1-35.9,39.3Z"/><path class="cls-2" d="M172.4,338.1a50.47,50.47,0,0,0-12.6,8.9,49.11,49.11,0,0,0-11.6,17.6v.9a95.49,95.49,0,0,0,16.9-13.4,103,103,0,0,0,13.4-16.4C176.5,336.6,174.3,337.2,172.4,338.1Z"/><path class="cls-2" d="M164.5,341.1c2.5-2.3,5.4-5.1,8.6-7.6a36.25,36.25,0,0,0-9.6,6.3,44.88,44.88,0,0,0-9.9,13.8A77,77,0,0,1,164.5,341.1Z"/><path class="cls-3" d="M148.2,365.5a75.55,75.55,0,0,1,18.1-19.9c19.4-14.9,40.6-16,48.8-15.9a54.69,54.69,0,0,1-19.5,27.2C175.1,371.9,151.7,366.4,148.2,365.5Z"/><path class="cls-2" d="M182.3,349c6.1-3.2,12.2-6.2,17.6-10.5l-1.2.6c-6.2,3-12.5,5.8-18.5,9.2-6.4,3.5-12.4,8.2-18.6,12.3C168.8,357.4,175.3,352.7,182.3,349Z"/><path class="cls-2" d="M188.6,357.4c-13,6.5-26.1,6.8-40,8.2,4.5,1.1,27.2,5.8,47-8.8a53,53,0,0,0,14.3-15.9A69.8,69.8,0,0,1,188.6,357.4Z"/><path class="cls-3" d="M140,162.2a71,71,0,0,1,15.6-35.8,69.68,69.68,0,0,1,23.8-18.3c.3,2,4.2,26.9-13.8,43.1C155.9,160,144.6,161.7,140,162.2Z"/><path class="cls-2" d="M161.1,149.4c-6.2,4.8-13.2,8.4-19.8,12.6a44,44,0,0,0,24.3-10.9,43,43,0,0,0,12.7-21.5C173.4,137,168.2,143.9,161.1,149.4Z"/><path class="cls-2" d="M157.2,143.1c6.3-7.4,13.5-14.8,17.3-23.9-7.6,8.6-14.7,17.5-21.6,26.6q-2.25,3.45-4.2,6.9C151.5,149.5,154.4,146.4,157.2,143.1Z"/></g></g></svg>