<svg xmlns="http://www.w3.org/2000/svg" viewBox="0 0 298.09 425"><defs><style>.cls-1{fill:#59b53b;}.cls-2{fill:#ddb201;}.cls-3{fill:#7fcf4a;}.cls-4{fill:#f9c80e;}.cls-5{fill:#f9c709;}</style></defs><g id="Layer_7" data-name="Layer 7"><path class="cls-1" d="M185,293.67c0,1.62,0,3.21,0,4.79q0,2.82-.06,5.55-.08,7-.14,13.52c0,.62,0,1.23,0,1.84,0,1.22,0,2.43,0,3.62,0,.6,0,1.19,0,1.78,0,1.69,0,3.35-.05,5V330c0,1,0,2,0,3v.4c0,2.2,0,4.35-.06,6.43,0,1.57,0,3.1,0,4.59,0,.49,0,1,0,1.45,0,1,0,1.91,0,2.84,0,.46,0,.92,0,1.38q0,5.72-.08,10.68,0,2.46,0,4.74c0,.5,0,1,0,1.47s0,1.24,0,1.84c0,1.08,0,2.13,0,3.15s0,1.95,0,2.88q0,3.47,0,6.33c0,5.18,0,8.85.05,11,.12,6.65,0,10.45-.29,18-.22,5.93-.12,6.38-.49,7.21a8.49,8.49,0,0,1-.58,1.07h0a.41.41,0,0,1-.05.09l-.2.27a4.35,4.35,0,0,1-.33.42l0,0c-.15.17-.29.33-.45.48a.94.94,0,0,1-.1.1c-.14.13-.28.26-.43.38a9.22,9.22,0,0,1-1.17.85l-.37.24-.29.16-.42.22-.65.31c-.21.1-.43.19-.65.27a28.46,28.46,0,0,1-6,1.59c-.7.12-1.43.23-2.17.32l-1.13.14-1.16.12-1.19.1c-3.13.25-6.53.37-10.11.43l-2.78,0-3.17,0c-15.17.12-28.36.08-32-6.26-.1-.18-.19-.37-.28-.56a3.18,3.18,0,0,1-.12-.74,1.11,1.11,0,0,1,0-.19c-.1-1.17-.2-3.41-.25-6.82,0-3.73,0-7,0-9.65q0-1.06,0-2,0-.61,0-1.17c0-.55,0-1.06,0-1.51,0-.74,0-1.34.06-1.8,0-.09,0-.17,0-.24,0-.54,0-.82,0-.82q0-.86.09-2c0-.52.06-1.08.08-1.68,0-.3,0-.61,0-.94,0-.52,0-1.07.07-1.65q.06-1.27.12-2.73c0-.1,0-.2,0-.31,0-.48,0-1,.07-1.5,0-.68.06-1.39.09-2.12,0-.46,0-.94.06-1.43,0-1,.09-2,.13-3v-.08l.06-1.16c0-.13,0-.27,0-.4,0-.35,0-.7,0-1.06l0-.65c0-.14,0-.29,0-.43l.06-1.39.06-1.31,0-.72c0-.67.06-1.36.09-2.05.06-1.44.12-2.91.18-4.43,0-1,.1-2.13.14-3.22.06-1.42.12-2.89.18-4.38,0-.13,0-.26,0-.39,0-.55,0-1.12.07-1.68h0c.05-1.13.09-2.28.14-3.45,0-.59.05-1.17.07-1.77,0-.12,0-.24,0-.37v-.1l.06-1.33,0-.7c0-.67.06-1.34.08-2,0-.32,0-.64,0-1,0-.62,0-1.25.08-1.88l.09-1.9c.08-1.83.15-3.7.23-5.6,0-.09,0-.19,0-.28.07-1.66.14-3.35.21-5.06s.15-3.45.22-5.22c0-.41,0-.82,0-1.24.07-1.69.14-3.39.22-5.13,0-.35,0-.7,0-1.06v-.05c.09-2.07.17-4.17.26-6.3V308c.06-1.39.12-2.8.18-4.21.09-2.17.19-4.37.28-6.59,0-.46,0-.91.09-1.36,0-.07,0-.15,0-.22a1.65,1.65,0,0,1,0-.21c0-.29.06-.59.1-.88.1-.82.23-1.63.38-2.43.06-.34.13-.68.21-1s.14-.6.21-.9c.14-.54.28-1.07.44-1.59,0,0,0,0,0,0,.08-.26.16-.53.25-.79s.17-.53.27-.8.19-.53.29-.79.21-.56.33-.84.19-.47.29-.7c.18-.41.36-.81.55-1.21s.34-.7.51-1l.08-.13c.22-.44.46-.87.71-1.3s.51-.85.77-1.27.53-.82.81-1.22l.64-.9.49-.63c.1-.14.21-.27.32-.4s.21-.26.32-.39c.29-.36.59-.71.89-1.05l.05,0q.45-.51.93-1l0-.06.05-.06,1-.95c.33-.31.65-.61,1-.9l.07-.06c.36-.31.73-.62,1.1-.91s.74-.59,1.12-.87.76-.54,1.14-.81h0l1.18-.76.11-.07c.55-.33,1.13-.65,1.7-1l.75-.39c.53-.27,1.08-.52,1.62-.76l1-.38.15-.06.79-.29,0,0,.06,0c.45-.16.91-.31,1.36-.45l1.16-.32.55-.14.56-.12c.29-.07.58-.12.88-.18.65-.12,1.3-.22,2-.3l1-.1,1-.07,1.21,0c.55,0,1.1,0,1.65.05s1,.08,1.53.14,1.28.17,1.91.29,1.26.27,1.88.43c.83.22,1.64.48,2.45.77a29.75,29.75,0,0,1,4.68,2.2c.75.43,1.48.9,2.2,1.4A35.11,35.11,0,0,1,185,293.67Z"/><path class="cls-1" d="M117.87,220c3.78,10-23,20.24-43.77,52.32a69,69,0,0,1-14.35,16.29c-9.32,7.66-21.09,13.07-22.88,10.86s8.75-8.71,15.12-23.66c7.48-17.52-.18-24.47,7.37-39.17,1.11-2.15,9.34-17.56,27.15-22.1C97.79,211.69,115.07,212.62,117.87,220Z"/><path class="cls-1" d="M287.15,279.59a23.17,23.17,0,0,1-3.23,2.4l-.81.48-.16.09a3.61,3.61,0,0,1-.39.22c-.83.47-1.72.92-2.66,1.35l-1.16.5c-.8.33-1.62.64-2.47.92l-1.06.34c-.6.18-1.22.35-1.84.5-.35.09-.71.17-1.07.24s-.91.18-1.37.26-.92.14-1.39.2A31.38,31.38,0,0,1,251.71,284c-7-3.61-6.62-7-14.35-13.57-11.55-9.75-19.93-8.43-20.75-13.77s7-12.89,15.12-13.76a14.75,14.75,0,0,1,1.61-.09c.29,0,.57,0,.85,0s.73.05,1.09.1.63.09.93.15l.66.14a15.37,15.37,0,0,1,1.79.53,3.39,3.39,0,0,1,.41.15c.17.06.35.13.52.21l.5.21c.54.24,1.06.5,1.57.78l.93.53c.64.38,1.25.78,1.84,1.19l.69.5c.46.34.91.68,1.34,1,.83.66,1.61,1.31,2.34,1.92,11.92,10,9.64,18.86,19,23.84,9.93,5.29,20.49-.45,21.33,2.14C289.39,277,288.63,278.24,287.15,279.59Z"/><path class="cls-2" d="M221.26,91.06C204,70.33,180.17,69.37,170.05,46a103.41,103.41,0,0,1-7.54-28.45c-1-11.5.84-17.16-.38-17.55s-5.41,5.16-10.51,15.12v0c-.27.52-.54,1.06-.81,1.61l-.09.18-.6,1.22c-.27.53-.53,1.07-.79,1.62s-.62,1.31-.93,2l-.74-.95q-1.56-2-3.37-4c-.39-.42-1.11-1.21-2.06-2.19-.18-1.07-.42-1.68-.95-1.79a1,1,0,0,0-.7.13c-3.91-3.82-9.66-8.62-12.58-7-1.92,1-1.37,4.17-.52,9.45l0,.22q.1.63.21,1.32c.12.76.24,1.56.35,2.4h0l.06.46c.07.49.14,1,.2,1.52,0,.22,0,.45.07.68a1,1,0,0,0,0,.18c.06.54.12,1.1.17,1.67l.09,1.07c0,.5.07,1,.1,1.54,0,.33,0,.67.06,1a.22.22,0,0,0,0,.08s0,0,0,0a0,0,0,0,0,0,0c-.53-.45-1.06-.88-1.6-1.31-8.24-6.53-22.82-16.53-25.8-13.75a.7.7,0,0,0-.21.63,2,2,0,0,0,.06.32,2.79,2.79,0,0,0,.12.34,4.47,4.47,0,0,0,.29.58c0,.1.12.22.19.33.52.85,1.31,1.91,2.25,3.18l.39.52a65.37,65.37,0,0,1,6.81,10.79c.17.35.34.71.5,1.07a1.42,1.42,0,0,1,.08.18c.16.36.32.72.47,1.09s.35.87.51,1.31c.08.2.15.4.22.61a.14.14,0,0,1,0,.06c.09.25.18.5.26.76.14.43.28.86.4,1.31l0,.09c.1.36.2.72.29,1.09.15.59.29,1.2.41,1.81s.18,1,.25,1.44.14,1,.2,1.5v0c0,.51.1,1,.13,1.55v0c0,.52,0,1.06.06,1.6.29,23.38-24.07,29.12-40.49,63.19-5.22,10.83-16.5,34.22-9.31,60.49,7.74,28.28,33.07,46.92,50.61,51.19,7.45,1.82,17.06,1.91,20.16,1.94,13.3.13,17.11-2.11,18.86-3.39l.14-.11c17.06,4.89,35.73-1.42,37.23-1.93a65.92,65.92,0,0,0,32.38-24.43q1.88-2.66,3.5-5.5c.41-.73.82-1.47,1.21-2.22.2-.38.4-.77.59-1.16l0,0C244.13,154.69,241.06,114.8,221.26,91.06ZM134.18,59.92h0c.31.22.62.43.95.63C134.82,60.34,134.5,60.14,134.18,59.92Zm5.48-46.17a3.17,3.17,0,0,1,.69-.65C140.18,13.25,139.94,13.47,139.66,13.75Zm5.43,15.43h0c.07.2.14.4.22.59C145.24,29.58,145.17,29.38,145.09,29.18Z"/><path class="cls-1" d="M290.1,224.65c-.77-2.36-9.16,1.6-19.45-1.19-18.3-5-19.13-24.89-35.43-27.12-.54-.07-1.08-.13-1.62-.15a33.43,33.43,0,0,0-8.14.79c-.3.06-.59.13-.89.21l-.07,0-1,.29-.86.27L222,198l-.67.24a2.09,2.09,0,0,0-.3.11l-.29.11-.43.16-.09,0-.18.07-.14.06-.28.11-.46.19-.58.26-.93.44-.13.06c-5.69,2.87-6.65,5.54-15.16,10.55-5.59,3.29-7.89,3.73-9.08,4.63-.29,0-.58,0-.87.08-4.93.63-8.46,3.39-17.74,3.91-12.14.68-15.56-3.52-19.62-1.87h0l-1-.12a11.25,11.25,0,0,0-1.74,0l-.39,0-.29,0-.61.08-.19,0-.42.07h-.07l-.92.18-.63.13-.43.1-.93.19-.79.16-.48.09c-.48.1-1,.2-1.55.29-.1,0-.21,0-.31.06-1.43.25-3.1.49-5.11.71a80.88,80.88,0,0,1-11.78.45l-1.2-.05-.72,0-2-.12h-.2l-.63,0c-1,0-1.82-.06-2.64,0l-.81,0c-.27,0-.53.05-.8.09l-.58.1h0c-.72.12-1.43.28-2.14.47a20,20,0,0,1,2.14-.48,1.58,1.58,0,0,0-.31-.41c-.1-.1-.22-.2-.35-.31h0a4.81,4.81,0,0,0-.47-.3,33.18,33.18,0,0,0-5.55-2.16c-15.47-5.11-17.36-11.83-26.75-14.83a26.6,26.6,0,0,0-4.22-1c-.68-.09-1.37-.17-2.06-.22h-.15c-1-.07-2.07-.09-3.11-.06l-1,.05-1,.07c-1,.09-2,.22-3,.38l-1,.18c-.66.13-1.31.27-2,.43s-1.3.34-1.94.53c-.33.1-.65.19-1,.3l-1,.31c-.63.22-1.26.45-1.88.69-.88.35-1.75.72-2.6,1.1-.35.16-.7.32-1,.5s-.81.4-1.2.61a45.69,45.69,0,0,0-8.92,6c-12.49,10.88-8.23,21.87-20.55,29.47S.64,244.13,0,247.14c-.16.77.42,1.78,1.57,2.89l.25.24.59.5c.15.13.31.25.48.38.34.26.7.52,1.09.79l.58.38.57.36c.67.41,1.4.83,2.18,1.25s1.51.78,2.33,1.16c.57.26,1.16.53,1.77.79l.84.35.93.37.93.36.19.07c.89.33,1.82.65,2.76,1l1,.32,1,.31c.69.2,1.4.39,2.12.58q1.75.45,3.57.81l1.86.35.32.05.93.15,1.15.16c20.36,2.66,37.11-5.46,42.08-8,14.68-7.36,17.19-14.44,28.45-21.42-7,7.94-12.11,17.61-14.3,21.74-15.42,29.13-7.9,43.43-17.84,70.57q-.93,2.54-2,4.91c-.19.47-.4.93-.6,1.38-.79,1.76-1.63,3.46-2.49,5.1-.17.33-.34.65-.52,1s-.49.9-.74,1.34c-.44.79-.89,1.57-1.35,2.33-.27.44-.54.88-.82,1.32-.52.84-1.05,1.67-1.6,2.47l-.82,1.2c-.81,1.18-1.64,2.31-2.48,3.41-.55.74-1.11,1.45-1.68,2.15-.28.35-.56.69-.85,1,0,0,0,0,0,0-.27.34-.55.66-.83,1s-.56.66-.85,1c-.84,1-1.68,1.91-2.53,2.8-.27.3-.55.6-.84.89s-.54.58-.83.86-.34.36-.51.53l-.51.52h0l-.89.87c-.29.3-.59.59-.88.86-.58.57-1.16,1.11-1.73,1.64l-.85.77-.25.23c-.19.19-.39.37-.58.54l-.18.16-.64.57-.11.09-.52.47-.94.81c-1.21,1.06-2.35,2-3.4,2.93-.18.16-.37.31-.54.47-1.41,1.2-2.63,2.27-3.61,3.21l-.43.44-.52.53h0l-.46.5-.28.34-.12.17a1,1,0,0,0-.11.17l-.06.07a.76.76,0,0,0-.08.11l-.2.33-.14.29a1.46,1.46,0,0,0-.07.19,1.46,1.46,0,0,0-.07.19,1.57,1.57,0,0,0-.06.28,1.64,1.64,0,0,0,0,.22,2.09,2.09,0,0,0,0,.25,1.48,1.48,0,0,0,.12.41l.11.19a2.13,2.13,0,0,0,.56.56,4,4,0,0,0,.85.39,5,5,0,0,0,.61.15,9.43,9.43,0,0,0,1,.13h.11c.38,0,.79,0,1.22,0h.14l.62,0h.21l.24,0h.18l.29,0,.48-.06a.31.31,0,0,0,.16,0l.84-.12.42-.07.42-.07,1.11-.22,1.64-.37.86-.21.89-.24c.9-.24,1.84-.52,2.82-.82l1-.32c.67-.21,1.35-.44,2-.68,1.76-.61,3.62-1.29,5.56-2.05l1.82-.74,1.76-.73.46-.2c.59-.25,1.18-.5,1.78-.77s1.38-.6,2.08-.92l2.11-1,2.16-1q2.17-1.05,4.43-2.19l1.84-.94.74-.38,2-1.06c1.31-.7,2.63-1.43,4-2.17l1.13-.64c2.33-1.31,4.69-2.7,7.08-4.15.72-.43,1.44-.87,2.15-1.32,1.27-.79,2.55-1.59,3.83-2.42.56-.35,1.11-.71,1.66-1.08s1.11-.72,1.67-1.1l1-.66,1.73-1.17,2.89-2,2.08-1.48c.94-.67,1.88-1.35,2.82-2.05.72-.52,1.44-1.06,2.15-1.6q4.64-3.48,9.2-7.26l1.46-1.22,1.64-1.39c.58-.49,1.81-1.56,3.54-3.12l.53-.48,2.12-1.93.87-.81c2.51-2.34,5.51-5.22,8.78-8.52l1.79-1.82.07-.08c.8-.82,1.61-1.66,2.43-2.53q1.84-2,3.74-4l1.27-1.4,2.55-2.88,1.31-1.51c.41-.48.83-1,1.24-1.47,2.35-2.78,4.68-5.67,6.92-8.65a188.25,188.25,0,0,0,9.38,23.71c7.21,15.09,19.87,36,42.65,51.58,3.67,2.5,25.58,17.15,31.41,11.63a3.7,3.7,0,0,0,.49-.57,3.92,3.92,0,0,0,.34-.64,4.25,4.25,0,0,0,.2-.72,5.71,5.71,0,0,0,0-1.55q0-.34-.12-.72c-.07-.32-.16-.66-.26-1l-.12-.39a33,33,0,0,0-1.49-3.59l-.28-.57,0-.09c-.08-.17-.17-.33-.25-.5-2.2-4.41-5.45-10-8.48-16.87a89.44,89.44,0,0,1-7.06-24.34c-5-37.16,20-50.38,10.3-78.1,11.44.21,22.49-4.74,37.79-11.61l1.54-.71C280.25,233.4,291,227.35,290.1,224.65Zm-114.22,22.1c0-.11,0-.22,0-.32a.66.66,0,0,1,0,.14A1.08,1.08,0,0,1,175.88,246.75Z"/></g><g id="Layer_2" data-name="Layer 2"><path class="cls-3" d="M121.79,297.17c-2.11,50.35-3.6,86.8-4.07,96.07,0,0-.35,6.82-.19,17.16a54,54,0,0,0,.38,7.76c3.13,6.9,16.65,6.94,32.24,6.81,16.21-.12,30.2-.38,33.4-7.65.36-.83.27-1.28.48-7.21.28-7.59.42-11.38.29-18-.15-8.56.08-41.45.68-98.4-2-15.79-13.88-27.87-27.53-29.48C140.49,262.2,122.81,276.64,121.79,297.17Z"/><path class="cls-1" d="M143.9,355.92c-3.66,3.09-5.13,7.69-5.26,24-.17,22.26-.36,33.52,5.26,38,7.37,5.9,20.6,4.45,25.16,3.94A52.84,52.84,0,0,0,183,418.39c-4.08,6.22-17.45,6.47-32.82,6.58-15.59.13-29.11.09-32.24-6.81a55.89,55.89,0,0,1-.38-7.76c-.16-10.35.19-17.16.19-17.16.16-3,.42-9,.78-17.41,0-.54,0-1.08.07-1.64s.05-1.13.07-1.71.06-1.2.08-1.82c0-.87.08-1.76.11-2.67.08-1.87.17-3.81.25-5.84,0-1,.09-2.13.13-3.23.07-1.41.13-2.88.19-4.37,0-.68,0-1.38.08-2.08.08-1.85.16-3.74.24-5.7.06-1.32.11-2.66.17-4,0-.32,0-.64,0-1,0-1.25.11-2.51.16-3.79.3-7.32.63-15.21,1-23.58.05-1.14.1-2.3.14-3.46,0-1,.08-2,.12-3,.06-1.26.12-2.52.17-3.8.09-2.3.18-4.64.29-7,0-.46,0-.91.09-1.37,0-.14,0-.28,0-.42a1.79,1.79,0,0,1,0-.23c0-.32.08-.63.12-.94s0-.37.08-.56c0,0,0,0,0,0,.06-.42.12-.84.21-1.26s.16-.87.27-1.3c.13-.6.27-1.2.43-1.79s.28-1,.43-1.44l.51-1.45c.17-.45.34-.9.53-1.34s.47-1.09.72-1.63c.17-.35.34-.69.52-1,0,0,0-.09.07-.14.23-.43.47-.86.72-1.3s.5-.85.77-1.26.53-.83.81-1.22.43-.61.64-.9.33-.42.48-.63.43-.54.65-.8.59-.7.89-1l.05,0c.3-.34.61-.67.93-1l.1-.11c.32-.32.64-.64,1-.95s.71-.65,1.06-1,.72-.62,1.09-.91.75-.59,1.13-.87c.76-.56,1.53-1.08,2.33-1.57q.88-.54,1.8-1l.75-.39c.54-.27,1.08-.52,1.63-.76.31-.14.63-.26,1-.38s.66-.26,1-.37.94-.33,1.42-.47.77-.23,1.16-.33l1.1-.26.88-.17a27.77,27.77,0,0,1,8.34-.32c13.65,1.61,25.53,13.69,27.53,29.47q-.67,64.07-.72,87.42a42.48,42.48,0,0,0-2.44-5.64,47,47,0,0,0-10-12.54c-6.5-6-9.5-9.32-12.83-10.16C154.21,351.54,148.06,352.39,143.9,355.92Z"/></g><g id="Layer_4" data-name="Layer 4"><path class="cls-3" d="M289.12,276.22c.82,2.53-8.76,9.57-19.58,10.86A31.3,31.3,0,0,1,251.7,284c-7-3.61-6.61-7.05-14.35-13.57-11.54-9.75-19.93-8.43-20.74-13.77s7-12.89,15.12-13.77c7.31-.78,13,4,17.06,7.37,11.92,10,9.65,18.86,19,23.85C277.72,279.38,288.28,273.64,289.12,276.22Z"/><path class="cls-1" d="M265,277.65a27.77,27.77,0,0,1-4.73-4.13c-3.64-4-4.8-7.79-6.5-11.82a76.9,76.9,0,0,0-7.36-13.37c-3.81-3-8.72-6.1-14.72-5.46-8.09.88-16,8.3-15.12,13.77s9.2,4,20.74,13.77c7.74,6.52,7.35,10,14.35,13.57a31.3,31.3,0,0,0,17.84,3.1c7.45-.89,14.32-4.5,17.6-7.49C284.55,280.32,273.4,283.19,265,277.65Z"/><path class="cls-1" d="M36.87,299.49c-1.77-2.19,8.74-8.7,15.12-23.65,7.47-17.52-.19-24.47,7.37-39.17,1.1-2.15,9.34-17.56,27.14-22.1,11.29-2.88,28.57-1.95,31.37,5.45,3.77,10-23,20.24-43.78,52.33a68.44,68.44,0,0,1-14.34,16.28C50.43,296.29,38.66,301.71,36.87,299.49Z"/><path class="cls-4" d="M160.18,46.65a70.1,70.1,0,0,0-15.9-29.86C142.37,14.71,132.22,3.61,128,5.93c-3.73,2.06,1.89,11.94.79,30.35-.85,14.15-4.73,17.74-1.57,24.33,3.33,7,12.79,13.74,21.72,10.86C156.85,68.92,162.49,58.49,160.18,46.65Z"/><path class="cls-2" d="M160.18,46.65c-.44-1.7-1-3.62-1.7-5.68-.16-.45-.32-.9-.49-1.36s-.3-.83-.46-1.24-.26-.65-.4-1c-.2-.55-.44-1.11-.7-1.68s-.38-.88-.58-1.32-.48-1.06-.74-1.59l-.61-1.21c-.49-.94-1-1.91-1.55-2.87a65.26,65.26,0,0,0-5.3-7.94,3.74,3.74,0,0,1,0,.41c-.31,2.35-2.92,3.64-3.73,4-.2.11-.41.21-.62.3a8.81,8.81,0,0,1,.43,10.26c-2.64,3.85-8.17,4.75-10.64,2.84-1.82-1.41-.5-3.61-1.74-12.14-.62-4.23-1.48-7.71-1.48-7.71-.73-2.93-1.42-4.92-2-8.5-.27-1.55-.43-2.83-.52-3.67-1.27,1.82-.13,6,.78,12.71h0q.18,1.28.33,2.67a1.24,1.24,0,0,0,0,.18c.1.88.18,1.79.26,2.74,0,.49.07,1,.1,1.54s.06,1.05.08,1.6,0,1.11,0,1.68c0,2,0,4.23-.12,6.54-.85,14.16-4.73,17.74-1.57,24.33,3.33,7,12.79,13.74,21.71,10.86C156.84,68.92,162.49,58.48,160.18,46.65Z"/><path class="cls-4" d="M129.06,54.41C125.81,48.58,128.11,42,132.7,29c1-3,5.87-16.71,8.58-16.14,1.43.3.78,4.25,2.33,11.2,2.45,11,6.55,12.14,7.7,20.5.21,1.53,1.82,14.14-4.51,17.6C141.56,65,132.55,60.65,129.06,54.41Z"/><path class="cls-2" d="M151.31,44.52c-1.08-7.84-4.76-9.33-7.23-18.57a13.47,13.47,0,0,1-.27,3.28,15.84,15.84,0,0,1-1.37,3.64c-.38.78-.92,1.7-1.84,1.91s-2-.93-2.64-1.58a7.4,7.4,0,0,1-1.57-2.85,16,16,0,0,1,.09-8.42,27,27,0,0,1,3.87-8.83c-.17.15-.42.37-.7.65a13.14,13.14,0,0,0-2.41,3.4,42.14,42.14,0,0,0-2.45,5.39C129,40.1,126,48.88,129.06,54.41c3.42,6.23,12.54,10.55,17.74,7.71C153.13,58.66,151.52,46.05,151.31,44.52Z"/><path class="cls-5" d="M162.12,0c-3.68-1.17-30.64,46.73-37.45,106.47-3.6,31.6-10,87.9,20.78,107.3,18.78,11.84,45.12,2.93,46.92,2.33a66.08,66.08,0,0,0,32.38-24.43c19.87-28,18.48-74.28-3.49-100.64C204,70.33,180.17,69.36,170.05,46a103.5,103.5,0,0,1-7.54-28.45C161.48,6.07,163.35.41,162.12,0Z"/><path class="cls-2" d="M206.57,201.72c-9.87,5.05-16.87,5.69-21.57,5.48-2.86-.13-4.27-.23-5.43-1-6.16-3.92-1.61-21.15,1.89-41.51.18-1,.77-4.33,1.8-8.62,0-.09,0-.16.06-.23.21-2.39.45-4.77.61-7.17a193.62,193.62,0,0,0-.2-31.49c-.12-1.29-.26-2.58-.41-3.86-.06-.5-.18-1.34-.21-1.56-.43-2.51-.86-5-1.38-7.49a146.12,146.12,0,0,0-4-14.84q-1.36-4.17-3-8.25c-.47-1.2-1-2.4-1.47-3.59-.84-2-.15-.35,0,0-2-4.59-4-9.15-6.22-13.64-4.74-9.66-12-18.93-14.57-29.47a55.38,55.38,0,0,1-.91-19.43c-9.53,18.58-22.51,52.46-26.95,91.37-3.6,31.6-10,87.9,20.78,107.3,18.78,11.84,45.12,2.93,46.92,2.33a66.08,66.08,0,0,0,32.38-24.43,66.89,66.89,0,0,0,5.29-8.88A76.48,76.48,0,0,1,206.57,201.72Z"/><path class="cls-5" d="M101.43,12.53c3-2.78,17.57,7.21,25.8,13.74a138.68,138.68,0,0,1,38,46.75,146.85,146.85,0,0,1,11.67,35.81s8,41.17-15.16,99.92a20.12,20.12,0,0,1-6.73,9.41c-1.76,1.28-5.57,3.51-18.86,3.39-3.11,0-12.71-.13-20.16-1.94-17.55-4.28-42.87-22.92-50.61-51.19-7.19-26.27,4.08-49.66,9.31-60.5,16.42-34.06,40.78-39.81,40.49-63.18C114.94,26.05,99.19,14.62,101.43,12.53Z"/><path class="cls-2" d="M159.6,200.7a32.49,32.49,0,0,1-15.7,6.4c-12,2-21.63-2.09-25.93-3.95A56.86,56.86,0,0,1,95.12,184.8C80,164.59,74.34,136,81.29,111.61,85,98.51,92.72,87.87,101.88,78c2.16-2.31,4.37-4.58,6.5-6.93.71-.78,1.42-1.56,2.11-2.36.25-.29,1.78-2.28,2-2.47,1.21-1.74,2.37-3.52,3.42-5.36.53-.95,1-1.9,1.54-2.87.17-.34,1.48-3.48,1.32-2.95a67.47,67.47,0,0,0,2.51-8.39c.25-1.1.45-2.22.65-3.33-.77,4.18,0-1.16.06-1.77,0-1.12.06-2.24,0-3.35,0-.6-.54-4.37-.23-3-.13-.62-.27-1.24-.43-1.86s-1.45-3.52-1.06-3c-.24-.42-.49-.84-.74-1.25.18.4-1.54-1.9-2-2.33-1.86-1.91-3.9-3.62-5.86-5.43s-9.36-7.54-10.5-8.26c.24,3.21,13.73,14.29,13.94,31.58.29,23.37-24.07,29.12-40.49,63.18-5.23,10.84-16.5,34.23-9.31,60.5,7.74,28.27,33.06,46.91,50.61,51.19,7.45,1.81,17,1.91,20.16,1.94,13.29.12,17.1-2.11,18.86-3.39a20.12,20.12,0,0,0,6.73-9.41c2.61-6.61,4.81-13,6.68-19.12A31,31,0,0,1,159.6,200.7Z"/><path class="cls-3" d="M192.37,216.12c.93-2,2.58-1.41,9.95-5.75,8.5-5,9.46-7.68,15.16-10.54,1-.5,9.33-4.64,17.74-3.49,16.3,2.23,17.13,22.16,35.42,27.12,10.3,2.79,18.69-1.17,19.45,1.19.93,2.88-11.31,9.56-19.39,13.18-19,8.55-31.5,14.15-46.34,10.47C204.32,243.34,189.08,223.3,192.37,216.12Z"/><path class="cls-1" d="M271.68,237.29A139.15,139.15,0,0,1,253.16,241,23.18,23.18,0,0,1,234,234.86a24.91,24.91,0,0,1-6.45-11.08c-.45-1.38-5-16.08,3-25a16.73,16.73,0,0,1,3-2.63,33.66,33.66,0,0,0-16,3.59l-.13.06c-5.7,2.86-6.66,5.54-15.16,10.54-7.37,4.34-9,3.73-9.95,5.75-3.29,7.18,11.95,27.22,32,32.18,14.84,3.68,27.3-1.92,46.34-10.47l1.55-.7Z"/><path class="cls-3" d="M117.87,220c-.2-1.22-2-2-6.84-3.61-15.48-5.12-17.36-11.83-26.76-14.83-12.71-4.06-28.12,2.21-36.93,9.88-12.49,10.89-8.24,21.88-20.56,29.48S.64,244.12,0,247.14c-.71,3.51,13.33,11.51,29.08,13.57,20.36,2.66,37.1-5.46,42.08-7.95,17.78-8.9,17.7-17.41,36.94-25.82C110.56,225.88,118.29,222.63,117.87,220Z"/><path class="cls-1" d="M111,216.41c-15.48-5.12-17.36-11.83-26.76-14.83-9.09-2.91-19.57-.52-28,3.88C67,207.94,76.33,216,76.1,228.22c-.27,14.1-11.7,21.06-23.72,24.63A75,75,0,0,1,1.6,250c4,3.88,15.26,9.08,27.51,10.68,20.36,2.66,37.1-5.46,42.08-7.95,17.78-8.9,17.7-17.41,36.94-25.82,2.43-1.06,10.16-4.31,9.74-6.92C117.67,218.8,115.91,218,111,216.41Z"/><path class="cls-3" d="M139.15,219.15c-10.14,1.11-15.26,0-19.23.2-17.28.79-30.63,26.27-34.58,33.74-15.42,29.13-7.91,43.43-17.84,70.57-13.44,36.73-43.6,48.54-40.33,53.52,4.14,6.31,51.66-11.29,91.91-45.76,5.39-4.62,68-59.18,55.06-93.85-.53-1.42-7.13-18.5-19.14-20.44C150.74,216.44,148.68,218.12,139.15,219.15Z"/><path class="cls-1" d="M175.87,246.57c0-.77-.07-1.52-.15-2.28s-.2-1.5-.33-2.23a28.43,28.43,0,0,0-.82-3.27c-.14-.41-.27-.82-.42-1.22-.54-1.43-7.14-18.5-19.15-20.44-.35,0-.68-.1-1-.13s-.64,0-.95,0-.79,0-1.18.06l-.29,0c-.2,0-.4.06-.61.09l-.2,0-.41.07h-.07l-.92.18-.63.13-.44.09c-1.05.22-2.27.48-3.74.74s-3.27.53-5.42.76c-10.13,1.11-15.24,0-19.22.2-17.27.79-30.63,26.28-34.58,33.73-15.42,29.13-7.9,43.44-17.84,70.58a95.55,95.55,0,0,1-22.83,35.2h0c-.3.3-.6.59-.88.88s-.59.59-.88.86c-.58.57-1.16,1.11-1.73,1.63l-.85.78c-.28.27-.56.52-.84.76l-.17.17c-.44.38-.86.75-1.27,1.13-3.51,3.08-6.5,5.5-8.49,7.42l-.44.44a18.16,18.16,0,0,0-1.25,1.38c-.08.12-.17.22-.24.33a2.14,2.14,0,0,0-.13.19c-.07.11-.14.22-.2.33a4,4,0,0,0-.22.48,1.46,1.46,0,0,0-.07.19,1.58,1.58,0,0,0,.17,1.35c.85,1.29,3.49,1.58,7.53.93l.83-.15,1.12-.21c.53-.12,1.08-.24,1.63-.38,2.27-.53,4.82-1.3,7.62-2.26,18.42-6.34,47.31-21.53,73.18-43.69,3.69-3.17,34.33-29.85,49-57.49l.83-1.6.09-.18c.22-.43.44-.87.65-1.3.1-.22.2-.42.31-.64.19-.43.4-.86.59-1.28.32-.69.62-1.36.9-2,.18-.44.36-.86.52-1.29.51-1.26,1-2.5,1.38-3.74.13-.41.27-.82.39-1.24s.33-1.09.49-1.64.29-1.1.42-1.65a42.12,42.12,0,0,0,.91-4.85c.14-1,.23-2.11.28-3.14v0c0-.46,0-.91,0-1.36S175.89,247,175.87,246.57Zm-32.32,36.16a66.32,66.32,0,0,1-8.12,22.95c-7.51,13.26-16.32,20.16-33.67,33.16a167.24,167.24,0,0,1-41.63,21.28c-3.21,1.1-8.7,2.87-10.08,1-1.79-2.48,5.2-8.61,11.83-19.78a102,102,0,0,0,11.63-30.64c2.84-12.43,1.16-15.07,4.84-28.7,1.67-6.18,3.06-11.36,6-17.18.8-1.61,12.56-23.87,37.15-30.87,6.21-1.77,13.82-3.94,18.55,0,2.34,1.94,3.22,4.75,3.79,22.78C144.26,270.54,144.29,277.55,143.55,282.73Z"/><path class="cls-3" d="M155,217.13c4.05-1.66,7.48,2.54,19.63,1.87,9.27-.52,12.81-3.28,17.74-3.92,14.44-1.87,33.6,15.38,40.33,33.74C243,277,217.63,290.11,222.62,327.54c3.91,29.36,22.84,46.11,17.06,51.58s-27.74-9.13-31.41-11.64c-22.78-15.56-35.44-36.49-42.66-51.57C144.87,272.52,142.75,222.14,155,217.13Z"/><path class="cls-1" d="M216.56,363.39c-18.63-10.54-29.85-30.26-37.89-49.32-2-4.73-4-9.47-5.8-14.27a21,21,0,0,1-1.05-2.52c-1.25-2.9-2.5-5.8-3.7-8.72-4-9.67-6.66-19.69-4.88-30.19,3.43-20.15,28.75-27.29,46.46-25.82a42.24,42.24,0,0,1,17.77,5.79c-8.8-13.88-23.48-24.76-35.1-23.26-4.93.64-8.47,3.4-17.74,3.92-12.15.67-15.58-3.53-19.63-1.87-12.25,5-10.13,55.39,10.61,98.78,7.22,15.08,19.88,36,42.66,51.57,3.67,2.51,25.58,17.16,31.41,11.64,2.08-2,.95-5.41-1.52-10.36A39,39,0,0,1,216.56,363.39Z"/></g></svg>