<svg xmlns="http://www.w3.org/2000/svg" viewBox="0 0 335.3 422.95"><defs><style>.cls-1{fill:#638c62;}.cls-2{fill:#db9856;}.cls-3{fill:#87a878;}.cls-4{fill:#fcaa67;}</style></defs><g id="Layer_3" data-name="Layer 3"><path class="cls-1" d="M317.16,353.06c-3,8.93-6,16.62-8.64,22.75-.75,1.79-1.48,3.45-2.16,5a295.28,295.28,0,0,1-297.7,3.76,70.75,70.75,0,0,1-3.91-26.05c4-89.42,189.86-116,194.73-201.38,1.09-19-6.67-43.15-24.75-55.12-17.25-11.43-45.66-12.92-65.25,4.5-.44.39-.88.79-1.3,1.21-.21.18-.41.38-.6.57-.42.41-.83.84-1.24,1.27s-.92,1-1.35,1.48a1.68,1.68,0,0,0-.18.21q-.65.72-1.23,1.47l-.19.24c-.37.46-.73.92-1.07,1.39l-.28.38c-.34.46-.67.93-1,1.4-.06.08-.11.17-.16.25-.33.47-.64,1-.94,1.44-.44.71-.87,1.43-1.28,2.16a55.79,55.79,0,0,0-6.16,36.55c.09.52.19,1.05.29,1.57.06.28.11.56.18.84s.14.66.22,1c.18.76.37,1.53.58,2.29-9.58-3.95-21.37-10.8-29.38-23-6.72-10.24-9.73-22.66-9.73-35.79,0-.63,0-1.26,0-1.89a1,1,0,0,1,0-.17c0-.59,0-1.19.06-1.79s.05-1,.08-1.56c0-.85.11-1.7.19-2.56.09-1.07.21-2.15.34-3.23,0-.21.05-.43.08-.65.07-.55.15-1.09.23-1.64,0-.1,0-.2,0-.3.08-.61.18-1.21.28-1.81.2-1.23.43-2.46.68-3.69l.12-.59.36-1.64c.12-.54.25-1.08.38-1.63.08-.34.17-.68.25-1,.13-.53.27-1.07.42-1.6s.3-1.1.45-1.65.38-1.31.58-2,.4-1.31.61-2,.4-1.22.6-1.83q1-3,2.19-5.92c.25-.64.51-1.28.78-1.91s.54-1.28.82-1.91.57-1.3.87-1.94.57-1.22.86-1.83.6-1.24.91-1.86.63-1.25,1-1.87.64-1.21,1-1.81.63-1.16,1-1.74c.69-1.23,1.41-2.44,2.14-3.64.36-.59.72-1.18,1.09-1.76s.66-1,1-1.54l.12-.19c7.8-11.84,17.57-22.07,28.62-29.18,47.42-30.55,115.19-1.74,150.74,25C344.83,106.85,349.32,256.67,317.16,353.06Z"/><path class="cls-2" d="M65.53,346.94v0l-1.41,1.45-1.44,1.39-.17.16a58.64,58.64,0,0,1-5.27,4.34l-.13.1c-.53.38-1.06.75-1.6,1.11l-.84.56-.85.54-.86.52-.87.5-.88.49-.88.46a46.08,46.08,0,0,1-4.54,2.05c-12.19,4.72-28.95,5.18-41-1.87,0-.09,0-.18,0-.27a31.86,31.86,0,0,1-3.69-8.55,32.39,32.39,0,0,1-.92-5.31,39.89,39.89,0,0,1,.62-10.89L1,332.43c.15-.7.32-1.39.5-2.09.11-.42.24-.84.36-1.27l.24-.81c.15-.49.31-1,.48-1.45l.21-.64q.27-.76.57-1.53l.21-.54q.31-.8.66-1.59c.06-.16.13-.31.2-.47q.36-.82.75-1.65l.18-.38c.28-.57.56-1.15.86-1.72L6.4,318c.31-.6.63-1.2,1-1.79l.11-.18c.35-.63.71-1.25,1.09-1.87l0-.05c10.05-16.6,27.68-30.76,46.19-33.65a48.26,48.26,0,0,1,9.16-.53A33.19,33.19,0,0,1,77,291.44C87.2,307.36,80.39,331.11,65.53,346.94Z"/><path class="cls-2" d="M295.63,363.1l-.1.11c-.82.87-1.65,1.73-2.51,2.57-.44.44-.89.87-1.34,1.3l-1.38,1.27c-.46.42-.93.84-1.41,1.25l-1.31,1.12c-1.48,1.23-3,2.43-4.56,3.57l-1.52,1.1c-1,.7-2,1.38-3,2.05a100,100,0,0,1-13.17,7.23l-1.68.75c-2.25,1-4.52,1.85-6.79,2.63l-1.71.57c-1.14.37-2.28.71-3.42,1-.57.16-1.14.32-1.71.46s-1,.26-1.51.37c-1.2.29-2.4.55-3.59.78-26.09,5-63.38-1.27-74.25-23.63a38.22,38.22,0,0,1-3.51-16.81q0-.88,0-1.77a.34.34,0,0,0,0-.1c0-.59,0-1.19.1-1.79a.57.57,0,0,1,0-.13c0-.57.08-1.15.14-1.72a.28.28,0,0,1,0-.09c.06-.64.13-1.28.22-1.92s.18-1.28.28-1.93c.22-1.35.48-2.71.77-4.08.13-.58.27-1.17.41-1.76a95.05,95.05,0,0,1,4.53-13.74l.51-1.21c.36-.84.73-1.68,1.1-2.51.17-.37.34-.74.52-1.11,1.13-2.41,2.36-4.82,3.67-7.2.44-.8.89-1.59,1.35-2.38l.7-1.19q1-1.77,2.16-3.51c.59-.93,1.2-1.85,1.81-2.76q1.42-2.1,2.92-4.17c.28-.37.55-.75.83-1.13l.85-1.12.85-1.11c.58-.74,1.16-1.47,1.75-2.2l1.79-2.16c.3-.36.61-.71.91-1.06l.08-.1c.59-.68,1.18-1.34,1.78-2,.2-.22.4-.43.59-.65q1.6-1.74,3.25-3.42c17.5-17.77,39.57-29.59,60.71-26.22,26,4.14,50.33,31.21,52.31,60.75C315.33,333.75,307.65,350.18,295.63,363.1Z"/><path class="cls-2" d="M119.23,66.6h0l-.76.84-.78.83c-1,1.09-2.14,2.15-3.27,3.16l-.85.75c-.58.49-1.16,1-1.75,1.45-.79.62-1.59,1.23-2.41,1.81a48.7,48.7,0,0,1-9.11,5.12c-.34.15-.68.29-1,.42l-.61.24-.79.29-.68.23-1.06.34a39,39,0,0,1-4.51,1.09c-.3.06-.59.11-.89.15-.73.12-1.47.21-2.21.28a46.26,46.26,0,0,1-29.76-8,34,34,0,0,1-1.32-5.12,35.9,35.9,0,0,1-.52-6.16c0-.37,0-.73,0-1.1s0-.73,0-1.1a42.84,42.84,0,0,1,.77-6c.12-.61.25-1.23.4-1.84.08-.31.15-.62.23-.93.32-1.23.69-2.45,1.1-3.68.11-.3.21-.61.32-.91s.22-.61.34-.92.23-.61.35-.91q.85-2.13,1.87-4.23a2.44,2.44,0,0,0,.14-.28c.88-1.75,1.84-3.49,2.87-5.18l0-.07c.36-.57.72-1.14,1.09-1.7l0,.06C75.35,22.12,89.31,11.4,103.86,9.49a37.44,37.44,0,0,1,5.76-.31c9.8,2,18,6.68,21.66,13.67C137.32,34.4,131.39,53,119.23,66.6Z"/><path class="cls-2" d="M323.54,128.08h0c-.06.55-.12,1.1-.19,1.65s-.17,1.25-.27,1.87a58,58,0,0,1-1.83,7.74,78,78,0,0,1-51,3.6c-42.69-12-53.76-58.39-56.53-70-2.34-9.82-8.52-35.73.92-57.56l1-.24a48.36,48.36,0,0,1,5.15-.89C267.33,8.84,329.06,75.9,323.54,128.08Z"/><path class="cls-2" d="M215.91,219.44a2.39,2.39,0,0,1-.13.21c-.35.53-.71,1.06-1.08,1.57-.61.84-1.24,1.66-1.9,2.46l-1,1.15s0,0,0,0c-.35.39-.69.77-1.05,1.15l-1.07,1.11-1.12,1.08c-.37.35-.75.7-1.14,1l-.1.09c-.35.31-.71.61-1.07.91q-1.08.9-2.22,1.74l-.21.15c-.41.3-.83.59-1.25.88s-.84.56-1.27.83-.87.54-1.3.79l-1.32.75c-.44.24-.89.47-1.34.7l-1.35.65h0l-1.35.59-1.39.55a41.59,41.59,0,0,1-4,1.27c-.22.06-.44.12-.66.16l-1,.23q-.62.14-1.23.24l-.28.05-1,.15-.6.08h-.1c-.8.1-1.6.16-2.4.2h-.22q-.67,0-1.35,0a31.53,31.53,0,0,1-4.65-.34c-9.74-1.43-18.5-7.47-24-15.4.51-1.58,1.19-3.55,2.08-5.78.77-1.94,1.58-3.77,2.45-5.54q.32-.67.66-1.32c.33-.63.66-1.26,1-1.88.25-.46.51-.92.78-1.37s.51-.88.78-1.32l.06-.09c.26-.44.54-.88.82-1.32s.58-.91.88-1.36c.91-1.38,1.88-2.76,2.93-4.18.64-.87,1.3-1.74,2-2.63,6.44-8.3,15.45-18.12,29.08-33.74l4.08-4.7C212,165.16,222,179.48,223,194.41a39.8,39.8,0,0,1-4.27,20.17h0l0,0c-.28.57-.57,1.13-.88,1.69v0c-.29.53-.6,1.06-.91,1.59l-.07.11C216.53,218.49,216.23,219,215.91,219.44Z"/></g><g id="Layer_4" data-name="Layer 4"><path class="cls-3" d="M8.66,384.54a70.33,70.33,0,0,1-3.91-26.05c4-89.42,189.86-116,194.73-201.38,1.08-19-6.67-43.15-24.75-55.12-17.26-11.43-45.67-12.93-65.25,4.5-15.26,13.57-21.35,35.26-15.71,55.71-9.57-3.95-21.37-10.81-29.37-23-24-36.51-.83-100.84,38.34-126.06,47.42-30.55,115.19-1.74,150.74,25,91.34,68.72,95.83,218.54,63.68,314.93-3.86,11.54-7.79,21-10.8,27.72a295.28,295.28,0,0,1-297.7,3.76Z"/><path class="cls-1" d="M308.52,375.81c-.75,1.79-1.48,3.45-2.16,5a295.28,295.28,0,0,1-297.7,3.76,70.75,70.75,0,0,1-3.91-26.05c4-89.42,189.86-116,194.73-201.38,1.09-19-6.67-43.15-24.75-55.12-17.25-11.43-45.66-12.92-65.25,4.5A52.17,52.17,0,0,0,98.67,120c.85-18.4,24.77-35.36,47.24-38C171,78.9,189,94.42,192.59,97.66c21.42,19.41,24.84,51,18.51,73.41-3.58,12.65-10.68,23.88-64.63,65-54.55,41.54-68.27,46-88.31,72.56-5.72,7.57-38,50.27-24.17,72.2A22.52,22.52,0,0,0,41.61,388c46,28,106.55,25.75,106.55,25.75C214.64,411.29,272.59,391.14,308.52,375.81Z"/><path class="cls-1" d="M93.77,162.2a57.38,57.38,0,0,1-1.26-5.69A81.09,81.09,0,0,1,79.07,140c-15.74-26.14-15.58-60.35-7.66-89,.81-2.94,1.73-5.84,2.7-8.72C54.27,72.44,47.19,113,64.4,139.19,72.4,151.39,84.2,158.25,93.77,162.2Z"/><path class="cls-4" d="M45.78,360.63c-12.19,4.72-28.95,5.18-41-1.87,0-.09,0-.18,0-.27a31.86,31.86,0,0,1-3.69-8.55c-7-26.7,22.11-64.54,53.72-69.47a48.26,48.26,0,0,1,9.16-.53A33.19,33.19,0,0,1,77,291.44C91.05,313.37,72.82,350.15,45.78,360.63Z"/><path class="cls-4" d="M314.09,315.32c-2-29.54-26.34-56.61-52.31-60.75-51.93-8.29-109.54,75.19-91.13,113.06,10.87,22.36,48.17,28.63,74.25,23.62C279,384.71,316.72,354.53,314.09,315.32Z"/><path class="cls-4" d="M88.53,83.6a46.26,46.26,0,0,1-29.76-8,34,34,0,0,1-1.32-5.12C53,45.26,77.53,13,103.86,9.49a37.44,37.44,0,0,1,5.76-.31c9.8,2,18,6.68,21.66,13.67C141.34,42.07,118.24,80.8,88.53,83.6Z"/><path class="cls-4" d="M323.09,131.6a58,58,0,0,1-1.83,7.74,78,78,0,0,1-51,3.6c-42.69-12-53.76-58.39-56.53-70-2.34-9.82-8.52-35.73.92-57.56a45.13,45.13,0,0,1,6.11-1.13C268.39,8.72,331.87,79,323.09,131.6Z"/><path class="cls-4" d="M175.72,240c-9.74-1.43-18.5-7.47-24-15.4.51-1.58,1.19-3.55,2.08-5.78,6.64-16.66,16-25.57,41.44-54.75l4.08-4.7C212,165.16,222,179.48,223,194.41,224.57,220.09,199,243.41,175.72,240Z"/><path class="cls-2" d="M57.34,349.26c-11,5-26.35,9-37.14,1.42-12.84-9-9.12-28.37-4.95-41.06.95-2.88,2.05-5.73,3.28-8.53C5,315.45-3,334.54,1.06,349.94a31.86,31.86,0,0,0,3.69,8.55c0,.09,0,.18,0,.27,12.09,7.05,28.85,6.59,41,1.87,9.87-3.83,18.56-11.17,25-20A57,57,0,0,1,57.34,349.26Z"/><path class="cls-2" d="M260.81,374.73c-16.84,2.57-35.06,3.78-51-3.26-20.65-9.11-24.57-30.62-21.58-51.07,2.2-15,8.06-29.36,15.84-42.53-27.24,25.83-44.74,66.44-33.4,89.76,10.87,22.36,48.17,28.63,74.25,23.62a96.36,96.36,0,0,0,50.73-28.15A105.11,105.11,0,0,1,260.81,374.73Z"/><path class="cls-2" d="M106.15,73.77C95.74,77.91,81.7,79.11,71.77,73c-12.69-7.82-11-24-5.24-37.48-7.22,10.93-11.07,23.68-9.08,35a34,34,0,0,0,1.32,5.12,46.26,46.26,0,0,0,29.76,8c11.85-1.12,22.64-8,30.71-17A60.49,60.49,0,0,1,106.15,73.77Z"/><path class="cls-2" d="M317.85,132.07c-14.93,7.45-36.35.31-50.26-6.79-13.6-6.94-24.64-18.13-33-30.8s-13.86-27.36-17.5-42.08c-3-12.09-4.32-25.14-1.56-37.29l-1,.24c-9.44,21.83-3.26,47.74-.92,57.56,2.77,11.64,13.84,58.06,56.53,70a78,78,0,0,0,51-3.6,58,58,0,0,0,1.83-7.74c.19-1.16.34-2.34.46-3.52A23.37,23.37,0,0,1,317.85,132.07Z"/><path class="cls-2" d="M209.48,223.89c-8.59,6.39-20.79,10.44-31.52,9.43-11.31-1.07-18.6-9.09-16.45-20.61a72,72,0,0,1,4.64-15,81.47,81.47,0,0,0-12.37,21c-.89,2.23-1.57,4.2-2.08,5.78,5.52,7.93,14.28,14,24,15.4,16.85,2.49,34.92-9.07,43-25.39A44.76,44.76,0,0,1,209.48,223.89Z"/></g></svg>