<svg xmlns="http://www.w3.org/2000/svg" viewBox="0 0 384.35 434.55"><defs><style>.cls-1{fill:#b53c4b;}.cls-2{fill:#280f20;}.cls-3{fill:#c94d47;}.cls-4{fill:#f06449;}.cls-5{fill:#dd5143;}.cls-6{fill:#522136;}.cls-7{fill:#3e1929;}.cls-8{fill:#1e0b19;}</style></defs><g id="Layer_9" data-name="Layer 9"><path class="cls-1" d="M130.88,188.57a28.09,28.09,0,0,1-11.52.42,27.19,27.19,0,0,1-4.92-1.35c-.37-.13-.73-.28-1.08-.43s-.49-.21-.73-.33-.6-.27-.89-.42l-.84-.44c-.54-.29-1.05-.6-1.54-.91l-.77-.5a27.13,27.13,0,0,1-2.26-1.69l-.53-.45-.31-.28.83,3.5a2.32,2.32,0,0,0,1.15,1.5,12.12,12.12,0,0,1,5.57,6.33,12.3,12.3,0,0,1,.19,8.1h0c-.09.21-.18.41-.28.61a5.14,5.14,0,0,1-.35.55,3.94,3.94,0,0,1-.36.45l0,.05a4.91,4.91,0,0,1-.48.43c-3.8,2.89-13.1-.57-14.78-6.94-.89-3.42.72-6.59,1.67-8.1a1.83,1.83,0,0,0,.23-.49,2,2,0,0,0,.13-.73,2.2,2.2,0,0,0-.06-.5l-.47-2.15-.41.55-.53.66h0l-.58.66c-.2.23-.4.45-.61.67l-.09.1-.57.57c-.46.44-.94.88-1.45,1.31a26.51,26.51,0,0,1-9.43,5.07,2.64,2.64,0,0,1-2.17-.26h0a1.73,1.73,0,0,1-.28-.19,2.73,2.73,0,0,1-.25-.23,2.85,2.85,0,0,1-.23-.26l-.19-.29a3,3,0,0,1-.27-.64,2.63,2.63,0,0,1,.11-1.72c0-.11.11-.23.17-.34.22-.39.44-.79.65-1.19h0c.21-.4.41-.81.6-1.22h0a17.63,17.63,0,0,0,1.64-10.84c-2.19-10.9-15.76-12.05-18-23a16.28,16.28,0,0,1-.27-4.22c0-.29,0-.58.07-.87V149c0-.32.08-.64.13-1a.22.22,0,0,0,0-.08c.1-.64.23-1.29.39-1.93.12-.47.25-.95.4-1.42l.09-.26c.14-.43.29-.84.46-1.26a.06.06,0,0,1,0,0,21,21,0,0,1,4.64-7.19,14.31,14.31,0,0,1,7.24-4c5.09-1,10.61,1.07,15,5.2a2.68,2.68,0,0,0,4-.37c4.28-6.24,11.14-9.53,17.37-8.42,8.37,1.5,13.1,10.49,13.73,17.3,1,11.22-9.09,16.06-7.6,25.59.78,5,4.37,9.09,9.48,12.55A2.7,2.7,0,0,1,130.88,188.57Z"/><path class="cls-1" d="M76.74,227.61c-5.24,9.27-15,8.22-19.29,17.22-3,6.2-1.48,13.27.58,18.73a2.19,2.19,0,0,1-2.14,3c-.5,0-1-.06-1.6-.11l-.52-.06c-.47-.06-1-.13-1.48-.22l-.1,0c-.54-.1-1.09-.21-1.66-.35l-.93-.25c-.3-.08-.6-.18-.91-.28s-.61-.2-.92-.32c-.62-.23-1.26-.49-1.9-.79-.31-.14-.63-.3-.94-.46s-.64-.33-1-.52-.57-.33-.85-.51-.73-.46-1.09-.71a25.53,25.53,0,0,1-3.93-3.37c-.34,3.54-.55,5.7-.55,5.87a1.32,1.32,0,0,0,0,.3l0,.1a.43.43,0,0,0,0,.05l0,.14a1.32,1.32,0,0,0,.16.25c.87,1.09,3.1,4.29,2.31,8.21a8.89,8.89,0,0,1-2.58,4.63l-.38.35a8.67,8.67,0,0,1-.82.65c-.14.11-.28.2-.43.3l-.38.23a10,10,0,0,1-1.39.69l-.4.16-.4.14a9.69,9.69,0,0,1-2.12.47l-.38,0-.43,0a5.77,5.77,0,0,1-.72,0c-5-.15-10-4.19-10.18-9.45a10.16,10.16,0,0,1,5.26-8.81,1.13,1.13,0,0,0,.31-.26.53.53,0,0,0,.12-.14,2,2,0,0,0,.11-.2v0a1.12,1.12,0,0,0,.08-.26c.19-2.34.39-4.68.58-7a24.09,24.09,0,0,1-5,3.2,17.43,17.43,0,0,1-1.75.77,25,25,0,0,1-13.08,1.36h0q-.52-.08-1-.18l-1-.2a2.1,2.1,0,0,1-1.42-1.09,2.56,2.56,0,0,1-.11-.24c0-.08,0-.17-.08-.25a2.34,2.34,0,0,1,0-.26,0,0,0,0,1,0,0,.9.9,0,0,1,0-.23,1.48,1.48,0,0,1,0-.21h0a.06.06,0,0,1,0,0,1,1,0,0,1,0-.17h0a.08.08,0,0,0,0,0v0l0-.11,0,0a1.34,1.34,0,0,1,.07-.18.36.36,0,0,1,0-.11h0a1.83,1.83,0,0,1,.47-.72c3.87-3.72,7.69-8.84,7.75-14.94C11,231.81,1.83,228.8.24,217.81A24.62,24.62,0,0,1,0,213.73c0-.16,0-.31,0-.47,0-.52.06-1,.11-1.55.09-.91.22-1.83.4-2.75,0-.23.09-.46.14-.69.14-.63.3-1.27.48-1.9a.57.57,0,0,0,0-.14C3,200,7,194.12,13.26,191.56c8.93-3.62,20.69.11,28,9.76a2.22,2.22,0,0,0,3.29.28c8.28-7.72,20.06-8.84,27.61-3.58C81.75,204.7,81.34,219.48,76.74,227.61Z"/><path class="cls-1" d="M174.28,122.11c.15-10.28,10.84-13.52,10.87-23.28,0-8.23-7.56-19-17.63-19-6.13,0-12.07,4.07-15.48,10.36a2.69,2.69,0,0,1-4.06.86c-3.06-2.42-8.36-5.62-13.93-4.31-6.43,1.5-10.74,8.43-11.94,15.55,0,.28-.09.56-.13.83,0,.06,0,.12,0,.17,0,.34-.08.67-.11,1s0,.65-.07,1h0c0,.33,0,.66,0,1s0,.6,0,.89c0,.51.06,1,.12,1.51a16.28,16.28,0,0,0,.92,3.92c3.48,9.31,14.61,9.12,17.45,18.68a17.43,17.43,0,0,1-.72,11c-.07.21-.15.41-.23.61a2.73,2.73,0,0,0-.19,1,2.56,2.56,0,0,0,0,.39v0a3.15,3.15,0,0,0,.09.36,2.66,2.66,0,0,0,1,1.36l.29.2,0,0a3.49,3.49,0,0,0,.34.15,2.62,2.62,0,0,0,1.4.14,18.61,18.61,0,0,0,8.67-3.87c.24-.19.47-.39.69-.59s.37-.33.54-.5.36-.36.54-.54c0,0,0,0,0,0a6.91,6.91,0,0,0,.51-.57q.25-.28.48-.57l.41-.52c.24-.34.47-.67.69-1,.1.58.2,1.17.31,1.75a4.22,4.22,0,0,1-.67,3.15l-.08.12a10,10,0,0,0-1.85,6.47c.37,4.59,4.23,9,8.8,9.05a7.61,7.61,0,0,0,3.42-.77l.38-.19a10.52,10.52,0,0,0,1.77-1.22h0c2.86-2.48,4.48-6.62,3.37-10a8.84,8.84,0,0,0-4.6-4.89,3.77,3.77,0,0,1-.75-.5,1.16,1.16,0,0,1-.26-.24,1.37,1.37,0,0,1-.26-.28c-.09-.1-.16-.2-.24-.3a3.45,3.45,0,0,1-.2-.32,2.21,2.21,0,0,1-.18-.34,1.48,1.48,0,0,1-.12-.29,3.75,3.75,0,0,1-.23-.81l-.29-1.7a21.41,21.41,0,0,0,4.45,1.84,21.91,21.91,0,0,0,10.35.39,2.43,2.43,0,0,0,.48-.14l.29-.15h0a2.67,2.67,0,0,0,.79-4.06C176.61,131.4,174.21,127.06,174.28,122.11Zm-19.41,16.14a.41.41,0,0,0,.06-.11h0Zm4.95-3.42h.05a.44.44,0,0,1,.15.1Z"/><path class="cls-2" d="M384.31,303.73a7.34,7.34,0,0,1-2.64,4.47l-.62.52-.6.45c-.25.18-.5.34-.76.51l-.72.43-.65.35c-.58.31-1.18.58-1.77.83l-.57.22a20.79,20.79,0,0,1-2.21.71c-14,3.69-21.32-10.69-31.77-6.92l-.69.28c-.23.1-.45.2-.67.32s-.42.21-.62.33l-.42.26c-.13.08-.26.16-.38.25a16.48,16.48,0,0,0-1.65,1.27l-.57.51c-.56.51-1.11,1.06-1.65,1.64l-.54.59-.54.6c-.25.27-.49.55-.73.83s-.61.69-.92,1.05l-1.41,1.58-1,1.05a24.69,24.69,0,0,1-7.26,5.52l-.63.29,0,0c-1.64,31.85-4.83,67.32-10.39,106.05a28.46,28.46,0,0,1-12.83,6.3H299l-1,.17-.84.12-1.2.13-.75,0-.47,0c-.68,0-1.39,0-2.11,0a27.62,27.62,0,0,1-16.37-6.46c1.11-40.4,2.51-75.82,4-106.42-.79-1.51-1.57-2.88-2.35-4.13-.23-.37-.46-.73-.7-1.08s-.47-.68-.7-1l.22.29c-.22-.31-.43-.62-.66-.91s-.28-.39-.44-.58a1.88,1.88,0,0,0-.18-.24l-.09-.11-.1-.13c-.12-.16-.25-.32-.38-.47s-.39-.48-.6-.71c-.42-.5-.85-1-1.29-1.39s-.91-.88-1.36-1.27a19.29,19.29,0,0,0-2-1.51c-.22-.15-.43-.28-.64-.4l-.63-.36a13.76,13.76,0,0,0-3.76-1.4l-.84-.15c-3.32-.47-6.06.45-21.6,8-14.69,7.13-17.61,8.94-21,7.48a8.63,8.63,0,0,1-2.78-2,11.22,11.22,0,0,1-.88-1,13.49,13.49,0,0,1-1-1.56,16,16,0,0,1-1.43-3.63c-.09-.31-.16-.63-.23-1a16,16,0,0,1,.17-7.45c.1-.36.22-.71.35-1.05a5.39,5.39,0,0,1,.25-.6,5.51,5.51,0,0,1,.31-.65c.07-.16.16-.31.24-.46a14.26,14.26,0,0,1,1.44-2.08l.58-.66c.21-.22.42-.44.64-.65,4.15-4,10.49-6.1,15.09-6.6,8.06-.88,12.66,2.83,16.12-.28a8.25,8.25,0,0,0,2.37-6,9.51,9.51,0,0,0-.1-1.77c0-.16,0-.32-.07-.47a3.4,3.4,0,0,0-.09-.46,9.31,9.31,0,0,0-.39-1.33c-2.06-5.47-7.88-4.75-12.56-9.48a13.21,13.21,0,0,1-.92-1,18.8,18.8,0,0,1-2.52-4.12c-.21-.45-.4-.92-.57-1.39a20.7,20.7,0,0,1-1.13-4.41c-.08-.57-.13-1.13-.16-1.7,0-.1,0-.2,0-.31a14,14,0,0,1,0-1.45c0-.08,0-.17,0-.25a15.23,15.23,0,0,1,.17-1.53l0-.14a12.72,12.72,0,0,1,2.65-6c4.15-5.05,12.47-6.75,17.55-3.83,5.36,3.08,3,8.89,9.87,19.5,3.43,5.25,5.25,5.72,8.72,10.42l.29.4.31.43.63.91a59.24,59.24,0,0,1,7.55,15.91q1.58-28.67,3.1-50.55c1.24-18.21,3-42.27-3.76-73.17C274.53,140.17,263.53,89.92,223,69.31c-13.29-6.75-27.8-9.32-42.4-8.81-.39,0-.78,0-1.17,0l-1.57.08-1.57.11-1.57.13c-.52,0-1.05.09-1.57.15l-1.28.14-1.53.19-.63.08-2.43.35-1.53.25-1.05.19c-.83.14-1.67.3-2.5.47-.52.1-1,.2-1.55.32s-1,.22-1.55.34-1,.23-1.55.36c-1.58.37-3.15.78-4.71,1.22l-1,.27c.26-.79.52-1.54.79-2.26-.28.72-.55,1.47-.81,2.26h0c-.11.35-.22.71-.32,1.07-.29,1-.56,2-.8,3a43.87,43.87,0,0,0-.91,5.63c-.87,8.91,1.18,15.6,1.09,17.79a1.69,1.69,0,0,1-.08.5,1,1,0,0,1-.09.15.38.38,0,0,1-.13.09c-1.26.43-5.71-6.28-7.38-14.17a34.11,34.11,0,0,1-.47-11.12l-1,.35c-1.94.72-3.87,1.48-5.77,2.28a150.11,150.11,0,0,0-36.3,21.64h0l0,.15c-.13.62-.26,1.25-.38,1.9s-.2,1-.29,1.58c0,.3-.11.6-.16.91a128.59,128.59,0,0,0-1.78,17.51c-.35,10.66.72,18.84.7,22.7,0,.24,0,.46,0,.66s0,.22,0,.32a3.6,3.6,0,0,1,0,.36l0,.21a2,2,0,0,1-.12.43.9.9,0,0,1-.11.22.51.51,0,0,1-.3.23c-1.76.42-6.73-9.81-8.34-20.77a56.5,56.5,0,0,1,0-16.41c-31.81,32.88-39,76.81-43,93.85h0c-.16.67-.31,1.3-.46,1.89-.08.3-.16.58-.23.86l-.12.44c-.08.27-.15.53-.23.77a13.34,13.34,0,0,1-.81,2.15l-.18.32a2,2,0,0,1-.48.58l-.09.06a.48.48,0,0,1-.18.08.51.51,0,0,1-.17,0h-.12a.91.91,0,0,1-.47-.28.87.87,0,0,1-.16-.17,4.93,4.93,0,0,1-.31-.45c-.05-.09-.1-.18-.15-.29s-.19-.42-.29-.67a12,12,0,0,1-.42-1.28c-.09-.32-.17-.66-.26-1h0q-.19-.81-.36-1.77c-.19-1.07-.35-2.27-.49-3.59q-.08-.78-.15-1.62c-.18-2.27-.28-4.83-.28-7.63,0-.62,0-1.26,0-1.91s0-1.33.05-2,0-1.16.07-1.75c0-.85.08-1.72.14-2.59,0-.53.07-1.07.12-1.61.11-1.54.26-3.13.44-4.76q0-.53.12-1.05c.06-.55.13-1.1.2-1.65.09-.72.19-1.45.3-2.18q.36-2.58.84-5.26c.28-1.57.59-3.17.93-4.78.06-.29.12-.57.19-.86q.23-1.08.48-2.16c.2-.89.42-1.78.64-2.67s.46-1.8.7-2.7A145.15,145.15,0,0,1,57.23,115C81.28,70.78,138.15,25,201.34,36.08c40.48,7.08,67.45,34.66,84.38,59.94,4.47-13.55,6.14-16.72,7.42-23.86,1.37-7.57.72-12.13.73-16.88a54.15,54.15,0,0,1,.3-5.61c.06-.57.12-1.14.2-1.71l0-.3c.09-.63.18-1.25.28-1.88s.18-1.1.28-1.65l.09-.48c.1-.48.19-1,.3-1.44,0-.2.08-.41.13-.62.1-.44.2-.89.31-1.34,0-.14.06-.27.1-.41h0c4.2-17,14.73-34.31,29.43-38.64C333-1.07,344-.42,348.26,5.83c3.65,5.42,1.38,13.83-1.8,19.56-.4.71-.8,1.39-1.22,2-4.93,7.38-11.85,9.41-11.16,11.45a.75.75,0,0,0,.08.18l.06.08a.43.43,0,0,0,.11.12.34.34,0,0,0,.12.09,1.29,1.29,0,0,0,.31.16l.18.07.2.05c3.59.8,15.13-2.9,24.21,3,4.47,2.89,9.17,8.63,8.28,14.25a7.27,7.27,0,0,1-.26,1.12,10.53,10.53,0,0,1-.46,1.22h0c-.06.13-.12.26-.19.39s-.19.37-.3.55a11.15,11.15,0,0,1-1.44,2c-.14.15-.28.31-.43.46-.42.42-.86.83-1.34,1.23a21.33,21.33,0,0,1-2.29,1.62c-.36.22-.74.44-1.12.64s-.8.42-1.21.61-.83.38-1.25.55l-.95.37-.11,0-.44.16a27.22,27.22,0,0,1-3.76,1l-1.06.18c-14.32,2-20.62-10.78-30.58-7.57a8.71,8.71,0,0,0-.85.32l0,0-.68.32-.13.07c-.27.14-.54.3-.8.47s-.51.35-.76.55a12.22,12.22,0,0,0-1.09,1,4,4,0,0,0-.35.36,12.15,12.15,0,0,0-1,1.21c-.11.13-.21.26-.31.4a.08.08,0,0,0,0,0c-2.61,3.53-4.95,8.94-8.22,16.61q-.79,1.85-1.5,3.66c-.27.68-.53,1.36-.78,2-.17.44-.34.86-.48,1.29,4-1.39,8.95-3.2,15.09-5.91,10.83-4.78,13-6.83,19.86-7.67,4.24-.51,17.5-2.13,21.38,5.26a11.65,11.65,0,0,1,1,6.89,13.2,13.2,0,0,1-.31,1.62c0,.22-.11.43-.17.63s-.16.54-.26.8-.19.52-.3.77-.22.5-.34.74a8,8,0,0,1-.38.71c-.13.23-.27.45-.41.67a7.4,7.4,0,0,1-.51.7c-.14.18-.29.35-.44.52s-.34.36-.52.53h0c-.18.16-.36.32-.54.46a4.91,4.91,0,0,1-.55.38,6,6,0,0,1-.65.37C350,99.78,344.53,93,337,95.94c-.36.14-.71.3-1.07.48l-.52.28c-.18.09-.35.2-.52.3v0c-2.17,1.31-4,3.14-3.66,4.48,1,4.19,21.52-2.92,32.83,7.77,1,1,6.64,6.47,6.29,14.1a19.86,19.86,0,0,1-7.59,14.11,14.3,14.3,0,0,1-2.61,1.62,11.72,11.72,0,0,1-1.1.47l-.39.14a3.68,3.68,0,0,1-.47.15.79.79,0,0,1-.22.06,3.84,3.84,0,0,1-.46.11l-.34.08-.72.11c-11.58,1.41-16-18.18-33.38-22.87-8.48-2.29-16.82-.15-23.43,2.77,3.72,7.46,6.33,13.67,8,17.62,11.16,26.48,13.6,49.53,15,80.08,1,22,1.51,48.12.67,78,.36-.19.71-.39,1-.59a11.37,11.37,0,0,0,1-.63h0c8.4-6,6.25-16.83,16.47-29.88,1.7-2.17,13.6-17,22.67-13.83,5.23,1.82,8.93,9.42,7.38,14.58-.77,2.57-2.24,2.49-10.29,10-5.57,5.21-7.5,7.71-7.73,11-.1,1.32-.25,3.45,1.07,5,3.38,4,11.2-2.24,19.86,1C379.83,294.24,384.87,299.24,384.31,303.73Z"/></g><g id="Layer_7" data-name="Layer 7"><g id="blood"><path class="cls-3" d="M27,242.6Q26.2,252.32,25.4,262a1.28,1.28,0,0,1-.62.88,10.16,10.16,0,0,0-5.26,8.8c.14,5.27,5.14,9.31,10.18,9.46,4.59.14,9.47-2.92,10.43-7.7.79-3.92-1.44-7.12-2.31-8.21a1,1,0,0,1-.16-.25,1.56,1.56,0,0,1-.12-.59c0-.36.89-9.15,2.11-21.15Z"/><path class="cls-3" d="M96.3,175l2.61,12a2.26,2.26,0,0,1-.3,1.72c-1,1.51-2.57,4.68-1.67,8.1,1.67,6.37,11,9.83,14.78,6.94,2.65-2,2.48-7,1.31-10.19a12.07,12.07,0,0,0-5.56-6.33,2.32,2.32,0,0,1-1.15-1.5l-2.94-12.32a2.34,2.34,0,0,0-2.75-1.73l-2.55.54A2.32,2.32,0,0,0,96.3,175Z"/><path class="cls-3" d="M153,128.51l2.08,11.57a4.13,4.13,0,0,1-.67,3.15,10.17,10.17,0,0,0-1.93,6.59c.38,4.59,4.24,9,8.81,9.05,5.86.1,10.66-6.94,8.95-12.2a8.84,8.84,0,0,0-4.6-4.89,4.24,4.24,0,0,1-2.24-3.08l-2-11.66a4.28,4.28,0,0,0-5.07-3.48h0A4.28,4.28,0,0,0,153,128.51Z"/><path class="cls-1" d="M25.09,262.66a11.49,11.49,0,0,1,7.31-.32,14.89,14.89,0,0,1,5.21,2.54,1.63,1.63,0,0,1-.07-.45c0-.36.89-9.15,2.11-21.15L27,242.6,25.4,262A1.18,1.18,0,0,1,25.09,262.66Z"/><path class="cls-1" d="M98.91,187a2.34,2.34,0,0,1-.07,1.23,9.53,9.53,0,0,1,1.2-.72,7.67,7.67,0,0,1,3.41-.78,9,9,0,0,1,3.91.55l.27.06-.16-.1a2.32,2.32,0,0,1-1.15-1.5l-2.94-12.32a2.34,2.34,0,0,0-2.75-1.73l-2.55.54A2.32,2.32,0,0,0,96.3,175Z"/><path class="cls-1" d="M154.45,143.23l-.07.12a5.86,5.86,0,0,1,.42-.44,9.09,9.09,0,0,1,7.13-2.27,11.47,11.47,0,0,1,1.25.27,9.44,9.44,0,0,1,1.77.38,4.28,4.28,0,0,1-1.51-2.59l-2-11.66a4.28,4.28,0,0,0-5.07-3.48h0a4.28,4.28,0,0,0-3.36,4.95q1.05,5.79,2.08,11.57A4.13,4.13,0,0,1,154.45,143.23Z"/><path class="cls-1" d="M28.91,276.15c-4.85-4.71-1.53-10.22-1-15.83.57-5.85,1-11.73,1.29-17.61L27,242.6,25.4,262a1.28,1.28,0,0,1-.62.88,10.16,10.16,0,0,0-5.26,8.8c.14,5.27,5.14,9.31,10.18,9.46a11,11,0,0,0,7.85-3.07A8.13,8.13,0,0,1,28.91,276.15Z"/><path class="cls-1" d="M102.49,192.78c-.26-2,.52-3.8.5-5.79s-.93-4.39-1.52-6.34c-.88-2.9-1.85-5.73-2.57-8.64l-.82.17A2.32,2.32,0,0,0,96.3,175l2.61,12a2.26,2.26,0,0,1-.3,1.72c-1,1.51-2.57,4.68-1.67,8.1,1.67,6.37,11,9.83,14.78,6.94a4.87,4.87,0,0,0,1.52-2.09A10.39,10.39,0,0,1,102.49,192.78Z"/><path class="cls-1" d="M157.81,151c-.47-2,.21-4,.22-6a51.31,51.31,0,0,0-1-7.6c-.65-4.37-1.43-8.71-2.37-13a4.29,4.29,0,0,0-1.64,4.16q1.05,5.79,2.08,11.57a4.13,4.13,0,0,1-.67,3.15,10.17,10.17,0,0,0-1.93,6.59c.38,4.59,4.24,9,8.81,9.05a8.6,8.6,0,0,0,6.2-2.78C163.54,157.45,159,156.16,157.81,151Z"/></g><g id="hearts"><path class="cls-4" d="M44.52,201.6a2.2,2.2,0,0,1-3.28-.28c-7.29-9.65-19.06-13.38-28-9.76C3,195.75-1.07,208.76.24,217.81c1.59,11,10.73,14,10.65,23.52-.06,6.1-3.88,11.22-7.75,14.94a2.18,2.18,0,0,0,1,3.7,25.33,25.33,0,0,0,15.06-1,25.31,25.31,0,0,0,10.52-7.77,2.17,2.17,0,0,1,3.65.43,25.75,25.75,0,0,0,22.5,14.88,2.19,2.19,0,0,0,2.14-3C56,258.1,54.49,251,57.44,244.83c4.3-9,14-8,19.3-17.22,4.6-8.13,5-22.91-4.6-29.59C64.59,192.76,52.81,193.88,44.52,201.6Z"/><path class="cls-4" d="M98.83,136.71a2.69,2.69,0,0,1-4.06.37c-4.41-4.13-9.94-6.21-15-5.2-9.44,1.88-14.86,13.93-13.17,22.32,2.2,10.94,15.77,12.09,18,23,.95,4.73-.64,9.36-2.89,13.27a2.69,2.69,0,0,0,3.12,3.94,26.27,26.27,0,0,0,15.54-12.5,2.68,2.68,0,0,1,4.2-.61,28.4,28.4,0,0,0,14.85,7.7,28.09,28.09,0,0,0,11.52-.42,2.7,2.7,0,0,0,.92-4.84c-5.1-3.46-8.7-7.59-9.47-12.55-1.49-9.53,8.65-14.37,7.6-25.59-.63-6.81-5.36-15.8-13.73-17.3C110,127.18,103.11,130.47,98.83,136.71Z"/><path class="cls-4" d="M152,90.21a2.7,2.7,0,0,1-4.07.86c-3.06-2.42-8.35-5.62-13.92-4.32-9.7,2.27-14.59,16.91-11.24,25.86,3.49,9.31,14.62,9.12,17.46,18.68a17.83,17.83,0,0,1-1,11.57,2.7,2.7,0,0,0,3,3.66,18.46,18.46,0,0,0,13.81-10.46,2.71,2.71,0,0,1,4.13-1A21.59,21.59,0,0,0,178,139.23a2.69,2.69,0,0,0,1.54-4.35c-2.88-3.48-5.28-7.82-5.21-12.77.15-10.28,10.84-13.52,10.87-23.28,0-8.23-7.56-19-17.63-19C161.39,79.87,155.45,83.92,152,90.21Z"/><path class="cls-5" d="M2.67,257a2.16,2.16,0,0,0,1.49,3,25.33,25.33,0,0,0,15.06-1,23.83,23.83,0,0,0,3.36-1.63A39.87,39.87,0,0,1,2.67,257Z"/><path class="cls-5" d="M48.29,263.59c-2.67-1.62-5-4.23-9.77-9.28l-1.85-2a5.33,5.33,0,0,0-3.18-2,9.59,9.59,0,0,0-1.26.21,2.11,2.11,0,0,1,1.16,1.08,25.72,25.72,0,0,0,20.9,14.77A32.73,32.73,0,0,1,48.29,263.59Z"/><path class="cls-5" d="M124.06,188a54.57,54.57,0,0,1-7.6-1.89c-1.78-.53-3.68-1.1-6.17-2-1.47-.56-3.24-1.29-5.21-2.22a27.75,27.75,0,0,0,25.8,6.74,4.89,4.89,0,0,0,.46-.19c-.56,0-1.31.06-2.19.05A34.32,34.32,0,0,1,124.06,188Z"/><path class="cls-5" d="M96.43,185.43A20,20,0,0,1,82.9,188c-.38.83-.8,1.64-1.25,2.43a2.69,2.69,0,0,0,3.12,3.94A26.2,26.2,0,0,0,99,184C98.17,184.46,97.32,184.93,96.43,185.43Z"/><path class="cls-5" d="M139.54,142.25c-.07.2-.14.41-.22.61a2.7,2.7,0,0,0,3,3.66,18.61,18.61,0,0,0,8.67-3.87,18.18,18.18,0,0,0,4-4.51A26.87,26.87,0,0,1,139.54,142.25Z"/><path class="cls-5" d="M168.1,137.94c-2.15-.74-4-2.13-6.16-2.82a11.93,11.93,0,0,0-2.12-.29,4,4,0,0,1,.39.23A21.59,21.59,0,0,0,178,139.23a2.73,2.73,0,0,0,.77-.29A24.87,24.87,0,0,1,168.1,137.94Z"/><path class="cls-5" d="M10.89,241.33c-.06,6.1-3.88,11.22-7.75,14.94a2.18,2.18,0,0,0,1,3.7c.6.14,1.26.27,2,.38a20,20,0,0,0,8.3-10.05c3.22-8.65.54-17.45-3-25.53C7.38,215.33,4.34,206.12,8,196c.22-.58.45-1.17.7-1.76-6.94,5.63-9.6,16-8.5,23.53C1.83,228.8,11,231.81,10.89,241.33Z"/><path class="cls-5" d="M87.75,172.76c-2.46-6.56-6.65-8.74-11.17-14a45.37,45.37,0,0,1-8.72-15.73,20.33,20.33,0,0,0-1.28,11.15c2.2,10.94,15.77,12.09,18,23,.95,4.73-.64,9.36-2.89,13.27a2.68,2.68,0,0,0,.95,3.68,53.29,53.29,0,0,0,3.6-6,23.38,23.38,0,0,0,2.63-6.42A16.71,16.71,0,0,0,87.75,172.76Z"/><path class="cls-5" d="M141.52,126.68c-3.2-4.12-8.41-6.55-12.09-10.25a27.7,27.7,0,0,1-7.33-14.12,20.29,20.29,0,0,0,.71,10.3c3.49,9.31,14.62,9.12,17.46,18.68a17.83,17.83,0,0,1-1,11.57,2.7,2.7,0,0,0,1.55,3.52C144.48,140.37,146.19,132.7,141.52,126.68Z"/></g><g id="leaves_bot" data-name="leaves bot"><path class="cls-6" d="M281.75,293.82a59.24,59.24,0,0,0-7.55-15.91c-4.32-6.4-6.15-6.32-9.95-12.16-6.91-10.61-4.51-16.42-9.87-19.5-5.08-2.92-13.4-1.22-17.55,3.83-5.09,6.2-2.78,16.07,1.52,21.31,4.81,5.87,11.28,4.67,13.48,10.5,1.23,3.25.77,7.76-1.72,10-3.46,3.11-8.06-.6-16.12.28-6.52.71-16.58,4.56-18.9,12.75-1.75,6.15,1,14.37,6.17,16.63,3.36,1.46,6.28-.35,21-7.48,15.53-7.54,18.27-8.46,21.59-8,4.38.62,10.35,3.75,16.48,15.56,14.77,1.2,26.63-1.83,27.93-6.88C309.63,309.36,299.39,299.76,281.75,293.82Z"/><path class="cls-7" d="M323.34,295.74c10.76-5.64,7.5-17.12,18.46-31.11,1.7-2.17,13.6-17,22.67-13.83,5.23,1.82,8.93,9.42,7.38,14.58-.77,2.57-2.24,2.49-10.29,10-5.57,5.21-7.5,7.71-7.74,11-.09,1.31-.24,3.45,1.07,5,3.39,4,11.2-2.24,19.87,1,5.07,1.88,10.11,6.88,9.54,11.37s-6.36,7.39-10.53,8.49c-14,3.69-21.31-10.69-31.76-6.92C334.43,308,331.4,318.09,321.7,322a7.44,7.44,0,0,1-5.36.39c-3.33-1.25-4.44-5.48-4.93-7.31-.23-.88-1.93-7.77,2-13.22C316.14,298,319.64,297.67,323.34,295.74Z"/><path class="cls-8" d="M238.35,271.39c-3.39-4.13-5.53-11.14-3.79-17,1,6.35,3.28,12.37,8.73,16.29,2.63,1.9,7.14,2.86,9.09,5.52,1.8,2.48,1.19,6.27.08,9.76a10.75,10.75,0,0,0-.63-4.11C249.63,276.06,243.16,277.26,238.35,271.39Z"/><path class="cls-8" d="M308.24,314.77c-1.3,5.05-13.17,8.08-27.93,6.88a52.52,52.52,0,0,0-3.75-6.22c-.29-.42-.59-.82-.88-1.2s-.5-.64-.75-1q-.6-.73-1.2-1.38c-3.7-4-7.12-5.42-9.9-5.81-3.32-.47-6.06.45-21.6,8-14.69,7.13-17.61,8.94-21,7.48-5.19-2.26-7.91-10.48-6.16-16.63a13.67,13.67,0,0,1,3.81-6.15c-.1,4.54,1.24,8.91,5.6,11,7.47,3.48,17.76-2.31,24.24-5.73,3.78-2,7.52-4.24,11.61-5.56a8.42,8.42,0,0,1,5.16-.35c1.73.55,2.78,1.72,4.24,3.53a95,95,0,0,1,5.95,8.27,42.62,42.62,0,0,0,1.87-11.36,43.73,43.73,0,0,0-1.17-11.14,52.54,52.54,0,0,0-4.54-12.64c.7.86,1.47,1.88,2.34,3.16a59.24,59.24,0,0,1,7.55,15.91C299.38,299.76,309.63,309.36,308.24,314.77Z"/><path class="cls-8" d="M383.92,305.14c-1.45,3.63-6.44,6.11-10.15,7.08-14,3.69-21.32-10.69-31.77-6.92-6.39,2.32-9.56,9.83-16.23,14.43h0l0,0c-.61.41-1.24.82-1.91,1.18q-.42.24-.87.45c-.41.2-.84.39-1.28.57a7.43,7.43,0,0,1-5.36.39c-3.32-1.25-4.44-5.48-4.92-7.31l-.09-.38c0-.12-.06-.25-.09-.41s0-.15-.05-.24c0-.25-.09-.54-.14-.87s-.05-.37-.07-.57,0-.12,0-.19,0-.29,0-.45,0-.13,0-.2a4.58,4.58,0,0,1,0-.53c0-.05,0-.1,0-.15,0-.23,0-.47,0-.71v0a16.81,16.81,0,0,1,.2-2.57h0c0-.28.09-.57.15-.85a.13.13,0,0,0,0-.06h0a13.44,13.44,0,0,1,2.17-5c2.76-3.85,6.26-4.14,9.95-6.07a16.14,16.14,0,0,0,2-1.23,23,23,0,0,0,0,6.35c.28,2.06.42,3.08.95,3.62,2.23,2.25,8.13-3.31,15.88-4.42,9.09-1.3,12.58,2.53,24.25,6.4C371.81,308.26,379.13,308,383.92,305.14Z"/></g><g id="stem"><path class="cls-7" d="M97.14,139.61c-1.76.42-6.73-9.81-8.35-20.77A59,59,0,0,1,91.1,92.5l11-9.76a129.39,129.39,0,0,0-5,31.74C96.6,129.22,98.83,139.21,97.14,139.61Z"/><path class="cls-7" d="M150.6,93.44c-1.26.43-5.71-6.28-7.38-14.17a35.9,35.9,0,0,1,1.21-18.66l9.87-1.54a47.3,47.3,0,0,0-4.49,15.84C148.77,85.53,151.88,93,150.6,93.44Z"/><path class="cls-2" d="M92.32,116c-.47-7.85,1.78-13.18,6.54-19a130.56,130.56,0,0,1,3.26-14.23l-11,9.76a59,59,0,0,0-2.31,26.34c1.62,11,6.59,21.19,8.35,20.77.47-.11.63-1,.64-2.43C95,130.4,92.75,123.3,92.32,116Z"/><path class="cls-2" d="M146.93,79.71c-.35-4.47.95-7.79,3.81-10.45a48.5,48.5,0,0,1,3.56-10.19l-9.87,1.54a35.9,35.9,0,0,0-1.21,18.66c1.67,7.89,6.12,14.6,7.38,14.17.2-.07.28-.33.3-.74A36,36,0,0,1,146.93,79.71Z"/><path class="cls-6" d="M42.71,203.46c-4.31-.88-8.34-46.53,14.52-88.51C81.28,70.78,138.15,25,201.34,36.08c68.52,12,98.32,82.68,106.3,101.62,11.16,26.48,13.6,49.53,15,80.08,2.33,50.17,1.94,121.58-10.74,210a28,28,0,0,1-19.23,6.79,27.62,27.62,0,0,1-16.37-6.46c2.23-81.3,5.66-142.39,8.54-184.8,1.24-18.21,3-42.27-3.76-73.17C274.53,140.17,263.53,89.92,223,69.31,180.34,47.63,125.11,69,94.37,97,48.22,139.06,47.93,204.52,42.71,203.46Z"/><path class="cls-2" d="M44.56,159.55c.1-4.15.07-8.45,0-12.81-8.18,30.43-5.12,56.06-1.9,56.72,1.09.22,2-2.44,3.07-7.17C43.91,184.11,44.3,171.28,44.56,159.55Z"/><path class="cls-2" d="M292,431.18c-1.5-1.13-2.4-2.89-3.6-10.34-.4-2.46-.87-5.33-1-7.1-.73-12.53,7.47-126.21,9.08-161.82,1.64-36.37-1.55-62-3-72.34-4.85-33.93-9-60.68-28.93-86.21-7.16-9.16-25.6-32.1-57.17-39.26-7.16-1.62-26.15-5.65-47.7,2.47A78.08,78.08,0,0,0,136,70.78c27.73-11.63,59.89-15.23,87-1.47,40.53,20.61,51.53,70.86,58.09,100.79,6.77,30.9,5,55,3.76,73.17-2.88,42.41-6.31,103.5-8.54,184.8a27.62,27.62,0,0,0,16.37,6.46,26.73,26.73,0,0,0,9.09-1.18,19.16,19.16,0,0,1-5.26-.48A11.37,11.37,0,0,1,292,431.18Z"/></g><g id="leaves_top" data-name="leaves top"><path class="cls-6" d="M285.72,96c4.46-13.56,6.13-16.73,7.42-23.87,1.36-7.57.72-12.13.72-16.88,0-20.34,12.15-48.41,31.46-54.09C333-1.07,344-.42,348.26,5.83c4.1,6.1.72,16-3,21.57-4.93,7.38-11.85,9.41-11.17,11.45,1,2.94,14.78-3.07,25.28,3.72,4.47,2.89,9.17,8.63,8.28,14.25C366.57,63.5,357.94,68,351,68.94c-14.32,2-20.62-10.78-30.59-7.57-5.9,1.9-8.78,8.41-14.28,21.34a148.67,148.67,0,0,0-9.49,31.61c-3,.85-10.55,2.64-13.53-.88C280.71,110.59,282.54,105.7,285.72,96Z"/><path class="cls-8" d="M297.75,89.29a50.58,50.58,0,0,0-11,7.32,6.58,6.58,0,0,1-1.61,1.08c-2.83,8.58-4.32,13.07-2,15.75,3,3.52,10.51,1.73,13.53.88a149,149,0,0,1,8-27.95C302.38,87.37,300,88.16,297.75,89.29Z"/><path class="cls-8" d="M288,107.51c.34-3.62,2.47-6.8,3.58-10.22,1.5-4.63,2.78-9.38,3.81-14.14a86.55,86.55,0,0,0,1.2-27.2c-.54-5.38-.68-10.75-.69-16.12a66.17,66.17,0,0,0-2,15.45c0,4.75.64,9.31-.72,16.88-1.29,7.14-3,10.31-7.42,23.87-3.18,9.67-5,14.56-2.59,17.41,1.87,2.21,5.54,2.33,8.76,1.9C289.36,114.27,287.6,111.63,288,107.51Z"/><path class="cls-6" d="M284.4,100.05c6.25-8.37,12.85-6.89,34.07-16.27,10.84-4.78,13-6.83,19.87-7.67,4.24-.51,17.5-2.13,21.38,5.26,2.69,5.13.29,13.52-4.4,15.8C350,99.78,344.52,93,337,95.94c-2.9,1.15-6.17,3.76-5.75,5.52,1,4.19,21.52-2.92,32.82,7.77,1,1,6.64,6.47,6.3,14.1-.35,7.79-6.86,16-13.9,16.85-11.58,1.4-16-18.18-33.38-22.87-10.34-2.79-20.46,1-27.52,4.75-7.26.57-13.51-2.06-15.61-6.64C277.27,109.58,282.36,102.77,284.4,100.05Z"/><path class="cls-8" d="M332.68,40c.83-.08,1.65-.22,2.45-.36a1.32,1.32,0,0,1-1.06-.75c-.68-2,6.24-4.07,11.17-11.45.41-.62.82-1.3,1.22-2-3.78,2.69-7,4.69-9.39,6.06-5,2.9-9.84,5.21-9.48,7.16a1.66,1.66,0,0,0,.42.8C328.9,40.39,330.72,40.17,332.68,40Z"/><path class="cls-8" d="M351.61,64.21c-5.13-.06-9.92-1.94-14.5-4.09-4.09-1.93-7.69-4.37-12.37-4.26-6.1.14-8.56,5.1-10.37,10.24a12.05,12.05,0,0,1,6.06-4.73c10-3.21,16.27,9.62,30.59,7.57,6.52-.94,14.56-4.95,16.35-11A22.61,22.61,0,0,1,351.61,64.21Z"/><path class="cls-8" d="M352.52,132.41c-6.47-7.24-8.59-17.87-19-20.73-12.56-3.46-23.82,5.37-36.15,3.25-8.19-1.41-12.49-7.12-13.66-14-2.28,3.13-6.2,9.19-3.79,14.47,2.1,4.58,8.35,7.21,15.61,6.64,7.06-3.75,17.18-7.54,27.52-4.75,17.38,4.69,21.8,24.27,33.38,22.87a13,13,0,0,0,6.31-2.74C358.67,137.6,355.18,135.38,352.52,132.41Z"/><path class="cls-8" d="M349.23,92.55c-3.52.07-7.17-1.25-10.39.68a15.56,15.56,0,0,0-4,3.77A14.36,14.36,0,0,1,337,95.94c7.54-3,13,3.84,18.34,1.23,2.87-1.39,4.88-5.08,5.39-8.91A18.22,18.22,0,0,1,349.23,92.55Z"/></g></g></svg>