<svg xmlns="http://www.w3.org/2000/svg" viewBox="0 0 446 433.71"><defs><style>.cls-1{fill:#842c62;}.cls-2{fill:#c69;}.cls-3{fill:#e08cb6;}.cls-4{fill:#338b42;}.cls-5{fill:#2b7a43;}.cls-6{fill:#6fc067;}.cls-7{fill:#59aa57;}.cls-8{fill:#ba5b98;}.cls-9{fill:#f499c1;}.cls-10{fill:#993467;}</style></defs><g id="Layer_4" data-name="Layer 4"><path class="cls-1" d="M423.43,144c-4,6.88-.33,10.81-2.64,18.43-3.41,11.3-16.78,19.85-28.35,20.13-4,.1-7.91-1.13-15.67-3.59-8.33-2.63-12.56-4-16.83-7.08-8.3-6.05-13.39-16.36-14.18-26-1-12.18,5.51-15.31,4.79-25.37-.49-6.86-4.3-16.45-19.93-27.36l12.15-4.54c4.2,3,11,7.67,19.74,13.21,12.71,8.1,15.78,9.29,17.28,13.48,2.88,8.06-5.45,12-5.37,26.32,0,3.46.07,14.74,7.63,19.78a16.56,16.56,0,0,0,14,1.8c11.4-3.77,9.6-18.32,23.23-26.12,6.62-3.79,13.87-4.26,14.39-3.08S427.32,137.31,423.43,144Z"/><path class="cls-1" d="M322.52,88.23a45.13,45.13,0,0,0-4.44,2,51.59,51.59,0,0,0-20.81,20.49s-9.09,17.42-1.8,44.26a79.82,79.82,0,0,0,6.19,15.77c13.25,26.75,5.37,65.28,2.67,78.44A158.36,158.36,0,0,1,282,303.66a64.88,64.88,0,0,1-9.32,4.75q-.54,4.65-.8,8.95c-.24,3.89-.31,7.57-.27,11,0,.56,0,1.1,0,1.64a134.19,134.19,0,0,0,1.68,18.16c2,12,2.8,24.21,4.76,36.23,2.87,17.45,5.09,26,2.31,31.26-.09.17-.18.34-.29.51s-.18.3-.29.45l-.28.38a8.67,8.67,0,0,1-.76.86c-6.59,6.64-20.57,2.44-22.05,2a33.24,33.24,0,0,1-15.89-11.29c-13.39-16.51-7.23-45.45-5.52-53.47a124.16,124.16,0,0,1,17.56-41.84c-.67.06-1.33.11-2,.14l-1.9.08c-1.12,0-2.2,0-3.24,0h-.1c-.92,0-1.81-.06-2.67-.12-.44,0-.88-.06-1.31-.09l-1.16-.11q-.71-.06-1.38-.15c-.87-.1-1.7-.22-2.49-.35s-1.35-.22-2-.34l-.63-.12a134.38,134.38,0,0,1,6.67-13.11c9.63-16.6,17.6-22,26.91-35.19,3.86-5.45,11.27-15.93,15.09-29.25,4.71-16.42,2.08-30-2.79-51-1-4.25-2.1-8.19-3.27-11.9-.29-.93-.58-1.85-.88-2.75s-.59-1.78-.89-2.66c-2-5.85-4-11.2-5.62-16.47-.32-1.06-.63-2.11-.93-3.16s-.56-2.11-.82-3.16c-.19-.8-.37-1.61-.54-2.42-.08-.39-.15-.78-.22-1.17s-.16-.87-.24-1.31-.15-.9-.22-1.35-.11-.86-.16-1.29c-.1-.78-.18-1.57-.25-2.37,0-.38-.07-.76-.09-1.15s-.06-1-.08-1.5,0-.8,0-1.19c0-.74,0-1.48,0-2.23,0-.53,0-1.06.05-1.6a62,62,0,0,1,.79-7.27c.86-5.11,2.35-13.37,8.28-21.69a49.18,49.18,0,0,1,8.39-9.09c8.95-7.56,20.19-11.8,31.18-13.17a14.15,14.15,0,0,0-1.75-7.78,15.25,15.25,0,0,0-4.6-4.75c-6-4.41-9.91-3.85-13.86-6C286.62,52,282.67,40,285.24,31.27c.52-1.77,1.65-4.54,11.81-13.26C311.35,5.73,320.89-2.25,329.58.56a13.45,13.45,0,0,1,5.58,3.61,14.24,14.24,0,0,0-6-.06c-1.45.3-3.81,1-7.61,4.23-4,3.33-4.08,4.78-7.75,8.53-5.5,5.6-7.43,4.58-9,7.78-3.14,6.28,2.05,14.65,3,16.13,4.55,7.34,11.79,10.16,15.77,11.72,6.72,2.62,9.17.38,12.67,2.69s6.69,7.55,5.79,21.51l-2.21.08c8.65,2.63,14.77,6.59,14.4,8.2C353.56,87.41,338.79,82,322.52,88.23Z"/><path class="cls-2" d="M357.34,139.71,352,147.89c-.74-.52-1.49-1-2.25-1.49l-.93-.56c-.36-.22-.72-.43-1.08-.62a42.83,42.83,0,0,0-4.41-2.17c-8.82-3.73-18.08-4.22-25.4-.37-10.85,5.7-15.11,19.68-16.52,24.64-.05.15-.09.32-.13.45-2.28,8.06-1.19,12-2.76,12.42-4.18,1-23.61-24.4-13.57-47.6A36.53,36.53,0,0,1,310,111.66C327.74,107.73,348.11,118.85,357.34,139.71Z"/><path class="cls-2" d="M363.78,91.42c.31,4.26-5,7.75-7,9.11-10.26,6.76-22.69,1.19-25.61-.11-6-2.69-15.26-8.93-14.1-14.11.79-3.53,6.09-5.12,8.81-5.93C342,75.53,363.19,83.19,363.78,91.42Z"/><path class="cls-2" d="M292.26,268.16a273.17,273.17,0,0,0-16.67,39.16,76.57,76.57,0,0,1-1.72,8.07c-.46.61-.92,1.22-1.39,1.82-.34,1.15-.67,2.29-1,3.41-.27,1-.54,1.95-.8,2.93-.58,2.15-1.13,4.34-1.67,6.58l-.54,2.25h0c-3,12.52-5.63,26.73-9.12,45.45-4.13,22.14-6.14,35.05-9.1,42.93-.26.69-.53,1.34-.8,2s-.48,1-.73,1.5c-.16.31-.33.61-.5.9l-.45.73a15,15,0,0,1-5.74,5.28c-9.31,4.95-24.08,2.4-30.12-4.6-6.6-7.65-5.88-24.21,12.47-58.28-14.79,14.64-28.46,29.19-37.94,46.07-1.6,2.85-6.56,12.82-13.93,13.13-7.2.31-12.86-8.73-13.22-9.32-3.07-5.05-3.44-11.46-2.12-18.42,4.36-23.09,27.31-52.26,31.9-58.1,12.4-15.76,35-39.85,73.16-60.06-5.46-5.7-9.69-14.39-8.27-21.33,1.49-7.27,8.1-8.1,13-19.55,1.06-2.48,4.35-10.19,2.85-19.19-1.69-10.09-7.67-11.3-13.7-27-2.67-7-1.54-6.86-3.86-11.45a44.9,44.9,0,0,0-17.72-18.68c-6.05-3.38-6.93-1.87-12.58-5.48-8-5.15-6.73-8.53-12.91-12.05-7.54-4.29-17.15-3.62-23.46-3.19-6,.42-10.35,1.62-14.41-1.2-2.61-1.81-2.4-3.42-5.14-5-1.17-.69-4.19-2.16-13.47-.37a68.68,68.68,0,0,0-15.86,5.17,7.13,7.13,0,0,1,1.23-4.91c1.63-2.08,4.09-1.91,7.77-2.8,6.68-1.62,6.1-4,11.94-5.2a21.42,21.42,0,0,1,11.25.64,20.8,20.8,0,0,1,7.31,4.6c7.86,7,25.48,1.2,36,.54,22.05-1.41,40.27,17.86,51.95,30.21A108.68,108.68,0,0,1,290.53,214c-1.8,50.81-7.81,69.11-14.66,72.8q.18,1.33.3,2.76Q283.7,279.35,292.26,268.16Z"/><path class="cls-3" d="M301.66,170.74c2.81,15.59,4.64,39-4.28,63.66-7.05,19.5-17.15,29.66-30.93,42.58h0l-.06.06-1.22,1.14s0,0,0,0c.4-.93.78-1.88,1.14-2.84q.31-.82.6-1.65c.19-.53.36-1.05.54-1.58l0-.1c.18-.56.35-1.13.52-1.7s.33-1.14.48-1.72.3-1.15.44-1.74.27-1.17.4-1.76l.24-1.18a93.07,93.07,0,0,0-1.26-39.61c-5.19-17.81-15.32-28.78-22.6-36.48-11.14-11.78-24.58-26-44.13-26.71-12.44-.45-21.84,4.77-29.42,9C153.26,180.58,156.34,190,134,207.34c-21.4,16.57-21.65,10.75-49.53,28.2-3.24,2-9.91,6.27-16.83,4.46-3.3-.86-5.93-2.92-10.63-6.59-6.83-5.33-8-8.07-11.41-8.34-2-.15-4.88.48-8.71,4.47-.28.29-.56.6-.86.93a186.36,186.36,0,0,1,21,7.95l1.26.57q1.85.84,3.45,1.62l1.54.75q.75.36,1.44.72l1.77.9,1.61.83.75.39,1.4.73.67.34,1.24.62c3.51,1.7,6,2.48,9.44,2.18a13.6,13.6,0,0,0,2.67-.48c.3-.09.58-.19.84-.29s.53-.22.78-.34h0a12.83,12.83,0,0,0,2.33-1.5,5.19,5.19,0,0,0,.46-.36c.83-.68,1.7-1.46,2.73-2.33l.89-.73c.2-.17.41-.33.63-.5l.34-.26.69-.52q.81-.58,1.74-1.2c.36-.25.75-.5,1.15-.74s1-.58,1.47-.88,1.07-.6,1.64-.9c.38-.2.78-.41,1.19-.61a0,0,0,0,0,0,0c.82-.41,1.7-.83,2.64-1.25,2-.91,3.79-1.6,5.36-2.15l.77-.27c.76-.26,1.47-.48,2.14-.69l1.3-.39,1.79-.54q1.13-.34,2.16-.72l1-.4a17.67,17.67,0,0,0,5.49-3.71c4.42-4.22,4.71-7.4,9.93-10.92a26.92,26.92,0,0,1,11.51-4.2l.88-.12.74-.1a29.4,29.4,0,0,0,5.42-1.27c.57-.19,1.12-.4,1.67-.62q1.1-.45,2.13-1l.82-.42c.82-.44,1.62-.9,2.39-1.38.52-.33,1-.67,1.53-1,.89-.62,1.76-1.27,2.61-1.93l1.27-1c.21-.17.42-.34.62-.52l1.24-1.06c.62-.53,1.23-1.08,1.84-1.62,6.89-6.17,13.45-12.76,23.37-14.61,13.76-2.56,28.9,4.92,37,14.53,11.57,13.69,9.39,32.31,6,50-.2,1-.4,2.06-.61,3.08-.14.74-.28,1.47-.43,2.2-.07.36-.15.72-.23,1.09-.1.52-.22,1.06-.34,1.61-.24,1.09-.49,2.22-.78,3.39q-.71,2.94-1.62,6.22c-.09.34-.19.69-.3,1q-.28,1-.63,2.13c-.1.36-.21.72-.33,1.09s-.3,1-.46,1.47-.32,1-.49,1.5-.33,1-.51,1.52q-.78,2.31-1.68,4.71c-.19.53-.39,1.07-.61,1.62-.41,1.09-.85,2.19-1.3,3.31-.21.53-.43,1.06-.66,1.6q-.45,1.1-.93,2.19c-.36.83-.73,1.68-1.12,2.53q-2.47,5.5-5.59,11.36c-1.18,2.2-2.42,4.42-3.75,6.68-.3.51-.6,1-.92,1.54s-.61,1-.94,1.55q-1.43,2.34-3,4.71c-.64,1-1.3,2-2,3l-.65.94c-.91,1.35-1.87,2.71-2.86,4.07l-.65.91-1.33,1.8q-2,2.7-4.18,5.43L194.65,335q-1.32,1.64-2.72,3.29t-2.85,3.31l.2-.07.13-.05.33-.12h0l.26-.09.28-.11.16-.06.16-.06.33-.12.41-.16.64-.25.27-.12c.24-.1.5-.19.77-.31l.41-.16a4.08,4.08,0,0,1,.42-.17l.51-.22.85-.35h0l.21-.1.28-.11,0,0,.31-.14.16-.06.24-.11.82-.36.19-.08.37-.17L198,338l.13-.06.3-.13,1.17-.53h0c.51-.23,1-.47,1.56-.73l.94-.44c1.09-.52,2.23-1.08,3.41-1.67l1.26-.65c2-1,4.09-2.14,6.27-3.35l.79-.45.8-.46.37-.21,2.3-1.35,1.43-.87.42-.26,2-1.23c-18.4,23.21-53.5,70.93-39,94.14,5.56,8.89,18.47,14.29,28.09,11.6.32-.09.63-.19.94-.3s.49-.17.73-.27.53-.22.78-.34.51-.24.75-.38.41-.22.6-.34l.21-.12c.21-.13.41-.27.61-.41s.45-.32.67-.49.43-.35.64-.53h0l.6-.56a20,20,0,0,0,1.51-1.65c.16-.2.32-.4.47-.61s.41-.56.6-.85a5.25,5.25,0,0,0,.33-.49c.16-.23.3-.47.45-.71s.15-.23.21-.35a4,4,0,0,0,.2-.35h0c6.63-11.56,9.78-33.29,26.22-63.23,2.9-5.27,11.47-17.54,28.62-42.08,25.83-37,33.26-45,38.23-63.45a107.53,107.53,0,0,0,3.14-41.47A102.74,102.74,0,0,0,301.66,170.74Zm-37,108.68,0,0c.06-.14.13-.28.2-.43-.06.13-.11.27-.17.4Z"/><path class="cls-3" d="M443.59,108.3a25.49,25.49,0,0,0-6.65-9c-1.7-1.44-9.14-7.32-29.53-5.5-16.49,1.47-16.39,5.74-28,6.09-10.93.34-12.56-3.43-34.55-9.87-3-.89-5.82-1.7-8.4-2.43a53.48,53.48,0,0,1,6.57,3.8c2.85,2,19.49,13.57,17.94,31.27-.87,9.89-7,16.68-9.66,19.32-.37-.49-.77-1-1.22-1.55q-.31-.41-.69-.84c-.23-.29-.48-.58-.75-.88l-.18-.21L348,138c-.52-.59-1.09-1.18-1.69-1.79l-.21-.21c-.32-.32-.65-.65-1-1a57.1,57.1,0,0,0-6.65-5.51c-6.36-4.5-16.74-11.84-29.5-9.75a30,30,0,0,0-12.72,5.41h0c-.48.34-.95.69-1.39,1.06h0c-.44.35-.87.7-1.27,1.07s-.79.7-1.16,1l-.53.52q-.27.25-.51.51l-.48.5-.22.23-.65.72c-.68.77-1.24,1.45-1.67,2-7.5-16.79-2.76-35.73,10.12-45.07a28.34,28.34,0,0,1,8.94-4.36c-7.13.66-19,3.19-32.58,13.59a61.59,61.59,0,0,1,22.88-25c16.5-10,37.54-11.32,53.89-4.62,15.31,6.28,14.84,14.85,26.9,15.81,13.31,1,17.17-9.13,35.41-8.44a50.51,50.51,0,0,1,19.47,4.92c4.06,1.95,7.23,3.48,9.6,6.73C449,94.57,444.36,106.4,443.59,108.3Z"/><path class="cls-3" d="M150.81,103.76c-.07-1.16,8.91,0,18.87-5.59,10.46-5.93,10.14-12.71,18.36-14.69,2-.49,1.75,0,18,3,15.23,2.82,18,2.86,21.37,2.08s5.34-2,9.69-2.09a24.4,24.4,0,0,1,10.93,2c5.73,2.79,7.59,8,11.15,14.64a111.89,111.89,0,0,0,14.27,20.52l13.8,59.57c-12.63-6-17.86-13-20.28-18.41-3.22-7.29-2.43-14.11-7.68-20.28-1.66-2-4.76-4.82-5.27-9.13a15.75,15.75,0,0,0-.86-4.37,13.56,13.56,0,0,0-3.08-4.67c-6.21-6.54-6.18-9.26-11.38-13.31-1.6-1.24-1.41-.83-10.57-5.42-12-6-12.22-6.65-15.78-7.59-4.93-1.3-4.53-.06-14-1.37-10-1.37-10.93-2.81-15.07-2-5.68,1.13-6,4.25-12.15,6.9C161.45,107.69,150.89,105,150.81,103.76Z"/><path class="cls-4" d="M287,69.52l0,0,0,0c.16.21.31.43.46.64s.31.47.45.71.28.47.41.7.25.47.36.7.2.42.29.63A.61.61,0,0,0,289,73c.07.17.14.34.19.5a2.53,2.53,0,0,1,.12.36c.06.17.11.34.16.51s.09.38.13.57a.36.36,0,0,1,0,.1,4.92,4.92,0,0,1-.11,2.53,3.11,3.11,0,0,1-.25.52c-1.72,2.74-8.38,2.5-14,.21.06.1.12.2.17.3a4.72,4.72,0,0,1,.28.63,1.8,1.8,0,0,1,.09.28,2.68,2.68,0,0,1,.07.27c0,.08,0,.17,0,.26a1.27,1.27,0,0,1,0,.28c0,.1,0,.21,0,.32s0,.3,0,.47v0c0,.15,0,.32,0,.5s.07.62.14,1a15.61,15.61,0,0,0,.43,1.75,42.57,42.57,0,0,0,1.69,4.39c.33.82.46,1.36.16,1.68-.53.56-1.7-.22-3.88-.56-3.38-.53-4.06.88-7,.71-4.72-.28-7.84-4.11-8-4.28-1.65-2.09-.88-2.84-2.45-5-2.93-4.12-7.79-4.52-7.6-5.52.14-.79,3.12-.37,8.11-1.11a31.12,31.12,0,0,0,3.42-.68h0l.09,0,.34-.09.76-.21.71-.22.81-.25a8.33,8.33,0,0,1,1.12-.28l.26,0a1.09,1.09,0,0,1,.26,0l.28,0a6.4,6.4,0,0,1,.87,0c.2,0,.42,0,.65.08l.41.08-.12-.14c-.21-.23-.4-.47-.59-.71s-.47-.61-.69-.92-.35-.49-.52-.75c-.37-.57-.72-1.16-1-1.75-.09-.16-.17-.33-.25-.49s-.23-.45-.33-.67-.24-.51-.35-.77c-.05-.09-.08-.18-.12-.26-.1-.24-.2-.48-.29-.72s-.28-.72-.41-1.07-.28-.81-.4-1.22-.26-.86-.37-1.28c0-.1-.06-.19-.08-.29-.09-.33-.16-.65-.24-1s-.18-.82-.26-1.21-.14-.77-.21-1.14c0-.05,0-.09,0-.14-.06-.34-.11-.66-.15-1a37.11,37.11,0,0,1-.38-5.06,26,26,0,0,0,8.37,7.92l.33.18.36.2a24.35,24.35,0,0,0,6.88,2.35,13.46,13.46,0,0,1-3.9-6.25c-1.14-4.4.21-7.85.3-10.48,0-.58,0-1.15.05-1.69h0c.07-2.66.1-4.83.12-6.32A24.63,24.63,0,0,0,281,48.86h0l.3.23c6,4.42,10.26,2.73,13.77,7.51.19.26.37.52.53.79l.24.41.23.43a2.1,2.1,0,0,1,.15.3,2.59,2.59,0,0,1,.14.29l.33.77a44.47,44.47,0,0,1,1.62,5.46c.18.69.36,1.43.55,2.23.33,1.36.59,2.62.79,3.74.06.37.12.72.18,1.06,0,.17.05.33.08.49.05.33.1.63.14.92s0,.28.06.42a54.36,54.36,0,0,1-7.86-2.29C290.77,71.07,289,70.37,287,69.52Z"/><path class="cls-4" d="M105.51,248c1,4.7-.45,11.92-5.61,14.68-3.47,1.85-7.26,1-8.93.44.16-.34.33-.71.51-1.12a43.85,43.85,0,0,0,1.79-4.88,31.93,31.93,0,0,0,1.48-7c.26-3.05-.44-3.16-.51-7.26-.07-4.26-.11-6.64,1.46-8.11,2.34-2.2,6.71-.9,7.6-.61a26.71,26.71,0,0,0-.12,3.64c0,.2,0,.39,0,.6a25.53,25.53,0,0,0,.42,3.47C104.26,245.19,105,245.76,105.51,248Z"/><path class="cls-4" d="M156.43,218.58a12.93,12.93,0,0,0-3.68-7.6h0c-.21-.24-.44-.48-.68-.73s-.75-.73-1.16-1.11l-.8-.7-.54-.44c-.16-.13-.32-.26-.49-.38-.5-.39-1-.78-1.6-1.17l-.51-.35c-.61-.41-1.26-.83-1.95-1.25-3,5.93-4.41,10.28-4.78,13.51,0-.24-.09-.48-.16-.74a10.36,10.36,0,0,0-2.86-4.72l-.38-.36a14.91,14.91,0,0,0-1.48-1.21,55.57,55.57,0,0,0-7,13.47c-.22-.56-.45-1.09-.68-1.58-.13-.29-.26-.56-.39-.83-.25-.53-.51-1-.75-1.46-.25,0-.49.07-.74.12a17.56,17.56,0,0,0-.07-3.65c0-.27-.08-.55-.13-.83a.19.19,0,0,1,0-.08c-.06-.28-.12-.57-.19-.87s-.17-.65-.27-1a.64.64,0,0,1,0-.07,14.7,14.7,0,0,0,8.24-2.49c2.89-1.9,7.15-6.25,5.92-9.94,0,0,0,0,0,0-1.15-3.33-6.24-4.39-7.27-4.61-3.66-.76-5,.54-7.76-.17-2.08-.54-4.82-2.18-7.36-7.24a26.41,26.41,0,0,0-1.12,14.7,20.88,20.88,0,0,0-7.3-1.69c-5.75-.23-7.48,2.5-14.25,2a25.7,25.7,0,0,1-8.57-2.17l1.16,2h0c1,1.77,2.38,4,4,6.47,2.44,3.86,4.22,6.68,5.62,8.69,0,0,0,0,0,0l-.24-.09a10.36,10.36,0,0,0-1.66-.42,21.39,21.39,0,0,0-4.46-.16h0a22.93,22.93,0,0,1-7.9-.91c-5.43-1.59-8.57-4.38-9-3.84a.12.12,0,0,0,0,.09c0,.37.84,1.3,2.35,2.84l1.08,1.09c1,1,2.09,2.14,3.34,3.5,2.87,3.12,4.51,5.23,5.67,6.72,1.49,1.94,2.21,2.86,3.78,3.65,2.72,1.35,7.6,2.06,16.44-2.87-.29-.59-.58-1.15-.88-1.66l-.3-.51-.19-.33-.2-.32q-.27-.43-.54-.81l-.3-.41-.19-.27.21.28c3.65,1.05,8,.64,12.07-.32a22.65,22.65,0,0,0-9.65,16.95c-.52,8.74,4.47,17.23,12.67,21.59,0-.35,0-.75,0-1.18a11.88,11.88,0,0,1,1-4.85c2-4.37,5.53-4.52,8.43-8.18,2.21-2.8,2.82-6.08,2.9-9.45.6,1.32,1.24,2.88,1.89,4.68.18.51.35,1,.51,1.49.28.86.53,1.66.75,2.41l.39,1.43c.16.63.3,1.2.42,1.7,5.95-5,7.25-9.26,7.36-12.15.2-5.2-3.41-7.16-2.82-13.85a38.72,38.72,0,0,1,.89-4.72,8.07,8.07,0,0,0,1.46,4.25c1.65,2.25,4.49,3.25,7.73,7.73.42.58.79,1.14,1.13,1.7.1.17.2.35.31.52v0a27.59,27.59,0,0,1,2.11,4.49c.26-2.11.7-5.29,1.39-9.14C155.75,222.84,156.63,221.19,156.43,218.58Zm-32-6A10.33,10.33,0,0,1,125,214,14.82,14.82,0,0,0,124.39,212.63Z"/></g><g id="Layer_3" data-name="Layer 3"><path id="x" class="cls-4" d="M249.54,75.8c.15-.79,3.13-.36,8.11-1.11,6.11-.91,6.44-2.23,9.58-1.75.43.07,5.7,1,8.19,5.68,1,1.83.11,2.24,1.18,5.81s2.51,5.36,1.84,6.06-1.69-.22-3.87-.56c-3.39-.52-4.06.89-7,.71-4.72-.28-7.83-4.1-8-4.28-1.65-2.08-.88-2.83-2.45-5C254.21,77.2,249.36,76.81,249.54,75.8Z"/><path id="x1" class="cls-5" d="M269.7,76.41a18.66,18.66,0,0,1,6.07,5.69l.4.58c-.38-2,0-2.58-.75-4.06-2.49-4.72-7.76-5.61-8.19-5.68-2.41-.37-3.17.32-6.16,1.08A26.69,26.69,0,0,1,269.7,76.41Z"/><path id="x1-2" data-name="x1" class="cls-5" d="M267.83,86.54c-5.1-1.66-5.57-5.68-9.1-8.78-2.25-2-5.91-1.84-9.11-2.06,0,0-.07.06-.08.1-.18,1,4.67,1.4,7.61,5.52,1.57,2.21.8,3,2.45,5,.14.18,3.25,4,8,4.28,2.94.18,3.61-1.23,7-.71,2.18.34,3.34,1.12,3.87.56s0-1.24-.55-2.61C274.79,88.37,271.18,87.64,267.83,86.54Z"/><path id="w" class="cls-6" d="M260.83,52.5c0,2.24.31,17.46,11.1,24.14,6,3.74,15.29,4.79,17.36,1.48,1.76-2.81-1.52-9-5.83-12.24s-7.8-2-13.57-5.08A25.76,25.76,0,0,1,260.83,52.5Z"/><path id="w1" class="cls-7" d="M271.66,62.81c4.54,3.29,10.06,4.79,14.41,8.42A24.18,24.18,0,0,1,289.63,75c-.59-3-3.11-6.77-6.17-9.09-4.44-3.37-7.8-2-13.57-5.08-.25-.13-.48-.28-.72-.42A13.6,13.6,0,0,0,271.66,62.81Z"/><path id="w1-2" data-name="w1" class="cls-7" d="M270.32,69.74a38.6,38.6,0,0,1-9.11-12.19c.79,5.67,3.21,14.44,10.72,19.09,6,3.74,15.29,4.79,17.36,1.48a4.25,4.25,0,0,0,.36-3.05C283,77.41,276.1,75,270.32,69.74Z"/><path id="v" class="cls-4" d="M273.34,38.39c0,1.8-.07,4.6-.18,8-.08,2.62-1.43,6.08-.29,10.48,2.09,8.1,13.4,12.48,19.39,14.73a51.83,51.83,0,0,0,7.85,2.29,63.34,63.34,0,0,0-1.25-6.63c-1.32-5.4-2-8.27-3.78-10.67-3.51-4.78-7.82-3.1-13.77-7.51A24.65,24.65,0,0,1,273.34,38.39Z"/><path id="v1" class="cls-5" d="M281.4,49.59c2.13,3.58,5.43,4.65,8.8,6.81a24.07,24.07,0,0,1,8.12,8.67c-1-4-1.74-6.4-3.24-8.45-3.51-4.78-7.82-3.1-13.77-7.51l-.31-.25C281.13,49.1,281.26,49.35,281.4,49.59Z"/><path id="v1-2" data-name="v1" class="cls-5" d="M288.85,67.4c-2.9-1.89-6.26-2.72-9-5-5.91-4.8-5.88-11.19-6.63-17.73,0,.55,0,1.12,0,1.71-.08,2.62-1.43,6.08-.29,10.48,2.09,8.1,13.4,12.48,19.39,14.73a51.83,51.83,0,0,0,7.85,2.29c-.14-1.07-.36-2.45-.67-4C295.73,71.66,292.22,69.6,288.85,67.4Z"/><path id="u" class="cls-6" d="M103.3,234.17a26.7,26.7,0,0,0,.32,7.71c.63,3.32,1.41,3.88,1.89,6.15,1,4.71-.45,11.93-5.61,14.68-3.47,1.86-7.27,1-8.94.45a45.25,45.25,0,0,0,2.31-6,32.14,32.14,0,0,0,1.48-7c.26-3-.45-3.16-.51-7.26-.07-4.26-.11-6.64,1.45-8.11C98,232.58,102.41,233.89,103.3,234.17Z"/><path id="u1" class="cls-7" d="M93.27,257.16a46.34,46.34,0,0,1-1.8,4.87c3.4-2.1,6.24-5.32,6.81-9.16.5-3.43-.07-6.58,1.49-9.83a17,17,0,0,1,3.43-4.62,26.78,26.78,0,0,1,.1-4.25c-.89-.28-5.27-1.59-7.61.61-1.56,1.47-1.52,3.85-1.45,8.11.06,4.1.77,4.22.51,7.26A32.14,32.14,0,0,1,93.27,257.16Z"/><path id="t" class="cls-6" d="M135.37,211.33a11.72,11.72,0,0,1,4.72,6.29c.8,3-.49,4.57-.82,8.28-.58,6.7,3,8.66,2.82,13.86-.11,2.88-1.4,7.1-7.35,12.14a67.11,67.11,0,0,0-2.08-7,77.25,77.25,0,0,0-4.39-9.75C126.49,231.28,126.63,224.45,135.37,211.33Z"/><path id="t1" class="cls-7" d="M132.41,230.57c-.38-6.64,1.84-9.81,5-15.22a7.49,7.49,0,0,1,.87-1.21,14.42,14.42,0,0,0-2.95-2.81c-8.74,13.11-8.88,19.95-7.1,23.79a77.25,77.25,0,0,1,4.39,9.75c.73,2,1.26,3.85,1.65,5.34C134.36,243.6,132.79,237.18,132.41,230.57Z"/><path id="t1-2" data-name="t1" class="cls-7" d="M140.09,217.62a8.1,8.1,0,0,0-.31-.91,19.57,19.57,0,0,0-.27,7.51C140,221.65,140.76,220.15,140.09,217.62Z"/><path id="s" class="cls-4" d="M126.59,220.92a33.33,33.33,0,0,1,4.07,14.28c.25,5,.51,10.28-2.79,14.44-2.9,3.67-6.46,3.82-8.42,8.19a12.29,12.29,0,0,0-1,6c-8.2-4.35-13.18-12.85-12.66-21.58C106.46,231.66,115.1,222.46,126.59,220.92Z"/><path id="s1" class="cls-5" d="M110.84,242.69c1.54-9.84,13.56-10.19,17.27-18.6-.51-1.21-1-2.29-1.52-3.17-11.49,1.54-20.13,10.74-20.76,21.35-.52,8.73,4.46,17.23,12.66,21.58,0-.35,0-.74,0-1.17C113.19,257.57,109.72,249.82,110.84,242.69Z"/><path id="r" class="cls-4" d="M145,204.84c-6.3,12.3-5.43,17.83-3.4,20.59,1.65,2.26,4.49,3.25,7.72,7.73a27.23,27.23,0,0,1,3.56,6.75c.27-2.12.7-5.3,1.4-9.14,1.43-7.93,2.32-9.58,2.11-12.18C156.15,215.08,153.93,210.26,145,204.84Z"/><path id="r1" class="cls-5" d="M148.64,229.74c-1.47-3.09-3.53-5.38-3.3-9,.25-4.1,3.5-7.57,7.42-9.74a34.05,34.05,0,0,0-7.73-6.13c-6.3,12.3-5.43,17.83-3.4,20.59,1.65,2.26,4.49,3.25,7.72,7.73a26.57,26.57,0,0,1,1.46,2.25A44.51,44.51,0,0,0,148.64,229.74Z"/><path id="q" class="cls-4" d="M73.16,214.65c-.38.52,2.49,2.89,6.75,7.51,6.57,7.14,6.65,9,9.44,10.37s7.61,2.07,16.44-2.86c-3-6.11-6.43-8.44-9-9.46-4.83-1.94-7.68.33-14.69-1.73C76.71,216.89,73.57,214.1,73.16,214.65Z"/><path id="q1" class="cls-5" d="M105.79,229.66c-8.83,4.93-13.71,4.22-16.43,2.87s-2.87-3.24-9.45-10.36c-4.06-4.41-6.86-6.77-6.77-7.44,1.85,1.65,3.81,3.16,5.8,4.67,2.37,1.79,4.12,4.23,6.56,5.91,4.25,2.9,9.34,2.45,13.47,0A25.47,25.47,0,0,0,96.75,223,20.18,20.18,0,0,0,90,219.4a15,15,0,0,1,6.79.81,13.81,13.81,0,0,1,4.71,3.21,19.3,19.3,0,0,1,2.14,2.61q.28.39.54.81c.14.21.27.43.39.65A24.3,24.3,0,0,1,105.79,229.66Z"/><path id="p" class="cls-4" d="M116.9,190.07c-4.08,11.59-.25,21.74,5.68,24,3.62,1.38,8.1-.18,10.82-2,2.88-1.9,7.14-6.26,5.92-9.94-1.12-3.37-6.25-4.44-7.3-4.66-3.66-.77-5,.54-7.76-.18C122.18,196.77,119.45,195.13,116.9,190.07Z"/><path id="p1" class="cls-5" d="M139.29,202.08c-3.63,3.55-8.19,5.91-13.29,4.84-4.74-1-8.47-4.7-10.71-9.25-.6,8.19,2.71,14.65,7.29,16.38,3.62,1.38,8.1-.18,10.82-2,2.88-1.9,7.14-6.26,5.92-9.94Z"/><path id="o" class="cls-6" d="M85.67,202.91c1.14,2,2.89,4.92,5.13,8.46,4.51,7.14,6.76,10.71,8.59,12.2,6.94,5.67,20,1,26.39-1.77a16.47,16.47,0,0,0-1.72-9.81c-3.27-6-10.25-8.7-15.57-8.91-5.76-.24-7.49,2.49-14.26,2A25.67,25.67,0,0,1,85.67,202.91Z"/><path id="o1" class="cls-7" d="M106,217.56c-7.73-1-13.89-6.94-19.19-12.68,1,1.78,2.39,4,4,6.49,4.51,7.14,6.76,10.71,8.59,12.2,6.94,5.67,20,1,26.39-1.77a16.56,16.56,0,0,0-1.65-9.66A23.35,23.35,0,0,1,106,217.56Z"/><path id="n" class="cls-2" d="M357.34,139.72c-9.23-20.86-29.6-32-47.38-28.06a36.53,36.53,0,0,0-25.06,20.93c-10,23.21,9.39,48.58,13.56,47.6,1.57-.37.48-4.36,2.76-12.42,1.28-4.5,5.46-19.21,16.66-25.09,9.78-5.13,23-2.55,34.07,5.21Z"/><path id="n1" class="cls-8" d="M310,111.66a36.53,36.53,0,0,0-25.06,20.93c-10,23.21,9.39,48.58,13.56,47.6,1.57-.37.48-4.36,2.76-12.42,0-.15.1-.34.15-.51-2-4.56-3.08-10-4.08-13.51a35.86,35.86,0,0,1-1.4-8.53c-.91-9.71,2.38-18.78,14-20.94,7.48-1.39,15.73.76,22.39,4.19,6.87,3.55,9.46,8.45,11,14.61a46.65,46.65,0,0,1,8.67,4.81l5.39-8.17C348.11,118.86,327.74,107.73,310,111.66Z"/><path id="m" class="cls-9" d="M361,122.7c1.55-17.7-15.1-29.3-17.94-31.28-1.9-1.32-25.73-17.38-44.62-3.68-12.87,9.34-17.62,28.29-10.12,45.08,2.59-3.33,9.55-11.28,20.62-13.09,12.75-2.09,23.13,5.25,29.49,9.75A58.56,58.56,0,0,1,351.36,142C354,139.37,360.15,132.59,361,122.7Z"/><path id="m1" class="cls-3" d="M343.08,91.42c-1.9-1.32-25.73-17.38-44.62-3.68-12.87,9.34-17.62,28.29-10.12,45.08a39.08,39.08,0,0,1,7.9-7.67c3.75-13.56,13.91-26.1,29.55-22.57,14.88,3.36,25.11,17,19.29,31.92l0,.49a59,59,0,0,1,6.25,7c2.68-2.65,8.79-9.43,9.66-19.32C362.57,105,345.92,93.4,343.08,91.42Z"/><path id="l" class="cls-10" d="M330.62,93.1c15.63,10.9,19.44,20.49,19.93,27.35.71,10.06-5.79,13.19-4.79,25.37.79,9.66,5.88,20,14.17,26,4.28,3.12,8.51,4.46,16.83,7.09,7.76,2.45,11.64,3.68,15.68,3.58,11.57-.27,24.93-8.83,28.35-20.12,2.31-7.62-1.41-11.56,2.63-18.44,3.9-6.63,10.77-8.8,10.23-10s-7.77-.71-14.39,3.08c-13.64,7.8-11.83,22.35-23.24,26.13a16.63,16.63,0,0,1-14-1.8c-7.55-5-7.61-16.32-7.63-19.79-.07-14.27,8.26-18.25,5.37-26.31-1.49-4.2-4.56-5.39-17.27-13.48C353.8,96.22,347,91.52,342.76,88.56Z"/><path id="l1" class="cls-1" d="M346,107.83c5.95-.24,11.88-2.58,17.93-2.48a40.93,40.93,0,0,1,4.95.39c-1.79-1.11-3.87-2.41-6.32-4C353.8,96.22,347,91.51,342.76,88.56L330.62,93.1C338.18,98.37,343,103.33,346,107.83Z"/><path id="l1-2" data-name="l1" class="cls-1" d="M367.5,166.23c-12.32-9.86-14.94-22.3-13.82-37.43.56-7.54,2.31-16.26-2-23C348,99.9,341.89,96,335.91,92.72a8.86,8.86,0,0,1-1.48-1l-3.81,1.43c15.63,10.9,19.44,20.49,19.93,27.35.71,10.06-5.79,13.19-4.79,25.37.79,9.66,5.88,20,14.17,26,4.28,3.12,8.51,4.46,16.83,7.09,7.76,2.45,11.64,3.68,15.68,3.58a32.55,32.55,0,0,0,16.44-5.42C395.2,180.38,378.72,175.21,367.5,166.23Z"/><path id="k" class="cls-10" d="M240.85,408.56a33.35,33.35,0,0,0,15.9,11.3c1.47.46,15.45,4.66,22.05-2,5.06-5.1,2.6-13.37-.69-33.47-2-12-2.8-24.2-4.76-36.23-2.33-14.25-3.31-35.3,3.73-63.46-13.17,12.2-34.4,35.86-41.75,70.37C233.63,363.11,227.47,392.06,240.85,408.56Z"/><path id="k1" class="cls-1" d="M268.68,410.43c-5.56-5.54-6.43-13.57-5.73-21,1.05-11.16,3.67-22.15,4.91-33.3,1-8.69,1.59-17.68,3.81-26.18a168.81,168.81,0,0,1,5.41-45.26c-13.17,12.2-34.4,35.86-41.75,70.37-1.7,8-7.86,37,5.52,53.47a33.35,33.35,0,0,0,15.9,11.3c1.47.46,15.45,4.66,22.05-2a10.22,10.22,0,0,0,2.82-6.94C278.05,414.16,273.1,414.85,268.68,410.43Z"/><path id="j" class="cls-10" d="M335.16,4.17a14.32,14.32,0,0,0-6,0c-1.44.3-3.8,1-7.6,4.22-4,3.33-4.08,4.78-7.76,8.53-5.5,5.61-7.43,4.58-9,7.79-3.15,6.27,2,14.65,3,16.12,4.55,7.34,11.78,10.17,15.77,11.72,6.71,2.63,9.17.39,12.67,2.7s6.68,7.54,5.79,21.5l-27.94,1a15.32,15.32,0,0,0-1.35-10.8,15.08,15.08,0,0,0-4.59-4.75c-6.05-4.41-9.91-3.85-13.86-6C286.61,52,282.67,40,285.24,31.28c.52-1.78,1.64-4.54,11.8-13.27C311.34,5.74,320.88-2.24,329.58.56A13.69,13.69,0,0,1,335.16,4.17Z"/><path id="j1" class="cls-1" d="M332.89,2.22a7.49,7.49,0,0,1-2.82-.33c-2.39-.75-6.62,3.78-10.07,7.82.44-.42.94-.87,1.53-1.37,3.8-3.18,6.16-3.92,7.6-4.22a14.32,14.32,0,0,1,6,0A15.43,15.43,0,0,0,332.89,2.22Z"/><path id="j1-2" data-name="j1" class="cls-1" d="M333.94,62.44c-6.09-.93-7.86-.36-11.72-.94-5.5-.83-5.41-2.66-15.25-6.88-8.68-3.72-9.82-2.75-13.34-5.28-3-2.2-6.78-6.23-9.08-14.33-.73,8.14,3.1,17.59,9.64,21.17,3.95,2.16,7.81,1.6,13.86,6a15.08,15.08,0,0,1,4.59,4.75A15.32,15.32,0,0,1,314,77.74l27.94-1a46.74,46.74,0,0,0-.61-12.58A65,65,0,0,0,333.94,62.44Z"/><path id="i" class="cls-9" d="M287.19,183.18c-12.62-5.94-17.86-13-20.27-18.41-3.23-7.29-2.44-14.11-7.69-20.28-1.66-2-4.75-4.81-5.27-9.13a15.27,15.27,0,0,0-.86-4.36,13.65,13.65,0,0,0-3.07-4.68c-6.21-6.53-6.18-9.25-11.39-13.3-1.6-1.25-1.41-.84-10.57-5.42-12-6-12.21-6.65-15.77-7.59-4.93-1.31-4.54-.07-14.05-1.37-10-1.38-10.92-2.81-15.06-2-5.68,1.14-6,4.25-12.16,6.91-9.58,4.13-20.15,1.46-20.22.21s8.91,0,18.86-5.59c10.47-5.93,10.14-12.71,18.36-14.7,2-.48,1.75,0,17.95,3,15.24,2.82,18,2.87,21.37,2.09s5.34-2,9.7-2.1a24.32,24.32,0,0,1,10.93,2c5.72,2.79,7.58,8,11.15,14.63a111.23,111.23,0,0,0,14.27,20.53Q280.29,153.39,287.19,183.18Z"/><path id="i1" class="cls-3" d="M287.2,183.19c-.79-.37-1.55-.75-2.28-1.13-.37-.2-.73-.38-1.08-.58s-.7-.38-1-.57c-.68-.38-1.33-.78-1.95-1.17-.32-.2-.63-.39-.92-.59a40.3,40.3,0,0,1-7.92-6.62,28.89,28.89,0,0,1-5.1-7.75c-3.21-7.3-2.43-14.12-7.68-20.29-1.66-2-4.76-4.81-5.27-9.13a15.27,15.27,0,0,0-.86-4.36,13.38,13.38,0,0,0-3.08-4.68c-6.2-6.53-6.17-9.26-11.38-13.3-1.59-1.24-1.41-.84-10.56-5.43-12-6-12.23-6.64-15.79-7.59-4.93-1.3-4.52-.06-14-1.36-10-1.37-10.92-2.81-15.06-2-5.68,1.14-6,4.25-12.16,6.91-9.59,4.13-20.15,1.46-20.22.21,0-.63,2.51-.58,6.4-1.24,8.34.74,16.42-3.26,24.37-7.4,4.92-2.55,9.57-4.9,15.23-4.3a97,97,0,0,1,21.24,5c21,7.28,36.07,23,46.49,41.76-.28-7.77.65-15.64,1.45-23.46a117.75,117.75,0,0,0,7.41,9.44q5.84,25.2,11.66,50.37Q286.14,178.57,287.2,183.19Z"/><path id="h" class="cls-2" d="M136.7,142.16a7.16,7.16,0,0,1,1.23-4.91c1.63-2.07,4.09-1.91,7.77-2.8,6.68-1.62,6.1-4,11.94-5.2a21.42,21.42,0,0,1,11.25.64,20.63,20.63,0,0,1,7.3,4.6c7.86,7,25.49,1.21,36,.54,22.05-1.4,40.27,17.87,51.94,30.22A108.75,108.75,0,0,1,290.53,214c-2,55.46-8.95,72.19-16.56,73.48-8.47,1.43-22.43-15.46-20-27.25,1.49-7.27,8.11-8.11,13-19.55,1.06-2.49,4.35-10.2,2.85-19.19-1.69-10.1-7.67-11.3-13.7-27-2.68-7-1.55-6.86-3.87-11.46a44.92,44.92,0,0,0-17.71-18.68c-6.05-3.38-6.94-1.86-12.58-5.48-8-5.14-6.74-8.53-12.92-12-7.54-4.29-17.15-3.63-23.45-3.19-6,.41-10.35,1.62-14.41-1.21-2.61-1.81-2.4-3.41-5.14-5-1.17-.7-4.19-2.17-13.48-.37A68.18,68.18,0,0,0,136.7,142.16Z"/><path id="h1" class="cls-8" d="M254,260.23c-1.49,7.29,3.28,16.53,9.14,22.18,3.58-10.27,7.3-20.53,9.92-31.1,2.32-9.35,4.67-20,2.66-29.59-3-14.36-8.3-11.57-20.33-38.78-4-9.17-6.3-16.23-13.69-20.46-4.52-2.58-6.29-1.43-12.65-4.82-8.63-4.62-8-8.13-15.64-12a36.18,36.18,0,0,0-17.25-3.95c-4.76.18-7.57,1.37-13.48.5a31.39,31.39,0,0,1-7.86-2.07c-6-2.37-8.26-5.39-14.42-5.41-2.19,0-1.11.38-10.81,1.86-3.42.52-6.2.88-9.43,2.63a19.88,19.88,0,0,0-3.44,2.35c0,.19,0,.37,0,.55A68.18,68.18,0,0,1,152.55,137c9.29-1.8,12.31-.33,13.48.37,2.74,1.61,2.53,3.22,5.14,5,4.06,2.83,8.43,1.62,14.41,1.21,6.3-.44,15.91-1.1,23.45,3.19,6.18,3.51,4.89,6.9,12.92,12,5.64,3.62,6.53,2.1,12.58,5.48A44.92,44.92,0,0,1,252.24,183c2.32,4.6,1.19,4.48,3.87,11.46,6,15.73,12,16.93,13.7,27,1.5,9-1.79,16.7-2.85,19.19C262.07,252.12,255.45,253,254,260.23Z"/><path id="g" class="cls-9" d="M36,230.47c4.25-4.82,7.46-5.56,9.57-5.4,3.43.27,4.58,3,11.4,8.35,4.7,3.67,7.33,5.72,10.64,6.59,6.92,1.81,13.59-2.44,16.82-4.47,27.89-17.45,28.13-11.63,49.54-28.2,22.37-17.31,19.28-26.75,38.18-37.25,7.58-4.22,17-9.44,29.42-9,19.55.71,33,14.92,44.13,26.71,7.28,7.7,17.4,18.66,22.6,36.47a93.06,93.06,0,0,1,1,40.79c-10.82,51.2-76.95,75.38-80.23,76.53,31-35.33,41-68.72,44.68-87.22,3.87-19.23,7.78-40.26-4.94-55.32-8.12-9.61-23.26-17.09-37-14.52C173.13,188,166.34,208.29,146.88,211a28.47,28.47,0,0,0-13.12,4.42c-5.22,3.52-5.51,6.69-9.94,10.91-5.69,5.44-9.23,4-20,8.88-15.08,6.77-14,12.18-22.21,12.89-6.84.6-9.73-3-24.57-9.65A186.35,186.35,0,0,0,36,230.47Z"/><path id="g1" class="cls-3" d="M270.7,255.85a82.48,82.48,0,0,1-1.38,9.23c-4,18.92-15.54,34.13-28.68,45.87l-2.07,1.81q-2.17,1.86-4.38,3.6c-1.32,1-2.62,2-3.93,3-1.56,1.15-3.13,2.25-4.7,3.32-.68.47-1.38.93-2.07,1.39l-2.23,1.44-2.1,1.3q-2.1,1.31-4.14,2.48l-2,1.13c-4.35,2.43-8.39,4.46-11.87,6.11-1.07.5-2.08,1-3,1.4a1.31,1.31,0,0,0-.27.12l-1,.45-.76.32c-.21.1-.43.19-.64.27l-.23.11-.86.36-1.34.55-.77.31-.91.36-.73.29a3,3,0,0,0-.32.12l-.54.19c-.32.13-.54.2-.68.25q6.56-7.46,11.88-14.76l1.18-1.61c1-1.37,2-2.73,2.85-4.08.44-.62.86-1.25,1.28-1.87s.91-1.36,1.35-2c3.22-4.94,6.06-9.78,8.57-14.47a175.81,175.81,0,0,0,17.58-48.39c3.87-19.23,7.77-40.26-4.94-55.32-8.12-9.6-23.26-17.08-37-14.52C173.13,188,166.35,208.3,146.88,211a28.55,28.55,0,0,0-13.12,4.41c-5.23,3.53-5.51,6.7-9.94,10.92-5.69,5.43-9.23,4-20,8.88-15.07,6.77-14,12.18-22.21,12.89-6.84.6-9.73-3-24.57-9.65a188.34,188.34,0,0,0-21-7.95c.29-.33.58-.64.86-.93l.32,0c13.93.51,24.64,13.14,38.54,15,7.9,1.08,14-1.11,20-6.16,7-5.83,15-7.7,22.91-11.78,6.47-3.31,9.61-9.19,14.71-14,6-5.63,13.74-7.06,20.5-11.26a81.27,81.27,0,0,0,13-6.16c10.61-6.51,19.18-17.65,32.46-18.05,21.31-.64,36.1,11.71,42.5,31a7.86,7.86,0,0,0,.3,2.57c4.08,14.52,2.45,29.89,1.4,44.73A160.56,160.56,0,0,1,236.37,292a78.72,78.72,0,0,0,11.74-9.59c5.15-5.18,9.33-11.25,14.14-16.75C265.1,262.37,267.93,259.14,270.7,255.85Z"/><path id="f" class="cls-2" d="M317,86.32c-1.16,5.17,8.08,11.42,14.09,14.1,2.92,1.31,15.36,6.87,25.61.12,2.07-1.37,7.36-4.85,7.06-9.12-.59-8.23-21.77-15.88-37.95-11C323.1,81.2,317.8,82.79,317,86.32Z"/><path id="e" class="cls-2" d="M273.63,275.86c-45.15,21.22-71,48.48-84.55,65.75-6,7.61-43.05,54.74-29.78,76.52.36.6,6,9.63,13.22,9.33,7.37-.32,12.32-10.29,13.92-13.14,20.08-35.74,59-61.1,87.42-98.92a73.54,73.54,0,0,0-.23-39.54Z"/><path id="e1" class="cls-8" d="M276.33,291.77a73.28,73.28,0,0,0-2.71-15.9,257.51,257.51,0,0,0-32.78,18.39c-1,1.25-2,2.52-3,3.8-8.87,16-22.28,29.63-33.34,44.05-12.27,16-23.24,33.23-28.06,52.83a58.72,58.72,0,0,0,.41,19.56,13.33,13.33,0,0,1-9.12-.19c-6-2.3-9-8.7-10.53-14.6-1.31,7-.94,13.37,2.12,18.42.37.59,6,9.63,13.23,9.33a11.18,11.18,0,0,0,7.06-3.4l.66-.65c.2-.21.4-.42.59-.64l.59-.67c.28-.32.54-.64.79-1l.68-.93a41.4,41.4,0,0,0,2.31-3.64l.49-.87.76-1.37c.67-1.21,1.39-2.4,2.11-3.59.23-.4.48-.79.72-1.18,20.73-33.29,57.46-58,84.59-94.15A73.91,73.91,0,0,0,276.33,291.77Z"/><path id="d" class="cls-10" d="M322.51,88.23c16.28-6.26,31.05-.82,31.61-3.25.49-2.13-10.4-8.37-23.5-10.21-18.74-2.62-42.7,3.82-55.79,22.2-5.93,8.33-7.42,16.59-8.29,21.69-4.08,24.13,7.24,38.37,13.4,65,4.88,21,7.5,34.62,2.8,51-3.82,13.31-11.24,23.79-15.09,29.25-9.32,13.16-17.28,18.58-26.91,35.18a132.13,132.13,0,0,0-6.67,13.11A66.54,66.54,0,0,0,282,303.66a158.21,158.21,0,0,0,22.31-54.47c2.69-13.17,10.58-51.7-2.67-78.45a79.73,79.73,0,0,1-6.2-15.76c-7.28-26.85,1.8-44.26,1.8-44.26C298.08,109.16,306,94.61,322.51,88.23Z"/><path id="d1" class="cls-1" d="M330.62,74.77c-15.23-2.13-33.92,1.72-47.41,13.12,11.48-2.06,23-1,34.87,2.34a43.73,43.73,0,0,1,4.43-2c16.28-6.26,31.05-.82,31.61-3.25C354.61,82.85,343.72,76.61,330.62,74.77Z"/><path id="d1-2" data-name="d1" class="cls-1" d="M280.15,283.61a152.49,152.49,0,0,0,8.45-25.73,6.62,6.62,0,0,1,.47-3.75c.23-.57.44-1.15.66-1.73.46-2.69,1.07-6.69,1.52-11.56a153.77,153.77,0,0,0-5.9-58.35c-4.77-15.13-8-16.15-14.48-37.25-2.46-8-4.1-14.77-5.12-19.3-1,20,8.68,33.87,14.19,57.68,4.88,21,7.5,34.62,2.8,51-3.82,13.31-11.24,23.79-15.09,29.25-9.32,13.16-17.28,18.58-26.91,35.18a132.13,132.13,0,0,0-6.67,13.11,66.85,66.85,0,0,0,16.85,1.2Z"/><path id="c" class="cls-9" d="M443.59,108.31c.77-1.9,5.37-13.73-.62-22-2.36-3.25-5.53-4.77-9.59-6.72a50.64,50.64,0,0,0-19.47-4.93c-18.25-.69-22.1,9.5-35.41,8.44-12.06-1-11.6-9.53-26.91-15.8C335.24,60.63,314.21,62,297.7,72a61.62,61.62,0,0,0-22.87,25c13.58-10.4,25.44-12.93,32.58-13.59,11.13-1,20.11,1.59,37.5,6.68,22,6.43,23.62,10.2,34.55,9.87,11.55-.36,11.46-4.63,27.94-6.1,20.4-1.82,27.84,4.07,29.54,5.51A25.52,25.52,0,0,1,443.59,108.31Z"/><path id="c1" class="cls-3" d="M412.07,87.74c-21.46,0-24.29,9.42-39.1,7.25-10.22-1.5-8.94-6-26.8-12.5-6.85-2.48-16.9-5.94-30.08-6.26a81.06,81.06,0,0,0-30.68,5.65A64.31,64.31,0,0,0,274.83,97c13.58-10.4,25.44-12.93,32.58-13.59,11.13-1,20.11,1.59,37.5,6.68,22,6.43,23.62,10.2,34.55,9.87,11.55-.36,11.46-4.63,27.94-6.1,20.4-1.82,27.84,4.07,29.54,5.51a25.52,25.52,0,0,1,6.65,9c.09-.25.26-.66.45-1.21a27.94,27.94,0,0,0-8.12-12.68C434.11,92.85,427.73,87.78,412.07,87.74Z"/><path id="b" class="cls-2" d="M292.25,268.16a272.56,272.56,0,0,0-20.75,52.46c-4.33,15.54-7.51,32.42-12.14,57.22-6.93,37.08-7.89,48.28-17.32,53.29s-24.08,2.41-30.12-4.6C200.7,413.53,210.62,374.82,292.25,268.16Z"/><path id="b1" class="cls-8" d="M239,422.71c-5.54-2-7-7.64-6.22-13,2.14-15.16,9.88-29,16.89-42.35,6.11-11.63,10.72-24.53,18.82-35,1-4.06,1.95-7.95,3-11.76a272.56,272.56,0,0,1,20.75-52.46c-81.63,106.66-91.55,145.37-80.33,158.37,6,7,20.81,9.55,30.12,4.6,3.79-2,6.22-5,8.21-10.36A11.63,11.63,0,0,1,239,422.71Z"/><path id="a" class="cls-9" d="M182.15,419.7c-16.31-26.1,30.14-83.25,45-101.59,35.47-43.88,57.7-49,70.26-83.71,8.92-24.67,7.09-48.07,4.28-63.66a102.89,102.89,0,0,1,15.13,41.58,107.62,107.62,0,0,1-3.15,41.47c-5,18.41-12.39,26.47-38.22,63.44C258.27,341.77,249.7,354,246.8,359.31c-22.86,41.6-20,67.37-36.56,72C200.62,434,187.71,428.6,182.15,419.7Z"/><path id="a1" class="cls-3" d="M210.54,424.57c-18.31-2.77-14.41-29.9-11.16-42.11,5.27-19.84,16.18-38.28,27.75-55,11.93-17.29,26.68-33.27,39.32-50.42-10.76,10.09-23.77,21.88-39.33,41.12-14.83,18.34-61.28,75.49-45,101.59,5.56,8.9,18.47,14.29,28.09,11.6,4.64-1.29,7.75-4.25,10.33-8.76A15.41,15.41,0,0,1,210.54,424.57Z"/><path class="cls-3" d="M303.72,225c6.85-15.74,5.28-34.33.15-50.57-.78-1.34-1.52-2.57-2.21-3.66,2.81,15.59,4.64,39-4.28,63.66a94.5,94.5,0,0,1-3.9,9.26C298,237.64,301.33,230.44,303.72,225Z"/></g></svg>