<svg xmlns="http://www.w3.org/2000/svg" viewBox="0 0 272.68 440"><defs><style>.cls-1{fill:#d9739d;}.cls-2{fill:#043b7d;}.cls-3{fill:#f989ab;}.cls-4{fill:#064a94;}</style></defs><g id="Layer_4" data-name="Layer 4"><g id="Layer_6" data-name="Layer 6"><path class="cls-1" d="M199,421h0a.62.62,0,0,1-.11.19c-.14.22-.28.45-.42.66s-.44.67-.66,1l-.35.49c-.21.31-.44.61-.67.91l0,.07q-.5.65-1,1.26c-.75.88-1.53,1.72-2.35,2.51-.29.29-.58.56-.88.82l-.3.27c-.76.67-1.56,1.3-2.38,1.9s-1.78,1.23-2.72,1.78l-1.06.6c-.35.2-.71.38-1.07.56-1.09.54-2.22,1-3.38,1.47l-1.18.43c-.79.27-1.6.53-2.43.76l-1.27.34q-1.28.33-2.61.6-2,.41-4.17.72c-8.66,1.24-19.24,1.37-32.77,1.53l-5,.06c-7.05.07-13.3.09-18.88-.14-1.08,0-2.13-.09-3.16-.16l-1.69-.11q-1.23-.09-2.4-.21h-.11l-2.32-.26h-.09c-.76-.1-1.51-.2-2.25-.32s-1.55-.26-2.31-.4-1.41-.29-2.1-.46h0c-.69-.16-1.37-.34-2-.52A42.56,42.56,0,0,1,90.56,436c-.45-.18-.89-.37-1.33-.57l-.37-.16c-.61-.28-1.21-.57-1.79-.88l-.88-.48C51,413.93,63.78,338.24,87.94,195.59a89.8,89.8,0,0,1,4.61-16.85,95.08,95.08,0,0,1,7.92-16.16c1.13-1.83,2.47-4,4-6.33.51-.77,1-1.56,1.61-2.36s1.14-1.61,1.74-2.42a70.39,70.39,0,0,1,7.68-8.83c.95-.91,1.93-1.78,2.95-2.6q.62-.49,1.23-1c.42-.31.84-.61,1.27-.9l.64-.43c.86-.56,1.75-1.08,2.65-1.55a23.7,23.7,0,0,1,11-2.84,22.17,22.17,0,0,1,6.78,1.07l.72.24c.71.25,1.4.53,2.09.84a30.85,30.85,0,0,1,4,2.22c.43.28.85.57,1.27.86h0c.62.45,1.24.92,1.85,1.41a45.37,45.37,0,0,1,3.51,3.15c.19.18.38.37.56.56s.37.37.55.56.37.38.55.58l.81.89c.35.37.68.75,1,1.14l.78.92c.33.4.66.8,1,1.21s.47.58.69.87l.73,1c.3.41.61.81.9,1.22s.42.57.62.86l.68,1c2.24,3.2,4.12,6.25,5.64,8.71.4.64.78,1.28,1.15,1.92l.77,1.34.44.79c.49.89.95,1.78,1.4,2.65a1.24,1.24,0,0,0,.1.2c1.13,2.25,2.12,4.43,3,6.51.12.28.24.55.35.83l.42,1.06.54,1.43c.17.47.34.93.5,1.39a1.15,1.15,0,0,0,.06.17c.09.25.18.5.26.74l.28.84c0,.1.07.21.1.31.09.27.18.54.26.81q.21.69.42,1.35c.13.43.26.86.37,1.28.06.2.11.4.17.6s.1.38.16.57c.1.39.2.77.3,1.13l.38,1.54c.07.32.14.63.21.92a.14.14,0,0,0,0,.07c0,.13,0,.24.07.36.25,1.11.41,2,.51,2.53q1.69,9.17,3.32,18c.58,3.18,1.16,6.31,1.73,9.41l.54,2.94c.59,3.24,1.18,6.45,1.76,9.61.2,1.16.41,2.31.62,3.45.11.6.21,1.19.32,1.78.31,1.69.61,3.36.91,5q3.76,20.93,6.85,39.5c.26,1.58.52,3.14.77,4.69.17,1.1.35,2.18.52,3.25.14.87.28,1.73.41,2.58q2.52,15.88,4.34,29.94c.09.65.17,1.3.25,1.94l.39,3.12c.16,1.32.31,2.63.46,3.92q1.18,10.13,1.89,19.25C209.7,384.13,207.68,406.89,199,421Z"/><path class="cls-2" d="M267.7,171.55c-.11.23-.23.46-.35.69-.24.46-.48.9-.74,1.33l-.36.61-.06.08a6.65,6.65,0,0,1-.36.56c-.13.21-.27.4-.41.6s-.28.39-.42.58-.28.37-.43.55A19,19,0,0,1,262,179.2a5.58,5.58,0,0,1-.55.44c-.25.2-.5.39-.76.57C245.64,190.64,217,173,179,170.6c-20-1.25-40.26-1-40.26-1l-3.27.05s-16.54.27-32.87,1.57c-31.9,2.53-70.08,22-87.84,10.76C-9.6,166.47-5.46,86.6,39.58,39.62l1-1C78.51-.1,129.49-.1,136.21,0s51.56,1.51,88.36,35.69C268.23,76.26,280.93,144.61,267.7,171.55Z"/></g><path class="cls-3" d="M135.21,133.36c-16.72,0-28.71,19.44-34.74,29.22a93.76,93.76,0,0,0-12.53,33C63.79,338.24,51,413.93,86.19,433.86c11.49,6.5,26.77,6.32,50.93,6s38.79-.46,49.95-7c35.4-20.79,21.17-97.83-4.9-239A93,93,0,0,0,170,162.58C163.88,152.75,151.89,133.33,135.21,133.36Z"/><path class="cls-1" d="M199,421a34.2,34.2,0,0,1-11.93,11.86c-11.15,6.54-25.89,6.72-49.94,7s-39.44.46-50.93-6C51,413.93,63.79,338.24,87.94,195.59a94.09,94.09,0,0,1,12.52-33c6-9.78,18-29.19,34.76-29.23s28.67,19.4,34.74,29.23A92.89,92.89,0,0,1,176.78,176c.28.63.52,1.27.77,1.89.37,1,.72,1.91,1,2.82l.06.17c.34.93.64,1.84.9,2.7s.56,1.8.79,2.63c.12.41.22.79.33,1.17h0c.84,3.12,1.29,5.42,1.5,6.55,12.36,66.93,22.06,119.44,25.07,158.37-2.37-17.76-5.7-35.34-9-53-3.94-21.19-7.57-42.47-11.87-63.6-2.21-10.89-5.63-21.86-7.09-32.86-.72-5.4-1.19-10.71-2.22-15.9a89.3,89.3,0,0,0-31.52,2.65c-17,4.62-30.14,14.87-39.28,29.92-3.27,5.38-10,16.91-16.33,51.8-3.35,18.5-4.75,33.24-5.4,41.19-3,37.24-4.77,61.58,6.53,86.62,4.94,10.94,9.56,15.79,13.06,18.71,3.11,2.6,12.68,9.8,39.91,10.68A168,168,0,0,0,199,421Z"/><path class="cls-4" d="M136.21,0C129.43-.1,77.67-.1,39.58,39.62-5.46,86.6-9.6,166.47,14.77,182c17.76,11.28,56-8.23,87.84-10.76,16.33-1.3,32.87-1.57,32.87-1.57l3.27-.05s20.31-.22,40.26,1c38,2.36,66.63,20,81.69,9.61,23.16-16.05,13.6-98.31-36.13-144.51C187.78,1.52,143,.12,136.21,0Z"/><path class="cls-2" d="M240.87,169.19c-16.17-5.52-30.19-15.89-46.31-21.36-31.4-10.67-65.25-1.29-95.43,8.91-11.88,4-23.92,8-36.31,10.15-11.52,1.94-25.67,3.31-34.5-6.07-9.35-9.93-8.67-26.5-7.68-39.11a321.39,321.39,0,0,1,6-42.25,190.77,190.77,0,0,1,13.89-40.8l-1,1C-5.46,86.6-9.6,166.47,14.77,182c17.76,11.28,56-8.23,87.84-10.76,16.33-1.3,32.87-1.57,32.87-1.57l3.27-.05s20.31-.22,40.26,1c38,2.36,66.63,20,81.69,9.61a22.11,22.11,0,0,0,7-8.66A53.11,53.11,0,0,1,240.87,169.19Z"/></g></svg>