<svg xmlns="http://www.w3.org/2000/svg" viewBox="0 0 447.87 431.19"><defs><style>.cls-1{fill:#008461;}.cls-2{fill:#002b42;}.cls-3{fill:#00a86b;}.cls-4{fill:#004e64;}</style></defs><g id="Layer_4" data-name="Layer 4"><path class="cls-1" d="M260,376.53c1.74,10.29.44,25.5-14.06,46.12l-1.38.43q-3.37,1-7.22,2.06c-1.26.33-2.56.65-3.9,1l-1.61.38c-1.26.29-2.56.57-3.88.85s-3,.6-4.53.88l-1.52.27-1.55.26-1.57.25-1.59.24-1.61.23-2.71.35-.58.07c-1.11.13-2.24.26-3.38.37-1.62.16-3.27.31-4.95.43l-.27,0q-1.69.12-3.45.21c-1.26.07-2.52.12-3.8.16-2.74.09-5.41.11-8,.07l-1.49,0c-1,0-2.08-.05-3.1-.09-2.59-.09-5.11-.25-7.56-.44-.83-.06-1.66-.14-2.47-.21l-2-.2-.74-.08-2.05-.23-2.32-.29c-1.17-.15-2.31-.32-3.43-.49l-1.8-.28-2.19-.37-1.92-.34-.28-.05-2.54-.49-.53-.11-1-.21c-1-.2-1.93-.41-2.86-.62l-.44-.1-1.45-.34-1.41-.34-1.57-.39.62-.49.58-.46c1.85-1.48,3.91-3.23,6.09-5.28.48-.44,1-.91,1.47-1.4.74-.71,1.5-1.47,2.26-2.26.93-1,1.87-2,2.81-3,.33-.36.66-.73,1-1.11s.91-1.05,1.36-1.59.81-1,1.22-1.48c1-1.19,1.91-2.43,2.86-3.73,1.16-1.58,2.51-3.52,4-5.83.21-.33.42-.67.62-1,.72-1.17,1.45-2.43,2.19-3.77.35-.62.7-1.27,1-1.93a.25.25,0,0,0,0-.07l.39-.77.39-.78c.27-.52.53-1.05.79-1.6l.73-1.54q1.17-2.5,2.3-5.34c.22-.53.43-1.08.64-1.63l.63-1.68c.17-.48.35-1,.52-1.46.24-.67.47-1.35.7-2.05.4-1.2.79-2.44,1.16-3.71.17-.54.32-1.1.48-1.66l0-.1c.24-.83.46-1.68.69-2.54.14-.54.27-1.1.41-1.66s.29-1.19.43-1.8.3-1.34.45-2c.08-.35.15-.71.23-1.07s.2-1,.3-1.53.21-1.1.31-1.65q.28-1.53.51-3c.1-.62.19-1.22.28-1.83.11-.79.22-1.57.32-2.35s.17-1.48.25-2.21c.17-1.6.31-3.18.42-4.73,0-.5.07-1,.1-1.5,0-.33,0-.66.05-1q.07-1.49.12-2.94c0-1.13,0-2.25,0-3.35,0-.85,0-1.7,0-2.54,0-.24,0-.47,0-.7,0-.79,0-1.58-.09-2.36s-.08-1.6-.13-2.39c0-.15,0-.3,0-.45,0-.75-.1-1.5-.17-2.23q0-.35-.06-.69l0-.31c-.05-.66-.12-1.3-.19-1.94,0-.16,0-.31-.05-.47-.08-.7-.16-1.4-.25-2.09-.1-.85-.22-1.68-.34-2.51l-.21-1.41,0-.17c-.05-.35-.1-.69-.16-1-.15-.94-.31-1.87-.48-2.78-.31-1.7-.64-3.36-1-5-.22-1.09-.46-2.16-.7-3.21-.13-.55-.25-1.09-.37-1.63l-.36-1.5c-.13-.51-.25-1-.37-1.53-.19-.78-.38-1.54-.57-2.3-.53-2.1-1.06-4.14-1.56-6.12l-.45-1.76a1.6,1.6,0,0,1-.05-.21c-.33-1.3-.65-2.57-.95-3.83-.45-1.88-.87-3.72-1.22-5.52-.12-.6-.24-1.19-.34-1.78-.19-1-.35-2-.49-3a0,0,0,0,1,0,0c-.06-.35-.11-.71-.14-1.06s-.1-.72-.13-1.08c-.11-1.06-.19-2.09-.24-3.12,0-.21,0-.41,0-.61a30.34,30.34,0,0,1,4.87-18.31c15.05-23.09,60.17-28.85,75.93-12.37,15.59,16.29,2.91,54.78,1.13,60.18-6.72,20.41-15,23.55-14.63,38.25q0,.86.09,1.68c0,.55.08,1.09.15,1.61a.34.34,0,0,0,0,.1c0,.39.1.78.17,1.16,0,.14,0,.28.07.42a1.7,1.7,0,0,0,0,.22c0,.31.11.61.18.91s.07.35.11.52c.1.45.21.88.33,1.3v0a27.93,27.93,0,0,0,.89,2.72q.22.66.51,1.29h0C249.79,356.65,257.68,362.82,260,376.53Z"/><path class="cls-2" d="M446.32,379.54a243.41,243.41,0,0,1-20.95-67.14c-7.62-48.81,5.78-64.52,5.07-120.37-.14-10.7-2.34-119-42.32-130.16a27.37,27.37,0,0,0-6.29-.95q-.07-.86-.18-1.71a41.12,41.12,0,0,0-11.4-24.12c-11.64-11.59-27.32-11.87-31.5-11.81A57.58,57.58,0,0,0,323.56,9.22c-3.72-2.36-20.4-12.91-39.94-7.88a42.8,42.8,0,0,0-8.82,3.35h0c-.79.41-1.55.82-2.28,1.25s-1.43.86-2.11,1.31c-.44.29-.88.59-1.3.89l-.29.2-1,.71a49.28,49.28,0,0,0-5,4.34l-.39.39c-.4.4-.77.79-1.11,1.15l-.55.61-.52.59c-.33.37-.59.69-.81.95-14.63-6-45.05-15.88-81-7.87-33.8,7.52-66,29.4-84.51,58.51-.4.63-.8,1.26-1.18,1.9s-.67,1.11-1,1.67c-.43.73-.84,1.46-1.25,2.19s-.71,1.29-1,1.94-.71,1.35-1,2-.53,1.08-.79,1.62q-1,2.17-2,4.39c-8.06,19-3.39,41.52-21.93,68.06-5.77,8.25-8.4,9.57-13.25,15.61-27.5,34.25-12.24,78.45-16.28,151.73A467.17,467.17,0,0,1,26,383.28c2.37-.58,4.87-1.24,7.46-2q2.3-.66,4.7-1.44c.79-.26,1.6-.52,2.41-.8l.31-.1c1.71-.59,3.46-1.22,5.22-1.9l1.36-.53,1.37-.55c.91-.36,1.83-.75,2.75-1.15l1.17-.5c2.47-1.1,5-2.28,7.48-3.58.38-.19.77-.39,1.15-.6Q64.2,368.66,67,367l1.41-.85c.63-.38,1.26-.77,1.89-1.18l1.32-.86.93-.61c.38-.25.77-.51,1.15-.78.64-.44,1.28-.88,1.92-1.34l.18-.13,1.33-1h0L78.85,359q2.28-1.74,4.52-3.65c.55-.46,1.1-.94,1.65-1.43s1.3-1.16,2-1.77a2.91,2.91,0,0,0,.27-.24c.55-.51,1.1-1,1.64-1.56l.48-.47,1.44-1.44c.82-.83,1.62-1.68,2.42-2.55,14.89-16.19,19.55-31,23-48.48a208,208,0,0,1-2.09,25.81,208.46,208.46,0,0,1-7.75,33.64q2.67-.4,5.71-1l1.53-.32,1.58-.35.19,0c1-.24,2-.49,3.07-.77.56-.14,1.13-.3,1.71-.46l.63-.18,1.37-.4,1.4-.43,2.28-.75.55-.19.6-.21,1.16-.41.31-.11s0,0,0,0l1-.39,1.06-.41c.67-.26,1.35-.54,2-.82l.47-.2.2-.09.39-.16,1.72-.76c.48-.21,1-.44,1.45-.67l.18-.08,1.08-.52.53-.26.48-.24.56-.28.58-.3.25-.13.25-.14.83-.43.29-.16c.55-.29,1.09-.59,1.63-.9.93-.52,1.86-1.06,2.79-1.63.69-.42,1.38-.84,2.07-1.28.51-.32,1-.65,1.51-1h0c.49-.32,1-.66,1.47-1l1.44-1c1-.71,2-1.45,3-2.23,4.57-3.57,13.68-11.32,23.47-28.43l.42-2.3c-.14.77-.28,1.53-.41,2.28v0c-.16.88-.33,1.75-.49,2.62-.38,2-.77,3.93-1.16,5.84-.15.76-.31,1.51-.47,2.26s-.35,1.69-.54,2.53c-.26,1.25-.53,2.47-.8,3.67-.13.56-.25,1.12-.38,1.67l-.45,2c-1.32,5.66-2.64,10.87-3.9,15.57-.19.68-.37,1.34-.55,2l-.61,2.2c-.13.48-.27,1-.4,1.42-.2.7-.39,1.39-.59,2.06,0,.17-.09.33-.14.49-.14.51-.29,1-.43,1.49l1.49-.38,1.26-.33,1.42-.38,3-.84,1.53-.45c1-.31,2.09-.64,3.16-1s2.08-.67,3.14-1l.13-.05,3.39-1.18c1.32-.49,2.68-1,4.05-1.52l3-1.2,2.19-.91,2.23-1c.74-.32,1.49-.66,2.24-1s1.34-.62,2-.94q3.82-1.79,7.76-3.89c.6-.31,1.2-.64,1.8-1q1.29-.7,2.58-1.44c.72-.41,1.45-.83,2.17-1.26s1.6-.95,2.4-1.44l2.23-1.38a2.9,2.9,0,0,0,.29-.19l1.93-1.24c.93-.61,1.86-1.23,2.78-1.86.68-.46,1.36-.93,2-1.42.94-.65,1.87-1.32,2.81-2q2.34-1.73,4.61-3.51l1.61-1.28q2.07-1.68,4.08-3.41l1.23-1.07,1.68-1.5c.7-.62,1.39-1.26,2.07-1.9s1.37-1.28,2-1.93,1.34-1.3,2-1.95q2-2,3.9-4c.63-.68,1.27-1.36,1.9-2.05,1.88-2.05,3.71-4.14,5.47-6.27.58-.69,1.15-1.38,1.71-2.08l.07-.09c.56-.69,1.12-1.39,1.67-2.09a.39.39,0,0,1,.08-.1l1.63-2.13q1.67-2.19,3.27-4.44c.53-.74,1.06-1.5,1.58-2.25l1-1.46q.33,4.5,1,8.87c.12.8.25,1.59.41,2.39.31,1.75.69,3.49,1.11,5.21.14.56.28,1.11.44,1.67s.25.93.38,1.39.33,1.16.51,1.73c.33,1.06.68,2.12,1,3.17q.84,2.36,1.83,4.71c.27.64.56,1.28.85,1.91.13.29.27.59.42.89.28.62.58,1.24.89,1.86.52,1,1.06,2.07,1.63,3.09l.88,1.55c.6,1,1.22,2,1.87,3.07,16.06,25.19,41.64,37.67,59.85,44.17a124.48,124.48,0,0,1-2.81-20.81,129,129,0,0,1,3.84-37.83c7,21.78,15.09,36.53,29.91,49.08,24.71,20.92,54.17,25.06,70.87,25.88C447.36,381.7,446.85,380.64,446.32,379.54Zm-307.69-164v0c.07-.14.13-.28.19-.42C138.76,215.24,138.7,215.38,138.63,215.53Zm44-96.15a.05.05,0,0,0,0,0c0-.3,0-.6.06-.89C182.7,118.81,182.68,119.09,182.67,119.38Zm65.57-79.22h0l-.12.48c0-.14.06-.28.09-.41v0c.12-.47.24-.93.37-1.4Zm10.2-20.94-.26-.07h-.35a.22.22,0,0,1,.05-.08l.3.08h.29Zm20.69,97.58c0-.35-.07-.7-.11-1.06l.12,1.07Zm37.38,4.1-.24,0,.46-.07Zm29.33-43.26h0c.11.18.21.36.31.54C346.06,78,346,77.82,345.84,77.64ZM358,104.73l-.51-1.56c.18.52.35,1,.52,1.56,0,0,0,0,0,0S358,104.75,358,104.73Z"/></g><g id="stem"><path class="cls-3" d="M180.69,248.84c-16.5,25.32,15,53.31,3.93,110.25C180,382.8,170.81,397.4,165.5,404.66a105.14,105.14,0,0,1-20.25,20.81,183.5,183.5,0,0,0,100.69-2.81c14.5-20.63,15.8-35.83,14.06-46.13-3.12-18.46-16.37-23.26-16.88-41.62-.4-14.7,7.91-17.85,14.63-38.25,1.78-5.4,14.46-43.9-1.13-60.19C240.86,220,195.74,225.76,180.69,248.84Z"/><path class="cls-1" d="M257.75,296.65c-6.72,20.41-15,23.55-14.63,38.25a32.31,32.31,0,0,0,2.55,12c-11.13-1.5-22.28,1.28-32.29,8.81a82,82,0,0,0-11.58,10.69c-2.29,20.24-8.75,39.84-20.1,56.78,20.59,3.71,41.72,2.34,62.86-.06a183.49,183.49,0,0,1-48.12,8,180.94,180.94,0,0,1-20.18-.48c-3.33-.26-6.54-.61-9.6-1-1.17-.15-2.31-.32-3.43-.49-1.36-.2-2.69-.42-4-.65l-1.92-.34-.28-.05-3.07-.6-1-.21c-1-.2-1.93-.41-2.86-.62l-.44-.1c-1-.22-1.93-.45-2.86-.68l-1.57-.39,1.2-1c1.85-1.48,3.91-3.23,6.09-5.28.48-.44,1-.91,1.47-1.4.74-.71,1.5-1.47,2.26-2.26a103.5,103.5,0,0,0,9.23-10.93A97.65,97.65,0,0,0,173.35,392a0,0,0,0,0,0,0c.26-.5.53-1,.79-1.54s.53-1.05.79-1.6l.73-1.54q1.17-2.5,2.3-5.34c.22-.53.43-1.08.64-1.63l.63-1.68c.17-.48.35-1,.52-1.46.24-.67.47-1.35.7-2.05q.87-2.62,1.67-5.47c.24-.83.46-1.68.69-2.54.14-.54.27-1.1.41-1.66s.29-1.19.43-1.8.3-1.34.45-2c.18-.85.36-1.72.53-2.6.11-.55.21-1.1.31-1.65q.28-1.53.51-3c.1-.62.19-1.22.28-1.83q.33-2.31.57-4.56a125.1,125.1,0,0,0,.73-13.5c0-.85,0-1.7,0-2.54,0-.24,0-.47,0-.7,0-.79,0-1.58-.09-2.36s-.08-1.6-.13-2.39c0-.15,0-.3,0-.45,0-.75-.1-1.5-.17-2.23q0-.35-.06-.69c-.06-.76-.14-1.51-.22-2.25,0-.16,0-.31-.05-.47-.08-.7-.16-1.4-.25-2.09-.16-1.33-.35-2.63-.55-3.92-.06-.41-.13-.81-.19-1.21-.15-.94-.31-1.87-.48-2.78-4.86-26.83-15-44.81-4.07-61.6,15.05-23.09,60.17-28.85,75.93-12.37C272.21,252.76,259.53,291.25,257.75,296.65Z"/></g><g id="leaves"><path class="cls-4" d="M338.75,23.28A57.58,57.58,0,0,0,323.56,9.22c-3.72-2.35-20.4-12.91-39.94-7.88-13.78,3.56-21.93,13.05-24.18,15.75-19.27,23.09-18.5,69.07,6.18,91.13,34.77,31.07,104.4,3.5,114.75-30.94,3.43-11.4,2.23-29.88-10.12-42.19C358.61,23.51,342.93,23.23,338.75,23.28Z"/><path class="cls-2" d="M380.37,77.28a31.25,31.25,0,0,1-1.11,3.11q-.43,1-.93,2.1c-.17.35-.34.7-.52,1s-.37.69-.56,1-.38.68-.59,1-.4.68-.62,1-.43.67-.65,1-.45.67-.69,1-.45.64-.68,1l-.07.1-.71.93-.78,1c-.26.33-.53.65-.81,1s-.55.65-.83,1-.61.68-.93,1c-.46.49-.93,1-1.41,1.46s-1,1-1.47,1.44-1,.9-1.45,1.34L364.13,100l-.2.17-.77.63c-.23.19-.46.38-.7.56l-.23.19-.32.25c-.3.24-.6.48-.9.7l-.24.19-.24.18-.23.17-.23.17-.47.34c-.27.21-.55.41-.83.6h0l-.11.08c-.37.26-.74.52-1.12.77q-.28.21-.57.39l-.53.35-1.05.69c-.27.18-.54.35-.82.51-.45.29-.9.57-1.36.84a0,0,0,0,1,0,0l-1.06.63-.74.43-.13.07-.44.25-1.34.74-1.35.72-.88.45-.85.43-1,.5-.31.14c-.44.22-.89.43-1.34.63l-.64.29-.06,0c-.66.3-1.34.6-2,.88l0,0c-.52.22-1,.44-1.55.64l-.61.25-.5.19c-.95.38-1.9.73-2.87,1.07l-.6.21q-.3.12-.6.21c-.63.22-1.27.43-1.9.63l-.14,0c-.59.2-1.18.38-1.77.55l-.37.11-.73.21-1.52.42q-.4.12-.81.21c-.53.14-1.06.28-1.58.4l-.78.19-1.42.31-.8.17c-.24.06-.49.11-.73.15l-.1,0-.64.13-.12,0-.49.09c-.36.07-.72.14-1.08.19l-.4.07-.34.06-.52.08c-.38.07-.76.12-1.13.17l-.36.06-.24,0c-.23,0-.45.07-.68.09-.6.08-1.2.16-1.79.22l-.51.05c-.51.06-1,.11-1.52.14a5,5,0,0,1-.53,0c-.38,0-.75.06-1.11.08l-.91.06h-.11l-1.36.06h-1.53l-1.54,0A71.77,71.77,0,0,1,294,121c-.81-.12-1.62-.25-2.42-.4a60,60,0,0,1-9.07-2.44c-.82-.3-1.63-.61-2.43-.94q-.6-.24-1.2-.51a50.61,50.61,0,0,1-4.66-2.33,48.75,48.75,0,0,1-8.56-6.13C252.3,96.31,246,77.44,246,59c0-.46,0-.92,0-1.38v-.1c0-.45,0-.91,0-1.36s0-.62,0-.93c0-.12,0-.25,0-.37,0-.3,0-.6.05-.9l0-.48,0-.37q.08-1.19.21-2.37l0-.27c.05-.47.1-.94.16-1.4s.12-.94.19-1.41c0-.09,0-.18,0-.26s.06-.35.08-.53.05-.32.08-.48a.5.5,0,0,1,0-.12c.05-.32.1-.63.16-.95,0-.15.05-.3.08-.44.08-.46.17-.92.26-1.37s.16-.74.23-1.1a1.31,1.31,0,0,1,.06-.27l.18-.79c.05-.19.09-.38.14-.57a.19.19,0,0,0,0-.08c.26-1.08.54-2.15.85-3.21v0c.19-.66.39-1.33.62-2,.15-.44.29-.87.44-1.3l.46-1.27a53.72,53.72,0,0,1,8.95-15.78A49.24,49.24,0,0,1,274.8,4.69,58,58,0,0,0,264.28,19a201.72,201.72,0,0,1,86.84,48,59.1,59.1,0,0,1,30.53-7.76A44.81,44.81,0,0,1,380.37,77.28Z"/><path class="cls-4" d="M259.44,17.09c-14.63-6-45.05-15.87-81-7.87-39.66,8.83-77.16,37.41-92.82,74.25-8.06,19-3.39,41.52-21.93,68.06-5.77,8.25-8.4,9.57-13.25,15.61C22.94,201.4,38.2,245.6,34.16,318.88A467.06,467.06,0,0,1,26,383.28c19-4.62,46-14.36,67.22-37.4,31.83-34.62,16.89-62.83,43-124.88,19.49-46.28,34.24-45.87,79.87-122.34C236.29,64.86,250.59,36,259.44,17.09Z"/><path class="cls-2" d="M258.31,19.16a71.35,71.35,0,0,0-34.55,8.07c-17.57,9.15-31.6,23.94-43.19,39.84-2.06,3.81-3.92,7.69-5.66,11.46a315.87,315.87,0,0,0-15.71,41.05,268.89,268.89,0,0,0-7.62,32.31,74.56,74.56,0,0,0,13.44,21c12-15.56,27.4-34.54,51.1-74.26,19.46-32.6,33.44-60.6,42.35-79.51Z"/><path class="cls-2" d="M152.55,190a182,182,0,0,0-16.3,31c-26.14,62.05-11.2,90.25-43,124.87A110.74,110.74,0,0,1,78.85,359l-1.7,1.28-1.51,1.1c-.64.46-1.28.9-1.92,1.34-.38.27-.77.53-1.15.78l-.93.61q-1.61,1.07-3.21,2c-15,9.2-30.37,14.21-42.43,17.15a467.17,467.17,0,0,0,8.16-64.41c4-73.28-11.22-117.48,16.28-151.73,4.85-6,7.48-7.36,13.25-15.61C82.23,125,77.56,102.45,85.62,83.47a107.65,107.65,0,0,1,8.31-15.74,183.51,183.51,0,0,0-6.36,22.81c-5.16,24.24-2.43,33.2-5.8,49.24-5.6,26.77-18.48,27.16-28.24,51.42-13,32.24,2.8,48.91,2.9,105.72,0,16.84.24,27.36-5.68,54.86,5.59-.13,16.17-3.94,23.77-8.15a285.69,285.69,0,0,0,14.76-39.12c8.4-27.62,8.3-50.56,19.2-77.44,5.81-14.35,14-28,26-38C140.53,189.23,146.54,189.88,152.55,190Z"/><path class="cls-4" d="M106.34,356.84a208.2,208.2,0,0,0,7.75-33.64,220.93,220.93,0,0,0,.84-54.27c-3.36-39.59,4.12-82.49,11.79-105.65,5.91-17.86,22.92-57.2,77.83-90.95C219,149.68,210.36,209,202.86,242.26c-15.05,66.67-38.71,87.3-47.11,93.85C137.74,350.16,118.76,355,106.34,356.84Z"/><path class="cls-2" d="M202.86,242.26c-15.05,66.66-38.72,87.3-47.11,93.85-2,1.53-3.94,2.94-5.91,4.26h0c-.5.34-1,.67-1.51,1-.69.44-1.38.86-2.07,1.28a98.13,98.13,0,0,1-9.27,5c-2.18,1-4.33,1.95-6.44,2.78l-1.06.41-1,.39s0,0,0,0c-.7.26-1.39.5-2.07.73-1,.33-1.9.64-2.83.94s-1.86.57-2.77.83l-.63.18c-.58.16-1.15.32-1.71.46a115.35,115.35,0,0,1-12.08,2.48,208.46,208.46,0,0,0,7.75-33.64,221,221,0,0,0,.84-54.28c-3.36-39.58,4.12-82.48,11.79-105.64.41-1.21.85-2.52,1.37-3.93.07-.2.14-.4.22-.6a0,0,0,0,1,0,0l.09-.23v0c5.09-13.63,15.69-35.25,38.92-57.62A186.11,186.11,0,0,0,155.13,122c-7.9,16.77-11.87,35.16-14.3,53.44a278.64,278.64,0,0,0-1.35,58.1c1.48,19.43,3.74,38.78,4.33,58.27.5,16.58.9,26.69-3.33,42.66,2.43-.72,5.75-2.67,8.14-3.94,4.75-10.12,6.15-9.68,10-20.21a241.6,241.6,0,0,0,13.95-68.18c2.25-38.55-1.37-78,8.17-115.83,4.32-17.1,11.86-33.8,25.39-45.21C218.34,154.17,210.08,210.26,202.86,242.26Z"/><path class="cls-4" d="M346.06,366.41c-18.21-6.51-43.79-19-59.85-44.17-29.62-46.47-1.26-96.13-5.4-183.65-1.36-28.78-6.64-70.21-25.19-120.07,51,12.31,73.74,35.9,84.05,49.83C392.68,139.94,356.4,278,350,298a129.85,129.85,0,0,0-6.72,47.6A124.63,124.63,0,0,0,346.06,366.41Z"/><path class="cls-2" d="M367,204.15c-.05.71-.11,1.41-.16,2.12-.12,1.4-.24,2.81-.36,4.2s-.25,2.78-.39,4.16-.27,2.64-.41,4c-.08.73-.16,1.46-.25,2.19-.16,1.35-.31,2.7-.48,4-.07.67-.16,1.33-.25,2l-.21,1.63c0,.42-.1.83-.16,1.25-.14,1-.27,2-.41,3-.18,1.29-.37,2.57-.56,3.84-.22,1.55-.46,3.09-.7,4.6-.15,1-.31,1.92-.46,2.86-.2,1.22-.41,2.42-.61,3.62s-.41,2.37-.62,3.53c-.1.58-.21,1.16-.31,1.73s-.21,1.15-.32,1.71c-.32,1.7-.64,3.37-1,5,0,.13,0,.25-.07.38-.26,1.3-.52,2.57-.77,3.82-1.11,5.4-2.23,10.34-3.28,14.72l-.3,1.25c-1.3,5.37-2.5,9.84-3.47,13.24-.14.52-.29,1-.43,1.49-.08.29-.16.56-.24.82s-.15.52-.23.76c-.22.74-.42,1.38-.6,1.94a129.81,129.81,0,0,0-6.72,47.6,124.48,124.48,0,0,0,2.81,20.81c-18.21-6.5-43.79-19-59.85-44.17-1-1.53-1.89-3.07-2.75-4.62-.57-1-1.11-2.05-1.63-3.09q-1.15-2.32-2.16-4.66t-1.83-4.71c-.37-1-.72-2.11-1-3.17q-.74-2.37-1.33-4.79a115,115,0,0,1-2.9-29.58v-.21c0-.92.05-1.85.08-2.78s.06-1.77.1-2.66c0-.37,0-.74.05-1.11.14-2.7.33-5.44.55-8.22.42-5.12,1-10.39,1.57-15.85.12-1.09.25-2.19.38-3.29q.38-3.21.75-6.51l0-.22c.21-1.78.43-3.59.64-5.41l.33-2.89q.33-2.82.66-5.72c.21-2,.44-4.05.65-6.12s.42-4,.62-6.08c.09-1,.19-2.11.29-3.17s.2-2.22.29-3.34c.17-2.06.34-4.15.49-6.26.09-1.09.16-2.18.23-3.28s.15-2.21.21-3.32a398.28,398.28,0,0,0,.33-42.58c-1.31-27.63-6.23-66.9-23-114.09,23,15.15,38.81,40.54,51.34,64.44q5.24,10,9.66,20.3a118.89,118.89,0,0,1,23.54-37.13C366.75,108.19,370.33,159.38,367,204.15Z"/><path class="cls-4" d="M168.31,353.47a179.53,179.53,0,0,0,63-29.25c62.47-45.9,84.71-127.92,76.5-194.63-6-48.89-31.82-90.53-48.37-112.5C221.55,30.54,207.23,54.88,197.56,70c-32.67,51-.17,105.43-14.62,214.31A464.33,464.33,0,0,1,168.31,353.47Z"/><path class="cls-2" d="M287.06,256.16c-12.72,26.2-31.1,49.94-55.75,68.06a174,174,0,0,1-37.47,20.91l-3,1.2c-1.37.53-2.73,1-4.05,1.52L183.4,349l-.13.05c-1.06.36-2.11.7-3.14,1s-2.12.67-3.16,1l-1.53.45-3,.84-1.42.38-2.75.71c.38-1.29.76-2.64,1.16-4,.13-.46.27-.94.4-1.42,1.61-5.75,3.34-12.37,5.06-19.77,2.92-12.57,5.81-27.37,8-44,13.22-99.62-12.85-153.66,7.63-201.18-.12,1-.24,2-.35,3.05-1.91,18.1-1.33,36.91-.5,55.06,1.24,27.12,5,54,8.34,81a394,394,0,0,1,2.32,76.3q-.81,11.26-2.36,22.42a205.31,205.31,0,0,0,31-14.75C251.14,293.17,270,275.24,287.06,256.16Z"/><path class="cls-4" d="M447.87,382.72c-16.7-.82-46.16-5-70.87-25.88-23.43-19.83-30-45.18-42.19-95.06-7.06-28.9-17.7-83.5-6.19-142.87,3.77-19.44,9.54-37.44,25.32-48.38,2.08-1.44,18.7-13,34.18-8.65C428.1,73,430.3,181.33,430.44,192c.71,55.85-12.69,71.56-5.07,120.38A243.8,243.8,0,0,0,447.87,382.72Z"/><path class="cls-2" d="M447.87,382.72c-16.7-.82-46.16-5-70.87-25.88-23.43-19.84-30-45.18-42.19-95.06C328.06,234.14,318,183,327.24,126.66c-4.27,50.05-.72,135.08,57.95,202.85a235.22,235.22,0,0,0,61.13,50C446.85,380.64,447.36,381.7,447.87,382.72Z"/></g></svg>