<svg xmlns="http://www.w3.org/2000/svg" viewBox="0 0 377.55 428.26"><defs><style>.cls-1{fill:#491b44;}.cls-2{fill:#e0792d;}.cls-3{fill:#ee8434;}.cls-4{fill:#843b62;}</style></defs><g id="Layer_7" data-name="Layer 7"><path class="cls-1" d="M278.39,272.66a1.24,1.24,0,0,1,0,.27c-.39,3.3-6.15,4.6-13.91,6.32l-.95.22-4.92,1.13-.47.11c-10.14,2.47-21.88,6.42-29.64,15.83-12.17,14.78-10.55,36.14-8.29,61.69,3.25,36.74,15,52.54,5.45,63-2.61,2.84-6.06,4.49-10.25,5.46l-.76.17c-.83.17-1.68.32-2.56.45l-1.07.14-.67.08-1,.11-.7.06-1.22.1c-1.27.09-2.58.16-3.94.21l-2.58.08c-1.82.05-3.71.08-5.67.11-13.67.21-25.74.39-32.58-6.69-10.5-10.87,2.35-27.42,2.43-64.17,0-20.33.09-46.2-16-60.79a42.93,42.93,0,0,0-12.6-7.74c-.77-.32-1.55-.62-2.33-.89l-1.56-.54c-1.73-.57-3.46-1.06-5.17-1.49l-1.49-.36-.14,0-1.34-.3c-.55-.12-1.09-.24-1.63-.34-.88-.18-1.75-.36-2.6-.51l-2.52-.45-1.61-.28c-3.09-.54-5.86-1-8.1-1.61-.4-.1-.78-.21-1.15-.33l-.53-.18-.5-.18c-.34-.13-.65-.27-1-.41l-.39-.2a6.86,6.86,0,0,1-.8-.51c-.17-.13-.33-.27-.47-.4a.46.46,0,0,0-.07-.07c-.09-.09-.17-.19-.25-.28l-.21-.3a2.88,2.88,0,0,1-.3-.61s0,0,0,0a1.68,1.68,0,0,1-.09-.32,2.25,2.25,0,0,1-.06-.36c-.43-4.12,6.86-8.05,10.23-9.78q1.32-.67,2.67-1.32c.9-.43,1.82-.85,2.74-1.27s2-.88,3-1.31l2.39-1,.21-.08c20.77-8.25,45.55-12.29,70.38-12.29,25.83,0,51.7,4.37,73.13,12.94C270.31,265.05,278.52,268.48,278.39,272.66Z"/><path class="cls-2" d="M316,56.51C299.34,32.57,265.18,5.23,236.8,9.83L236,10c-.55.1-1.09.21-1.63.34l-.21,0c-.51.12-1,.25-1.53.4l-.9.26c-.53.16-1.06.34-1.58.53h0l0,0c-24.67-15.08-60.66-15.84-85.3.4h0c-.44-.15-.89-.28-1.33-.41l-1.35-.38C113.56,3.73,79.73,26.86,61.5,50.24c-.32.7-.66,1.46-1,2.28-.24.56-.49,1.15-.74,1.77-.42,0-.84,0-1.25,0-21.22.31-42.79,30.73-52.77,67a.65.65,0,0,1,0,.13c-.44,1.6-.85,3.22-1.25,4.85-.2.83-.4,1.67-.59,2.51s-.37,1.68-.55,2.52q-.52,2.53-1,5.08c-.3,1.7-.57,3.41-.82,5.11S1,144.87.85,146.59.51,150,.38,151.72c-.32,4.37-.45,8.73-.35,13.05,0,1,.05,2,.1,3a115.41,115.41,0,0,0,1.49,13.72A130.42,130.42,0,0,0,9.72,210l.06.14a117.19,117.19,0,0,0,21.78,34.45C37.44,251,69.15,285.65,101.4,278l-.77.16-.1-.12,1.61-.21h0c3.09-.42,8.62-1.14,20.4-2.2a944.5,944.5,0,0,1,131.57-2c12.26.7,18.64,1.33,22.88,1.57a29,29,0,0,0,11.14,1.17c.68-.06,1.35-.13,2-.23.88-.13,1.75-.28,2.61-.47l1.12-.25,1.19-.31h0l1.16-.34,1.17-.37,1.16-.4c.77-.28,1.53-.58,2.29-.89l1.13-.48c.75-.33,1.49-.67,2.22-1,11.19-5.44,20.33-13.92,23.74-17.09,21.23-19.72,29.56-45.36,32.93-63.22a112.21,112.21,0,0,0,2.29-18.14l0-.53a1.93,1.93,0,0,0,0-.24C366.43,121.17,342.42,57.45,316,56.51ZM104.72,93s0,0,0,0a0,0,0,0,0,0,0s0,0,0,0Zm34.22,136.29a0,0,0,0,1,0,0h0Zm61.82,3.11-.28-.42.29.42Z"/></g><g id="Layer_4" data-name="Layer 4"><path class="cls-3" d="M122.59,275.6c-24.77,2.22-21.93,2.95-26.78,2.53C55.53,274.66,17.89,237.59,5.52,199-13,141.35,26.83,82.68,58.5,54.26,127.12-7.3,250.49-9.93,316,56.5c35.23,35.75,60.34,98.25,40.3,150.74C346.79,232,322.48,267.07,287,274.48c-7.37,1.55-8.45.48-32.86-.92A944.36,944.36,0,0,0,122.59,275.6Z"/><path class="cls-3" d="M259.45,260.94C230,218.45,273.07,55,316,56.5c26.51,1,50.56,64.86,47.3,116-.69,10.92-4,52.84-35.25,81.89-6,5.57-29.56,27.44-51,20.7C267.13,272,261.52,263.92,259.45,260.94Z"/><path class="cls-4" d="M102.17,277.79c.83,7.95,29.29,2.83,46.87,18.75,16.12,14.59,16.06,40.46,16,60.79-.08,36.75-12.93,53.29-2.43,64.16,6.84,7.09,18.91,6.91,32.59,6.7s24.36-.37,30.41-7c9.56-10.45-2.2-26.25-5.45-63-2.26-25.55-3.88-46.91,8.3-61.69,16.17-19.63,49.64-15.48,49.91-23.88.13-4.18-8.08-7.61-11.44-9-45.83-18.32-112-17.48-154.56,4.31C109,269.74,101.73,273.68,102.17,277.79Z"/><path class="cls-1" d="M145.75,285.09a67.26,67.26,0,0,1,11.82-2.53c9-1.15,15-.52,21.12-.43,17.69.25,17.09-4.4,30.63-3.49,12.93.87,13.13,5.09,26.43,5.32,7.37.13,12.66-1.07,22.7-3.34,11.25-2.55,19.83-4.41,19.94-8,.13-4.18-8.08-7.61-11.44-9-45.83-18.32-112-17.48-154.56,4.31-3.37,1.72-10.66,5.66-10.22,9.77.65,6.22,18.23,4.44,34.27,11A66.37,66.37,0,0,1,145.75,285.09Z"/><path class="cls-1" d="M197.29,425.43c-4.95-.52-16-2.36-20.32-5.06-10.34-6.48-2.31-30.69.28-65.25,2.48-33.05,4.59-61.2-10.19-71.31-12.43-8.5-32.78-1.3-41.18-14.94a21.21,21.21,0,0,1-2.45-5.82c-3.82,1.52-7.51,3.17-11,5-3.37,1.72-10.66,5.66-10.22,9.77.83,7.95,29.29,2.83,46.87,18.75,16.12,14.59,16.06,40.46,16,60.79-.08,36.75-12.93,53.29-2.43,64.16,6.84,7.09,18.91,6.91,32.59,6.7,7.82-.12,14.63-.23,20.16-1.51-1.86-.08-4.53-.2-7.75-.41C202.63,426,198.58,425.57,197.29,425.43Z"/></g><g id="Layer_5" data-name="Layer 5"><path class="cls-2" d="M267,269.51c.67-.23,1.71-.58,3-.89,3.1-.74,20.68-14.55,28.72-22.63,4.27-4.28,14.51-15.29,24.75-38,18.67-41.35,17.55-77.67,16.86-93.89a113.71,113.71,0,0,0-9.83-38.58C328.07,70.27,324.82,65,319,61.15a28.78,28.78,0,0,0-8.82-3.87c-40.83,12.16-78.87,163.08-50.72,203.66A42,42,0,0,0,267,269.51Z"/><path class="cls-2" d="M296.33,269.94c-34.57-9.67-31.07-51.63-29.6-79.89,1-19.66,2.42-39.07,5.74-58.5a415.88,415.88,0,0,1,11.26-47.78c-28.17,48.06-46.09,145.73-24.28,177.17,2.07,3,7.68,11.07,17.59,14.19,9.2,2.89,18.79.5,27.23-3.61A55.23,55.23,0,0,1,296.33,269.94Z"/><path class="cls-3" d="M58.5,54.26C28.45,54.71-2.31,115.55.14,167.8c.37,7.92,2.9,45.62,31.43,76.79,5.93,6.48,38.09,41.61,70.6,33.2,13.71-3.54,22-13.41,24-15.8C167.6,212.59,107.4,53.54,58.5,54.26Z"/><path class="cls-2" d="M67.09,55.73c-.06.07-.12.15-.19.22-3.46,3.76-7,7.5-10.27,11.39A66.53,66.53,0,0,0,49,77.84c-5.23,8.65-7.91,16-10.4,26-1.13,4.53-2,9.11-2.84,13.71-.18,1-.34,2.05-.49,3.08,0,.25-.06.55-.1.93-.19,1.92-.37,3.84-.5,5.77a156.06,156.06,0,0,0,.5,26s.22,2,.31,2.83c.08.59.3,2.15.32,2.33q.47,3,1,5.88,1.18,6.27,2.82,12.46,1.72,6.56,3.92,13c.64,1.85,1.3,3.7,2,5.53.14.37,1.72,4.27,1.72,4.34,12.81,29.73,32.93,54.14,53.33,78.42.51-.11,1-.2,1.53-.34,13.71-3.54,22-13.41,24-15.8C165.2,215.45,114,71.63,67.09,55.73Z"/><path class="cls-2" d="M112.54,248.46C91.29,260.44,66,251.32,48.42,237c-18.47-15.07-31.15-38-38-60.57-5.49-18.12-6-36.64-4.7-55.19A151.24,151.24,0,0,0,.14,167.8c.37,7.92,2.9,45.62,31.43,76.79,5.93,6.48,38.09,41.61,70.6,33.2,13.71-3.54,22-13.41,24-15.8,10.14-12.08,14.19-30.73,13.82-52C134.93,225.15,126.72,240.46,112.54,248.46Z"/><path class="cls-3" d="M230.08,11.57C259.57.81,298,30.64,316,56.5c49.45,71.27-.5,193.43-56.5,204.44-18.83,3.71-34.83-5.85-39.1-8.62C155,210,171.84,32.81,230.08,11.57Z"/><path class="cls-2" d="M235.7,259.46c3.06-2.93,6-6,8.81-9.17q1.73-2,3.38-4l1.3-1.61c1.65-2.15,3.22-4.37,4.74-6.62a165.21,165.21,0,0,0,9.21-15.48q2.12-4.05,4-8.2c.43-.93.85-1.86,1.26-2.8l.44-1c.09-.25.22-.59.4-1,2.06-5.26,3.94-10.54,5.53-16,1.93-6.57,3.56-13.24,4.9-20,1.16-5.79,2-11.26,2.57-16.12a227.21,227.21,0,0,0,1.17-36.15,252.2,252.2,0,0,0-5.25-39.48c-2-9.48-3.78-18-8-29-4.89-12.91-10.1-26.17-22.92-36.43A58.08,58.08,0,0,0,236.8,9.82a36.13,36.13,0,0,0-6.72,1.75C171.84,32.81,155,210,220.35,252.32A61.94,61.94,0,0,0,235.7,259.46Z"/><path class="cls-2" d="M279.18,251c-10.81,1.24-21.77-1.92-31.26-7-55.74-29.74-68.21-97.91-64.23-155.83-12.68,60.49-3.66,138,36.66,164.09,4.27,2.77,20.27,12.33,39.1,8.62,7.6-1.49,15.09-5.05,22.23-10.24C280.86,250.83,280,251,279.18,251Z"/><path class="cls-3" d="M144.74,12C114.1,1.72,76.35,28.87,58.5,54.26,8.71,125.09,65.13,251.49,126.16,262c21.73,3.74,39.21-8.05,41.61-9.72C230.9,208.31,207.66,33,144.74,12Z"/><path class="cls-2" d="M144.74,12c-.89-.3-1.79-.56-2.69-.79-6.76,7.39-13.42,14.9-19.56,22.82-.16.23-1.36,1.82-1.6,2.15-.57.77-1.13,1.54-1.69,2.32-1.66,2.3-3.27,4.65-4.82,7-2.81,4.31-5.44,8.76-7.81,13.33-1.19,2.29-2.32,4.62-3.39,7-.18.42-.72,1.72-.82,1.94q-.33.8-.63,1.59a134.32,134.32,0,0,0-4.51,14c-3.06,11.58-3.78,18.25-4.62,29.81a272.1,272.1,0,0,0-.33,34.74,193.32,193.32,0,0,0,4.16,32.26A228.17,228.17,0,0,0,105.86,212q1.33,3.61,2.77,7.2c.19.48.39,1,.58,1.43s.51,1.21.66,1.55c1.76,3.86,3.55,7.69,5.57,11.43a110.91,110.91,0,0,0,7,11.39c.2.28,1.78,2.3,1.6,2.12.28.34.55.68.84,1,1.41,1.65,2.9,3.25,4.46,4.77.94.91,1.89,1.79,2.88,2.64l1.49,1.18,1.58,1.09c.72.47,1.46.93,2.21,1.37.94.55,1.92,1,2.87,1.56.31.17,1,.48,1.44.67l1.76.6a62.28,62.28,0,0,0,24.18-9.7C230.9,208.31,207.66,33,144.74,12Z"/><path class="cls-2" d="M119.51,233.67c-43.23-13-56.3-67.11-63.64-97.48-9.12-37.73-2-64.08-.21-70.2A117.32,117.32,0,0,1,61.5,50.23c-1,1.35-2.06,2.69-3,4C8.71,125.09,65.13,251.49,126.16,262c21.73,3.74,39.21-8.05,41.61-9.72,11.27-7.85,19.77-19.9,25.8-34.5C183.4,224.55,152,243.46,119.51,233.67Z"/><path class="cls-3" d="M144.74,12c24.65-16.25,60.67-15.49,85.34-.38,70.66,43.25,57,209.47-9.73,240.75-24.91,11.68-49.93,1.12-52.58,0C96.81,221,78.43,55.67,144.74,12Z"/><path class="cls-2" d="M242.85,225.87c-25.76,14.37-54.48,7.83-76.27-10.47-19.81-16.63-32.22-42-38.89-66.53-7.9-29.05-6.9-58.57-1-87.9,3.13-15.66,6.82-31.12,14.92-45,.6-1,1.22-2.05,1.85-3.06-64.75,45-46.16,208.33,24.33,239.41,2.65,1.17,27.67,11.73,52.58,0,13.84-6.5,25.39-18.82,34.39-34.63A79.09,79.09,0,0,1,242.85,225.87Z"/></g></svg>