<svg xmlns="http://www.w3.org/2000/svg" viewBox="0 0 421.64 478.3"><defs><style>.cls-1{fill:#ddda9e;}.cls-2{fill:#a688bf;}.cls-3{fill:#fcf6bd;}.cls-4{fill:#d8cd7d;}.cls-5{fill:#f7f6c5;}.cls-6{fill:#c9a0dc;}</style></defs><g id="Layer_4" data-name="Layer 4"><path class="cls-1" d="M243.82,460.75c-7.11,14.46-26.31,16.94-42.42,17.52-11.06.41-24.27-.28-30.05-9.72-3.36-5.48-3-12.37-2.63-18.79q.32-4.92.64-9.85l5.46-84,5.46-84,5.46-84,5.46-84,2.73-42c.14-2.16-.28-5.37.55-7.42s3.84-2.87,5.78-3.72c5.92-2.56,12.14-4.73,18.64-5.1,9-.51,18.81,3.17,22.94,11.16,2.55,4.91,2.64,10.68,2.67,16.21l2.34,367.17C246.9,447.31,246.88,454.53,243.82,460.75Z"/><path class="cls-2" d="M199.84,221.74a12.13,12.13,0,0,1-5.73,7.53,32,32,0,0,1-9.07,3.44,196.43,196.43,0,0,1-70.85,5c-6.06-.68-12.25-1.7-17.56-4.72s-9.61-8.44-9.75-14.54c-.13-5.69,3.39-11,8-14.31s10.24-4.94,15.8-6.13l2.14-.43a127.55,127.55,0,0,1,18-2.23,131.39,131.39,0,0,1,35.9,3q4.4,1,8.72,2.27a54.85,54.85,0,0,1,7.79,2.72c1.63.77,3.11,1.41,4.71,2.24a37.55,37.55,0,0,1,7.29,4.78C198.45,213.18,200.7,217.54,199.84,221.74Z"/><path class="cls-2" d="M238,61c-6.66.62-11.57,1-17.92,1.43-13.88,1-20.82,1.49-22.26,1.56-7.46.35-14.93.5-22.4.33-21.42-.5-43-3.69-62.81-11.83-5.06-2.08-10.07-4.54-14.06-8.28s-6.87-9-6.74-14.43c.14-5.71,3.54-11,8-14.54s9.92-5.64,15.37-7.36c.88-.28,1.76-.55,2.64-.8l1.36-.4.65-.18c27.05-7.63,55.85-7.82,83.75-4.05,29.8,4,58.66,12.41,86.8,20.54,3.88,1.12,7.82,2.27,11.21,4.47A14.37,14.37,0,0,1,308,36c0,.17.08.35.11.52s.06.36.08.54c.6,5.24-3,10.24-7.53,12.92s-9.9,3.51-15.11,4.3l-2.55.38L260.8,58c-8.06,1.21-8.31,1.3-11,1.66S243.59,60.42,238,61Z"/><path class="cls-2" d="M409.46,149.82c-23.65,11.28-47.73,16.79-73.86,18.88s-48.69,1.81-74.88.71c-6.44-.27-18.74-3.41-24.84-5.5s-11.8-6.27-14.18-12.26c-2.77-7-.46-15.23,4.24-21.08s11.46-9.7,18.33-12.75c20.82-9.26,44-12.41,66.74-12.2s45.41,3.65,67.94,7.09l-11.33-2.3A157,157,0,0,1,410,122.07c5.21,2.26,11,5.7,11.61,11.34C422.35,140.11,415.55,146.92,409.46,149.82Z"/></g><g id="plant_2" data-name="plant 2"><path class="cls-3" d="M168.72,449.76c-.42,6.42-.73,13.31,2.63,18.79,5.78,9.44,19,10.13,30.06,9.72,16.1-.58,35.3-3.06,42.41-17.52,3.06-6.22,3.08-13.44,3-20.38L244.51,73.2c0-5.53-.12-11.3-2.67-16.21-4.13-8-14-11.67-22.94-11.16-6.5.37-12.72,2.54-18.64,5.1-1.94.85-4.9,1.57-5.78,3.72s-.41,5.26-.55,7.42l-2.73,42-5.46,84-5.46,84-5.46,84-5.46,84Z"/><path class="cls-4" d="M168.81,448.39l-.09,1.37c0-.45.05-.91.08-1.37Z"/><path class="cls-5" d="M170.56,467.11a15.53,15.53,0,0,1-.9-2.25A18.2,18.2,0,0,0,170.56,467.11Z"/><path class="cls-5" d="M172.91,470.69a16.72,16.72,0,0,1-1.57-2.13,14.37,14.37,0,0,1-.78-1.44c.24.49.5,1,.79,1.43A17,17,0,0,0,172.91,470.69Z"/><path class="cls-5" d="M177.44,474.42a18.63,18.63,0,0,1-2-1.37A20.17,20.17,0,0,0,177.44,474.42Z"/><path class="cls-5" d="M181.5,476.26l-.53-.19-.15-.06Z"/><path class="cls-5" d="M194,478.3a32,32,0,0,1-12.45-2A43.22,43.22,0,0,0,194,478.3Z"/><path class="cls-1" d="M194.68,459.64h0a17.71,17.71,0,0,0,2.39,6.3c4.73,7.65,13.26,8.88,21.53,8.18a57.75,57.75,0,0,0,17-4c-9.14,6.29-22.45,7.74-34.15,8.16-2.41.09-4.92.13-7.43,0h0a43.22,43.22,0,0,1-12.45-2l-.68-.25-.15-.06c-.53-.2-1-.42-1.55-.65l-.31-.15c-.44-.22-.86-.44-1.28-.68l-.09-.05a20.17,20.17,0,0,1-2-1.37c-.45-.35-.88-.72-1.3-1.11-.21-.2-.41-.4-.61-.61s-.39-.42-.58-.64a17,17,0,0,1-1.56-2.14c-.29-.47-.55-.94-.79-1.43h0a18.2,18.2,0,0,1-.9-2.25,18.74,18.74,0,0,1-.62-2.37c-.1-.53-.19-1.06-.27-1.6a57.37,57.37,0,0,1-.05-11.12h0l.09-1.37c.18-2.83.36-5.65.55-8.49q2.73-42,5.46-83.95t5.45-84q2.73-42,5.47-84t5.47-84q1.35-21,2.71-42c.16-2.15-.27-5.37.57-7.42s3.83-2.87,5.77-3.72c5.92-2.57,12.14-4.72,18.64-5.1,9-.51,18.81,3.17,22.94,11.16a25.23,25.23,0,0,1,2.48,9.77,35.59,35.59,0,0,0-5.53,2.38c-13.37,7.11-22.21,7.53-26.67,22s-5.07,43.15-5.65,58.28Q200.53,304.54,194.68,459.64Z"/><path class="cls-1" d="M226.3,164c4.55,7.61,11.54,12.07,18.88,16.41q-.1-16.1-.21-32.21a69.49,69.49,0,0,0-23.46-4.73,6.27,6.27,0,0,0-.79,1.49C221.43,151.64,222.85,158.26,226.3,164Z"/><path class="cls-6" d="M285.58,54.28c5.21-.79,10.57-1.62,15.11-4.3s8.13-7.68,7.53-12.92c-.46-4-3.27-7.45-6.66-9.65s-7.33-3.35-11.21-4.47c-28.14-8.13-57-16.5-86.8-20.54-29.5-4-60-3.54-88.4,5.43-5.45,1.72-10.9,3.8-15.37,7.36s-7.87,8.83-8,14.54c-.13,5.47,2.75,10.69,6.74,14.43s9,6.2,14.06,8.28c19.82,8.14,41.39,11.33,62.81,11.83,7.47.17,14.94,0,22.4-.33,1.44-.07,8.38-.56,22.26-1.56,6.35-.45,11.26-.81,17.92-1.43,5.63-.53,9-.92,11.82-1.29s3-.45,11-1.66L283,54.66Z"/><path class="cls-2" d="M307.73,35a25.42,25.42,0,0,1-10.59,10.58,38,38,0,0,1-24.39,3.75c-1.87.07-3.67.08-5.35.06-19-.22-37.84-3.31-56.85-3-10.72.18-21.2,2.47-31.88,2.94-8,.35-15.93-.8-23.79-1.92-14.9-2.11-30.58-5.7-39.82-18.55-4.75-6.61-1.57-18.44,5.75-21.93,1-.48,2-1,3-1.51-2.9.73-5.8,1.53-8.67,2.44-5.45,1.72-10.9,3.8-15.37,7.36s-7.87,8.83-8,14.54c-.13,5.47,2.75,10.69,6.74,14.43s9,6.2,14.06,8.28c19.82,8.14,41.39,11.33,62.81,11.82,7.47.18,14.94,0,22.4-.32,1.44-.07,8.38-.56,22.26-1.56,6.35-.45,11.26-.81,17.92-1.43,5.63-.53,9-.92,11.82-1.29s3-.45,11-1.66L283,54.66l2.55-.38c5.21-.79,10.57-1.62,15.11-4.3s8.13-7.68,7.53-12.92A10,10,0,0,0,307.73,35Z"/><path class="cls-6" d="M379,112.71c-22.53-3.44-45.15-6.88-67.94-7.09s-45.92,2.94-66.74,12.19c-6.87,3.06-13.62,6.9-18.33,12.76s-7,14.09-4.24,21.08c2.38,6,8.08,10.17,14.18,12.26s18.4,5.23,24.84,5.5c26.19,1.1,48.75,1.38,74.88-.71s50.21-7.6,73.86-18.88c6.09-2.9,12.89-9.71,12.12-16.41-.65-5.64-6.4-9.08-11.61-11.34a157,157,0,0,0-42.35-11.66"/><path class="cls-2" d="M401,147.31c-31.56,9.35-67.41,10.67-98.64,12.39a87.85,87.85,0,0,1-14.23-.41c-11.17-1.2-25.32-.76-37.09-4.32-12.19-3.69-21-16.37-13.47-28.63,2.79-4.53,6.83-7,11.28-8.81.7-.83,1.44-1.62,2.21-2.39,0,0,0-.06,0-.08-2.29.85-4.55,1.76-6.78,2.75-6.87,3.06-13.62,6.9-18.33,12.76s-7,14.09-4.24,21.08c2.38,6,8.08,10.17,14.18,12.26s18.4,5.23,24.84,5.5c26.19,1.1,48.75,1.38,74.88-.71s50.21-7.6,73.86-18.88c4.6-2.19,9.59-6.61,11.44-11.52C415.18,142.67,407.84,145.29,401,147.31Z"/><path class="cls-6" d="M110.7,198c-5.56,1.19-11.18,2.81-15.8,6.13s-8.15,8.62-8,14.31C87,224.54,91.33,230,96.63,233s11.5,4,17.56,4.72a196.43,196.43,0,0,0,70.85-5,32,32,0,0,0,9.07-3.44,12.13,12.13,0,0,0,5.73-7.53c.86-4.2-1.39-8.56-4.63-11.37a37.55,37.55,0,0,0-7.29-4.78c-1.6-.83-3.08-1.47-4.71-2.24a54.42,54.42,0,0,0-7.79-2.72q-4.32-1.29-8.72-2.28a131.91,131.91,0,0,0-35.9-3,127.55,127.55,0,0,0-18,2.23Z"/><path class="cls-2" d="M197.41,212.73a15.33,15.33,0,0,1-8.07,12.47c-10.1,5.59-24.85,2.59-35.64,1-6.75-1-13.38-.74-20.2-.78-8.29,0-17.89,1.07-25.75-2-7.65-3-13.18-13.91-5.38-20.41a37.91,37.91,0,0,1,7.2-4.7c-5.19,1.17-10.36,2.77-14.67,5.87-4.63,3.31-8.15,8.62-8,14.31C87,224.54,91.33,230,96.63,233s11.5,4,17.56,4.72a196.43,196.43,0,0,0,70.85-5,32,32,0,0,0,9.07-3.44,12.13,12.13,0,0,0,5.73-7.53A11.36,11.36,0,0,0,197.41,212.73Z"/></g></svg>