<svg xmlns="http://www.w3.org/2000/svg" viewBox="0 0 428.79 435.48"><defs><style>.cls-1{fill:#baa890;}.cls-2{fill:#47894f;}.cls-3{fill:#d4c2ab;}.cls-4{fill:#5ca360;}</style></defs><g id="Layer_6" data-name="Layer 6"><path class="cls-1" d="M320.59,91.05v0c0,.14,0,.29,0,.44a8.41,8.41,0,0,1-.29,1.52c0,.17-.11.35-.17.54s-.13.36-.21.55,0,.07,0,.11c-.14.34-.3.69-.47,1l-.32.62c-.19.35-.39.71-.62,1.07l-.29.46q-.33.5-.69,1c-.16.21-.31.42-.48.63l-.2.25-.38.46c-.13.15-.26.31-.4.46l-.83.9a25.2,25.2,0,0,1-4.39,3.61q-.42.27-.84.51a19.5,19.5,0,0,1-2.19,1.1,4.37,4.37,0,0,1-.46.18c-.21.09-.43.17-.64.24L306,107l-.31.09q-.72.21-1.44.36h0l-.63.12-.64.1-.64.08-.82.08-.83,0q-.42,0-.84,0c-.4,0-.8,0-1.2,0h-.12c-.52,0-1.05,0-1.58-.05l-1.19-.06-1.47-.1-2.75-.18-1.81-.11c-1.05-.05-2.14-.08-3.26-.08A47.26,47.26,0,0,0,270.57,110c-9.13,3.15-11.91,6.83-12.65,7.88a13.82,13.82,0,0,0-.85,1.35,4.77,4.77,0,0,0-.24.44c-.08.15-.16.3-.23.45s-.26.55-.38.83c-3.2,7.57-.65,16.54.26,19.88,20.47,74.73,23.36,243,20.56,272.55,0,.32-.07.7-.12,1.13s-.11.76-.18,1.19a18.26,18.26,0,0,1-.48,2.07c-.05.2-.11.41-.18.62-.14.42-.29.85-.46,1.29l-.28.67c-.17.4-.37.81-.58,1.23-.15.27-.3.55-.46.82-4.25,7.23-14.15,13.1-59.88,13.1-56.83,0-65-9.06-67.88-14.25a22,22,0,0,1-2.62-9.75C142.4,386,140,220.23,162.86,146c1.29-4.2,6-16.4.93-28.12-3-6.87-7.8-10.2-13.12-15-1.8-1.62-3.76-3.5-5.81-5.67q-.57-.6-1.14-1.23c-.37-.39-.73-.8-1.1-1.21-1.33-1.5-2.7-3.12-4.07-4.87-.52-.65-1-1.32-1.55-2-.82-1.09-1.65-2.22-2.48-3.4l-.82-1.19-.83-1.23q-1.25-1.86-2.49-3.89c-.28-.44-.56-.9-.83-1.36s-.4-.66-.59-1c-.35-.6-.71-1.21-1.06-1.83s-.83-1.47-1.23-2.23c-.21-.37-.41-.75-.61-1.13s-.41-.76-.61-1.15L151,65c.19.53.4,1.08.63,1.67l.21.56a65.58,65.58,0,0,0,3.87,8q.74,1.31,1.59,2.64a62,62,0,0,0,5.14,6.93q1.49,1.72,3.19,3.44c3.48,3.48,9.41,8.53,14.47,11.18.52.27,1,.52,1.53.74h0a6.38,6.38,0,0,0,.74.3,6.21,6.21,0,0,0,.64.23l.2.07c.19.06.38.12.56.16l.54.13.78.12.58,0a3.52,3.52,0,0,0,2.07-.58c5.09-3.56-7.43-19.41-1.5-36.75.31-.92.7-1.91,1.09-3,.08-.21.15-.43.23-.65.15-.44.3-.9.44-1.37.07-.21.13-.42.19-.64.17-.62.32-1.27.45-1.94a.59.59,0,0,0,0-.13c0-.26.09-.52.13-.79s.07-.48.09-.73c0-.4.08-.8.1-1.22s0-.67,0-1a20.45,20.45,0,0,0-.14-2.42c-.72-6.11-3.66-8.24-2.36-11.11.07-.14.14-.28.22-.42l0,0a4,4,0,0,1,.23-.34c.11-.15.22-.29.34-.43l0,0a4.89,4.89,0,0,1,.39-.4l.45-.39a9.53,9.53,0,0,1,1-.68,12.15,12.15,0,0,1,1.25-.63l.64-.26.4-.14A3.45,3.45,0,0,1,192,35l.55-.16.62-.16.15,0c.22-.05.44-.1.66-.13s.49-.09.74-.12l.74-.08.75,0c3.2-.15,6.37.63,8.13,2.61,1.12,1.26,1.89,3.25,0,15,0,.22-.07.45-.11.66-.07.41-.13.8-.2,1.18l0,.19c-.11.65-.22,1.25-.32,1.82-.19,1-.37,1.91-.54,2.72-.12.57-.24,1.1-.34,1.59a0,0,0,0,0,0,0c-1,4.36-1.63,5.85-1.82,8.68-.83,12,8.11,25,14.17,27.13l.43.14.28.07.28.05.17,0a2.25,2.25,0,0,0,.44,0,3.48,3.48,0,0,0,.73-.07,3,3,0,0,0,.58-.19,1.07,1.07,0,0,0,.22-.1A6,6,0,0,0,220,94.4l.27-.32a13.7,13.7,0,0,0,1.48-2.25c.07-.13.14-.26.2-.39a20,20,0,0,0,.88-2c.23-.59.45-1.21.64-1.86a.88.88,0,0,0,0-.15c.1-.32.19-.65.28-1a.64.64,0,0,0,0-.07c.1-.36.19-.74.27-1.11a.43.43,0,0,1,0-.05c.09-.4.17-.81.24-1.21a2.21,2.21,0,0,0,0-.25c.06-.34.12-.68.17-1v0c.08-.53.14-1.07.19-1.61s.08-1,.1-1.51a.76.76,0,0,0,0-.15,27.16,27.16,0,0,0-.68-7.33c-.72-2.94-1.81-4.79-.76-6.66a2.13,2.13,0,0,1,.16-.25c0-.07.1-.14.15-.21l0,0a2.41,2.41,0,0,1,.21-.24l.22-.22a1.7,1.7,0,0,1,.24-.22l.26-.2a6,6,0,0,1,.56-.37,4.3,4.3,0,0,1,.6-.32l.22-.11.38-.17.19-.07a5.34,5.34,0,0,1,.52-.18,4.74,4.74,0,0,1,.5-.15,3.76,3.76,0,0,1,.48-.13l.48-.1.5-.1.82-.11a2.34,2.34,0,0,1,.38,0c.38,0,.75-.05,1.14-.06H232c.44,0,.88,0,1.31.06a2.48,2.48,0,0,1,.27,0,16.41,16.41,0,0,1,1.71.26,10,10,0,0,1,6.16,3.58c.73,1,1.23,2.39,1.28,5.27v.48c0,.4,0,.78,0,1.17s0,.77-.08,1.14-.07.71-.11,1.06c0,0,0,.06,0,.09,0,.35-.1.69-.16,1s-.13.7-.21,1c-.15.68-.32,1.33-.52,2-.09.32-.19.63-.3.94-2.33,6.91-6.54,11.47-4.73,16.93a9.64,9.64,0,0,0,4.13,5.25c6,3.36,12.41-4.17,25.5-8.62,1.08-.37,2.05-.66,2.93-.88l1-.24.12,0,1-.2q.41-.08.81-.12l.61-.08.5,0c4.95-.45,9.6.61,26.79-1.78,13.28-1.84,18.71-3.62,20.25-1.12A3.21,3.21,0,0,1,320.59,91.05Z"/><path class="cls-2" d="M424,94.12l-1.66,1L420,96.67c-1.66,1.08-3.32,2.17-5,3.23-1.15.73-2.3,1.43-3.47,2.11-.61.36-1.23.71-1.84,1s-1.24.67-1.87,1c-5.73,2.9-12.28,2.9-18.55,2.43-12.61-.93-25.25-4.94-38-3.6-11.78,1.24-22.25,5-34,.91-10-3.52-18.26-8.58-29.3-8-5.07.28-10.15,0-14-3.86-4.13-4.23-4.19-10.65-1.05-15.45l.63-.92c.22-.29.43-.58.65-.85s.45-.57.69-.84l.56-.63.22-.24a33.88,33.88,0,0,1-6.93.88h-.7c-.42,0-.83,0-1.25,0s-.86,0-1.28-.06l-1.33-.11c-1.1-.1-2.2-.24-3.29-.39-3.29-.45-6.57-1-9.88-1.22-6-.35-11.72.87-17.61,1.74s-13.35,1.72-19.48-.14l-.79-.25a18.39,18.39,0,0,1-2.65-1.17c-.23-.12-.47-.26-.69-.4a15.79,15.79,0,0,1-1.52-1l-.7-.58a0,0,0,0,0,0,0c-.22-.21-.45-.42-.67-.65s-.4-.4-.58-.62l-.39-.46c-.18-.22-.36-.45-.53-.69l-.31-.45-.45-.71a12.72,12.72,0,0,1-1.83-7.31l0-.4a4.43,4.43,0,0,1,.06-.51,1.11,1.11,0,0,1,0-.17l0-.22a4,4,0,0,1,.08-.48.5.5,0,0,1,0-.12v0c0-.27.11-.53.18-.8,0,0,0-.1,0-.16s0,0,0-.05c.06-.23.13-.47.2-.69s.11-.35.17-.53c0,0,0,0,0-.06.09-.25.18-.51.28-.76s.13-.3.18-.45l.07-.15c.09-.19.17-.39.27-.58.22-.46.46-.93.71-1.38h0a.37.37,0,0,1,.05-.11.3.3,0,0,0-.06.11,76.35,76.35,0,0,1-9.39-.7,59.25,59.25,0,0,1-13.72-3.64c-4-1.6-7.71-3.17-12.12-3-4.9.17-9.54.81-14.43,0a38.09,38.09,0,0,1-12.3-4.61c-3.82-2.14-8.61-4.72-10.88-8.61-3-5.12-.71-11.27,3.33-15,.4-.37.82-.72,1.24-1.07s.85-.69,1.29-1l.82-.61.31-.21a46.82,46.82,0,0,1,20.18-7.86,49.15,49.15,0,0,1,14.53.2c4,.6,8.17,2,12.23,1.64C194.56,6.52,201.59,1,210,.15c19-1.8,32.18,13,40.41,28.05a6.14,6.14,0,0,1-.12,6.29,27.24,27.24,0,0,0,6.53-.67c4.6-1.09,9.05-2.76,13.67-3.77,10.4-2.28,19.41-.58,28.44,5,3.66,2.25,7.12,4.8,11.36,5.81,4,1,7.88,1.61,11,4.64a12.64,12.64,0,0,1,3.29,5.25c9.43-2.78,19.22-.69,28.25,2.7,5,1.9,10,4.06,15.3,5.25,4.62,1,9.51.84,14,2.22l.77.25c7.23-1.29,14.4,3.76,20.58,6.81,6.81,3.36,13.65,6.64,20.5,9.94C430.65,81.08,429.55,90.64,424,94.12Z"/><path class="cls-2" d="M180.92,65.89a11.2,11.2,0,0,1-4.34,8.78c-.27.23-.56.45-.85.67l-.2.14c-.27.19-.55.38-.84.56s-.59.36-.9.53-.65.34-1,.5a219.22,219.22,0,0,1-1.27.55c-.36.14-.73.28-1.1.4a20.87,20.87,0,0,1-2.25.61,23.76,23.76,0,0,1-7.5.45c-12.55,2.09-23.13,9.52-34.93,13.83a55,55,0,0,1-18.87,3.32c-7.45,0-14.94-1.69-22.38-1-6.31.6-12.34,3-18.62,3.94a44,44,0,0,1-16.71-.72C38.4,95.9,20.45,84.91,31.84,72.29a13.26,13.26,0,0,1,1.59-1.51c.22-.19.45-.37.68-.54l.11-.08c.25-.18.51-.36.77-.52a16.61,16.61,0,0,1,1.7-.94l.09,0a23.77,23.77,0,0,1,7.49-2c4.49-2.27,9-4.53,13.45-6.84A28.56,28.56,0,0,1,62.77,52c4.19-4.27,9.72-5.92,15.61-5.94,6.61,0,13.1.46,19.72-.22,5.75-.6,11.33-2.06,17-3.2,12.73-2.56,25-2.11,37.28,2.39A164.39,164.39,0,0,1,170,53C175.27,55.7,180.92,59.16,180.92,65.89Z"/></g><g id="trunk"><path class="cls-3" d="M125.45,69.48c8.64,16.61,18.1,27,25.22,33.38,5.33,4.8,10.16,8.13,13.13,15,5.07,11.72.35,23.92-.94,28.12C140,220.23,142.4,386,143.92,411.48a22.23,22.23,0,0,0,2.63,9.75c2.89,5.19,11,14.26,67.87,14.25,45.74,0,55.64-5.87,59.89-13.1a21.39,21.39,0,0,0,2.74-9c2.79-29.6-.09-197.82-20.56-272.55-1.05-3.81-4.21-14.93,1.43-23,.74-1,3.52-4.73,12.66-7.88,19.19-6.6,28.73,2.13,40.22-5.25,6.78-4.35,11.22-12.37,9.37-15.37-1.54-2.5-7-.72-20.25,1.12-24.11,3.36-23.54-.09-33.75,3.38-13.09,4.45-19.47,12-25.5,8.62a9.66,9.66,0,0,1-4.12-5.25c-2.5-7.5,6.39-13.31,6.16-25.85-.06-2.88-.55-4.23-1.29-5.27-3.74-5.3-15.55-5-18-.66-1.06,1.87,0,3.72.75,6.66,2.47,10.12-2,23-6.75,24-5.72,1.23-17.43-13.66-16.5-27.38.29-4.13,1.53-5.41,3.38-16.87,1.89-11.75,1.12-13.74,0-15-4.06-4.56-15.59-2.74-17.73,2-1.3,2.87,1.63,5,2.35,11.11s-1.46,10.48-2.62,13.88c-5.94,17.34,6.58,33.19,1.5,36.75-4.38,3.06-16.47-6.74-22.13-12.38A62.63,62.63,0,0,1,151.05,65Z"/><path class="cls-1" d="M276.92,414.49a20.49,20.49,0,0,1-2.62,7.89c-4.25,7.23-14.15,13.1-59.88,13.1-56.83,0-65-9.06-67.88-14.25a22,22,0,0,1-2.62-9.75C142.4,386,140,220.23,162.86,146c1.29-4.2,6-16.4.93-28.12-3-6.87-7.8-10.2-13.12-15-1.8-1.62-3.76-3.5-5.81-5.67q-.57-.6-1.14-1.23c-.37-.39-.73-.8-1.1-1.21-1.33-1.5-2.7-3.12-4.07-4.87-.52-.65-1-1.32-1.55-2-.82-1.09-1.65-2.22-2.48-3.4-1.38-2-2.76-4.06-4.14-6.31-.49-.77-1-1.55-1.42-2.35-.35-.6-.71-1.21-1.06-1.83s-.83-1.47-1.23-2.23c-.21-.37-.41-.75-.61-1.13s-.41-.76-.61-1.15L151,65a63.33,63.33,0,0,0,11.44,19.81,49.86,49.86,0,0,0-9.56,5.82c18.92,16.1,19.32,23,20.83,26.85,6.12,15.45.82,26.37-1.71,48C169.65,186,166.23,230.92,164,317c-2,76.57.79,94.83,14.21,103.58,9.59,6.25,23.78,6.39,52.17,6.67,11,.11,22.14-.62,34.31-5.9A71.26,71.26,0,0,0,276.92,414.49Z"/><path class="cls-1" d="M204.29,51.86c-.58,3.6-1.1,6.19-1.55,8.19a42,42,0,0,1-11-2.64c-.16,3-.51,5.91-.8,8.7-.73,7.1-1.57,7.91-1.06,12,.54,4.45,1.77,5.32,3.2,11.53s2.74,11.82,0,14.16c-2.11,1.79-5.67.81-6.62.55a10.73,10.73,0,0,1-6.28-4.94c3.16,1.65,6,2.37,7.65,1.2,5.09-3.56-7.43-19.41-1.5-36.75a49.86,49.86,0,0,0,2.4-7.58.59.59,0,0,0,0-.13c0-.26.09-.52.13-.79s.07-.48.09-.73c0-.4.08-.8.1-1.22s0-.67,0-1a20.45,20.45,0,0,0-.14-2.42c-.72-6.11-3.66-8.24-2.36-11.11.07-.14.14-.28.22-.42s.17-.26.26-.38c3-4.14,13.44-5.5,17.25-1.21C205.41,38.12,206.18,40.11,204.29,51.86Z"/><path class="cls-1" d="M242.7,71.38a25.8,25.8,0,0,1-1.43,8.92c-4.63.73-9.34,1.82-14,2.25-.43,4.88-1.77,9.84-4.82,13.65-2,2.56-3.39,2.76-4.15,2.67-1.88-.2-3-2.47-3.24-3a4.3,4.3,0,0,0,2.33.25c3.13-.68,6.16-6.55,7.13-13.38.15-1.08.25-2.18.3-3.29a27.16,27.16,0,0,0-.68-7.33c-.72-2.94-1.81-4.79-.76-6.66a2.13,2.13,0,0,1,.16-.25l.17-.24a2.41,2.41,0,0,1,.21-.24l.22-.22a4.11,4.11,0,0,1,.5-.42,6,6,0,0,1,.56-.37h0c4.2-2.55,13-2.06,16.18,2.4C242.15,67.15,242.65,68.5,242.7,71.38Z"/><path class="cls-1" d="M319.39,95.28l-.32.62a20.27,20.27,0,0,1-1.6,2.52c-.16.21-.31.42-.48.63-.31.39-.63.78-1,1.17l-.83.9a25.2,25.2,0,0,1-4.39,3.61,19.08,19.08,0,0,1-6.57,2.71,26.1,26.1,0,0,1-5.6.46h-.12c-7.39-.11-15.7-2.13-27.93,2.08-9.13,3.15-11.91,6.83-12.65,7.88a16.55,16.55,0,0,0-1.7,3.07,16.51,16.51,0,0,1,.26-4c1.17-6,6.84-9.33,12.17-11.2,6.2-2.17,12.78-3,19.4-3.57-6.64-2.44-14.16-3.78-19-9.16,7.44-1.92,9.28.51,30.83-2.49,13.28-1.84,18.71-3.62,20.25-1.12C321,90.64,320.6,92.84,319.39,95.28Z"/></g><g id="leaves"><path class="cls-4" d="M313.18,68.84c-8.38,2.1-17.95,1.12-26.78-.25q-.63.39-1.29.75a34.77,34.77,0,0,1-16.29,4.54c-6,.13-11.8-1.45-17.73-1.8s-11.72.87-17.61,1.74c-9.66,1.44-22.88,2.72-28.77-7.18C199.25,57.46,207,47.45,214,41.83a38.06,38.06,0,0,1,28.23-8c5,.54,9.61,1.14,14.57,0,4.6-1.09,9.05-2.76,13.67-3.77,10.4-2.28,19.41-.58,28.44,5,3.66,2.25,7.12,4.8,11.36,5.81,4,1,7.88,1.61,11,4.64C329.53,53.6,323.34,66.3,313.18,68.84Z"/><path class="cls-2" d="M324.81,57a13.25,13.25,0,0,1-.44,1.61s0,0,0,0c-.08.24-.17.48-.26.71s-.09.23-.14.34-.21.47-.32.69a6.36,6.36,0,0,1-.3.58l-.15.27c-.16.28-.33.56-.51.83s-.32.48-.49.72a.47.47,0,0,0-.09.12l-.54.67A14.21,14.21,0,0,1,320,65.16c-.18.17-.38.34-.57.5l-.7.55A14.83,14.83,0,0,1,317,67.35c-.2.11-.4.22-.6.31l-.3.15c-.24.12-.48.22-.72.32l-.31.13c-.23.09-.46.17-.7.24a1.93,1.93,0,0,1-.34.11c-.26.09-.53.16-.8.23-8.38,2.1-17.95,1.12-26.78-.25q-.63.39-1.29.75a34.77,34.77,0,0,1-16.29,4.54h-.7c-.42,0-.83,0-1.25,0s-.86,0-1.28-.06l-1.33-.11c-4.4-.41-8.76-1.35-13.17-1.61-6-.35-11.72.87-17.61,1.74-8,1.19-18.43,2.27-25.13-3A14.57,14.57,0,0,1,207,69.57c-.2-.2-.4-.4-.58-.62l-.39-.46a15.14,15.14,0,0,1-1.29-1.85,12.72,12.72,0,0,1-1.83-7.31l0-.4a4.43,4.43,0,0,1,.06-.51,1.11,1.11,0,0,1,0-.17,7.37,7.37,0,0,1,.13-.82v0c0-.27.11-.53.18-.8,0,0,0-.1,0-.16.06-.25.13-.5.21-.74s.12-.39.19-.59.18-.51.28-.76.13-.3.18-.45.22-.49.34-.73c.26-.55.55-1.1.86-1.64.15-.27.31-.53.47-.79l.51-.79c.35-.52.72-1,1.1-1.53s.78-1,1.19-1.46A39,39,0,0,1,214,41.83a37.64,37.64,0,0,1,24.09-8.21,42,42,0,0,1-16.46,28.87c9.56,2.53,21.28-1.68,30.73-1.16,4.8.26,9.5,1.76,14.33,2.06,4.31.26,8.34-.45,12.57-1.16a39.34,39.34,0,0,1,8-.47c10.09-3.49,21.15-5.55,31.47-2.8A5.51,5.51,0,0,0,324.81,57Z"/><path class="cls-4" d="M424,94.12c-5.31,3.32-10.57,7.09-16.16,9.92s-12.28,2.9-18.55,2.43c-12.61-.93-25.25-4.94-38-3.6-11.78,1.24-22.25,5-34,.91-10-3.52-18.26-8.58-29.3-8-5.07.28-10.15,0-14-3.86-4.13-4.23-4.19-10.65-1.05-15.45,5.3-8.08,14.55-12,23.43-14.73,4.22-1.3,8.63-2.31,12.7-4,4.72-2,9.07-4.8,13.94-6.51,9.88-3.46,20.23-1.34,29.73,2.23,5,1.9,10,4.06,15.3,5.25,4.62,1,9.51.84,14,2.22l.77.25c7.23-1.29,14.4,3.76,20.58,6.81,6.81,3.36,13.65,6.64,20.5,9.94C430.65,81.08,429.55,90.64,424,94.12Z"/><path class="cls-2" d="M402.26,99.15a69.5,69.5,0,0,1-20.9-2.92c-7.26-2-14.57-4.8-22.19-5-7.43-.19-14.61,2.32-22,2.86a34.22,34.22,0,0,1-20-4.81c-2.58-1.52-5.07-3.51-7.91-4.51-2.69-.94-5.42-.61-8.2-.43-4.89.33-10.2.09-13.5-4-3.54-4.44-3.37-9.58-1.44-14.62-5.19,2.5-9.89,5.88-13.12,10.8s-3.08,11.22,1.05,15.45c3.81,3.89,8.89,4.14,14,3.86,11-.59,19.27,4.47,29.3,8,11.76,4.12,22.23.33,34-.91,12.72-1.34,25.36,2.67,38,3.6,6.27.47,12.82.47,18.55-2.43a169,169,0,0,0,14.51-8.87A60.55,60.55,0,0,1,402.26,99.15Z"/><path class="cls-4" d="M250.24,34.59h0c-.54,4.23-3.3,8.26-7.35,9.66-4.24,3.57-10.5,5.07-15.92,5.83-10.36,1.46-20.69,2.47-31.11,1a59.25,59.25,0,0,1-13.72-3.64c-4-1.6-7.71-3.17-12.12-3-4.9.17-9.54.81-14.43,0a38.09,38.09,0,0,1-12.3-4.61c-3.82-2.14-8.61-4.72-10.88-8.61-3-5.12-.71-11.27,3.33-15A45.49,45.49,0,0,1,159.58,5.49a49.15,49.15,0,0,1,14.53.2c4,.6,8.17,2,12.23,1.64C194.56,6.52,201.59,1,210,.15c19-1.8,32.18,13,40.41,28.05A6.15,6.15,0,0,1,250.24,34.59Z"/><path class="cls-2" d="M239.2,43.2c-9.34,3.08-19.88,3.09-29.46,1.13A56.16,56.16,0,0,1,195,38.69c-5.52-2.9-12.8-8.54-19.41-7.71-6.21.77-10.83,5-17.48,4.25a21.63,21.63,0,0,1-13.72-7.45,19.55,19.55,0,0,1-5-14.44,37.4,37.4,0,0,0-3.67,2.93c-4,3.69-6.33,9.84-3.33,15,2.27,3.89,7.06,6.47,10.88,8.61a38.09,38.09,0,0,0,12.3,4.61c4.89.8,9.53.16,14.43,0,4.41-.15,8.08,1.42,12.12,3a59.25,59.25,0,0,0,13.72,3.64c10.42,1.46,20.75.45,31.11-1,5.42-.76,11.68-2.26,15.92-5.83a11.15,11.15,0,0,0,6.45-6.35A33.35,33.35,0,0,1,239.2,43.2Z"/><path class="cls-4" d="M180.92,65.89c0,7.09-6.49,11.4-12.74,12.74a23.76,23.76,0,0,1-7.5.45c-12.55,2.09-23.13,9.52-34.93,13.83a55,55,0,0,1-18.87,3.32c-7.45,0-14.94-1.69-22.38-1-6.31.6-12.34,3-18.62,3.94a44,44,0,0,1-16.71-.72C38.4,95.9,20.45,84.91,31.84,72.29c3.31-3.66,7.77-5.12,12.43-5.68,4.49-2.27,9-4.53,13.45-6.84A28.56,28.56,0,0,1,62.77,52c4.19-4.27,9.72-5.92,15.61-5.94,6.61,0,13.1.46,19.72-.22,5.75-.6,11.33-2.06,17-3.2,12.73-2.56,25-2.11,37.28,2.39A164.39,164.39,0,0,1,170,53C175.27,55.7,180.92,59.16,180.92,65.89Z"/><path class="cls-2" d="M160,75.82c-9.1-.52-16.71,3-25.15,5.94-9.38,3.28-18.31,4.15-28,1.78-4.81-1.18-9.55-2.82-14.56-2.79a88.83,88.83,0,0,0-15,1.8c-11,2-28.14,6.65-36.16-4.26A14.36,14.36,0,0,1,38.59,67.9a16.32,16.32,0,0,0-6.75,4.39C20.45,84.91,38.4,95.9,49.17,98.47a44,44,0,0,0,16.71.72c6.28-.9,12.31-3.34,18.62-3.94,7.44-.71,14.93,1,22.38,1a55,55,0,0,0,18.87-3.32c11.8-4.31,22.38-11.74,34.93-13.83a23.76,23.76,0,0,0,7.5-.45,19.61,19.61,0,0,0,8.41-4C171.42,76.48,165.56,76.13,160,75.82Z"/></g></svg>