<svg xmlns="http://www.w3.org/2000/svg" viewBox="0 0 159.31 470.25"><defs><style>.cls-1{fill:#ba5dba;}.cls-2{fill:#c6c5b6;}.cls-3{fill:#f2f2eb;stroke:#c6c5b6;stroke-miterlimit:10;}.cls-4{fill:#d66ec3;}</style></defs><g id="Layer_2" data-name="Layer 2"><path class="cls-1" d="M13.15,160.68c1.06-13.51,8.22-25.27,18.6-34.08,14.61-12.46,35.57-19.11,54.66-16.72,34.86,4.33,66.29,39.12,58.72,71.27a42.47,42.47,0,0,1-5.06,12.37C127.52,214.36,98.24,225,73.86,222.06,43.47,218.42,10.7,192.52,13.15,160.68Z"/><path class="cls-1" d="M149,348s0,0,0,0a87.78,87.78,0,0,1-30.71,28.24C83.61,395.07,31.56,388,10.07,352.46c-12.79-21.15-14.73-52.31,2-75.88a57,57,0,0,1,4.28-5.35h0c22.71-25.63,58.63-22.85,65-22.35,32.44,2.5,74.69,25,77.78,62.31C160.25,324.75,156,337.3,149,348Z"/><path class="cls-1" d="M84.6,83.15a44.27,44.27,0,0,0,32.5-21,39.58,39.58,0,0,0,5.77-21.9C122.1,17.24,101.47-.21,79.32,0A43.85,43.85,0,0,0,51.5,10.49h0c-9.24,7.75-15.24,19.17-15.08,31.73C36.73,67,60.75,85.8,84.6,83.15Zm30.83-19.3A40.19,40.19,0,0,1,93.15,75.23,43,43,0,0,0,115.43,63.85Z"/><path class="cls-2" d="M90.05,57.1V462.57a7.77,7.77,0,0,1-.06,1,.13.13,0,0,1,0,.06.68.68,0,0,1,0,.14,7.68,7.68,0,0,1-5.22,6.13,8,8,0,0,1-1.2.28l-.67.07a3,3,0,0,1-.43,0H76.81a4.93,4.93,0,0,1-.55,0h-.11l-.39-.05q-.37-.06-.75-.15l-.55-.16-.43-.16a7.71,7.71,0,0,1-4.43-4.82h0a8.13,8.13,0,0,1-.25-1.11c0-.13,0-.26,0-.39a.57.57,0,0,1,0-.13,4.36,4.36,0,0,1,0-.51V57.1a4.36,4.36,0,0,1,0-.51.57.57,0,0,1,0-.13c0-.13,0-.26,0-.39A8.62,8.62,0,0,1,69.6,55,7.77,7.77,0,0,1,74,50.12l.43-.16L75,49.8l.75-.15.39,0h.11a4.93,4.93,0,0,1,.55,0h5.7a4.36,4.36,0,0,1,.51,0h.13l.39,0A7.68,7.68,0,0,1,90,56.07c0,.13,0,.26.05.39a.57.57,0,0,1,0,.13A4.36,4.36,0,0,1,90.05,57.1Z"/></g><g id="plant_5" data-name="plant 5"><rect id="stem" class="cls-3" x="69.26" y="49.57" width="20.79" height="420.68" rx="7.67"/><path id="stem_shadow" data-name="stem shadow" class="cls-2" d="M76.11,465.37c-2-3-1.08-15.48-1-20.1.18-9.66.41-19.51.81-29.27.49-12,0-18.88,3.31-21,2-1.28,5.19-1.73,7-2.15a22.55,22.55,0,0,0,3.78-1.11v-134C86.86,262.79,77,261.56,77,254s-1.38-19.8,1.68-23.43c1.35-1.61,4.89-2.4,7.34-2.89a18.39,18.39,0,0,1,4-.37V121.11l-.08,0a6.1,6.1,0,0,1-2.83-.59c-4,4.12-12.62,2.66-12.13-4.47C75.56,108,73.27,96.18,78,89.4c2.14-3.08,7.53-4.11,12.09-5V57.18a7.6,7.6,0,0,0-7.61-7.61H76.87a7.61,7.61,0,0,0-7.61,7.61V462.64a7.61,7.61,0,0,0,7.61,7.61h5.57a7.56,7.56,0,0,0,7.56-6.7,6.08,6.08,0,0,1-2.71,3.39C83.89,468.58,78.27,468.66,76.11,465.37Z"/><g id="ball_mid" data-name="ball mid"><path class="cls-4" d="M122.88,40.25a39.63,39.63,0,0,1-5.77,21.89c-15.77,17-42.15,18.3-58.82,3.77C42.75,52.37,39.52,28.44,51.5,10.51v0A43.9,43.9,0,0,1,79.32,0C101.48-.21,122.1,17.25,122.88,40.25Z"/><path class="cls-4" d="M145.14,181.15a42.55,42.55,0,0,1-5.07,12.38c-25.39,17.84-58.94,17.54-82.45-.25-20.06-15.19-30-41-25.86-66.68,14.6-12.46,35.56-19.11,54.65-16.72C121.28,114.21,152.71,149,145.14,181.15Z"/><path class="cls-4" d="M149,348a0,0,0,0,0,0,0c-30.9,21.63-71.43,21.52-100,.37-36.9-27.35-33-74.54-32.73-77.11l0,0c22.72-25.62,58.64-22.84,65-22.35,32.43,2.5,74.68,25,77.78,62.31C160.25,324.75,156,337.3,149,348Z"/></g><g id="ball_shadow" data-name="ball shadow"><path class="cls-1" d="M117.11,62.14a44.26,44.26,0,0,1-32.51,21C60.76,85.81,36.74,67,36.42,42.24c-.16-12.57,5.84-24,15.08-31.73-12,17.93-6.18,47.3,11.41,58C79.66,78.78,101.34,79.14,117.11,62.14Z"/><path class="cls-1" d="M140.07,193.53c-12.55,20.83-41.83,31.44-66.2,28.54-30.39-3.64-63.16-29.55-60.72-61.38,1.06-13.52,8.22-25.27,18.61-34.09-4.1,25.71,5.8,51.49,25.86,66.68C81.13,211.07,114.68,211.37,140.07,193.53Z"/><path class="cls-1" d="M149,348a87.81,87.81,0,0,1-30.71,28.25C83.62,395.07,31.56,388,10.07,352.47c-12.79-21.15-14.72-52.32,2-75.88a55.63,55.63,0,0,1,4.27-5.35c-.26,2.57-4.17,49.76,32.73,77.11C77.58,369.5,118.11,369.61,149,348Z"/></g></g></svg>