<svg xmlns="http://www.w3.org/2000/svg" viewBox="0 0 374.12 456.47"><defs><style>.cls-1{fill:#5e0e06;}.cls-2{fill:#face1a;}.cls-3{fill:#7a1b0e;}.cls-4{fill:#fce06a;}.cls-5{fill:#ffe996;}</style></defs><g id="Layer_5" data-name="Layer 5"><path class="cls-1" d="M308.76,118.78l-17.88-.53h0l-10-.3c11.3-28.4,3.73-60-17.89-77.66-17.07-14-41.79-18.39-62.38-10-.6.24-1.19.5-1.78.76s-1,.44-1.49.68l-.54.25c-.48.22-1,.45-1.42.7a64.15,64.15,0,0,0-7.95,4.78l.07-.09c-17.39,12.14-27,32.16-27,59.35,0,35.47,11.36,51.24,23.76,94.13,10.83,37.47,25.63,119.42,22.67,247.06a15.34,15.34,0,0,1-5.46,11.43h0c-.33.3-.68.59-1,.86s-.73.55-1.11.81-.78.51-1.18.75a25.62,25.62,0,0,1-2.55,1.34,34.5,34.5,0,0,1-5.7,2c-.47.12-.94.23-1.42.33l-.19,0c-1.15.25-2.33.45-3.52.6l-1.2.14a49.06,49.06,0,0,1-10.42-.07q-1.38-.16-2.73-.39c-.91-.16-1.8-.34-2.68-.55l-.32-.08c-.55-.14-1.1-.28-1.64-.44l-.33-.1c-.38-.11-.77-.23-1.15-.36s-.85-.28-1.26-.44l-1.06-.41-.78-.33-1-.45-.77-.38c-.31-.16-.62-.32-.92-.49l-.39-.23c-.23-.12-.46-.26-.68-.4l-.73-.46c-.35-.23-.68-.46-1-.7s-.65-.49-1-.74l-.46-.39c-.31-.26-.6-.53-.88-.8s-.42-.41-.62-.62l-.41-.45a16.74,16.74,0,0,1-2.95-4.56c-.15-.35-.29-.71-.41-1.08a16.16,16.16,0,0,1-.88-5.51c.82-77,22.94-154,10.65-189.22-10.4-29.81-41.41-58.95-61.43-54.88-.35.07-.7.15-1.05.25a16.54,16.54,0,0,0-2.09.7c-.35.14-.69.29-1,.45s-.57.27-.84.41-.51.27-.75.41-.64.36-1,.57c-.72.44-1.42.93-2.12,1.46C81,201.72,74.9,212.23,73.67,222.81c-1,8.92,3,15,1,19.69a7.05,7.05,0,0,1-.42.82c-.06.1-.12.2-.19.3a4.1,4.1,0,0,1-.36.49c-4.52,5.51-17.78,5.71-22.94,0-2.45-2.71-3.64-7.39-3.64-13.15,0-.45,0-.91,0-1.37l0-.67c0-.48,0-1,.09-1.46s.09-1.15.16-1.74a.15.15,0,0,1,0-.07c.06-.54.12-1.09.2-1.64,0-.17,0-.34.07-.51.08-.54.17-1.09.27-1.64s.21-1.16.33-1.75c0-.12,0-.24.08-.36.11-.56.23-1.12.37-1.69.34-1.47.74-3,1.19-4.47q.24-.81.51-1.62c.71-2.21,1.54-4.44,2.48-6.66.2-.47.4-.94.61-1.41.29-.65.58-1.3.9-2,.19-.41.39-.81.59-1.21s.4-.81.61-1.21l0,0v0c7.69-14.84,20.44-28.25,37.7-31.55,20.9-4,48,11.57,62.8,32.8.37.53.74,1.06,1.09,1.6a212.7,212.7,0,0,0-9-32.76c-1.28-3.42-2.63-7.28-4-11.5-.85-2.65-1.7-5.44-2.53-8.35-.1-.34-.19-.69-.29-1-.15-.54-.3-1.08-.46-1.63q-.67-2.48-1.33-5t-1.22-5c-.28-1.2-.55-2.4-.82-3.63l-.78-3.69c-.06-.3-.11-.59-.17-.89-.3-1.48-.58-3-.85-4.49-.06-.29-.11-.59-.16-.88-.23-1.33-.45-2.67-.67-4q-.47-3-.87-6.11h0a169.8,169.8,0,0,1-1.29-31.49s0-.09,0-.14a1.27,1.27,0,0,0,0-.2c.18-2.82.44-5.63.8-8.42q.36-2.85.87-5.66c.11-.62.23-1.24.35-1.86.25-1.23.51-2.46.8-3.68h0l.45-1.82a0,0,0,0,0,0,0c.21-.81.43-1.62.66-2.42q.69-2.4,1.51-4.76.38-1.08.78-2.16a1.34,1.34,0,0,0,.07-.18v0c7.17-18.89,21-34.71,45.2-43.12,96.61-33.59,125.39,58.15,126.1,61.43A103.93,103.93,0,0,1,308.76,118.78Z"/><path class="cls-2" d="M374.13,166.27a79.62,79.62,0,1,1-79.62-79.61A79.62,79.62,0,0,1,374.13,166.27Z"/><circle class="cls-2" cx="60.86" cy="289.55" r="60.86"/></g><g id="plant_8" data-name="plant 8"><g id="bulbs"><path class="cls-3" d="M148.21,435.79c.82-77,22.93-154,10.65-189.22-10.4-29.81-41.41-58.95-61.44-54.88C86.21,194,75.35,208.31,73.67,222.82c-1.16,10,4,16.37,0,21.29-4.52,5.51-17.78,5.71-22.94,0-11.5-12.73,4.63-68.92,42.6-76.18,21.42-4.09,49.35,12.36,63.89,34.41a213.62,213.62,0,0,0-9-32.77C133.46,130.25,109.54,33.37,184.3,7.38,280.91-26.2,309.68,65.53,310.4,68.82a104.15,104.15,0,0,1-1.64,50L280.91,118c11.3-28.4,3.73-60-17.89-77.66-17.08-14-41.8-18.38-62.39-10-25.6,10.44-40.09,33-40.09,66.42,0,35.47,11.36,51.24,23.76,94.13,10.83,37.47,25.63,119.42,22.66,247.07C206.36,463.73,147.93,462.21,148.21,435.79Z"/><path class="cls-1" d="M63.42,243.25C53.21,240.79,51.54,232,52.6,222.91c.9-7.66,1.66-15.68,3-23.42-9.23,17.8-11.17,37.68-4.9,44.62,5.16,5.71,18.42,5.51,22.94,0a6.66,6.66,0,0,0,1-1.6A18.85,18.85,0,0,1,63.42,243.25Z"/><path class="cls-1" d="M172.94,444.49c-12.84-10.75-8.4-29.12-7.57-43.61,1.18-20.38,3.69-40.71,5.63-61,2.82-29.56,4.86-59.79.38-89.18-1.33-3.78-2.77-7.53-4.37-11.23-9.58-16.72-20.42-33.43-37-43.78-9.51-5.93-21.76-11.63-32.82-6.43A25.61,25.61,0,0,0,88.55,196a22.08,22.08,0,0,1,8.87-4.29c20-4.07,51,25.07,61.44,54.88,12.28,35.22-9.83,112.22-10.65,189.22-.23,21.59,38.74,26.55,53.33,13.57C191.83,452.28,180.73,451,172.94,444.49Z"/><path class="cls-1" d="M157.22,202.34a73.32,73.32,0,0,0-4.66-6.28c1.79,5.82,5.24,10.59,9.47,15.75a94.79,94.79,0,0,1,7.07,9.88,231.22,231.22,0,0,0-9.23-41.27c-6.24-18.61-13.55-36.39-17.58-55.72a222,222,0,0,1-3.19-74.22c-15,39.52-.87,92.48,9.11,119.09A213.62,213.62,0,0,1,157.22,202.34Z"/><path class="cls-1" d="M290.88,118.26a78.29,78.29,0,0,0-1.26-50.8c-11-30-38.69-54.18-73.43-47.92-10,1.8-22.8,10.25-28.74,17.94a66.92,66.92,0,0,1,13.18-7.16c20.59-8.4,45.31-4,62.39,10C284.64,58,292.21,89.56,280.91,118Z"/><circle class="cls-2" cx="294.51" cy="166.28" r="79.61"/><circle class="cls-4" cx="294.51" cy="166.28" r="63.69"/><circle class="cls-5" cx="294.51" cy="166.28" r="47.77"/><circle class="cls-2" cx="60.86" cy="289.55" r="60.86"/><circle class="cls-4" cx="60.86" cy="289.55" r="48.69"/><circle class="cls-5" cx="60.86" cy="289.55" r="36.51"/></g></g></svg>