<svg xmlns="http://www.w3.org/2000/svg" viewBox="0 0 181.78 430.35"><defs><style>.cls-1{fill:#e5a5bd;}.cls-2{fill:#c7e29a;}.cls-3{fill:#ffc1cf;}.cls-4{fill:#e8ffb7;}</style></defs><g id="Layer_5" data-name="Layer 5"><path class="cls-1" d="M175.48,403.36l0,0c-.3.58-.61,1.15-.94,1.71s-.62,1.06-1,1.57l-.08.12c-.3.47-.61.93-.94,1.39l-.26.37c-.33.45-.66.89-1,1.32-.64.79-1.3,1.56-2,2.28-.19.21-.39.41-.6.61s-.58.57-.88.84-.6.55-.91.8-.67.56-1,.82a31.94,31.94,0,0,1-10,5c-7.73,2.59-66.3,21.4-130,0a31.94,31.94,0,0,1-10-5,34,34,0,0,1-8.38-9.68c-.45-.76-.88-1.54-1.3-2.35h0c-.41-.8-.8-1.62-1.18-2.46-.19-.43-.37-.85-.54-1.28a56.2,56.2,0,0,1-2.25-6.71A70,70,0,0,1,.87,364.22s0,0,0-.05c.1-.66.22-1.31.34-2l.09-.47c.11-.53.22-1.05.34-1.58.06-.28.12-.57.19-.85,0-.06,0-.13,0-.19.11-.47.23-.93.35-1.4a1.21,1.21,0,0,1,0-.18c.17-.62.35-1.25.54-1.86,0-.12.07-.24.11-.36q.25-.82.54-1.62a2.31,2.31,0,0,1,.1-.28c.23-.66.47-1.31.73-1.95s.54-1.32.83-2a.61.61,0,0,1,.05-.12c.28-.6.56-1.2.85-1.78v0l.3-.59c.18-.34.36-.69.55-1s.33-.59.51-.88l.12-.21c.39-.67.8-1.31,1.22-1.94l.38-.54.64-.9c.21-.26.41-.53.61-.79l0,0c.21-.27.43-.53.65-.8s.39-.46.59-.68c.48-.54,1-1.06,1.48-1.56.28-.28.56-.55.85-.81s.58-.53.88-.78.69-.57,1-.84a29.21,29.21,0,0,1,10-5c7.86-2.15,66.3-21.41,130,0,.82.27,1.65.56,2.51.89.31.12.64.24,1,.38s.74.31,1.12.49,1,.48,1.54.76l.53.29.55.31c.36.21.72.44,1.09.68.56.36,1.13.76,1.7,1.2C183.14,348.49,186.34,382.43,175.48,403.36Z"/><path class="cls-2" d="M176.77,320.67c-.19.44-.39.87-.6,1.3s-.39.82-.6,1.22-.42.81-.64,1.2-.4.72-.61,1.07c-.5.83-1,1.65-1.56,2.43s-.89,1.25-1.36,1.84c-.24.3-.47.59-.72.88s-.48.57-.74.85l-.64.69-.23.24c-.22.23-.45.45-.68.67a27,27,0,0,1-2.5,2.17,31.94,31.94,0,0,1-10,5c-7.73,2.59-66.3,21.4-130,0a31.94,31.94,0,0,1-10-5C5.29,327.08,0,311.14,0,295.21c0-.8,0-1.6,0-2.4,0-.15,0-.29,0-.43,0-.46,0-.91.07-1.37.12-2.16.36-4.32.69-6.44v0l0-.21c0-.15,0-.31.07-.47.08-.47.16-.93.25-1.39l0-.17a2,2,0,0,1,.05-.26c.13-.66.26-1.31.41-2s.32-1.37.5-2l.09-.36c.15-.57.31-1.14.49-1.7l.06-.22c0-.06,0-.11,0-.16.16-.51.32-1,.5-1.52.07-.23.15-.45.23-.67.18-.53.37-1.05.58-1.57,0,0,0,0,0-.06l.18-.44c.2-.51.41-1,.64-1.51l.19-.45c.22-.5.45-1,.69-1.46a1.63,1.63,0,0,0,.09-.19c.13-.24.25-.48.37-.72.41-.77.83-1.52,1.27-2.26q.18-.33.39-.66l.5-.79.09-.13.54-.78q.57-.84,1.2-1.62c.2-.26.4-.51.61-.76l.45-.53c.25-.29.51-.58.77-.86l.11-.12c.25-.27.51-.53.77-.79s.61-.59.92-.87.62-.56.94-.83.65-.54,1-.79a31.52,31.52,0,0,1,10-5c63.7-21.41,122.27-2.6,130,0,.68.23,1.37.46,2.08.73.35.13.71.26,1.06.41l.76.31c.24.1.48.2.72.32l.19.08q.54.25,1.08.54a26.07,26.07,0,0,1,2.87,1.71c.41.28.82.58,1.24.9C182.42,267.94,186.05,299.63,176.77,320.67Z"/><path class="cls-1" d="M165.89,175.23a25.19,25.19,0,0,0-2.4-1.65c-.3-.18-.59-.36-.89-.52l-.11-.06c-.33-.19-.66-.36-1-.52l-1-.47c-.67-.3-1.32-.57-2-.81l-.81-.31c-.64-.24-1.27-.45-1.89-.66-7.73-2.6-66.3-21.41-130,0a31.52,31.52,0,0,0-10,5c-.32.25-.64.5-1,.77l-.89.77h0s0,0-.05,0l-.12.11q-.36.31-.69.66a0,0,0,0,0,0,0c-.22.21-.43.43-.65.65l-.17.18-.06.07-.12.12-.6.66-.14.17c-.16.18-.32.37-.47.56a2.69,2.69,0,0,0-.27.32l-.2.24c-.06.09-.14.18-.21.27a1.92,1.92,0,0,0-.16.21c-.08.11-.17.21-.24.32a1.09,1.09,0,0,0-.13.17.76.76,0,0,0-.08.11c-.14.18-.26.36-.39.54l-.54.77-.25.38q-.26.38-.48.75l-.39.63c0,.07-.09.14-.13.22l-.13.23a1.4,1.4,0,0,0-.1.16c-.14.24-.28.48-.41.73l-.48.89,0,0c-.13.24-.25.49-.38.74a1.3,1.3,0,0,0-.08.17.84.84,0,0,0-.06.14c-.28.55-.54,1.1-.78,1.67a.61.61,0,0,0-.07.14.3.3,0,0,0,0,.1c-.26.59-.5,1.18-.74,1.78a1.43,1.43,0,0,0-.08.22c-.25.65-.49,1.31-.72,2s-.47,1.41-.68,2.12-.39,1.33-.56,2c0,.05,0,.11-.05.16s0,.22-.08.34c-.34,1.35-.64,2.72-.89,4.11-.14.72-.26,1.46-.37,2.19,0,0,0,0,0,.08a69.83,69.83,0,0,0,1.48,27.8,56.2,56.2,0,0,0,2.25,6.71c.17.43.35.85.54,1.28.38.84.77,1.66,1.18,2.46h0c.42.81.85,1.59,1.3,2.35a34,34,0,0,0,8.38,9.68,31.94,31.94,0,0,0,10,5c7.73,2.59,66.3,21.4,130,0a31.94,31.94,0,0,0,10-5,30.24,30.24,0,0,0,2.5-2.16l.64-.64.8-.84c.46-.52.92-1.05,1.36-1.6.23-.28.45-.57.67-.86s.44-.59.65-.89l.6-.86a.53.53,0,0,1,.06-.1,42.53,42.53,0,0,0,2.25-3.82l.49-1a.67.67,0,0,1,.06-.12c.15-.33.31-.65.46-1C186.13,220.37,182.62,188.09,165.89,175.23Zm-11.72,10.84c.21-.17.59-.44.66-.48s-.25.19-.75.55Z"/><path class="cls-2" d="M165.89,175.23a31.94,31.94,0,0,1-10,5c-63.7,21.4-122.27,2.59-130,0a31.94,31.94,0,0,1-10-5C2,164.55-2.78,140.47,1.55,120.57h0c.17-.76.34-1.52.55-2.26.08-.37.18-.74.29-1.11l.24-.85c.13-.46.27-.92.42-1.37l.24-.72c.12-.37.24-.73.38-1.09,0-.1.07-.21.11-.31.2-.56.41-1.11.64-1.66s.49-1.18.75-1.75c.17-.4.35-.79.55-1.17s.26-.54.39-.81.32-.63.5-.94.45-.84.69-1.24.31-.53.47-.79c.4-.66.81-1.31,1.25-1.93.22-.32.45-.64.68-1s.43-.57.64-.84A31.92,31.92,0,0,1,12.76,98l.47-.47c.24-.24.49-.48.74-.7s.62-.56.94-.83.65-.54,1-.79a31.52,31.52,0,0,1,10-5c63.7-21.41,122.27-2.6,130,0a42.76,42.76,0,0,1,5.44,2.15c.63.32,1.27.66,1.92,1.05a25.57,25.57,0,0,1,2.63,1.79h0C187.07,111.51,187.07,158.94,165.89,175.23Z"/><path class="cls-1" d="M1.27,68.41A70.35,70.35,0,0,1,0,53.51c0-.26,0-.52,0-.78,0-.61.05-1.21.09-1.82s.07-1.17.12-1.75l.06-.66c0-.53.11-1.06.17-1.59,0-.1,0-.21,0-.31.07-.62.15-1.23.24-1.85a.5.5,0,0,0,0-.12c.11-.69.22-1.37.35-2.06s.26-1.36.4-2,.31-1.34.47-2,.35-1.32.53-2c2.53-8.84,7-16.55,13.35-21.44a31.52,31.52,0,0,1,10-5c63.7-21.41,122.27-2.6,130,0a31.52,31.52,0,0,1,10,5c18.06,13.88,20.7,50.4,8,71h0c0,.07-.09.12-.13.19q-.7,1.13-1.47,2.19c-.06.07-.11.15-.17.23-.58.79-1.18,1.56-1.82,2.29-.26.3-.53.59-.79.87l-.46.48c-.27.28-.55.55-.83.81l-.12.11c-.21.21-.43.41-.65.6s-.35.32-.53.46c-.33.28-.67.56-1,.82a31.94,31.94,0,0,1-10,5c-63.7,21.4-122.27,2.59-130,0a31.94,31.94,0,0,1-10-5c-7-5.34-11.62-14-14-23.89C1.66,70.3,1.45,69.36,1.27,68.41Z"/></g><g id="Layer_4" data-name="Layer 4"><path class="cls-3" d="M25.89,420.23a31.94,31.94,0,0,1-10-5c-21.19-16.29-21.19-63.72,0-80a29.21,29.21,0,0,1,10-5c7.86-2.15,66.3-21.41,130,0a31.52,31.52,0,0,1,10,5c21.18,16.28,21.18,63.71,0,80a31.94,31.94,0,0,1-10,5C148.16,422.82,89.59,441.63,25.89,420.23Z"/><path class="cls-1" d="M10.5,370.77c9.38-9.88,38.62-13.86,44.88-14.71,7.85-1.07,16.87-.71,34.91,0,10.31.41,20.63.86,30.94.62,7.55-.17,15.21-.71,22.45-2.94a26.36,26.36,0,0,0,6.49-2.8c1-.57,2-1.18,2.9-1.84a7.42,7.42,0,0,0,1.79-1.5,35.83,35.83,0,0,0,8.06-11q.68-1.31,1.26-2.61a34.09,34.09,0,0,0-8.29-3.8c-63.7-21.41-122.14-2.15-130,0a29.21,29.21,0,0,0-10,5c-8.13,6.25-13.13,17.09-15,29,.71,3.89,2.05,8.64,4.75,9.18C7.74,373.82,9.82,371.49,10.5,370.77Z"/><path class="cls-1" d="M161.41,409.31c-16.78,5-35.6,6-53,5.53-11.23-.28-22.35-1.54-33.52-2.57-8.82-.81-17.72-1.43-26.39-3.27C29.72,405,14.94,392.21,12,372.65c-1.37-9-1.18-18.14-1.48-27.19-.05-1.59-.08-3.17-.07-4.76-15.5,19.6-13.67,59.8,5.49,74.53a31.94,31.94,0,0,0,10,5c63.7,21.4,122.27,2.59,130,0a31.94,31.94,0,0,0,10-5,35.34,35.34,0,0,0,9.59-11.87A67.29,67.29,0,0,1,161.41,409.31Z"/><path class="cls-4" d="M25.89,340.23a31.94,31.94,0,0,1-10-5c-21.19-16.29-21.19-63.72,0-80a31.52,31.52,0,0,1,10-5c63.7-21.41,122.27-2.6,130,0a31.52,31.52,0,0,1,10,5c21.18,16.28,21.18,63.71,0,80a31.94,31.94,0,0,1-10,5C148.16,342.82,89.59,361.63,25.89,340.23Z"/><path class="cls-2" d="M25.12,286.4c3.58-3.08,10.87-8.06,55.15-9,15.25-.33,30.53-.64,45.74-1.92,9.07-.77,19.33-3,27.17-7.88a29.33,29.33,0,0,0,11.47-13.23,33.36,33.36,0,0,0-8.76-4.1c-7.73-2.6-66.3-21.41-130,0a31.52,31.52,0,0,0-10,5c-8.2,6.3-13.21,17.28-15.07,29.31,1.06,8.74,3.18,19.9,7.8,20.61C13.39,305.88,15.5,294.68,25.12,286.4Z"/><path class="cls-2" d="M165.89,326.2c-16.3,6.61-35.23,7.38-52.6,6.6-12.27-.56-24.48-2.22-36.64-3.95-7.89-1.13-17.42-1.84-26-3.71-8.93-1.94-18.17-5.6-24.58-12.36-7.5-7.92-10.81-18.46-12-29.07a114.71,114.71,0,0,1,.69-27.52c-20,17.1-19.64,63.05,1.15,79a31.94,31.94,0,0,0,10,5c63.7,21.4,122.27,2.59,130,0a31.94,31.94,0,0,0,10-5,36.9,36.9,0,0,0,10.88-14.56A70.39,70.39,0,0,1,165.89,326.2Z"/><path class="cls-3" d="M25.89,260.23a31.94,31.94,0,0,1-10-5c-21.19-16.29-21.19-63.72,0-80a31.52,31.52,0,0,1,10-5c63.7-21.41,122.27-2.6,130,0a31.52,31.52,0,0,1,10,5c21.18,16.28,21.18,63.71,0,80a31.94,31.94,0,0,1-10,5C92.19,281.63,33.62,262.82,25.89,260.23Z"/><path class="cls-1" d="M16.87,208c15.37-17.08,50.66-14,80.44-11.34.78.07,2.29.21,4.45.33a126.55,126.55,0,0,0,26.32-1.26h0c2.34-.37,4.8-.88,8-1.67,2.88-.72,5.68-1.62,8.47-2.62l1.12-.47c.4-.18.81-.35,1.19-.55,1.11-.57,2.23-1.13,3.31-1.76,1.33-.77,2.63-1.6,3.88-2.5,1.63-1.17.36-.3.05,0,.59-.49,1.16-1,1.72-1.51,1-.94,2-1.93,2.89-3,.32-.35.62-.72.91-1.08l.32-.48a38.54,38.54,0,0,0,3.57-6.53,35.52,35.52,0,0,0-7.6-3.35c-7.73-2.6-66.3-21.41-130,0a31.52,31.52,0,0,0-10,5C7.59,181.6,2.56,192.76.76,204.94c1.05,4.88,2.92,10.72,6.36,11.33S13.59,211.68,16.87,208Z"/><path class="cls-1" d="M152.26,250.88c-16.69,3.59-34.19,4-51.2,3.88-19.91-.11-40.59-2.23-58.48-11.61-16-8.37-25.68-22.62-28.67-40.3a71.9,71.9,0,0,1,.14-26.08c-19.32,17.55-18.71,62.66,1.84,78.46a31.94,31.94,0,0,0,10,5c7.73,2.59,66.3,21.4,130,0a31.94,31.94,0,0,0,10-5,36.56,36.56,0,0,0,10.54-13.83A74.47,74.47,0,0,1,152.26,250.88Z"/><path class="cls-4" d="M25.89,180.23a31.94,31.94,0,0,1-10-5c-21.19-16.29-21.19-63.72,0-80a31.52,31.52,0,0,1,10-5c63.7-21.41,122.27-2.6,130,0a31.52,31.52,0,0,1,10,5c21.18,16.28,21.18,63.71,0,80a31.94,31.94,0,0,1-10,5C92.19,201.63,33.62,182.82,25.89,180.23Z"/><path class="cls-2" d="M15,125.15c8.75-10.52,28.25-10.42,67.26-10.22,10.15,0,15.22.2,18.88.33,7.51.27,9.59.56,16.1.3,19.22-.77,37.56-5,48.64-20.34a31.64,31.64,0,0,0-10-5c-7.73-2.6-66.3-21.41-130,0a31.52,31.52,0,0,0-10,5c-7.29,5.6-12.07,14.89-14.34,25.33.73,6.43,2.15,13.88,5.2,14.34C9.51,135.32,11.25,129.65,15,125.15Z"/><path class="cls-2" d="M152.91,168.85c-17.61,3-35,1.22-52.67.77-18.92-.49-38.89.57-57.06-5.71-9.7-3.36-18.5-8.69-24.38-17.31-5.58-8.2-7.67-18.22-8.62-27.92a96.24,96.24,0,0,1-.08-17.58c-15.17,19.74-13.24,59.5,5.79,74.13a31.94,31.94,0,0,0,10,5c7.73,2.59,66.3,21.4,130,0a31.94,31.94,0,0,0,10-5c5-3.82,8.76-9.37,11.4-15.82A62.1,62.1,0,0,1,152.91,168.85Z"/><path class="cls-3" d="M25.89,100.12a31.94,31.94,0,0,1-10-5c-21.19-16.29-21.19-63.72,0-80a31.73,31.73,0,0,1,10-5c63.7-21.41,122.27-2.6,130,0a31.73,31.73,0,0,1,10,5c21.18,16.28,21.18,63.71,0,80a31.94,31.94,0,0,1-10,5C92.19,121.53,33.62,102.71,25.89,100.12Z"/><path class="cls-1" d="M160.5,91.4C137.27,99,95.78,96.88,94.73,96.8,72.2,95.28,57.26,94.27,43.5,88c-4.7-2.13-12.56-5.69-19.73-13.63C9.2,58.24,8.32,36,8.06,29.28,8,27,8,25.17,8,24-4.84,44.53-2.22,81.2,15.89,95.12a31.94,31.94,0,0,0,10,5c7.73,2.59,66.3,21.41,130,0a31.94,31.94,0,0,0,10-5,33.89,33.89,0,0,0,8-9.05A116.11,116.11,0,0,1,160.5,91.4Z"/></g></svg>