<svg xmlns="http://www.w3.org/2000/svg" viewBox="0 0 428.52 453.12"><defs><style>.cls-1{fill:#d875a7;}.cls-2{fill:#702029;}.cls-3{fill:#8e3a2d;}.cls-4{fill:#a54;}.cls-5{fill:#994136;}.cls-6{fill:#ff95ba;}</style></defs><g id="Layer_6" data-name="Layer 6"><path class="cls-1" d="M68.4,266.05c-.05,4.6-3.53,8.88-8.65,10.25-.44,1.19-2.79,7.09-8.89,9.39-5.64,2.13-13.63.85-16.38-4.38a10.35,10.35,0,0,1-.64-7.1,11.41,11.41,0,0,1-5.31-6.95c-.1-.39-1.31-5.6,2.21-9.65,4.09-4.71,10.65-3.37,11.49-3.19a13.49,13.49,0,0,1,8,5.45c4.64-3.75,10.46-4.36,14.26-1.76A9.62,9.62,0,0,1,68.4,266.05Z"/><path class="cls-1" d="M231.72,234.81a106.9,106.9,0,0,1-15.23-2.67,113.66,113.66,0,0,1-34.59-14.75c-1.34-.87-2.35-1-3.72,0a67.86,67.86,0,0,1-18.11,9.93c-13.84,5.34-28,8.93-43,7C98.64,232,84.36,219.58,80,202.2A34.77,34.77,0,0,1,79.09,190c-1.08.07-1.42.76-1.92,1.19C67,200,55.16,203.88,41.92,202c-19.7-2.85-32.95-14-39.5-32.8a43.26,43.26,0,0,1-1.48-5.35c-.16-.75-.29-1.51-.41-2.27-.07-.43-.13-.85-.18-1.28a46.84,46.84,0,0,1,.59-14.94h0c.12-.61.26-1.22.4-1.83.29-1.22.63-2.43,1-3.62a51.88,51.88,0,0,1,2.85-7c.23-.44.46-.89.7-1.33v0A45.22,45.22,0,0,1,22,114.37c17.82-10.84,36.23-10.79,54.93-2.28.91.41,1.69,1.26,3.18,1-6.68-12.86-8-26.19-3.27-39.81s14-23.65,27.16-29.74A49.63,49.63,0,0,1,136.56,40c16,3.65,27.71,13.08,35.2,27.75a3.48,3.48,0,0,0,.93-2.36c3.72-20.36,14-36.76,30.45-49.16,17.27-13,36.91-18.14,58.31-15.52,21,2.57,38.66,12.07,52.12,28.44,15.59,19,21.58,40.42,15,64.66-.17.62-.61,1.28,0,2.07,1.63-1,3.25-2,4.91-2.92,22.62-12.73,50.18-9.33,68,8.74,12.47,12.68,18,28.52,17.95,46a65.22,65.22,0,0,1-18.7,46.21c-.36.37-.72.75-1.09,1.12s-.74.74-1.12,1.1c-.75.74-1.53,1.46-2.32,2.17A67.44,67.44,0,0,1,320.36,208c-2.6-1.35-4.17-1-6.16.85-3.15,2.94-23.44,16.72-41,22.48a87.52,87.52,0,0,1-21.08,4A104.33,104.33,0,0,1,231.72,234.81Z"/><path class="cls-1" d="M413.5,320c2.09,5.37,2.41,11.57.1,16.85a17.17,17.17,0,0,1-5.65,7l-.08.06c-.25.18-.51.35-.77.51a15.47,15.47,0,0,1-1.79,1l-.47.2c-.23.1-.47.2-.71.28s-.48.17-.72.24-.65.19-1,.26a13.65,13.65,0,0,1-2,.29c-5.75.39-11.71-3.46-13.06-9.07a16.55,16.55,0,0,1-6.12,2.8,12.52,12.52,0,0,1-6.59-.23c-5.92-2.08-7.43-9.54-7.53-10-.06-.17-.16-.48-.28-.9a19.34,19.34,0,0,1,.05-11,15.79,15.79,0,0,1,1.1-2.68l.2-.4a17.51,17.51,0,0,1,9.83-8.34,16.23,16.23,0,0,1,11.26.46,13.12,13.12,0,0,1,4.54,3.34c.72.83,2.83,3.47,2.46,4.67,1.17-3.73,6.08-5.28,9.73-3.87S412.08,316.38,413.5,320Z"/><path class="cls-1" d="M349.42,260.22c6.28,7.43,8.74,16.35,5.65,21.25-4,6.28-18.44,8.23-31.72-1.93-1.2.67-8.5,4.6-15.15,1.55-8.42-3.87-9.63-16.12-7.26-24,2.68-8.89,11.68-17.6,19.48-15.76,3.34.78,5.69,3.32,7.19,5.54.33-.56,3.91-6.31,10.89-6.83.72-.05,7.76-.45,11.59,5.06C353.09,249.44,352.86,255.55,349.42,260.22Z"/><path class="cls-1" d="M283.39,307.25a19.11,19.11,0,0,1,2.5,12.91,13.88,13.88,0,0,1-2.74,5.94h0v0l0,0a2.15,2.15,0,0,1-.19.22c-.13.16-.26.31-.4.46a6.53,6.53,0,0,1-.52.53c-.18.17-.36.34-.55.5A10.86,10.86,0,0,1,277.7,330c-4.26,1.38-9.51-.38-11.53-4.37a14.9,14.9,0,0,1-25.38-14.72c1.5-4.08,5.1-7.53,9.41-8.05a9.09,9.09,0,0,1,5.77,1.33c1.16.7,1,1.06,1.88.17.57-.57.89-1.61,1.43-2.27a12.31,12.31,0,0,1,9.41-4.56,13.45,13.45,0,0,1,3.47.48l.46.13.06,0a5.62,5.62,0,0,1,.58.19c.3.1.59.22.87.34s.61.27.91.42l.77.41c.18.1.37.21.55.33s.25.15.37.23.33.21.49.33.62.44.92.68c0,0,0,0,0,0l.87.74c.28.26.57.52.84.8s.54.55.8.84.52.59.76.89l.09.12h0A23,23,0,0,1,283.39,307.25Z"/><path class="cls-1" d="M159.14,353.36a16,16,0,0,1-5.47,14c-.24.22-.48.42-.73.62l-.05,0c-.23.18-.46.36-.7.53l-.18.13c-.2.14-.4.28-.61.41l-.84.51,0,0-.79.41-.68.3a10.71,10.71,0,0,1-1,.38c-.26.09-.53.16-.79.23a33.69,33.69,0,0,1-8.72,1l-.59,0-.4,0-1.11-.09-1-.12-.5-.08-.78-.14-.77-.17-.11,0-.91-.26-.08,0-.08,0-.72-.25-.56-.22-.09,0-.09,0-.44-.2a3.23,3.23,0,0,1-.49-.25l-.25-.13h0l-.1-.06-.47-.29-.28-.19c-.18-.12-.36-.26-.54-.4l0,0h0c-.23-.19-.45-.39-.67-.6l-.27-.26a3.31,3.31,0,0,1-.26-.27,3.25,3.25,0,0,1-.23-.29,2.83,2.83,0,0,1-.2-.28.83.83,0,0,1-.13-.18l-.22-.34,0-.06-.16-.31a4.11,4.11,0,0,1-.21-.42c-.07-.15-.13-.3-.19-.45l0,0v0l0-.06c-4.5,8.09-10.66,9.44-19.88,8.65S88,365.27,87.55,356c0-.22,0-.45,0-.67s0-.46,0-.69a.91.91,0,0,1,0-.17c0-.21,0-.41.05-.61a2.3,2.3,0,0,1,0-.39c0-.38.11-.76.19-1.14a12.18,12.18,0,0,1,.3-1.19c0-.2.11-.39.18-.59,2.31-7,9.33-12.48,16.67-11.6a21.09,21.09,0,0,1,19-17.35,17.76,17.76,0,0,1,11.85,3.19c6.82,5.1,6.81,13.71,6.8,14.71C151.18,339.76,158.08,345.84,159.14,353.36Z"/><path class="cls-2" d="M285.05,444.14c-15.24,5.45-39.91,9-67.74,9-6.83,0-13.46-.21-19.82-.62l-4.14-.29-2-.17-3.52-.32-2.46-.26c-1.3-.14-2.59-.29-3.86-.45-.64-.07-1.27-.15-1.9-.24l-1.86-.25-2.3-.34-2.19-.34c-.91-.14-1.8-.29-2.69-.45h-.08a129.57,129.57,0,0,1-20.88-5.24c3.39-8.37,10.91-16.91,18.64-30.48C179.41,394,191,363.66,191,307.89,191,253,167,204.13,164.73,162.68H269.91c-.1,1.76-.23,3.54-.4,5.33-.05.51-.1,1-.16,1.54s-.12,1.13-.19,1.7c0,0,0,.07,0,.12-.07.55-.13,1.11-.21,1.66s-.13,1-.2,1.5c-.09.67-.19,1.34-.29,2-.17,1.18-.36,2.36-.57,3.56-.1.59-.2,1.19-.31,1.78l-.21,1.2c-.1.54-.2,1.08-.31,1.62s-.26,1.37-.4,2.06c-.1.52-.21,1-.31,1.55-.47,2.25-1,4.53-1.49,6.82-.16.71-.32,1.41-.49,2.12s-.33,1.41-.5,2.13-.34,1.42-.52,2.13q-1.3,5.36-2.74,10.85l-.57,2.2c-1.59,6.06-3.24,12.24-4.85,18.54-.34,1.32-.68,2.66-1,4v0c-.38,1.53-.77,3.07-1.14,4.61-.19.78-.38,1.55-.56,2.33s-.38,1.55-.56,2.33c-.28,1.17-.55,2.35-.82,3.53-.53,2.35-1.06,4.73-1.56,7.11-.25,1.19-.5,2.39-.74,3.59-.33,1.6-.64,3.21-.93,4.82-.23,1.21-.44,2.42-.65,3.64q-.63,3.65-1.17,7.34c-.18,1.23-.35,2.46-.51,3.7-.22,1.65-.42,3.31-.6,5,0,.12,0,.23,0,.34a208,208,0,0,0-1.26,22.47c0,55.77,11.62,86.06,22.81,105.77h0C274.14,427.23,281.67,435.77,285.05,444.14Z"/></g><g id="plant_6" data-name="plant 6"><g id="trunk"><path class="cls-3" d="M285.05,444.14c-15.24,5.45-39.91,9-67.74,9a275.76,275.76,0,0,1-46.78-3.73h-.08c.23-3.74,1.51-9.13,8-23.11a114.28,114.28,0,0,0,5.54-15c10.08-33.46,13.46-83.57,13.45-99.27,0-49.23-12.35-93.18-16.19-122.43-.12-.93-.24-1.86-.35-2.78a190.34,190.34,0,0,1-1-24.14h89.93c-2.24,41.45-26.3,90.28-26.3,145.21,0,55.77,11.62,86.06,22.81,105.77h0C274.14,427.23,281.67,435.77,285.05,444.14Z"/><path class="cls-2" d="M269.91,162.68c-2,36.27-20.64,78.21-25.27,124.93a39.11,39.11,0,0,0-27.33-10.46c-1,0-2,.05-3,.13a61.34,61.34,0,0,0-8.5,1.28c.67,4.47,1.18,8.87,1.47,13.16.8,11.92.91,23.88,1.44,35.81s1,23.58.19,35.39c-.16,2.44-.42,4.86-.63,7.3,0,.46-.07.83-.1,1.13,0,.13,0,.28-.07.47-.23,1.52-.47,3-.73,4.56a119.87,119.87,0,0,1-3.79,16c-.44,1.35-.91,2.7-1.4,4-.43,1.17-.77,2-.88,2.28-1.37,3.46-3.37,9.35-3.66,10.17-2.58,7.45-5.82,8.49-8.81,16.5-1.49,4-5,13.49-.59,20a17.68,17.68,0,0,0,5.28,4.75,20.2,20.2,0,0,0,8.16,2.62,252.05,252.05,0,0,1-31.19-3.34h-.08a129.57,129.57,0,0,1-20.88-5.24c3.39-8.37,10.91-16.91,18.64-30.48C179.41,394,191,363.66,191,307.89,191,253,167,204.13,164.73,162.68Z"/></g><g id="hangers"><rect class="cls-4" x="125.93" y="203.59" width="5.37" height="133.48"/><rect class="cls-5" x="125.93" y="203.59" width="1.78" height="133.48"/><rect class="cls-4" x="45.64" y="136.85" width="5.37" height="133.48"/><rect class="cls-5" x="45.64" y="136.85" width="1.78" height="133.48"/><rect class="cls-4" x="260.38" y="180.69" width="5.37" height="133.48"/><rect class="cls-5" x="260.38" y="180.69" width="1.78" height="133.48"/><rect class="cls-4" x="324.05" y="124.55" width="5.37" height="133.48"/><rect class="cls-5" x="324.05" y="124.55" width="1.78" height="133.48"/><rect class="cls-4" x="387.94" y="192.9" width="5.37" height="133.48"/><rect class="cls-5" x="387.94" y="192.9" width="1.78" height="133.48"/></g><path id="cloud_mid" data-name="cloud mid" class="cls-6" d="M252.11,235.3a103.65,103.65,0,0,1-20.39-.49,108.44,108.44,0,0,1-15.23-2.68,113.54,113.54,0,0,1-34.59-14.74c-1.34-.87-2.35-1-3.73,0a68,68,0,0,1-18.1,9.92c-13.84,5.35-28,8.93-43,7C98.63,232,84.36,219.57,80,202.19a34.75,34.75,0,0,1-1-12.16c-1.07.07-1.41.76-1.91,1.2C67,200,55.16,203.87,41.92,202c-19.7-2.85-33-14-39.51-32.8C-4.54,149.22,4,125.35,22,114.37c17.81-10.85,36.23-10.8,54.92-2.28.91.41,1.69,1.26,3.18.94-6.67-12.86-8-26.18-3.27-39.81s14-23.65,27.17-29.74A49.69,49.69,0,0,1,136.56,40c16,3.66,27.7,13.08,35.2,27.76a3.53,3.53,0,0,0,.93-2.36c3.72-20.37,14-36.76,30.45-49.16C220.4,3.16,240.05-1.95,261.45.66c21,2.57,38.66,12.08,52.12,28.45,15.59,19,21.58,40.42,15,64.65-.17.63-.62,1.29,0,2.07,1.63-1,3.25-2,4.91-2.91,22.62-12.73,50.18-9.33,68,8.74,12.48,12.68,18,28.52,18,46-.1,20.11-8.13,37.09-23.24,50.59A67.41,67.41,0,0,1,320.36,208c-2.61-1.35-4.17-1-6.16.84-3.15,2.94-23.44,16.72-41,22.49A87.43,87.43,0,0,1,252.11,235.3Z"/><g id="tufts_mid" data-name="tufts mid"><path class="cls-6" d="M124.05,321.63A21.07,21.07,0,0,0,105,339c-9.19-1.11-17.87,7.8-17.46,17s8.83,17.1,18,17.89,15.38-.57,19.88-8.65c2.67,7.28,14.23,7.57,21.76,5.69,6.39-1.59,13.11-9,11.9-17.6-1.06-7.52-8-13.6-16.44-13.83,0-1,0-9.61-6.8-14.7A17.7,17.7,0,0,0,124.05,321.63Z"/><path class="cls-6" d="M30.74,257.6c-3.52,4.06-2.32,9.26-2.22,9.66a11.38,11.38,0,0,0,5.32,6.94,10.38,10.38,0,0,0,.64,7.11c2.75,5.23,10.74,6.5,16.38,4.38,6.1-2.3,8.44-8.2,8.89-9.39,5.12-1.38,8.59-5.66,8.65-10.26a9.61,9.61,0,0,0-4-7.94c-3.79-2.6-9.61-2-14.25,1.77a13.45,13.45,0,0,0-8-5.45C41.39,254.23,34.83,252.89,30.74,257.6Z"/><path class="cls-6" d="M250.2,302.86c-4.32.52-7.92,4-9.41,8.05a14.89,14.89,0,0,0,25.37,14.71c2,4,7.28,5.76,11.54,4.37s7.33-5.45,8.19-9.84a19.13,19.13,0,0,0-2.5-12.91c-3-5.35-8.55-9.68-14.7-9.72a12.38,12.38,0,0,0-9.42,4.56c-.53.66-.86,1.7-1.42,2.28-.87.88-.73.53-1.88-.18A9.08,9.08,0,0,0,250.2,302.86Z"/><path class="cls-6" d="M320.42,241.34c-7.8-1.83-16.8,6.87-19.48,15.76-2.38,7.87-1.16,20.12,7.26,24,6.65,3.05,13.95-.87,15.15-1.54,13.27,10.16,27.76,8.21,31.72,1.93,3.09-4.9.63-13.83-5.66-21.26,3.45-4.66,3.68-10.78.68-15.09-3.83-5.52-10.88-5.11-11.6-5.06-7,.52-10.55,6.27-10.89,6.83C326.1,244.66,323.75,242.13,320.42,241.34Z"/><path class="cls-6" d="M374.63,340.18a12.45,12.45,0,0,0,6.6.23,16.6,16.6,0,0,0,6.12-2.79c1.35,5.6,7.31,9.46,13.06,9.07s10.89-4.53,13.19-9.81a22.38,22.38,0,0,0-.1-16.85c-1.42-3.65-3.85-7.18-7.5-8.59s-8.57.13-9.73,3.87c.37-1.2-1.74-3.85-2.46-4.67a13,13,0,0,0-4.54-3.34,16.19,16.19,0,0,0-11.26-.47,17.55,17.55,0,0,0-9.83,8.34,19,19,0,0,0-1.07,15C367.21,330.65,368.72,338.11,374.63,340.18Z"/></g></g><g id="shadows"><path class="cls-1" d="M153.67,367.37a15.39,15.39,0,0,1-6.43,3.58c-5.42,1.35-12.91,1.57-17.69-1.13h0l-.68-.41a9.78,9.78,0,0,1-1.7-1.42,5.27,5.27,0,0,1-.49-.57,2.83,2.83,0,0,1-.2-.28.83.83,0,0,1-.13-.18,7,7,0,0,1-.42-.71,4.11,4.11,0,0,1-.21-.42c-.07-.15-.13-.3-.19-.45a.75.75,0,0,1-.06-.13c-4.5,8.09-10.66,9.44-19.88,8.65S88,365.27,87.55,356a15.24,15.24,0,0,1,.79-5.45,21.4,21.4,0,0,0,2.57,5.92,21.05,21.05,0,0,0,17.34,10.18,23.25,23.25,0,0,0,10-2.27c2.56-1.1,4.41-1.92,5.59-3.89,1.33-2.22,1-4.34,1.76-4.5s1.7,2.7,3.66,5.21c2.66,3.4,6.32,4.6,9.52,5.64A27.79,27.79,0,0,0,153.67,367.37Z"/><path class="cls-1" d="M30.74,257.6c-3.52,4.06-2.32,9.26-2.22,9.66a11.38,11.38,0,0,0,5.32,6.94,10.38,10.38,0,0,0,.64,7.11c2.75,5.23,10.74,6.5,16.38,4.38,6.1-2.3,8.44-8.2,8.89-9.39,5.12-1.38,8.59-5.66,8.65-10.26a9.61,9.61,0,0,0-4-7.94c-3.79-2.6-9.61-2-14.25,1.77a13.45,13.45,0,0,0-8-5.45C41.39,254.23,34.83,252.89,30.74,257.6Z"/><path class="cls-6" d="M250.2,302.86c-4.32.52-7.92,4-9.41,8.05a14.89,14.89,0,0,0,25.37,14.71c2,4,7.28,5.76,11.54,4.37s7.33-5.45,8.19-9.84a19.13,19.13,0,0,0-2.5-12.91c-3-5.35-8.55-9.68-14.7-9.72a12.38,12.38,0,0,0-9.42,4.56c-.53.66-.86,1.7-1.42,2.28-.87.88-.73.53-1.88-.18A9.08,9.08,0,0,0,250.2,302.86Z"/><path class="cls-6" d="M320.42,241.34c-7.8-1.83-16.8,6.87-19.48,15.76-2.38,7.87-1.16,20.12,7.26,24,6.65,3.05,13.95-.87,15.15-1.54,13.27,10.16,27.76,8.21,31.72,1.93,3.09-4.9.63-13.83-5.66-21.26,3.45-4.66,3.68-10.78.68-15.09-3.83-5.52-10.88-5.11-11.6-5.06-7,.52-10.55,6.27-10.89,6.83C326.1,244.66,323.75,242.13,320.42,241.34Z"/><path class="cls-1" d="M398.68,341.68a14.68,14.68,0,0,1-4.41-4.64,15.8,15.8,0,0,1-2.11-5.63,12.46,12.46,0,0,1-4.31,3.52,13.85,13.85,0,0,1-12.2-.33c-4.82-2.45-6.79-8.35-7.45-13.34a31.26,31.26,0,0,1-.22-5.68,19.07,19.07,0,0,0-.87,14.56c.1.51,1.61,8,7.52,10a12.45,12.45,0,0,0,6.6.23,16.6,16.6,0,0,0,6.12-2.79c1.35,5.6,7.31,9.46,13.06,9.07a14.54,14.54,0,0,0,7.53-2.82A14.54,14.54,0,0,1,398.68,341.68Z"/><path class="cls-1" d="M381.31,201.24c-22.6,5.62-51.11-2.19-61-19.45-3.53-6.16-6.2-16.15-9.57-15.75-1.63.19-2.56,2.73-2.81,3.37-3.64,9.2-26.74,26.1-50.62,28.13-25.15,2.13-53.93-12-66.38-32.06-2.59-4.18-5.75-10.52-9-10-5.61.87-1.27,20.63-12.38,34.77-9.25,11.76-27.85,17.9-43.63,13.36-13.31-3.83-26.73-15.84-29.78-29.4-1-4.52-.9-9.29-4.2-11-4-2.1-9.17,2.32-17,6.45-6.32,3.33-19.15,10.63-30.83,8.79-17.91-2.81-27.2-18.84-30.8-25a59.51,59.51,0,0,1-7.41-21.81c-6.17,11.38-7.8,25.24-3.5,37.6C9,188,22.22,199.11,41.92,202,55.16,203.87,67,200,77.17,191.23c.5-.44.84-1.13,1.91-1.2a34.75,34.75,0,0,0,1,12.16c4.33,17.38,18.6,29.76,37,32.15,15,1.94,29.19-1.64,43-7a68,68,0,0,0,18.1-9.92c1.38-1.09,2.39-.91,3.73,0a113.54,113.54,0,0,0,34.59,14.74,108.44,108.44,0,0,0,15.23,2.68,103.65,103.65,0,0,0,20.39.49,87.43,87.43,0,0,0,21.09-4c17.56-5.77,37.85-19.55,41-22.49,2-1.85,3.55-2.19,6.16-.84a67.41,67.41,0,0,0,75.83-9.76,76.33,76.33,0,0,0,8.59-9A59.36,59.36,0,0,1,381.31,201.24Z"/><path class="cls-1" d="M279.63,327.46a14,14,0,0,1-10.35-1.32c-1.21-.69-2.48-1.73-3.88-2a10,10,0,0,0-3.78.59c-3.52,1-7.2,1.79-10.56-.14-4-2.31-4.15-7.29-1.17-10.5a8.66,8.66,0,0,1,4.66-2.81c1.5-.3,3.48-.15,4.71-.5a7.76,7.76,0,0,0,2.78-1.59c1-.9,2-1.89,3-2.78a13.33,13.33,0,0,1,9.6-3.47,25.51,25.51,0,0,1,6.88,1.52c-3.17-4-7.78-6.92-12.83-7a12.38,12.38,0,0,0-9.42,4.56c-.53.66-.86,1.7-1.42,2.28-.87.88-.73.53-1.88-.18a9.08,9.08,0,0,0-5.77-1.32c-4.32.52-7.92,4-9.41,8.05a14.89,14.89,0,0,0,25.37,14.71c2,4,7.28,5.76,11.54,4.37a11.68,11.68,0,0,0,5.45-3.9A13.93,13.93,0,0,1,279.63,327.46Z"/><path class="cls-1" d="M320.42,241.34c-7.8-1.83-16.8,6.87-19.48,15.76-2.38,7.87-1.16,20.12,7.26,24,6.65,3.05,13.95-.87,15.15-1.54,13.27,10.16,27.76,8.21,31.72,1.93,3.09-4.9.63-13.83-5.66-21.26,3.45-4.66,3.68-10.78.68-15.09-3.83-5.52-10.88-5.11-11.6-5.06-7,.52-10.55,6.27-10.89,6.83C326.1,244.66,323.75,242.13,320.42,241.34Z"/></g></svg>