<svg xmlns="http://www.w3.org/2000/svg" viewBox="0 0 190.85 425"><defs><style>.cls-1,.cls-3{fill:#d65d49;}.cls-1{stroke:#d65d49;stroke-miterlimit:10;}.cls-2{fill:#332d30;}.cls-4{fill:#ee6055;}.cls-5{fill:#595758;}</style></defs><g id="Layer_6" data-name="Layer 6"><path class="cls-1" d="M171.68,169.11c-.62,1-1.29,1.94-2,2.87v0c-.47.62-.94,1.22-1.43,1.81-.21.26-.43.51-.65.77s-.58.66-.88,1-.53.57-.8.85l-.1.11-.72.72-.84.81-.86.78-.88.76c-.3.26-.6.5-.91.74a41.8,41.8,0,0,1-17,8.19c-.4.09-.8.18-1.21.25-.81.16-1.63.29-2.46.4-16.5,2.16-32.38-5.7-41.59-18.6-.33-.46-.65-.93-1-1.4L97.62,168a43.87,43.87,0,0,1-3.23-6.38c-.11-.25-.21-.51-.31-.77l0-.09c-.15-.39-.29-.78-.43-1.18s-.34-1-.49-1.5c-.31-1-.58-2-.82-3-.14-.62-.27-1.24-.38-1.87-.07-.38-.14-.76-.2-1.15a2.51,2.51,0,0,1,0-.27c-.14-.93-.25-1.88-.33-2.83,0-.25,0-.5,0-.74s-.06-.78-.07-1.18c0-.85,0-1.69,0-2.53,0-.13,0-.25,0-.37,0-.54,0-1.08.08-1.61,0-.28,0-.56.07-.84s0-.44.06-.66l0-.29.12-1c.06-.43.12-.86.2-1.29s.11-.65.17-1,.09-.51.15-.76c.19-.9.4-1.8.65-2.68.1-.36.21-.72.32-1.09s.27-.87.42-1.31.25-.72.38-1.08l.1-.25c.16-.42.32-.83.49-1.24s.35-.84.54-1.26.38-.82.58-1.23.4-.82.62-1.22.43-.8.65-1.2a45.59,45.59,0,0,1,8.46-10.73.46.46,0,0,1,.07-.07l.7-.64q.56-.5,1.11-1a43.89,43.89,0,0,1,26.89-10.48c20.2-.6,38.57,13.51,43.57,32.41C180.83,145.77,178.31,158.72,171.68,169.11Z"/><path class="cls-2" d="M139.68,212a89.93,89.93,0,0,0-3.1-12.38h0c2.8-13.57,4.49-31.84-1.47-47.5h0q0-1.74-.09-3.51c-.72-16.44-5.77-28-11.07-40.12,0,0-4.77-10.9-23.73-31.17-.48-.51-1.32-1.33-2.16-1.15a1.59,1.59,0,0,0-1,.69,2.41,2.41,0,0,0-.19.33.93.93,0,0,1,0,.1,2,2,0,0,0-.19.94c.09,1.12,1.37,1.87,1.62,2,1.82,1.13,8.21,9.59,21,26.5.34.45.67.91,1,1.37.21.29.41.58.6.88.57.83,1.1,1.69,1.6,2.56.12.2.24.4.35.61a0,0,0,0,1,0,0,.57.57,0,0,1,.08.13c.24.42.48.86.71,1.29,0,0,0,.07.05.1.23.4.43.82.63,1.23a1.11,1.11,0,0,1,.09.19c.13.26.26.52.38.78.24.49.47,1,.69,1.49s.54,1.24.8,1.87.5,1.25.74,1.88.46,1.26.68,1.89c.16.46.31.91.46,1.37l.06.2c.15.45.29.89.42,1.34s.36,1.19.52,1.78.25.87.36,1.3c.35,1.32.66,2.62.94,3.9.19.86.36,1.7.52,2.53.09.42.16.84.24,1.26s.14.79.2,1.18c.1.58.2,1.16.28,1.73.06.39.12.78.17,1.17s.14,1,.2,1.52.11.83.15,1.24c0,.21,0,.42.07.62.05.44.1.86.13,1.27s.06.62.08.91a44.29,44.29,0,0,0-7.07-9.77c-1.74-1.82-15.86-16.14-34-13.62A29.51,29.51,0,0,0,85,124.61a75.94,75.94,0,0,1-7.38-28,139.06,139.06,0,0,1,3.37-41.32C84.16,43,95.19,9.21,98.9,4.52c.22-.29,1.94-2.39,1.31-3.51A2.41,2.41,0,0,0,98.88.13,4,4,0,0,0,97.19.06a5.11,5.11,0,0,0-2.88,2C91.42,5.85,78,49.47,77,52.79a117.66,117.66,0,0,0-3.9,18.71c-.06.5-.12,1-.17,1.52s-.1,1-.15,1.44-.08.82-.11,1.24l-.09,1.16c0,.37-.05.74-.07,1.11-.06.87-.1,1.76-.13,2.65,0,.4,0,.79,0,1.19,0,.83,0,1.67,0,2.51,0,.46,0,.93,0,1.4,0,.19,0,.38,0,.58q0,1,.06,2c0,.51,0,1,.08,1.56,0,.29,0,.58,0,.88s0,.88.09,1.32c0,.23,0,.46.06.7.1,1.26.23,2.53.4,3.81.08.71.18,1.42.29,2.13s.22,1.43.34,2.15.29,1.62.45,2.42.3,1.48.46,2.21.29,1.26.45,1.88c0,.22.1.43.16.65q.31,1.24.66,2.46c.18.63.36,1.26.56,1.88s.4,1.28.61,1.91l.08.23c.17.5.34,1,.52,1.5l.12.32q.36,1,.75,2l.37.94c.15.37.3.74.46,1.11l.37.85c.13.32.27.64.42,1s.28.63.43.94c.44,1,.9,1.92,1.37,2.85-10.33,5.24-16.66,15.57-19.85,22.39-.15.33-.3.65-.44,1-.25.55-.48,1.08-.69,1.57l-.38.95c-.39,1-.68,1.81-.85,2.35,0,.08,0,.15-.07.22l-.13.43a.58.58,0,0,0,0,.1,2.46,2.46,0,0,0,.23,1.64,2,2,0,0,0,.46.51l.28.18a.85.85,0,0,0,.79.12c.39-.22.29-1.07.28-1.2-.08-1.07,2.22-7.78,6.9-14.59,0,0,0,0,0,0l.81-1.15c.32-.44.65-.88,1-1.32s.54-.69.81-1,.62-.74.94-1.11.66-.75,1-1.11.7-.73,1.06-1.09.72-.71,1.1-1,1-.93,1.59-1.37q.38-.32.75-.6c.36-.28.73-.55,1.11-.82s.51-.35.77-.52l.5-.32c.11-.08.23-.15.35-.22.3-.19.61-.37.92-.54l.3-.16.6-.32c.3-.16.6-.31.91-.45l.12-.06.07,0,.16-.07-.15.08c.18.35.37.69.57,1l.57,1c.37.64.75,1.27,1.13,1.91l1.17,1.87c.44.71.89,1.4,1.36,2.08.74,1.11,1.5,2.2,2.28,3.28q1.65,2.33,3.41,4.54l1,1.25c.45.58.92,1.16,1.4,1.73s.94,1.15,1.42,1.72,1.12,1.35,1.69,2l2.53,2.94c3.07,3.53,6.18,7,9.22,10.55l1.33,1.56c.45.52.89,1,1.32,1.57.88,1.05,1.75,2.11,2.6,3.18.47.58.92,1.16,1.37,1.74s.91,1.17,1.35,1.76.89,1.19,1.32,1.79,1,1.33,1.42,2,.94,1.35,1.39,2q1.74,2.61,3.33,5.37c-.18.47-.37.94-.56,1.4-.29.72-.59,1.44-.9,2.15s-.61,1.43-.93,2.14-.57,1.29-.87,1.94c-.17.39-.35.77-.53,1.16-1.27,2.75-2.59,5.49-3.92,8.26-2.43,5.05-3,5.64-9.64,16.66a90.51,90.51,0,0,0-4.69-13.11c-.22-.5-.89-1.88-1.69-1.84a1.22,1.22,0,0,0-.94.81,2.65,2.65,0,0,0,.46,2.18,27.8,27.8,0,0,1,1.47,4.62s0,0,0,.07c.12.44.24.91.36,1.4.05.22.1.44.16.66s.13.56.2.86c.16.66.32,1.36.47,2.09,0,.25.11.5.16.75s.15.74.23,1.13.13.64.2,1c.25,1.3.5,2.69.75,4.16-1.56,2.62-3.36,5.68-5.47,9.27-11.55,19.7-17.38,29.67-20.08,35.92-3.26,7.55-6.13,14.19-8.19,20.46-16.16,21.88-21.15,40.39-21.15,40.39a122.5,122.5,0,0,0-2.78,12.9v0c0,.22-.07.43-.1.66s-.1.65-.14,1c-.09.65-.18,1.32-.26,2,0,.12,0,.24,0,.36-.05.36-.09.74-.12,1.11-.06.55-.12,1.12-.16,1.69l-.09,1.09c-1,13.52.55,31,11.25,47.23,10.34,15.69,24.78,23.42,32.77,26.87l.06,0h0c.35.21.56.3.62.27h0s0,0,0,0a.06.06,0,0,0,0,0s0,0,0,0a1.29,1.29,0,0,0-.12-.23c-.11-.21-.29-.5-.54-.88l-.4-.63h0l-.48-.76L89.84,421c-.2-.33-.42-.67-.64-1-.12-.21-.24-.41-.38-.63s-.34-.57-.51-.86l-.63-1.09c-.23-.4-.47-.82-.7-1.25l-.15-.26c-.25-.44-.5-.9-.75-1.37s-.57-1.07-.86-1.64l-.43-.86c-.16-.29-.3-.58-.44-.88-.45-.9-.89-1.84-1.34-2.81-.17-.35-.33-.7-.49-1.06h0c-4.75-10.66-9.21-25.37-8.06-42a49.24,49.24,0,0,1,5.39-20.31h0l.6-1.11c.2-.37.4-.74.62-1.11l.58-1h0c3.61,5.13,7.53,9.78,11,13.93,9.41,11.15,16.22,15.5,18,26.19,1.45,8.94-1.53,16.82-3.26,21.36A56.08,56.08,0,0,1,92.28,425l.32-.18.26-.15.28-.16.3-.18,1-.63c.61-.39,1.28-.84,2-1.37a43.2,43.2,0,0,0,3.51-2.83l.78-.71.19-.18c.33-.31.66-.64,1-1s.66-.68,1-1,.6-.65.9-1c.7-.81,1.39-1.67,2.07-2.59.31-.42.62-.85.92-1.29a40.84,40.84,0,0,0,4.37-8.31c1-2.67,4.58-12.22,1.9-23.38s-9.15-14.38-18.89-26.36a167.29,167.29,0,0,1-11-14.57c.48-.75,1-1.5,1.48-2.27.35-.54.72-1.09,1.1-1.65,2.11-3.15,4.42-6.54,6.83-10.56l.74-1.24c1.25-2.13,2.53-4.44,3.82-7,.28-.55.57-1.12.85-1.7,1.45-2.95,2.92-6.2,4.38-9.83a136,136,0,0,0,11.22-7.77,68.22,68.22,0,0,0,14.63-15.42C147.16,254.13,141,219.41,139.68,212Zm-5.53-43.3c.06.6.12,1.21.17,1.81.15,1.73.23,3.46.26,5.18,0,.58,0,1.15,0,1.72s0,1.23,0,1.84c0,.2,0,.4,0,.6l0,.87c0,.39,0,.78,0,1.16s0,.85-.07,1.26c-.07,1.32-.17,2.62-.3,3.91,0,.41-.07.81-.12,1.22-.06.58-.13,1.16-.2,1.74s-.14,1.15-.22,1.72c-1.23-2.79-2.57-5.43-4-8a98.17,98.17,0,0,0,4.35-16.89C134,167.49,134.09,168.1,134.15,168.7Zm-1.65-22.34v.06a.17.17,0,0,1,0-.07ZM86.23,127.12c.3-.1.61-.19.92-.27,17-4.51,32.54,10.48,33.68,11.6q1.41,1.4,2.64,2.88c.25.28.48.57.7.86s.32.4.47.61c.42.53.81,1.08,1.18,1.63q.29.4.54.81c.24.36.47.73.69,1.1s.61,1,.89,1.53c.07.12.14.24.2.36q.33.6.63,1.2c.18.35.36.71.52,1.07s.3.63.44,1,.33.74.48,1.12c.1.23.19.47.28.7.26.65.51,1.31.73,2,.16.46.32.92.46,1.38a.14.14,0,0,1,0,.06c.1.31.2.61.28.92,0,.09.06.19.08.28.12.38.22.77.33,1.16s.13.51.2.77a0,0,0,0,1,0,0c0,.48-.08.95-.13,1.42,0,.27-.05.53-.08.79-.06.57-.13,1.12-.21,1.67s-.15,1.11-.24,1.65-.17,1.08-.27,1.62-.19,1.07-.3,1.61-.21,1.06-.33,1.58-.23,1-.36,1.57-.25,1-.39,1.55c-.26,1-.55,2-.85,3-.15.51-.3,1-.46,1.5s-.32,1-.49,1.49-.36,1.08-.55,1.62C115.39,160.5,97.05,147.5,86.23,127.12Zm40.92,56c-.1.28-.21.55-.31.82a0,0,0,0,0,0,0Zm-5.7,19.63c2-4.23,4.35-9.07,6.49-14.54.21.37.4.74.58,1.11s.35.69.52,1c.3.61.59,1.22.87,1.84a2.3,2.3,0,0,1,.15.32c.13.28.26.56.38.85q.75,1.66,1.41,3.39.32.78.6,1.59a.3.3,0,0,1,0,.1h0c-.09.5-.19,1-.29,1.48s-.19,1-.29,1.44c-.2.95-.4,1.87-.61,2.76-.07.32-.15.63-.22.94-.24,1-.48,2-.72,2.92-.1.37-.19.74-.29,1.09-.19.73-.38,1.42-.56,2.08-.13.47-.26.91-.38,1.34-.41,1.42-.78,2.62-1.08,3.59q-.11.36-.21.66l-.09.3c-.1.32-.2.64-.31.95s-.2.62-.31.93-.19.56-.29.84c-.15.44-.31.88-.47,1.31a.08.08,0,0,0,0,0c-.12.33-.25.66-.37,1a.14.14,0,0,1,0,.06A95.09,95.09,0,0,1,118.75,237a77.4,77.4,0,0,1-5.94,8.23,115.84,115.84,0,0,0-3-23.08C117.26,209.91,117.93,210.07,121.45,202.74ZM83.23,270.33c3.77-9.19,9-18.15,19.41-36.09,1.5-2.58,2.85-4.87,4-6.9,0-.18,0-.35-.07-.52,0,.17,0,.34.08.52s0,.24,0,.37,0,.25,0,.38c.06.39.11.78.17,1.18l.06.48c0,.35.09.71.14,1.07.06.52.12,1,.19,1.56s.09.86.14,1.3l.15,1.39,0,.29.12,1.3c.06.59.11,1.2.16,1.81.08.89.14,1.8.21,2.73,0,.57.07,1.15.11,1.74s.06,1.08.08,1.63c0,1.1.1,2.21.13,3.34l0,1,0,1.31v.5c0-.16,0-.32,0-.48-1,1.11-2.05,2.28-3.18,3.52-7.11,7.86-12.91,13.25-13.8,14.08q-2.11,2-4.1,4c-.67.67-1.32,1.34-2,2s-1.26,1.34-1.88,2-1.22,1.34-1.82,2-1.18,1.34-1.76,2l-1.17,1.36C80.18,277.79,81.64,274.21,83.23,270.33Zm3.34,151.5c-1.86-1.13-3.87-2.46-6-4l-1-.76-.79-.61-.24-.18-.55-.44-.73-.61-.22-.19c-.79-.64-1.58-1.34-2.38-2.06l-.78-.72q-.78-.72-1.56-1.5a.46.46,0,0,1-.07-.07,69,69,0,0,1-11-14.14c-15.66-26.8-7.72-55.39-5.08-64.89a111.31,111.31,0,0,1,8.38-19.4c0-.08.08-.16.13-.24.18-.35.38-.71.58-1.07q1.73-3.21,3.88-6.75h0c0-.08,0-.16,0-.24s0,.12,0,.18h0l0,.05a46.68,46.68,0,0,0-.12,5l.06,1.29c0,.61.09,1.21.15,1.83,0,.41.09.83.15,1.25.09.73.21,1.46.34,2.2a51.1,51.1,0,0,0,2,7.59h0a.39.39,0,0,1-.08.1,50.42,50.42,0,0,0-3,4.14,54.9,54.9,0,0,0-4.56,8.62,61.56,61.56,0,0,0-3.07,9.33c-.18.75-.35,1.48-.51,2.22-.07.36-.15.73-.22,1.09q-.24,1.23-.42,2.43c-.12.8-.23,1.59-.32,2.37s-.16,1.54-.23,2.3h0c-.06.75-.11,1.5-.15,2.23,0,.33,0,.65-.05,1l0,.95c0,.31,0,.62,0,.93,0,2,0,3.82.13,5.52l0,.42c0,.57.08,1.11.12,1.64s.1,1.07.16,1.57.11.92.16,1.35c.09.71.19,1.38.29,2,.06.43.13.83.19,1.2.12.71.23,1.31.33,1.81C65.83,404,85.93,421,91.08,424.37,89.73,423.67,88.21,422.82,86.57,421.83Zm-8.14-80.27c-3.85,6.13-6.61,12.79-7.21,23.48-1.11,19.69,6,36.87,12.29,47.73l.94,1.6.47.76c.15.25.3.5.46.74,1.66,2.66,3.19,4.79,4.38,6.33l.49.62,0,0c-.22-.21-.44-.44-.69-.69s-.25-.25-.38-.38l-.81-.83c-1.07-1.11-2.31-2.44-3.65-4l-.48-.56c-.33-.38-.66-.78-1-1.18s-.61-.73-.91-1.11a1.34,1.34,0,0,0-.11-.14c-6.54-8.18-14.3-20.66-16.91-36.71-.76-4.66-3.25-21.21,4-38.88.41-1,.84-2,1.28-2.91.14-.28.28-.56.43-.84s.35-.7.53-1.05c.33-.63.66-1.24,1-1.83l.51-.88c.34-.58.7-1.15,1-1.7,0,0,0,0,0-.06h0A77.27,77.27,0,0,0,80,339.2C79.44,340,78.93,340.77,78.43,341.56Zm14.7-22.16c-1.81,3.32-3.63,6.2-5.4,8.82L87,329.33c-.07.1-.14.19-.2.29l-.48.68c-.85,1.21-1.68,2.37-2.5,3.5L82.91,335l-1.19,1.66A69.66,69.66,0,0,1,76.33,326h0c.39-.52.79-1,1.2-1.51.19-.25.39-.48.6-.72.4-.47.8-.93,1.21-1.38,5.77-6.36,12.54-10.78,19.53-15.2A104.39,104.39,0,0,1,93.13,319.4Zm7.77-18,.84-.53-.83.54h0c-7.8,5-15.64,9.19-22.46,15.15-.79.68-1.56,1.4-2.32,2.13L75,319.81l-.54.57h0a47.7,47.7,0,0,1-1.2-5.41A47,47,0,0,1,73.84,297c2.12-3.12,4.48-6.35,7.09-9.65L82,286c1.65-2.06,3.41-4.15,5.28-6.25.37-.43.74-.85,1.13-1.27q2.85-3.15,6-6.34l.87-.86.25-.25.88-.9.34-.35,1.56-1.62,1.33-1.41,1.56-1.68.84-.91c.82-.9,1.69-1.87,2.59-2.89.41-.46.83-.93,1.25-1.42q1.26-1.44,2.61-3a147.62,147.62,0,0,1-5.16,36.39C102.56,296.07,101.77,298.76,100.9,301.39Zm37-67.81c0,2.43-.16,5-.41,7.71-.11,1.35-.27,2.72-.46,4.12-.09.7-.19,1.4-.31,2.11-.21,1.42-.47,2.85-.77,4.31q-.21,1.08-.48,2.19c-.16.73-.35,1.46-.54,2.2q-.39,1.5-.84,3c-.14.48-.29,1-.45,1.45-.22.71-.46,1.42-.71,2.13l-.12.33c-.17.51-.36,1-.57,1.54l-.18.47h0a71.46,71.46,0,0,1-7.38,14.19,68.64,68.64,0,0,1-16.18,16.82c-1.25.94-2.5,1.84-3.77,2.7l.27-.76q.69-1.94,1.38-4l0-.13c0-.06,0-.13.08-.23s.14-.45.24-.79c0-.15.1-.32.15-.51.3-1,.72-2.51,1.19-4.39.11-.46.23-.93.35-1.43s.25-1,.37-1.56.32-1.43.49-2.19c.11-.53.23-1.08.34-1.64.16-.75.31-1.52.46-2.33.1-.53.2-1.08.3-1.63.16-.94.33-1.9.48-2.9a156.46,156.46,0,0,0,2-22.78h0a106.7,106.7,0,0,0,8.93-12.37,116.1,116.1,0,0,0,9.72-21.06c.68-2,2.05-6.13,3.44-11.54.14.5.26,1,.37,1.52s.29,1.28.43,1.93c.09.46.19.93.27,1.41s.14.74.21,1.12c.11.61.21,1.24.31,1.87l.18,1.19c0,.16,0,.32.07.49l.06.43c0,.26.08.53.11.82,0,.11,0,.22,0,.33,0,.34.09.69.14,1.07s.08.66.11,1c0,.19,0,.39.07.59s.06.61.09.93c.07.74.13,1.53.19,2.36l0,.42,0,.42q.07,1,.12,2l0,.77c0,.48,0,1,0,1.46l0,1.51C137.93,231.3,137.93,232.42,137.91,233.58Z"/><path class="cls-3" d="M94.08,256.83c-.35.35-.7.7-1.07,1-13.8,12.5-37.31,9.38-47.25-6.61a29.81,29.81,0,0,1-4.34-18c0-.38.06-.75.1-1.12s.09-.75.14-1.12a31.28,31.28,0,0,1,.68-3.47l.24-.9a.31.31,0,0,0,0-.08c.1-.32.19-.64.3-1s.16-.51.25-.77.16-.46.25-.69.23-.61.35-.91l.33-.79s0-.09.07-.14c.14-.32.28-.64.44-1s.28-.58.43-.86c.28-.56.58-1.1.9-1.63.09-.15.18-.3.28-.45a30.11,30.11,0,0,1,11.93-11.18,31.22,31.22,0,0,1,37.45,7.56C106,227,105.06,245.8,94.08,256.83Z"/><path class="cls-3" d="M179.12,343.83c-.39.53-.8,1.05-1.21,1.57s-.83,1-1.25,1.52-.87,1-1.32,1.49-.9,1-1.36,1.43-.94.94-1.42,1.39-1,.9-1.47,1.34-1,.87-1.53,1.29-1,.81-1.53,1.2l-.23.17c-.44.34-.89.66-1.35,1l-.31.22c-.48.34-1,.66-1.46,1s-1,.64-1.54,1l-1,.57c-.31.19-.63.36-1,.53-1.21.65-2.44,1.25-3.71,1.81-30.2,13.28-67.23-3.93-77.78-35.65a56.42,56.42,0,0,1-2.88-17.83c0-.49,0-1,0-1.46s0-1,.06-1.47.05-1,.09-1.47.08-1,.13-1.46.11-1,.17-1.45.12-.94.19-1.4c.16-1,.33-2,.53-2.93.09-.48.2-1,.31-1.43s.26-1.08.39-1.61.21-.8.32-1.19a.31.31,0,0,0,0-.08c.13-.45.27-.91.41-1.35s.29-.93.45-1.4.29-.84.44-1.27a.58.58,0,0,0,0-.14c.16-.44.33-.89.5-1.33s.37-.91.55-1.36.39-.9.59-1.34c.36-.82.74-1.62,1.14-2.42q1.05-2.09,2.25-4.08c.25-.42.51-.83.77-1.25s.53-.82.8-1.23.55-.81.83-1.21l1-1.43c.83-1.1,1.7-2.18,2.6-3.23l1-1.11c.33-.36.66-.73,1-1.09a.35.35,0,0,0,.1-.11l.94-1A59.76,59.76,0,0,1,121.09,250c28.23-4.28,55.38,11,65.53,36C194.45,305.25,191.12,327.65,179.12,343.83Z"/></g><g id="Layer_3" data-name="Layer 3"><path class="cls-4" d="M177.64,133.72c-5-18.9-23.36-33-43.57-32.41-23.59.7-43.76,21.28-42.85,45.73,1,25.55,24.61,45.41,49.69,42.13C167.42,185.7,184,157.9,177.64,133.72Z"/><path class="cls-3" d="M120.4,170.09a53.88,53.88,0,0,1-23.55-45.9A43,43,0,0,0,91.22,147c1,25.55,24.61,45.41,49.69,42.13a43.21,43.21,0,0,0,30.77-20.06C156.84,179.21,135.61,180.23,120.4,170.09Z"/><path class="cls-3" d="M133.9,171.93c-.25-1.34-.53-2.68-.87-4-1.78-6.83-4.59-12.15-9.11-18.88-.24-.35-2.06-2.86-2.09-3-1.16-1.47-2.41-2.89-3.68-4.27a65.28,65.28,0,0,0-8.78-8.25c.27.25-2.72-1.7-2.65-1.65-1.06-.7-2.11-1.41-3.14-2.13a54.07,54.07,0,0,1-7.42-4.3q-.47.89-.9,1.8a13.62,13.62,0,0,1,1.23,1.77c.38.71.8,1.4,1.24,2.07l.18.19c1.08,1.19,2.27,2.22,3.44,3.31.22.2.36.34.48.46s.41.29.8.59c1.75,1.33,3.5,2.65,5.23,4a53.63,53.63,0,0,1,13.41,15.16c3.67,6.28,6.13,13.33,8.35,20.23,1,3,2,6.08,3.1,9.06.14.33.22.54.26.65.35.79.71,1.57,1.1,2.35l.31.57c.07-4,.12-7.94-.11-11.9C134.25,175.28,133.69,171.05,133.9,171.93Z"/><path class="cls-3" d="M130.11,142.22a49,49,0,0,1-.86,21.67c-1.7,7.35-2.55,11-4.34,13.5-1.1,1.52-3.09,3.81-2.79,6.71a7.07,7.07,0,0,0,1.77,3.8H124a13.2,13.2,0,0,1,1.12-1.36c.73-1,1.44-2.1,2.12-3.18,1.36-2.15,2.54-4.4,3.69-6.67.26-.52.45-.88.57-1.11l.37-1c.54-1.45,1-2.91,1.51-4.38.76-2.46,1.33-4.95,1.85-7.47.1-.49.18-.84.24-1.09s0-.57.07-1c.09-1.26.18-2.51.21-3.77a72.15,72.15,0,0,0-.26-7.64c0-.19-.12-1.29-.19-2s-.33-2.18-.37-2.4c-.47-2.61-1.05-5.19-1.76-7.75-.63-2.3-1.39-4.56-2.22-6.79-.08-.12-1-2.44-1.09-2.54-.16-.34-.73-1.54-1.66-3.16a43.74,43.74,0,0,0-2.37-3.79,30.89,30.89,0,0,0-5-5.64,17.19,17.19,0,0,0-5.28-3.54,10.73,10.73,0,0,0-5.6-.8,9.42,9.42,0,0,0-2.4.68c-.76.62-1.51,1.27-2.23,1.95a16.14,16.14,0,0,1,5.89.79c1.71.56,5.65,2.21,10.92,10.09C124.6,128.07,128.39,133.66,130.11,142.22Z"/></g><g id="Layer_4" data-name="Layer 4"><path class="cls-5" d="M92.28,425c-7.43-3.74-21.45-12.15-31-28.44-15.65-26.81-7.71-55.39-5.08-64.89,0,0,8.47-29.71,38.21-59.52,1.24-1.25,7.85-7.79,15.74-17.32a125.49,125.49,0,0,0,11.63-15.63,116.1,116.1,0,0,0,9.72-21.06c2.93-8.76,18.62-55.73-6.12-81.56-1.73-1.82-15.86-16.14-34-13.62-22.77,3.16-31.72,30.7-31.95,32a2.49,2.49,0,0,0,.22,1.64c.37.59,1.15,1,1.53.81s.29-1.07.28-1.2c-.15-2,8.41-24.74,25.65-29.32,17-4.51,32.54,10.47,33.67,11.59,24.08,23.76,9.89,69.15,6.93,78.61a96.53,96.53,0,0,1-9,20c-3.84,6.13-7.71,10.44-13.39,16.71-7.12,7.85-12.91,13.25-13.8,14.08-31.63,29.67-40.33,61.93-40.33,61.93-2.39,9.09-10.65,40.44,7.56,68.06C69.46,414,84.46,421.68,92.28,425Z"/><path class="cls-2" d="M60.27,155.81a6.79,6.79,0,0,1,.27-2.19c.19-.8.47-1.57.71-2.35.2-.62.37-1.23.58-1.84,0-.12,0-.22.05-.35a3.77,3.77,0,0,1,.2-.75h0a43.31,43.31,0,0,0-2.57,6.59,2.49,2.49,0,0,0,.22,1.64,2,2,0,0,0,1,.8A3.78,3.78,0,0,1,60.27,155.81Z"/><path class="cls-2" d="M72.44,410.82l-.25-.19C55.29,397.17,51.38,375.68,49.8,367a99.32,99.32,0,0,1-1.34-24.39c-2.18,14.06-2.6,35.54,10.33,55.16C69.46,414,84.46,421.68,92.28,425A78.52,78.52,0,0,1,72.44,410.82Z"/><path class="cls-2" d="M110.82,247.61c-1.65,1.91-3.43,3.89-5.46,6.13-7.12,7.85-12.91,13.25-13.8,14.08A159.29,159.29,0,0,0,65.78,299c-.36,2.34-.51,4.76-.71,6.38a56,56,0,0,0-.45,6.84,170.15,170.15,0,0,1,29.82-40.12c1.24-1.25,7.85-7.79,15.74-17.32l1.28-1.54C111.22,251.4,111,249.5,110.82,247.61Z"/><path class="cls-2" d="M87.15,126.85c17-4.51,32.54,10.47,33.67,11.59,24.08,23.76,9.89,69.15,6.93,78.61-.58,1.85-1.22,3.62-1.87,5.31a121.55,121.55,0,0,0,8.73-29.25c1.41-8.61,3.37-19.48.16-32.59a53.49,53.49,0,0,0-7.38-17.27,40.6,40.6,0,0,0-10.9-11.39,39.52,39.52,0,0,0-17.14-6.58,32.94,32.94,0,0,0-10.67,0,24.32,24.32,0,0,0-3.84,1,26.28,26.28,0,0,0-9.66,6.22,36.28,36.28,0,0,0-6.77,9.05C72.68,135.35,78.92,129,87.15,126.85Z"/><path class="cls-5" d="M92.28,425c-.55.46-25.73-17.21-31.69-48.43-1-5.2-4-22.27,3.6-40.33,12.93-30.64,41.66-29,60.5-56.89,17.81-26.41,12.83-58.64,11.87-64.9-7.9-51.16-54-61.39-62.9-113.58-3.38-19.74,0-36.9,3.3-48.07C78,49.47,91.41,5.85,94.31,2a5.11,5.11,0,0,1,2.88-2,4,4,0,0,1,1.69.07A2.39,2.39,0,0,1,100.2,1c.64,1.13-1.08,3.23-1.3,3.51-3.71,4.7-14.74,38.44-18,50.77A138.92,138.92,0,0,0,77.56,96.6c4,53.65,52.5,61.26,62.12,115.4,1.31,7.41,7.48,42.13-11.39,69.68-18.43,26.91-46.25,25.84-59,56.62-7.3,17.68-4.81,34.23-4,38.89C70.14,407.06,92.82,424.55,92.28,425Z"/><path class="cls-2" d="M136.56,214.44c.79,5.16,4.31,28-4.5,50.7a44.76,44.76,0,0,0,4.49-11,74.41,74.41,0,0,0,2.3-11.84,106.74,106.74,0,0,0-4.31-42.12c-3.92-11.16-9.09-18.66-13.9-25.66-5.75-8.34-7.31-8.65-18-21.87s-16-19.87-19.72-27.41a100,100,0,0,1-9.18-32.14,113.83,113.83,0,0,1-.72-21.6,100.57,100.57,0,0,0,.6,29.37C82.59,153.05,128.66,163.28,136.56,214.44Z"/><path class="cls-2" d="M70.61,335.42c9.93-20.91,27.4-26.05,43.05-38.32l-.49.06a7.56,7.56,0,0,1-4.67-1C94.36,306.81,78.91,312,68.75,327.6A26.07,26.07,0,0,0,70.61,335.42Z"/><path class="cls-2" d="M82.19,413.89a47.65,47.65,0,0,1-8.14-9.6,109.25,109.25,0,0,1-8.81-17.69c-4.92-12.92-4.23-27.36-4.12-41a73.16,73.16,0,0,0-.53,31c6,31.22,31.14,48.89,31.69,48.43C92.53,424.79,87.81,420.93,82.19,413.89Z"/><path class="cls-5" d="M98.05,76.15a2,2,0,0,0-1.38,2.06c.09,1.12,1.37,1.86,1.62,2,1.81,1.13,8.21,9.59,21,26.5,13.26,17.55,13.56,44.56,13.57,46.52,0,19.37-6.91,33.78-14.25,49-3.2,6.66-3.23,5.58-18,30.7-11.54,19.69-17.37,29.67-20.07,35.92-8,18.45-13.59,31.46-10.79,46.87C72.74,332,84,345.29,92.69,355.59c9.4,11.15,16.22,15.49,18,26.19,1.46,8.94-1.53,16.81-3.25,21.36A56.08,56.08,0,0,1,92.28,425a42.77,42.77,0,0,0,18.89-21.58A39.8,39.8,0,0,0,113.08,380c-2.65-11-9.15-14.38-18.89-26.36-7.85-9.66-18.33-22.54-21-38.73-2.34-14.49,2.48-26.26,10-44.61,3.76-9.19,9-18.16,19.4-36.09,14.48-24.89,14.41-22.31,18.82-31.51,6-12.52,14.61-30.48,13.57-54.14-.73-16.44-5.77-28-11.08-40.12,0,0-4.76-10.9-23.73-31.18C99.74,76.79,98.9,76,98.05,76.15Z"/><path class="cls-2" d="M132.86,153.25c0,15.85-4.63,28.38-10.33,40.78.35-.51.68-1,1-1.55.45-.78.73-1.39.85-1.64,2.36-5,3.49-6.74,5.06-11a64.93,64.93,0,0,0,2.29-7.48c0-.11.58-2.48,1-5.19a86.45,86.45,0,0,0-9.55-56.09c-2.78-5-5.85-9.07-12-17.14-5.53-7.29-10.5-13.07-14.11-17.11a2.18,2.18,0,0,0-.42,1.38c.09,1.12,1.37,1.86,1.62,2,1.81,1.13,8.21,9.59,21,26.5C132.55,124.28,132.85,151.29,132.86,153.25Z"/><path class="cls-2" d="M113,388.18a41,41,0,0,0-5-16.82c-5.84-10.91-10.35-10.85-20.81-24.1a84.66,84.66,0,0,1-11.65-18.21,72.51,72.51,0,0,1-6.26-25.11,44.74,44.74,0,0,0,.56,11.83C72.74,332,84,345.29,92.69,355.59c9.4,11.15,16.22,15.49,18,26.19,1.46,8.94-1.53,16.81-3.25,21.36A56.08,56.08,0,0,1,92.28,425,39,39,0,0,0,113,388.18Z"/><path class="cls-5" d="M92.28,425c-.58.26-23-26.14-21.06-59.95,1.24-22.11,11.72-27,21.9-45.64,5.14-9.42,7.65-16.9,10.23-26.2,11.81-42.42,0-84.09-1.25-86.21a2.72,2.72,0,0,1-.46-2.18,1.22,1.22,0,0,1,1-.81c.79,0,1.46,1.34,1.69,1.84,18.06,40.19,2.11,88.24,2.11,88.24C92.14,337,76.42,337,74.46,365.22,72.11,399,92.85,424.73,92.28,425Z"/><path class="cls-2" d="M76.16,392.47c-2.32-7.23-4.57-14.69-5-22.25.46,31.28,20.6,55,21.15,54.77.29-.13-4.85-6.78-9.71-17.66A77.5,77.5,0,0,1,76.16,392.47Z"/><path class="cls-2" d="M109.92,269.8c2.35-19.94-.4-39.38-6.34-58.19,3.23,12.25,9.49,46.66-.23,81.59-2.58,9.3-5.09,16.78-10.23,26.2-5.26,9.65-10.59,15.61-14.7,22.16.46,1.11.93,2.23,1.42,3.35,6.24-12.06,16.75-21.28,26.55-50.83a138,138,0,0,0,4.5-19.72A7.51,7.51,0,0,1,109.92,269.8Z"/><path class="cls-4" d="M95.57,214.81a31.22,31.22,0,0,0-37.45-7.56c-15.5,7.94-21.76,28.88-12.37,44,9.94,16,33.46,19.11,47.25,6.61C105,247,106.28,227.38,95.57,214.81Z"/><path class="cls-3" d="M57.36,249.81c-7-6.82-9.54-16-10.7-25.33-.24-1.94-.41-4-.46-6.07-6,9.73-6.8,22.62-.45,32.84,9.94,16,33.46,19.11,47.25,6.61a27.69,27.69,0,0,0,2.08-2.12C83.5,262,67.42,259.66,57.36,249.81Z"/><path class="cls-4" d="M121.09,250c-33.19,9.13-51.8,44.4-41.41,75.62,10.55,31.71,47.57,48.93,77.77,35.65C185.72,348.83,198,314.07,186.62,286,176.47,261,149.32,245.72,121.09,250Z"/><path class="cls-3" d="M168.77,343.29c-24.39,3-49.76-4.31-63.58-25.67-9.88-15.29-13.29-34.16-10.74-52.09C79,281,72.57,304.25,79.68,325.61c10.55,31.71,47.57,48.93,77.77,35.65a54.26,54.26,0,0,0,23.9-20.69A66.14,66.14,0,0,1,168.77,343.29Z"/></g></svg>