<svg xmlns="http://www.w3.org/2000/svg" viewBox="0 0 239.21 425"><defs><style>.cls-1{fill:#66082a;}.cls-2{fill:#c42254;}.cls-3{fill:#dd2d4a;}.cls-4{fill:#880d1e;}</style></defs><g id="Layer_5" data-name="Layer 5"><path class="cls-1" d="M238,308.82c-5.63-32.35-32.66-66.09-57-64.56-8.82.54-19.11,5.83-25.11,12.5-3.11,3.44-5.07,7.25-5.08,11,0,4.69,3.11,10,5.87,10.06,2.13,0,3-3.06,5-6.22a13.65,13.65,0,0,1,4.49-4.68c5.65-3.43,14.58-2.18,19.29,2,8.36,7.35,4.45,24.71-.58,35.35-.26.58-.54,1.14-.82,1.67A59.63,59.63,0,0,1,159.92,330h0a54.26,54.26,0,0,1-7.29,3.32h0c-8.6,3.17-17.78,4-26.4,1.29-16.16-5-24.07-20.39-24.8-21.87-4.23-8.49-5.6-18-5-28.06h0C98.27,253.12,119.63,217,133.33,195l3-4.82c7.57-12.1,32.09-50.35,35.62-86.37.17-1.8.24-3.37.29-4.81.32-11-.43-37.58-16.35-63.08-14.33-23-36.63-38.21-39.48-35.64-.39.35-.34.93,0,1.71,2.78,5.83,23.81,23.34,28.47,46.91,3.34,16.9-2.78,31.6-14.12,46.13-19.09,24.46-53,48.39-81.47,81.28C29.7,199,12.64,226,4.83,260.32a176.93,176.93,0,0,0-4.36,53h0c1.42,18.22,6.35,38.73,18.5,57.92,4.16,6.55,23.14,36.62,58.27,48.3h0c.71.24,1.42.47,2.15.68,16.79,5.11,33.62,4.86,47.42,4.65,12.18-.17,30.75-.44,45.76-5.43,15.71-5.22,30.88-16.72,42.75-31.74h0a115.4,115.4,0,0,0,13.28-21.09v0C237.36,348.78,241.43,328.56,238,308.82Zm-53-55.26c.45,0,.84.07,1.16.11ZM59.22,363.72c1.45.41,2.91.79,4.38,1.15C62.13,364.52,60.67,364.14,59.22,363.72Z"/></g><g id="Layer_6" data-name="Layer 6"><path class="cls-2" d="M130.81,95c11.34-14.53,17.46-29.24,14.12-46.13C140.27,25.33,119.25,7.81,116.47,2,131,13.32,152.73,33.82,154.31,61c1.2,20.53-9.66,35.41-25.38,51.21A130.26,130.26,0,0,1,130.81,95Z"/><path class="cls-3" d="M172.26,99c0,1.43-.12,3-.3,4.81-3.53,36-28,74.27-35.61,86.37l-3,4.82a131.69,131.69,0,0,0,1.34-29.41c-1.25-18.57-5.88-27.78-5.87-47.8,0-1.88,0-3.73.13-5.56,15.72-15.8,26.58-30.68,25.38-51.21-1.58-27.2-23.33-47.7-37.84-59-.38-.78-.43-1.36,0-1.71,2.85-2.57,25.15,12.66,39.47,35.64C171.82,61.42,172.58,88,172.26,99Z"/><path class="cls-1" d="M130.81,95a130.26,130.26,0,0,0-1.88,17.2c-22.08,22.2-53.73,46.22-75,90.34-.64-1.7-1.24-3.46-1.76-5.3-.13-.44-.25-.89-.37-1.35-.09-.31-.17-.64-.26-1s-.19-.76-.27-1.15c-.18-.73-.34-1.46-.49-2.22a76.91,76.91,0,0,1-1.48-15.26C77.81,143.42,111.73,119.49,130.81,95Z"/><path class="cls-4" d="M133.33,195c-13.7,22-35.07,58.12-36.93,89.63a222.83,222.83,0,0,0-21.26-46.11c-.67-1.1-1.34-2.16-2-3.21-.34-.52-.66-1-1-1.55-1.09-1.71-2.17-3.35-3.22-4.94-.46-.68-.9-1.36-1.35-2-.54-.82-1.08-1.61-1.6-2.4l-2.12-3.23c-1.67-2.57-3.25-5.1-4.71-7.69-.75-1.33-1.48-2.68-2.16-4-.37-.74-.73-1.48-1.08-2.23s-.67-1.51-1-2.28-.64-1.55-.94-2.35c21.23-44.12,52.88-68.14,75-90.34-.08,1.83-.13,3.68-.13,5.56,0,20,4.62,29.23,5.87,47.8A131.69,131.69,0,0,1,133.33,195Z"/><path class="cls-2" d="M59.21,363.71h0c-.84-.24-1.68-.49-2.51-.75l-2.3-.76-.94-.32-1.75-.64c-.69-.26-1.37-.52-2-.8-.28-.1-.55-.21-.83-.33-.66-.27-1.3-.54-2-.83s-1.57-.69-2.33-1l0,0-2.3-1.12c-.77-.39-1.52-.78-2.27-1.19C19.27,344.7,7.29,327.59.47,313.36h0a176.93,176.93,0,0,1,4.36-53C12.64,226,29.7,199,49.34,176.31a76.91,76.91,0,0,0,1.48,15.26c.15.76.31,1.49.49,2.22.08.39.18.77.27,1.15s.17.67.26,1c.12.46.24.91.37,1.35.52,1.84,1.12,3.6,1.76,5.3q-2.51,5.2-4.81,10.8c-6.52,15.86-31.2,75.91-3.36,130A119,119,0,0,0,59.21,363.71Z"/><path class="cls-3" d="M152.61,333.28a72.86,72.86,0,0,1-13.75,15.92C124,362,105.17,367.57,86.39,367.56l-1.7,0-1.39,0-1.1,0-2-.12c-.43,0-.87-.05-1.29-.09l-.32,0-1.38-.13c-.51,0-1-.1-1.53-.16l-1.53-.18c-2-.25-4.06-.57-6.07-.95l-1.5-.3-1.49-.32-1.49-.33c-1.47-.35-2.93-.73-4.38-1.15h0A119,119,0,0,1,45.8,343.32c-27.84-54-3.16-114.09,3.36-129.95q2.3-5.6,4.81-10.8c.29.8.61,1.58.94,2.35s.65,1.53,1,2.28.71,1.49,1.08,2.23c.68,1.37,1.41,2.72,2.16,4,1.46,2.59,3,5.12,4.71,7.69L66,224.4c.52.79,1.06,1.58,1.6,2.4.45.66.89,1.34,1.35,2,1,1.59,2.13,3.23,3.22,4.94.33.51.65,1,1,1.55.66,1.05,1.33,2.11,2,3.21A222.83,222.83,0,0,1,96.4,284.63h0c-.59,10,.78,19.57,5,28.06.74,1.48,8.65,16.83,24.8,21.87C134.83,337.26,144,336.45,152.61,333.28Z"/><path class="cls-1" d="M132.93,405.54l-.15.09c-1.17.66-2.34,1.3-3.52,1.91l-1.83.93c-.61.31-1.22.59-1.83.88l-1.33.62c-.78.36-1.55.69-2.33,1l-1.82.76-1.82.7c-.5.2-1,.39-1.54.58l-.44.16c-.55.2-1.09.39-1.62.56s-1.06.36-1.58.53l-.39.12-1,.33c-.46.15-.91.28-1.36.41s-1.19.34-1.77.49c-2.45.68-4.86,1.24-7.25,1.72l-1.76.34-1.73.31-1.65.27c-1.75.25-3.46.47-5.15.66l-1.65.16-1.87.16-2.28.15-2.21.11h-.44l-2.6.06H77.24C42.11,407.9,23.12,377.83,19,371.28,6.82,352.09,1.89,331.58.47,313.36c6.82,14.23,18.8,31.34,39.45,42.54.75.41,1.5.81,2.27,1.19l2.3,1.12,0,0c.76.36,1.55.71,2.33,1s1.29.56,2,.83c.28.12.55.23.83.33.68.28,1.36.54,2,.8s1.16.44,1.75.64l.94.32c.76.26,1.53.52,2.3.76s1.67.51,2.51.75h0a115.32,115.32,0,0,0,46.95,34.94A110.87,110.87,0,0,0,132.93,405.54Z"/><path class="cls-4" d="M186.65,320.69c.17,36.55-25.42,67.94-52,83.83l-1.74,1a110.87,110.87,0,0,1-26.77-6.88,115.32,115.32,0,0,1-46.95-34.94c1.45.41,2.91.79,4.38,1.15l1.49.33,1.49.32,1.5.3c2,.38,4,.7,6.07.95l1.53.18c.5.06,1,.12,1.53.16l1.38.13.32,0c.42,0,.86.07,1.29.09l2,.12,1.1,0,1.39,0,1.7,0c18.78,0,37.62-5.54,52.47-18.36a72.86,72.86,0,0,0,13.75-15.92h0a56.14,56.14,0,0,0,7.29-3.32h0a93.63,93.63,0,0,0,26.37-16.34v0c0,.33.07.67.09,1l.09,1.08c0,.27,0,.55.05.82,0,.61.06,1.23.08,1.84S186.65,319.91,186.65,320.69Z"/><path class="cls-1" d="M186.29,313.61A93.63,93.63,0,0,1,159.92,330,59.75,59.75,0,0,0,184,305.87c.27-.53.55-1.09.82-1.67l.27,1.29q.09.43.18.9h0c.09.5.19,1,.27,1.5C185.84,309.71,186.1,311.62,186.29,313.61Z"/><path class="cls-2" d="M215.35,387.74c-11.87,15-27,26.52-42.75,31.74-15,5-33.59,5.25-45.76,5.43-13.8.21-30.63.46-47.43-4.65-.72-.22-1.44-.44-2.14-.68H80l2.6-.06H83l2.21-.11,2.28-.15,1.87-.16,1.65-.16c1.69-.19,3.4-.41,5.15-.66l1.65-.27,1.73-.31,1.76-.34c2.39-.48,4.8-1,7.25-1.72.58-.15,1.18-.32,1.77-.49s.9-.26,1.36-.41l1-.33.39-.12c.52-.17,1-.34,1.58-.53s1.07-.36,1.62-.56l.44-.16c.52-.18,1-.37,1.54-.58s1.22-.45,1.82-.7,1.21-.5,1.82-.76c.78-.33,1.55-.66,2.33-1,.44-.19.88-.4,1.33-.62.6-.28,1.21-.57,1.83-.88s1.22-.61,1.83-.93c1.18-.6,2.35-1.25,3.52-1.91l.15-.09c30.16,3.87,54.74-5.27,61.73-7.87A125.63,125.63,0,0,0,215.35,387.74Z"/><path class="cls-3" d="M228.65,366.62v0a115.73,115.73,0,0,1-13.29,21.1h0a125.63,125.63,0,0,1-20.69,9.93c-7,2.6-31.57,11.74-61.73,7.87l1.74-1c26.56-15.89,52.15-47.28,52-83.83,0-.78,0-1.54-.05-2.3s0-1.23-.08-1.84c0-.27,0-.55-.05-.82l-.09-1.08c0-.34,0-.68-.09-1v0c12.15-11,18.23-23.74,16.29-34.84-1.4-8-7.94-20.49-19-23.2a24.11,24.11,0,0,0-11.1.16,20.17,20.17,0,0,1,2.18-.91c.21-.08.41-.15.62-.21l.19-.06.5-.14c.21-.07.43-.13.65-.18l.88-.21.6-.12c.2,0,.39-.07.59-.09s.53-.08.78-.11l.72-.09c.52-.05,1-.09,1.49-.1l.63,0a25,25,0,0,1,2.7.07l1.15.11.3,0c15.13,2,24,18.24,28.7,26.74C230.28,307.83,230.93,341.85,228.65,366.62Z"/><path class="cls-2" d="M186.29,313.61c-.19-2-.45-3.9-.75-5.71-.08-.51-.18-1-.27-1.5h0q-.09-.47-.18-.9l-.27-1.29c5-10.64,8.93-28,.58-35.35-4.71-4.14-13.65-5.39-19.29-2a13.47,13.47,0,0,0-4.49,4.68,20.89,20.89,0,0,1,5.84-12.27c.16-.16.32-.32.49-.47l.44-.39a17.7,17.7,0,0,1,1.82-1.4l.56-.36.37-.22.36-.21c.32-.19.63-.35.95-.51h0a24.11,24.11,0,0,1,11.1-.16c11.06,2.71,17.6,15.18,19,23.2C204.52,289.87,198.44,302.65,186.29,313.61Z"/><path class="cls-1" d="M172.45,255.74c-.32.16-.63.32-.95.51l-.36.21-.37.22-.56.36a17.7,17.7,0,0,0-1.82,1.4l-.44.39c-.17.15-.33.31-.49.47a20.89,20.89,0,0,0-5.84,12.27c-2,3.16-2.82,6.27-5,6.22-2.76-.06-5.88-5.37-5.87-10.06,0-3.72,2-7.54,5.07-11-2.43,8.05-2.12,10.16-1.36,10.55,1.45.74,4.27-4.93,10.62-8.67A26.53,26.53,0,0,1,172.45,255.74Z"/><path class="cls-4" d="M228.65,366.62c2.28-24.77,1.63-58.79-13.49-86.17-4.7-8.5-13.57-24.7-28.7-26.74l-.3,0c-.32,0-.7-.08-1.15-.11a25,25,0,0,0-2.7-.07l-.63,0c-.48,0-1,.05-1.49.1l-.72.09c-.25,0-.51.06-.78.11l-.59.09-.6.12c-.29.06-.59.13-.88.21s-.44.11-.65.18l-.5.14-.19.06-.62.21a20.17,20.17,0,0,0-2.18.91h0a26.53,26.53,0,0,0-7.32,2.9c-6.35,3.74-9.17,9.41-10.62,8.67-.76-.39-1.07-2.5,1.36-10.55,6-6.67,16.3-12,25.11-12.5,24.35-1.53,51.38,32.21,57,64.55C241.43,328.56,237.35,348.78,228.65,366.62Z"/></g></svg>