<svg xmlns="http://www.w3.org/2000/svg" viewBox="0 0 301.2 459"><defs><style>.cls-1{fill:#1e39a3;}.cls-2{fill:#d9a20b;}.cls-3{fill:#ffbf00;}.cls-4{fill:#4168e5;}.cls-5{fill:#365bd6;}.cls-6{fill:#2846b2;}</style></defs><g id="Layer_7" data-name="Layer 7"><polygon class="cls-1" points="191.54 80.82 170.71 115.54 149.87 120.68 129.04 115.54 108.21 80.82 149.87 0 191.54 80.82"/><polygon class="cls-1" points="301.2 230.36 283.26 254.73 267.39 257.09 252.25 251.8 239.19 224.5 275.68 169.42 301.2 230.36"/><polygon class="cls-1" points="78.1 143.75 68.23 163.95 56.95 167.79 45.17 165.93 32 147.71 51.35 102.6 78.1 143.75"/><polygon class="cls-2" points="264.63 308.29 213.55 355.46 230.38 429.15 150.46 459 70.53 429.15 110.29 249.99 56.74 209.54 51.1 139.08 70.44 192.26 119.53 209.54 149.87 76.64 201.02 300.59 247.7 281.08 277.52 222.08 264.63 308.29"/></g><g id="plant_7" data-name="plant 7"><g id="crystals"><polygon class="cls-3" points="149.88 76.64 230.38 429.15 150.46 459 149.88 76.64"/><polygon class="cls-3" points="277.52 222.07 247.71 281.08 201.01 300.59 196.55 336.49 252.94 304.26 277.52 222.07"/><polygon class="cls-3" points="51.1 139.08 70.44 192.26 119.53 209.53 122.81 234.97 65.2 206.36 51.1 139.08"/><polygon class="cls-2" points="51.1 139.08 65.2 206.36 122.81 234.97 110.3 249.99 56.74 209.53 51.1 139.08"/><polygon class="cls-2" points="149.88 76.64 150.46 459 70.53 429.15 110.3 249.99 122.81 234.97 119.53 209.53 149.88 76.64"/><polygon class="cls-2" points="277.52 222.07 252.94 304.26 196.55 336.49 213.54 355.46 264.63 308.29 277.52 222.07"/><polygon class="cls-4" points="149.88 0 149.88 87.62 191.54 80.81 149.88 0"/><polygon class="cls-5" points="149.88 0 149.88 87.62 108.21 80.81 149.88 0"/><polygon class="cls-6" points="170.71 115.54 191.54 80.81 149.88 87.62 149.88 120.68 170.71 115.54"/><polygon class="cls-1" points="129.04 115.54 108.21 80.81 149.88 87.62 149.88 120.68 129.04 115.54"/><polygon class="cls-4" points="275.68 169.42 269.72 232.49 301.2 230.36 275.68 169.42"/><polygon class="cls-5" points="275.68 169.42 269.72 232.49 239.19 224.49 275.68 169.42"/><polygon class="cls-6" points="283.26 254.73 301.2 230.36 269.72 232.49 267.39 257.09 283.26 254.73"/><polygon class="cls-1" points="252.25 251.8 239.19 224.49 269.72 232.49 267.39 257.09 252.25 251.8"/><polygon class="cls-4" points="51.35 102.6 55.38 149.49 78.11 143.75 51.35 102.6"/><polyline class="cls-5" points="32 147.71 51.35 102.6 55.38 149.49 32 147.71"/><polygon class="cls-6" points="68.23 163.95 78.11 143.75 55.38 149.49 56.95 167.78 68.23 163.95"/><polyline class="cls-1" points="32 147.71 55.38 149.49 56.95 167.78 45.18 165.93"/></g></g></svg>