<svg xmlns="http://www.w3.org/2000/svg" viewBox="0 0 348.51 442.12"><defs><style>.cls-1{fill:#338ba0;}.cls-2{fill:#b13ace;}.cls-3{fill:#46aabb;}.cls-4{fill:#9830bf;}.cls-5{fill:#c55bde;}</style></defs><g id="Layer_3" data-name="Layer 3"><g id="stem"><path class="cls-1" d="M305.23,184.94c0,.37,0,.74,0,1.12v.07c0,.4,0,.81,0,1.22a88.88,88.88,0,0,1-11.68,42.23,85.25,85.25,0,0,1-10.29,14.21c-.61.67-1.21,1.33-1.82,2-.4.42-.8.84-1.21,1.24q-1.81,1.83-3.68,3.5c-.64.57-1.28,1.13-1.93,1.67l-1.14,1c-.47.38-.94.76-1.41,1.12a99.57,99.57,0,0,1-30.13,15.91C257,354,262.37,429,235.28,435.64c-3.91,1-8.12,1.82-12.55,2.58h-.06c-1.66.28-3.36.55-5.09.8l-1.92.27q-1.92.27-3.9.51l-3,.35-2.26.24c-1.52.16-3.05.3-4.6.44l-2.33.19-2.09.16c-1.57.11-3.15.22-4.75.31s-3.2.18-4.82.25l-3.24.13c-.72,0-1.44.06-2.17.07l-2.18.06c-1.37,0-2.74.06-4.11.07a4.69,4.69,0,0,1-.53,0c-1.41,0-2.82,0-4.23,0-2.89,0-5.79,0-8.69-.1l-4.19-.12-2.15-.08-2.16-.1a.2.2,0,0,1-.11,0l-2-.1c-5.15-.27-10.27-.64-15.3-1.13l-4.12-.43c-6.83-.75-13.47-1.71-19.78-2.89h0c-2.52-.48-5-1-7.39-1.52a16.66,16.66,0,0,1-2-.6c-.33-.12-.65-.26-1-.4s-.63-.3-.93-.47A15.11,15.11,0,0,1,99.86,433q-.44-.32-.84-.66t-.81-.72c-.26-.25-.51-.5-.76-.77s-.41-.45-.62-.69l-.23-.28c-.19-.23-.39-.48-.58-.73s-.52-.7-.77-1.08-.38-.58-.57-.89h0c-.21-.34-.41-.69-.61-1l-.54-1c-.25-.48-.48-1-.71-1.47-.16-.34-.31-.69-.46-1s-.35-.85-.52-1.28l0-.05c-.16-.42-.31-.85-.47-1.28s-.29-.84-.43-1.27l0-.11c-.15-.47-.3-.95-.44-1.43s-.23-.79-.34-1.19c-.18-.64-.35-1.31-.51-2-.36-1.51-.69-3.09-1-4.73l-.06-.33c-.12-.71-.24-1.44-.36-2.18-.42-2.74-.76-5.65-1-8.71,0-.46-.07-.93-.11-1.4l-.06-.89c0-.51-.07-1-.1-1.55,0-.23,0-.47,0-.71,0-.87-.1-1.74-.13-2.63s-.09-2.08-.11-3.15c0-.54,0-1.08,0-1.63s0-1.37,0-2.06c0-.47,0-.94,0-1.41,0-1.51,0-3.05,0-4.6,0-.88,0-1.77,0-2.66l0-1.09q.06-2.74.18-5.58c0-.37,0-.75,0-1.13.14-3.23.32-6.55.56-9.94.06-.93.13-1.87.2-2.81.09-1.18.18-2.37.28-3.56.06-.75.12-1.5.19-2.26.28-3.25.6-6.57,1-9.93.08-.81.17-1.61.26-2.42,0-.13,0-.26,0-.39.08-.75.16-1.5.25-2.25.12-1.09.24-2.17.37-3.26q.28-2.48.6-5,.51-4.14,1.08-8.35c.16-1.21.33-2.43.5-3.66.12-.87.24-1.74.37-2.61.19-1.37.39-2.75.59-4.14.34-2.26.68-4.52,1-6.81l.24-1.56c.29-1.86.58-3.74.89-5.62q.57-3.56,1.17-7.15t1.19-7l.63-3.61c.35-2,.71-4,1.08-6.05s.73-4,1.11-6.07q1.51-8.28,3.17-16.63c.49-2.53,1-5.07,1.51-7.61.08-.42.17-.84.25-1.25.43-2.12.86-4.25,1.3-6.37.25-1.23.5-2.46.76-3.69.39-1.9.79-3.81,1.19-5.71q2.63-12.49,5.39-24.85.68-3.06,1.37-6.1c.27-1.21.54-2.42.82-3.62q1.75-7.78,3.55-15.42c.33-1.42.67-2.84,1-4.25,2.33-9.89,4.67-19.56,7-28.89l1.6-6.45c.37-1.48.73-2.94,1.1-4.4q1.09-4.38,2.17-8.62c.37-1.46.74-2.91,1.1-4.35s.74-2.87,1.1-4.29c1.82-7.11,3.59-13.91,5.29-20.35l1.56-5.87a2.5,2.5,0,0,1,.07-.26c.43-1.66.87-3.28,1.29-4.89a.07.07,0,0,0,0,0c.14-.51.28-1,.41-1.52.29-1.06.57-2.11.85-3.14.21-.78.41-1.54.61-2.3l.85-3.12c.22-.79.42-1.55.63-2.32,0-.06,0-.13.05-.19l1.17-4.29c.2-.72.39-1.45.59-2.16.05-.2.11-.39.16-.59s.08-.31.13-.46l.42-1.54c.11-.43.23-.86.35-1.28l.87-3.15c.09-.33.19-.67.28-1l.24-.85a.29.29,0,0,0,0-.09.08.08,0,0,0,0,0c0-.13.07-.26.1-.38a.64.64,0,0,1,0-.07l.27-1c.09-.32.19-.65.27-1a2.17,2.17,0,0,0,.07-.24c.17-.59.33-1.16.49-1.74s.31-1.12.46-1.66l.46-1.63q.21-.76.42-1.5l1.35-4.8c.24-.83.46-1.62.67-2.35l.15-.54c.06-.18.11-.36.15-.53l.42-1.45s0,0,0,0c.16-.56.3-1.07.44-1.54,0-.16.09-.31.13-.46s.17-.57.24-.82.14-.48.2-.69.12-.41.17-.58.13-.46.18-.62a1.55,1.55,0,0,1,0-.15,1.27,1.27,0,0,1,0-.14s0,0,0,0a.31.31,0,0,0,0-.08v0l5.51,0,20.45.09s0,.14.13.42l.12.4c0,.08.05.16.07.25s.07.28.12.43c.13.43.28,1,.46,1.58.06.21.12.43.19.65s.14.52.23.79.1.32.14.49c.09.33.19.68.3,1,.06.18.11.37.16.56a.76.76,0,0,0,.06.2c.19.7.41,1.45.64,2.25.08.3.17.6.26.9.36,1.22.73,2.55,1.13,4,.1.36.2.72.31,1.09q.43,1.57.93,3.3c.18.66.37,1.33.57,2,.07.28.16.57.24.86s.2.75.31,1.12c.25.88.5,1.79.76,2.72q.22.84.48,1.71l1.11,4a.35.35,0,0,0,0,.13q1.06,3.81,2.2,8c.3,1.12.61,2.26.93,3.41s.63,2.34,1,3.53.57,2.11.86,3.19l.12.45c.28,1,.55,2.06.84,3.11.56,2.11,1.14,4.26,1.73,6.47.24.94.5,1.88.75,2.84q.76,2.88,1.55,5.86c.31,1.19.63,2.39.95,3.61,0,.13.07.26.1.4.34,1.28.68,2.57,1,3.88a1.6,1.6,0,0,1,0,.21c.36,1.38.73,2.77,1.09,4.17,8.51,32.85,18.26,72.63,26.82,113a74.48,74.48,0,0,0,33.95-17,73.6,73.6,0,0,0,15.55-19.52c1-1.74,1.78-3.4,2.49-4.94.18-.38.35-.76.5-1.12.82-1.84,1.46-3.5,2-4.89l11.88-.08,6,0c0,.31.08.65.12,1s.1.82.15,1.27l.06.56c0,.37.07.75.11,1.14,0,0,0,0,0,.06a0,0,0,0,1,0,.05c.05.6.11,1.23.15,1.9,0,.22,0,.45.05.68s0,.51,0,.77a.85.85,0,0,0,0,.16C305.19,181.74,305.24,183.29,305.23,184.94Z"/></g><g id="tops"><path class="cls-2" d="M271.09,13.32C271.09,42,255.77,67.5,232,83.77l-.13.09c-.91.62-1.82,1.22-2.75,1.81l-.28.18c-.89.56-1.8,1.12-2.72,1.66l-.33.19c-.92.54-1.86,1.07-2.81,1.58l-.29.16c-1,.56-2.09,1.11-3.16,1.64q-1.09.54-2.19,1c-.7.33-1.4.65-2.11,1l-.21.09c-.72.32-1.43.62-2.16.92s-1.51.61-2.28.91l-2.32.86q-1.15.42-2.34.81-1,.33-1.95.63c-1,.31-2,.62-3.07.91l-2.17.58h0c-.58.16-1.17.3-1.77.44l-.93.23-1.36.3c-1.16.25-2.33.49-3.51.7-.56.11-1.13.21-1.7.3-1.91.33-3.84.6-5.79.83-.57.06-1.14.13-1.72.18-1.21.12-2.43.23-3.66.31-.85.06-1.71.11-2.57.14-1.71.08-3.43.12-5.17.12C115,102.35,70,62.5,70,13.32,70,6,115,0,170.54,0S271.09,6,271.09,13.32Z"/><path class="cls-2" d="M337.18,165.62c-.53.59-1.07,1.18-1.63,1.75a2.39,2.39,0,0,1-.22.23c-.63.64-1.28,1.27-1.95,1.88s-1.4,1.25-2.14,1.84l-1.1.87-.06.05c-1.11.85-2.25,1.65-3.43,2.42-.81.52-1.62,1-2.46,1.5s-1.62.91-2.46,1.34l-.09,0c-.86.44-1.75.85-2.64,1.25l-1.35.58q-.69.28-1.38.54c-1.3.5-2.62,1-4,1.36l-.45.13-1.27.35c-.49.13-1,.26-1.47.37-1.64.4-3.32.72-5,1l-1,.15-1.61.19-1.5.13c-.34,0-.69.06-1,.07l-.82.05-.54,0c-.33,0-.65,0-1,0l-1.38,0c-29.44,0-53.3-21.12-53.3-47.2,0-3.9,23.86-7.06,53.3-7.06s53.31,3.16,53.31,7.06a43.63,43.63,0,0,1-11.24,29h0Z"/></g></g><g id="plant_10" data-name="plant 10"><g id="stem-2" data-name="stem"><path class="cls-3" d="M157.43,27.23S42.22,421.47,105.53,435.64c39.44,8.84,95.56,8.43,129.75,0C298.93,420,183.4,27.35,183.4,27.35Z"/><path class="cls-1" d="M222.74,438.22c-34.28,5.83-82.29,5.26-117.21-2.57-43.5-9.75-2.74-198.88,27.05-316.31,3-11.7,5.82-22.7,8.48-32.72.38-1.44.76-2.84,1.12-4.24q.84-3.13,1.63-6.13c.38-1.33.72-2.64,1.06-3.93.29-1,.56-2.1.85-3.12.22-.79.42-1.55.63-2.32,0-.07,0-.13.05-.19l1.17-4.29c.2-.72.39-1.45.59-2.16.05-.2.1-.38.16-.58.3-1.12.6-2.23.9-3.29s.58-2.13.87-3.15c.14-.5.28-1,.41-1.5.05-.18.1-.33.15-.49l.5-1.87c.08-.26.16-.52.23-.79.17-.59.33-1.16.49-1.74,3.08-11.08,5.08-18,5.48-19.34,0,0,0-.11,0-.14l0-.11,5.52,0,20.46.09s9.67,32.89,21.89,80c-11.14,5-26,7.66-42.67,8C153,176.32,143.34,222.38,140,270.6c-4.49,64.42-3.11,119.85,17.92,142C181,436.89,197,440.72,222.74,438.22Z"/><path class="cls-3" d="M286.56,172.85a74.44,74.44,0,0,1-20.5,30.47c-17.83,15.85-38,18.12-44.82,18.58,0,0-10.31,3.13-8.29,26.14,2.2,25.1,15.15,25.55,15.15,25.55,5.54-.89,44.55-7.84,65.42-44,14.08-24.4,12-48.44,10.92-56.84Z"/><path class="cls-1" d="M304.44,172.74l-6,0a9.65,9.65,0,0,1-.21,2.52l.18-.16c4,0-1.37,39.67-31.5,63-22.54,17.46-41.89,19.11-52.69,18.18,4,16.93,13.89,17.27,13.89,17.27,5.52-.89,44.53-7.84,65.41-44C307.6,205.17,305.55,181.13,304.44,172.74Z"/><path class="cls-1" d="M301.91,189.67c.81.1,1.6.17,1.6.17l1.58.13a93.44,93.44,0,0,0-.65-17.24l-17.88.12a75.71,75.71,0,0,1-4.95,11A44.36,44.36,0,0,0,293,188.26S296.26,189,301.91,189.67Z"/></g><g id="tops-2" data-name="tops"><path class="cls-2" d="M271.09,13.32c0,49.18-45,89-100.54,89S70,62.5,70,13.32c0,7.35,45,13.33,100.55,13.33S271.09,20.67,271.09,13.32Z"/><path class="cls-4" d="M189.14,90.71c-21.15.65-42.64-3.64-57.9-19.31-12.46-12.81-19.93-30-22.53-47.58C85.16,21.38,70,17.59,70,13.32c0,49.18,45,89,100.55,89C199,102.35,224.69,91.87,243,75,227,85.48,208.49,90.12,189.14,90.71Z"/><ellipse class="cls-5" cx="170.55" cy="13.32" rx="100.55" ry="13.32"/><path class="cls-2" d="M348.51,136.55c0,26.08-23.86,47.2-53.31,47.2s-53.3-21.12-53.3-47.2c0,3.9,23.87,7.07,53.3,7.07S348.51,140.45,348.51,136.55Z"/><path class="cls-4" d="M298.51,176.34c-22-.59-38.8-13.77-41.26-34.83-9.49-1.28-15.35-3-15.35-5,0,26.08,23.87,47.2,53.3,47.2,17.11,0,32.33-7.15,42.08-18.24A68.84,68.84,0,0,1,298.51,176.34Z"/><path class="cls-5" d="M348.51,136.55c0,3.9-23.86,7.07-53.31,7.07s-53.3-3.17-53.3-7.07,23.87-7.06,53.3-7.06S348.51,132.65,348.51,136.55Z"/></g></g></svg>