<svg xmlns="http://www.w3.org/2000/svg" viewBox="0 0 217.81 425"><defs><style>.cls-1{fill:#ba5842;}.cls-2{fill:#0e0b16;}.cls-3{fill:#ed6a5a;}.cls-4{fill:#d3644f;}.cls-5{fill:#242038;}</style></defs><g id="Layer_5" data-name="Layer 5"><path class="cls-1" d="M216.74.37c-.8-.55-2.32-.71-5.6,1.15C189.05,14,177.76,27,177.76,27c-18.14,20.88-27.48,38.55-30.11,43.88-6.8,13.77-14.36,29.86-19,62.54q-.93,6.62-1.74,13.26-.58,4.68-1.12,9.36t-1,9.36c-.15,1.33-.29,2.66-.43,4q-.8,7.38-1.55,14.75l-1,9.9q-.47,4.42-.94,8.85c-.33,3.12-.67,6.25-1,9.37s-.71,6.23-1.08,9.35c-3.66,30.64-5.61,51.41-8.34,69.86.07.82.14,1.64.2,2.46q-.09-1.21-.21-2.43h0c0-.17,0-.34,0-.51v-.05l0-.28c-.07-.9-.15-1.79-.23-2.69,0-.2,0-.39,0-.59-.1-1.2-.21-2.41-.32-3.61v0c-1.56-16.63-2.39-16.88-5.73-47.39-7.18-65.41-3.59-66.22-8.53-93.27-.16-.91-.33-1.81-.49-2.7-.06-.3-.11-.59-.17-.89-.13-.72-.27-1.43-.39-2.12-.57-3-1.14-6-1.67-8.7-.09-.41-.17-.83-.25-1.23l-.36-1.79c0-.23-.09-.45-.14-.68q-1.2-5.79-2.7-11.83h0C83.79,91.21,74.81,67.4,56.46,45.36,31.68,15.59,3,4.8,1.63,5.73,0,6.87,0,8,0,8a2.11,2.11,0,0,0,0,.25c0,1.69,2.77,3.4,2.77,3.4,2,1.33,8.2,6.16,17,13.07A110.44,110.44,0,0,1,36.51,41h0q1.54,1.85,2.88,3.59c.24.3.46.59.67.87.87,1.14,1.67,2.24,2.4,3.29.38.52.73,1,1.06,1.52,1.73,2.54,3,4.67,3.9,6.18l.36.63c.67,1.19,1,1.85,1,1.85a162.78,162.78,0,0,1,20,46.25c7.24,25.9,8.57,37.39,8.67,42.88,0,.19,0,1,0,2.05,0,3.37,0,7.21,0,22.19s0,22.43,0,25.25c0,6.6-.59,27.78-14.15,80.81C53,318.56,51.4,313.94,50.16,327.82c-2.31,26,3.16,43.91,9.05,55.06a51.39,51.39,0,0,0,8.86,12.46l.55.52c.27.25.52.46.74.65a18.16,18.16,0,0,0,3,2,15.9,15.9,0,0,0,3.17,1.21c.44.12.87.21,1.31.3l1.15.17,1.2.11h.07c.4,0,.81,0,1.21,0a26.17,26.17,0,0,0,4.17-.35c.54-.09,1.08-.2,1.6-.31l.79-.18c.7-.17,1.37-.36,2-.56h0c.47-.15.94-.3,1.39-.46L91.8,398l1.22-.49c.59-.24,1.14-.49,1.65-.73l1-.46c1.48-.73,2.42-1.3,2.59-1.41l.53-.35a4,4,0,0,0,.34-.23l.18-.13a1.84,1.84,0,0,0,.22-.17h0a3.79,3.79,0,0,0,.4-.3l-.16.13-.23.18,24,8.59h0q3-5.83,5.58-11.44c.57-1.25,1.13-2.49,1.67-3.72q1.94-4.44,3.64-8.73,1-2.46,1.86-4.87,1.19-3.19,2.24-6.32c.36-1,.7-2.07,1-3.1s.65-2,1-3a211.94,211.94,0,0,0,7.19-31.59c.24-1.63.46-3.23.65-4.79s.38-3.22.53-4.76.26-2.87.37-4.25.19-2.72.26-4c0-.27,0-.54.05-.81,0-.52.06-1.06.09-1.6a.27.27,0,0,0,0-.09c0-.54.06-1.09.09-1.66s.06-1.17.09-1.77,0-1.22.07-1.85a232.61,232.61,0,0,0-.8-28.58q-1.69-21.08-2.84-42.24c-.19-3.52-.36-7.05-.52-10.57s-.32-7.05-.45-10.58c-.11-2.65-.2-5.3-.29-7.95q-.1-3.08-.19-6.15l-.09-3.52c0-1.18-.07-2.35-.1-3.53,0-.61,0-1.2,0-1.79s0-1.16,0-1.73c0-.76,0-1.51,0-2.24q0-1.65-.06-3.21c0-.81,0-1.61,0-2.39s0-1.46,0-2.18c-.05-4.59,0-8.65,0-12.49,0-.88.05-1.74.08-2.6l0-.71c0-.82.06-1.63.1-2.44.07-1.31.15-2.62.24-3.94,0-.84.12-1.69.19-2.54.06-.67.11-1.34.17-2,.15-1.58.31-3.19.5-4.85.61-5.53,1.38-10.79,2.24-15.74.14-.82.29-1.64.44-2.45.29-1.61.6-3.19.91-4.74l.48-2.29c.22-1,.44-2.06.67-3.07s.46-2,.69-3,.46-1.93.7-2.86.47-1.85.71-2.75h0q1.07-4,2.13-7.59.79-2.65,1.56-5c.13-.39.25-.78.38-1.16,1.38-4.19,2.64-7.62,3.64-10.21l.48-1.22a.69.69,0,0,1,.05-.13,228.66,228.66,0,0,1,11.88-25.52c4.61-8.46,7.22-13.24,11.89-19.34C191.62,29.64,210,8.8,215.41,5.64c.42-.25,2.18-1.21,2.38-2.78A2.75,2.75,0,0,0,216.74.37ZM102,391.81l.12-.13h0Zm.15-.15h0l0,0Z"/><path class="cls-2" d="M172.75,373c-2.05,8.74-5,17.22-10.46,24.65-.62.85-1.27,1.69-2,2.51-.34.42-.69.82-1.05,1.23s-.77.85-1.18,1.27-.66.68-1,1-.86.83-1.3,1.23a40.29,40.29,0,0,1-5.5,7.75h0c-.12.14-.25.27-.38.41-.37.41-.77.82-1.18,1.21s-.84.81-1.29,1.21l-.87.75c-.31.26-.63.52-1,.77s-.7.54-1.06.8a33.94,33.94,0,0,1-4.3,2.65c-.43.22-.85.43-1.28.63l-.06,0c-.43.2-.87.39-1.3.57s-.87.35-1.31.51l-1.33.46c-.48.15-1,.3-1.45.43s-1,.26-1.46.38-1,.23-1.54.34l-1.17.22c-.6.11-1.21.2-1.81.29l-1.08.13-1.09.12c-1.27.13-2.55.22-3.86.29l-1.88.07-2.19.05c-2.2,0-4.47,0-6.8,0-3.24,0-6.17,0-8.85-.09l-3.87-.1-1.19-.05a81,81,0,0,1-8.55-.74c-.32,0-.64-.1-1-.15l-.93-.17-.82-.16-1.38-.32c-.31-.07-.62-.15-.92-.24s-.61-.17-.91-.27c-.9-.27-1.78-.59-2.65-.94l-.8-.33-.38-.18-.65-.3c-.53-.25-1.07-.53-1.6-.82s-1.18-.67-1.75-1l-1.13-.72-.5-.33c-.39-.26-.78-.53-1.15-.8-1-.69-1.88-1.42-2.76-2.17l-.83-.71c-1.27-1.13-2.48-2.33-3.62-3.56-.38-.41-.75-.82-1.11-1.24s-.79-.91-1.17-1.38a63.48,63.48,0,0,1-5.46-7.87q-.34-.57-.66-1.14c-.44-.76-.85-1.52-1.25-2.27-.25-.48-.51-1-.75-1.46-.14-.29-.28-.57-.41-.85l-.41-.84h0c-.2-.43-.4-.86-.59-1.29-.39-.85-.75-1.7-1.1-2.53-.17-.41-.34-.82-.5-1.23s-.3-.78-.45-1.15l-.1-.27c-.2-.51-.38-1-.56-1.51-.62-1.73-1.14-3.35-1.59-4.8-.19-.62-.36-1.21-.52-1.76l0-.08c-.05-.16-.09-.32-.13-.47l-.28-1-.25-.92c0-.22-.11-.45-.16-.65l-.29-1.16c-.06-.26-.11-.49-.16-.69l-.08-.33,0-.15c-.07-.29-.14-.6-.22-.95s-.11-.54-.17-.84c-.14-.72-.29-1.56-.42-2.54,0-.25-.07-.51-.1-.78a.31.31,0,0,1,0-.1c0-.33-.08-.68-.12-1,0-.19,0-.37,0-.56s-.05-.47-.07-.71,0-.36,0-.54q0-.68-.09-1.41c0-.5,0-1-.07-1.58,0-1.41-.07-3,0-4.69,0-.8,0-1.63,0-2.5v0c0-.87.06-1.78.11-2.73v0c0-1,.1-1.94.17-3,0-.59.08-1.19.13-1.82s.1-1.24.15-1.88c.12-1.27.24-2.61.38-4,.06-.64.13-1.29.2-2,0-.1,0-.2,0-.3.16-1.4.33-2.86.52-4.38l0-.26c.1-.7.19-1.41.29-2.13.34-2.51.69-4.9,1-7.19.21-1.38.44-2.72.67-4q.52-3,1.07-5.77.09-.46.18-.9c.33-1.6.66-3.14,1-4.64l.76-3.31c.32-1.33.63-2.61,1-3.87.24-.92.48-1.82.71-2.71l.36-1.33c.25-.88.49-1.75.73-2.61.37-1.28.74-2.55,1.11-3.8l.75-2.49c.28-.93.57-1.85.85-2.77l1.29-4.12c.15-.46.29-.92.43-1.38,0-.1.07-.21.1-.31.26-.82.51-1.64.77-2.46s.51-1.66.77-2.5c.32-1,.64-2.1,1-3.17s.58-1.93.86-2.92c.57-2,1.15-4,1.71-6.14s1.13-4.32,1.68-6.62c.14-.58.28-1.16.41-1.75a1.46,1.46,0,0,0,0-.2c.26-1.11.52-2.25.77-3.42s.45-2.08.67-3.15c.17-.86.35-1.73.52-2.62.27-1.33.53-2.69.78-4.1s.51-2.85.76-4.33c.47-2.76.88-5.44,1.25-8.05.25-1.74.49-3.44.7-5.11.32-2.51.6-4.93.85-7.29.12-1.14.24-2.27.34-3.38s.21-2.2.3-3.28.18-2.14.26-3.18q.26-3.14.42-6.07c.07-1,.12-1.94.17-2.89q.12-2.13.21-4.17c.07-1.35.13-2.67.18-4s.1-2.54.15-3.76c1.45-36.66-2-59.91-3-66.47-.19-1.24-.39-2.43-.59-3.59-.09-.58-.18-1.14-.29-1.69-.48-2.76-1-5.22-1.37-7.33h0c-.23-1.13-.45-2.15-.64-3.07a212.7,212.7,0,0,1,8.33,29.6C81.45,156,84.6,188.2,68.67,266c-12.14,59.31-21,76-10.22,100.85A77.14,77.14,0,0,0,73.7,390.06l-.53.05.54,0,.16,0c.43,0,.87-.08,1.32-.13l.68-.07,1-.11c.61-.07,1.22-.16,1.85-.25l1.31-.2a.9.9,0,0,0,.16,0c1-.15,2-.34,3-.55l.12,0c1-.2,2-.42,3-.67.52-.12,1-.26,1.57-.4h0a66.28,66.28,0,0,0,6.48-2.06c.55-.2,1.09-.41,1.64-.63l.13-.05c.51-.2,1-.41,1.51-.64,1.09-.46,2.18-1,3.27-1.52h0c.54-.26,1.09-.55,1.63-.85s1.09-.59,1.63-.91,1.08-.63,1.61-1,1.07-.67,1.6-1c.27-.17.53-.35.79-.54.8-.54,1.59-1.12,2.37-1.72.52-.4,1-.81,1.55-1.24s1-.85,1.53-1.3c15-13.28,20-31.3,23.1-58.33,6.76-58.22,1.39-89.68,2.65-126.51q.12-3.5.34-7.29c0-.56.06-1.13.1-1.7.05-.75.1-1.52.15-2.29q.24-3.28.55-6.76c.08-.87.17-1.75.26-2.64s.19-1.89.3-2.85.21-1.86.32-2.8.25-2.05.38-3.09.27-2,.41-3c.7-5.1,1.56-10.44,2.62-16,.21-1.11.42-2.23.65-3.36q1.35-6.78,3.1-14a362.33,362.33,0,0,1,11.66-38.4A342,342,0,0,0,150,140.06c-1.19,11.55-5,54.65,6.82,118.17C167.14,313.6,181.7,334.75,172.75,373Z"/></g><g id="Layer_3" data-name="Layer 3"><path class="cls-3" d="M95.48,143.08c-5.22-28.59-11.86-65.09-39-97.72C31.68,15.59,3,4.8,1.64,5.73,0,6.87,0,8,0,8H0c-.29,1.76,2.75,3.65,2.75,3.65,2,1.32,8.2,6.16,17.05,13.07a112.18,112.18,0,0,1,29,34.18,162.37,162.37,0,0,1,20,46.25C76,131,77.34,142.54,77.44,148c0,.2,0,1,0,2.06,0,3.36,0,7.21,0,22.19s0,22.43,0,25.25c0,6.59-.59,27.78-14.14,80.81C53,318.56,51.4,313.94,50.17,327.82c-3.86,43.31,14,64.33,19.19,68.69a18.16,18.16,0,0,0,3,2c10.76,5.51,25.1-3.16,25.82-3.61,19.46-12.08,16-59.48,11.84-107.55-1.77-20.36-2.47-18.43-6-51C96.82,170.94,100.41,170.14,95.48,143.08Z"/><path class="cls-4" d="M110.05,287.37c-1.77-20.36-2.47-18.43-6-51-7.18-65.42-3.59-66.22-8.52-93.28-2.82-15.45-5.83-30-6.19-29.93s3.33,16.95,6.19,40.92c2.34,19.61,1.5,22.14,3.93,54.46,1.09,14.52,3.51,33.45,5.4,56.65,1.33,16.27,2.77,32.52,7.33,48.22C111.56,304.89,110.82,296.14,110.05,287.37Z"/><path class="cls-1" d="M113.29,341.92c-.66,1.91-1.39,3.8-2.16,5.66a79.92,79.92,0,0,1-6.6,12.69q-1.92,11.19-3.85,22.37c-1.22-4.12-2.54-8.84-3.91-14.1-.46-1.79-.93-3.63-1.39-5.54-.31-1.27-.63-2.58-.94-3.9-.78-3.31-1.56-6.79-2.31-10.42-.32-1.46-.61-2.93-.91-4.44-.17-.87-.35-1.73-.51-2.61-.26-1.34-.51-2.68-.76-4.05-.16-.88-.32-1.76-.47-2.65-1.65-9.28-3.11-19.35-4.23-30.11-8.83-84.6,13.57-114-4.16-186.36-9.09-37.09-23-62-41.3-81.43C25.83,22.25,7.71,11.63,8,11.27S25.22,19.8,40.75,34.86c28.4,27.5,37.9,61.94,43.56,83.42,5.12,19.43,6.25,33.53,8.51,61.64C95.73,216,93.66,229,95.1,258a473.45,473.45,0,0,0,6.12,55.7c.45-.94.88-1.85,1.27-2.72a93.46,93.46,0,0,0,7.24-27.27c.11,1.21.22,2.41.32,3.63C111.71,306.38,113.25,325.27,113.29,341.92Z"/><path class="cls-4" d="M96.77,368.54c-1.16-4.5-2.36-9.41-3.53-14.68-1.57,3.36-3.11,6.73-4.67,10.1-2.58,5.56-4.56,12.28-9.23,16.5-4.22,3.8-10.35,6.26-16,4.56a11.67,11.67,0,0,1-5.24-3.18,51.36,51.36,0,0,0,11.28,14.67,18.91,18.91,0,0,0,3,2c10.77,5.5,25.1-3.17,25.82-3.61a20.45,20.45,0,0,0,4-3.26c-.51-2.81-1-5.81-1.5-9C99.46,378.52,98.14,373.8,96.77,368.54Z"/><path class="cls-3" d="M123.51,402.64c19.56-37.89,24.78-69.31,26-90.65a226.9,226.9,0,0,0-.41-36.35c-2.25-28.12-3.81-56.34-4.48-84.54-.48-20.53-.49-30.8,1.1-45.14a244.6,244.6,0,0,1,14.56-60.83,231.05,231.05,0,0,1,12.4-26.87c4.62-8.46,7.23-13.24,11.89-19.34C191.63,29.64,210,8.79,215.41,5.63c.42-.24,2.18-1.2,2.38-2.77a2.73,2.73,0,0,0-1-2.49c-.8-.55-2.33-.71-5.6,1.14C189.05,14,177.77,27,177.77,27c-18.15,20.88-27.49,38.55-30.12,43.88-6.79,13.77-14.35,29.85-18.94,62.54-4.12,29.29-6.45,58.82-10,88.19-5.5,46.11-7.15,69.85-13.39,97a450,450,0,0,1-22.07,69.61Z"/><path class="cls-4" d="M145.69,146c-1.6,14.34-1.59,24.61-1.09,45.13.67,28.21,2.21,56.44,4.47,84.55a229.74,229.74,0,0,1,.42,36.35c-1.19,21.34-6.43,52.76-26,90.66C117.72,398,105.18,389.56,89,390.28a44.48,44.48,0,0,0-7.54,1,22.28,22.28,0,0,0,1.83-3A23,23,0,0,0,84.58,385c19.5-60.89,20.78-66.41,20.78-66.41,6.24-27.15,7.89-50.9,13.39-97,1.5-12.46,2.77-25,4.06-37.47s2.61-25,4.15-37.46c0,.48-1.07,17.94-2.08,33-.65,9.76-1.16,16.61-2.13,29.89-1.61,21.94-2.41,32.92-2.84,37.88a528.38,528.38,0,0,1-8.52,61.17S106.17,325.49,92,380.73c-.12.45-.39,1.56.1,1.93s1.6-.22,2-.47c17.79-10.24,21.72-14.78,21.72-14.78,4.06-4.47,7.29-9.58,10.52-17.18,3.91-9.2,6.89-19.87,9.37-47a469,469,0,0,0,2.31-50c-.09-9.79-.45-13.61-.63-30.55,0-2.12-.21-19.67,0-29.68a299.4,299.4,0,0,1,10-71.62A308.16,308.16,0,0,1,164,76c-1,2.34-2.32,5.52-3.73,9.18A244.6,244.6,0,0,0,145.69,146Z"/><path class="cls-4" d="M100.69,383.71c-5,.29-6.67,4.43-12.79,5.77a14.4,14.4,0,0,1-6.33.13c-5.79-1.28-9.1-6.41-12-11.11a54.77,54.77,0,0,1-5.61-12.62,106.67,106.67,0,0,1-4.52-19.73c-2.27-19.8,9-63.28,12.12-76.17,5.28-21.8,8.15-42.48,11.08-84.09,1.74-24.77,1.22-37-.75-49A230.77,230.77,0,0,0,74.55,107c-2.79-8.71-5.46-15.16-6.33-17.22A187.67,187.67,0,0,0,49,54.66,103.15,103.15,0,0,0,36.52,41,103,103,0,0,1,48.79,58.9a162.37,162.37,0,0,1,20,46.25C76,131,77.34,142.54,77.44,148c0,.2,0,1,0,2.06,0,3.36,0,7.21,0,22.19s0,22.43,0,25.25c0,6.59-.59,27.78-14.14,80.81C53,318.56,51.4,313.94,50.17,327.82c-3.86,43.31,14,64.33,19.19,68.69a18.16,18.16,0,0,0,3,2c10.76,5.5,25.1-3.16,25.82-3.61a23.6,23.6,0,0,0,8.4-9.77A10.93,10.93,0,0,0,100.69,383.71Z"/></g><g id="Layer_4" data-name="Layer 4"><path class="cls-5" d="M66.12,390.43c10.89-.1,31.39-2,47.54-16.29,15-13.28,20-31.3,23.1-58.33,6.76-58.22,1.39-89.69,2.66-126.51.85-24.92,5-60.75,20.83-104.17A341.87,341.87,0,0,0,150,140.05c-1.18,11.56-5,54.66,6.82,118.18,10.31,55.37,24.87,76.52,15.91,114.77-2.75,11.76-7.2,23-17,31.92-15.62,14.22-40.55,18.37-61.26,9.94C78.3,408.25,69.53,395.9,66.12,390.43Z"/><path class="cls-2" d="M164.05,395.06a47.83,47.83,0,0,1-8.26,9.86c-15.61,14.22-40.55,18.37-61.26,9.94a59.63,59.63,0,0,1-24-18.25l-.7-.9c-.81-1-1.51-2-2.13-2.93l-.43-.64c-.42-.62-.79-1.2-1.1-1.72l2.15,0,1.15,0,1.2-.06c1,0,2.12-.13,3.24-.23.44,0,.87-.08,1.33-.13l1.67-.18c11-1.36,25-5.19,36.79-15.6,15-13.28,20-31.3,23.1-58.33,6.76-58.22,1.4-89.69,2.66-126.51a322.72,322.72,0,0,1,9.17-65.77c-.12.8-2.22,13.41-4,29.66-.49,4.3-2.24,20.44-3.06,37.81-1,20.59.24,24.43.87,60,.74,42.77-.65,57.45-1.82,66.87-1.05,8.35-1,22.82-8.66,38.71a62.72,62.72,0,0,1-7.15,12c-3.2,4.15-14.16,17.19-30.28,21.08-2.93.7-6.83,1.3-13.16,3.17.76.51,1.57,1.07,2.43,1.64,6,3.92,10.83,7.15,17.37,9.58a59.15,59.15,0,0,0,13.14,3.18,77.14,77.14,0,0,0,22,0c7.53-.93,13.05-1.67,19.22-5.27A36.37,36.37,0,0,0,164.05,395.06Z"/><path class="cls-5" d="M155.79,404.92c-5,2-37.21,14-67-3.1-19.94-11.45-28-29.76-30.29-35C47.66,342,56.54,325.31,68.68,266c15.93-77.8,12.78-110,8.43-131.25a212.45,212.45,0,0,0-8.34-29.6c.78,3.68,1.86,9.09,2.89,15.68s4.44,29.82,3,66.48a380.36,380.36,0,0,1-4.83,51.13c-7.1,42.12-17,51.8-22.73,94.6-3.61,26.74-1.61,36.7-.66,40.72,0,.23.15.65.28,1.17,1.5,6.1,8.29,33.57,29.5,45.19,8.54,4.68,17.17,4.74,34.44,4.86,13,.1,23.93,0,33.91-7.17A38.69,38.69,0,0,0,155.79,404.92Z"/><path class="cls-2" d="M150.31,412.66c-.12.14-.26.27-.39.41-.37.4-.76.82-1.18,1.21s-.84.81-1.28,1.2a34.72,34.72,0,0,1-2.9,2.33c-10,7.2-20.88,7.27-33.91,7.17-17.26-.12-25.9-.18-34.44-4.86a43.91,43.91,0,0,1-7.3-5c-.28-.23-.55-.47-.82-.72a49.79,49.79,0,0,1-4.74-4.79c-.41-.46-.79-.91-1.16-1.38a67.51,67.51,0,0,1-7.38-11.28c-.25-.49-.5-1-.74-1.47q-.23-.42-.42-.84l-.4-.85c-.82-1.73-1.55-3.43-2.19-5.05-.17-.4-.31-.78-.46-1.15-1.22-3.22-2.13-6.12-2.79-8.42-.05-.16-.09-.32-.13-.47-.2-.71-.37-1.36-.52-1.93,0-.22-.11-.45-.16-.65-.12-.44-.22-.84-.3-1.16-.12-.52-.22-.94-.27-1.17-1-4-3-14,.66-40.72,5.76-42.8,15.63-52.47,22.72-94.6a377.21,377.21,0,0,0,4.83-51.13c1.46-36.66-2-59.91-3-66.48-.78-5-1.57-9.23-2.25-12.61,10.41,29,9.33,62.09,7.14,92.21C75.26,218.28,72,235.54,68.3,253c-3.57,16.85-5,22.43-11.39,53.17-5.95,28.88-8,41.48-4.63,57.73a70.46,70.46,0,0,0,7.92,22c2.71,4.72,11.8,20.52,29,26.45,4.5,1.54,9.86,2.21,20.56,3.53a135,135,0,0,0,16.65,1.26C134.69,417.26,143,416.05,150.31,412.66Z"/></g></svg>