<svg xmlns="http://www.w3.org/2000/svg" viewBox="0 0 447.27 400"><defs><style>.cls-1{fill:#bc243a;}.cls-2{fill:#3f9331;}.cls-3{fill:#04488c;}.cls-4{fill:#d63030;}.cls-5{fill:#54af3e;}.cls-6{fill:#0d56b0;}</style></defs><g id="Layer_4" data-name="Layer 4"><path class="cls-1" d="M335.32,197c0,1.16-.05,2.31-.1,3.46,0,.43,0,.87,0,1.3-.05,1.25-.1,2.5-.18,3.74a1.09,1.09,0,0,1,0,.18c-.06,1.18-.13,2.36-.22,3.53l-.15,1.92q-.19,2.51-.45,5c-.14,1.4-.29,2.79-.46,4.17s-.37,3-.58,4.5q-.47,3.34-1,6.63c-.11.73-.24,1.46-.38,2.18s-.26,1.45-.4,2.17-.26,1.44-.41,2.16c-.09.43-.17.87-.26,1.3s-.18.91-.28,1.36c-.22,1-.45,2.09-.68,3.12-.08.41-.17.81-.27,1.21s-.23,1-.35,1.49a1.14,1.14,0,0,1-.06.25c-.21.93-.44,1.85-.67,2.76-.26,1.08-.54,2.14-.83,3.2-.18.68-.36,1.36-.55,2-.24.92-.5,1.83-.76,2.73s-.56,1.92-.85,2.87q-1.73,5.79-3.7,11.32c-.32.9-.64,1.8-1,2.69-.94,2.56-1.92,5.08-2.92,7.55-.34.83-.68,1.66-1,2.48-.55,1.35-1.12,2.68-1.7,4-.26.59-.51,1.17-.78,1.75-.4.91-.81,1.81-1.22,2.7s-1,2.05-1.44,3.07c-.81,1.71-1.64,3.39-2.47,5.05-.42.84-.84,1.66-1.27,2.48l-1.62,3.09c-1,1.88-2,3.74-3.05,5.56l-.35.62c-.42.73-.83,1.46-1.25,2.18l-.32.54c-.65,1.11-1.29,2.21-1.94,3.28s-1.31,2.15-2,3.2-1.3,2.08-2,3.11-1.27,2-1.91,3l-.34.5c-.54.84-1.09,1.66-1.65,2.48l-1.32,1.94c-.42.62-.85,1.23-1.27,1.83q-1.68,2.42-3.36,4.71c-.65.89-1.3,1.77-1.95,2.63l-1,1.29c-.91,1.2-1.81,2.38-2.7,3.52-.58.75-1.16,1.48-1.74,2.21l-.34.43c-.95,1.19-1.89,2.33-2.8,3.45s-1.84,2.2-2.74,3.26-1.64,1.92-2.45,2.84l-1.06,1.21c-3,3.4-5.82,6.41-8.35,9l-1.24,1.27c-.68.7-1.34,1.36-2,2-1.71,1.7-3.23,3.17-4.53,4.4l-1.32,1.24-.81.76-2.91-.53-1.32-.26c-1-.18-1.93-.37-2.89-.57l-2.39-.48c-.8-.16-1.6-.32-2.4-.5l-2.12-.46q-1.56-.33-3.12-.69l-1.1-.25c-1.73-.41-3.47-.81-5.2-1.24-1-.24-2-.49-3-.75s-1.8-.45-2.69-.69l-.83-.22-.13,0-2.24-.6-2.36-.65-.32-.08-.1,0c-1.3-.36-2.58-.72-3.87-1.1l-1.68-.5-2.79-.83-2.79-.86-2.24-.71-1.7-.54-.51-.17-2-.68-.58-.19-1.18-.39-1.18-.4-3.14-1.09-2.76-1-2.72-1q-4.72-1.75-9.31-3.61l-1.23-.49c-.82-.33-1.64-.67-2.45-1s-1.66-.69-2.49-1l-2.45-1.06-3-1.33-.16-.08-.28-.13c-1.82-.81-3.62-1.64-5.41-2.47l-.53-.25-.73-.34-2.85-1.38-.68-.33-.17-.08q-2.48-1.21-4.89-2.45l-.34-.18c-1.62-.83-3.22-1.66-4.8-2.51l-2.06-1.1L139,339.66c-.91-.5-1.81-1-2.72-1.53l-.4-.24q-3.09-1.77-6.11-3.6c-.95-.57-1.9-1.15-2.84-1.74l-.67-.41-2.47-1.56q-6.09-3.87-11.89-8c-.82-.57-1.63-1.16-2.44-1.74s-1.85-1.35-2.76-2-1.73-1.29-2.58-1.94q-3.77-2.85-7.38-5.8l-1.5-1.23q-3.08-2.53-6-5.15-.94-.81-1.86-1.65l-1.84-1.66q-1.84-1.68-3.64-3.39c-.59-.55-1.17-1.11-1.74-1.67s-1.18-1.14-1.75-1.71-1.16-1.13-1.73-1.72l-1.26-1.27q-7-7.17-13.26-14.73c-.42-.5-.83-1-1.25-1.52A208.8,208.8,0,0,1,44.2,251.76q-.42-.67-.81-1.35c-.52-.87-1-1.74-1.53-2.62-.39-.67-.76-1.34-1.14-2l-.06-.11c-.48-.85-.94-1.71-1.4-2.57s-.92-1.71-1.36-2.57l0-.08c-.45-.87-.89-1.74-1.33-2.62-.29-.59-.59-1.19-.87-1.79s-.47-1-.7-1.46q-1.23-2.6-2.37-5.22c-.31-.72-.62-1.44-.92-2.16-.05-.1-.09-.2-.13-.3q-.54-1.29-1.05-2.58a.14.14,0,0,1,0-.06c-.36-.9-.71-1.79-1-2.69q-.65-1.71-1.26-3.45c-.25-.71-.5-1.41-.74-2.12-.36-1-.7-2.09-1-3.14-.18-.55-.35-1.09-.52-1.64s-.29-1-.43-1.44c-.21-.71-.42-1.42-.62-2.14-.27-.93-.52-1.87-.77-2.8-.2-.75-.39-1.49-.57-2.24-.47-1.86-.9-3.74-1.3-5.62-.11-.52-.21-1-.31-1.55-.15-.7-.29-1.41-.42-2.12-.16-.87-.32-1.74-.47-2.62v0c-.15-.87-.29-1.75-.42-2.62s-.24-1.59-.35-2.38c-.05-.39-.11-.78-.15-1.17-.11-.8-.21-1.61-.3-2.42a187.64,187.64,0,0,1,2.8-55.32c.26-1.28.53-2.56.81-3.85,1-4.54,2.23-9.21,3.69-14q.63-2,1.32-4.08c.46-1.36.94-2.73,1.44-4.1,0,0,0,0,0,0,.51-1.37,1-2.75,1.58-4.12l.84-2.08c.58-1.38,1.17-2.76,1.79-4.14h0c.62-1.38,1.26-2.77,1.93-4.15q2.52-5.19,5.5-10.36A145.16,145.16,0,0,1,64.5,46c.63-.63,1.27-1.26,1.92-1.88,50.33-48.33,133.05-58.6,193.19-22.79,53.76,32,69.66,89,74.16,131.18.1.95.2,1.9.28,2.83.14,1.44.27,2.86.38,4.26,0,.22,0,.43.05.64q.25,3.14.42,6.12c.11,1.86.2,3.68.27,5.45,0,.74.06,1.47.08,2.19s.05,1.43.07,2.13,0,1.39.05,2.08c0,.23,0,.46,0,.68,0,.56,0,1.11,0,1.65C335.51,187.22,335.4,192.81,335.32,197Z"/><path class="cls-2" d="M183.08,375.41v0c0,.33,0,.66-.05,1v.05c0,.48-.06.94-.08,1.37l0,.43c0,.27,0,.52,0,.77l0,.39c0,.24,0,.47-.05.68-.07.85-.13,1.48-.17,1.87-63.83,21.3-124.57,9.84-150.79-26.63-3.61-5-23.46-34-12.65-66.85q.3-.92.63-1.8c.21-.59.43-1.18.66-1.76v0c.23-.57.46-1.14.7-1.7.51-1.17,1-2.32,1.61-3.44.28-.56.56-1.11.86-1.66s.62-1.14.94-1.7.6-1,.91-1.51.65-1.05,1-1.56.65-1,1-1.45l.06-.08,1-1.49s0,0,0,0c.73-1,1.48-1.94,2.24-2.88s1.57-1.87,2.38-2.77c.41-.45.82-.89,1.24-1.33a75.37,75.37,0,0,1,40.48-21.82c30.64-5.53,54.52,11.62,62.39,17.27a98.28,98.28,0,0,1,29.59,34.55l.05.09c.41.78.81,1.57,1.2,2.36l.08.17q.48,1,.93,1.92c.48,1,.93,2,1.38,3,.34.8.69,1.6,1,2.41l.15.36q.38.9.72,1.8.66,1.67,1.26,3.33c.28.75.55,1.51.8,2.26q.81,2.35,1.53,4.7c.33,1.09.65,2.17,1,3.25l.51,1.86.21.81c.18.69.35,1.37.52,2.06.6,2.42,1.12,4.82,1.6,7.19q.25,1.36.51,2.7c.14.79.28,1.58.41,2.37l.06.35A191.52,191.52,0,0,1,183.08,375.41Z"/><path class="cls-3" d="M424.58,339.68c-9.49,13.88-22.25,25.58-37.58,34.86l-.14.08c-1,.59-2,1.17-3,1.74a155.78,155.78,0,0,1-15.68,7.81c-1.09.47-2.19.93-3.31,1.38s-2.23.89-3.36,1.32-2.26.85-3.41,1.26-2.3.81-3.47,1.2c-2.33.78-4.69,1.51-7.09,2.21q-1.69.49-3.42,1l-.2.05c-1.17.32-2.35.62-3.53.92l-.27.06c-1.18.3-2.37.58-3.57.86h0l-3.65.8-.19,0L329,396c-1.27.24-2.56.47-3.85.69q-3.45.6-7,1.08l-.16,0c-.58.09-1.17.17-1.76.24l-1.91.24-1.6.19-3.39.36c-1.12.11-2.25.22-3.38.31l-.93.08-3.38.25-.68,0c-1.16.08-2.33.15-3.5.21l-.7,0q-3.66.18-7.37.24c-.63,0-1.26,0-1.9,0q-12.15.13-24.8-.86c-1.73-.13-3.47-.28-5.21-.46-.4,0-.79-.07-1.19-.12-1.73-.17-3.47-.36-5.21-.57l-.81-.1c-1.83-.22-3.65-.46-5.49-.72q-5.25-.73-10.57-1.67-2.61-.47-5.23-1l-1.26-.25q-2.89-.57-5.81-1.2l-3.24-.72q-3.26-.73-6.51-1.55l-3.26-.83q-3.27-.85-6.55-1.77l-3.28-.94c-2.19-.64-4.39-1.3-6.58-2-3.3-1-6.6-2.12-9.91-3.27-18.41-87.72,8.27-170.69,66.7-208.17,1.19-.76,3.23-2.08,6-3.7l1.21-.7c1.72-1,3.67-2,5.85-3.15l.94-.48,2-1,2.07-1,1.08-.5,1.1-.5,1.13-.5c.76-.34,1.54-.67,2.33-1l1.2-.5c21.26-8.74,53.46-16.44,88.86-4.88,4.82,1.58,62.56,21.51,79.68,80C455.5,279.37,438.53,319.27,424.58,339.68Z"/></g><g id="Layer_3" data-name="Layer 3"><path class="cls-4" d="M250.59,378.87C122.5,355.74,30.24,274.24,19.76,182.08c-1.05-9.23-8.42-85,46.66-137.92,50.32-48.33,133.06-58.6,193.19-22.8C337.81,67.92,335.9,167.41,335.33,197,333.37,299.22,265.58,365,250.59,378.87Z"/><path class="cls-1" d="M335.33,197c-.88,46.28-15.27,85.08-32.14,115-.62,1.13-1.26,2.25-1.92,3.35s-1.29,2.2-1.94,3.27-1.3,2.15-1.95,3.21l-2,3.11c-.64,1-1.28,2-1.92,2.95q-4,6.06-7.93,11.46c-.66.89-1.31,1.78-2,2.64-3.89,5.2-7.69,9.94-11.28,14.16l-1.78,2.06c-.58.68-1.16,1.33-1.73,2a259.65,259.65,0,0,1-18.24,18.69c-1.41-.25-2.83-.51-4.23-.79-1-.18-1.93-.38-2.89-.57-1.59-.32-3.19-.64-4.78-1h0c-1.75-.37-3.48-.75-5.22-1.15l-1.1-.25c-1.73-.4-3.47-.8-5.2-1.23-2.19-.53-4.37-1.08-6.54-1.67q-2.37-.62-4.73-1.27a2.77,2.77,0,0,1-.41-.12q-2.79-.76-5.55-1.59c-1.86-.54-3.72-1.11-5.58-1.69l-4.46-1.42-2-.68-2.94-1q-3-1-5.9-2.09l-2.72-1c-3.15-1.16-6.24-2.37-9.31-3.6-1.23-.49-2.45-1-3.68-1.52q-2.49-1-4.94-2.09l-3-1.33-.45-.21c-2-.89-4-1.81-5.93-2.72-.25-.13-.5-.24-.74-.35l-2.84-1.37-.68-.34c-1.82-.88-3.63-1.79-5.4-2.7s-3.22-1.67-4.8-2.51q-2.78-1.45-5.47-3c-.92-.5-1.82-1-2.72-1.52l-.4-.24C70,300.06,26.75,243.43,19.77,182.08c-1.06-9.23-8.43-85,46.65-137.92.43-.43.9-.82,1.35-1.24-4,22.21-3.32,45.81-.7,66.21,3.17,24.58,8.57,50.72,23.64,71a85.81,85.81,0,0,0,30.35,25.67c10.51,5.39,21.45,9.94,30.68,17.47a127.88,127.88,0,0,1,23.31,25.16,264,264,0,0,1,16.07-26.66c22.18-31.9,54.11-59,90.75-70.82,16.34-5.26,38.33-10.3,51.9,1.62A342.77,342.77,0,0,1,335.33,197Z"/><path class="cls-5" d="M74.91,241.52c-23.59,4.26-47.25,21.25-55.72,47-10.81,32.84,9,61.83,12.64,66.85,26.22,36.48,87,47.93,150.8,26.64.68-6.74,7.51-85.26-45.33-123.2C129.43,253.13,105.55,236,74.91,241.52Z"/><path class="cls-6" d="M182.63,382c-18.42-87.73,8.26-170.7,66.69-208.17,8.18-5.25,56.86-36.47,113.78-17.88,4.83,1.57,62.57,21.51,79.69,80,12.71,43.44-4.25,83.34-18.21,103.76C384.54,398.25,286.25,417.89,182.63,382Z"/><path class="cls-2" d="M166.89,293.34a119.94,119.94,0,0,1,5,27.07c1.21,21.07-9.52,44.47-32.9,46.47-10.89.93-23.42-1.78-33.87-4.82a95.37,95.37,0,0,1-32.23-16.54c-24.64-19.23-40.4-51.2-38.41-82.18A66.37,66.37,0,0,0,19.19,288.5c-10.81,32.84,9,61.83,12.64,66.85,26.22,36.48,87,47.93,150.8,26.64C183.14,376.94,187.09,331.69,166.89,293.34Z"/><path class="cls-3" d="M350.42,375.93c-29.58,1.9-61.65-4.86-86.55-21.49-11.81-7.89-21.08-18.12-26.16-31.49-4.94-13-6.62-28.11-7-41.94-1.07-43.31,15.7-86.73,43.5-120.2a152.72,152.72,0,0,0-24.93,13C190.89,211.29,164.21,294.26,182.63,382c85.23,29.53,166.86,21.48,215.43-14.91A213.82,213.82,0,0,1,350.42,375.93Z"/></g></svg>