<svg xmlns="http://www.w3.org/2000/svg" viewBox="0 0 344.43 425"><defs><style>.cls-1{fill:#302542;}.cls-2{fill:#b26496;}.cls-3{fill:#ce7da5;}.cls-4{fill:#493657;}</style></defs><g id="Layer_3" data-name="Layer 3"><path class="cls-1" d="M328.47,189C317,199.46,297,205.15,280.68,198c-1.34-.59-20.67-9.39-20.45-25.19.21-14.92,17.52-27.85,27.71-25,5.73,1.59,9.61,8.27,8.62,9.59-1.12,1.5-7.67-4.94-15.28-3.38-7.21,1.48-14.33,9.9-13.84,18.81.64,11.54,13.66,16.86,15.61,17.65,13.1,5.35,29.23-.05,38.31-8.61,19.16-18,17.64-60.16-5.81-82C297.4,82.92,268.8,80.67,248.39,90c-38.7,17.68-47,76.57-52.17,75h0c-.51,4.9-2.63,25.38-2.89,27.88-.42,4.13-2.94,28.43-3.27,31.59-5.35,51.79-18.18,167.53-7.31,188.14.73,1.39,3.44,6.21,1.54,9.28-2.6,4.2-13.37,4.32-18.55-.77a13.31,13.31,0,0,1-3.55-8.08c-3.08-27.85.1-71.42,4.4-110.14-6.84-.34,8.94-64.14-26-104.58-22.53-26.05-68.38-45-98.8-25.51C16,189.3,4.22,231.83,20.43,252.9c8.17,10.62,25.84,18.88,39.71,12.27C74.29,258.43,80.84,238,75,230.3s-24.15-2.43-24.87-6.14c-.37-1.92,4.26-4.64,8.08-5.81,9.36-2.87,21.27,1.42,26.15,8.72,8.51,12.72-2.06,38-19.7,47.14-19,9.8-44.1-.29-55.53-15.18-20.37-26.51-4.59-77.71,26.8-97.51,39.63-25,97.31,5.19,121.73,39.39,10.79,15.12,15.17,31.14,17,40.62C176.61,228.21,178,220,178,220a701.55,701.55,0,0,0,9-98.91C188.59,50,178.31,33,167.46,23.68c-12.5-10.73-32-16.5-49.91-11C95,19.54,82.71,41.83,80.49,60.45c-2,17.06,2.83,44.06,19.37,48.44,12.64,3.35,31.43-6.69,32.93-20.67,1.15-10.59-7.72-22.74-15.49-23.25-4.13-.26-8.56,2.7-9.29,1.54-.45-.73,1-2.55,2.26-3.61,4.4-3.76,11.68-3,15.74-1.48,9.5,3.5,15.33,16,14.86,26.16-.83,18-21.52,34.23-38.43,32.61-22.2-2.13-36.06-34.9-34.28-60.09C70.05,33.47,89.87,9,116.33,2a65.22,65.22,0,0,1,57.8,13.24C199.93,37.47,198.72,77.66,198.8,118c0,6.13-.08,11.62-.23,16.51,2-7.29,13.6-42.5,50.14-55,23.21-7.92,53.52-5.65,74,13.89C349.78,119.34,351.38,168,328.47,189Z"/><path class="cls-2" d="M166.11,378.17c-2.88,2.36-11.75-1.68-16.09-8.17-5.76-8.63-3.76-21.95.43-23.25,4.61-1.43,12.93,11.36,15.72,22.39C167,372.55,168,376.62,166.11,378.17Z"/><path class="cls-2" d="M167.5,337.67c-1.77,2.23-9.11.31-14-3.41-10.22-7.7-12-24.51-8.61-26.26,3.65-1.88,14.43,13.23,16.36,15.93C164.75,328.89,169.35,335.33,167.5,337.67Z"/><path class="cls-2" d="M167.32,276.46c-1.84,3.46-12.45,2.65-19.95-1.79-9.75-5.77-15.4-18.34-12.49-21.52s14.32,2.53,21.1,7.75C160.85,264.64,169.29,272.74,167.32,276.46Z"/><path class="cls-2" d="M158.32,228c-1,4.53-13.24,5.57-20.35,5.14-5.72-.34-17.59-2.19-18.09-6.46-.53-4.5,11.59-12.06,22.82-10.33C151,217.57,159.16,223.92,158.32,228Z"/><path class="cls-2" d="M85,166.25c1.07,1.55.6,3.48-.21,6.67s-2.63,10.26-5,10.23c-3.27-.05-8.19-14.22-3.67-18C78.45,163.26,83.32,163.79,85,166.25Z"/><path class="cls-2" d="M57.77,166.24c5.15,1.23,6.46,10.17,7,13.9.16,1.14,1.62,11.48-1.29,12.48-2.53.87-6.86-5.79-8.62-9-1-1.93-6.38-11.8-2.42-15.87A5.84,5.84,0,0,1,57.77,166.24Z"/><path class="cls-2" d="M32.52,180.39c.88-2.91,3.86-6,6.29-5.53,5,1.07,7.51,17.7,4.23,19.27C40.27,195.45,30.39,187.52,32.52,180.39Z"/><path class="cls-2" d="M23.45,192.2a10,10,0,0,1,10.11.42c4.51,3,5.65,9.59,3.66,11.41-3,2.79-15.86-3.34-15.58-8.64A4.61,4.61,0,0,1,23.45,192.2Z"/><path class="cls-2" d="M93.62,185c-3.45-2-4.23-12.9,1.76-15.81,4.58-2.23,11.29,1.1,12.11,4.86C108.69,179.53,97.63,187.28,93.62,185Z"/><path class="cls-2" d="M16.64,207c-2.76,1.4-4.05,6.28-2.44,9.22,2.89,5.25,14.53,3.45,15.6.22C30.92,213,21.53,204.49,16.64,207Z"/><path class="cls-2" d="M13.44,234.92A4.92,4.92,0,0,1,13,230c.81-1.65,2.54-2.3,6.13-3.23,8.13-2.1,12.19-3.15,13.24-1.61s-1,5.3-3,7.33C24.72,237.2,16,238.22,13.44,234.92Z"/><path class="cls-2" d="M16.44,246.07c.7-1.76,2.65-2.36,6.08-3.42s8.79-2.71,10.18-.73-1.86,6.79-4.84,9.36c-1.7,1.47-3.85,3.32-6.43,2.84C18,253.47,15.32,248.91,16.44,246.07Z"/><path class="cls-2" d="M30.46,261.77c-1.15-1.34,2-5.71,3.53-7.58,1.7-2,5.53-5.79,7.11-4.85,1.41.84.91,5.37-1.29,8.4C37.07,261.51,31.6,263.11,30.46,261.77Z"/><path class="cls-2" d="M46.57,267.4c-1.59-1.48-.19-5.17,1.63-10,1.29-3.42,1.94-5.12,2.91-5.17,1.79-.09,4.32,4.88,3.55,9.36-.14.84-.78,4.58-3.87,5.88C50.65,267.55,47.92,268.65,46.57,267.4Z"/><path class="cls-2" d="M59.5,250.63c-1.29,2.21,3.47,9.94,8.3,8.93,2.6-.55,5-3.58,4.45-5.8C71.33,249.75,60.93,248.2,59.5,250.63Z"/><path class="cls-2" d="M77.12,237.38c-3.05-3.11-10.3-.66-11.16,2.6-.94,3.56,5.41,9.41,9.18,7.91C78.27,246.65,79.89,240.21,77.12,237.38Z"/><path class="cls-2" d="M72.69,228.23c-.23-1.8-4.4-3.76-7.91-2.28-4,1.69-5,6.92-3.66,8.22C63.16,236.17,73.07,231.18,72.69,228.23Z"/><path class="cls-2" d="M57.24,225.7c.76,1.15-.87,3.32-1.5,4.16-1.11,1.47-3.48,3.82-4.52,3.23-1.27-.71-.95-5.91,1.93-7.52C54.51,224.8,56.61,224.75,57.24,225.7Z"/><path class="cls-2" d="M127.39,186.21c-4.33-.8-7.94,2.38-14.12,7.81-4,3.53-6,5.29-5.66,6.73.9,3.48,13.17,5.72,20.67.16.64-.48,6.48-4.92,5.25-9.59C132.83,188.62,130,186.7,127.39,186.21Z"/><path class="cls-2" d="M182,217.43c-3.78,2.46-10.33-1.45-13.5-4.14-11.73-10-10.61-31.79-6.46-33.15,2.22-.73,3.36,5,15.07,16.36,3.37,3.26,6,5.42,7.11,9.57C185.24,209.74,185.16,215.38,182,217.43Z"/><path class="cls-2" d="M188.08,168.52c-4,2.89-12.44-2.17-17-6.47-10.68-10.14-12-27.69-8.61-29.27,1.9-.89,3.76,4,14.53,11.95,6.85,5.07,9.75,5.82,11.79,10C191.09,159.37,191.3,166.22,188.08,168.52Z"/><path class="cls-2" d="M189.78,118.66c-2.77,4.35-9.9,3.52-11.35,3.36-11.8-1.38-21.18-15.1-18.94-18.52,1-1.6,3.63.6,21.1,3.45,4.07.66,7.46,1.11,9.21,3.87A7.65,7.65,0,0,1,189.78,118.66Z"/><path class="cls-2" d="M188.84,83.2c-2.37,4-8.59,3.67-11.27,3.51-8.67-.49-17.88-6.21-17.22-9.9.72-4,13-4.6,15.93-4.74,5.18-.24,9.4-.37,11.8,2.61A7.91,7.91,0,0,1,188.84,83.2Z"/><path class="cls-2" d="M184.24,52.53c.16,3.4-7.48,6.62-13.12,7.49-6.19,1-14.75-.16-15.5-3.44s6.86-9.33,14.63-9.91C176.63,46.2,184.08,49.23,184.24,52.53Z"/><path class="cls-2" d="M171.43,27.38c.68,4.4-9.26,8.57-10.22,9-2,.82-8.56,3.51-10.33,1.29s1.52-8,5.6-11.19c.92-.72,6-4.7,11-2.76C168,23.88,171.07,25.08,171.43,27.38Z"/><path class="cls-2" d="M146.33,12.88c2.09,2.86-1.15,8.08-3.2,10.44-1.84,2.12-5.85,5.54-7.75,4.41C132.5,26,133.92,13.48,140,11.4,142.13,10.68,145.06,11.15,146.33,12.88Z"/><path class="cls-2" d="M117.55,12.66c-2.22-1.76-8.12.72-10.77,4.86-3.77,5.87-1.06,15.16,2.13,15.81s7.22-6.8,8.71-12.27C118.27,18.69,119.5,14.19,117.55,12.66Z"/><path class="cls-2" d="M92.46,30.68c2.7-.13,5.47,6.92,6.11,12.66.21,1.86.86,7.73-1,8.39-2.51.91-10.41-7.8-8.72-15.69C89.32,34,90.67,30.76,92.46,30.68Z"/><path class="cls-2" d="M81.37,55.2c2.91-2.41,7.49.13,8.48.73,4.54,2.75,7,9.15,5.17,11.3s-7.63-.16-9.69-1c-2.37-.93-4.08-1.63-5.06-3.47C79,60.48,79.25,57,81.37,55.2Z"/><path class="cls-2" d="M81,80.12c1.62-3.9,6.17-4.6,7.54-4.82,3.34-.51,8.33.23,9,2.59,1.23,4-9.92,13.27-14.61,10.78C80.66,87.43,79.73,83.21,81,80.12Z"/><path class="cls-2" d="M91.68,104.17c-.8-2.37.63-4.51,1.94-6.48,1.92-2.88,5.73-6.56,7.54-5.6,2,1,.49,7.06.21,8.18-.71,2.89-1.74,7.07-4.51,7.52C94.82,108.12,92.41,106.34,91.68,104.17Z"/><path class="cls-2" d="M113.16,108.28c-1.58-.81-1.63-3.31-1.67-7.58,0-4.9-.09-9.3,1.72-9.9s5.26,3.15,6.46,6.89c.35,1.09,1.67,5.2-.73,8.23C117.55,107.66,114.85,109.15,113.16,108.28Z"/><path class="cls-2" d="M130.72,94.81c-2.25,1.42-5.6-1.23-6.1-1.64-2.93-2.4-4.55-6.89-3.23-8.18,1.6-1.56,7.06,2.05,7.53,2.37,1.63,1.08,3.05,2,3.3,3.76A3.85,3.85,0,0,1,130.72,94.81Z"/><path class="cls-2" d="M131.26,78.2c-.5,1.58-3.08,1.86-4.92,2-3.08.34-7.18-.15-7.32-1.29-.1-.83,2-1.64,6-3.23,3-1.18,3.92-1.18,4.66-.79A3,3,0,0,1,131.26,78.2Z"/><path class="cls-2" d="M123.84,67.64c0,1.8-4.55,3.18-5.25,3.39-1.66.49-3.45,1-4.3.18-1.2-1.18-.35-4.89,2-6.24C119.21,63.25,123.8,65.84,123.84,67.64Z"/><path class="cls-2" d="M206.52,142.21c.82,5.42,8.17,7.71,9.8,8.22,12.31,3.84,26-5.54,25.4-7.75-.47-1.67-8.62,2.42-18.94-1.72-6.88-2.76-10-7.27-13.26-5.8C207.2,136.2,206.12,139.62,206.52,142.21Z"/><path class="cls-2" d="M218.69,117.84c-.39,6.51,7.57,10.49,8.72,11.06,7,3.51,16.44,2.45,17.43-.64.51-1.57-2.45-4.3-8.39-9.69-9.43-8.56-11.53-8.43-12.61-8.16C220.88,111.17,218.87,114.79,218.69,117.84Z"/><path class="cls-2" d="M236.7,97.17c-1.49,5.46,5.73,11.66,11.69,14,7.83,3,17.8,1,18.73-2.58.48-1.85-2.16-4.25-7.42-9-6.31-5.74-9.54-8.61-13.33-8.56C242.42,91,237.7,93.5,236.7,97.17Z"/><path class="cls-2" d="M274.23,84.55c-5.05,3.8-2.26,13.55.64,18.52.44.75,4.38,7.51,8.07,6.78,3.86-.76,4.85-9.2,5.17-11.94.59-5,1.1-9.37-2-12.32S277.4,82.16,274.23,84.55Z"/><path class="cls-2" d="M305.75,92.63c-5,.25-7,7.54-7.31,8.51-1.44,5.16-.21,11.81,2.48,12.48,2.29.57,5.05-3.36,7.53-6.89,2.84-4,4.79-6.81,3.76-9.75A6.89,6.89,0,0,0,305.75,92.63Z"/><path class="cls-2" d="M321.26,106.3c-1.9.1-3.24,1.88-4.73,3.88-2,2.61-5.78,9.07-3.56,11.94,2.59,3.33,13.51,2.11,15.62-3.78C330.41,113.28,325.23,106.1,321.26,106.3Z"/><path class="cls-2" d="M332.85,131.11c-3.13-2.85-8.57,0-9.22.38-4.05,2.21-7.1,7.17-5.81,9.2,1.09,1.71,5,.89,10.81-.32,4-.84,4.91-1.6,5.41-2.4C335.31,136,334.67,132.76,332.85,131.11Z"/><path class="cls-2" d="M334.44,150.06c-1.63-3.16-7.69-2.39-8.55-2.27-6.3.89-11.33,6.08-10.66,7.43.51,1,3.7-1.16,10.5-.81,4.44.23,6.92,1.36,8.33-.15A3.88,3.88,0,0,0,334.44,150.06Z"/><path class="cls-2" d="M328.84,171.79c-.39-3.73-5.63-5.34-7-5.75-5.66-1.74-12.76,0-13.24,2.58-.39,2.14,3.74,4.53,6.79,6.3,3.65,2.11,6.86,4,9.83,2.62A6.17,6.17,0,0,0,328.84,171.79Z"/><path class="cls-2" d="M313.16,187.69c1-2.4-.91-5-2.12-6.64-3.33-4.43-9.35-7.26-10.82-5.81-.87.86.39,3.64,2.91,9.2,2.19,4.85,3.13,5.57,4.1,5.87A5.26,5.26,0,0,0,313.16,187.69Z"/><path class="cls-2" d="M291,192.42c3-1,4-5.32,3.91-8-.11-4.68-3.48-8.95-4.84-8.56-1,.3,0,3-1.45,8.24-1.17,4.35-2.81,6.19-1.82,7.57C287.59,192.82,289.63,192.9,291,192.42Z"/><path class="cls-2" d="M274.7,185.62c3.53.57,5.92-4.27,6.15-4.73,1.14-2.32,1.88-6.22.16-7.43-2.13-1.48-6.51,2.19-6.78,2.42-1.41,1.2-3.8,3.25-3.32,5.92A4.84,4.84,0,0,0,274.7,185.62Z"/><path class="cls-2" d="M268.26,166.74c.19.34,2,3.43,5.32,3.66,2.92.19,5.82-1.87,5.65-3.07-.13-.94-2-.64-5.33-2.59-2.21-1.3-2.88-2.32-3.81-2.05C269.45,162.87,268.65,163.66,268.26,166.74Z"/><path class="cls-2" d="M277,155.68c-.41,1.15.49,2.34,1.56,3.74.49.65,3.67,4.85,5.48,4,1.34-.59,1.43-3.68.65-5.81-.25-.68-1.15-3.12-3.44-3.63C279.65,153.65,277.51,154.3,277,155.68Z"/><path class="cls-2" d="M295.06,157.38a5.32,5.32,0,0,1,.64,4.3c-.52,2-2.31,4.31-3.88,4-1.93-.34-2.36-4.45-2.42-5-.1-1-.46-4.48,1.33-5.31C292.1,154.77,294.09,156,295.06,157.38Z"/><path class="cls-2" d="M187.11,247.21c3.79,2.92,15-3.32,21.46-11.54,8.47-10.69,10.12-26.08,6.46-28-2-1-7.07,3.62-17.22,12.92-6.08,5.56-7.65,7.65-8.89,10C186.11,236,183.93,244.76,187.11,247.21Z"/><path class="cls-2" d="M192.73,198.13c2.84,3.16,11.59.64,17.13-3.36,11.29-8.13,14-25.77,10.34-28-1.27-.77-5.73,2.5-14.64,9-7.69,5.64-10,7.93-11.59,11.29C193.34,188.44,190.11,195.22,192.73,198.13Z"/><path class="cls-2" d="M184.05,278.26c2.74-4.68,7.52-5.27,14.62-8.14,14.55-5.89,18-12.92,20.66-11.2,4.14,2.63,1.57,22.49-11.22,30.13-8.41,5-21.59,5-24.94-.93C181.45,285.11,182.5,280.9,184.05,278.26Z"/><path class="cls-2" d="M180.82,317.86c3.11-4.35,8.78-5.1,20-6.41,12-1.41,18-2.11,19.38.43,2.52,4.48-7.13,17.38-19.81,21.52-1.13.37-15.51,4.9-20.43-2.14C177.34,327.52,178.16,321.6,180.82,317.86Z"/><path class="cls-2" d="M178.73,358c1.3-2.45,3.78-4.53,13.05-6.9,11-2.8,19.93-5.08,22-1.72s-3.78,11.6-10.33,15.93c-8.35,5.51-21.24,7.06-24.89,1.71C176.73,364.35,177.41,360.42,178.73,358Z"/></g><g id="Layer_5" data-name="Layer 5"><path class="cls-3" d="M166.11,378.17c-2.88,2.36-11.75-1.68-16.09-8.17-5.76-8.63-3.76-21.95.43-23.25,4.61-1.43,12.93,11.36,15.72,22.39C167,372.55,168,376.62,166.11,378.17Z"/><path class="cls-3" d="M167.5,337.67c-1.77,2.23-9.11.31-14-3.41-10.22-7.7-12-24.51-8.61-26.26,3.65-1.88,14.43,13.23,16.36,15.93C164.75,328.89,169.35,335.33,167.5,337.67Z"/><path class="cls-3" d="M167.32,276.46c-1.84,3.46-12.45,2.65-19.95-1.79-9.75-5.77-15.4-18.34-12.49-21.52s14.32,2.53,21.1,7.75C160.85,264.64,169.29,272.74,167.32,276.46Z"/><path class="cls-3" d="M158.32,228c-1,4.53-13.24,5.57-20.35,5.14-5.72-.34-17.59-2.19-18.09-6.46-.53-4.5,11.59-12.06,22.82-10.33C151,217.57,159.16,223.92,158.32,228Z"/><path class="cls-3" d="M85,166.25c1.07,1.55.6,3.48-.21,6.67s-2.63,10.26-5,10.23c-3.27-.05-8.19-14.22-3.67-18C78.45,163.26,83.32,163.79,85,166.25Z"/><path class="cls-3" d="M57.77,166.24c5.15,1.23,6.46,10.17,7,13.9.16,1.14,1.62,11.48-1.29,12.48-2.53.87-6.86-5.79-8.62-9-1-1.93-6.38-11.8-2.42-15.87A5.84,5.84,0,0,1,57.77,166.24Z"/><path class="cls-3" d="M32.52,180.39c.88-2.91,3.86-6,6.29-5.53,5,1.07,7.51,17.7,4.23,19.27C40.27,195.45,30.39,187.52,32.52,180.39Z"/><path class="cls-3" d="M23.45,192.2a10,10,0,0,1,10.11.42c4.51,3,5.65,9.59,3.66,11.41-3,2.79-15.86-3.34-15.58-8.64A4.61,4.61,0,0,1,23.45,192.2Z"/><path class="cls-3" d="M93.62,185c-3.45-2-4.23-12.9,1.76-15.81,4.58-2.23,11.29,1.1,12.11,4.86C108.69,179.53,97.63,187.28,93.62,185Z"/><path class="cls-3" d="M16.64,207c-2.76,1.4-4.05,6.28-2.44,9.22,2.89,5.25,14.53,3.45,15.6.22C30.92,213,21.53,204.49,16.64,207Z"/><path class="cls-3" d="M13.44,234.92A4.92,4.92,0,0,1,13,230c.81-1.65,2.54-2.3,6.13-3.23,8.13-2.1,12.19-3.15,13.24-1.61s-1,5.3-3,7.33C24.72,237.2,16,238.22,13.44,234.92Z"/><path class="cls-3" d="M16.44,246.07c.7-1.76,2.65-2.36,6.08-3.42s8.79-2.71,10.18-.73-1.86,6.79-4.84,9.36c-1.7,1.47-3.85,3.32-6.43,2.84C18,253.47,15.32,248.91,16.44,246.07Z"/><path class="cls-3" d="M30.46,261.77c-1.15-1.34,2-5.71,3.53-7.58,1.7-2,5.53-5.79,7.11-4.85,1.41.84.91,5.37-1.29,8.4C37.07,261.51,31.6,263.11,30.46,261.77Z"/><path class="cls-3" d="M46.57,267.4c-1.59-1.48-.19-5.17,1.63-10,1.29-3.42,1.94-5.12,2.91-5.17,1.79-.09,4.32,4.88,3.55,9.36-.14.84-.78,4.58-3.87,5.88C50.65,267.55,47.92,268.65,46.57,267.4Z"/><path class="cls-3" d="M59.5,250.63c-1.29,2.21,3.47,9.94,8.3,8.93,2.6-.55,5-3.58,4.45-5.8C71.33,249.75,60.93,248.2,59.5,250.63Z"/><path class="cls-3" d="M77.12,237.38c-3.05-3.11-10.3-.66-11.16,2.6-.94,3.56,5.41,9.41,9.18,7.91C78.27,246.65,79.89,240.21,77.12,237.38Z"/><path class="cls-3" d="M72.69,228.23c-.23-1.8-4.4-3.76-7.91-2.28-4,1.69-5,6.92-3.66,8.22C63.16,236.17,73.07,231.18,72.69,228.23Z"/><path class="cls-3" d="M57.24,225.7c.76,1.15-.87,3.32-1.5,4.16-1.11,1.47-3.48,3.82-4.52,3.23-1.27-.71-.95-5.91,1.93-7.52C54.51,224.8,56.61,224.75,57.24,225.7Z"/><path class="cls-3" d="M127.39,186.21c-4.33-.8-7.94,2.38-14.12,7.81-4,3.53-6,5.29-5.66,6.73.9,3.48,13.17,5.72,20.67.16.64-.48,6.48-4.92,5.25-9.59C132.83,188.62,130,186.7,127.39,186.21Z"/><path class="cls-3" d="M182,217.43c-3.78,2.46-10.33-1.45-13.5-4.14-11.73-10-10.61-31.79-6.46-33.15,2.22-.73,3.36,5,15.07,16.36,3.37,3.26,6,5.42,7.11,9.57C185.24,209.74,185.16,215.38,182,217.43Z"/><path class="cls-3" d="M188.08,168.52c-4,2.89-12.44-2.17-17-6.47-10.68-10.14-12-27.69-8.61-29.27,1.9-.89,3.76,4,14.53,11.95,6.85,5.07,9.75,5.82,11.79,10C191.09,159.37,191.3,166.22,188.08,168.52Z"/><path class="cls-3" d="M189.78,118.66c-2.77,4.35-9.9,3.52-11.35,3.36-11.8-1.38-21.18-15.1-18.94-18.52,1-1.6,3.63.6,21.1,3.45,4.07.66,7.46,1.11,9.21,3.87A7.65,7.65,0,0,1,189.78,118.66Z"/><path class="cls-3" d="M188.84,83.2c-2.37,4-8.59,3.67-11.27,3.51-8.67-.49-17.88-6.21-17.22-9.9.72-4,13-4.6,15.93-4.74,5.18-.24,9.4-.37,11.8,2.61A7.91,7.91,0,0,1,188.84,83.2Z"/><path class="cls-3" d="M184.24,52.53c.16,3.4-7.48,6.62-13.12,7.49-6.19,1-14.75-.16-15.5-3.44s6.86-9.33,14.63-9.91C176.63,46.2,184.08,49.23,184.24,52.53Z"/><path class="cls-3" d="M171.43,27.38c.68,4.4-9.26,8.57-10.22,9-2,.82-8.56,3.51-10.33,1.29s1.52-8,5.6-11.19c.92-.72,6-4.7,11-2.76C168,23.88,171.07,25.08,171.43,27.38Z"/><path class="cls-3" d="M146.33,12.88c2.09,2.86-1.15,8.08-3.2,10.44-1.84,2.12-5.85,5.54-7.75,4.41C132.5,26,133.92,13.48,140,11.4,142.13,10.68,145.06,11.15,146.33,12.88Z"/><path class="cls-3" d="M117.55,12.66c-2.22-1.76-8.12.72-10.77,4.86-3.77,5.87-1.06,15.16,2.13,15.81s7.22-6.8,8.71-12.27C118.27,18.69,119.5,14.19,117.55,12.66Z"/><path class="cls-3" d="M92.46,30.68c2.7-.13,5.47,6.92,6.11,12.66.21,1.86.86,7.73-1,8.39-2.51.91-10.41-7.8-8.72-15.69C89.32,34,90.67,30.76,92.46,30.68Z"/><path class="cls-3" d="M81.37,55.2c2.91-2.41,7.49.13,8.48.73,4.54,2.75,7,9.15,5.17,11.3s-7.63-.16-9.69-1c-2.37-.93-4.08-1.63-5.06-3.47C79,60.48,79.25,57,81.37,55.2Z"/><path class="cls-3" d="M81,80.12c1.62-3.9,6.17-4.6,7.54-4.82,3.34-.51,8.33.23,9,2.59,1.23,4-9.92,13.27-14.61,10.78C80.66,87.43,79.73,83.21,81,80.12Z"/><path class="cls-3" d="M91.68,104.17c-.8-2.37.63-4.51,1.94-6.48,1.92-2.88,5.73-6.56,7.54-5.6,2,1,.49,7.06.21,8.18-.71,2.89-1.74,7.07-4.51,7.52C94.82,108.12,92.41,106.34,91.68,104.17Z"/><path class="cls-3" d="M113.16,108.28c-1.58-.81-1.63-3.31-1.67-7.58,0-4.9-.09-9.3,1.72-9.9s5.26,3.15,6.46,6.89c.35,1.09,1.67,5.2-.73,8.23C117.55,107.66,114.85,109.15,113.16,108.28Z"/><path class="cls-3" d="M130.72,94.81c-2.25,1.42-5.6-1.23-6.1-1.64-2.93-2.4-4.55-6.89-3.23-8.18,1.6-1.56,7.06,2.05,7.53,2.37,1.63,1.08,3.05,2,3.3,3.76A3.85,3.85,0,0,1,130.72,94.81Z"/><path class="cls-3" d="M131.26,78.2c-.5,1.58-3.08,1.86-4.92,2-3.08.34-7.18-.15-7.32-1.29-.1-.83,2-1.64,6-3.23,3-1.18,3.92-1.18,4.66-.79A3,3,0,0,1,131.26,78.2Z"/><path class="cls-3" d="M123.84,67.64c0,1.8-4.55,3.18-5.25,3.39-1.66.49-3.45,1-4.3.18-1.2-1.18-.35-4.89,2-6.24C119.21,63.25,123.8,65.84,123.84,67.64Z"/><path class="cls-3" d="M206.52,142.21c.82,5.42,8.17,7.71,9.8,8.22,12.31,3.84,26-5.54,25.4-7.75-.47-1.67-8.62,2.42-18.94-1.72-6.88-2.76-10-7.27-13.26-5.8C207.2,136.2,206.12,139.62,206.52,142.21Z"/><path class="cls-3" d="M218.69,117.84c-.39,6.51,7.57,10.49,8.72,11.06,7,3.51,16.44,2.45,17.43-.64.51-1.57-2.45-4.3-8.39-9.69-9.43-8.56-11.53-8.43-12.61-8.16C220.88,111.17,218.87,114.79,218.69,117.84Z"/><path class="cls-3" d="M236.7,97.17c-1.49,5.46,5.73,11.66,11.69,14,7.83,3,17.8,1,18.73-2.58.48-1.85-2.16-4.25-7.42-9-6.31-5.74-9.54-8.61-13.33-8.56C242.42,91,237.7,93.5,236.7,97.17Z"/><path class="cls-3" d="M274.23,84.55c-5.05,3.8-2.26,13.55.64,18.52.44.75,4.38,7.51,8.07,6.78,3.86-.76,4.85-9.2,5.17-11.94.59-5,1.1-9.37-2-12.32S277.4,82.16,274.23,84.55Z"/><path class="cls-3" d="M305.75,92.63c-5,.25-7,7.54-7.31,8.51-1.44,5.16-.21,11.81,2.48,12.48,2.29.57,5.05-3.36,7.53-6.89,2.84-4,4.79-6.81,3.76-9.75A6.89,6.89,0,0,0,305.75,92.63Z"/><path class="cls-3" d="M321.26,106.3c-1.9.1-3.24,1.88-4.73,3.88-2,2.61-5.78,9.07-3.56,11.94,2.59,3.33,13.51,2.11,15.62-3.78C330.41,113.28,325.23,106.1,321.26,106.3Z"/><path class="cls-3" d="M332.85,131.11c-3.13-2.85-8.57,0-9.22.38-4.05,2.21-7.1,7.17-5.81,9.2,1.09,1.71,5,.89,10.81-.32,4-.84,4.91-1.6,5.41-2.4C335.31,136,334.67,132.76,332.85,131.11Z"/><path class="cls-3" d="M334.44,150.06c-1.63-3.16-7.69-2.39-8.55-2.27-6.3.89-11.33,6.08-10.66,7.43.51,1,3.7-1.16,10.5-.81,4.44.23,6.92,1.36,8.33-.15A3.88,3.88,0,0,0,334.44,150.06Z"/><path class="cls-3" d="M328.84,171.79c-.39-3.73-5.63-5.34-7-5.75-5.66-1.74-12.76,0-13.24,2.58-.39,2.14,3.74,4.53,6.79,6.3,3.65,2.11,6.86,4,9.83,2.62A6.17,6.17,0,0,0,328.84,171.79Z"/><path class="cls-3" d="M313.16,187.69c1-2.4-.91-5-2.12-6.64-3.33-4.43-9.35-7.26-10.82-5.81-.87.86.39,3.64,2.91,9.2,2.19,4.85,3.13,5.57,4.1,5.87A5.26,5.26,0,0,0,313.16,187.69Z"/><path class="cls-3" d="M291,192.42c3-1,4-5.32,3.91-8-.11-4.68-3.48-8.95-4.84-8.56-1,.3,0,3-1.45,8.24-1.17,4.35-2.81,6.19-1.82,7.57C287.59,192.82,289.63,192.9,291,192.42Z"/><path class="cls-3" d="M274.7,185.62c3.53.57,5.92-4.27,6.15-4.73,1.14-2.32,1.88-6.22.16-7.43-2.13-1.48-6.51,2.19-6.78,2.42-1.41,1.2-3.8,3.25-3.32,5.92A4.84,4.84,0,0,0,274.7,185.62Z"/><path class="cls-3" d="M268.26,166.74c.19.34,2,3.43,5.32,3.66,2.92.19,5.82-1.87,5.65-3.07-.13-.94-2-.64-5.33-2.59-2.21-1.3-2.88-2.32-3.81-2.05C269.45,162.87,268.65,163.66,268.26,166.74Z"/><path class="cls-3" d="M277,155.68c-.41,1.15.49,2.34,1.56,3.74.49.65,3.67,4.85,5.48,4,1.34-.59,1.43-3.68.65-5.81-.25-.68-1.15-3.12-3.44-3.63C279.65,153.65,277.51,154.3,277,155.68Z"/><path class="cls-3" d="M295.06,157.38a5.32,5.32,0,0,1,.64,4.3c-.52,2-2.31,4.31-3.88,4-1.93-.34-2.36-4.45-2.42-5-.1-1-.46-4.48,1.33-5.31C292.1,154.77,294.09,156,295.06,157.38Z"/><path class="cls-2" d="M166.17,369.14A51.9,51.9,0,0,0,158,351.87a22.3,22.3,0,0,1,2.18,8.46,22.07,22.07,0,0,1-1.15,8.06c-.67,1.82-2.18,3.69-4.29,2.55a9,9,0,0,1-2.8-3,27.37,27.37,0,0,1-2.29-4.27A25.8,25.8,0,0,1,147.7,350c-1.95,4.77-1.92,13.67,2.32,20s13.21,10.53,16.09,8.17C168,376.62,167,372.55,166.17,369.14Z"/><path class="cls-2" d="M161.82,324.79a18.83,18.83,0,0,1,1.11,5.31c.07,1.4.1,3.63-1,4.72-.88.88-2.06.56-3,.07a36.72,36.72,0,0,1-9.57-6.6,31.77,31.77,0,0,1-3.61-4.36,25.19,25.19,0,0,0,7.74,10.33c4.93,3.72,12.27,5.64,14,3.41S165.25,329.6,161.82,324.79Z"/><path class="cls-2" d="M161,265.27c.34.61,3.13,5.8,1.17,7.94a3.15,3.15,0,0,1-2,.87,25.16,25.16,0,0,1-14.09-2.28,24.12,24.12,0,0,1-8.71-8.06,37.59,37.59,0,0,1-2.8-5.19c1.43,5.12,6.16,12.2,12.79,16.12,7.5,4.44,18.11,5.25,19.95,1.79C168.69,273.87,165,269.16,161,265.27Z"/><path class="cls-2" d="M151,219.24c.17.17.34.33.5.5,1.53,1.65,3.22,3.84,3.33,6.19.18,4.1-4.74,5.08-7.87,5.39a46.81,46.81,0,0,1-14.37-.8A39.6,39.6,0,0,1,127,228.8a9.71,9.71,0,0,1-3.35-1.94,4.58,4.58,0,0,1-1.08-4.88c-1.83,1.6-2.86,3.27-2.7,4.65.5,4.27,12.37,6.12,18.09,6.46,7.11.43,19.39-.61,20.35-5.14C158.86,225.35,155.62,221.79,151,219.24Z"/><path class="cls-2" d="M79,181.12a8.12,8.12,0,0,1-2.43-3.45,14.82,14.82,0,0,1-1.23-4.57,4.52,4.52,0,0,1,1.25-3.88,4.78,4.78,0,0,1,3.87-.77,6.59,6.59,0,0,1,3.73,1.41,4.68,4.68,0,0,1,1,1.4c.52-2.23.67-3.75-.2-5-1.69-2.46-6.56-3-8.83-1.1-4.52,3.78.4,17.95,3.67,18,.67,0,1.31-.6,1.89-1.54A3.22,3.22,0,0,1,79,181.12Z"/><path class="cls-2" d="M64,190.5c-1.26.28-2.42-.58-3.31-1.35a17.81,17.81,0,0,1-3.07-3.84,33.94,33.94,0,0,1-2.32-4.43,31.09,31.09,0,0,1-1.64-4,5.06,5.06,0,0,1,.16-3.75,5.19,5.19,0,0,1,3.23-2.29,10.07,10.07,0,0,1,4-.59,4.84,4.84,0,0,1,1.24.33c-1-2.11-2.46-3.83-4.51-4.32a5.84,5.84,0,0,0-5.32,1.47c-4,4.07,1.38,13.94,2.42,15.87,1.76,3.25,6.09,9.91,8.62,9,.8-.28,1.27-1.29,1.52-2.61A2.39,2.39,0,0,1,64,190.5Z"/><path class="cls-2" d="M42.16,193.11c-2.35-.16-3.88-2.63-5-4.43a9.35,9.35,0,0,1-1.53-3.93,4.69,4.69,0,0,1,1.78-4,5.29,5.29,0,0,1,4.07-1.25,9.4,9.4,0,0,1,1.28.27c-1-2.56-2.34-4.53-4-4.88-2.43-.52-5.41,2.62-6.29,5.53-2.13,7.13,7.75,15.06,10.52,13.74a2.57,2.57,0,0,0,1.11-1.67A3,3,0,0,1,42.16,193.11Z"/><path class="cls-2" d="M36.25,203.42a9.49,9.49,0,0,1-4.63-.49c-2.69-.84-6.36-2.33-7-5.45s2.13-5.24,4.87-6.34a10.49,10.49,0,0,0-6.07,1.06,4.61,4.61,0,0,0-1.81,3.19c-.28,5.3,12.54,11.43,15.58,8.64a2.9,2.9,0,0,0,.81-1.6A3.25,3.25,0,0,1,36.25,203.42Z"/><path class="cls-2" d="M107.49,174c-.82-3.76-7.53-7.09-12.11-4.86A7.68,7.68,0,0,0,91.55,174a6.84,6.84,0,0,1,2.63-.5,8.64,8.64,0,0,1,2.67.44,7.31,7.31,0,0,1,.78.29h.07l.68.27c2,.8,5.37,2,5.31,4.66,0,1.39-1.17,2.45-2.22,3.2a12.58,12.58,0,0,1-3.8,1.73,6.75,6.75,0,0,1-4.5,0c-.26-.11-.53-.23-.79-.36A3.93,3.93,0,0,0,93.62,185C97.63,187.28,108.69,179.53,107.49,174Z"/><path class="cls-2" d="M28.07,217.31a15,15,0,0,1-5.15.66c-1.78.05-3.81.09-5.41-.81-2.06-1.15-1.94-3.43-1.38-5.43a9.8,9.8,0,0,1,3.31-5.13,4.78,4.78,0,0,0-2.8.37c-2.76,1.4-4.05,6.28-2.44,9.22,2.89,5.25,14.53,3.45,15.6.22,0,0,0-.07,0-.11A6,6,0,0,1,28.07,217.31Z"/><path class="cls-2" d="M30.31,231a19.49,19.49,0,0,1-6.41,3.63,12.53,12.53,0,0,1-5.6,1c-2.11-.24-4-1.72-3.84-4a7.09,7.09,0,0,1,1.79-4c-1.7.6-2.69,1.26-3.24,2.38a4.92,4.92,0,0,0,.43,4.95c2.6,3.3,11.28,2.28,15.94-2.46a15.34,15.34,0,0,0,2-2.59A10.89,10.89,0,0,1,30.31,231Z"/><path class="cls-2" d="M26.58,251.55a6.74,6.74,0,0,1-2.93.81c-3.16-.11-5.85-4.7-5.53-8.07a3.61,3.61,0,0,0-1.68,1.78c-1.12,2.84,1.53,7.4,5,8.05,2.58.48,4.73-1.38,6.43-2.84a17.58,17.58,0,0,0,1.4-1.35A16.61,16.61,0,0,1,26.58,251.55Z"/><path class="cls-2" d="M37.31,259.83c-1.21.72-3,1.75-4.46,1.25a2.1,2.1,0,0,1-1.22-2.53,8.77,8.77,0,0,1,1.4-3.06l.18-.32c-1.62,2.13-3.72,5.46-2.75,6.6s5.79,0,8.66-3.2A14.26,14.26,0,0,1,37.31,259.83Z"/><path class="cls-2" d="M53.85,264a7.76,7.76,0,0,1-3.3,2.5,3.1,3.1,0,0,1-2.22.2c-1.57-.54-1.84-2.42-1.83-3.86,0-.23,0-.46,0-.7-.77,2.49-1,4.36,0,5.31,1.35,1.25,4.08.15,4.22.09a6.51,6.51,0,0,0,3.45-4.17A6,6,0,0,1,53.85,264Z"/><path class="cls-2" d="M72.25,253.76a3.3,3.3,0,0,0-.91-1.53,3.74,3.74,0,0,1-.31,1.84,6.85,6.85,0,0,1-2.14,2.6,3.88,3.88,0,0,1-3.59.57,9.3,9.3,0,0,1-4.67-3.67,7.38,7.38,0,0,1-1.22-2.69c-.88,2.47,3.71,9.66,8.39,8.68C70.4,259,72.76,256,72.25,253.76Z"/><path class="cls-2" d="M77.12,237.38a5,5,0,0,0-3-1.37,6.13,6.13,0,0,1,1.68,2.91,8,8,0,0,1,.07,3.23,6.11,6.11,0,0,1-.72,2.38,2.3,2.3,0,0,1-2.76.88,8.3,8.3,0,0,1-2.36-1,6.34,6.34,0,0,1-2.82-3.91,5.25,5.25,0,0,1,.13-2.47A4.05,4.05,0,0,0,66,240c-.94,3.56,5.41,9.41,9.18,7.91C78.27,246.65,79.89,240.21,77.12,237.38Z"/><path class="cls-2" d="M64.78,226c-4,1.69-5,6.92-3.66,8.22.64.62,2.06.56,3.69.09a3.42,3.42,0,0,1-.64,0,2.89,2.89,0,0,1-1.87-.78,3.16,3.16,0,0,1-.82-2.17c0-1.52.62-3.19,2.28-3.46a6.81,6.81,0,0,1,4.38,1.28,6,6,0,0,1,2.27,2.31c1.43-1.08,2.4-2.25,2.28-3.21C72.46,226.43,68.29,224.47,64.78,226Z"/><path class="cls-2" d="M53.29,232.17a1.84,1.84,0,0,1-1.94-.35,2,2,0,0,1-.51-1.58,4.77,4.77,0,0,1,.41-1.62,2.72,2.72,0,0,1,1-1.1,3.84,3.84,0,0,1,4.62.63c.48-.87.8-1.81.37-2.45-.63-.95-2.73-.9-4.09-.13-2.88,1.61-3.2,6.81-1.93,7.52.62.35,1.71-.35,2.73-1.27A3.78,3.78,0,0,1,53.29,232.17Z"/><path class="cls-2" d="M133.53,191.32c-.7-2.7-3.54-4.62-6.14-5.11s-5,.5-7.8,2.54a12.42,12.42,0,0,1,6.86,2.16c2.38,1.61,4.6,4.44,3.09,7.39s-4.89,3.44-7.74,4.08a23.61,23.61,0,0,1-10,.25,6,6,0,0,1-4.06-2.81,1.69,1.69,0,0,0-.09.93c.9,3.48,13.17,5.72,20.67.16C128.92,200.43,134.76,196,133.53,191.32Z"/><path class="cls-2" d="M184.25,206.07c-1.1-4.08-3.66-6.24-6.94-9.41a11.39,11.39,0,0,1,1.74,5.74c0,3.56-.55,10-5.56,9.51-3.71-.39-6.9-4-8.86-6.86a42,42,0,0,1-4-7.46c-.51-1.24-.89-2.52-1.28-3.8.72,6.8,3.37,14.58,9.15,19.5,3.17,2.69,9.72,6.6,13.5,4.14C185.16,215.38,185.24,209.74,184.25,206.07Z"/><path class="cls-2" d="M188.83,154.73c-1.7-3.5-4-4.6-8.73-7.82a30.21,30.21,0,0,1,2.19,9.87,31.41,31.41,0,0,1,0,5.4c-.15,1.27-.68,2.41-2.08,2.5-2.23.15-4.68-1.54-6.46-2.68-3.25-2.07-5.58-5.17-8.11-8a20.72,20.72,0,0,1-1.44-1.78,32.08,32.08,0,0,0,6.92,9.84c4.52,4.3,12.92,9.36,17,6.47C191.3,166.22,191.09,159.37,188.83,154.73Z"/><path class="cls-2" d="M189.8,110.82c-1.55-2.43-4.37-3.07-7.82-3.65a5.36,5.36,0,0,1,2.24,4.27c.11,2.7-1,5.76-3.93,6.38a18,18,0,0,1-9.9-1.11c-3.16-1.25-5.09-3.73-7.07-6.36-1.6-2.11-3.32-4.62-3.13-7.34a1.08,1.08,0,0,0-.7.49c-2.24,3.42,7.14,17.14,18.94,18.52,1.45.16,8.58,1,11.35-3.36A7.65,7.65,0,0,0,189.8,110.82Z"/><path class="cls-2" d="M188.08,74.68c-2-2.5-5.32-2.81-9.4-2.7A7.3,7.3,0,0,1,182,75c1.38,2.48,1.3,5.81-1.57,7.13a13.17,13.17,0,0,1-8.4.55c-.68-.14-1.68-.48-3.68-1.12a18.67,18.67,0,0,1-3.63-1.39c-1.32-.74-2.61-1.45-3-2.85a3.77,3.77,0,0,1,.23-2.51,3.1,3.1,0,0,0-1.58,2c-.66,3.69,8.55,9.41,17.22,9.9,2.68.16,8.9.51,11.27-3.51A7.91,7.91,0,0,0,188.08,74.68Z"/><path class="cls-2" d="M177.6,47.5a5,5,0,0,1,2.93,4.5c-.14,1.81-1.73,2.93-2.69,3.61-.64.45-1.89,1.21-6,1.83a33.14,33.14,0,0,1-8.5.32c-4-.45-5.09-1.45-5.56-2a5,5,0,0,1-1-2.43,4.11,4.11,0,0,0-1.15,3.27c.75,3.28,9.31,4.4,15.5,3.44,5.64-.87,13.28-4.09,13.12-7.49C184.14,50.5,181.27,48.57,177.6,47.5Z"/><path class="cls-2" d="M171.43,27.38c-.36-2.3-3.45-3.5-4-3.7-3.74-1.46-7.54.43-9.59,1.76,1.36.16,2.72.25,4.07.45a21.09,21.09,0,0,1,4.1.8,3.7,3.7,0,0,1,2.51,2.47,3.32,3.32,0,0,1-1.1,3.05A17.59,17.59,0,0,1,160.72,36a13.19,13.19,0,0,1-7.12.52,3.77,3.77,0,0,1-2.72-2.57c-.57,1.56-.64,2.92,0,3.73,1.77,2.22,8.34-.47,10.33-1.29C162.17,36,172.11,31.78,171.43,27.38Z"/><path class="cls-2" d="M135.36,20.1a10.66,10.66,0,0,1,2-4.53,4.76,4.76,0,0,1,4.56-1.69,5.08,5.08,0,0,1,3.8,3.37A5.62,5.62,0,0,1,146,19c1-2.17,1.54-4.53.37-6.14s-4.2-2.2-6.32-1.48c-6.09,2.08-7.51,14.62-4.63,16.33a2.56,2.56,0,0,0,2.29-.11C134.16,27.4,134.86,22.46,135.36,20.1Z"/><path class="cls-2" d="M111.48,32.17a3.07,3.07,0,0,1-3.19-.94c-1.44-1.72-1.5-4.49-1.25-6.61a10,10,0,0,1,4.69-7.47,8.86,8.86,0,0,1,4.61-1.42,4,4,0,0,1,2.22.82c.15-1.62,0-3.12-1-3.89-2.22-1.76-8.12.72-10.77,4.86-3.77,5.87-1.06,15.16,2.13,15.81a3.46,3.46,0,0,0,2.86-1.26Z"/><path class="cls-2" d="M95.25,49a23.62,23.62,0,0,1-3.35-10,14.06,14.06,0,0,1,1.48-8.14,1.75,1.75,0,0,0-.92-.23c-1.79.08-3.14,3.31-3.58,5.36-1.69,7.89,6.21,16.6,8.72,15.69a1.35,1.35,0,0,0,.69-.67C96.94,51.35,95.87,50,95.25,49Z"/><path class="cls-2" d="M94.16,67.1c-2.29.48-4.53-1-6.56-1.82-1.69-.7-3.5-1.51-4.43-3.19a7.72,7.72,0,0,1-.28-5.75,5.56,5.56,0,0,1,1.32-2.15,4.57,4.57,0,0,0-2.84,1C79.25,57,79,60.48,80.27,62.79c1,1.84,2.69,2.54,5.06,3.47,2.06.81,7.86,3.09,9.69,1a2.32,2.32,0,0,0,.38-.65A3.51,3.51,0,0,1,94.16,67.1Z"/><path class="cls-2" d="M92.43,85.63c-1.71,1.2-3.8,2.35-6,1.9-3-.6-3.27-4.15-2.89-6.58a12,12,0,0,1,1.78-4.82,7.45,7.45,0,0,0-4.33,4c-1.29,3.09-.36,7.31,2,8.55,2.86,1.52,8.13-1.33,11.52-4.7A22.25,22.25,0,0,1,92.43,85.63Z"/><path class="cls-2" d="M97.84,107c-2,0-3-2.17-3.49-3.83-.61-2.36.2-4.48,1.18-6.62.35-.76.68-1.53,1-2.28a20.71,20.71,0,0,0-2.94,3.46c-1.31,2-2.74,4.11-1.94,6.48.73,2.17,3.14,4,5.18,3.62a3.24,3.24,0,0,0,1.71-.9A2.79,2.79,0,0,1,97.84,107Z"/><path class="cls-2" d="M114.85,105.12c-2.32-1-2.63-3.39-2.84-5.6-.13-1.39-.32-2.78-.46-4.16-.1,1.57-.08,3.41-.06,5.34,0,4.27.09,6.77,1.67,7.58s4.39-.62,5.78-2.36A6.3,6.3,0,0,0,120,103.8C119,105.58,116.64,105.85,114.85,105.12Z"/><path class="cls-2" d="M132.22,91.12a3.46,3.46,0,0,0-.55-1.4,6.57,6.57,0,0,1-.56,2,2.44,2.44,0,0,1-2,1.46,4,4,0,0,1-2.24-.63,12.28,12.28,0,0,1-3.36-2.94,11.86,11.86,0,0,1-2.26-4.41c-1,1.51.61,5.68,3.4,8,.5.41,3.85,3.06,6.1,1.64A3.85,3.85,0,0,0,132.22,91.12Z"/><path class="cls-2" d="M129.71,74.94a2.38,2.38,0,0,0-1.65-.16,2.52,2.52,0,0,1,1.14,2.32,2.32,2.32,0,0,1-1.27,1.78,7.89,7.89,0,0,1-2.75.6,17.49,17.49,0,0,1-3.07,0,8.34,8.34,0,0,1-3-.78A.52.52,0,0,0,119,79c.14,1.14,4.24,1.63,7.32,1.29,1.84-.19,4.42-.47,4.92-2A3,3,0,0,0,129.71,74.94Z"/><path class="cls-2" d="M116.25,65c-2.31,1.35-3.16,5.06-2,6.24.85.85,2.64.31,4.3-.18.7-.21,5.29-1.59,5.25-3.4S119.21,63.25,116.25,65Zm4.93,3.5a6.39,6.39,0,0,1-2.37,1c-3,.66-3.26.79-3.55.54-.66-.55-.52-1.89-.13-2.69A3,3,0,0,1,116.45,66a1.23,1.23,0,0,1,.52-.12,2.64,2.64,0,0,1,.63-.13,3.73,3.73,0,0,1,1.35.11,4.82,4.82,0,0,1,2.08.78c.37.29.82.58.81,1S121.65,68.13,121.18,68.47Z"/><path class="cls-2" d="M222.15,148.1c-3.5-.21-7-.84-9.19-3.79s-1.42-5.94-.81-9.2a3.47,3.47,0,0,0-2.63,0c-2.32,1-3.4,4.46-3,7.05.82,5.42,8.17,7.71,9.8,8.22,8.23,2.57,17.09-.78,21.87-3.94A47.75,47.75,0,0,1,222.15,148.1Z"/><path class="cls-2" d="M229.28,125.48c-5.23-3.64-6.28-9.66-2.19-14.26-1.89-1-2.7-1-3.25-.81-3,.76-5,4.38-5.15,7.43-.39,6.51,7.57,10.49,8.72,11.06,6.7,3.35,15.59,2.53,17.23-.25C239.66,129.92,233.43,128.37,229.28,125.48Z"/><path class="cls-2" d="M266.44,108.24C262.75,112,254.09,111,249,106.85c-1.07-.88-3.46-2.83-3.66-5.78A7.07,7.07,0,0,1,245.9,98a13.52,13.52,0,0,1,5.06-5.6A8.65,8.65,0,0,0,246.37,91c-4,.06-8.67,2.54-9.67,6.21-1.49,5.46,5.73,11.66,11.69,14,7.83,3,17.8,1,18.73-2.58a1.91,1.91,0,0,0-.05-1.08A6.88,6.88,0,0,1,266.44,108.24Z"/><path class="cls-2" d="M299.5,109c-1.12-3.29-.57-7.34,2-9.81,3.26-3.1,7.82-1.91,10.73,1a5.11,5.11,0,0,0,0-3.19,6.89,6.89,0,0,0-6.46-4.35c-5,.25-7,7.54-7.31,8.51-1.44,5.16-.21,11.81,2.48,12.48.93.23,1.95-.29,3-1.22C301.85,112.54,300.12,110.82,299.5,109Z"/><path class="cls-2" d="M321.26,106.3c-1.9.1-3.24,1.88-4.73,3.88-2,2.61-5.78,9.07-3.56,11.94,2.59,3.33,13.51,2.11,15.62-3.78C330.41,113.28,325.23,106.1,321.26,106.3Zm2.93,12.76a5.53,5.53,0,0,1-2.09,1.69,6.8,6.8,0,0,1-2.83.65c-1,0-4,.1-5.09-1.78-.71-1.25-.21-2.76.17-3.87.29-.89.44-.81,2.23-3.64,1.31-2,1.6-2.67,2.47-3a3.24,3.24,0,0,1,2.16.14,4.37,4.37,0,0,1,1.93,1.85c1.23,1.81,2.39,3.52,2,5.66A5.39,5.39,0,0,1,324.19,119.06Z"/><path class="cls-2" d="M332.85,131.11a4.62,4.62,0,0,0-2.09-1.08,6.29,6.29,0,0,1,.13,3.7c-.95,3.45-4.39,5.4-7.77,5.64a5.89,5.89,0,0,1-4.65-1.71c-.13-.14-.22-.29-.33-.43-.66,1.38-.84,2.65-.32,3.46,1.09,1.71,5,.89,10.81-.32,4-.84,4.91-1.6,5.41-2.4C335.31,136,334.67,132.76,332.85,131.11Z"/><path class="cls-2" d="M334.44,150.06a3.42,3.42,0,0,0-.67-.88,4.43,4.43,0,0,1-3,3.1c-3.26,1.07-6.54.48-9.85,1.06a21.7,21.7,0,0,0-5.69,1.86v0c.51,1,3.7-1.16,10.5-.81,4.44.23,6.92,1.36,8.33-.15A3.88,3.88,0,0,0,334.44,150.06Z"/><path class="cls-2" d="M327.89,169.54c-2.38,4.17-5.94,6-10.95,4.34a26,26,0,0,1-8.19-4.23c.76,1.85,4.08,3.78,6.65,5.27,3.65,2.11,6.86,4,9.83,2.62a6.17,6.17,0,0,0,3.61-5.75A4.38,4.38,0,0,0,327.89,169.54Z"/><path class="cls-2" d="M302.63,183.34l.5,1.1c2.19,4.85,3.13,5.57,4.1,5.87a5.26,5.26,0,0,0,5.93-2.62,3.77,3.77,0,0,0,.27-1.92C309.6,188.11,305.66,186.27,302.63,183.34Z"/><path class="cls-2" d="M288.74,188.46a32.16,32.16,0,0,1-.46-3.27c-1.12,3.57-2.4,5.24-1.5,6.5s2.85,1.21,4.2.73a4.34,4.34,0,0,0,1.29-.74A4.33,4.33,0,0,1,288.74,188.46Z"/><path class="cls-2" d="M274.45,180.43a15,15,0,0,1,1.27-5.67,17.94,17.94,0,0,0-1.49,1.12c-1.41,1.2-3.8,3.25-3.32,5.92a4.84,4.84,0,0,0,3.79,3.82,3.6,3.6,0,0,0,1.91-.21A6.74,6.74,0,0,1,274.45,180.43Z"/><path class="cls-2" d="M274.43,169.83a5.32,5.32,0,0,1-2.62-2.22,5.61,5.61,0,0,1-.51-4,4.64,4.64,0,0,1,.16-.53,1.59,1.59,0,0,0-1.37-.41c-.64.18-1.44,1-1.83,4.05.19.34,2,3.43,5.32,3.66a6.77,6.77,0,0,0,2-.2A6.59,6.59,0,0,1,274.43,169.83Z"/><path class="cls-2" d="M284.73,161.36a1.92,1.92,0,0,1-1.75.42,2.76,2.76,0,0,1-1.38-.91,7.14,7.14,0,0,1-1.1-1.91,2.68,2.68,0,0,1,.48-3,5.27,5.27,0,0,1,2-1.07,3.75,3.75,0,0,0-1.71-.9c-1.63-.36-3.77.29-4.25,1.67-.41,1.15.49,2.34,1.56,3.74a20.56,20.56,0,0,0,2.52,2.81l.08.07c1,.88,2.07,1.52,2.88,1.15s1.09-1.45,1.13-2.74A1.7,1.7,0,0,1,284.73,161.36Z"/><path class="cls-2" d="M291.89,163.66a6.14,6.14,0,0,1-1-3,4.87,4.87,0,0,1,.24-2.83,1.14,1.14,0,0,1,1.29-.53,5.65,5.65,0,0,1,3.11,2.47,1.45,1.45,0,0,1,.12.35.6.6,0,0,1,.06.11,1.9,1.9,0,0,1,.09.29l.05.08a4.87,4.87,0,0,0-.82-3.18c-1-1.38-3-2.61-4.33-2-1.79.83-1.43,4.32-1.33,5.31.06.55.49,4.66,2.42,5a3,3,0,0,0,2.57-1.44A2.15,2.15,0,0,1,291.89,163.66Z"/><path class="cls-2" d="M281.83,108.28c-1.2-.29-2-1.18-3.31-3.41-3.18-5.37-4.77-8.05-3.83-11.1a6.33,6.33,0,0,1,2.74-3.63,6.94,6.94,0,0,1,4.91-.42,11.5,11.5,0,0,1,5.13,2.46c.36.28.72.59,1.07.91.09-3-.37-5.55-2.42-7.5-3.11-3-8.72-3.43-11.89-1-5.05,3.8-2.26,13.55.64,18.52.44.75,4.38,7.51,8.07,6.78a4.58,4.58,0,0,0,2.94-2.74A5.14,5.14,0,0,1,281.83,108.28Z"/><path class="cls-4" d="M184.29,421.89c1.9-3.07-.82-7.88-1.55-9.27-10.86-20.62,2-136.36,7.32-188.14.33-3.16,2.84-27.47,3.27-31.59.27-2.68,2.69-25.95,3-28.68,0,0,2.56-14.88,2.5-46.25-.07-40.3,1.13-80.49-24.67-102.71A65.21,65.21,0,0,0,116.33,2C89.87,9,70.05,33.47,68.17,60.1c-1.79,25.19,12.08,58,34.28,60.09,16.9,1.62,37.59-14.63,38.42-32.62.47-10.19-5.35-22.65-14.85-26.15-4.07-1.5-11.34-2.29-15.75,1.47C109,64,107.56,65.77,108,66.5c.72,1.17,5.16-1.79,9.28-1.53,7.78.5,16.64,12.66,15.5,23.25-1.51,14-20.3,24-32.94,20.66C83.33,104.5,78.46,77.5,80.49,60.45,82.71,41.82,95,19.54,117.55,12.66c18-5.48,37.41.29,49.91,11C178.31,33,188.6,50,187,121.05A700.1,700.1,0,0,1,178,220S155.55,353,162.18,413.05a13.39,13.39,0,0,0,3.55,8.07C170.91,426.22,181.69,426.1,184.29,421.89Z"/><path class="cls-4" d="M175.68,248.42c-.69-5.9-3.74-27.5-18-47.51-24.41-34.2-82.1-64.4-121.73-39.39-31.39,19.8-47.16,71-26.8,97.51,11.43,14.88,36.54,25,55.54,15.18,17.64-9.1,28.2-34.43,19.7-47.15-4.89-7.29-16.8-11.58-26.16-8.71-3.82,1.16-8.44,3.89-8.07,5.81.72,3.71,19-1.56,24.86,6.13s-.71,28.13-14.85,34.87c-13.87,6.62-31.55-1.65-39.72-12.27C4.22,231.83,16,189.3,41.74,172.82c30.42-19.5,76.28-.54,98.81,25.51,35,40.44,19.19,104.23,26,104.58C171.09,303.13,178.86,275.6,175.68,248.42Z"/><path class="cls-4" d="M198.26,135.67c.65-2.72,11-42.7,50.46-56.17,23.2-7.92,53.52-5.66,73.94,13.89,27.12,26,28.73,74.64,5.81,95.57C317,199.45,297,205.15,280.68,198c-1.34-.59-20.66-9.39-20.45-25.18.21-14.92,17.53-27.86,27.72-25,5.73,1.59,9.6,8.27,8.61,9.59-1.11,1.5-7.67-4.93-15.28-3.37-7.2,1.48-14.32,9.9-13.83,18.81.63,11.54,13.66,16.85,15.6,17.65,13.1,5.35,29.23-.05,38.32-8.61,19.15-18,17.63-60.16-5.81-82C297.4,82.92,268.8,80.66,248.39,90c-38.7,17.68-47,76.57-52.17,75C194.6,164.54,194.18,158.27,198.26,135.67Z"/><path class="cls-1" d="M61.76,271.62a43.3,43.3,0,0,1-19.25,1.23c-2-.31-21-3.64-31.12-20.44A42.58,42.58,0,0,1,7,242c-3.86-12.69-2.15-23.41-.4-33.09a114.36,114.36,0,0,1,8.11-26.21c-16,23.9-20.59,56.77-5.6,76.29,11.43,14.88,36.54,25,55.54,15.18a42,42,0,0,0,14.88-13.52A42.07,42.07,0,0,1,61.76,271.62Z"/><path class="cls-1" d="M170.69,297.21a4.32,4.32,0,0,1-1.11-1.32,4.92,4.92,0,0,1-.37-3.11c.12-.69.23-11.66.44-33.6.1-10-2.07-17.3-4.54-25.65A103.17,103.17,0,0,0,149,200.36s-15.88-21.35-40.12-32a89.2,89.2,0,0,0-26.58-7.21,75.26,75.26,0,0,0-26.68,2.12,42,42,0,0,0-22.12,13.31,52.66,52.66,0,0,0-8.22,12.83,57.88,57.88,0,0,1,16.5-16.57c30.42-19.5,76.28-.54,98.81,25.51,32.88,38,18.59,104.27,26,104.58C168.24,303,169.72,299.78,170.69,297.21Z"/><path class="cls-1" d="M50.14,224.16c.72,3.71,19-1.56,24.86,6.13,5,6.5,1,22.2-8.94,30.93a27.4,27.4,0,0,0,7.87-5.71c1.8-1.87,8.16-8.51,7.42-17.9-.11-1.42-.75-9.58-6.46-13.13-4.87-3-13.54-2.77-16.59-2.06a12.06,12.06,0,0,1-6.08-.29,2.78,2.78,0,0,1-.42-.2,2.26,2.26,0,0,1-.26-.16C50.57,222.6,50,223.43,50.14,224.16Z"/><path class="cls-1" d="M296.7,156.69a1,1,0,0,1-.14.7c-1.11,1.49-7.67-4.94-15.28-3.38a16.15,16.15,0,0,0-7.36,4,13.27,13.27,0,0,1,7.45-6.22c5.51-1.73,11.16.77,12.33,2.62a4.38,4.38,0,0,0,1.85,1.94A11.59,11.59,0,0,0,296.7,156.69Z"/><path class="cls-1" d="M330.92,186.53c-.79.85-1.59,1.66-2.44,2.43-11.49,10.49-31.52,16.19-47.8,9-1.34-.6-20.66-9.39-20.44-25.19A23.34,23.34,0,0,1,264.56,160a25.33,25.33,0,0,0-1.24,14.31c4.09,18.14,29.45,22.51,31.08,22.76C310.74,199.7,324.1,191.77,330.92,186.53Z"/><path class="cls-1" d="M336.31,158a56,56,0,0,1-14.94,23.89c19.15-18,17.63-60.15-5.81-82C297.4,82.93,268.8,80.66,248.39,90A62.2,62.2,0,0,0,228,105.35a60.34,60.34,0,0,1,26.42-21c24.9-10,47.28,1.33,50.91,3.25a63,63,0,0,1,28.7,31.69C336.05,124.26,342,139.65,336.31,158Z"/><path class="cls-1" d="M208.48,112.35c-.93,1.7-2.27,4.28-3.68,7.53-.47,1.09-1.69,4-4.52,12.58-1.66,5.07-2.49,7.61-3.32,10.78a42.69,42.69,0,0,0-1.67,12.68c.07,2.15.21,5.61,1.66,6,.81.23,1.79-.59,2.51-1.37-.93,2.55-2,4.35-2.8,4.51a3.06,3.06,0,0,1-.46,0,2.5,2.5,0,0,1-1.53-.74,6.82,6.82,0,0,1-1.73-2.75,11.58,11.58,0,0,1-.58-3.75c.36-9.82,6.17-25.32,6.17-25.32a96.13,96.13,0,0,1,5.09-12A84.5,84.5,0,0,1,208.48,112.35Z"/><path class="cls-1" d="M132.8,88.22c1.14-10.59-7.73-22.75-15.5-23.25-4.12-.26-8.56,2.7-9.29,1.54-.2-.33,0-.9.38-1.51a3.5,3.5,0,0,0,.9.19A5.51,5.51,0,0,0,113,63.7c2.83-2.11,14.38,1.21,19.26,9.82,4.19,7.38,2.79,17.41-3.72,24.66A19.32,19.32,0,0,0,132.8,88.22Z"/><path class="cls-1" d="M132.77,106.28c-7.76,9-19.78,14.92-30.32,13.9-22.21-2.12-36.06-34.89-34.28-60.09a61.87,61.87,0,0,1,3.28-15.83A72.68,72.68,0,0,0,70.81,69c1,6.87,5.87,40,29.21,46C113,118.35,125.22,111.83,132.77,106.28Z"/><path class="cls-1" d="M182,217.42C166.26,334.85,167.56,336,167.67,404.66c0,2.11.1,8.25,4.2,12.26.54.53,4.49,4.39,9,3.24a8.1,8.1,0,0,0,3.89-2.4,5.7,5.7,0,0,1-.5,4.13c-2.6,4.2-13.38,4.33-18.55-.77a13.35,13.35,0,0,1-3.56-8.07C155.54,353,178,220,178,220a701.25,701.25,0,0,0,9-98.91c1.56-71.07-8.73-88-19.58-97.38-12.5-10.72-32-16.49-49.91-11a48.5,48.5,0,0,0-22.7,15.08h0a47.58,47.58,0,0,1,19.25-17c23.59-11.11,47.06,3.55,49.08,4.85,13.11,8.48,18.59,20.48,21.63,27.13,5.13,11.2,5.76,20.81,6.13,42.29.46,26.28.68,39.43-.33,55.86C188.79,170.36,185.68,190.27,182,217.42Z"/><path class="cls-3" d="M187.11,247.21c3.79,2.92,15-3.32,21.46-11.54,8.47-10.69,10.12-26.08,6.46-28-2-1-7.07,3.62-17.22,12.92-6.08,5.56-7.65,7.65-8.89,10C186.11,236,183.93,244.76,187.11,247.21Z"/><path class="cls-3" d="M192.73,198.13c2.84,3.16,11.59.64,17.13-3.36,11.29-8.13,14-25.77,10.34-28-1.27-.77-5.73,2.5-14.64,9-7.69,5.64-10,7.93-11.59,11.29C193.34,188.44,190.11,195.22,192.73,198.13Z"/><path class="cls-3" d="M184.05,278.26c2.74-4.68,7.52-5.27,14.62-8.14,14.55-5.89,18-12.92,20.66-11.2,4.14,2.63,1.57,22.49-11.22,30.13-8.41,5-21.59,5-24.94-.93C181.45,285.11,182.5,280.9,184.05,278.26Z"/><path class="cls-3" d="M180.82,317.86c3.11-4.35,8.78-5.1,20-6.41,12-1.41,18-2.11,19.38.43,2.52,4.48-7.13,17.38-19.81,21.52-1.13.37-15.51,4.9-20.43-2.14C177.34,327.52,178.16,321.6,180.82,317.86Z"/><path class="cls-3" d="M178.73,358c1.3-2.45,3.78-4.53,13.05-6.9,11-2.8,19.93-5.08,22-1.72s-3.78,11.6-10.33,15.93c-8.35,5.51-21.24,7.06-24.89,1.71C176.73,364.35,177.41,360.42,178.73,358Z"/><path class="cls-2" d="M194.94,239.83c-5.16-1.94-5.32-7.13-4.08-12.18a18.14,18.14,0,0,0-1.94,3c-2.81,5.35-5,14.14-1.81,16.59,3.79,2.92,15-3.32,21.46-11.54a38.23,38.23,0,0,0,4.75-7.84C208.92,234.78,201.78,242.39,194.94,239.83Z"/><path class="cls-2" d="M201.78,194.87a7.05,7.05,0,0,1-7.46-7.7c0-.32.08-.64.12-1-.16.3-.32.6-.47.91-.63,1.32-3.86,8.1-1.24,11,2.84,3.16,11.59.64,17.13-3.36a27.72,27.72,0,0,0,8.23-9.84C213.8,190.23,207.91,194.6,201.78,194.87Z"/><path class="cls-2" d="M202.19,286.43c-6,.84-12.85-.42-16-6.18a10.59,10.59,0,0,1-1.17-3.4,10.11,10.11,0,0,0-1,1.41c-1.55,2.64-2.6,6.85-.88,9.86,3.35,5.89,16.53,5.94,24.94.93a25.51,25.51,0,0,0,9.29-10.21A28.83,28.83,0,0,1,202.19,286.43Z"/><path class="cls-2" d="M198.38,329.53c-5,.91-10.95.25-14.65-3.65a9.78,9.78,0,0,1-2.79-8.16l-.12.14c-2.66,3.74-3.48,9.66-.86,13.4,4.92,7,19.3,2.51,20.43,2.14a35.86,35.86,0,0,0,14.14-9A65.34,65.34,0,0,1,198.38,329.53Z"/><path class="cls-2" d="M195.45,366.28c-7.73,1.57-14.61-1.93-17-7.78-1.13,2.48-1.62,6,.05,8.47,3.65,5.35,16.54,3.8,24.89-1.71a31.71,31.71,0,0,0,8.21-8C206.94,361.5,201.47,365.06,195.45,366.28Z"/></g></svg>